<svg width="163" height="224" viewBox="0 0 163 224" fill="none" xmlns="http://www.w3.org/2000/svg">
<mask id="mask0_1064_1795" style="mask-type:alpha" maskUnits="userSpaceOnUse" x="0" y="0" width="163" height="224">
<rect width="163" height="224" fill="#C4C4C4"/>
</mask>
<g mask="url(#mask0_1064_1795)">
<g clip-path="url(#clip0_1064_1795)">
<path d="M60.6034 61.4646C60.6034 61.4646 39.6257 73.0205 34.8239 87.9108C27.1361 111.816 33.4779 149.669 52.0547 145C67.1393 141.206 55.2074 109.746 63.8047 101.605C72.4019 93.4645 82.6361 84.9213 72.3898 61.6716L60.6034 61.4646Z" fill="#2E2766"/>
<path d="M60.4701 61.7405V61.844C49.0718 67.2252 39.4317 74.9521 33.963 86.071C30.9042 92.3861 29.3308 99.2565 29.3517 106.206C29.3726 113.155 30.9875 120.017 34.0842 126.315C34.157 126.453 33.9387 126.568 33.866 126.43C21.2793 102.594 32.2169 69.9618 60.4701 61.7405Z" fill="#2E2766"/>
<path d="M63.9259 104.71C66.0115 100.858 69.2613 97.8108 71.8805 94.2923C79.0711 84.6911 76.9369 72.9168 72.5959 62.6603C72.5959 62.5338 72.7778 62.4418 72.8384 62.5683C77.2401 70.9621 79.738 80.5977 75.9669 89.6699C74.439 93.3494 71.7956 96.339 69.1158 99.2941C67.0685 101.345 65.2782 103.614 63.7804 106.055C61.9373 109.505 61.5492 113.334 61.137 117.071C61.137 117.14 61.0278 117.14 61.04 117.071C61.331 112.782 61.816 108.596 63.9259 104.71Z" fill="#2E2766"/>
<path d="M136.511 151.267C136.511 151.267 157.622 190.58 157.477 200.894C157.331 211.208 154.785 220.257 150.674 221.269C146.564 222.281 129.866 202.584 127.162 199.744C124.458 196.904 113.217 162.443 109.701 156.165C106.185 149.887 128.375 142.482 136.511 151.267Z" fill="#FDD7BC"/>
<path d="M88.3595 107.228C96.593 110.287 110.125 114.736 113.703 118.335C117.28 121.934 152.396 165.088 153.148 168.928C153.9 172.769 136.729 187.935 128.896 189.361C122.695 190.344 116.329 189.142 110.998 185.98C108.549 184.279 88.3595 107.228 88.3595 107.228Z" fill="#C0DCD9"/>
<path d="M4.97009 351.373C26.2024 365.55 83.4 368.873 94.4224 366.459C105.445 364.044 131.855 354.316 134.28 350.959C136.705 347.601 139.688 302.976 136.05 278.266C134.365 266.768 129.733 247.888 125.331 230.893C121.536 216.244 117.934 203.032 116.564 197.168C116.224 196.141 116.044 195.072 116.031 193.995C116.952 193.431 129.696 177.702 127.15 167.008C124.604 156.315 93.9253 110.666 88.4444 107.217C82.9635 103.767 74.3056 105.802 65.9994 106.481C56.5898 107.263 37.4188 121.429 34.9573 129.098C32.9444 135.388 31.5742 177.552 30.6647 193.73C30.6187 195.819 30.4487 197.903 30.1555 199.974C29.537 201.687 24.4684 223.396 19.8364 241.035C17.9326 248.267 16.1137 254.833 14.6829 259.018C9.74766 273.563 1.05344 348.797 4.97009 351.373Z" fill="#C0DCD9"/>
<path d="M110.574 137.365C110.554 137.315 110.553 137.258 110.572 137.207C110.591 137.156 110.628 137.113 110.678 137.085C110.727 137.057 110.785 137.047 110.842 137.057C110.898 137.066 110.949 137.094 110.986 137.135C113.763 140.987 116.249 145.046 118.674 149.174C117.813 146.621 116.795 144.126 115.679 141.608C115.685 141.593 115.696 141.58 115.71 141.571C115.724 141.562 115.741 141.558 115.758 141.558C115.775 141.558 115.791 141.562 115.805 141.571C115.819 141.58 115.83 141.593 115.837 141.608C117.657 144.697 119.02 148.009 119.887 151.451C120.214 152.026 120.554 152.601 120.869 153.199C123.44 157.913 126.362 163.099 127.453 168.353C129.321 177.357 122.664 188.257 116.213 194.478C115.97 194.708 115.618 194.363 115.837 194.11C122.967 185.9 128.775 175.482 124.64 164.789C121.014 155.222 115.837 146.219 110.574 137.365Z" fill="#2E2766"/>
<path d="M19.7878 241.046C23.2639 241.527 26.7657 241.822 30.2767 241.931C42.1433 242.323 54.0207 241.552 65.7205 239.632C78.0339 237.821 90.0993 234.728 101.698 230.41C105.788 228.71 110.329 228.241 114.709 229.065C117.34 229.479 119.959 230.031 122.591 230.479C123.488 230.629 124.361 230.778 125.258 230.893C121.463 216.244 117.862 203.032 116.491 197.168C110.598 195.754 104.523 194.811 98.7271 193.627C89.5114 191.753 81.5811 199.801 71.7713 199.652C59.1968 199.456 44.7065 189.303 33.1384 192.891C32.2775 193.167 31.4286 193.443 30.592 193.742C30.5696 195.825 30.4239 197.906 30.1554 199.974C29.4885 201.699 24.4199 223.408 19.7878 241.046Z" fill="#A2C8C3"/>
<path d="M93.0401 200.56C97.205 187.985 97.9351 174.612 95.1621 161.696C92.371 149.181 88.4729 136.911 83.5092 125.016C83.4485 124.855 83.7274 124.74 83.8002 124.901C89.5635 137.605 93.7782 150.891 96.3625 164.501C98.5331 175.931 98.8726 189.131 93.7919 199.985C93.9495 199.985 105.615 313.244 92.6642 365.297C92.5914 365.619 92.0821 365.481 92.1549 365.159C104.632 312.738 92.9794 200.744 93.0401 200.56Z" fill="#2E2766"/>
<path d="M83.7517 142.746C84.1276 143.379 85.5827 143.965 86.0677 142.965C86.5527 141.965 85.6433 140.665 84.4792 141.183C84.4503 141.198 84.4161 141.202 84.3843 141.193C84.3524 141.184 84.3255 141.164 84.3094 141.137C84.2934 141.109 84.2894 141.077 84.2985 141.047C84.3076 141.016 84.329 140.991 84.3579 140.976C85.9101 140.044 87.3167 141.988 86.6861 143.344C86.0556 144.701 83.5576 144.276 83.6425 142.781C83.6425 142.723 83.7274 142.7 83.7517 142.746Z" fill="#2E2766"/>
<path d="M89.5721 177.598C89.948 178.219 91.4031 178.805 91.8881 177.817C92.3731 176.828 91.4637 175.517 90.3118 176.023C90.1662 176.08 90.045 175.908 90.1784 175.827C91.7305 174.884 93.1371 176.839 92.5065 178.185C91.876 179.53 89.3781 179.116 89.463 177.621L89.5721 177.598Z" fill="#2E2766"/>
<path d="M86.9165 196.007C87.2924 196.628 88.7596 197.157 89.2326 196.225C89.7055 195.294 88.8203 193.926 87.6562 194.443C87.5107 194.501 87.3894 194.317 87.5228 194.236C89.0749 193.305 90.4815 195.248 89.851 196.605C89.2204 197.962 86.7225 197.525 86.8074 196.041C86.8074 195.984 86.8923 195.949 86.9165 196.007Z" fill="#2E2766"/>
<path d="M86.9165 213.174C87.2924 213.795 88.7596 214.381 89.2326 213.393C89.7055 212.404 88.8203 211.093 87.6562 211.599C87.5107 211.599 87.3894 211.484 87.5228 211.403C89.0749 210.46 90.4815 212.415 89.851 213.76C89.2204 215.106 86.7225 214.692 86.8074 213.197L86.9165 213.174Z" fill="#2E2766"/>
<path d="M88.0321 160.178C88.408 160.81 89.8631 161.397 90.3481 160.397C90.8332 159.396 89.9237 158.097 88.7718 158.614C88.744 158.621 88.7145 158.62 88.6878 158.61C88.6611 158.599 88.6386 158.581 88.6236 158.558C88.6086 158.535 88.6019 158.508 88.6046 158.48C88.6072 158.453 88.6191 158.428 88.6384 158.407C90.1905 157.476 91.5971 159.431 90.9665 160.776C90.336 162.121 87.8381 161.707 87.923 160.213C87.923 160.155 88.0078 160.132 88.0321 160.178Z" fill="#2E2766"/>
<path d="M89.4872 193.972C96.7627 192.442 103.117 194.42 110.101 195.605C110.162 195.605 110.101 195.697 110.101 195.697C107.274 195.572 104.463 195.222 101.698 194.65C97.6721 194.204 93.6081 194.158 89.5721 194.512C89.502 194.513 89.4342 194.489 89.381 194.446C89.3278 194.403 89.2928 194.343 89.2825 194.277C89.2722 194.211 89.2872 194.144 89.3248 194.088C89.3624 194.032 89.4201 193.991 89.4872 193.972Z" fill="#2E2766"/>
<path d="M54.5284 193.558C61.0642 198.387 68.5701 200.365 76.7308 198.571C83.2303 197.145 88.9294 194.489 95.6471 196.34C95.7441 196.34 95.732 196.524 95.6471 196.513C86.8801 195.639 79.1923 200.79 70.5224 200.687C64.3182 200.622 58.3919 198.237 54.0312 194.052C53.6674 193.719 54.1646 193.282 54.5284 193.558Z" fill="#2E2766"/>
<path d="M58.3983 145.255L114.35 149.198C117.082 149.39 119.132 151.646 118.929 154.236L113.294 226.133C113.091 228.723 110.712 230.667 107.981 230.474L52.0289 226.531C49.2973 226.339 47.2476 224.083 47.4506 221.493L53.085 149.596C53.288 147.006 55.6668 145.063 58.3983 145.255Z" fill="#DD9168"/>
<path d="M72.8457 142.083L99.9712 143.967C101.1 144.046 101.948 144.977 101.865 146.047L101.472 151.139C101.389 152.209 100.407 153.013 99.2784 152.935L72.1528 151.051C71.0241 150.972 70.1761 150.041 70.2588 148.971L70.6521 143.879C70.7348 142.809 71.7169 142.005 72.8457 142.083Z" fill="#BDBFE1"/>
<path d="M78.2587 137.883L77.907 142.482L81.7509 142.747L81.9086 140.631C81.952 140.095 82.2174 139.597 82.6468 139.246C83.0762 138.894 83.6347 138.719 84.2003 138.757L89.2689 139.113C89.8333 139.151 90.3585 139.401 90.7291 139.806C91.0998 140.211 91.2855 140.74 91.2455 141.275L91.0878 143.391L94.9317 143.666L95.2834 139.067C95.3131 138.683 95.2626 138.297 95.1349 137.931C95.0071 137.565 94.8046 137.227 94.5388 136.935C94.273 136.644 93.9492 136.405 93.5859 136.232C93.2227 136.059 92.827 135.956 92.4217 135.928L81.5084 135.169C80.7007 135.131 79.9091 135.393 79.3022 135.9C78.6953 136.407 78.3209 137.118 78.2587 137.883Z" fill="#BDBFE1"/>
<path d="M21.2429 162.869C17.0231 165.881 11.615 209.552 11.2997 214.496C10.9845 219.441 17.205 228.904 18.8663 229.306C20.5275 229.709 36.4366 224.121 40.3048 219.268C44.1729 214.416 46.3677 170.665 45.531 167.997C44.6943 165.329 25.1717 160.063 21.2429 162.869Z" fill="#FDD7BC"/>
<path d="M47.7986 115.242C45.725 117.784 26.9906 127.235 23.5469 133.513C20.1031 139.791 13.1398 189.321 12 192C10.8602 194.679 21.5 197.5 27.4999 199.594C34.9088 200.848 45.2158 198.203 48.8656 196.34C52.5155 194.478 47.7986 115.242 47.7986 115.242Z" fill="#C0DCD9"/>
<path d="M50.9634 153.98C50.9634 153.962 50.971 153.945 50.9847 153.932C50.9983 153.919 51.0168 153.911 51.0361 153.911C51.0554 153.911 51.0739 153.919 51.0876 153.932C51.1012 153.945 51.1089 153.962 51.1089 153.98C50.2965 168.1 49.9933 182.278 50.4056 196.421C50.4056 196.54 50.3558 196.654 50.2671 196.738C50.1784 196.822 50.0581 196.869 49.9327 196.869C49.8073 196.869 49.687 196.822 49.5983 196.738C49.5096 196.654 49.4598 196.54 49.4598 196.421C48.6988 182.259 49.2018 168.062 50.9634 153.98Z" fill="#2E2766"/>
<path d="M30.4707 132.858C35.2942 134.438 39.5679 137.244 42.8263 140.968C46.0848 144.693 48.2031 149.193 48.9505 153.98C48.9505 154.084 48.805 154.13 48.7808 153.98C47.8885 149.275 45.7327 144.867 42.5214 141.181C39.31 137.496 35.1514 134.657 30.4465 132.938C30.3737 132.927 30.398 132.835 30.4707 132.858Z" fill="#2E2766"/>
<path d="M18.551 229.157C21.922 231.364 56.5292 232.606 73.8206 229.686C85.699 227.432 97.3688 224.283 108.719 220.268C116.964 217.336 123.027 214.519 123.076 212.921C123.197 209.299 115.618 201.423 110.756 201.94C105.893 202.457 77.1795 199.928 66.8361 200.56C58.4814 201.066 50.2358 201.377 43.2999 201.906C36.3639 202.434 30.495 203.216 27.4635 204.688C21.4733 207.586 18.551 229.157 18.551 229.157Z" fill="#FDD7BC"/>
<path d="M43.2999 201.906C45.877 203.775 48.5653 205.503 51.3514 207.08C59.6711 211.771 68.7069 215.211 78.1374 217.279C88.1187 219.707 98.4251 220.714 108.719 220.268C116.964 217.336 123.027 214.519 123.076 212.921C123.197 209.299 115.618 201.423 110.756 201.94C105.893 202.457 77.1795 199.928 66.8361 200.56C58.4814 201.124 50.2359 201.377 43.2999 201.906Z" fill="#BC847A"/>
<path d="M42.3904 201.653C42.4097 201.653 42.4282 201.66 42.4419 201.673C42.4555 201.686 42.4632 201.703 42.4632 201.722C42.4632 201.74 42.4555 201.757 42.4419 201.77C42.4282 201.783 42.4097 201.791 42.3904 201.791C33.2718 203.492 27.8394 208.241 23.1224 215.589C22.9648 215.819 22.5162 215.669 22.6253 215.393C25.6204 207.896 33.6598 201.561 42.3904 201.653Z" fill="#BC847A"/>
<path d="M150.674 221.269C142.186 225.776 77.1431 208.621 73.0688 206.114C71.8562 205.367 54.5042 204.665 51.5333 204.297C48.5625 203.929 43.5424 200.905 43.2514 199.226C43.0915 197.916 43.3225 196.59 43.9183 195.398C44.2093 194.719 42.2449 192.086 42.4389 190.879C42.8944 189.62 43.5179 188.422 44.2942 187.314C44.6216 186.636 43.8577 183.623 44.2942 182.715C44.7307 181.806 46.7194 180.852 47.3984 180.105C48.0775 179.357 46.8164 178.357 48.2108 177.564C52.176 175.264 71.7956 185.072 74.7907 186.026C77.7858 186.981 105.214 187.176 112.381 188.004C119.547 188.832 131.224 189.476 138.633 195.765C146.042 202.055 150.674 221.269 150.674 221.269Z" fill="#FDD7BC"/>
<path d="M124.034 189.269C134.45 189.062 142.222 198.41 146.273 206.517C146.28 206.53 146.286 206.545 146.287 206.56C146.289 206.576 146.288 206.592 146.283 206.607C146.279 206.621 146.271 206.635 146.261 206.648C146.251 206.66 146.238 206.67 146.224 206.678C146.21 206.685 146.194 206.69 146.178 206.692C146.161 206.693 146.145 206.692 146.129 206.688C146.113 206.684 146.099 206.676 146.086 206.667C146.073 206.657 146.062 206.645 146.054 206.632C140.416 198.123 134.486 192.224 123.973 189.763C123.904 189.756 123.841 189.722 123.798 189.671C123.754 189.619 123.735 189.553 123.743 189.487C123.751 189.422 123.786 189.362 123.84 189.321C123.895 189.28 123.965 189.261 124.034 189.269Z" fill="#BC847A"/>
<path d="M75.0211 96.1436C84.4792 98.2478 89.851 104.537 92.9309 107.378C96.0109 110.218 104.936 128.247 104.911 131.352C104.887 134.456 88.2504 120.934 84.6975 121.003C82.2723 121.003 73.4083 139.4 68.9339 138.469C63.259 137.319 52.855 121.613 52.8065 113.242C52.8065 110.471 57.3901 103.399 61.5614 99.8001C66.3268 95.6837 70.971 95.2583 75.0211 96.1436Z" fill="#C0DCD9"/>
<path d="M52.6731 113.736H52.7823C56.2139 126.959 66.6542 138.136 68.9581 138.458C71.6016 138.826 83.2666 120.532 84.6247 120.428C87.1469 120.244 104.123 131.375 104.317 131.202C104.511 131.03 102.304 123.671 94.2648 109.137C94.2648 109.068 94.3254 109.01 94.3618 109.137C103.687 122.636 106.488 132.869 105.275 132.858C103.602 132.858 92.1306 125.108 85.1704 121.682C81.86 126.085 71.9532 139.734 69.5281 139.734C64.8354 139.711 53.3643 123.567 52.6731 113.736Z" fill="#2E2766"/>
<path d="M56.2138 75.7915C56.2138 75.7915 56.8565 82.0006 57.6811 89.2446C57.8023 90.199 57.8993 91.1648 58.0206 92.1422C59.0513 100.915 61.6584 111.862 62.2404 112.839C63.3196 114.817 72.6686 123.429 80.1745 122.256C87.6804 121.084 86.5406 114.127 86.5406 114.127L86.3951 110.517L86.1647 103.388L85.5099 84.7947L59.8637 76.8034L56.2138 75.7915Z" fill="#FDD7BC"/>
<path d="M56.2139 75.7915C56.2139 75.7915 56.8565 82.0006 57.6811 89.2446C65.2476 97.7534 75.3848 104.169 86.1647 103.388L85.5099 84.7947L59.8638 76.8034L56.2139 75.7915Z" fill="#BC847A"/>
<path d="M112.223 52.0474C112.223 52.0474 105.833 85.5651 118.674 99.0987C118.674 99.0987 104.863 91.7282 104.62 65.5464L112.223 52.0474Z" fill="#2E2766"/>
<path d="M98.6907 22.416C98.6907 22.416 110.089 23.9568 113.69 37.2834C116.685 48.3678 109.749 59.1303 108.331 60.2801C105.809 62.2119 92.3489 29.798 98.6907 22.416Z" fill="#2E2766"/>
<path d="M111.483 58.2795C113.399 91.1993 94.0708 94.0394 88.2261 95.3387C81.5811 96.753 55.3529 97.167 49.8599 64.6151C44.3669 32.0632 59.888 20.8063 75.3242 19.2311C90.7604 17.6558 109.555 25.3597 111.483 58.2795Z" fill="#FDD7BC"/>
<path d="M82.8544 61.9245C82.8544 61.844 82.6967 62.0624 82.7089 62.1544C83.1454 64.3621 83.2545 66.9607 81.2538 68.0071C81.2538 68.0071 81.2538 68.1451 81.2538 68.1221C83.8244 67.3977 83.6426 63.9597 82.8544 61.9245Z" fill="#2E2766"/>
<path d="M80.3928 59.9239C76.5853 60.1998 77.4584 67.3978 80.987 67.1448C84.5156 66.8919 83.5819 59.6939 80.3928 59.9239Z" fill="#2E2766"/>
<path d="M99.1757 60.4183C99.1757 60.3263 99.3576 60.5218 99.3576 60.6138C99.3576 62.9134 99.6729 65.4316 101.783 66.1445C101.783 66.1445 101.783 66.2825 101.783 66.271C99.1879 65.9605 98.7513 62.534 99.1757 60.4183Z" fill="#2E2766"/>
<path d="M101.249 58.038C105.045 57.7161 105.469 64.9371 101.94 65.259C98.4119 65.581 98.0602 58.314 101.249 58.038Z" fill="#2E2766"/>
<path d="M87.9957 77.9532C88.5535 78.4821 89.0992 79.218 89.9601 79.31C90.8419 79.3104 91.7138 79.1341 92.5187 78.7926C92.5362 78.7857 92.5557 78.7847 92.574 78.7896C92.5923 78.7945 92.6084 78.8051 92.6195 78.8197C92.6307 78.8343 92.6364 78.852 92.6357 78.87C92.635 78.888 92.6279 78.9053 92.6157 78.9191C92.2656 79.351 91.7995 79.6857 91.2661 79.888C90.7328 80.0903 90.1518 80.1528 89.5842 80.0689C89.1115 79.9419 88.6879 79.6874 88.3649 79.3362C88.042 78.9851 87.8337 78.5525 87.7653 78.0912C87.7289 77.9187 87.9108 77.8727 87.9957 77.9532Z" fill="#BC847A"/>
<path d="M95.1621 70.6172C95.1621 70.6172 95.7684 73.9517 95.829 75.527C95.829 75.6765 95.4289 75.757 94.8711 75.8145H94.7983C93.3768 76.1068 91.8979 76.0233 90.523 75.5732C89.1481 75.1231 87.9299 74.3235 87.0014 73.2618C86.8801 73.1123 87.0863 72.9399 87.2439 73.0319C89.4102 74.3341 91.9617 74.9389 94.5194 74.7566C94.6164 74.3197 93.3068 69.0879 93.5251 69.0074C94.8251 69.0743 96.1098 69.3064 97.3448 69.6973C96.2777 62.7178 94.0465 55.8993 93.1007 49.0003C93.096 48.9494 93.1102 48.8986 93.1409 48.8567C93.1715 48.8148 93.2167 48.7843 93.2686 48.7707C93.3204 48.757 93.3757 48.761 93.4247 48.7819C93.4738 48.8029 93.5136 48.8394 93.5372 48.8853C96.3989 55.7843 97.8055 63.8332 99.103 71.0081C99.2728 71.928 95.829 70.8587 95.1621 70.6172Z" fill="#BC847A"/>
<path d="M102.377 52.0819C101.562 51.9987 100.752 51.872 99.9518 51.7024C99.0977 51.6744 98.2763 51.3838 97.6115 50.8746C97.4393 50.6706 97.3455 50.4172 97.3455 50.1559C97.3455 49.8947 97.4393 49.6412 97.6115 49.4373C97.9922 49.0659 98.4704 48.7977 98.997 48.6603C99.5235 48.5228 100.079 48.5211 100.607 48.6554C101.719 48.7654 102.749 49.2657 103.493 50.0582C103.655 50.2465 103.755 50.4759 103.781 50.7178C103.807 50.9597 103.758 51.2036 103.639 51.4191C103.52 51.6346 103.337 51.8123 103.113 51.9301C102.889 52.0479 102.633 52.1007 102.377 52.0819Z" fill="#2E2766"/>
<path d="M77.131 54.255C77.9191 54.0595 78.6224 53.7606 79.3864 53.4961C80.2193 53.3474 80.9776 52.9434 81.5448 52.3463C81.6881 52.1231 81.747 51.8602 81.7117 51.6011C81.6765 51.3419 81.5492 51.1018 81.3508 50.9205C80.9102 50.614 80.3912 50.4247 79.8476 50.3722C79.304 50.3196 78.7554 50.4057 78.2587 50.6215C77.1797 50.9087 76.2537 51.5693 75.6637 52.4727C75.5527 52.6844 75.5071 52.9216 75.5321 53.1568C75.5572 53.3921 75.6519 53.6158 75.8053 53.8021C75.9587 53.9885 76.1646 54.1299 76.3992 54.21C76.6338 54.2902 76.8874 54.3058 77.131 54.255Z" fill="#2E2766"/>
<path d="M52.3578 66.5008C58.1176 66.8113 61.2825 52.0474 61.2825 52.0474C61.2825 52.0474 99.6972 45.7118 98.6907 22.4161C98.6907 22.4161 76.1366 7.00828 55.5954 23.9454C35.0542 40.8825 47.1316 66.2249 52.3578 66.5008Z" fill="#2E2766"/>
<path d="M59.5727 52.1508C68.8248 51.5529 77.9555 49.8512 85.6312 44.6079C93.6706 39.1002 96.9931 31.5343 98.4967 22.5655C98.4967 22.4736 98.6422 22.5655 98.6543 22.5655C99.7214 30.9478 93.7555 39.5601 87.1469 44.5159C79.4591 50.2651 69.2734 52.8637 59.5606 52.5648C59.5027 52.5632 59.4478 52.54 59.4081 52.5001C59.3683 52.4602 59.3468 52.4069 59.3484 52.3521C59.35 52.2972 59.3746 52.2451 59.4166 52.2074C59.4587 52.1696 59.5149 52.1493 59.5727 52.1508Z" fill="#2E2766"/>
<path d="M43.2756 72.342C43.2906 72.3899 43.3109 72.4362 43.3362 72.48C44.7792 75.7455 46.8649 78.6201 49.0718 79.632C49.1639 79.6835 49.2614 79.7259 49.3628 79.7585C50.0729 80.0923 50.847 80.286 51.6384 80.3279C52.4297 80.3697 53.2218 80.2588 53.9666 80.0019C54.7115 79.7449 55.3935 79.3473 55.9716 78.8331C56.5496 78.3189 57.0116 77.6988 57.3295 77.0103L55.7046 68.2026C55.7046 68.2026 55.5106 67.9266 55.1589 67.4667C54.8073 67.0068 54.7103 66.8573 54.4799 66.5698C53.8978 65.8684 53.1582 64.9716 52.3094 64.0977C51.1347 62.8309 49.7845 61.7208 48.2957 60.7977C46.6587 59.8548 44.9853 59.4294 43.4454 60.1537C40.4867 61.4991 41.0687 67.3517 43.2756 72.342Z" fill="#FDD7BC"/>
<path d="M45.046 64.3506C44.9611 64.3506 44.9369 64.4656 45.046 64.5001C49.0475 66.1788 51.1089 69.8008 52.4427 73.5378C51.2302 72.0775 49.6659 71.2381 47.5924 72.5489C47.4833 72.6179 47.5924 72.7789 47.6894 72.7674C48.4087 72.5756 49.1729 72.5986 49.878 72.8331C50.5831 73.0676 51.1949 73.5024 51.6303 74.0782C52.3474 75.0491 52.9531 76.0899 53.4371 77.1828C53.6189 77.5392 54.2737 77.3667 54.1525 76.9643V76.8838C54.4071 71.9855 50.5754 65.006 45.046 64.3506Z" fill="#BC847A"/>
<path d="M61.2825 52.0474C61.2825 52.0474 54.8922 85.5651 67.7455 99.0987C67.7455 99.0987 53.9221 91.7282 53.6796 65.5464L61.2825 52.0474Z" fill="#2E2766"/>
<path d="M42.5965 70.8357C43.8632 75.4162 46.2474 79.6502 49.5568 83.1964C53.9827 88.2327 60.2882 90.6129 66.533 92.6136C67.1514 92.7976 67.3333 91.8087 66.6906 91.6132C59.8898 89.5834 53.945 85.5569 49.7144 80.1149C49.4719 79.9654 49.2294 79.7929 48.999 79.6205C46.7921 78.6086 44.7064 75.734 43.2635 72.4685C43.2381 72.4246 43.2178 72.3784 43.2028 72.3305C43.0331 71.8591 42.8027 71.3416 42.5965 70.8357Z" fill="#F9F4E1"/>
<path d="M48.2472 60.7172C49.8383 61.5751 51.2953 62.6393 52.5761 63.8792C53.4377 64.5963 54.2254 65.3894 54.9285 66.2479C55.1832 66.5239 55.4257 66.8113 55.6682 67.0988C55.9107 67.3862 56.2624 67.8117 56.2624 67.8117C58.0085 70.1113 59.5 72.2845 60.1669 72.9514C60.373 73.1699 60.7247 72.8824 60.5913 72.664C58.6875 69.5479 55.0862 61.3151 50.1146 60.6252C49.4913 60.5506 48.859 60.5818 48.2472 60.7172Z" fill="#F9F4E1"/>
<path d="M57.7902 68.973C57.0142 67.3517 69.3704 72.9859 82.2481 70.4678C84.8794 69.9504 92.2276 67.1448 96.3019 67.1448C100.376 67.1448 105.178 70.2838 110.853 70.8702C112.781 71.0657 111.12 86.9679 106.184 93.867C104.56 96.1666 97.6964 100.766 93.416 101.226C83.4849 102.192 66.4845 95.4767 63.9017 92.3377C61.8039 89.808 65.1021 84.3578 57.7902 68.973Z" fill="white"/>
<path d="M109.846 75.8949C106.257 74.4153 102.52 73.2827 98.6907 72.5144C95.3804 71.8935 92.3853 73.0433 89.2447 74.1012C80.8293 76.9413 72.3534 76.6193 63.8774 74.3311C63.7683 74.3311 63.7319 74.4691 63.8774 74.5036C70.5763 77.2292 78.0274 77.8184 85.1098 76.1824C88.9658 75.3315 92.8218 73.3538 96.8233 73.5952C101.128 73.8482 105.336 75.7914 109.689 76.5388C110.053 76.5963 110.186 76.0444 109.846 75.8949Z" fill="#BDBFE1"/>
<path d="M103.565 94.189C100.898 95.4078 98.2542 97.2016 95.4774 98.064C92.1549 99.0873 88.2019 98.064 84.9279 97.3166C78.7073 95.9368 72.802 93.5106 66.6664 91.5674C66.6664 91.5674 66.5936 91.6364 66.6664 91.6479C73.2983 94.8937 80.3752 97.2467 87.6926 98.6389C90.1177 99.0528 92.8097 99.6392 95.2227 98.9493C98.1451 98.1215 101.055 96.0517 103.711 94.35C103.711 94.35 103.65 94.189 103.565 94.189Z" fill="#BDBFE1"/>
<path d="M107.761 81.2418C101.431 79.4711 95.538 79.908 89.1113 80.7244C81.8552 81.6136 74.5003 81.4818 67.2848 80.3334C67.212 80.3334 67.1757 80.4369 67.2848 80.4484C73.7002 81.728 80.2864 82.0539 86.8074 81.4143C89.9601 81.1038 93.1007 80.5404 96.2656 80.3334C100.141 80.1876 104.016 80.6222 107.749 81.6213C107.846 81.6673 107.943 81.2993 107.761 81.2418Z" fill="#BDBFE1"/>
<path d="M106.233 87.29C100.629 90.3563 94.1593 91.6982 87.7168 91.1304C81.084 90.5785 74.8271 88.2328 68.5459 86.1401C68.461 86.1401 68.4246 86.2436 68.5459 86.2781C81.084 91.3719 93.8646 94.7754 106.391 87.6694C106.645 87.5314 106.476 87.1865 106.233 87.29Z" fill="#BDBFE1"/>
</g>
<path d="M126 108.78C129.257 108.515 137.767 106.189 145.754 99" stroke="#319E76" stroke-width="5"/>
</g>
<defs>
<clipPath id="clip0_1064_1795">
<rect width="153.477" height="351.172" fill="white" transform="matrix(-1 0 0 1 157.477 16)"/>
</clipPath>
</defs>
</svg>
