<svg width="163" height="224" viewBox="0 0 163 224" fill="none" xmlns="http://www.w3.org/2000/svg">
<path d="M131 108.78C134.257 108.515 142.767 106.189 150.754 99" stroke="#319E76" stroke-width="5"/>
<mask id="mask0_1065_3" style="mask-type:alpha" maskUnits="userSpaceOnUse" x="0" y="0" width="163" height="224">
<rect width="163" height="224" fill="#C4C4C4"/>
</mask>
<g mask="url(#mask0_1065_3)">
<g clip-path="url(#clip0_1065_3)">
<path d="M87.7687 101.571C96.2672 101.907 102.955 106.167 106.991 109.158C111.027 112.15 131.345 130.142 133.017 135.562C134.689 140.981 136.892 253.314 134.666 256.739C132.441 260.164 108.882 268.12 98.4812 268.662C88.08 269.203 42.9467 261.345 39.3835 258.246C35.8204 255.146 27.368 146.845 29.236 140.211C31.1041 133.578 59.9092 112.226 65.6633 105.972C68.1656 103.197 84.0556 101.43 87.7687 101.571Z" fill="#BDBFE1"/>
<path d="M104.835 125.081C104.916 126.62 103.048 133.654 102.217 134.532C101.387 135.41 94.9066 135.833 94.1455 135.323C93.3844 134.814 89.729 127.66 89.533 126.295C89.337 124.929 94.7221 118.935 96.9707 118.588C99.2192 118.242 104.789 124.16 104.835 125.081Z" fill="#2E2766"/>
<path d="M102.217 134.532C102.217 134.532 112.745 207.097 113.357 211.986C113.968 216.874 102.079 246.236 100.073 246.897C98.0661 247.558 86.8462 217.633 86.1543 214.381C85.4624 211.129 93.4075 137.686 94.0532 135.085C94.2262 134.359 102.125 133.849 102.217 134.532Z" fill="#2E2766"/>
<path d="M115.536 323.657C116.597 326.627 144.629 318.737 145.194 315.117C145.759 311.496 135.831 228.07 135.819 221.524C135.808 214.977 136.88 142.694 133.582 134.359C131.922 130.142 121.705 120.387 115.813 115.076C113.31 112.8 111.581 111.315 111.581 111.315C112.549 114.827 116.193 162.073 115.259 194.221C114.971 204.496 114.786 221.166 114.694 239.169C114.694 239.343 114.694 239.484 114.694 239.625C114.51 277.744 114.786 321.674 115.536 323.657Z" fill="white"/>
<path d="M129.12 159.548C129.35 156.231 117.162 142.726 117.162 142.726C117.162 142.726 127.99 144.33 128.001 142.108C128.001 140.179 118.142 119.846 115.813 115.077C113.31 112.8 109.805 110.177 109.805 110.177C110.774 113.7 116.182 162.073 115.259 194.221C114.971 204.496 114.786 221.166 114.694 239.169C115.179 228.927 128.889 162.821 129.12 159.548Z" fill="white"/>
<path d="M128.901 158.572C125.361 153.023 116.424 142.423 116.482 142.466C116.539 142.509 126.86 142.845 127.563 142.054C128.094 141.501 118.845 122.078 116.032 116.822C116.022 116.798 116.022 116.771 116.031 116.747C116.04 116.723 116.058 116.703 116.081 116.69C116.105 116.677 116.132 116.672 116.159 116.676C116.186 116.68 116.21 116.694 116.228 116.713C121.279 123.672 130.065 142.412 128.243 142.965C126.421 143.517 120.956 143.485 118.453 143.485C122.824 147.712 129.823 158.031 130.065 158.768C130.308 159.505 125.891 184.336 123.516 196.259C120.979 209.114 118.903 223.789 115.686 236.514C115.686 236.763 115.259 236.655 115.294 236.427C116.931 223.616 126.202 172.695 128.901 158.572Z" fill="#2E2766"/>
<path d="M24.6235 315.387C46.8903 331.645 76.7102 327.516 77.7595 325.261C78.3822 323.917 80.0658 282.438 80.6769 241.554V241.001C81.0459 213.189 80.9191 185.723 79.5238 171.427C77.285 149.238 72.7432 127.308 65.963 105.95C64.9148 106.461 63.9451 107.102 63.0802 107.858C54.5702 114.296 30.6543 134.955 30.8965 138.857C31.2078 143.441 32.384 203.575 30.4814 229.75C28.5787 255.926 21.51 313.1 24.6235 315.387Z" fill="white"/>
<path d="M47.7667 176.185C51.6643 175.871 67.8657 176.727 71.9824 177.161C72.213 177.161 72.1669 177.54 71.9824 177.54C67.8311 177.67 49.6117 176.749 48.9198 177.02C48.228 177.291 48.5047 180.434 48.9198 180.619C49.8769 181.052 67.8081 181.204 72.0977 181.291C72.8357 181.291 72.8703 182.374 72.0977 182.374C64.0258 182.201 55.9539 181.898 47.9512 181.518C47.8011 181.518 47.6565 181.465 47.5471 181.368C47.4378 181.271 47.3719 181.139 47.3631 180.998C47.3091 179.385 47.4444 177.771 47.7667 176.185Z" fill="#2E2766"/>
<path d="M68.7651 139.431C68.9496 139.832 57.3261 150.411 56.6804 151.95C56.0346 153.489 72.3283 194.731 75.7646 207.228C79.2009 219.725 80.6769 241.576 80.6769 241.576V241.023C81.0459 213.211 80.9191 185.745 79.5238 171.449C77.2498 148.948 73.066 126.654 67.0124 104.78C66.7702 104.78 64.7061 106.655 63.1033 107.858C62.8842 108.714 55.1121 135.8 55.0314 136.678C54.9507 137.556 68.6037 139.03 68.7651 139.431Z" fill="white"/>
<path d="M62.6882 108.693C62.7574 108.432 62.9534 108.497 62.8957 108.768C61.058 118.189 58.6244 127.498 55.608 136.646C60.2205 137.383 68.9843 139.074 69.1457 139.258C69.4455 139.605 65.6863 143.918 63.6683 145.826C61.5781 148.053 59.3281 150.142 56.9341 152.08C63.3685 165.661 76.9293 207.358 78.2439 214.403C79.5065 221.688 80.3381 229.034 80.7346 236.406C80.7346 236.492 80.5962 236.503 80.5847 236.406C79.57 228.667 78.6705 220.895 76.9524 213.254C75.3956 206.371 60.9931 165.921 55.9078 152.286C55.7694 151.917 66.5627 141.35 68.5115 139.55C64.1065 138.911 54.4779 137.502 54.5932 137.123C57.453 127.707 60.1513 118.231 62.6882 108.693Z" fill="#2E2766"/>
<path d="M50.4189 214.869C50.4881 216.744 50.8225 218.055 51.1569 218.207C52.1832 218.727 56.5305 220.7 62.4114 222.933C63.4723 223.334 64.5678 223.746 65.7209 224.158C68.9381 225.307 80.7115 230.943 93.7995 236.882C111.373 244.827 131.472 253.303 137.295 252.382C147.431 250.756 161.638 239.289 162.722 232.709C163.806 226.13 142.485 147.929 139.775 142.607C137.065 137.285 134.009 132.787 131.092 130.088L135.508 216.137C135.207 215.982 134.89 215.855 134.563 215.758C131.288 214.674 120.402 211.834 107.914 208.767C86.9038 203.597 61.3506 197.711 59.6901 198.199C59.1071 198.377 58.537 198.591 57.9834 198.838C51.4567 201.895 50.1883 210.165 50.4189 214.869Z" fill="white"/>
<path d="M62.3999 222.933C63.4608 223.334 64.5563 223.746 65.7094 224.158C68.9266 225.307 80.7 230.943 93.788 236.882L102.759 231.961C109.943 228.038 117.323 224.32 124.334 220.169C124.9 219.84 125.443 219.478 125.96 219.085L127.194 219.139C129.5 219.215 134.309 219.053 134.597 216.375C134.601 216.314 134.601 216.252 134.597 216.191C134.605 216.144 134.605 216.097 134.597 216.05C134.597 215.963 134.597 215.866 134.597 215.758C131.322 214.674 120.437 211.834 107.948 208.767C96.6331 208.194 85.3543 210.402 75.2227 215.172C70.6323 217.266 66.327 219.871 62.3999 222.933Z" fill="#BDBFE1"/>
<path d="M49.7847 214.923C49.7847 215.758 49.9461 216.625 50.096 217.535C50.0153 217.741 50.3497 218.045 50.6034 218.175C62.8381 224.83 99.9918 240.481 109.182 244.307C114.579 246.572 133.006 254.864 138.691 252.263C138.806 252.198 138.829 252.089 138.691 252.111H138.541C133.352 252.859 113.506 245.131 94.0302 236.742C90.7668 235.343 87.5035 233.923 84.3324 232.536C84.2295 232.477 84.1215 232.426 84.0095 232.384C77.3559 229.447 71.0599 226.586 65.7901 224.169H65.7209L62.6536 222.76C55.5503 219.508 50.9493 217.34 50.9493 217.34C50.638 213.178 50.7072 202.101 60.0014 198.654C74.058 202.177 89.9135 205.331 104.074 208.788C104.57 208.897 105.054 209.016 105.55 209.146C112.961 210.974 120.383 212.839 127.817 214.739C130.101 215.252 132.304 216.046 134.367 217.102C135.667 217.786 136.872 218.619 137.953 219.584C140.559 221.892 143.05 224.277 145.771 226.477C145.932 226.618 146.128 226.412 145.99 226.26C143.038 222.89 139.948 219.074 136.039 216.506C136.431 206.035 136.65 195.522 136.926 185.073C137.427 184.296 137.774 183.441 137.953 182.548C138.266 181.401 138.493 180.235 138.633 179.058C138.644 179.015 138.636 178.969 138.611 178.932C138.586 178.894 138.546 178.867 138.5 178.857C138.455 178.847 138.406 178.855 138.366 178.878C138.326 178.901 138.298 178.939 138.287 178.982C138.01 180.066 137.664 181.15 137.272 182.179C137.18 182.418 137.076 182.645 136.973 182.895C137.088 178.559 137.192 174.148 137.353 169.78C137.353 169.78 137.284 169.78 137.272 169.78C135.416 181.702 135.024 193.983 134.966 206.187C134.966 209.439 134.966 212.69 134.966 215.942C133.906 215.304 132.773 214.78 131.588 214.381C124.173 212.138 116.482 210.523 108.963 208.669C100.176 206.501 90.7668 204.431 81.3919 202.448C81.1959 202.448 80.9883 202.35 80.7577 202.318C74.8537 201.071 68.9843 199.836 63.3109 198.622L60.0014 197.917C59.133 198.108 58.3008 198.422 57.5337 198.849C54.328 200.475 49.0121 204.789 49.7847 214.923Z" fill="#2E2766"/>
<path d="M111.523 204.399C114.238 206.37 116.577 208.759 118.442 211.466C119.929 213.391 121.096 215.518 121.901 217.774C122.869 217.81 123.838 217.73 124.784 217.535C125.742 217.401 126.645 217.029 127.399 216.457C128.153 215.886 128.731 215.135 129.074 214.284L134.586 215.769C136.892 214.88 133.998 211.552 133.998 211.552C134.067 210.208 131.461 208.561 131.461 208.561C131.138 207.195 127.794 205.959 127.794 205.959C127.794 205.959 126.744 204.659 122.881 203.976C120.471 203.542 115.155 203.998 111.523 204.399Z" fill="#FDD7BC"/>
<path d="M12.9999 229.23C12.9999 233.403 27.2872 253.693 36.7774 252.544C52.3446 250.691 118.234 220.386 121.405 219.703C122.063 219.54 122.166 218.836 121.89 217.774C121.084 215.518 119.918 213.391 118.43 211.466C116.566 208.759 114.226 206.37 111.512 204.399C110.931 204.011 110.294 203.704 109.62 203.488C105.4 202.285 66.1475 208.734 49.7385 211.704C45.472 212.474 42.8198 213.005 42.5776 213.102C42.3355 213.2 42.0703 207.683 41.782 199.478C40.8941 175.513 39.8332 127.942 39.8332 127.942C34.9093 132.679 24.9463 141.848 23.1128 145.067C21.2794 148.286 13.0345 225.057 12.9999 229.23Z" fill="white"/>
<path d="M31.5192 218.348C34.4854 216.323 37.6796 214.611 41.044 213.243C38.7377 212.712 35.2784 213.796 33.4795 213.969C33.122 213.969 33.0874 213.525 33.3757 213.416C35.3767 212.732 37.485 212.366 39.6141 212.333C40.2786 212.303 40.9405 212.43 41.5398 212.701C40.417 199.114 40.5983 185.46 42.0818 171.904C42.0818 171.666 42.52 171.72 42.52 171.904C42.52 175.503 42.52 179.101 42.52 182.743C42.9121 181.236 43.3848 179.74 43.7769 178.321C43.772 178.309 43.7702 178.297 43.7716 178.284C43.773 178.272 43.7776 178.26 43.785 178.25C43.7924 178.24 43.8024 178.231 43.814 178.225C43.8257 178.22 43.8387 178.217 43.8519 178.217C43.865 178.217 43.878 178.22 43.8897 178.225C43.9013 178.231 43.9113 178.24 43.9187 178.25C43.9261 178.26 43.9307 178.272 43.9321 178.284C43.9335 178.297 43.9317 178.309 43.9268 178.321C43.2465 181.572 43.2465 184.965 42.4969 188.173C42.4969 196.345 42.4162 204.518 42.4969 212.69C50.7648 209.861 98.5043 202.068 109.494 203.261C110.224 203.382 110.908 203.681 111.477 204.128C111.731 204.312 111.696 204.561 111.558 204.496C110.804 204.065 109.956 203.799 109.078 203.716C97.3858 203.662 50.6265 211.195 42.3701 214.045C42.3307 214.082 42.2837 214.11 42.2321 214.129C42.1806 214.147 42.1255 214.156 42.0703 214.153C38.4555 215.412 34.9443 216.919 31.5653 218.662C31.081 218.923 31.081 218.63 31.5192 218.348Z" fill="#2E2766"/>
<path d="M28.8554 249.694C30.6783 250.944 32.7735 251.799 34.9901 252.198C38.2534 252.718 47.144 249.445 52.5637 247.548C60.8778 244.654 68.9035 241.131 76.9062 237.576C84.1479 234.324 91.401 231.192 98.7349 228.179C102.579 226.611 106.422 225.072 110.266 223.562C112.63 222.64 120.16 220.137 121.544 219.226C121.97 218.944 121.694 218.088 121.717 217.644C121.717 217.492 121.993 217.427 122.028 217.644C122.224 218.275 122.34 218.927 122.374 219.584C122.377 219.651 122.356 219.718 122.314 219.773C122.272 219.828 122.212 219.868 122.143 219.887C104.132 226.965 86.5348 234.769 68.8113 242.432C61.1687 245.849 53.295 248.789 45.2414 251.233C42.0933 252.143 38.2419 253.542 34.7825 253.184C33.5632 253.071 32.3815 252.724 31.3105 252.165C30.2395 251.605 29.3019 250.846 28.5556 249.932C28.4173 249.726 28.6709 249.575 28.8554 249.694Z" fill="#2E2766"/>
<path d="M28.7862 211.151C28.7862 211.151 28.0598 212.712 28.6017 213.416C29.3181 214.103 30.1286 214.697 31.0118 215.183C31.0118 215.183 40.7442 213.525 42.543 213.102C42.7275 213.005 45.4374 212.473 49.704 211.704C50.1306 203.857 54.6509 200.291 57.453 198.849C55.3773 198.849 46.9019 199.044 41.7474 199.478C40.5453 199.535 39.352 199.702 38.1842 199.976C35.163 200.854 27.7484 208.647 27.8061 209.601C27.9156 210.215 28.2652 210.768 28.7862 211.151Z" fill="#FDD7BC"/>
<path d="M65.4787 108.768C67.2084 99.2412 83.7327 98.8618 91.4587 99.3279C101.306 99.9132 109.436 102.33 111.858 111.944C114.279 121.558 113.933 131.855 113.287 141.545C113.292 141.898 113.437 142.237 113.694 142.496C113.951 142.754 114.301 142.913 114.676 142.941C115.051 142.97 115.424 142.866 115.721 142.649C116.019 142.433 116.22 142.121 116.286 141.772C117.024 130.598 119.572 109.636 109.436 101.539C99.3 93.4424 65.4326 92.4128 62.4806 108.541C62.1577 110.329 65.1443 110.535 65.4787 108.768Z" fill="#2E2766"/>
<path d="M121.209 147.484C121.109 148.769 120.605 149.997 119.761 151.012C118.917 152.027 117.771 152.784 116.469 153.186C115.167 153.588 113.767 153.618 112.447 153.271C111.127 152.925 109.947 152.217 109.055 151.239C108.163 150.261 107.601 149.055 107.439 147.776C107.277 146.497 107.523 145.201 108.146 144.053C108.768 142.906 109.74 141.958 110.936 141.33C112.133 140.702 113.501 140.422 114.867 140.526C116.687 140.664 118.375 141.473 119.563 142.777C120.752 144.08 121.343 145.772 121.209 147.484Z" fill="#778BFD"/>
<path d="M118.488 147.278C118.424 148.048 118.119 148.782 117.611 149.388C117.103 149.994 116.415 150.445 115.634 150.684C114.854 150.923 114.015 150.939 113.225 150.73C112.435 150.521 111.728 150.097 111.195 149.51C110.661 148.924 110.324 148.202 110.227 147.436C110.13 146.669 110.277 145.893 110.649 145.205C111.021 144.518 111.602 143.949 112.318 143.571C113.034 143.194 113.853 143.024 114.671 143.084C115.215 143.123 115.745 143.264 116.231 143.496C116.717 143.728 117.15 144.048 117.504 144.438C117.859 144.827 118.128 145.279 118.297 145.766C118.466 146.253 118.531 146.767 118.488 147.278Z" fill="#E4EEF8"/>
<path d="M68.0156 140.407C68.5807 168.392 65.7901 174.56 62.6766 177.053C60.3771 178.762 57.6904 179.953 54.8239 180.532L54.4203 178.602L54.6278 179.567L54.4203 178.602C56.9429 178.095 59.3092 177.053 61.339 175.557C63.6453 173.758 66.5166 168.154 65.9515 140.45L68.0156 140.407Z" fill="#BDBFE1"/>
<path d="M58.7122 177.736L59.2039 179.442C59.3877 180.08 58.9865 180.737 58.3079 180.91L53.8135 182.054C53.1349 182.227 52.4357 181.85 52.2519 181.212L51.7602 179.505C51.5764 178.868 51.9776 178.21 52.6562 178.038L57.1506 176.894C57.8293 176.721 58.5284 177.098 58.7122 177.736Z" fill="#778BFD"/>
<path d="M49.5771 136.895C38.8992 155.451 34.7595 165.986 36.5353 170.072C37.5979 172.268 39.1747 174.209 41.1478 175.752L39.8563 177.302C37.5879 175.544 35.7808 173.319 34.575 170.798C32.4532 165.932 36.2701 155.83 47.7206 135.93L49.5771 136.895Z" fill="#BDBFE1"/>
<path d="M44.1268 178.393L42.8465 179.702C42.3679 180.191 41.5582 180.222 41.0379 179.773L37.5923 176.793C37.072 176.344 37.0382 175.583 37.5168 175.094L38.7971 173.785C39.2757 173.296 40.0854 173.264 40.6057 173.714L44.0513 176.693C44.5716 177.143 44.6054 177.904 44.1268 178.393Z" fill="#778BFD"/>
<path d="M47.2594 134.966C49.2971 130.792 51.6078 126.742 54.1781 122.837C55.5483 121.159 57.372 119.856 59.4594 119.065C59.8745 119.065 60.6125 115.749 61.0623 112.974C61.5005 110.524 61.9502 107.663 62.7574 107.023C63.2071 106.749 63.7524 106.648 64.2791 106.743C64.8057 106.838 65.2728 107.121 65.5825 107.533C66.1014 108.4 65.4096 111.218 64.8791 113.646C64.268 116.41 63.6107 119.781 64.0143 119.878C65.5295 121.381 66.6336 123.207 67.2315 125.2C68.1166 129.853 68.6178 134.564 68.7306 139.29C68.6614 142.26 67.5774 142.379 66.6549 142.466C65.3288 142.574 64.7638 141.621 64.6139 138.282C64.3717 132.993 64.6139 124.192 60.947 123.433C57.2339 122.945 53.4862 131.421 51.0416 136.071C49.5195 138.976 48.7354 139.117 47.5822 138.564C46.7866 138.12 45.9794 137.567 47.2594 134.966Z" fill="#778BFD"/>
<path d="M78.9011 92.8138C76.1106 93.8976 66.5281 105.885 66.8856 107.609C67.243 109.332 66.0438 131.096 87.2152 139.572L97.5933 121.146L107.971 136.212C107.971 136.212 113.945 124.203 113.737 121.211C113.53 118.22 111.05 103.306 98.7465 95.8811C89.4753 90.3642 84.7244 90.4834 78.9011 92.8138Z" fill="#BDBFE1"/>
<path d="M67.2084 107.381C68.2924 119.304 73.7813 134.781 86.95 138.878C90.5823 133.036 94.2608 127.314 97.3281 121.2C97.3526 121.157 97.3875 121.12 97.43 121.092C97.4725 121.063 97.5215 121.045 97.5731 121.037C97.6246 121.03 97.6772 121.034 97.7268 121.049C97.7764 121.064 97.8215 121.09 97.8585 121.125C97.9508 121.125 105.273 131.096 108.075 135.963C109.682 132.572 110.99 129.063 111.984 125.471C113.587 120.572 112.895 116.8 111.269 111.987C111.269 111.868 111.442 111.782 111.489 111.901C113.38 115.824 114.625 119.726 113.391 123.975C112.319 128.356 110.717 132.607 108.617 136.646C108.587 136.699 108.539 136.743 108.482 136.77C108.424 136.797 108.358 136.807 108.294 136.797C108.249 136.817 108.198 136.821 108.15 136.809C108.101 136.797 108.059 136.77 108.029 136.732C104.397 132.072 101.422 126.978 97.7778 122.284C94.6529 128.376 91.1243 134.207 87.5957 139.626C87.4343 139.876 86.8231 139.746 86.7655 139.724C73.0663 135.649 66.678 119.889 67.0124 107.381C67.0124 107.283 67.1969 107.283 67.2084 107.381Z" fill="#2E2766"/>
<path d="M109.159 78.94L107.602 107.121L107.372 111.088C107.372 111.088 105.815 119.238 96.7516 120.745C87.688 122.252 73.9312 110.871 72.9049 108.747C72.3514 107.663 71.9017 97.561 71.5788 87.9795C71.2674 78.8208 71.0945 70.1064 71.0945 70.1064L75.338 71.0928L109.159 78.94Z" fill="#FDD7BC"/>
<path d="M109.159 78.94L107.602 107.121C97.5802 105.673 88.1284 101.808 80.1696 95.9027C77.0307 93.5537 74.1664 90.8977 71.6249 87.9795C71.3136 78.8208 71.1406 70.1064 71.1406 70.1064L75.3841 71.0928L109.159 78.94Z" fill="#DBA89B"/>
<path d="M65.4557 30.7727C59.1942 44.061 64.7177 77.3143 75.4763 88.6082C82.8333 96.3363 98.8618 98.71 110.831 94.1902C116.296 92.2654 120.774 88.4553 123.354 83.5357C131.426 67.2126 124.104 28.063 115.398 21.9066C100.026 11.0136 73.124 14.5254 65.4557 30.7727Z" fill="#FDD7BC"/>
<path d="M93.5343 60.7745C93.5343 60.6986 93.3729 60.8937 93.3844 60.9804C93.6381 63.0506 93.5458 65.4568 91.6086 66.3022C91.5394 66.3022 91.6086 66.4323 91.6086 66.4106C94.0186 65.8687 94.0993 62.6604 93.5343 60.7745Z" fill="#2E2766"/>
<path d="M91.3549 58.7151C87.7802 58.7151 88.08 65.446 91.3549 65.4351C94.6298 65.4243 94.3531 58.7043 91.3549 58.7151Z" fill="#2E2766"/>
<path d="M110.831 59.5496C110.831 59.4737 111.004 59.6471 111.004 59.723C111.004 61.8149 111.419 64.1994 113.46 64.8063C113.46 64.8063 113.46 64.9364 113.46 64.9256C110.981 64.698 110.497 61.533 110.831 59.5496Z" fill="#2E2766"/>
<path d="M112.711 57.2952C116.262 56.905 116.839 63.6142 113.541 63.9719C110.243 64.3295 109.678 57.6312 112.711 57.2952Z" fill="#2E2766"/>
<path d="M96.6016 79.5145C97.1551 79.9806 97.7548 80.5984 98.5158 80.6634C99.3217 80.6095 100.107 80.3991 100.822 80.0456C100.838 80.0384 100.856 80.0362 100.873 80.0394C100.89 80.0425 100.906 80.0508 100.917 80.0631C100.929 80.0753 100.936 80.0908 100.938 80.1072C100.939 80.1236 100.935 80.14 100.926 80.154C100.628 80.5623 100.22 80.8896 99.7442 81.1027C99.2685 81.3158 98.7414 81.4073 98.216 81.3679C97.756 81.281 97.3351 81.0643 97.0096 80.7467C96.6841 80.4291 96.4693 80.0257 96.3941 79.5904C96.348 79.4928 96.5209 79.4386 96.6016 79.5145Z" fill="#DBA89B"/>
<path d="M88.4029 55.756C89.3324 55.4579 90.2446 55.1142 91.1358 54.7264C92.1499 54.4935 93.0539 53.9525 93.7073 53.1873C93.8592 52.9077 93.9098 52.5892 93.8516 52.2801C93.7933 51.971 93.6293 51.6882 93.3844 51.4747C92.83 51.1239 92.186 50.9189 91.5189 50.8808C90.8519 50.8426 90.1861 50.9729 89.5906 51.258C88.2885 51.6601 87.1914 52.5021 86.5118 53.6208C86.372 53.8845 86.3168 54.1806 86.3531 54.4732C86.3893 54.7659 86.5154 55.0422 86.7159 55.2686C86.9164 55.495 87.1827 55.6616 87.4823 55.7482C87.7818 55.8348 88.1017 55.8375 88.4029 55.756Z" fill="#2E2766"/>
<path d="M115.328 53.8051C114.36 53.6495 113.401 53.4432 112.457 53.1873C111.431 53.114 110.458 52.7342 109.678 52.1034C109.476 51.8543 109.367 51.5496 109.367 51.2363C109.367 50.9231 109.476 50.6184 109.678 50.3693C110.165 49.9367 110.766 49.6343 111.419 49.4933C112.071 49.3523 112.752 49.3778 113.391 49.5672C114.748 49.7564 115.981 50.4132 116.851 51.4098C117.036 51.6502 117.143 51.9366 117.157 52.2334C117.171 52.5302 117.092 52.8244 116.93 53.0794C116.768 53.3345 116.53 53.5392 116.245 53.6682C115.96 53.7972 115.642 53.8448 115.328 53.8051Z" fill="#2E2766"/>
<path d="M104.385 74.7348C104.385 74.7348 102.586 79.0703 99.0693 78.2574C96.4056 77.6829 97.6856 72.6321 97.6856 72.6321C97.6856 72.6321 101.157 75.0383 104.385 74.7348Z" fill="white"/>
<path d="M97.4895 72.8271C98.0867 73.6288 98.854 74.3055 99.7431 74.8148C100.632 75.324 101.624 75.6547 102.656 75.786C103.558 75.9108 104.475 75.9108 105.377 75.786C105.552 75.7783 105.726 75.7529 105.896 75.7102L106.38 75.6235C106.495 75.5975 106.598 75.5368 106.673 75.4507C106.748 75.3646 106.791 75.2578 106.795 75.1466C106.807 75.0783 106.807 75.0089 106.795 74.9406V74.7347C106.795 73.1306 106.495 70.7027 106.495 70.7027C107.13 70.9736 110.37 72.1876 110.278 71.353C109.54 64.4379 108.709 56.7532 106.415 50.0223C106.399 49.9787 106.367 49.9419 106.324 49.9184C106.282 49.895 106.232 49.8864 106.184 49.8942C106.135 49.902 106.091 49.9257 106.06 49.961C106.028 49.9964 106.011 50.0412 106.011 50.0874C106.449 56.764 108.133 63.3106 108.675 70.009C107.524 69.551 106.308 69.2516 105.066 69.1202C104.823 69.1961 105.677 73.8134 105.631 74.5396C105.633 74.5684 105.633 74.5975 105.631 74.6263C102.782 75.0815 100.58 74.3445 97.7202 72.6428C97.5126 72.5236 97.3512 72.697 97.4895 72.8271Z" fill="#DBA89B"/>
<path d="M116.954 31.1847C124.496 42.4462 125.603 60.6444 127.16 55.4852C132.268 38.49 123.216 28.6484 123.216 28.6484C123.216 28.6484 116.055 29.8299 116.954 31.1847Z" fill="#2E2766"/>
<path d="M67.7619 66.313C67.7619 66.313 81.438 63.7659 77.3906 36.4089C85.3336 39.5463 94.0285 40.6171 102.563 39.5088C117.554 37.7529 125.626 31.7916 130.296 22.1668C131.841 19.0127 123.746 23.4566 120.183 22.0151C113.887 19.4354 107.695 11.6641 90.6284 12.0001C73.5622 12.3361 69.0419 23.164 69.0419 23.164C69.0419 23.164 59.8169 25.8195 56.2076 33.3199C52.5983 40.8203 58.9405 66.3022 67.7619 66.313Z" fill="#2E2766"/>
<path d="M72.5589 65.3808C72.5589 65.3808 65.6402 54.3362 60.3128 56.5906C54.9853 58.8451 59.6901 74.4854 65.4788 77.0325C66.1966 77.4012 66.9863 77.6295 67.8005 77.7039C68.6146 77.7783 69.4364 77.6971 70.2163 77.4652C70.9962 77.2333 71.7182 76.8556 72.3388 76.3547C72.9593 75.8538 73.4657 75.24 73.8274 74.5504L72.5589 65.3808Z" fill="#FDD7BC"/>
<path d="M61.7657 61.0454C61.6734 61.0454 61.6388 61.1538 61.7657 61.1863C65.8132 63.0723 67.7158 66.8658 68.9497 70.7461C67.7965 69.207 66.2052 68.2965 64.0258 69.5322C63.9105 69.5972 64.0258 69.7706 64.1181 69.7489C64.8701 69.5818 65.6587 69.6381 66.3753 69.9098C67.092 70.1816 67.7013 70.6555 68.1194 71.2663C68.8152 72.2888 69.3912 73.379 69.8376 74.518C69.999 74.8757 70.6909 74.7456 70.5756 74.3229C70.5796 74.2941 70.5796 74.2649 70.5756 74.2362C71.0138 69.2395 67.4391 61.945 61.7657 61.0454Z" fill="#DBA89B"/>
<path d="M80.6654 90.9494C74.6461 88.424 68.5807 85.5301 64.66 80.1107C61.6961 76.304 59.7216 71.8979 58.8944 67.2451C59.4306 69.0935 60.2051 70.8734 61.2006 72.5453C62.2165 74.2742 63.561 75.8134 65.1674 77.0867C68.8271 82.8665 74.3475 87.4026 80.9306 90.039C81.5418 90.2232 81.265 91.1987 80.6654 90.9494Z" fill="white"/>
<path d="M74.3578 69.1852C73.2854 67.9279 69.9413 61.4355 66.9547 59.0076C66.5006 58.5767 66.0234 58.1679 65.5249 57.7828C64.7261 57.1352 63.7851 56.6615 62.7689 56.3954C63.5983 56.0772 64.5106 56.0017 65.3865 56.1787C69.999 57.0024 73.1009 65.6517 74.7845 68.925C74.8767 69.1201 74.5423 69.4453 74.3578 69.1852Z" fill="white"/>
<path d="M73.3431 67.7219C72.5705 66.1069 84.9666 71.6997 97.8931 69.196C100.534 68.6865 107.902 65.9443 112.007 65.9443C116.113 65.9443 120.91 69.0659 126.571 69.6403C128.52 69.8354 126.837 85.6058 121.89 92.5101C120.252 94.7754 113.322 99.4252 109.078 99.8371C99.1154 100.791 82.0492 94.1142 79.4546 90.9927C77.3905 88.4456 80.6885 83.0154 73.3431 67.7219Z" fill="white"/>
<path d="M125.222 73.044C121.619 71.5737 117.868 70.4481 114.025 69.684C110.704 69.0661 107.695 70.2151 104.547 71.2664C96.1058 74.0845 87.5957 73.7702 79.0856 71.4832C78.9934 71.4832 78.9473 71.6241 79.0856 71.6674C85.8061 74.3756 93.2809 74.9576 100.384 73.3258C104.224 72.4803 108.098 70.5294 112.1 70.757C116.482 71.0171 120.737 72.9247 125.072 73.6834C125.43 73.781 125.58 73.1957 125.222 73.044Z" fill="#BDBFE1"/>
<path d="M118.903 91.2854C116.216 92.4993 113.576 94.2877 110.831 95.144C107.487 96.1628 103.543 95.144 100.246 94.3961C94.0071 93.0196 88.0108 90.6134 81.9108 88.6299C81.9108 88.6299 81.8416 88.6949 81.9108 88.7166C88.5702 91.9389 95.6715 94.2805 103.013 95.6751C105.458 96.0761 108.144 96.6614 110.578 95.9786C113.506 95.144 116.435 93.0954 119.03 91.448C119.065 91.4046 119.018 91.2529 118.903 91.2854Z" fill="#BDBFE1"/>
<path d="M123.089 78.3549C116.747 76.5991 110.831 77.0326 104.385 77.8455C97.1015 78.7294 89.7188 78.598 82.4758 77.4553C82.4067 77.4553 82.3836 77.5637 82.4758 77.5745C88.9176 78.8487 95.5309 79.1741 102.079 78.5392C105.239 78.2249 108.398 77.6613 111.569 77.4553C115.46 77.317 119.351 77.7485 123.1 78.7343C123.227 78.7885 123.32 78.42 123.089 78.3549Z" fill="#BDBFE1"/>
<path d="M121.601 84.4029C115.975 87.4527 109.481 88.7894 103.013 88.229C96.4171 87.6545 90.0749 85.3133 83.7789 83.2756C83.6866 83.2756 83.6636 83.384 83.7789 83.4165C96.4633 88.4349 109.228 91.8274 121.832 84.7605C122.017 84.6196 121.844 84.2728 121.601 84.4029Z" fill="#BDBFE1"/>
</g>
</g>
<defs>
<clipPath id="clip0_1065_3">
<rect width="149.722" height="334.527" fill="white" transform="matrix(-1 0 0 1 162.722 12)"/>
</clipPath>
</defs>
</svg>
