<svg width="109" height="93" viewBox="0 0 109 93" fill="none" xmlns="http://www.w3.org/2000/svg">
<g clip-path="url(#clip0_376_192)">
<path d="M54.731 27.7038C54.4851 27.7025 54.2413 27.7492 54.0136 27.8413C53.786 27.9334 53.5791 28.069 53.4047 28.2403C53.2303 28.4116 53.0919 28.6153 52.9975 28.8396C52.9031 29.0639 52.8545 29.3044 52.8545 29.5473V62.4237C52.8545 62.9152 53.0522 63.3866 53.4041 63.7341C53.756 64.0816 54.2333 64.2769 54.731 64.2769C55.2287 64.2769 55.706 64.0816 56.058 63.7341C56.4099 63.3866 56.6076 62.9152 56.6076 62.4237V29.5089C56.5949 29.0258 56.3916 28.5667 56.0411 28.2295C55.6905 27.8922 55.2204 27.7036 54.731 27.7038Z" fill="#692300"/>
<path d="M54.7311 67.3014C54.4843 67.3001 54.2397 67.3472 54.0114 67.4399C53.7832 67.5326 53.5758 67.669 53.4013 67.8414C53.2268 68.0137 53.0886 68.2185 52.9947 68.4439C52.9009 68.6693 52.8532 68.9108 52.8545 69.1546V73.8882C52.8545 74.3797 53.0522 74.8511 53.4041 75.1986C53.7561 75.5461 54.2334 75.7414 54.7311 75.7414C55.2288 75.7414 55.7061 75.5461 56.058 75.1986C56.4099 74.8511 56.6076 74.3797 56.6076 73.8882V69.1546C56.6076 68.9112 56.5591 68.6702 56.4648 68.4454C56.3705 68.2206 56.2322 68.0163 56.058 67.8442C55.8837 67.6721 55.6769 67.5356 55.4492 67.4425C55.2215 67.3493 54.9775 67.3014 54.7311 67.3014Z" fill="#692300"/>
<path d="M61.8871 24.1895H61.9941L65.086 23.7478H65.1929L68.2363 23.1333C68.4769 23.0848 68.7056 22.9899 68.9091 22.8541C69.1127 22.7183 69.2872 22.5442 69.4226 22.3418C69.558 22.1394 69.6518 21.9126 69.6985 21.6745C69.7451 21.4363 69.7439 21.1914 69.6947 20.9537C69.6456 20.716 69.5495 20.4902 69.412 20.2892C69.2744 20.0882 69.0982 19.9159 68.8932 19.7822C68.6883 19.6484 68.4586 19.5558 68.2175 19.5097C67.9763 19.4636 67.7283 19.4649 67.4876 19.5134L64.4929 20.1183L61.5079 20.5408L58.5229 20.8001L55.538 20.8865L52.5141 20.8001L49.5291 20.5408L46.6122 20.1183L43.6175 19.5134C43.3768 19.4643 43.1287 19.4624 42.8873 19.5079C42.6458 19.5534 42.4159 19.6455 42.2105 19.7788C41.7956 20.048 41.5061 20.4689 41.4055 20.9489C41.305 21.4289 41.4016 21.9287 41.6742 22.3384C41.9468 22.748 42.373 23.034 42.8591 23.1333L45.9122 23.7478H46.0191L49.0624 24.1895H49.1694L52.2613 24.4487H52.3683L55.5088 24.5352H55.6157L58.7077 24.4487H58.8146L61.8871 24.1895Z" fill="#692300"/>
<path d="M105.69 32.5815C108.421 27.9079 109.435 22.4469 108.562 17.1203C107.689 11.7937 104.981 6.92781 100.896 3.34408C99.9064 2.47412 98.7526 1.8057 97.5007 1.37719C96.2489 0.948674 94.9236 0.768501 93.6011 0.847007C92.2785 0.925513 90.9847 1.26115 89.7938 1.83466C88.603 2.40818 87.5385 3.20827 86.6615 4.18904C84.9148 6.14378 82.693 7.6274 80.2054 8.50023C79.1545 8.86716 78.0001 8.8155 76.9871 8.3562C70.0444 5.07364 62.4479 3.36137 54.7505 3.34408C47.0554 3.35238 39.4589 5.05478 32.5139 8.3274C31.5047 8.79613 30.3503 8.85812 29.2956 8.50023C26.8067 7.6293 24.5821 6.14931 22.8297 4.19864C21.9533 3.21805 20.8899 2.41758 19.7001 1.84295C18.5104 1.26833 17.2176 0.930801 15.8958 0.84966C14.5739 0.76852 13.2488 0.945352 11.9961 1.37006C10.7435 1.79476 9.58783 2.45902 8.5952 3.32488C4.50388 6.90527 1.79451 11.7745 0.927726 17.1046C0.0609407 22.4347 1.09024 27.8968 3.84063 32.5622L3.94758 32.7255V32.7831C4.35618 33.3223 4.88575 33.7608 5.49475 34.064C6.10374 34.3672 6.7756 34.5269 7.4576 34.5306C8.19391 34.5314 8.91773 34.3428 9.55778 33.9833C10.4268 35.5953 11.6965 36.9627 13.2477 37.957C14.7988 38.9513 16.5804 39.54 18.4252 39.6675C18.707 39.6819 18.9893 39.6819 19.2711 39.6675C21.2797 39.6766 23.2516 39.1359 24.9679 38.1054C26.6843 37.0748 28.0779 35.5949 28.9941 33.8297C29.5594 33.9253 30.1319 33.9734 30.7054 33.9737C31.5845 33.9752 32.4603 33.8655 33.3112 33.6472C34.9215 37.1107 36.9382 40.3752 39.32 43.3738C40.2124 44.5104 40.7578 45.8749 40.8922 47.307C41.0265 48.7391 40.7442 50.1794 40.0784 51.4585C37.4921 56.4322 37.1615 62.587 39.1839 68.7897L46.1262 90.9986V91.0754V91.1906V91.277L46.1845 91.3922C46.1845 91.3922 46.1845 91.3922 46.1845 91.4691L46.272 91.5939V91.6419L46.4081 91.8147C46.4485 91.8642 46.4942 91.9092 46.5442 91.9491V91.9971L46.6804 92.1028L46.7776 92.17H46.8457H46.9332H47.0207H47.079L47.1957 92.2276L47.3318 92.2852H47.5068H47.6721C47.7983 92.2947 47.9251 92.2947 48.0513 92.2852H48.2944H48.5375H48.7125H48.8194C48.8671 92.2719 48.9129 92.2525 48.9556 92.2276C48.9878 92.2328 49.0206 92.2328 49.0528 92.2276C49.1009 92.2111 49.1466 92.1885 49.1889 92.1604L49.2764 92.1028C49.3256 92.0763 49.3713 92.0441 49.4125 92.0068L49.4806 91.9587C49.6158 91.8461 49.7396 91.7207 49.8501 91.5843C50.3507 90.9226 51.0007 90.3854 51.7484 90.0154C52.4962 89.6453 53.321 89.4527 54.1574 89.4527C54.9938 89.4527 55.8186 89.6453 56.5663 90.0154C57.3141 90.3854 57.9641 90.9226 58.4647 91.5843C58.4918 91.6239 58.5246 91.6595 58.5619 91.6899L58.6203 91.7571C58.6534 91.7947 58.6892 91.83 58.7272 91.8627L58.7953 91.9203L58.8925 91.9971L58.98 92.0644L59.0772 92.122L59.1842 92.1892H59.262L59.3981 92.2564H59.4759L59.6217 92.3044H59.7676C59.8356 92.3091 59.9038 92.3091 59.9718 92.3044H60.4579H60.6718H60.876H60.9538H61.0705H61.1677H61.2747H61.3622L61.5469 92.1988L61.7122 92.0836L61.8386 91.978V91.9299L61.965 91.7955L62.0914 91.6227V91.5747C62.123 91.5333 62.1491 91.4881 62.1692 91.4402C62.1724 91.418 62.1724 91.3953 62.1692 91.373C62.1954 91.3368 62.2182 91.2982 62.2372 91.2578V91.1714C62.2411 91.1331 62.2411 91.0945 62.2372 91.0562V90.9698L69.1406 68.7705C71.2213 62.5773 70.9296 56.4034 68.3239 51.3913C67.6487 50.1253 67.3601 48.693 67.493 47.2681C67.6258 45.8433 68.1746 44.4872 69.0725 43.3642C71.4586 40.3617 73.4757 37.0902 75.0814 33.6184C75.9103 33.8294 76.763 33.9359 77.6191 33.9353C78.5286 34.0577 79.4506 34.0609 80.361 33.9449C81.2798 35.7095 82.6735 37.1898 84.3888 38.2231C86.1042 39.2564 88.0748 39.8027 90.084 39.802C90.3658 39.8161 90.6482 39.8161 90.9299 39.802C92.7798 39.6703 94.5652 39.0759 96.1182 38.0748C97.6712 37.0736 98.9407 35.6987 99.8071 34.0793C100.464 34.4325 101.198 34.6205 101.946 34.6266C102.625 34.6211 103.294 34.4615 103.901 34.1602C104.508 33.8588 105.037 33.4238 105.446 32.8887V32.8311V32.7831L105.544 32.6199L105.69 32.5815ZM18.8919 35.0491C17.7528 34.9657 16.6596 34.5714 15.7342 33.9101C14.8088 33.2489 14.0876 32.3468 13.6512 31.3044C14.5774 31.0865 15.4437 30.6702 16.1889 30.085C16.7375 29.6453 17.1706 29.0814 17.4515 28.4413C17.7325 27.8011 17.853 27.1035 17.8029 26.4075C17.8029 26.3019 17.8029 26.1963 17.8029 26.0907C17.9942 26.1207 18.1828 26.1656 18.3669 26.2251C18.5666 26.2876 18.7405 26.4123 18.8627 26.5803C20.4023 28.8181 22.3873 30.7227 24.6966 32.1782C24.1046 33.1513 23.2444 33.938 22.2166 34.4464C21.1887 34.9548 20.0356 35.1638 18.8919 35.0491ZM29.8789 29.288C27.3412 28.6639 24.7452 26.7436 22.7325 23.863C22.0144 22.8644 20.9926 22.1177 19.8156 21.7315C18.0366 21.1577 16.1153 21.1813 14.3512 21.7987C13.9504 21.2561 13.6961 20.6216 13.6123 19.9551C13.5366 19.3331 13.605 18.7023 13.8121 18.1102C14.0193 17.5181 14.3599 16.9801 14.8082 16.5369C15.2107 16.1582 15.7377 15.9353 16.293 15.9088C16.8483 15.8824 17.3946 16.0542 17.8321 16.3929C20.3197 18.2085 22.9574 19.8145 25.7175 21.1938C26.155 21.4146 26.6023 21.6162 27.0301 21.8179L27.7302 22.1539H27.7788H27.8274C28.4319 22.4026 28.9691 22.7873 29.3962 23.2774C29.8233 23.7676 30.1285 24.3495 30.2873 24.9769C30.6471 26.3979 31.0652 27.8574 31.561 29.2112C31.0082 29.3264 30.4402 29.3523 29.8789 29.288ZM54.7505 84.9783C53.0049 84.9832 51.2902 85.433 49.7723 86.2841L43.9385 67.4838C42.305 62.4717 42.5092 57.594 44.5121 53.7437C45.5878 51.6572 46.0375 49.3107 45.8084 46.9803C45.5793 44.6499 44.6809 42.4326 43.219 40.5893C39.3225 35.677 36.5225 30.0063 35.003 23.9495C34.6733 22.6301 34.0406 21.4035 33.1537 20.3645C32.2668 19.3255 31.1496 18.502 29.8887 17.958L29.1497 17.6123L27.9246 17.0266C25.3983 15.7446 22.9821 14.261 20.7004 12.5906C19.3456 11.575 17.6661 11.0744 15.9686 11.1802C14.271 11.286 12.6686 11.991 11.4538 13.1667C10.5397 14.0604 9.83221 15.1389 9.37996 16.328C8.92771 17.5172 8.74137 18.7889 8.83374 20.0559C8.92611 21.3229 9.29499 22.5552 9.91508 23.6681C10.5352 24.7811 11.3918 25.7483 12.4261 26.5035L12.5914 26.6188L12.6692 26.6764C12.5977 26.7057 12.5224 26.7251 12.4455 26.734L11.9108 26.8204C11.1669 26.9454 10.452 27.2024 9.80086 27.5789C9.64153 27.6546 9.49147 27.7481 9.3536 27.8574C8.74899 28.2604 8.21665 28.7601 7.77846 29.3361L7.61317 29.5281C5.64592 25.8343 4.98689 21.5966 5.74104 17.4901C6.4952 13.3835 8.61916 9.64429 11.7746 6.86793C12.2943 6.4127 12.8997 6.06301 13.5562 5.83884C14.2127 5.61467 14.9075 5.52039 15.6009 5.56141C16.2943 5.60242 16.9728 5.77792 17.5975 6.07788C18.2222 6.37784 18.781 6.79638 19.2419 7.30961C21.5315 9.86025 24.4385 11.7961 27.6913 12.9362C28.6585 13.2773 29.6784 13.4495 30.7054 13.4451C32.0176 13.4487 33.3149 13.1702 34.5071 12.629C40.805 9.62617 47.7083 8.06658 54.7019 8.06658C61.6954 8.06658 68.5987 9.62617 74.8966 12.629C76.0921 13.171 77.3927 13.4495 78.7081 13.4451C79.732 13.4504 80.7489 13.2781 81.7125 12.9362C84.9677 11.8003 87.8781 9.86768 90.1715 7.31921C90.6298 6.80325 91.1871 6.38225 91.8114 6.08062C92.4356 5.77899 93.1142 5.60274 93.808 5.56209C95.2073 5.48728 96.5801 5.95988 97.6291 6.87753C100.795 9.65326 102.927 13.3966 103.684 17.5095C104.442 21.6224 103.782 25.8675 101.81 29.5665L101.703 29.4225C101.265 28.8184 100.726 28.2924 100.108 27.867C99.9725 27.7599 99.8259 27.6666 99.671 27.5885C99.0191 27.2135 98.3045 26.9566 97.5611 26.83L97.1041 26.7436H96.9096C97.9818 26.0001 98.8758 25.0334 99.5285 23.9115C100.181 22.7897 100.577 21.5401 100.687 20.2509C100.797 18.9617 100.62 17.6643 100.167 16.4502C99.7143 15.2361 98.9973 14.1349 98.0667 13.2243C96.8518 12.0486 95.2494 11.3436 93.5518 11.2378C91.8543 11.1321 90.1749 11.6326 88.82 12.6482L88.577 12.821C88.0033 13.2339 87.4685 13.618 86.9143 13.9924C84.5952 15.5111 82.1642 16.8559 79.6415 18.0156C78.392 18.5638 77.2836 19.3827 76.3982 20.4116C75.5129 21.4404 74.8734 22.6529 74.5272 23.9591C73.0407 30.0185 70.2557 35.6928 66.3598 40.5989C64.9089 42.4411 64.021 44.6541 63.8006 46.9777C63.5801 49.3013 64.0362 51.6387 65.1153 53.7149C67.1376 57.5556 67.3224 62.4813 65.6306 67.4743V67.5319L59.7287 86.2745C58.2046 85.4441 56.4912 85.0112 54.7505 85.0167V84.9783ZM79.1359 25.0921C79.2973 24.4547 79.6061 23.863 80.0379 23.3632C80.4698 22.8634 81.013 22.4692 81.625 22.2115C84.3714 20.9479 87.0171 19.4811 89.5395 17.8235C90.1327 17.4203 90.716 16.9978 91.28 16.5945L91.523 16.4217C91.959 16.0837 92.5037 15.9122 93.0573 15.9387C93.6109 15.9651 94.1363 16.1878 94.5372 16.5657C95.015 16.9863 95.3882 17.51 95.6277 18.0962C95.8671 18.6824 95.9664 19.3153 95.9179 19.9455C95.8385 20.6129 95.5911 21.25 95.1984 21.7987C93.4329 21.1738 91.507 21.1468 89.7243 21.7219C88.5397 22.0937 87.5137 22.8434 86.8074 23.8534C85.3684 25.8794 82.9182 28.4527 79.6415 29.2496C79.0583 29.3616 78.4604 29.3778 77.8719 29.2976C78.358 27.9246 78.7761 26.5227 79.1359 25.0921ZM90.6091 35.0491C89.4768 35.1385 88.3416 34.9167 87.3292 34.4083C86.3167 33.8999 85.4664 33.1247 84.8725 32.1686C87.19 30.7194 89.1768 28.8098 90.7063 26.5611C90.8158 26.401 90.9717 26.2772 91.1536 26.2059C91.3544 26.1474 91.5591 26.1025 91.7661 26.0715C91.7661 26.1771 91.7661 26.2827 91.7661 26.3883C91.7177 27.0855 91.8389 27.784 92.1197 28.4254C92.4005 29.0669 92.8327 29.6326 93.3801 30.0754C94.0982 30.6573 94.9385 31.0738 95.8401 31.2948C95.4067 32.3382 94.6879 33.242 93.7641 33.905C92.8403 34.5681 91.7479 34.9642 90.6091 35.0491Z" fill="#692300"/>
</g>
<defs>
<clipPath id="clip0_376_192">
<rect width="108.247" height="91.9849" fill="white" transform="translate(0.631836 0.818848)"/>
</clipPath>
</defs>
</svg>
