<svg width="127" height="122" viewBox="0 0 127 122" fill="none" xmlns="http://www.w3.org/2000/svg">
<g clip-path="url(#clip0_376_170)">
<path d="M23.0699 45.8101C22.8867 45.8188 22.7039 45.7862 22.5354 45.7146C22.3669 45.6431 22.2172 45.5345 22.0976 45.3972L16.4679 39.1176L15.0678 40.9804C14.9662 41.1129 14.8384 41.2236 14.6921 41.3059C14.5459 41.3882 14.3842 41.4404 14.217 41.4592C14.0498 41.4781 13.8804 41.4632 13.7191 41.4156C13.5579 41.3679 13.4081 41.2885 13.2788 41.182L6.31708 35.3057C6.06695 35.0969 5.91106 34.7985 5.88371 34.4762C5.87017 34.3166 5.88859 34.1559 5.93792 34.0034C5.98726 33.8508 6.06654 33.7093 6.17124 33.587C6.27594 33.4647 6.40401 33.364 6.54814 33.2905C6.69227 33.2171 6.84963 33.1724 7.01125 33.159C7.33764 33.132 7.66153 33.2342 7.91166 33.443L13.9302 38.4839L15.447 36.4868C15.5617 36.3386 15.7086 36.2177 15.8769 36.1329C16.0452 36.0482 16.2305 36.0018 16.4193 35.9971C16.6023 35.9904 16.7844 36.024 16.9525 36.0954C17.1207 36.1668 17.2707 36.2743 17.3916 36.4099L24.0422 43.7841C24.1504 43.9034 24.2336 44.0428 24.2869 44.1941C24.3401 44.3454 24.3624 44.5056 24.3525 44.6655C24.3425 44.8254 24.3005 44.9818 24.2289 45.1255C24.1573 45.2692 24.0575 45.3975 23.9352 45.5028C23.8187 45.6079 23.6822 45.6891 23.5337 45.7419C23.3851 45.7946 23.2275 45.8178 23.0699 45.8101Z" fill="#692300"/>
<path d="M12.1121 53.6355H11.9274L1.74734 52.0512C1.43322 51.9906 1.15562 51.8109 0.973912 51.5507C0.792203 51.2906 0.720819 50.9705 0.775031 50.659C0.825514 50.3488 0.99523 50.0699 1.24882 49.8803C1.5024 49.6907 1.8203 49.605 2.13626 49.6412L10.43 50.8894L9.7494 48.2009C9.69467 47.9963 9.69525 47.7811 9.75109 47.5767C9.80692 47.3724 9.91606 47.1861 10.0676 47.0365C10.2191 46.8868 10.4078 46.7791 10.6147 46.7239C10.8216 46.6688 11.0395 46.6682 11.2468 46.7222L21.8935 49.3531C22.212 49.4321 22.4856 49.6327 22.6543 49.9109C22.823 50.1891 22.8728 50.5221 22.7929 50.8366C22.7129 51.1511 22.5098 51.4214 22.228 51.5879C21.9463 51.7545 21.6091 51.8037 21.2907 51.7248L12.6469 49.5836L13.2789 52.08C13.3277 52.275 13.3266 52.4789 13.2757 52.6734C13.2247 52.8678 13.1256 53.0467 12.9872 53.1938C12.8805 53.3236 12.7475 53.4299 12.5969 53.5059C12.4462 53.582 12.2811 53.6261 12.1121 53.6355Z" fill="#692300"/>
<path d="M7.44496 71.5619C7.18314 71.5601 6.92867 71.4762 6.71831 71.3222C6.50795 71.1682 6.3526 70.9522 6.27469 70.7054C6.19677 70.4585 6.20033 70.1936 6.28486 69.9489C6.36938 69.7041 6.53048 69.4923 6.7449 69.3439L13.0357 65.0135L11.2953 63.0931C11.1831 62.9611 11.0994 62.8078 11.0492 62.6427C10.9991 62.4777 10.9836 62.3042 11.0036 62.133C11.0318 61.9571 11.0986 61.7895 11.1994 61.6418C11.3002 61.4942 11.4325 61.3702 11.587 61.2784L20.153 56.1415C20.4341 55.9747 20.7707 55.925 21.0889 56.0033C21.4071 56.0816 21.6808 56.2816 21.8497 56.5591C22.0186 56.8367 22.0689 57.1692 21.9896 57.4834C21.9103 57.7976 21.7078 58.0679 21.4267 58.2347L14.1733 62.5458L15.8457 64.4662C15.9574 64.5985 16.0408 64.7518 16.0909 64.9168C16.141 65.0819 16.1568 65.2552 16.1374 65.4264C16.1177 65.5967 16.0616 65.761 15.9727 65.9084C15.8839 66.0557 15.7644 66.1827 15.622 66.2809L8.15475 71.3411C7.94765 71.4867 7.69922 71.564 7.44496 71.5619Z" fill="#692300"/>
<path d="M26.5604 122C26.3676 122 26.1754 121.981 25.9867 121.942C25.4117 121.793 24.9191 121.426 24.6153 120.922C24.3116 120.417 24.2209 119.814 24.363 119.244L34.543 79.589V76.7085C34.55 76.4122 34.6161 76.1201 34.7374 75.849C34.8587 75.5779 35.0329 75.3331 35.25 75.1284C35.4672 74.9238 35.723 74.7634 36.0029 74.6564C36.2828 74.5495 36.5813 74.498 36.8814 74.5049C37.1814 74.5118 37.4772 74.5771 37.7517 74.6969C38.0262 74.8167 38.2742 74.9887 38.4814 75.2031C38.6886 75.4176 38.851 75.6702 38.9594 75.9466C39.0677 76.223 39.1198 76.5178 39.1128 76.8141L39.0545 79.9539C39.051 80.1223 39.0282 80.2898 38.9864 80.4532L28.7383 120.32C28.6185 120.8 28.3386 121.227 27.9437 121.532C27.5487 121.837 27.0616 122.001 26.5604 122Z" fill="#692300"/>
<path d="M38.6267 122C38.2894 121.995 37.9573 121.916 37.6544 121.77C37.1289 121.499 36.7323 121.035 36.5503 120.478C36.3684 119.921 36.4157 119.316 36.6821 118.793L44.3439 103.536C48.1647 95.9845 48.7976 87.2452 46.1037 79.2338C45.9456 78.9494 45.8526 78.6342 45.8313 78.3104C45.8099 77.9867 45.8608 77.6622 45.9802 77.36C46.0997 77.0577 46.2848 76.7851 46.5226 76.5612C46.7604 76.3373 47.045 76.1676 47.3564 76.0641C47.6678 75.9607 47.9984 75.926 48.3248 75.9624C48.6513 75.9988 48.9657 76.1056 49.2458 76.275C49.526 76.4445 49.7651 76.6726 49.9463 76.9433C50.1274 77.214 50.2463 77.5206 50.2944 77.8415C53.3627 86.9637 52.6424 96.9153 48.2914 105.514L40.5713 120.761C40.3924 121.123 40.1166 121.43 39.7739 121.648C39.4311 121.867 39.0344 121.988 38.6267 122Z" fill="#692300"/>
<path d="M36.0797 33.6062C35.4915 33.6039 34.9274 33.3746 34.5078 32.9675C34.0883 32.5603 33.8463 32.0074 33.8337 31.4266L33.7656 27.0482C33.7599 26.1938 33.6982 25.3407 33.5809 24.4941C32.6961 18.3778 36.2547 12.6072 41.8746 11.0517H41.9913L56.7995 7.82548H56.887C58.4719 7.54703 61.2527 6.39482 62.0889 1.83398C62.1946 1.25465 62.529 0.740511 63.0186 0.404684C63.5082 0.0688574 64.1128 -0.0611521 64.6995 0.0432563C65.2861 0.147665 65.8068 0.477938 66.1468 0.961421C66.4869 1.4449 66.6186 2.04199 66.5128 2.62133C65.5405 7.78708 62.2833 11.3589 57.7621 12.2231L43.0025 15.3629C39.6481 16.323 37.4604 20.0293 38.0146 23.8604C38.1551 24.8853 38.2298 25.918 38.2382 26.9522L38.3354 31.3594C38.3433 31.946 38.1154 32.5118 37.7017 32.9329C37.2881 33.354 36.7223 33.5961 36.1283 33.6062H36.0797Z" fill="#692300"/>
<path d="M50.6155 74.7113C45.0427 74.7037 39.7003 72.5142 35.7597 68.6228C31.8192 64.7313 29.602 59.4556 29.5942 53.9523C29.5942 47.3559 32.9973 41.182 39.1714 36.5443C43.7899 33.0877 44.033 26.7986 44.033 26.7409C44.0562 26.1527 44.3151 25.5976 44.7527 25.1979C45.1903 24.7981 45.7708 24.5864 46.3665 24.6094C46.9622 24.6323 47.5242 24.8879 47.929 25.3201C48.3338 25.7523 48.5482 26.3255 48.525 26.9138C48.525 27.2498 48.1264 35.3633 41.8453 40.0778C38.9284 42.267 34.0668 46.9719 34.0668 53.9523C34.0668 58.2815 35.8083 62.4333 38.9081 65.4944C42.0079 68.5556 46.2122 70.2753 50.596 70.2753C52.9678 70.258 55.3113 69.7648 57.4842 68.8256C59.6571 67.8864 61.6139 66.5209 63.236 64.8119C64.6027 63.4007 65.655 61.7223 66.3248 59.885C66.9947 58.0476 67.2673 56.0921 67.1252 54.1444C67.0749 53.5548 67.2638 52.9697 67.6504 52.5178C68.037 52.0658 68.5895 51.784 69.1865 51.7343C69.7835 51.6847 70.376 51.8712 70.8336 52.253C71.2913 52.6347 71.5767 53.1804 71.627 53.7699C71.8277 56.3275 71.4833 58.8982 70.6157 61.3161C69.7482 63.734 68.377 65.9455 66.5904 67.8077C64.5544 69.9849 62.0839 71.7223 59.3346 72.9105C56.5852 74.0986 53.6165 74.7118 50.6155 74.7113Z" fill="#692300"/>
<path d="M45.472 59.0604C47.346 59.0604 48.8653 57.5601 48.8653 55.7094C48.8653 53.8587 47.346 52.3584 45.472 52.3584C43.5979 52.3584 42.0786 53.8587 42.0786 55.7094C42.0786 57.5601 43.5979 59.0604 45.472 59.0604Z" fill="#692300"/>
<path d="M123.849 122C123.349 121.998 122.863 121.832 122.469 121.528C122.075 121.224 121.794 120.799 121.671 120.32L111.433 80.4148C111.386 80.2524 111.364 80.0843 111.365 79.9155L111.306 76.8141C111.296 76.2259 111.523 75.6577 111.937 75.2345C112.351 74.8113 112.918 74.5679 113.514 74.5577C114.109 74.5475 114.685 74.7714 115.113 75.1802C115.542 75.5889 115.788 76.1491 115.799 76.7373V79.6178L125.988 119.273C126.133 119.845 126.042 120.45 125.736 120.955C125.43 121.461 124.933 121.826 124.355 121.971C124.188 121.996 124.018 122.006 123.849 122Z" fill="#692300"/>
<path d="M111.822 122C111.401 122 110.989 121.884 110.632 121.666C110.275 121.447 109.986 121.134 109.8 120.761L102.138 105.514C97.8113 96.9062 97.1121 86.9569 100.193 77.8416C100.286 77.5648 100.433 77.3087 100.625 77.088C100.818 76.8673 101.053 76.6862 101.317 76.5552C101.58 76.4241 101.868 76.3456 102.162 76.3241C102.456 76.3027 102.752 76.3387 103.032 76.4301C103.313 76.5215 103.572 76.6666 103.795 76.8569C104.019 77.0473 104.202 77.2793 104.335 77.5396C104.468 77.8 104.547 78.0836 104.569 78.3743C104.591 78.665 104.554 78.957 104.462 79.2338C101.765 87.2439 102.394 95.9833 106.212 103.536L113.883 118.793C114.15 119.316 114.197 119.921 114.015 120.478C113.833 121.035 113.436 121.499 112.911 121.77C112.573 121.934 112.199 122.014 111.822 122Z" fill="#692300"/>
<path d="M114.331 33.6061C114.036 33.6011 113.745 33.5388 113.474 33.4227C113.204 33.3066 112.959 33.139 112.754 32.9294C112.549 32.7199 112.388 32.4725 112.28 32.2015C112.171 31.9304 112.118 31.641 112.124 31.3497L112.211 26.9425C112.222 25.9081 112.3 24.8754 112.444 23.8507C112.999 20.01 110.811 16.2942 107.457 15.3532L92.6969 12.175C88.1368 11.3493 84.8504 7.7774 83.9462 2.62125C83.8392 2.04191 83.9696 1.44432 84.3087 0.959935C84.6479 0.475552 85.168 0.144057 85.7547 0.0383755C86.3413 -0.0673061 86.9465 0.0614822 87.437 0.396409C87.9275 0.731335 88.2632 1.24496 88.3702 1.8243C89.2063 6.38514 91.9871 7.53735 93.572 7.8158H93.6595L108.487 11.042H108.604C114.214 12.5687 117.782 18.3393 116.888 24.4845C116.779 25.3317 116.721 26.1845 116.713 27.0385L116.616 31.4457C116.6 32.0307 116.352 32.5859 115.924 32.9906C115.496 33.3952 114.923 33.6165 114.331 33.6061Z" fill="#692300"/>
<path d="M99.8044 74.7113C96.8033 74.7118 93.8347 74.0986 91.0853 72.9105C88.336 71.7223 85.8655 69.9849 83.8294 67.8077C82.0429 65.9455 80.6716 63.734 79.8041 61.3161C78.9366 58.8981 78.5921 56.3274 78.7929 53.7699C78.8419 53.1829 79.125 52.6392 79.5799 52.2584C79.8052 52.0698 80.0659 51.9269 80.3471 51.8378C80.6283 51.7487 80.9245 51.7152 81.2188 51.7391C81.5131 51.7631 81.7998 51.8441 82.0624 51.9774C82.325 52.1108 82.5585 52.2939 82.7494 52.5164C82.9404 52.7388 83.0851 52.9962 83.1753 53.2739C83.2655 53.5516 83.2995 53.8441 83.2752 54.1348C83.1288 56.0829 83.3995 58.0396 84.0695 59.8775C84.7396 61.7155 85.7941 63.3935 87.1644 64.8023C88.7865 66.5113 90.7433 67.8768 92.9162 68.816C95.0891 69.7552 97.4326 70.2484 99.8044 70.2657C104.188 70.2657 108.392 68.546 111.492 65.4848C114.592 62.4237 116.334 58.2719 116.334 53.9427C116.334 46.9623 111.472 42.2574 108.555 40.0682C102.235 35.3633 101.827 27.2498 101.827 26.885C101.804 26.2967 102.018 25.7234 102.423 25.2913C102.828 24.8591 103.39 24.6035 103.985 24.5805C104.581 24.5576 105.161 24.7693 105.599 25.1691C106.037 25.5688 106.296 26.1239 106.319 26.7121C106.319 26.7697 106.669 33.0877 111.229 36.5155C117.413 41.1532 120.816 47.3271 120.816 53.9235C120.816 59.4302 118.603 64.7118 114.664 68.6092C110.725 72.5065 105.381 74.7012 99.8044 74.7113Z" fill="#692300"/>
<path d="M104.948 59.0604C106.822 59.0604 108.341 57.5601 108.341 55.7094C108.341 53.8587 106.822 52.3584 104.948 52.3584C103.074 52.3584 101.555 53.8587 101.555 55.7094C101.555 57.5601 103.074 59.0604 104.948 59.0604Z" fill="#692300"/>
</g>
<defs>
<clipPath id="clip0_376_170">
<rect width="125.398" height="122" fill="white" transform="translate(0.707031)"/>
</clipPath>
</defs>
</svg>
