<svg width="109" height="99" viewBox="0 0 109 99" fill="none" xmlns="http://www.w3.org/2000/svg">
<g clip-path="url(#clip0_119_70)">
<path d="M108.903 32.734C108.729 31.2698 108.233 29.8609 107.448 28.6068C106.664 27.3526 105.61 26.2836 104.362 25.475L104.275 25.4078C98.59 21.5793 93.4128 17.0634 88.8636 11.9653C85.0146 7.22358 79.7815 3.76609 73.8745 2.06212C67.9674 0.358148 61.6725 0.490212 55.8441 2.44039C55.1919 2.66132 54.4837 2.66132 53.8314 2.44039C47.9994 0.499753 41.7056 0.368559 35.7959 2.06444C29.8862 3.76032 24.6437 7.202 20.7731 11.9269C16.2192 17.0589 11.0321 21.6072 5.3329 25.4654C4.09547 26.279 3.05371 27.3506 2.28096 28.6048C1.50821 29.8589 1.02328 31.2651 0.860303 32.7244C0.697379 34.213 0.867183 35.7189 1.35774 37.1357C1.84829 38.5525 2.64765 39.8457 3.69943 40.9243C9.01992 46.3345 15.7008 50.2513 23.058 52.2735C23.8779 62.0311 26.0334 71.6339 29.4655 80.8196C31.3341 85.9971 34.779 90.4769 39.3276 93.6446C43.8762 96.8124 49.3059 98.5128 54.8718 98.5128C60.4378 98.5128 65.8674 96.8124 70.416 93.6446C74.9647 90.4769 78.4095 85.9971 80.2781 80.8196C83.7102 71.6372 85.8657 62.0376 86.6856 52.2831C94.0767 50.3149 100.781 46.3867 106.073 40.9243C107.122 39.846 107.919 38.5539 108.408 37.1389C108.897 35.7239 109.065 34.2204 108.903 32.734ZM30.642 20.1172C36.0869 14.4042 43.2042 12.2822 49.6797 14.4522C51.3431 15.0045 53.0878 15.2803 54.8426 15.2683C56.5824 15.2698 58.3104 14.9876 59.957 14.433C66.1408 12.3686 73.5692 14.5962 79.0239 20.1172L94.046 35.2976C91.829 36.8134 89.4604 38.1003 86.9773 39.1383C86.8969 37.1377 86.3923 35.1759 85.4963 33.3797C84.6003 31.5836 83.3327 29.9931 81.7755 28.7108C78.2751 25.82 73.9876 24.0153 69.4518 23.5233C64.9159 23.0313 60.334 23.874 56.2817 25.9455C55.8458 26.1678 55.3624 26.2838 54.8718 26.2838C54.3813 26.2838 53.8978 26.1678 53.462 25.9455C49.4135 23.8847 44.8398 23.048 40.3125 23.5398C35.7852 24.0316 31.505 25.8302 28.007 28.7108C26.4492 29.9959 25.1801 31.588 24.281 33.3852C23.3819 35.1824 22.8727 37.1452 22.7858 39.1479C20.2802 38.1119 17.8888 36.8249 15.6491 35.3072L30.642 20.1172ZM54.8038 93.7628C50.2357 93.7659 45.7792 92.3693 42.0489 89.7656C38.3186 87.1618 35.4983 83.4792 33.977 79.2257C29.2128 66.4842 27.0356 52.941 27.5695 39.3688C27.624 38.025 27.9638 36.7076 28.5668 35.5018C29.1698 34.296 30.0225 33.2287 31.0698 32.3691C33.846 30.0819 37.2437 28.6542 40.8377 28.2648C44.4315 27.8754 48.0619 28.5416 51.2743 30.1799C52.3874 30.7553 53.6251 31.0558 54.8815 31.0558C56.1379 31.0558 57.3757 30.7553 58.4888 30.1799C61.7058 28.5379 65.3423 27.8707 68.9419 28.2618C72.5415 28.653 75.9439 30.0852 78.7224 32.3787C79.7496 33.23 80.5874 34.2819 81.1831 35.4683C81.7788 36.6548 82.1195 37.95 82.1838 39.2728C82.7234 52.8515 80.546 66.4021 75.7764 79.1489C74.2474 83.4322 71.4074 87.1398 67.6497 89.7582C63.892 92.3766 59.4027 93.7761 54.8038 93.7628ZM87.0551 43.5359C91.1839 42.0085 95.0528 39.8683 98.5283 37.1892L98.6158 37.1124L98.6936 37.0452L98.7908 36.9395C98.7936 36.9204 98.7936 36.901 98.7908 36.8819L98.8783 36.7763V36.6995L98.9366 36.6035V36.5075V36.421C98.9421 36.386 98.9421 36.3504 98.9366 36.3154C98.9366 36.3154 98.9366 36.3154 98.9366 36.2386C98.9408 36.2003 98.9408 36.1617 98.9366 36.1234C98.9311 36.0981 98.9311 36.0719 98.9366 36.0466C98.9366 36.0466 98.9366 35.9698 98.9366 35.9313C98.9366 35.8929 98.9366 35.8737 98.9366 35.8449C98.9414 35.8131 98.9414 35.7807 98.9366 35.7489C98.9318 35.7139 98.9318 35.6783 98.9366 35.6433C98.9366 35.6433 98.9366 35.5857 98.9366 35.5569V35.4321C98.9366 35.4321 98.9366 35.384 98.9366 35.3552C98.9366 35.3264 98.9366 35.2784 98.9366 35.24C98.9412 35.2114 98.9412 35.1822 98.9366 35.1536C98.9413 35.1153 98.9413 35.0766 98.9366 35.0384V34.952C98.9405 34.9201 98.9405 34.8878 98.9366 34.8559C98.942 34.8209 98.942 34.7853 98.9366 34.7503V34.6639L98.8686 34.5487V34.4911C98.8461 34.4505 98.8201 34.412 98.7908 34.3759C98.788 34.3568 98.788 34.3374 98.7908 34.3182L98.7227 34.2318L98.6547 34.155L82.038 17.1887C79.1034 14.1577 75.4661 11.8773 71.4399 10.5443C67.2876 9.13977 62.7844 9.11279 58.6152 10.4675C56.164 11.2791 53.5116 11.2791 51.0604 10.4675C46.9492 9.10151 42.5037 9.06787 38.3718 10.3714C34.2762 11.7057 30.5944 14.0526 27.6765 17.1887L10.9431 34.107L10.875 34.1838L10.807 34.2702V34.3279L10.7195 34.4431C10.7223 34.4622 10.7223 34.4816 10.7195 34.5007L10.6514 34.6159V34.7023C10.6461 34.7373 10.6461 34.7729 10.6514 34.8079C10.6553 34.8398 10.6553 34.8721 10.6514 34.904V34.9904C10.6514 34.9904 10.6514 35.0672 10.6514 35.1056C10.6469 35.1342 10.6469 35.1634 10.6514 35.192C10.6514 35.192 10.6514 35.2688 10.6514 35.3072C10.6514 35.3456 10.6514 35.3072 10.6514 35.384V35.4993C10.6465 35.5279 10.6465 35.5571 10.6514 35.5857V35.6913C10.6514 35.6913 10.6514 35.7585 10.6514 35.7873C10.6514 35.8161 10.6514 35.8449 10.6514 35.8737C10.6561 35.912 10.6561 35.9507 10.6514 35.989V36.0658C10.647 36.1041 10.647 36.1427 10.6514 36.181V36.2578C10.5906 36.2877 10.5399 36.3344 10.5056 36.3922V36.4786V36.5747L10.5639 36.6707L10.6125 36.7475L10.7 36.8531V36.9107L10.7973 37.0163L10.875 37.0836L10.9625 37.1604C14.462 39.8483 18.3531 41.9978 22.5038 43.5359C22.5038 44.765 22.5038 45.9844 22.5719 47.2134C16.6426 45.3198 11.2719 42.0235 6.92748 37.6117C6.41041 37.0198 6.0282 36.3251 5.80677 35.5747C5.58533 34.8242 5.52983 34.0355 5.64404 33.2621C5.72851 32.4877 5.98601 31.7415 6.39795 31.0773C6.8099 30.4131 7.36603 29.8475 8.02619 29.4213C14.0645 25.3165 19.5587 20.4813 24.3803 15.0283C24.3831 15.0092 24.3831 14.9898 24.3803 14.9707C27.6362 10.959 32.064 8.03454 37.0619 6.59494C42.0598 5.15534 47.3853 5.27038 52.3147 6.92441C53.1383 7.19983 54.0022 7.33932 54.8718 7.33729C55.7381 7.33844 56.5988 7.19896 57.4193 6.92441C62.3212 5.29626 67.6108 5.19198 72.5746 6.62563C77.5384 8.05929 81.9376 10.9619 85.1785 14.9419V14.9899C89.9924 20.3992 95.4698 25.1954 101.484 29.2677L101.581 29.3349C102.252 29.756 102.82 30.3189 103.244 30.9831C103.668 31.6473 103.937 32.3962 104.032 33.1756C104.12 33.9677 104.032 34.7693 103.774 35.524C103.515 36.2788 103.092 36.9685 102.534 37.5444C98.2114 41.9828 92.8335 45.2835 86.8898 47.1462C87.0259 45.994 87.0551 44.7842 87.0551 43.5359Z" fill="#692300"/>
<path d="M54.8426 37.1892C54.3449 37.1892 53.8676 37.3844 53.5157 37.732C53.1638 38.0795 52.966 38.5509 52.966 39.0423V61.2128C52.9475 61.4668 52.9821 61.7217 53.0678 61.9619C53.1535 62.202 53.2883 62.4221 53.4639 62.6085C53.6395 62.7949 53.8522 62.9435 54.0885 63.0452C54.3249 63.1468 54.5799 63.1993 54.8377 63.1993C55.0955 63.1993 55.3506 63.1468 55.5869 63.0452C55.8233 62.9435 56.0359 62.7949 56.2115 62.6085C56.3872 62.4221 56.522 62.202 56.6077 61.9619C56.6933 61.7217 56.728 61.4668 56.7094 61.2128V39.0423C56.7094 38.5525 56.5131 38.0826 56.1632 37.7354C55.8134 37.3881 55.3386 37.1917 54.8426 37.1892Z" fill="#692300"/>
<path d="M54.8426 67.4444C54.5966 67.4431 54.3528 67.4898 54.1252 67.5819C53.8976 67.674 53.6907 67.8096 53.5163 67.9809C53.3419 68.1522 53.2035 68.3559 53.1091 68.5802C53.0147 68.8045 52.9661 69.045 52.9661 69.2879V76.0091C53.0002 76.4763 53.2122 76.9134 53.5594 77.2325C53.9067 77.5516 54.3634 77.729 54.8378 77.729C55.3121 77.729 55.7688 77.5516 56.1161 77.2325C56.4633 76.9134 56.6753 76.4763 56.7094 76.0091V69.2879C56.7094 68.799 56.5128 68.3301 56.1627 67.9843C55.8126 67.6386 55.3377 67.4444 54.8426 67.4444Z" fill="#692300"/>
</g>
<defs>
<clipPath id="clip0_119_70">
<rect width="108.179" height="97.6403" fill="white" transform="translate(0.782471 0.865723)"/>
</clipPath>
</defs>
</svg>
