<svg width="101" height="108" viewBox="0 0 101 108" fill="none" xmlns="http://www.w3.org/2000/svg">
<g clip-path="url(#clip0_376_185)">
<path d="M99.2217 56.0923C98.5056 53.9823 98.3713 51.722 98.8328 49.5439L99.7468 45.2231C100.361 42.3598 100.247 39.3909 99.4162 36.5815L98.1522 32.3567C97.6778 30.7267 97.5324 29.0204 97.7244 27.335L98.8036 17.474C99.0457 15.7791 98.9146 14.0525 98.4192 12.4122C97.9238 10.7719 97.0758 9.25653 95.9331 7.96948C94.7904 6.68243 93.3799 5.65404 91.7979 4.95454C90.216 4.25504 88.4998 3.9009 86.7665 3.9163C85.8302 3.94021 84.8975 3.79375 84.0149 3.48422C81.9587 2.74335 79.7577 2.4784 77.5815 2.70979C75.4053 2.94118 73.3118 3.66273 71.4624 4.81886C70.2652 5.54401 68.8902 5.93246 67.4857 5.94227L57.6557 5.99988C56.1416 6.0077 54.642 6.29088 53.2317 6.83523L51.2871 7.62258L51.0927 7.69939C50.6347 7.86586 50.1895 8.06481 49.7606 8.2947C48.787 8.86942 47.642 9.09356 46.52 8.92903C45.3981 8.7645 44.3684 8.22144 43.6059 7.39214C43.6059 7.39214 43.6059 7.39214 43.5573 7.39214V7.33452L43.4893 7.27691C42.0824 5.88604 40.2565 4.98345 38.2859 4.7047C36.3153 4.42595 34.3063 4.78609 32.5606 5.73103H32.4925H32.4244H32.3564C31.9118 6.02391 31.3958 6.19357 30.8622 6.22228C30.3286 6.251 29.7969 6.13771 29.3228 5.89426L23.2556 2.26479H23.1973H23.1389C21.1647 1.17982 18.9233 0.659748 16.6664 0.762978C14.4095 0.866207 12.2264 1.58865 10.3622 2.84919C8.49796 4.10974 7.02646 5.85848 6.11287 7.8991C5.19928 9.93972 4.87976 12.1914 5.1902 14.4014C5.45269 16.2267 5.02334 18.0834 3.98454 19.6152C2.77586 21.4199 2.02015 23.4832 1.78004 25.6339C1.53994 27.7846 1.82235 29.9608 2.60387 31.9822C2.98267 32.9742 3.14304 34.0345 3.0743 35.0924C3.00556 36.1504 2.70929 37.1818 2.20522 38.1178C1.07151 40.2676 0.573311 42.689 0.767607 45.1052C0.961903 47.5215 1.84085 49.8349 3.30393 51.7811C4.01988 52.689 4.51136 53.7494 4.73923 54.8779C4.96711 56.0064 4.9251 57.1718 4.61654 58.2815C3.9285 60.7066 3.88635 63.2661 4.49419 65.712C5.10203 68.158 6.33925 70.4074 8.08599 72.2424C9.83273 74.0775 12.0298 75.436 14.4643 76.1862C16.8988 76.9365 19.4883 77.0531 21.9819 76.5248C23.4536 76.1906 24.8573 75.6127 26.1336 74.8157C30.803 78.2326 36.4623 80.0742 42.2739 80.0679H42.5364C42.8846 82.9912 43.8555 85.8087 45.3853 88.335C45.4952 88.5419 45.5196 88.7828 45.4533 89.0071C44.7212 91.5304 44.6374 94.194 45.2095 96.7573C45.7816 99.3206 46.9916 101.703 48.73 103.688L50.2273 105.33C50.7732 105.933 51.4414 106.415 52.1886 106.746C52.9357 107.077 53.745 107.249 54.5638 107.25C55.8949 107.248 57.1826 106.783 58.2013 105.936C59.2199 105.09 59.9045 103.917 60.1351 102.622L60.9324 98.3688C61.1171 97.4762 61.0737 96.5522 60.806 95.6803L60.2421 93.8848C60.1658 93.6464 60.1868 93.3881 60.3004 93.1647L62.5367 89.0071C64.7828 90.0529 67.2558 90.5344 69.7358 90.4087C72.2157 90.2831 74.6258 89.5542 76.7518 88.287C78.0177 87.524 79.4265 87.0211 80.8938 86.8083L85.2011 86.2514C87.8089 85.9956 90.2309 84.8031 92.0072 82.9004C93.8256 80.9786 94.8639 78.463 94.9241 75.8335C94.948 73.6175 95.6683 71.4635 96.9854 69.6692C98.4128 67.7391 99.3593 65.5038 99.7478 63.1448C100.136 60.7858 99.9561 58.3696 99.2217 56.0923ZM37.4318 74.7773C37.9964 74.1733 38.4203 73.4547 38.6739 72.6718C38.9276 71.8889 39.0047 71.0607 38.9 70.2453L38.7833 69.2275C38.725 68.8141 38.7973 68.393 38.9905 68.0218C39.1837 67.6506 39.4882 67.3473 39.8626 67.1535L42.9253 65.5308C43.1534 65.4223 43.357 65.2694 43.5237 65.0812C43.6903 64.893 43.8168 64.6735 43.8953 64.4358C43.9738 64.1981 44.0028 63.9471 43.9805 63.6981C43.9582 63.449 43.8851 63.207 43.7656 62.9866C43.6462 62.7662 43.4827 62.5719 43.2852 62.4155C43.0877 62.259 42.8602 62.1437 42.6163 62.0764C42.3725 62.0091 42.1174 61.9912 41.8664 62.0238C41.6154 62.0565 41.3736 62.1389 41.1557 62.2662L38.0832 63.8985C37.0515 64.4477 36.2112 65.291 35.6718 66.3186C35.1325 67.3462 34.9191 68.5104 35.0594 69.6596L35.1663 70.6197C35.2365 71.0261 35.1757 71.4439 34.9925 71.8143C34.8093 72.1847 34.513 72.4889 34.1454 72.6841L33.0564 73.3082C31.9076 72.7893 30.805 72.1759 29.7603 71.4743C31.457 69.2074 32.3726 66.4629 32.3726 63.6441C32.3726 60.8252 31.457 58.0807 29.7603 55.8138C29.0621 54.8859 28.593 53.8098 28.3905 52.6713C28.1879 51.5327 28.2574 50.3631 28.5936 49.2558C29.1485 47.4239 29.2812 45.4925 28.9817 43.6034C28.6822 41.7143 27.9582 39.9154 26.8629 38.3386C29.1032 36.721 31.8205 35.8766 34.5952 35.9356C37.3698 35.9946 40.0477 36.9538 42.2155 38.6651C42.4071 38.8176 42.6272 38.9315 42.8632 39C43.0993 39.0686 43.3467 39.0906 43.5914 39.0648C43.8361 39.0389 44.0732 38.9657 44.2892 38.8494C44.5053 38.733 44.696 38.5758 44.8505 38.3866C45.005 38.1975 45.1202 37.9801 45.1897 37.747C45.2591 37.5139 45.2814 37.2695 45.2552 37.0279C45.229 36.7863 45.1549 36.5521 45.0371 36.3388C44.9193 36.1255 44.76 35.9371 44.5685 35.7845C41.3929 33.232 37.3558 31.9625 33.2703 32.2319C32.7851 32.2588 32.3016 32.3101 31.8216 32.3855C31.6765 31.8454 31.6439 31.2819 31.7258 30.729C31.8077 30.1761 32.0023 29.6453 32.298 29.1689C32.4436 28.9627 32.5449 28.7293 32.5958 28.4829C32.6466 28.2366 32.6459 27.9827 32.5937 27.7366C32.5415 27.4906 32.4389 27.2577 32.2922 27.0523C32.1455 26.8468 31.9578 26.6732 31.7406 26.542C31.5234 26.4109 31.2814 26.325 31.0294 26.2896C30.7774 26.2542 30.5207 26.27 30.2751 26.3362C30.0295 26.4024 29.8003 26.5175 29.6014 26.6744C29.4025 26.8313 29.2382 27.0267 29.1186 27.2486C28.5491 28.1568 28.1749 29.1711 28.0194 30.2283C27.8638 31.2855 27.9302 32.3629 28.2144 33.3937C26.9948 33.8664 25.8388 34.4856 24.7724 35.2372C24.1541 33.6838 24.0754 31.9715 24.5488 30.3692C25.4021 27.4303 25.2864 24.2995 24.2182 21.4299C25.2394 21.5527 26.2285 21.862 27.1351 22.3421L29.9159 23.8015C31.7052 24.7427 33.703 25.2309 35.7303 25.2226H36.3039L40.7182 25.0018C41.5202 24.9856 42.32 25.0892 43.0906 25.309L50.0912 27.2294C49.5639 28.0537 49.1795 28.9591 48.9536 29.9083C46.5919 28.98 44.0995 28.4165 41.5641 28.2376C41.3189 28.2205 41.0728 28.2514 40.8397 28.3283C40.6066 28.4052 40.3911 28.5267 40.2056 28.6859C39.8309 29.0073 39.6008 29.4625 39.566 29.9515C39.5312 30.4404 39.6945 30.923 40.02 31.293C40.3455 31.6631 40.8065 31.8903 41.3016 31.9246C43.9608 32.1102 46.5605 32.7911 48.9633 33.9314C49.4619 35.8856 50.6256 37.6111 52.2594 38.8187C52.658 39.088 53.1463 39.1952 53.6229 39.118C54.0994 39.0409 54.5275 38.7852 54.8181 38.4043C55.1086 38.0234 55.2393 37.5465 55.1829 37.0729C55.1265 36.5992 54.8873 36.1653 54.5152 35.8614C53.8935 35.4013 53.387 34.8064 53.0348 34.1226C52.6826 33.4387 52.494 32.6842 52.4837 31.917C52.4734 31.1499 52.6415 30.3906 52.9752 29.6978C53.3088 29.0049 53.7991 28.3969 54.4082 27.9207C55.3204 27.9131 56.2294 27.8134 57.121 27.623L65.4147 25.7699C66.0966 25.6396 66.7924 25.5945 67.4857 25.6355L71.7055 25.8275H72.0458C72.4123 26.3033 72.6782 26.8469 72.8279 27.4261C72.9777 28.0053 73.0081 28.6082 72.9174 29.1992C72.8267 29.7903 72.6168 30.3573 72.3001 30.8667C71.9833 31.3761 71.5662 31.8175 71.0735 32.1647C70.8692 32.3046 70.6949 32.483 70.5603 32.6895C70.4258 32.896 70.3338 33.1267 70.2896 33.3683C70.2002 33.8563 70.3109 34.3593 70.5971 34.7668C70.8833 35.1742 71.3218 35.4527 71.8159 35.5409C72.3101 35.6291 72.8195 35.5199 73.232 35.2372C74.774 34.1561 75.8928 32.5844 76.4008 30.7856C76.9089 28.9868 76.7753 27.0702 76.0226 25.357C76.5673 25.169 77.097 24.9412 77.6074 24.6753L80.5243 23.3119L80.9424 25.8851C81.1643 27.2605 80.9961 28.6696 80.4563 29.9563L79.377 32.5295C78.4822 34.6531 78.2159 36.9837 78.6089 39.2508L79.484 44.5606C79.8083 46.2713 79.5086 48.0402 78.6381 49.5535C77.2556 51.9153 76.1249 54.4123 75.2642 57.0044L73.6501 54.5464C72.7915 53.2314 71.4951 52.2534 69.9846 51.7811L64.423 49.9856C63.6638 49.7258 63.025 49.2042 62.6242 48.5165L61.0102 45.7992C60.8923 45.5729 60.7286 45.373 60.5291 45.2119C60.3296 45.0508 60.0986 44.9321 59.8506 44.863C59.6026 44.794 59.3428 44.7761 59.0875 44.8105C58.8322 44.845 58.5868 44.9309 58.3666 45.0631C58.1464 45.1953 57.9561 45.3709 57.8076 45.5789C57.6592 45.7868 57.5556 46.0228 57.5036 46.272C57.4515 46.5212 57.4519 46.7784 57.5048 47.0274C57.5578 47.2764 57.6621 47.5121 57.8113 47.7195L59.3962 50.408C60.2646 51.8812 61.6474 52.9908 63.2854 53.5286L68.8567 55.3241C69.5497 55.5403 70.1446 55.9886 70.5388 56.5916L74.0293 61.8821C73.8835 62.6407 73.7571 63.4088 73.6501 64.177C73.5874 64.5645 73.3862 64.9169 73.083 65.1706C72.7798 65.4242 72.3946 65.5622 71.9972 65.5596H71.8708H70.6263C69.4206 65.5596 68.1761 65.6172 66.9218 65.694L64.4035 65.8861L63.159 65.9629H63.0423C61.6368 66.1247 60.2137 65.8882 58.9392 65.2812C57.4453 64.5635 55.8101 64.1783 54.1491 64.1526C52.488 64.1269 50.8415 64.4615 49.3256 65.1326C47.8097 65.8037 46.4613 66.7951 45.3756 68.0368C44.2899 69.2786 43.4933 70.7404 43.042 72.3193C42.7987 73.2661 42.6232 74.2286 42.517 75.1998C40.8112 75.2492 39.1052 75.1075 37.4318 74.7773ZM84.6761 81.4985H84.5691L80.2521 82.0554C78.1233 82.3552 76.0807 83.0876 74.253 84.2062C72.6298 85.1794 70.7631 85.6845 68.8643 85.6641C66.9655 85.6437 65.1104 85.0988 63.509 84.091L57.7238 79.8854C57.4684 79.7007 57.1787 79.5675 56.8712 79.4933C56.5637 79.4192 56.2444 79.4055 55.9315 79.4532C55.6187 79.5009 55.3184 79.609 55.0479 79.7713C54.7773 79.9336 54.5418 80.1469 54.3548 80.3991C54.1677 80.6513 54.0328 80.9374 53.9577 81.2411C53.8826 81.5448 53.8688 81.8601 53.9171 82.169C53.9654 82.478 54.0749 82.7745 54.2392 83.0417C54.4035 83.3088 54.6196 83.5414 54.8749 83.7261L58.5114 86.3666L56.0514 90.9851C55.3479 92.3212 55.2081 93.8779 55.6625 95.3155L56.2264 97.111C56.2603 97.2498 56.2603 97.3946 56.2264 97.5335L55.4292 101.787C55.4102 101.954 55.3421 102.113 55.2332 102.242C55.1244 102.372 54.9796 102.467 54.8166 102.517C54.6451 102.564 54.4638 102.564 54.2923 102.517C54.1209 102.469 53.9659 102.376 53.8443 102.248L52.3664 100.558C51.1478 99.1639 50.3007 97.4916 49.9017 95.6927C49.5028 93.8937 49.5645 92.0248 50.0815 90.2553C50.2936 89.5193 50.3495 88.748 50.2458 87.9896C50.142 87.2313 49.8809 86.5022 49.4787 85.8481C47.9805 83.3605 47.1817 80.5232 47.1646 77.629V77.485C47.1679 76.19 47.3312 74.9003 47.6507 73.6443C47.9098 72.7274 48.3705 71.8782 49 71.1573C49.6295 70.4364 50.4123 69.8616 51.2926 69.4737C52.1729 69.0858 53.129 68.8945 54.0927 68.9133C55.0565 68.9322 56.0041 69.1607 56.8682 69.5827C58.5271 70.3605 60.3405 70.7639 62.1769 70.7638C62.6206 70.7879 63.0653 70.7879 63.509 70.7638L64.773 70.6677C65.5703 70.6005 66.3967 70.5237 67.194 70.4757C68.3414 70.3989 69.479 70.3797 70.6846 70.3509C71.093 70.3509 71.5111 70.3509 71.9194 70.3509C73.4791 70.3541 74.9872 69.7997 76.165 68.7901C77.3429 67.7806 78.1108 66.384 78.3269 64.8587C78.9328 60.3279 80.4361 55.9592 82.7509 52.0019C84.1714 49.5309 84.6735 46.6477 84.1705 43.85L83.3732 38.4922C83.1312 37.0993 83.2965 35.667 83.8496 34.3635L84.9289 31.7806C85.8003 29.6949 86.0663 27.4108 85.697 25.1842L85.1136 21.7948L86.4554 21.5643C86.7801 21.5275 87.0938 21.4256 87.3772 21.2648C87.6606 21.1041 87.9078 20.8879 88.1037 20.6295C88.2996 20.3711 88.44 20.076 88.5163 19.7621C88.5927 19.4483 88.6033 19.1223 88.5477 18.8043C88.492 18.4862 88.3712 18.1828 88.1926 17.9124C88.014 17.6421 87.7814 17.4106 87.5091 17.2321C87.2368 17.0536 86.9304 16.932 86.6088 16.8745C86.2872 16.817 85.957 16.825 85.6386 16.8979L83.3635 17.2819C82.2107 17.412 81.0892 17.7368 80.0479 18.2421L75.5947 20.4217C74.4606 20.938 73.2146 21.1689 71.968 21.0938L67.7385 20.8346C66.6096 20.7776 65.478 20.8713 64.3744 21.1131L56.0806 22.9662C54.8697 23.2308 53.6118 23.2011 52.415 22.8798L44.3838 20.729C43.121 20.368 41.8085 20.206 40.4946 20.2489L36.0803 20.4793C34.7299 20.5428 33.3869 20.2477 32.1911 19.6248L29.4103 18.1653C27.399 17.0842 25.1245 16.5725 22.8375 16.6866C22.071 16.7346 21.3015 16.6991 20.5429 16.581C19.6839 16.4075 18.8637 16.0822 18.1218 15.6208C17.5684 15.3255 16.9197 15.2563 16.3152 15.4283C15.7107 15.6002 15.1986 15.9996 14.8891 16.5404C14.5796 17.0813 14.4974 17.7205 14.6601 18.3206C14.8228 18.9207 15.2174 19.4338 15.7591 19.7496C16.6796 20.2701 17.6586 20.6826 18.6761 20.9786C19.4817 22.1469 20.0162 23.4765 20.2415 24.8724C20.4667 26.2682 20.377 27.696 19.9789 29.0537C19.4064 30.9862 19.327 33.0286 19.7477 34.9988C20.1684 36.969 21.0762 38.8058 22.3903 40.3454C23.2754 41.3705 23.886 42.5985 24.1663 43.917C24.4465 45.2355 24.3875 46.6023 23.9946 47.8924C23.446 49.7056 23.3361 51.6207 23.6739 53.4836C24.0116 55.3464 24.7875 57.1049 25.9392 58.6175C27.2077 60.3177 27.7864 62.4249 27.5615 64.5251C27.3366 66.6252 26.3244 68.5663 24.7238 69.9668C23.6651 70.8824 22.3918 71.5226 21.0193 71.8296C19.3322 72.1985 17.5772 72.1305 15.9245 71.6322C14.2719 71.1339 12.7777 70.2221 11.5871 68.9854C10.3964 67.7488 9.54971 66.2292 9.12907 64.5741C8.70843 62.919 8.72817 61.1846 9.18637 59.5393C9.69356 57.7425 9.77317 55.8542 9.41896 54.022C9.06476 52.1898 8.28634 50.4633 7.14453 48.9774C6.21705 47.7473 5.66019 46.2837 5.53806 44.7548C5.41593 43.226 5.73349 41.6942 6.45419 40.3358C7.27369 38.8048 7.75388 37.1192 7.86285 35.3908C7.97181 33.6625 7.70706 31.931 7.08619 30.3115C6.57427 28.9956 6.38837 27.5778 6.54397 26.1765C6.69957 24.7751 7.19218 23.4308 7.98071 22.2557C9.66614 19.7525 10.3584 16.7239 9.92532 13.7485C9.72436 12.4087 9.90751 11.0401 10.454 9.79784C11.0005 8.55557 11.8885 7.48934 13.0172 6.72001C14.1529 5.95645 15.4797 5.51665 16.8518 5.4489C18.224 5.38115 19.5886 5.68806 20.7957 6.33594L26.8629 10.1094L26.9893 10.1766C28.1096 10.7625 29.358 11.069 30.6257 11.0696C32.1109 11.0697 33.565 10.6499 34.8163 9.85979C35.6524 9.40224 36.6163 9.22507 37.5632 9.35493C38.51 9.4848 39.3885 9.91467 40.0667 10.5799C40.972 11.5514 42.0725 12.3256 43.2981 12.8531C44.5236 13.3805 45.8472 13.6495 47.184 13.6429C48.8873 13.6545 50.5637 13.2241 52.0455 12.3947C52.272 12.2803 52.5058 12.1808 52.7456 12.097L52.979 12.0106L54.9236 11.2328C55.7832 10.8938 56.7009 10.721 57.6266 10.7239L67.4663 10.6663C69.7552 10.6595 71.9972 10.0246 73.9418 8.8324C75.1651 8.05643 76.5516 7.56656 77.9956 7.40016C79.4397 7.23376 80.9032 7.39522 82.2745 7.87222C83.6273 8.3564 85.0554 8.60337 86.4943 8.60196H86.7568C87.8122 8.58194 88.8594 8.78966 89.8251 9.21062C90.7908 9.63157 91.6519 10.2556 92.3481 11.0392C93.0443 11.8227 93.559 12.7469 93.8562 13.7472C94.1533 14.7475 94.2258 15.7998 94.0685 16.8307C94.0639 16.8463 94.0639 16.863 94.0685 16.8787L92.9601 26.7973C92.7057 29.0989 92.9071 31.4273 93.5532 33.653L94.8075 37.9257C95.4137 39.9769 95.4939 42.1447 95.0408 44.2341L94.1269 48.5549C93.4984 51.5377 93.6795 54.6315 94.6519 57.5229C95.1681 59.0991 95.2962 60.774 95.0256 62.4088C94.755 64.0437 94.0936 65.5912 93.0962 66.9231C91.183 69.4972 90.1233 72.593 90.0626 75.7855C90.0214 77.2255 89.4529 78.6019 88.4624 79.6595C87.4719 80.7171 86.1266 81.3842 84.6761 81.5369V81.4985Z" fill="#692300"/>
<path d="M64.3164 38.7227C64.9732 38.9083 65.5816 39.2317 66.1001 39.6708C66.6187 40.11 67.0351 40.6545 67.3209 41.2672C68.3604 43.4717 69.7597 45.4926 71.4629 47.2491C71.6368 47.4306 71.8464 47.5752 72.0787 47.6742C72.311 47.7733 72.5613 47.8246 72.8144 47.8252C73.1816 47.8255 73.5409 47.7193 73.8476 47.5199C74.1544 47.3205 74.3951 47.0365 74.54 46.7033C74.685 46.3701 74.7277 46.0022 74.6629 45.6452C74.5981 45.2882 74.4287 44.9578 74.1756 44.695C72.7582 43.2325 71.5952 41.5487 70.7336 39.7117C70.2199 38.6163 69.4726 37.6434 68.543 36.8596C67.6133 36.0757 66.5231 35.4994 65.3471 35.1701C64.6798 34.9834 64.0799 34.6137 63.6169 34.1038C63.154 33.5939 62.847 32.9648 62.7316 32.2895C62.6268 31.8255 62.3454 31.4189 61.9456 31.154C61.5458 30.889 61.0582 30.786 60.5836 30.8661C60.109 30.9463 59.6838 31.2035 59.3959 31.5847C59.108 31.9658 58.9794 32.4416 59.0368 32.9137C59.2751 34.2741 59.8968 35.5406 60.8306 36.5681C61.7644 37.5955 62.9725 38.3423 64.3164 38.7227Z" fill="#692300"/>
<path d="M46.9604 49.7456C47.185 51.0797 47.7317 52.3408 48.5542 53.4221C49.3767 54.5034 50.4509 55.3732 51.6858 55.9579C52.7478 56.4546 53.6932 57.1645 54.4617 58.0424C55.2301 58.9203 55.8047 59.9468 56.1487 61.0564C56.2639 61.4392 56.5013 61.775 56.8254 62.0137C57.1495 62.2525 57.5431 62.3815 57.9474 62.3815C58.1284 62.3795 58.3082 62.3537 58.4822 62.3047C58.9578 62.1624 59.3573 61.8406 59.594 61.4091C59.8307 60.9776 59.8854 60.4713 59.7462 60.0002C59.2567 58.3984 58.4339 56.9152 57.3306 55.6454C56.2272 54.3756 54.8676 53.3472 53.3387 52.6261C52.6491 52.2933 52.049 51.804 51.5876 51.1982C51.1263 50.5924 50.8167 49.8873 50.6843 49.1406C50.3603 47.2147 49.4663 45.4266 48.115 44.0016C46.7636 42.5765 45.0154 41.5783 43.0906 41.1328C42.6205 41.0552 42.1382 41.1572 41.7414 41.418C41.3447 41.6788 41.0633 42.079 40.9544 42.5372C40.8455 42.9954 40.9173 43.4774 41.1551 43.8853C41.3929 44.2932 41.779 44.5964 42.235 44.7334C43.4345 45.0174 44.5225 45.6443 45.363 46.5358C46.2035 47.4273 46.7592 48.5438 46.9604 49.7456Z" fill="#692300"/>
<path d="M39.3574 54.7577C38.8936 54.5646 38.4884 54.2564 38.1809 53.863C37.8735 53.4695 37.6744 53.0042 37.603 52.5122C37.5315 52.0203 37.5902 51.5185 37.7732 51.0556C37.9563 50.5926 38.2575 50.1843 38.6476 49.8704C39.0171 49.5621 39.2518 49.1248 39.3026 48.6497C39.3535 48.1747 39.2167 47.6986 38.9206 47.3208C38.6246 46.943 38.1923 46.6926 37.7139 46.622C37.2354 46.5514 36.7479 46.666 36.3529 46.9418C35.4212 47.655 34.6994 48.6012 34.2625 49.6824C33.8255 50.7636 33.6892 51.9405 33.8677 53.0912C34.0463 54.2419 34.5331 55.3246 35.2777 56.227C36.0224 57.1295 36.9979 57.8189 38.1031 58.2239C38.3098 58.3076 38.5312 58.35 38.7545 58.3487C39.1949 58.3488 39.6212 58.1959 39.9588 57.9168C40.2965 57.6378 40.5241 57.2504 40.6018 56.8224C40.6794 56.3944 40.6022 55.953 40.3836 55.5756C40.165 55.1981 39.8189 54.9086 39.406 54.7577H39.3574Z" fill="#692300"/>
</g>
<defs>
<clipPath id="clip0_376_185">
<rect width="99.389" height="106.637" fill="white" transform="translate(0.727539 0.670898)"/>
</clipPath>
</defs>
</svg>
