<svg width="43" height="45" viewBox="0 0 43 45" fill="none" xmlns="http://www.w3.org/2000/svg">
<path fill-rule="evenodd" clip-rule="evenodd" d="M21.5 43C33.3741 43 43 33.3741 43 21.5C43 9.62588 33.3741 0 21.5 0C9.62588 0 0 9.62588 0 21.5C0 33.3741 9.62588 43 21.5 43ZM21.5 39.8148C31.615 39.8148 39.8148 31.615 39.8148 21.5C39.8148 11.385 31.615 3.18519 21.5 3.18519C11.385 3.18519 3.18519 11.385 3.18519 21.5C3.18519 31.615 11.385 39.8148 21.5 39.8148Z" fill="#7A2917"/>
<path d="M20.9902 9.26C21.3742 9.164 21.7942 9.188 22.2502 9.332C23.0902 9.62 23.6062 10.16 23.7982 10.952C23.8222 11.072 23.8342 11.204 23.8342 11.348L22.3582 27.332C22.1422 27.5 21.8542 27.584 21.4942 27.584C20.9662 27.584 20.6662 27.5 20.5942 27.332L19.1182 11.348C19.1182 11.06 19.1902 10.772 19.3342 10.484C19.6222 9.86 20.1742 9.452 20.9902 9.26ZM20.9542 30.356C21.7942 30.164 22.5262 30.368 23.1502 30.968C23.6062 31.472 23.8342 32.024 23.8342 32.624C23.8342 33.008 23.7502 33.368 23.5822 33.704C23.1502 34.52 22.4422 34.952 21.4582 35C20.5462 35 19.8622 34.592 19.4062 33.776C19.2142 33.416 19.1182 33.032 19.1182 32.624C19.1182 32.264 19.2022 31.916 19.3702 31.58C19.6822 30.908 20.2102 30.5 20.9542 30.356Z" fill="#7A2917"/>
</svg>
