<svg width="86" height="83" viewBox="0 0 86 83" fill="none" xmlns="http://www.w3.org/2000/svg">
<g clip-path="url(#clip0_57_39)">
<path d="M15.2142 31.1658C15.0896 31.1718 14.9652 31.1496 14.8506 31.1009C14.736 31.0522 14.6341 30.9784 14.5527 30.8849L10.7227 26.6128L9.77019 27.8801C9.70103 27.9702 9.61407 28.0455 9.51458 28.1015C9.41508 28.1575 9.30512 28.193 9.19134 28.2058C9.07757 28.2187 8.96234 28.2086 8.85262 28.1761C8.74291 28.1437 8.641 28.0897 8.55305 28.0172L3.81682 24.0194C3.64664 23.8774 3.54059 23.6744 3.52198 23.4551C3.51276 23.3465 3.5253 23.2372 3.55886 23.1334C3.59242 23.0296 3.64636 22.9334 3.71759 22.8502C3.78882 22.7669 3.87595 22.6984 3.97401 22.6484C4.07206 22.5985 4.17912 22.5681 4.28907 22.559C4.51113 22.5406 4.73148 22.6101 4.90165 22.7522L8.99625 26.1816L10.0282 24.8229C10.1062 24.7221 10.2061 24.6399 10.3206 24.5822C10.4351 24.5246 10.5612 24.493 10.6897 24.4898C10.8141 24.4852 10.938 24.5081 11.0524 24.5567C11.1668 24.6053 11.2689 24.6784 11.3511 24.7707L15.8757 29.7875C15.9493 29.8687 16.0059 29.9635 16.0421 30.0664C16.0784 30.1694 16.0936 30.2784 16.0868 30.3872C16.08 30.4959 16.0514 30.6023 16.0027 30.7001C15.954 30.7979 15.8861 30.8851 15.8029 30.9568C15.7236 31.0283 15.6308 31.0835 15.5297 31.1194C15.4287 31.1553 15.3215 31.1711 15.2142 31.1658V31.1658Z" fill="#6B4D30"/>
<path d="M7.75915 36.4897H7.63347L0.707712 35.4118C0.494013 35.3706 0.305152 35.2484 0.18153 35.0713C0.0579087 34.8943 0.0093442 34.6766 0.0462258 34.4646C0.0805708 34.2537 0.196034 34.0639 0.368555 33.9349C0.541077 33.8059 0.757349 33.7476 0.972306 33.7722L6.61478 34.6214L6.15174 32.7924C6.1145 32.6532 6.1149 32.5067 6.15289 32.3677C6.19087 32.2287 6.26512 32.102 6.36822 32.0002C6.47132 31.8984 6.59966 31.825 6.74042 31.7875C6.88119 31.75 7.02946 31.7496 7.17043 31.7864L14.4137 33.5763C14.6304 33.63 14.8165 33.7665 14.9313 33.9557C15.046 34.145 15.08 34.3715 15.0256 34.5855C14.9712 34.7995 14.833 34.9833 14.6413 35.0966C14.4496 35.21 14.2202 35.2434 14.0036 35.1897L8.12297 33.733L8.55293 35.4314C8.58615 35.5641 8.5854 35.7028 8.55075 35.8351C8.51611 35.9674 8.44866 36.0891 8.35449 36.1892C8.28191 36.2774 8.19146 36.3498 8.08895 36.4015C7.98643 36.4532 7.8741 36.4833 7.75915 36.4897V36.4897Z" fill="#6B4D30"/>
<path d="M4.58398 48.6855C4.40585 48.6843 4.23273 48.6272 4.08962 48.5225C3.94651 48.4177 3.84082 48.2708 3.78781 48.1028C3.7348 47.9349 3.73723 47.7547 3.79473 47.5882C3.85223 47.4217 3.96184 47.2775 4.10771 47.1766L8.38753 44.2305L7.20347 42.924C7.12715 42.8342 7.07019 42.7299 7.03607 42.6176C7.00194 42.5053 6.99138 42.3873 7.00502 42.2708C7.02418 42.1511 7.06965 42.0371 7.13821 41.9367C7.20678 41.8362 7.29679 41.7518 7.40191 41.6894L13.2296 38.1946C13.4208 38.0811 13.6499 38.0473 13.8663 38.1006C14.0828 38.1539 14.269 38.2899 14.3839 38.4788C14.4988 38.6676 14.533 38.8938 14.4791 39.1076C14.4251 39.3213 14.2874 39.5052 14.0961 39.6187L9.16146 42.5517L10.2992 43.8581C10.3752 43.9482 10.432 44.0525 10.4661 44.1647C10.5002 44.277 10.5109 44.3949 10.4977 44.5114C10.4843 44.6273 10.4461 44.7391 10.3857 44.8393C10.3252 44.9395 10.2439 45.0259 10.1471 45.0928L5.06687 48.5353C4.92598 48.6344 4.75696 48.687 4.58398 48.6855Z" fill="#6B4D30"/>
<path d="M17.5889 83C17.4578 83.0003 17.327 82.9872 17.1986 82.9608C16.8074 82.8592 16.4723 82.6098 16.2656 82.2664C16.059 81.923 15.9973 81.5131 16.0939 81.1252L23.0197 54.1466V52.1869C23.0245 51.9853 23.0694 51.7866 23.1519 51.6022C23.2345 51.4177 23.353 51.2512 23.5007 51.112C23.6485 50.9727 23.8225 50.8636 24.0129 50.7908C24.2034 50.7181 24.4064 50.683 24.6106 50.6877C24.8147 50.6925 25.0159 50.7368 25.2027 50.8183C25.3895 50.8998 25.5581 51.0169 25.6991 51.1628C25.8401 51.3086 25.9506 51.4805 26.0243 51.6686C26.098 51.8566 26.1335 52.0572 26.1287 52.2588L26.089 54.3948C26.0866 54.5094 26.0711 54.6234 26.0427 54.7345L19.0706 81.8568C18.9891 82.1838 18.7987 82.4742 18.53 82.6815C18.2613 82.8888 17.9299 83.001 17.5889 83V83Z" fill="#6B4D30"/>
<path d="M25.798 83C25.5685 82.9966 25.3426 82.943 25.1365 82.8432C24.779 82.6591 24.5092 82.3435 24.3854 81.9646C24.2616 81.5857 24.2938 81.1739 24.475 80.8182L29.6875 70.4383C32.287 65.3009 32.7175 59.3553 30.8848 53.9049C30.7773 53.7114 30.714 53.497 30.6995 53.2767C30.685 53.0565 30.7195 52.8357 30.8008 52.6301C30.8821 52.4245 31.008 52.239 31.1698 52.0866C31.3316 51.9343 31.5252 51.8189 31.737 51.7485C31.9489 51.6781 32.1738 51.6545 32.3959 51.6793C32.618 51.7041 32.8319 51.7767 33.0225 51.892C33.2131 52.0073 33.3757 52.1625 33.499 52.3466C33.6223 52.5308 33.7031 52.7394 33.7358 52.9577C35.8233 59.1638 35.3333 65.9341 32.3732 71.7839L27.121 82.1573C26.9992 82.4035 26.8116 82.6122 26.5784 82.7608C26.3453 82.9093 26.0754 82.992 25.798 83V83Z" fill="#6B4D30"/>
<path d="M24.0648 22.8632C23.6646 22.8616 23.2808 22.7057 22.9954 22.4286C22.7099 22.1516 22.5454 21.7755 22.5367 21.3804L22.4904 18.4016C22.4865 17.8203 22.4446 17.2399 22.3648 16.664C21.7628 12.5029 24.1838 8.57695 28.0072 7.51871H28.0866L38.161 5.32385H38.2206C39.2988 5.13441 41.1906 4.35053 41.7595 1.24766C41.8314 0.853521 42.059 0.503741 42.3921 0.275269C42.7251 0.0467966 43.1365 -0.0416525 43.5356 0.0293794C43.9347 0.100411 44.2889 0.325106 44.5203 0.654032C44.7516 0.982959 44.8412 1.38917 44.7693 1.78331C44.1078 5.29772 41.8918 7.72775 38.8159 8.31566L28.7746 10.4517C26.4924 11.105 25.0041 13.6265 25.3811 16.2329C25.4767 16.9301 25.5276 17.6327 25.5333 18.3363L25.5994 21.3346C25.6047 21.7337 25.4497 22.1186 25.1683 22.4051C24.8869 22.6916 24.502 22.8563 24.0978 22.8632H24.0648Z" fill="#6B4D30"/>
<path d="M33.9542 50.8282C30.1628 50.823 26.5283 49.3334 23.8474 46.686C21.1665 44.0385 19.6581 40.4493 19.6528 36.7053C19.6528 32.2175 21.968 28.0173 26.1685 24.8621C29.3105 22.5105 29.4759 18.2318 29.4759 18.1926C29.4917 17.7924 29.6678 17.4148 29.9655 17.1428C30.2633 16.8709 30.6582 16.7268 31.0635 16.7424C31.4687 16.758 31.8511 16.9319 32.1265 17.226C32.4019 17.52 32.5477 17.91 32.532 18.3102C32.532 18.5388 32.2608 24.0586 27.9876 27.266C26.0031 28.7554 22.6957 31.9563 22.6957 36.7053C22.6957 39.6505 23.8804 42.4751 25.9893 44.5577C28.0982 46.6403 30.9585 47.8103 33.9409 47.8103C35.5545 47.7985 37.1489 47.4629 38.6271 46.824C40.1054 46.185 41.4367 45.256 42.5402 44.0934C43.4701 43.1332 44.1859 41.9914 44.6417 40.7414C45.0974 39.4914 45.2829 38.161 45.1862 36.8359C45.152 36.4348 45.2805 36.0368 45.5435 35.7293C45.8065 35.4218 46.1824 35.2301 46.5885 35.1963C46.9947 35.1625 47.3978 35.2894 47.7091 35.5492C48.0205 35.8089 48.2146 36.1801 48.2489 36.5812C48.3855 38.3211 48.1511 40.07 47.5609 41.715C46.9707 43.36 46.0378 44.8645 44.8224 46.1314C43.4372 47.6127 41.7564 48.7947 39.886 49.603C38.0155 50.4113 35.9959 50.8285 33.9542 50.8282Z" fill="#6B4D30"/>
<path d="M30.4548 40.1805C31.7298 40.1805 32.7634 39.1598 32.7634 37.9007C32.7634 36.6416 31.7298 35.6209 30.4548 35.6209C29.1798 35.6209 28.1462 36.6416 28.1462 37.9007C28.1462 39.1598 29.1798 40.1805 30.4548 40.1805Z" fill="#6B4D30"/>
<path d="M83.7771 83C83.4367 82.9987 83.1064 82.8857 82.8381 82.6788C82.5699 82.4718 82.379 82.1827 82.2953 81.8568L75.3299 54.7084C75.2983 54.5979 75.2827 54.4835 75.2836 54.3687L75.2439 52.2588C75.2369 51.8586 75.3911 51.472 75.6727 51.1841C75.9543 50.8962 76.3402 50.7306 76.7455 50.7237C77.1507 50.7167 77.5422 50.8691 77.8337 51.1472C78.1252 51.4253 78.2929 51.8063 78.2999 52.2065V54.1662L85.2323 81.1448C85.3305 81.5337 85.2687 81.9452 85.0605 82.2892C84.8522 82.6332 84.5144 82.8817 84.121 82.9804C84.0072 82.9975 83.8921 83.0041 83.7771 83Z" fill="#6B4D30"/>
<path d="M75.5946 83C75.3085 83.0001 75.0281 82.9213 74.785 82.7724C74.5419 82.6235 74.3457 82.4104 74.2187 82.1573L69.0062 71.7839C66.0628 65.9279 65.5871 59.1591 67.6832 52.9577C67.7462 52.7694 67.8461 52.5952 67.9773 52.445C68.1084 52.2949 68.2683 52.1717 68.4476 52.0825C68.627 51.9934 68.8224 51.94 69.0226 51.9254C69.2229 51.9108 69.4241 51.9353 69.6148 51.9975C69.8055 52.0596 69.9819 52.1583 70.1339 52.2878C70.286 52.4174 70.4107 52.5752 70.501 52.7523C70.5913 52.9294 70.6454 53.1224 70.6602 53.3201C70.6749 53.5179 70.6501 53.7166 70.5872 53.9049C68.7524 59.3544 69.1806 65.3 71.7778 70.4383L76.997 80.8182C77.1782 81.1738 77.2104 81.5857 77.0866 81.9646C76.9628 82.3435 76.693 82.6591 76.3355 82.8432C76.1055 82.9553 75.8509 83.0091 75.5946 83Z" fill="#6B4D30"/>
<path d="M77.3013 22.8632C77.1006 22.8598 76.9025 22.8174 76.7185 22.7384C76.5344 22.6594 76.3679 22.5454 76.2285 22.4028C76.089 22.2603 75.9794 22.092 75.9058 21.9076C75.8322 21.7232 75.7962 21.5263 75.7997 21.3281L75.8592 18.3297C75.8668 17.626 75.9198 16.9234 76.018 16.2263C76.395 13.6134 74.9067 11.0854 72.6245 10.4452L62.5832 8.283C59.4808 7.72122 57.245 5.29119 56.6298 1.78332C56.557 1.38918 56.6457 0.982618 56.8765 0.653079C57.1072 0.32354 57.4611 0.0980151 57.8602 0.0261169C58.2593 -0.0457812 58.671 0.0418371 59.0047 0.269697C59.3384 0.497557 59.5668 0.846993 59.6396 1.24113C60.2085 4.344 62.1003 5.12788 63.1785 5.31732H63.2381L73.3257 7.51219H73.4051C77.2219 8.55083 79.6495 12.4768 79.041 16.6575C78.9671 17.2339 78.9273 17.8141 78.9219 18.3951L78.8557 21.3934C78.8453 21.7914 78.6761 22.1691 78.385 22.4444C78.0938 22.7197 77.7043 22.8702 77.3013 22.8632V22.8632Z" fill="#6B4D30"/>
<path d="M67.4187 50.8282C65.377 50.8285 63.3573 50.4113 61.4869 49.603C59.6164 48.7947 57.9357 47.6127 56.5505 46.1315C55.3351 44.8645 54.4022 43.36 53.812 41.715C53.2218 40.07 52.9874 38.3211 53.124 36.5812C53.1573 36.1818 53.3499 35.8119 53.6595 35.5528C53.8127 35.4245 53.9901 35.3273 54.1814 35.2667C54.3727 35.2061 54.5742 35.1833 54.7744 35.1996C54.9746 35.2159 55.1697 35.271 55.3483 35.3617C55.527 35.4524 55.6858 35.577 55.8157 35.7283C55.9457 35.8797 56.0441 36.0548 56.1055 36.2437C56.1669 36.4327 56.19 36.6317 56.1734 36.8294C56.0738 38.1547 56.258 39.4859 56.7139 40.7363C57.1697 41.9868 57.8871 43.1284 58.8194 44.0868C59.9229 45.2495 61.2542 46.1785 62.7325 46.8174C64.2107 47.4564 65.8051 47.792 67.4187 47.8037C70.4011 47.8037 73.2614 46.6337 75.3703 44.5512C77.4792 42.4686 78.664 39.644 78.664 36.6987C78.664 31.9497 75.3565 28.7489 73.3721 27.2595C69.0724 24.0587 68.7946 18.5388 68.7946 18.2906C68.7788 17.8904 68.9247 17.5004 69.2001 17.2064C69.4754 16.9124 69.8578 16.7384 70.2631 16.7228C70.6684 16.7072 71.0633 16.8513 71.361 17.1232C71.6587 17.3952 71.8349 17.7728 71.8507 18.173C71.8507 18.2122 72.0888 22.5105 75.1912 24.8425C79.3982 27.9977 81.7134 32.198 81.7134 36.6857C81.7134 40.432 80.2082 44.0252 77.5282 46.6767C74.8482 49.3282 71.2123 50.8213 67.4187 50.8282Z" fill="#6B4D30"/>
<path d="M70.918 40.1805C72.193 40.1805 73.2265 39.1598 73.2265 37.9007C73.2265 36.6416 72.193 35.6209 70.918 35.6209C69.643 35.6209 68.6094 36.6416 68.6094 37.9007C68.6094 39.1598 69.643 40.1805 70.918 40.1805Z" fill="#6B4D30"/>
</g>
<defs>
<clipPath id="clip0_57_39">
<rect width="85.3118" height="83" rx="22" fill="white"/>
</clipPath>
</defs>
</svg>
