<svg width="112" height="109" viewBox="0 0 112 109" fill="none" xmlns="http://www.w3.org/2000/svg">
<g clip-path="url(#clip0_21_7)">
<path d="M19.9629 40.8933C19.7994 40.9012 19.6362 40.872 19.4858 40.8081C19.3354 40.7443 19.2017 40.6474 19.095 40.5248L14.0695 34.9192L12.8197 36.582C12.7289 36.7003 12.6148 36.7992 12.4843 36.8726C12.3538 36.9461 12.2095 36.9927 12.0602 37.0095C11.9109 37.0263 11.7597 37.0131 11.6157 36.9705C11.4718 36.928 11.3381 36.8571 11.2227 36.762L5.00815 31.5164C4.78486 31.33 4.6457 31.0637 4.62128 30.7759C4.60919 30.6335 4.62564 30.49 4.66968 30.3538C4.71372 30.2176 4.78449 30.0914 4.87795 29.9822C4.97142 29.873 5.08574 29.7831 5.2144 29.7175C5.34306 29.652 5.48354 29.6121 5.6278 29.6001C5.91917 29.576 6.20829 29.6672 6.43158 29.8536L11.8042 34.3535L13.1582 32.5707C13.2606 32.4384 13.3917 32.3305 13.5419 32.2548C13.6921 32.1792 13.8576 32.1377 14.0261 32.1336C14.1894 32.1276 14.352 32.1576 14.5021 32.2213C14.6522 32.2851 14.7861 32.381 14.8941 32.5021L20.8309 39.0848C20.9275 39.1913 21.0017 39.3157 21.0493 39.4508C21.0968 39.5859 21.1167 39.7289 21.1078 39.8717C21.099 40.0144 21.0615 40.1539 20.9975 40.2822C20.9336 40.4106 20.8445 40.525 20.7354 40.6191C20.6313 40.7129 20.5095 40.7854 20.3769 40.8325C20.2443 40.8795 20.1036 40.9002 19.9629 40.8933V40.8933Z" fill="#FEFAEF"/>
<path d="M10.181 47.8789H10.0161L0.928678 46.4647C0.648279 46.4105 0.40047 46.2502 0.238264 46.0179C0.0760572 45.7856 0.0123347 45.4999 0.0607278 45.2218C0.105793 44.945 0.257294 44.696 0.483663 44.5267C0.710032 44.3575 0.993808 44.281 1.27586 44.3133L8.67947 45.4275L8.0719 43.0276C8.02305 42.8449 8.02356 42.6528 8.07341 42.4704C8.12325 42.288 8.22068 42.1217 8.35595 41.9881C8.49123 41.8545 8.65963 41.7583 8.84433 41.7091C9.02903 41.6599 9.22358 41.6594 9.40855 41.7076L18.9126 44.0561C19.1969 44.1266 19.4412 44.3057 19.5917 44.5541C19.7423 44.8024 19.7868 45.0996 19.7154 45.3804C19.6441 45.6611 19.4627 45.9024 19.2112 46.0511C18.9597 46.1998 18.6588 46.2437 18.3745 46.1732L10.6584 44.2618L11.2226 46.4904C11.2661 46.6644 11.2652 46.8464 11.2197 47.02C11.1742 47.1936 11.0857 47.3533 10.9622 47.4846C10.8669 47.6004 10.7483 47.6953 10.6138 47.7632C10.4792 47.8311 10.3318 47.8705 10.181 47.8789V47.8789Z" fill="#FEFAEF"/>
<path d="M6.01477 63.8814C5.78105 63.8798 5.55389 63.8048 5.36611 63.6674C5.17833 63.53 5.03965 63.3372 4.9701 63.1168C4.90055 62.8964 4.90373 62.6599 4.97918 62.4415C5.05463 62.223 5.19844 62.0339 5.38985 61.9014L11.0055 58.0358L9.45185 56.3216C9.35171 56.2037 9.27697 56.0669 9.2322 55.9195C9.18743 55.7721 9.17357 55.6173 9.19147 55.4644C9.21661 55.3075 9.27627 55.1578 9.36623 55.026C9.4562 54.8942 9.5743 54.7835 9.71224 54.7016L17.3589 50.116C17.6098 49.9671 17.9103 49.9227 18.1944 49.9927C18.4784 50.0626 18.7227 50.2411 18.8734 50.4888C19.0242 50.7366 19.0692 51.0334 18.9983 51.3139C18.9275 51.5944 18.7468 51.8356 18.4959 51.9845L12.021 55.833L13.5139 57.5473C13.6136 57.6654 13.688 57.8022 13.7328 57.9495C13.7775 58.0968 13.7916 58.2515 13.7742 58.4044C13.7567 58.5565 13.7066 58.7031 13.6273 58.8346C13.548 58.9662 13.4413 59.0795 13.3142 59.1672L6.64838 63.6843C6.46351 63.8143 6.24174 63.8833 6.01477 63.8814Z" fill="#FEFAEF"/>
<path d="M23.0787 108.906C22.9067 108.907 22.7351 108.889 22.5666 108.855C22.0533 108.721 21.6136 108.394 21.3424 107.944C21.0713 107.493 20.9904 106.955 21.1172 106.446L30.2046 71.047V68.4756C30.2109 68.2111 30.2698 67.9504 30.3781 67.7084C30.4864 67.4663 30.6419 67.2478 30.8357 67.0651C31.0296 66.8824 31.2579 66.7393 31.5078 66.6438C31.7577 66.5483 32.0241 66.5023 32.292 66.5085C32.5599 66.5147 32.8239 66.5729 33.0689 66.6798C33.314 66.7868 33.5353 66.9404 33.7203 67.1318C33.9053 67.3232 34.0502 67.5487 34.1469 67.7955C34.2437 68.0422 34.2902 68.3054 34.2839 68.5699L34.2319 71.3727C34.2287 71.523 34.2084 71.6725 34.1711 71.8184L25.0229 107.406C24.9159 107.835 24.6661 108.216 24.3136 108.488C23.961 108.76 23.5261 108.907 23.0787 108.906V108.906Z" fill="#FEFAEF"/>
<path d="M33.8499 108.906C33.5488 108.902 33.2524 108.831 32.982 108.7C32.5129 108.459 32.1588 108.045 31.9964 107.548C31.834 107.05 31.8762 106.51 32.114 106.043L38.9535 92.4236C42.3643 85.6827 42.9292 77.8814 40.5245 70.7298C40.3833 70.4759 40.3003 70.1946 40.2813 69.9055C40.2622 69.6165 40.3076 69.3269 40.4142 69.0571C40.5208 68.7873 40.6861 68.5439 40.8984 68.344C41.1106 68.1442 41.3647 67.9927 41.6427 67.9004C41.9206 67.808 42.2157 67.777 42.5072 67.8095C42.7986 67.8421 43.0793 67.9373 43.3293 68.0886C43.5794 68.2399 43.7929 68.4435 43.9546 68.6852C44.1163 68.9268 44.2224 69.2005 44.2653 69.487C47.0044 77.6301 46.3614 86.5136 42.4774 94.1893L35.5858 107.8C35.4261 108.123 35.1799 108.397 34.874 108.592C34.568 108.787 34.2139 108.896 33.8499 108.906V108.906Z" fill="#FEFAEF"/>
<path d="M31.5761 29.9993C31.051 29.9972 30.5475 29.7926 30.173 29.4291C29.7984 29.0657 29.5825 28.5721 29.5712 28.0536L29.5104 24.1452C29.5053 23.3825 29.4502 22.6209 29.3455 21.8652C28.5557 16.4053 31.7323 11.254 36.7491 9.86549H36.8532L50.0721 6.98555H50.1502C51.565 6.73699 54.0473 5.70844 54.7938 1.63711C54.8881 1.11994 55.1867 0.660991 55.6237 0.361207C56.0608 0.061424 56.6005 -0.054632 57.1242 0.0385705C57.6479 0.131773 58.1127 0.426599 58.4162 0.858191C58.7198 1.28978 58.8373 1.82279 58.7429 2.33995C57.875 6.95127 54.9674 10.1398 50.9314 10.9112L37.7559 13.714C34.7615 14.5711 32.8086 17.8796 33.3033 21.2995C33.4288 22.2144 33.4955 23.1362 33.503 24.0594L33.5898 27.9936C33.5967 28.5173 33.3933 29.0224 33.0241 29.3983C32.6548 29.7742 32.1498 29.9903 31.6195 29.9993H31.5761Z" fill="#FEFAEF"/>
<path d="M44.5519 66.6928C39.5772 66.686 34.8083 64.7314 31.2906 61.2576C27.773 57.7839 25.7938 53.0744 25.7869 48.1618C25.7869 42.2733 28.8247 36.762 34.3362 32.6221C38.4589 29.5365 38.6759 23.9223 38.6759 23.8709C38.6966 23.3458 38.9277 22.8503 39.3184 22.4934C39.709 22.1366 40.2272 21.9476 40.759 21.9681C41.2907 21.9885 41.7925 22.2168 42.1538 22.6025C42.5152 22.9883 42.7066 23.5001 42.6858 24.0252C42.6858 24.3252 42.33 31.5679 36.723 35.7763C34.1192 37.7306 29.7794 41.9305 29.7794 48.1618C29.7794 52.0263 31.334 55.7325 34.1011 58.4651C36.8682 61.1977 40.6213 62.7329 44.5346 62.7329C46.6518 62.7174 48.7438 62.2771 50.6835 61.4387C52.6231 60.6004 54.37 59.3814 55.8179 57.8558C57.038 56.596 57.9773 55.0978 58.5752 53.4577C59.1732 51.8175 59.4166 50.0719 59.2897 48.3332C59.2448 47.8069 59.4135 47.2846 59.7585 46.8812C60.1036 46.4777 60.5969 46.2261 61.1298 46.1818C61.6627 46.1375 62.1916 46.304 62.6001 46.6448C63.0087 46.9856 63.2634 47.4727 63.3083 47.9989C63.4876 50.282 63.18 52.5768 62.4056 54.7352C61.6312 56.8936 60.4071 58.8677 58.8123 60.5301C56.9948 62.4736 54.7895 64.0245 52.3352 65.0852C49.881 66.1458 47.2309 66.6931 44.5519 66.6928Z" fill="#FEFAEF"/>
<path d="M39.9603 52.7216C41.6332 52.7216 42.9894 51.3824 42.9894 49.7303C42.9894 48.0782 41.6332 46.7389 39.9603 46.7389C38.2873 46.7389 36.9312 48.0782 36.9312 49.7303C36.9312 51.3824 38.2873 52.7216 39.9603 52.7216Z" fill="#FEFAEF"/>
<path d="M109.926 108.906C109.479 108.904 109.046 108.756 108.694 108.485C108.342 108.213 108.091 107.834 107.982 107.406L98.8421 71.7841C98.8007 71.6391 98.7802 71.489 98.7814 71.3384L98.7293 68.5699C98.7201 68.0447 98.9225 67.5375 99.292 67.1598C99.6615 66.782 100.168 66.5647 100.7 66.5556C101.231 66.5465 101.745 66.7464 102.127 67.1113C102.51 67.4762 102.73 67.9762 102.739 68.5013V71.0727L111.835 106.472C111.964 106.982 111.883 107.522 111.61 107.973C111.337 108.425 110.893 108.751 110.377 108.88C110.228 108.903 110.077 108.911 109.926 108.906Z" fill="#FEFAEF"/>
<path d="M99.1892 108.906C98.8139 108.906 98.4459 108.803 98.1269 108.607C97.8079 108.412 97.5505 108.133 97.3839 107.8L90.5444 94.1893C86.6823 86.5054 86.0582 77.624 88.8085 69.487C88.8912 69.2399 89.0223 69.0113 89.1944 68.8143C89.3665 68.6173 89.5762 68.4557 89.8115 68.3387C90.0468 68.2217 90.3032 68.1516 90.566 68.1324C90.8288 68.1133 91.0928 68.1454 91.343 68.227C91.5931 68.3086 91.8246 68.4381 92.0241 68.608C92.2236 68.778 92.3873 68.9851 92.5058 69.2175C92.6243 69.4499 92.6952 69.703 92.7146 69.9625C92.734 70.222 92.7015 70.4827 92.6188 70.7298C90.2114 77.8802 90.7732 85.6816 94.1812 92.4236L101.029 106.043C101.267 106.51 101.309 107.05 101.147 107.548C100.984 108.045 100.63 108.459 100.161 108.7C99.8596 108.847 99.5255 108.918 99.1892 108.906Z" fill="#FEFAEF"/>
<path d="M101.428 29.9993C101.165 29.9948 100.905 29.9392 100.664 29.8355C100.422 29.7319 100.204 29.5823 100.021 29.3952C99.8379 29.2082 99.694 28.9874 99.5975 28.7454C99.501 28.5034 99.4536 28.2451 99.4582 27.985L99.5364 24.0509C99.5463 23.1274 99.6159 22.2056 99.7447 21.2909C100.239 17.8624 98.2865 14.5454 95.2921 13.7054L82.1166 10.8683C78.0459 10.1312 75.1122 6.94267 74.3051 2.33992C74.2095 1.82276 74.3259 1.28931 74.6287 0.856912C74.9315 0.424517 75.3957 0.128601 75.9194 0.0342616C76.4431 -0.0600776 76.9833 0.0548883 77.4212 0.353868C77.859 0.652848 78.1587 1.11135 78.2542 1.62851C79.0007 5.69985 81.483 6.72839 82.8978 6.97696H82.9759L96.2121 9.85689H96.3163C101.324 11.2197 104.51 16.371 103.711 21.8566C103.614 22.613 103.562 23.3742 103.555 24.1366L103.468 28.0708C103.455 28.5929 103.232 29.0886 102.85 29.4498C102.468 29.811 101.957 30.0085 101.428 29.9993V29.9993Z" fill="#FEFAEF"/>
<path d="M88.4615 66.6928C85.7826 66.6931 83.1325 66.1458 80.6782 65.0851C78.224 64.0245 76.0187 62.4736 74.2011 60.53C72.6063 58.8677 71.3822 56.8936 70.6078 54.7352C69.8334 52.5767 69.5259 50.2819 69.7051 47.9989C69.7489 47.4749 70.0016 46.9896 70.4077 46.6496C70.6088 46.4813 70.8415 46.3537 71.0925 46.2741C71.3435 46.1946 71.6079 46.1647 71.8707 46.1861C72.1334 46.2075 72.3893 46.2797 72.6237 46.3988C72.8582 46.5178 73.0666 46.6813 73.237 46.8799C73.4075 47.0785 73.5367 47.3083 73.6172 47.5562C73.6977 47.804 73.728 48.0652 73.7064 48.3246C73.5757 50.0636 73.8173 51.8103 74.4155 53.451C75.0136 55.0917 75.955 56.5896 77.1782 57.8472C78.6261 59.3728 80.373 60.5918 82.3126 61.4302C84.2523 62.2685 86.3443 62.7088 88.4615 62.7243C92.3748 62.7243 96.1279 61.1891 98.895 58.4565C101.662 55.7239 103.217 52.0177 103.217 48.1532C103.217 41.9219 98.8769 37.722 96.2731 35.7677C90.6314 31.5678 90.2669 24.3252 90.2669 23.9994C90.2461 23.4743 90.4375 22.9626 90.7989 22.5768C91.1602 22.191 91.662 21.9628 92.1937 21.9424C92.7255 21.9219 93.2437 22.1109 93.6343 22.4677C94.025 22.8246 94.2561 23.32 94.2768 23.8452C94.2768 23.8966 94.5893 29.5365 98.6599 32.5964C104.18 36.7363 107.218 42.2476 107.218 48.136C107.218 53.0517 105.243 57.7664 101.726 61.2455C98.2099 64.7246 93.4392 66.6837 88.4615 66.6928Z" fill="#FEFAEF"/>
<path d="M93.0528 52.7216C94.7258 52.7216 96.082 51.3824 96.082 49.7303C96.082 48.0782 94.7258 46.7389 93.0528 46.7389C91.3799 46.7389 90.0237 48.0782 90.0237 49.7303C90.0237 51.3824 91.3799 52.7216 93.0528 52.7216Z" fill="#FEFAEF"/>
</g>
<defs>
<clipPath id="clip0_21_7">
<rect width="111.939" height="108.906" rx="22" fill="white"/>
</clipPath>
</defs>
</svg>
