<svg width="126" height="122" viewBox="0 0 126 122" fill="none" xmlns="http://www.w3.org/2000/svg">
<g clip-path="url(#clip0_21_40)">
<path d="M22.3631 45.81C22.1799 45.8187 21.9971 45.7861 21.8286 45.7146C21.6601 45.643 21.5104 45.5344 21.3908 45.3971L15.7612 39.1176L14.361 40.9803C14.2594 41.1128 14.1316 41.2236 13.9853 41.3059C13.8391 41.3882 13.6774 41.4403 13.5102 41.4592C13.343 41.478 13.1736 41.4632 13.0123 41.4155C12.8511 41.3679 12.7013 41.2884 12.572 41.182L5.6103 35.3057C5.36016 35.0969 5.20427 34.7985 5.17692 34.4761C5.16338 34.3165 5.1818 34.1559 5.23113 34.0033C5.28047 33.8507 5.35975 33.7093 5.46445 33.587C5.56915 33.4646 5.69723 33.3639 5.84135 33.2905C5.98548 33.217 6.14285 33.1724 6.30446 33.159C6.63085 33.132 6.95474 33.2341 7.20488 33.4429L13.2234 38.4839L14.7402 36.4867C14.855 36.3385 15.0018 36.2176 15.1701 36.1329C15.3384 36.0481 15.5237 36.0017 15.7125 35.997C15.8955 35.9904 16.0776 36.0239 16.2458 36.0954C16.4139 36.1668 16.5639 36.2742 16.6848 36.4099L23.3354 43.784C23.4436 43.9033 23.5268 44.0427 23.5801 44.194C23.6333 44.3453 23.6556 44.5056 23.6457 44.6655C23.6357 44.8254 23.5937 44.9817 23.5221 45.1254C23.4505 45.2692 23.3507 45.3974 23.2285 45.5027C23.1119 45.6078 22.9754 45.6891 22.8269 45.7418C22.6784 45.7945 22.5207 45.8177 22.3631 45.81V45.81Z" fill="#692300"/>
<path d="M11.4051 53.6355H11.2203L1.0403 52.0512C0.726192 51.9905 0.448589 51.8109 0.26688 51.5507C0.0851718 51.2905 0.0137878 50.9704 0.0679993 50.6589C0.118482 50.3488 0.288199 50.0699 0.541785 49.8803C0.795371 49.6906 1.11327 49.605 1.42923 49.6411L9.72298 50.8893L9.04237 48.2009C8.98764 47.9962 8.98822 47.781 9.04406 47.5767C9.09989 47.3724 9.20903 47.1861 9.36057 47.0364C9.51211 46.8868 9.70076 46.779 9.90767 46.7239C10.1146 46.6687 10.3325 46.6681 10.5397 46.7222L21.1865 49.3531C21.5049 49.432 21.7786 49.6327 21.9473 49.9109C22.1159 50.1891 22.1658 50.522 22.0858 50.8365C22.0059 51.151 21.8027 51.4213 21.521 51.5879C21.2393 51.7544 20.9021 51.8036 20.5836 51.7247L11.9398 49.5835L12.5718 52.08C12.6207 52.2749 12.6196 52.4788 12.5686 52.6733C12.5177 52.8677 12.4186 53.0466 12.2801 53.1938C12.1735 53.3235 12.0405 53.4298 11.8898 53.5058C11.7391 53.5819 11.574 53.626 11.4051 53.6355V53.6355Z" fill="#692300"/>
<path d="M6.73818 71.5619C6.47635 71.5601 6.22188 71.4762 6.01152 71.3222C5.80117 71.1683 5.64581 70.9523 5.5679 70.7054C5.48999 70.4586 5.49355 70.1936 5.57807 69.9489C5.66259 69.7042 5.8237 69.4923 6.03812 69.3439L12.3289 65.0135L10.5885 63.0932C10.4763 62.9611 10.3926 62.8079 10.3424 62.6428C10.2923 62.4777 10.2768 62.3042 10.2968 62.133C10.325 61.9571 10.3918 61.7895 10.4926 61.6419C10.5934 61.4942 10.7257 61.3702 10.8802 61.2784L19.4462 56.1415C19.7273 55.9747 20.0639 55.925 20.3821 56.0033C20.7003 56.0817 20.974 56.2816 21.1429 56.5592C21.3118 56.8368 21.3621 57.1692 21.2828 57.4834C21.2035 57.7977 21.001 58.0679 20.7199 58.2347L13.4665 62.5459L15.1389 64.4662C15.2506 64.5986 15.334 64.7519 15.3841 64.9169C15.4343 65.0819 15.4501 65.2552 15.4306 65.4264C15.4109 65.5968 15.3548 65.7611 15.266 65.9084C15.1771 66.0557 15.0576 66.1827 14.9153 66.281L7.44796 71.3411C7.24086 71.4868 6.99243 71.5641 6.73818 71.5619Z" fill="#692300"/>
<path d="M25.8536 122C25.6609 122 25.4686 121.981 25.2799 121.942C24.7049 121.793 24.2123 121.426 23.9086 120.922C23.6048 120.417 23.5141 119.814 23.6562 119.244L33.8362 79.589V76.7085C33.8432 76.4122 33.9093 76.1201 34.0306 75.849C34.1519 75.5779 34.3261 75.3331 34.5433 75.1284C34.7604 74.9238 35.0162 74.7634 35.2961 74.6564C35.576 74.5495 35.8745 74.498 36.1746 74.5049C36.4747 74.5118 36.7704 74.5771 37.0449 74.6969C37.3195 74.8167 37.5674 74.9887 37.7746 75.2031C37.9818 75.4176 38.1442 75.6702 38.2526 75.9466C38.3609 76.223 38.4131 76.5178 38.406 76.8141L38.3477 79.9539C38.3442 80.1223 38.3214 80.2898 38.2796 80.4532L28.0315 120.32C27.9117 120.8 27.6318 121.227 27.2369 121.532C26.8419 121.837 26.3548 122.001 25.8536 122V122Z" fill="#692300"/>
<path d="M37.9199 122C37.5826 121.995 37.2505 121.916 36.9476 121.77C36.4221 121.499 36.0255 121.035 35.8436 120.478C35.6616 119.921 35.7089 119.316 35.9753 118.793L43.6371 103.536C47.4579 95.9845 48.0908 87.2451 45.3969 79.2338C45.2388 78.9493 45.1458 78.6342 45.1245 78.3104C45.1032 77.9866 45.154 77.6622 45.2735 77.36C45.3929 77.0577 45.578 76.785 45.8158 76.5611C46.0536 76.3372 46.3382 76.1676 46.6496 76.0641C46.961 75.9607 47.2916 75.9259 47.618 75.9624C47.9445 75.9988 48.2589 76.1055 48.5391 76.275C48.8192 76.4445 49.0583 76.6726 49.2395 76.9433C49.4206 77.2139 49.5395 77.5206 49.5876 77.8415C52.6559 86.9637 51.9356 96.9153 47.5846 105.514L39.8645 120.761C39.6856 121.123 39.4098 121.43 39.0671 121.648C38.7243 121.867 38.3276 121.988 37.9199 122V122Z" fill="#692300"/>
<path d="M35.3724 33.6062C34.7842 33.6038 34.2201 33.3746 33.8006 32.9674C33.381 32.5603 33.1391 32.0074 33.1264 31.4266L33.0583 27.0482C33.0526 26.1938 32.9909 25.3406 32.8736 24.4941C31.9888 18.3778 35.5474 12.6071 41.1674 11.0516H41.284L56.0922 7.82544H56.1797C57.7646 7.54699 60.5454 6.39478 61.3816 1.83394C61.4873 1.2546 61.8217 0.740465 62.3113 0.404638C62.8009 0.0688117 63.4056 -0.0611978 63.9922 0.0432105C64.5789 0.147619 65.0995 0.477892 65.4396 0.961375C65.7796 1.44486 65.9113 2.04194 65.8056 2.62128C64.8333 7.78703 61.576 11.3589 57.0548 12.223L42.2952 15.3628C38.9408 16.323 36.7531 20.0293 37.3073 23.8604C37.4479 24.8853 37.5225 25.9179 37.5309 26.9522L37.6282 31.3594C37.636 31.946 37.4081 32.5118 36.9944 32.9329C36.5808 33.354 36.015 33.5961 35.421 33.6062H35.3724Z" fill="#692300"/>
<path d="M49.9084 74.7113C44.3356 74.7037 38.9933 72.5141 35.0527 68.6227C31.1121 64.7313 28.8949 59.4556 28.8872 53.9523C28.8872 47.3559 32.2903 41.182 38.4644 36.5443C43.0829 33.0877 43.3259 26.7985 43.3259 26.7409C43.3491 26.1527 43.608 25.5976 44.0457 25.1979C44.4833 24.7981 45.0638 24.5864 45.6595 24.6093C46.2551 24.6322 46.8172 24.8879 47.222 25.3201C47.6268 25.7522 47.8412 26.3255 47.818 26.9137C47.818 27.2498 47.4193 35.3633 41.1382 40.0778C38.2213 42.267 33.3598 46.9718 33.3598 53.9523C33.3598 58.2814 35.1013 62.4333 38.2011 65.4944C41.3009 68.5556 45.5052 70.2753 49.889 70.2753C52.2608 70.258 54.6043 69.7648 56.7772 68.8256C58.95 67.8864 60.9069 66.5209 62.5289 64.8119C63.8957 63.4006 64.9479 61.7223 65.6178 59.8849C66.2877 58.0476 66.5603 56.0921 66.4182 54.1443C66.3679 53.5548 66.5568 52.9697 66.9434 52.5177C67.3299 52.0658 67.8825 51.784 68.4795 51.7343C69.0764 51.6846 69.6689 51.8712 70.1266 52.253C70.5843 52.6347 70.8697 53.1804 70.9199 53.7699C71.1207 56.3274 70.7762 58.8981 69.9087 61.3161C69.0412 63.734 67.6699 65.9454 65.8834 67.8077C63.8473 69.9849 61.3769 71.7223 58.6275 72.9104C55.8782 74.0986 52.9095 74.7117 49.9084 74.7113Z" fill="#692300"/>
<path d="M44.7649 59.0605C46.639 59.0605 48.1583 57.5602 48.1583 55.7094C48.1583 53.8587 46.639 52.3584 44.7649 52.3584C42.8908 52.3584 41.3716 53.8587 41.3716 55.7094C41.3716 57.5602 42.8908 59.0605 44.7649 59.0605Z" fill="#692300"/>
<path d="M123.142 122C122.642 121.998 122.157 121.832 121.762 121.528C121.368 121.224 121.087 120.799 120.964 120.32L110.726 80.4148C110.68 80.2524 110.657 80.0843 110.658 79.9155L110.6 76.8141C110.589 76.2259 110.816 75.6577 111.23 75.2345C111.644 74.8113 112.211 74.5679 112.807 74.5577C113.403 74.5475 113.978 74.7714 114.406 75.1802C114.835 75.5889 115.081 76.1491 115.092 76.7373V79.6178L125.282 119.273C125.426 119.845 125.335 120.45 125.029 120.955C124.723 121.461 124.226 121.826 123.648 121.971C123.481 121.996 123.312 122.006 123.142 122Z" fill="#692300"/>
<path d="M111.115 122C110.694 122 110.282 121.884 109.925 121.665C109.568 121.447 109.279 121.133 109.093 120.761L101.431 105.514C97.1043 96.9061 96.4051 86.9568 99.4862 77.8415C99.5787 77.5647 99.7256 77.3087 99.9184 77.088C100.111 76.8672 100.346 76.6862 100.61 76.5551C100.873 76.424 101.161 76.3455 101.455 76.3241C101.749 76.3026 102.045 76.3386 102.325 76.43C102.606 76.5215 102.865 76.6665 103.088 76.8569C103.312 77.0472 103.495 77.2792 103.628 77.5396C103.761 77.7999 103.84 78.0835 103.862 78.3742C103.884 78.6649 103.847 78.957 103.755 79.2338C101.058 87.2439 101.687 95.9832 105.505 103.536L113.176 118.793C113.443 119.316 113.49 119.921 113.308 120.478C113.126 121.035 112.729 121.499 112.204 121.77C111.866 121.934 111.492 122.013 111.115 122Z" fill="#692300"/>
<path d="M113.623 33.6061C113.328 33.6011 113.037 33.5388 112.767 33.4227C112.496 33.3066 112.251 33.139 112.047 32.9294C111.842 32.7199 111.68 32.4725 111.572 32.2015C111.464 31.9304 111.411 31.641 111.416 31.3497L111.504 26.9425C111.515 25.9081 111.593 24.8754 111.737 23.8507C112.291 20.01 110.104 16.2942 106.749 15.3532L91.9896 12.175C87.4295 11.3493 84.1431 7.7774 83.2389 2.62125C83.1319 2.04191 83.2623 1.44432 83.6015 0.959935C83.9406 0.475552 84.4607 0.144057 85.0474 0.0383755C85.634 -0.0673061 86.2392 0.0614822 86.7297 0.396409C87.2202 0.731335 87.5559 1.24496 87.6629 1.8243C88.4991 6.38514 91.2799 7.53735 92.8647 7.8158H92.9522L107.78 11.042H107.897C113.507 12.5687 117.075 18.3393 116.181 24.4845C116.072 25.3317 116.014 26.1845 116.006 27.0385L115.908 31.4457C115.893 32.0307 115.644 32.5859 115.216 32.9906C114.788 33.3952 114.216 33.6165 113.623 33.6061V33.6061Z" fill="#692300"/>
<path d="M99.0974 74.7113C96.0963 74.7117 93.1276 74.0986 90.3783 72.9104C87.6289 71.7223 85.1585 69.9849 83.1224 67.8076C81.3359 65.9454 79.9646 63.734 79.0971 61.3161C78.2296 58.8981 77.8851 56.3274 78.0859 53.7699C78.1349 53.1829 78.418 52.6392 78.8729 52.2583C79.0982 52.0698 79.3589 51.9268 79.64 51.8378C79.9212 51.7487 80.2174 51.7151 80.5118 51.7391C80.8061 51.7631 81.0927 51.844 81.3554 51.9774C81.618 52.1107 81.8514 52.2939 82.0424 52.5163C82.2334 52.7388 82.3781 52.9962 82.4683 53.2739C82.5585 53.5516 82.5924 53.8441 82.5682 54.1347C82.4218 56.0828 82.6924 58.0395 83.3625 59.8775C84.0326 61.7154 85.0871 63.3935 86.4574 64.8023C88.0794 66.5113 90.0363 67.8768 92.2092 68.816C94.382 69.7552 96.7255 70.2484 99.0974 70.2657C103.481 70.2657 107.685 68.546 110.785 65.4848C113.885 62.4236 115.627 58.2718 115.627 53.9427C115.627 46.9622 110.765 42.2574 107.848 40.0682C101.528 35.3633 101.12 27.2498 101.12 26.8849C101.097 26.2967 101.311 25.7234 101.716 25.2913C102.121 24.8591 102.683 24.6034 103.278 24.5805C103.874 24.5576 104.454 24.7693 104.892 25.169C105.33 25.5688 105.589 26.1239 105.612 26.7121C105.612 26.7697 105.962 33.0877 110.522 36.5155C116.706 41.1532 120.109 47.3271 120.109 53.9235C120.109 59.4301 117.896 64.7118 113.957 68.6091C110.018 72.5065 104.674 74.7011 99.0974 74.7113Z" fill="#692300"/>
<path d="M104.241 59.0605C106.115 59.0605 107.634 57.5602 107.634 55.7094C107.634 53.8587 106.115 52.3584 104.241 52.3584C102.367 52.3584 100.847 53.8587 100.847 55.7094C100.847 57.5602 102.367 59.0605 104.241 59.0605Z" fill="#692300"/>
</g>
<defs>
<clipPath id="clip0_21_40">
<rect width="125.398" height="122" fill="white"/>
</clipPath>
</defs>
</svg>
