<svg width="113" height="109" viewBox="0 0 113 109" fill="none" xmlns="http://www.w3.org/2000/svg">
<g clip-path="url(#clip0_21_40)">
<path d="M19.9801 40.9286C19.8164 40.9364 19.6531 40.9073 19.5025 40.8433C19.352 40.7794 19.2182 40.6824 19.1114 40.5597L14.0816 34.9493L12.8307 36.6136C12.7398 36.7319 12.6257 36.8309 12.495 36.9044C12.3643 36.978 12.2199 37.0246 12.0705 37.0414C11.9211 37.0582 11.7698 37.045 11.6257 37.0024C11.4816 36.9598 11.3478 36.8888 11.2323 36.7937L5.01239 31.5436C4.78891 31.357 4.64963 31.0904 4.62519 30.8025C4.61309 30.6599 4.62955 30.5163 4.67363 30.38C4.71771 30.2437 4.78854 30.1173 4.88208 30.008C4.97563 29.8988 5.09005 29.8087 5.21882 29.7431C5.34759 29.6775 5.48819 29.6376 5.63258 29.6257C5.9242 29.6015 6.21357 29.6928 6.43705 29.8794L11.8143 34.3831L13.1695 32.5988C13.272 32.4664 13.4032 32.3584 13.5535 32.2827C13.7039 32.2069 13.8695 32.1655 14.0382 32.1613C14.2016 32.1553 14.3643 32.1853 14.5146 32.2491C14.6648 32.3129 14.7988 32.4089 14.9069 32.5301L20.8488 39.1185C20.9455 39.2251 21.0198 39.3496 21.0673 39.4848C21.1149 39.62 21.1349 39.7632 21.126 39.906C21.1171 40.0489 21.0796 40.1886 21.0156 40.317C20.9516 40.4454 20.8624 40.56 20.7532 40.6541C20.649 40.748 20.5271 40.8206 20.3944 40.8677C20.2617 40.9148 20.1209 40.9355 19.9801 40.9286V40.9286Z" fill="#692300"/>
<path d="M10.1898 47.9202H10.0247L0.92944 46.5047C0.648799 46.4505 0.400777 46.2901 0.23843 46.0576C0.0760841 45.8251 0.0123066 45.5391 0.0607415 45.2608C0.105845 44.9838 0.257477 44.7346 0.484042 44.5652C0.710606 44.3958 0.994626 44.3192 1.27692 44.3515L8.68692 45.4667L8.07883 43.0647C8.02993 42.8819 8.03045 42.6896 8.08033 42.5071C8.13022 42.3245 8.22773 42.1581 8.36312 42.0244C8.49851 41.8906 8.66706 41.7944 8.85192 41.7451C9.03678 41.6958 9.2315 41.6953 9.41662 41.7436L18.9289 44.0941C19.2134 44.1647 19.4579 44.3439 19.6086 44.5925C19.7593 44.8411 19.8038 45.1386 19.7324 45.4195C19.661 45.7005 19.4795 45.942 19.2278 46.0908C18.9761 46.2396 18.6748 46.2836 18.3903 46.2131L10.6675 44.3L11.2322 46.5305C11.2758 46.7047 11.2748 46.8869 11.2293 47.0606C11.1838 47.2343 11.0953 47.3941 10.9716 47.5256C10.8763 47.6415 10.7575 47.7365 10.6229 47.8044C10.4882 47.8724 10.3407 47.9118 10.1898 47.9202V47.9202Z" fill="#692300"/>
<path d="M6.02011 63.9365C5.78618 63.9349 5.55883 63.8599 5.37089 63.7223C5.18295 63.5848 5.04415 63.3918 4.97454 63.1712C4.90493 62.9507 4.90811 62.714 4.98362 62.4953C5.05914 62.2767 5.20308 62.0874 5.39465 61.9548L11.0151 58.0859L9.46016 56.3702C9.35993 56.2522 9.28513 56.1153 9.24032 55.9677C9.19551 55.8202 9.18164 55.6653 9.19955 55.5123C9.22472 55.3552 9.28442 55.2054 9.37446 55.0735C9.46451 54.9416 9.58271 54.8308 9.72077 54.7488L17.374 50.1592C17.6251 50.0102 17.9259 49.9658 18.2102 50.0358C18.4945 50.1058 18.739 50.2844 18.8899 50.5324C19.0408 50.7804 19.0858 51.0774 19.0149 51.3582C18.944 51.6389 18.7631 51.8803 18.512 52.0294L12.0315 55.8812L13.5257 57.5969C13.6255 57.7151 13.7 57.8521 13.7448 57.9995C13.7896 58.1469 13.8037 58.3018 13.7863 58.4548C13.7687 58.607 13.7186 58.7538 13.6392 58.8854C13.5598 59.017 13.453 59.1305 13.3259 59.2183L6.65426 63.7392C6.46923 63.8694 6.24727 63.9384 6.02011 63.9365Z" fill="#692300"/>
<path d="M23.0988 109C22.9266 109 22.7548 108.983 22.5862 108.949C22.0725 108.815 21.6324 108.488 21.361 108.037C21.0896 107.586 21.0086 107.047 21.1355 106.538L30.2308 71.1082V68.5347C30.2371 68.2699 30.2961 68.009 30.4045 67.7668C30.5129 67.5245 30.6685 67.3058 30.8625 67.123C31.0565 66.9401 31.2851 66.7968 31.5351 66.7013C31.7852 66.6057 32.0519 66.5597 32.32 66.5659C32.5881 66.5721 32.8523 66.6303 33.0976 66.7374C33.3429 66.8444 33.5644 66.9981 33.7495 67.1897C33.9347 67.3813 34.0798 67.607 34.1766 67.8539C34.2733 68.1009 34.3199 68.3643 34.3137 68.629L34.2615 71.4342C34.2584 71.5847 34.238 71.7344 34.2007 71.8803L25.0447 107.499C24.9376 107.928 24.6875 108.31 24.3347 108.582C23.9818 108.854 23.5466 109.001 23.0988 109V109Z" fill="#692300"/>
<path d="M33.8792 109C33.5778 108.996 33.2811 108.925 33.0105 108.794C32.541 108.552 32.1866 108.138 32.0241 107.64C31.8615 107.143 31.9038 106.602 32.1418 106.135L38.9872 92.5033C42.4009 85.7566 42.9663 77.9485 40.5595 70.7908C40.4182 70.5367 40.3351 70.2551 40.3161 69.9658C40.297 69.6766 40.3424 69.3867 40.4492 69.1167C40.5559 68.8466 40.7213 68.603 40.9337 68.403C41.1462 68.2029 41.4005 68.0513 41.6787 67.9589C41.9569 67.8665 42.2522 67.8355 42.5439 67.868C42.8356 67.9006 43.1165 67.9959 43.3668 68.1473C43.6171 68.2988 43.8307 68.5026 43.9926 68.7444C44.1544 68.9862 44.2606 69.2602 44.3036 69.5469C47.045 77.6971 46.4014 86.5882 42.5141 94.2705L35.6166 107.893C35.4567 108.217 35.2103 108.491 34.9041 108.686C34.5979 108.881 34.2435 108.99 33.8792 109V109Z" fill="#692300"/>
<path d="M31.6033 30.0252C31.0777 30.0231 30.5738 29.8183 30.1989 29.4545C29.8241 29.0907 29.6079 28.5967 29.5966 28.0778L29.5358 24.166C29.5307 23.4026 29.4755 22.6404 29.3707 21.8841C28.5802 16.4195 31.7597 11.2637 36.7807 9.874H36.885L50.1153 6.99158H50.1934C51.6094 6.7428 54.0939 5.71337 54.841 1.63852C54.9354 1.12091 55.2342 0.661562 55.6717 0.36152C56.1091 0.0614784 56.6493 -0.0546776 57.1734 0.0386053C57.6976 0.131888 58.1627 0.426969 58.4666 0.858933C58.7704 1.2909 58.888 1.82436 58.7936 2.34197C57.9249 6.95727 55.0147 10.1485 50.9753 10.9206L37.7884 13.7258C34.7914 14.5837 32.8368 17.895 33.332 21.3179C33.4576 22.2336 33.5243 23.1562 33.5318 24.0802L33.6187 28.0178C33.6256 28.5419 33.4221 29.0474 33.0525 29.4236C32.6829 29.7999 32.1774 30.0162 31.6467 30.0252H31.6033Z" fill="#692300"/>
<path d="M44.5903 66.7503C39.6114 66.7435 34.8383 64.7872 31.3176 61.3105C27.7969 57.8337 25.816 53.1202 25.8091 48.2033C25.8091 42.3098 28.8495 36.7937 34.3658 32.6502C38.4921 29.5619 38.7093 23.9429 38.7093 23.8915C38.73 23.3659 38.9613 22.87 39.3523 22.5128C39.7433 22.1557 40.2619 21.9665 40.7941 21.987C41.3263 22.0075 41.8285 22.2359 42.1902 22.622C42.5518 23.0081 42.7434 23.5203 42.7226 24.0459C42.7226 24.3461 42.3665 31.5951 36.7547 35.8072C34.1486 37.7631 29.8051 41.9666 29.8051 48.2033C29.8051 52.0711 31.361 55.7805 34.1305 58.5155C36.9 61.2505 40.6563 62.7869 44.573 62.7869C46.6921 62.7715 48.7858 62.3308 50.7272 61.4917C52.6685 60.6526 54.4168 59.4326 55.866 57.9057C57.0872 56.6448 58.0273 55.1453 58.6258 53.5038C59.2242 51.8622 59.4678 50.115 59.3408 48.3749C59.2959 47.8482 59.4647 47.3254 59.8101 46.9216C60.1555 46.5178 60.6491 46.266 61.1825 46.2216C61.7158 46.1773 62.2452 46.3439 62.6541 46.685C63.063 47.0261 63.318 47.5136 63.3629 48.0403C63.5423 50.3253 63.2345 52.6221 62.4594 54.7824C61.6844 56.9427 60.4592 58.9185 58.8631 60.5822C57.044 62.5275 54.8367 64.0797 52.3803 65.1413C49.924 66.2028 47.2716 66.7506 44.5903 66.7503Z" fill="#692300"/>
<path d="M39.9949 52.7671C41.6693 52.7671 43.0266 51.4267 43.0266 49.7732C43.0266 48.1197 41.6693 46.7792 39.9949 46.7792C38.3205 46.7792 36.9631 48.1197 36.9631 49.7732C36.9631 51.4267 38.3205 52.7671 39.9949 52.7671Z" fill="#692300"/>
<path d="M110.021 109C109.574 108.998 109.14 108.85 108.788 108.578C108.435 108.306 108.185 107.927 108.075 107.499L98.9274 71.846C98.8859 71.7009 98.8655 71.5507 98.8666 71.3999L98.8145 68.629C98.8053 68.1034 99.0079 67.5958 99.3777 67.2177C99.7475 66.8396 100.254 66.6221 100.786 66.613C101.319 66.6039 101.833 66.804 102.216 67.1692C102.598 67.5344 102.819 68.0348 102.828 68.5604V71.134L111.932 106.564C112.061 107.074 111.98 107.615 111.706 108.067C111.433 108.518 110.989 108.845 110.472 108.974C110.323 108.997 110.172 109.005 110.021 109Z" fill="#692300"/>
<path d="M99.2748 109C98.8991 109 98.5309 108.897 98.2116 108.701C97.8923 108.506 97.6347 108.226 97.4679 107.893L90.6226 94.2705C86.7571 86.58 86.1324 77.6909 88.8852 69.5469C88.9679 69.2996 89.0991 69.0709 89.2714 68.8736C89.4436 68.6764 89.6535 68.5147 89.889 68.3976C90.1246 68.2805 90.3812 68.2103 90.6442 68.1912C90.9072 68.172 91.1714 68.2042 91.4218 68.2858C91.6722 68.3675 91.9039 68.4971 92.1036 68.6672C92.3032 68.8373 92.4671 69.0445 92.5856 69.2772C92.7042 69.5098 92.7752 69.7632 92.7946 70.0229C92.8141 70.2826 92.7815 70.5435 92.6988 70.7908C90.2893 77.9474 90.8516 85.7555 94.2624 92.5033L101.116 106.135C101.354 106.602 101.397 107.143 101.234 107.64C101.072 108.138 100.717 108.552 100.248 108.794C99.9457 108.941 99.6114 109.012 99.2748 109Z" fill="#692300"/>
<path d="M101.516 30.0252C101.253 30.0207 100.993 29.965 100.751 29.8613C100.509 29.7575 100.29 29.6078 100.107 29.4206C99.9241 29.2334 99.7802 29.0124 99.6835 28.7702C99.5869 28.528 99.5396 28.2694 99.5442 28.0092L99.6223 24.0716C99.6323 23.1474 99.7019 22.2247 99.8308 21.3093C100.326 17.8778 98.3714 14.5579 95.3744 13.7172L82.1876 10.8777C78.1134 10.1399 75.1772 6.94866 74.3693 2.34194C74.2737 1.82433 74.3902 1.29042 74.6932 0.85765C74.9962 0.424881 75.4609 0.12871 75.9851 0.0342893C76.5092 -0.0601312 77.0499 0.0549338 77.4881 0.354171C77.9263 0.653409 78.2263 1.11231 78.3219 1.62991C79.069 5.70476 81.5534 6.73419 82.9694 6.98297H83.0476L96.2952 9.86539H96.3995C101.412 11.2294 104.6 16.3851 103.801 21.8755C103.704 22.6325 103.652 23.3944 103.644 24.1574L103.558 28.095C103.544 28.6176 103.322 29.1136 102.939 29.4752C102.557 29.8367 102.045 30.0344 101.516 30.0252V30.0252Z" fill="#692300"/>
<path d="M88.5378 66.7503C85.8565 66.7507 83.2042 66.2028 80.7478 65.1413C78.2914 64.0797 76.0842 62.5275 74.2651 60.5822C72.6689 58.9185 71.4438 56.9427 70.6687 54.7824C69.8936 52.6221 69.5859 50.3253 69.7652 48.0403C69.809 47.5159 70.062 47.0301 70.4684 46.6898C70.6697 46.5213 70.9026 46.3937 71.1538 46.3141C71.405 46.2345 71.6697 46.2045 71.9326 46.2259C72.1956 46.2473 72.4517 46.3197 72.6863 46.4388C72.921 46.558 73.1296 46.7216 73.3002 46.9203C73.4708 47.1191 73.6001 47.3491 73.6807 47.5972C73.7613 47.8453 73.7916 48.1066 73.7699 48.3663C73.6391 50.1068 73.8809 51.855 74.4796 53.4971C75.0783 55.1392 76.0205 56.6384 77.2447 57.8971C78.6939 59.424 80.4423 60.644 82.3836 61.4831C84.3249 62.3222 86.4187 62.7629 88.5378 62.7784C92.4545 62.7784 96.2108 61.2419 98.9803 58.5069C101.75 55.772 103.306 52.0625 103.306 48.1947C103.306 41.9581 98.9622 37.7545 96.3561 35.7986C90.7096 31.5951 90.3447 24.3461 90.3447 24.0202C90.324 23.4946 90.5155 22.9824 90.8772 22.5963C91.2388 22.2102 91.741 21.9818 92.2732 21.9613C92.8054 21.9408 93.3241 22.1299 93.7151 22.4871C94.1061 22.8443 94.3374 23.3402 94.3581 23.8657C94.3581 23.9172 94.6708 29.5619 98.745 32.6245C104.27 36.768 107.31 42.284 107.31 48.1776C107.31 53.0974 105.334 57.8163 101.814 61.2983C98.2946 64.7804 93.5198 66.7412 88.5378 66.7503Z" fill="#692300"/>
<path d="M93.1331 52.7671C94.8075 52.7671 96.1648 51.4267 96.1648 49.7732C96.1648 48.1197 94.8075 46.7792 93.1331 46.7792C91.4587 46.7792 90.1013 48.1197 90.1013 49.7732C90.1013 51.4267 91.4587 52.7671 93.1331 52.7671Z" fill="#692300"/>
</g>
<defs>
<clipPath id="clip0_21_40">
<rect width="112.036" height="109" fill="white"/>
</clipPath>
</defs>
</svg>
