<svg width="87" height="74" viewBox="0 0 87 74" fill="none" xmlns="http://www.w3.org/2000/svg">
<g clip-path="url(#clip0_57_28)">
<path d="M43.4804 21.608C43.2827 21.6069 43.0867 21.6445 42.9038 21.7185C42.7209 21.7925 42.5545 21.9015 42.4144 22.0392C42.2742 22.1769 42.163 22.3406 42.0871 22.5208C42.0112 22.7011 41.9722 22.8944 41.9722 23.0896V49.5131C41.9722 49.9081 42.1311 50.2869 42.4139 50.5663C42.6968 50.8456 43.0804 51.0025 43.4804 51.0025C43.8804 51.0025 44.264 50.8456 44.5469 50.5663C44.8297 50.2869 44.9886 49.9081 44.9886 49.5131V23.0588C44.9784 22.6705 44.815 22.3015 44.5333 22.0305C44.2515 21.7594 43.8737 21.6078 43.4804 21.608Z" fill="#FEFAEF"/>
<path d="M43.4804 53.4334C43.2821 53.4324 43.0855 53.4702 42.902 53.5447C42.7186 53.6192 42.5519 53.7289 42.4116 53.8674C42.2714 54.0059 42.1603 54.1705 42.0849 54.3516C42.0095 54.5328 41.9712 54.7269 41.9722 54.9228V58.7274C41.9722 59.1224 42.1311 59.5012 42.4139 59.7805C42.6968 60.0598 43.0804 60.2168 43.4804 60.2168C43.8804 60.2168 44.264 60.0598 44.5469 59.7805C44.8297 59.5012 44.9886 59.1224 44.9886 58.7274V54.9228C44.9886 54.7272 44.9496 54.5335 44.8738 54.3528C44.798 54.1721 44.6869 54.0079 44.5469 53.8696C44.4068 53.7313 44.2406 53.6216 44.0576 53.5468C43.8746 53.4719 43.6785 53.4334 43.4804 53.4334Z" fill="#FEFAEF"/>
<path d="M49.2319 18.7835H49.3179L51.8029 18.4285H51.8889L54.3349 17.9346C54.5283 17.8956 54.7121 17.8193 54.8757 17.7102C55.0393 17.601 55.1795 17.4611 55.2883 17.2985C55.3972 17.1358 55.4725 16.9535 55.5101 16.7621C55.5476 16.5707 55.5466 16.3739 55.5071 16.1828C55.4675 15.9918 55.3903 15.8103 55.2798 15.6488C55.1693 15.4872 55.0276 15.3487 54.8629 15.2412C54.6981 15.1337 54.5136 15.0593 54.3198 15.0223C54.1259 14.9852 53.9266 14.9862 53.7331 15.0253L51.3262 15.5114L48.9272 15.851L46.5281 16.0593L44.129 16.1288L41.6986 16.0593L39.2996 15.851L36.9552 15.5114L34.5483 15.0253C34.3548 14.9857 34.1554 14.9842 33.9614 15.0208C33.7673 15.0574 33.5825 15.1314 33.4174 15.2385C33.084 15.4549 32.8513 15.7932 32.7705 16.179C32.6896 16.5648 32.7673 16.9665 32.9864 17.2957C33.2055 17.625 33.5481 17.8548 33.9387 17.9346L36.3925 18.4285H36.4785L38.9245 18.7835H39.0104L41.4955 18.9919H41.5814L44.1055 19.0613H44.1915L46.6766 18.9919H46.7625L49.2319 18.7835Z" fill="#FEFAEF"/>
<path d="M82.1813 27.9563C84.2671 24.3666 85.042 20.172 84.375 16.0808C83.7081 11.9895 81.6402 8.25203 78.5204 5.49941V5.49941C77.7647 4.8312 76.8834 4.3178 75.9274 3.98867C74.9713 3.65953 73.9592 3.52114 72.9492 3.58144C71.9391 3.64174 70.951 3.89954 70.0415 4.34005C69.1321 4.78056 68.3191 5.3951 67.6494 6.14841C66.3153 7.64983 64.6186 8.78938 62.7187 9.45979V9.45979C61.9161 9.74162 61.0345 9.70194 60.2609 9.34916C54.9587 6.82786 49.1571 5.51269 43.2785 5.49941V5.49941C37.4016 5.50578 31.6001 6.81338 26.2961 9.32704V9.32704C25.5254 9.68706 24.6438 9.73468 23.8383 9.45979V9.45979C21.9375 8.79084 20.2385 7.65407 18.9002 6.15579V6.15579C18.2309 5.40261 17.4187 4.78778 16.5101 4.34641C15.6015 3.90505 14.6142 3.6458 13.6047 3.58348C12.5952 3.52116 11.5832 3.65698 10.6265 3.98319C9.66982 4.3094 8.78724 4.81961 8.02915 5.48466V5.48466C4.90456 8.23472 2.83538 11.9747 2.17341 16.0687C1.51143 20.1627 2.29752 24.3581 4.39803 27.9415V27.9415L4.47971 28.0669V28.1112C4.79176 28.5254 5.1962 28.8621 5.6613 29.095C6.1264 29.3279 6.6395 29.4506 7.16036 29.4534V29.4534C7.72268 29.454 8.27547 29.3091 8.76429 29.033C9.42797 30.2712 10.3977 31.3215 11.5823 32.0852C12.7669 32.8489 14.1276 33.301 15.5364 33.399C15.7516 33.4101 15.9673 33.4101 16.1825 33.399C17.7165 33.406 19.2224 32.9906 20.5332 32.1991C21.844 31.4076 22.9083 30.2709 23.6081 28.915C24.0398 28.9884 24.477 29.0254 24.915 29.0257C25.5864 29.0268 26.2552 28.9425 26.905 28.7749C28.1348 31.4351 29.6751 33.9426 31.4941 36.2458V36.2458C32.1756 37.1188 32.5921 38.1669 32.6947 39.2668C32.7973 40.3668 32.5817 41.473 32.0733 42.4555C30.0981 46.2758 29.8456 51.0031 31.3901 55.7674L36.692 72.8258V72.8848V72.9733V73.0396L36.7366 73.1281C36.7366 73.1281 36.7366 73.1281 36.7366 73.1871L36.8034 73.283V73.3199L36.9073 73.4526C36.9382 73.4906 36.973 73.5252 37.0113 73.5559V73.5928L37.1153 73.6739L37.1895 73.7255H37.2415H37.3083H37.3752H37.4197L37.5088 73.7698L37.6128 73.814H37.7464H37.8727C37.9691 73.8213 38.0659 73.8213 38.1623 73.814H38.3479H38.5335H38.6672H38.7489C38.7853 73.8038 38.8203 73.7889 38.8528 73.7698C38.8774 73.7737 38.9025 73.7737 38.9271 73.7698C38.9638 73.7571 38.9988 73.7397 39.0311 73.7181L39.0979 73.6739C39.1354 73.6536 39.1703 73.6288 39.2019 73.6001L39.2538 73.5633C39.3571 73.4768 39.4516 73.3804 39.536 73.2756V73.2756C39.9183 72.7674 40.4148 72.3548 40.9858 72.0706C41.5569 71.7864 42.1868 71.6384 42.8255 71.6384C43.4643 71.6384 44.0942 71.7864 44.6653 72.0706C45.2363 72.3548 45.7328 72.7674 46.1151 73.2756V73.2756C46.1358 73.3061 46.1608 73.3334 46.1894 73.3568L46.2339 73.4084C46.2592 73.4372 46.2865 73.4643 46.3156 73.4895L46.3676 73.5338L46.4418 73.5928L46.5086 73.6444L46.5829 73.6886L46.6646 73.7403H46.724L46.828 73.7919H46.8874L46.9987 73.8288H47.1101C47.162 73.8323 47.2141 73.8323 47.2661 73.8288H47.6373H47.8007H47.9566H48.016H48.1052H48.1794H48.2611H48.3279L48.469 73.7476L48.5952 73.6591L48.6918 73.578V73.5411L48.7883 73.4379L48.8848 73.3051V73.2683C48.9089 73.2365 48.9289 73.2018 48.9443 73.165C48.9467 73.1479 48.9467 73.1305 48.9443 73.1134C48.9643 73.0855 48.9817 73.0559 48.9962 73.0249V72.9585C48.9992 72.9291 48.9992 72.8994 48.9962 72.87V72.8036L54.2684 55.7526C55.8575 50.9958 55.6347 46.2536 53.6447 42.4039C53.129 41.4315 52.9086 40.3313 53.0101 39.237C53.1116 38.1426 53.5306 37.1009 54.2164 36.2384V36.2384C56.0387 33.9322 57.5791 31.4194 58.8055 28.7528C59.4385 28.9148 60.0898 28.9966 60.7435 28.9962C61.4382 29.0902 62.1423 29.0927 62.8376 29.0035C63.5393 30.3589 64.6036 31.4959 65.9137 32.2896C67.2237 33.0832 68.7287 33.5028 70.2632 33.5023C70.4784 33.5131 70.694 33.5131 70.9092 33.5023C72.3219 33.4011 73.6855 32.9446 74.8715 32.1756C76.0576 31.4067 77.0271 30.3506 77.6888 29.1068C78.1903 29.3781 78.7514 29.5225 79.3224 29.5272C79.8412 29.5229 80.352 29.4003 80.8155 29.1689C81.279 28.9374 81.6828 28.6033 81.9956 28.1923V28.148V28.1112L82.0699 27.9858L82.1813 27.9563ZM15.8929 29.8517C15.0229 29.7876 14.188 29.4847 13.4813 28.9768C12.7746 28.469 12.2238 27.776 11.8905 26.9754C12.5978 26.8081 13.2595 26.4883 13.8286 26.0388C14.2475 25.701 14.5783 25.268 14.7928 24.7763C15.0074 24.2846 15.0995 23.7487 15.0612 23.2142C15.0612 23.133 15.0612 23.0519 15.0612 22.9708C15.2073 22.9938 15.3513 23.0284 15.4919 23.074V23.074C15.6444 23.1221 15.7773 23.2178 15.8706 23.3469V23.3469C17.0464 25.0657 18.5623 26.5286 20.326 27.6465C19.8739 28.394 19.217 28.9983 18.432 29.3887C17.647 29.7792 16.7663 29.9398 15.8929 29.8517V29.8517ZM24.2838 25.4267C22.3457 24.9473 20.3631 23.4723 18.826 21.2598C18.2775 20.4927 17.4972 19.9192 16.5983 19.6225V19.6225C15.2396 19.1818 13.7723 19.2 12.4251 19.6742C12.119 19.2574 11.9248 18.7701 11.8608 18.2582C11.803 17.7804 11.8552 17.2959 12.0134 16.8411C12.1716 16.3863 12.4317 15.9731 12.7741 15.6327V15.6327C13.0815 15.3418 13.484 15.1706 13.9081 15.1502C14.3321 15.1299 14.7494 15.2619 15.0835 15.522V15.522C16.9833 16.9166 18.9978 18.1501 21.1056 19.2095C21.4398 19.3792 21.7814 19.534 22.1081 19.6889L22.6427 19.947H22.6799H22.717C23.1786 20.138 23.5889 20.4335 23.9151 20.81C24.2413 21.1864 24.4744 21.6334 24.5957 22.1153V22.1153C24.8704 23.2068 25.1897 24.3278 25.5684 25.3677C25.1462 25.4561 24.7124 25.476 24.2838 25.4267V25.4267ZM43.2785 68.2016C41.9454 68.2054 40.6359 68.5509 39.4766 69.2046L35.0212 54.7644C33.7737 50.9146 33.9297 47.1681 35.4593 44.2108C36.2808 42.6081 36.6243 40.8058 36.4494 39.0158C36.2744 37.2259 35.5883 35.5228 34.4717 34.107V34.107C31.496 30.334 29.3576 25.9783 28.1971 21.3262V21.3262C27.9453 20.3128 27.4621 19.3706 26.7848 18.5726C26.1074 17.7745 25.2542 17.1421 24.2912 16.7242L23.7269 16.4587L22.7913 16.0088C20.8619 15.0241 19.0166 13.8846 17.274 12.6015V12.6015C16.2393 11.8215 14.9567 11.437 13.6603 11.5182C12.3639 11.5995 11.1401 12.141 10.2123 13.044V13.044C9.51417 13.7305 8.97387 14.5588 8.62848 15.4722C8.28309 16.3856 8.14078 17.3624 8.21133 18.3356C8.28187 19.3088 8.56359 20.2552 9.03716 21.1101C9.51073 21.9649 10.1649 22.7079 10.9548 23.2879L11.0811 23.3764L11.1405 23.4207C11.0859 23.4432 11.0284 23.4581 10.9697 23.4649L10.5613 23.5313C9.99317 23.6273 9.44724 23.8247 8.94993 24.1139C8.82825 24.1721 8.71365 24.2438 8.60835 24.3278C8.1466 24.6373 7.74005 25.0212 7.4054 25.4635V25.4635L7.27917 25.611C5.77675 22.7739 5.27344 19.519 5.8494 16.3648C6.42535 13.2106 8.04745 10.3385 10.4573 8.20604C10.8542 7.85638 11.3165 7.58779 11.8179 7.41561C12.3193 7.24342 12.8499 7.17101 13.3795 7.20252C13.9091 7.23402 14.4272 7.36882 14.9043 7.59921C15.3814 7.8296 15.8082 8.15108 16.1602 8.54529V8.54529C17.9088 10.5044 20.1289 11.9913 22.613 12.867V12.867C23.3517 13.129 24.1306 13.2613 24.915 13.2579C25.9171 13.2607 26.9079 13.0467 27.8184 12.631C32.6282 10.3246 37.9003 9.12671 43.2414 9.12671C48.5825 9.12671 53.8546 10.3246 58.6644 12.631V12.631C59.5773 13.0473 60.5706 13.2613 61.5752 13.2579C62.3572 13.2619 63.1338 13.1297 63.8697 12.867V12.867C66.3558 11.9945 68.5785 10.5101 70.33 8.55266C70.6799 8.15636 71.1056 7.83299 71.5823 7.60132C72.0591 7.36964 72.5774 7.23427 73.1072 7.20304C74.1759 7.14557 75.2243 7.50858 76.0254 8.21341V8.21341C78.4429 10.3454 80.0711 13.2207 80.6499 16.3797C81.2287 19.5388 80.7247 22.7994 79.2184 25.6405L79.1368 25.5299C78.802 25.0659 78.3902 24.6619 77.919 24.3352C77.8151 24.2529 77.7032 24.1812 77.5848 24.1213C77.0869 23.8333 76.5412 23.6359 75.9735 23.5387V23.5387L75.6245 23.4723H75.4759C76.2948 22.9012 76.9776 22.1587 77.476 21.297C77.9745 20.4354 78.2765 19.4756 78.3607 18.4854C78.445 17.4951 78.3095 16.4986 77.9637 15.5661C77.6179 14.6335 77.0704 13.7877 76.3596 13.0883V13.0883C75.4318 12.1853 74.208 11.6437 72.9116 11.5625C71.6151 11.4813 70.3325 11.8657 69.2978 12.6458V12.6458L69.1122 12.7785C68.6741 13.0957 68.2657 13.3907 67.8424 13.6783C66.0713 14.8447 64.2147 15.8776 62.2881 16.7684V16.7684C61.3338 17.1895 60.4873 17.8185 59.8111 18.6087C59.135 19.399 58.6466 20.3303 58.3822 21.3335V21.3335C57.247 25.9877 55.12 30.346 52.1447 34.1144C51.0366 35.5293 50.3585 37.2292 50.1902 39.0139C50.0218 40.7986 50.3701 42.5939 51.1942 44.1887C52.7387 47.1386 52.8798 50.922 51.5878 54.757V54.8013L47.0804 69.1973C45.9164 68.5595 44.6079 68.227 43.2785 68.2311V68.2016ZM61.9019 22.2038C62.0252 21.7142 62.261 21.2597 62.5908 20.8758C62.9207 20.492 63.3355 20.1892 63.8029 19.9913V19.9913C65.9003 19.0207 67.9209 17.894 69.8473 16.6209C70.3003 16.3112 70.7458 15.9867 71.1765 15.6769L71.3622 15.5442C71.6951 15.2846 72.1111 15.1529 72.5339 15.1732C72.9567 15.1935 73.3579 15.3645 73.6641 15.6548C74.029 15.9778 74.314 16.3801 74.4969 16.8303C74.6798 17.2806 74.7556 17.7667 74.7185 18.2508C74.6579 18.7634 74.469 19.2527 74.169 19.6742C72.8207 19.1942 71.3499 19.1735 69.9884 19.6152V19.6152C69.0837 19.9007 68.3002 20.4766 67.7607 21.2524C66.6617 22.8085 64.7905 24.785 62.2881 25.3972C61.8427 25.4831 61.3861 25.4956 60.9366 25.434C61.3079 24.3794 61.6272 23.3027 61.9019 22.2038ZM70.6641 29.8517C69.7994 29.9203 68.9325 29.7499 68.1592 29.3594C67.386 28.9689 66.7366 28.3735 66.283 27.6392C68.053 26.5261 69.5703 25.0593 70.7384 23.3322V23.3322C70.822 23.2091 70.9411 23.114 71.08 23.0593V23.0593C71.2334 23.0144 71.3897 22.9799 71.5478 22.956C71.5478 23.0372 71.5478 23.1183 71.5478 23.1994C71.5108 23.7349 71.6034 24.2714 71.8178 24.7641C72.0323 25.2568 72.3623 25.6913 72.7804 26.0314V26.0314C73.3288 26.4783 73.9706 26.7983 74.6591 26.968C74.3282 27.7695 73.7792 28.4637 73.0737 28.9729C72.3681 29.4822 71.5339 29.7864 70.6641 29.8517V29.8517Z" fill="#FEFAEF"/>
</g>
<defs>
<clipPath id="clip0_57_28">
<rect width="87" height="73.9301" rx="22" fill="white"/>
</clipPath>
</defs>
</svg>
