<svg width="97" height="83" viewBox="0 0 97 83" fill="none" xmlns="http://www.w3.org/2000/svg">
<g clip-path="url(#clip0_21_28)">
<path d="M48.2928 23.9995C48.0732 23.9983 47.8556 24.0401 47.6524 24.1223C47.4492 24.2044 47.2645 24.3255 47.1088 24.4784C46.9532 24.6313 46.8296 24.8131 46.7454 25.0134C46.6611 25.2136 46.6177 25.4283 46.6177 25.6451V54.993C46.6177 55.4318 46.7942 55.8525 47.1083 56.1628C47.4225 56.473 47.8485 56.6473 48.2928 56.6473C48.7371 56.6473 49.1632 56.473 49.4773 56.1628C49.7915 55.8525 49.968 55.4318 49.968 54.993V25.6108C49.9566 25.1796 49.7752 24.7697 49.4622 24.4687C49.1493 24.1677 48.7297 23.9993 48.2928 23.9995Z" fill="#FEFAEF"/>
<path d="M48.2928 59.3472C48.0725 59.3461 47.8542 59.3881 47.6504 59.4708C47.4467 59.5536 47.2616 59.6754 47.1058 59.8292C46.95 59.983 46.8266 60.1658 46.7429 60.3671C46.6591 60.5683 46.6165 60.7839 46.6177 61.0015V65.2271C46.6177 65.6658 46.7942 66.0866 47.1083 66.3968C47.4225 66.707 47.8486 66.8813 48.2928 66.8813C48.7371 66.8813 49.1632 66.707 49.4773 66.3968C49.7915 66.0866 49.968 65.6658 49.968 65.2271V61.0015C49.968 60.7842 49.9247 60.5691 49.8405 60.3684C49.7563 60.1677 49.6329 59.9853 49.4773 59.8317C49.3218 59.6781 49.1371 59.5563 48.9339 59.4731C48.7307 59.39 48.5128 59.3472 48.2928 59.3472Z" fill="#FEFAEF"/>
<path d="M54.6808 20.8624H54.7763L57.5364 20.4681H57.6318L60.3485 19.9195C60.5634 19.8762 60.7675 19.7915 60.9492 19.6703C61.1309 19.549 61.2866 19.3937 61.4075 19.213C61.5284 19.0323 61.6121 18.8299 61.6538 18.6173C61.6955 18.4047 61.6943 18.186 61.6504 17.9739C61.6066 17.7617 61.5208 17.5601 61.398 17.3807C61.2753 17.2013 61.1179 17.0475 60.935 16.9281C60.752 16.8087 60.547 16.726 60.3317 16.6849C60.1164 16.6437 59.8951 16.6449 59.6802 16.6882L57.0069 17.2282L54.3423 17.6053L51.6777 17.8367L49.0131 17.9139L46.3138 17.8367L43.6492 17.6053L41.0453 17.2282L38.372 16.6882C38.1572 16.6443 37.9357 16.6426 37.7202 16.6833C37.5047 16.7239 37.2994 16.806 37.116 16.925C36.7457 17.1653 36.4872 17.5411 36.3975 17.9696C36.3077 18.3981 36.3939 18.8443 36.6373 19.2099C36.8806 19.5756 37.2611 19.8309 37.695 19.9195L40.4204 20.4681H40.5159L43.2326 20.8624H43.328L46.0881 21.0938H46.1836L48.9871 21.1709H49.0825L51.8426 21.0938H51.9381L54.6808 20.8624Z" fill="#FEFAEF"/>
<path d="M93.7818 28.3543C96.2198 24.1824 97.1255 19.3075 96.3459 14.5526C95.5664 9.79768 93.1493 5.45404 89.5028 2.25494V2.25494C88.6193 1.47835 87.5893 0.881671 86.4718 0.499149C85.3543 0.116627 84.1713 -0.0442085 82.9907 0.0258713C81.8101 0.0959512 80.6552 0.395567 79.5921 0.907526C78.5291 1.41948 77.5788 2.13371 76.796 3.00921C75.2367 4.75415 73.2534 6.07854 71.0328 6.85769V6.85769C70.0946 7.18524 69.0642 7.13912 68.1599 6.72912C61.9624 3.79887 55.1811 2.27038 48.3099 2.25494V2.25494C41.4406 2.26235 34.6595 3.78203 28.4599 6.70341V6.70341C27.559 7.12183 26.5285 7.17717 25.587 6.85769V6.85769C23.3652 6.08024 21.3793 4.75909 19.8151 3.01778V3.01778C19.0327 2.14244 18.0834 1.42788 17.0214 0.914924C15.9593 0.40197 14.8053 0.100672 13.6253 0.0282399C12.4453 -0.0441921 11.2624 0.113662 10.1442 0.492784C9.02602 0.871907 7.99441 1.46487 7.10831 2.2378V2.2378C3.4561 5.43392 1.03752 9.78051 0.263767 14.5386C-0.509989 19.2967 0.408839 24.1725 2.86404 28.3372V28.3372L2.95951 28.4829V28.5343C3.32425 29.0157 3.79699 29.4071 4.34062 29.6777C4.88426 29.9484 5.484 30.091 6.09281 30.0943V30.0943C6.75009 30.095 7.39623 29.9266 7.96758 29.6057C8.74334 31.0447 9.87678 32.2654 11.2614 33.153C12.6461 34.0406 14.2365 34.566 15.8833 34.6799C16.1348 34.6927 16.3869 34.6927 16.6384 34.6799C18.4314 34.688 20.1917 34.2053 21.7238 33.2854C23.2559 32.3655 24.5 31.0443 25.3179 29.4686C25.8225 29.5539 26.3335 29.5969 26.8455 29.5972C27.6303 29.5985 28.412 29.5006 29.1716 29.3057C30.609 32.3974 32.4094 35.3116 34.5355 37.9884V37.9884C35.3321 39.003 35.819 40.2211 35.9389 41.4995C36.0588 42.7779 35.8068 44.0635 35.2125 45.2054C32.9038 49.6453 32.6087 55.1394 34.414 60.6764L40.6112 80.5017V80.5703V80.6731V80.7503L40.6632 80.8531C40.6632 80.8531 40.6632 80.8531 40.6632 80.9217L40.7414 81.0331V81.076L40.8629 81.2303C40.8989 81.2744 40.9397 81.3146 40.9844 81.3503V81.3931L41.1059 81.4874L41.1927 81.5474H41.2534H41.3316H41.4097H41.4618L41.5659 81.5988L41.6874 81.6502H41.8437H41.9912C42.1039 81.6587 42.217 81.6587 42.3297 81.6502H42.5467H42.7637H42.9199H43.0154C43.058 81.6384 43.0988 81.6211 43.1369 81.5988C43.1656 81.6035 43.1949 81.6035 43.2237 81.5988C43.2666 81.5841 43.3075 81.5639 43.3452 81.5388L43.4233 81.4874C43.4672 81.4638 43.508 81.435 43.5448 81.4017L43.6056 81.3588C43.7263 81.2583 43.8368 81.1463 43.9354 81.0245V81.0245C44.3823 80.4339 44.9625 79.9544 45.63 79.624C46.2975 79.2937 47.0338 79.1217 47.7804 79.1217C48.527 79.1217 49.2633 79.2937 49.9308 79.624C50.5983 79.9544 51.1786 80.4339 51.6254 81.0245V81.0245C51.6497 81.0599 51.6789 81.0917 51.7122 81.1188L51.7643 81.1788C51.7939 81.2124 51.8258 81.2439 51.8598 81.2731L51.9205 81.3245L52.0073 81.3931L52.0855 81.4531L52.1723 81.5045L52.2677 81.5645H52.3372L52.4587 81.6245H52.5281L52.6583 81.6674H52.7885C52.8492 81.6715 52.9101 81.6715 52.9708 81.6674H53.4047H53.5957H53.778H53.8474H53.9515H54.0383H54.1338H54.2119L54.3768 81.5731L54.5244 81.4703L54.6372 81.376V81.3331L54.7501 81.2131L54.8629 81.0588V81.016C54.8911 80.979 54.9144 80.9387 54.9323 80.896C54.9352 80.8761 54.9352 80.8559 54.9323 80.836C54.9558 80.8036 54.9761 80.7692 54.9931 80.7331V80.656C54.9965 80.6218 54.9965 80.5873 54.9931 80.5531V80.476L61.1555 60.6593C63.0129 55.1309 62.7526 49.6196 60.4265 45.1454C59.8238 44.0152 59.5661 42.7367 59.6847 41.4647C59.8034 40.1928 60.2932 38.9823 61.0948 37.9798V37.9798C63.2248 35.2995 65.0253 32.3792 66.4587 29.28C67.1987 29.4684 67.9599 29.5634 68.724 29.5629C69.536 29.6722 70.359 29.675 71.1717 29.5715C71.9919 31.1467 73.236 32.4681 74.7672 33.3905C76.2984 34.3129 78.0575 34.8005 79.8512 34.7999C80.1027 34.8125 80.3547 34.8125 80.6063 34.7999C82.2576 34.6824 83.8514 34.1518 85.2377 33.2581C86.624 32.3644 87.7572 31.137 88.5307 29.6915C89.1168 30.0068 89.7727 30.1746 90.4401 30.18C91.0465 30.1751 91.6436 30.0326 92.1854 29.7636C92.7272 29.4946 93.1991 29.1063 93.5648 28.6286V28.5772V28.5343L93.6516 28.3886L93.7818 28.3543ZM16.2999 30.5571C15.2831 30.4827 14.3072 30.1307 13.4811 29.5404C12.655 28.9502 12.0113 28.1449 11.6216 27.2144C12.4484 27.0199 13.2218 26.6482 13.887 26.1258C14.3767 25.7333 14.7633 25.23 15.0141 24.6585C15.2649 24.087 15.3725 23.4643 15.3278 22.843C15.3278 22.7488 15.3278 22.6545 15.3278 22.5602C15.4985 22.587 15.6669 22.6271 15.8312 22.6802V22.6802C16.0095 22.736 16.1648 22.8473 16.2739 22.9973V22.9973C17.6482 24.9949 19.4201 26.6951 21.4816 27.9943C20.9531 28.863 20.1853 29.5653 19.2677 30.0191C18.3502 30.4729 17.3208 30.6595 16.2999 30.5571V30.5571ZM26.1077 25.4144C23.8424 24.8573 21.525 23.143 19.7283 20.5717C19.0872 19.6802 18.1752 19.0136 17.1244 18.6688V18.6688C15.5363 18.1567 13.8213 18.1777 12.2466 18.7288C11.8888 18.2445 11.6618 17.6781 11.5869 17.0832C11.5194 16.5279 11.5804 15.9648 11.7653 15.4362C11.9503 14.9077 12.2543 14.4275 12.6545 14.0318V14.0318C13.0138 13.6938 13.4843 13.4948 13.9799 13.4712C14.4756 13.4475 14.9633 13.6009 15.3538 13.9032V13.9032C17.5744 15.524 19.9291 16.9576 22.3929 18.1889C22.7835 18.386 23.1827 18.566 23.5646 18.746L24.1896 19.046H24.233H24.2764C24.8159 19.2679 25.2955 19.6114 25.6768 20.0489C26.0581 20.4864 26.3305 21.0059 26.4723 21.5659V21.5659C26.7934 22.8345 27.1666 24.1373 27.6093 25.3458C27.1158 25.4486 26.6087 25.4718 26.1077 25.4144V25.4144ZM48.3099 75.1275C46.7517 75.1319 45.221 75.5335 43.866 76.2932L38.6583 59.5108C37.2001 55.0366 37.3824 50.6824 39.1704 47.2453C40.1306 45.3827 40.5321 43.2881 40.3275 41.2078C40.123 39.1275 39.3211 37.1482 38.016 35.5027V35.5027C34.5377 31.1177 32.0383 26.0555 30.6818 20.6488V20.6488C30.3876 19.4711 29.8227 18.3761 29.031 17.4486C28.2393 16.5211 27.242 15.786 26.1164 15.3004L25.4568 14.9918L24.3631 14.4689C22.1079 13.3246 19.9511 12.0002 17.9143 10.509V10.509C16.7049 9.60248 15.2057 9.15562 13.6903 9.25004C12.175 9.34445 10.7445 9.97383 9.66008 11.0233V11.0233C8.84409 11.8211 8.21256 12.7838 7.80884 13.8454C7.40513 14.9069 7.23879 16.0422 7.32125 17.1732C7.4037 18.3042 7.733 19.4042 8.28653 20.3977C8.84006 21.3912 9.60473 22.2546 10.528 22.9287L10.6756 23.0316L10.745 23.083C10.6812 23.1092 10.614 23.1265 10.5454 23.1345L10.068 23.2116C9.40397 23.3232 8.76586 23.5526 8.18457 23.8887C8.04234 23.9563 7.90839 24.0397 7.78531 24.1373C7.24559 24.4971 6.77039 24.9432 6.37923 25.4573V25.4573L6.23168 25.6287C4.47557 22.3313 3.88727 18.5485 4.56048 14.8827C5.23369 11.2169 7.1297 7.87897 9.9465 5.40058C10.4104 4.99421 10.9508 4.68206 11.5368 4.48194C12.1229 4.28183 12.7431 4.19768 13.3621 4.23429C13.9811 4.2709 14.5867 4.42756 15.1444 4.69533C15.7021 4.96309 16.2009 5.33671 16.6124 5.79486V5.79486C18.6562 8.07174 21.2512 9.79981 24.1548 10.8176V10.8176C25.0182 11.1221 25.9287 11.2758 26.8455 11.2719C28.0168 11.2751 29.1749 11.0265 30.2392 10.5433C35.8611 7.86279 42.0235 6.47059 48.2665 6.47059C54.5094 6.47059 60.6718 7.86279 66.2938 10.5433V10.5433C67.3609 11.0272 68.5219 11.2758 69.6962 11.2719C70.6102 11.2766 71.5179 11.1228 72.3781 10.8176V10.8176C75.284 9.80353 77.882 8.07838 79.9293 5.80343C80.3383 5.34284 80.8359 4.96703 81.3931 4.69777C81.9503 4.42852 82.5561 4.27119 83.1754 4.2349C84.4246 4.16811 85.65 4.58999 86.5864 5.40916V5.40916C89.4121 7.88697 91.3153 11.2286 91.9918 14.9C92.6684 18.5715 92.0793 22.361 90.3186 25.663L90.2232 25.5344C89.8319 24.9951 89.3505 24.5256 88.7997 24.1459C88.6783 24.0502 88.5475 23.967 88.4091 23.8973C87.8272 23.5625 87.1894 23.3332 86.5257 23.2202V23.2202L86.1178 23.143H85.9442C86.9013 22.4794 87.6994 21.6164 88.282 20.615C88.8646 19.6135 89.2176 18.498 89.3161 17.3472C89.4146 16.1964 89.2562 15.0382 88.852 13.9544C88.4479 12.8706 87.8078 11.8876 86.977 11.0747V11.0747C85.8926 10.0253 84.4621 9.39588 82.9468 9.30146C81.4314 9.20705 79.9322 9.6539 78.7228 10.5605V10.5605L78.5058 10.7147C77.9937 11.0833 77.5164 11.4262 77.0216 11.7604C74.9515 13.1161 72.7813 14.3165 70.5294 15.3518V15.3518C69.414 15.8412 68.4245 16.5722 67.6342 17.4906C66.8439 18.4091 66.273 19.4914 65.964 20.6574V20.6574C64.6371 26.0665 62.1509 31.1317 58.6732 35.5113C57.378 37.1558 56.5854 39.1313 56.3886 41.2055C56.1918 43.2796 56.599 45.3662 57.5622 47.2196C59.3675 50.6481 59.5325 55.0451 58.0222 59.5022V59.5536L52.7538 76.2847C51.3932 75.5434 49.8637 75.157 48.3099 75.1618V75.1275ZM70.078 21.6688C70.2222 21.0998 70.4978 20.5716 70.8833 20.1255C71.2688 19.6793 71.7537 19.3274 72.3 19.0974V19.0974C74.7516 17.9694 77.1134 16.66 79.3651 15.1804C79.8946 14.8204 80.4153 14.4432 80.9187 14.0832L81.1357 13.929C81.5249 13.6273 82.0111 13.4742 82.5053 13.4978C82.9995 13.5214 83.4685 13.7201 83.8264 14.0575C84.2529 14.4329 84.586 14.9005 84.7998 15.4238C85.0136 15.947 85.1022 16.512 85.0589 17.0746C84.988 17.6703 84.7672 18.2391 84.4166 18.7288C82.8406 18.1711 81.1214 18.1469 79.53 18.6603V18.6603C78.4726 18.9922 77.5567 19.6615 76.9262 20.5631C75.6416 22.3716 73.4544 24.6687 70.5294 25.3801C70.0088 25.48 69.4751 25.4945 68.9497 25.423C69.3837 24.1973 69.7569 22.9459 70.078 21.6688ZM80.3199 30.5571C79.3091 30.6369 78.2958 30.4389 77.392 29.9851C76.4881 29.5313 75.7291 28.8393 75.1989 27.9858C77.2677 26.6921 79.0413 24.9875 80.4066 22.9802V22.9802C80.5044 22.8372 80.6435 22.7267 80.8059 22.663V22.663C80.9852 22.6108 81.1679 22.5708 81.3527 22.543C81.3527 22.6373 81.3527 22.7316 81.3527 22.8259C81.3095 23.4482 81.4177 24.0718 81.6683 24.6444C81.919 25.217 82.3048 25.722 82.7935 26.1172V26.1172C83.4345 26.6367 84.1846 27.0085 84.9894 27.2058C84.6026 28.1372 83.9609 28.944 83.1362 29.5359C82.3116 30.1277 81.3364 30.4814 80.3199 30.5571V30.5571Z" fill="#FEFAEF"/>
</g>
<defs>
<clipPath id="clip0_21_28">
<rect width="96.6288" height="82.1124" rx="22" fill="white"/>
</clipPath>
</defs>
</svg>
