<svg width="109" height="92" viewBox="0 0 109 92" fill="none" xmlns="http://www.w3.org/2000/svg">
<g clip-path="url(#clip0_21_63)">
<path d="M54.099 26.8849C53.853 26.8837 53.6092 26.9304 53.3816 27.0225C53.154 27.1146 52.947 27.2502 52.7726 27.4215C52.5982 27.5928 52.4599 27.7965 52.3654 28.0208C52.271 28.2451 52.2224 28.4856 52.2224 28.7285V61.6049C52.2224 62.0964 52.4201 62.5678 52.772 62.9153C53.124 63.2628 53.6013 63.4581 54.099 63.4581C54.5966 63.4581 55.074 63.2628 55.4259 62.9153C55.7778 62.5678 55.9755 62.0964 55.9755 61.6049V28.6901C55.9628 28.207 55.7595 27.7478 55.409 27.4106C55.0584 27.0734 54.5883 26.8848 54.099 26.8849Z" fill="#692300"/>
<path d="M54.099 66.4826C53.8522 66.4813 53.6076 66.5284 53.3793 66.6211C53.1511 66.7138 52.9437 66.8502 52.7692 67.0225C52.5947 67.1949 52.4565 67.3997 52.3627 67.6251C52.2688 67.8505 52.2211 68.092 52.2224 68.3357V73.0694C52.2224 73.5609 52.4201 74.0323 52.7721 74.3798C53.124 74.7273 53.6013 74.9226 54.099 74.9226C54.5967 74.9226 55.074 74.7273 55.4259 74.3798C55.7778 74.0323 55.9755 73.5609 55.9755 73.0694V68.3357C55.9755 68.0924 55.927 67.8514 55.8327 67.6266C55.7384 67.4017 55.6002 67.1975 55.4259 67.0254C55.2516 66.8533 55.0448 66.7168 54.8171 66.6237C54.5894 66.5305 54.3454 66.4826 54.099 66.4826Z" fill="#692300"/>
<path d="M61.2553 23.3707H61.3622L64.4542 22.929H64.5611L67.6044 22.3145C67.8451 22.2659 68.0738 22.1711 68.2773 22.0353C68.4809 21.8994 68.6553 21.7254 68.7908 21.523C68.9262 21.3206 69.0199 21.0938 69.0666 20.8557C69.1133 20.6175 69.112 20.3726 69.0629 20.1349C69.0137 19.8972 68.9176 19.6714 68.7801 19.4704C68.6426 19.2694 68.4663 19.0971 68.2614 18.9634C68.0564 18.8296 67.8268 18.737 67.5856 18.6909C67.3444 18.6448 67.0964 18.6461 66.8558 18.6946L63.8611 19.2995L60.8761 19.722L57.8911 19.9813L54.9061 20.0677L51.8823 19.9813L48.8973 19.722L45.9804 19.2995L42.9857 18.6946C42.745 18.6455 42.4969 18.6436 42.2554 18.6891C42.014 18.7346 41.784 18.8267 41.5786 18.96C41.1638 19.2292 40.8743 19.6501 40.7737 20.1301C40.6731 20.6101 40.7698 21.1099 41.0424 21.5196C41.315 21.9292 41.7412 22.2152 42.2273 22.3145L45.2803 22.929H45.3873L48.4306 23.3707H48.5375L51.6295 23.6299H51.7364L54.877 23.7164H54.9839L58.0758 23.6299H58.1828L61.2553 23.3707Z" fill="#692300"/>
<path d="M105.057 31.7626C107.789 27.0891 108.803 21.6281 107.93 16.3015C107.057 10.9749 104.349 6.109 100.264 2.52527V2.52527C99.2744 1.6553 98.1205 0.986883 96.8686 0.55837C95.6168 0.129857 94.2915 -0.0503159 92.969 0.0281898C91.6465 0.106695 90.3526 0.442335 89.1618 1.01585C87.9709 1.58936 86.9064 2.38945 86.0294 3.37022C84.2827 5.32496 82.0609 6.80858 79.5733 7.68141V7.68141C78.5224 8.04834 77.368 7.99668 76.355 7.53739C69.4123 4.25482 61.8158 2.54255 54.1184 2.52527V2.52527C46.4233 2.53356 38.8268 4.23596 31.8818 7.50858V7.50858C30.8726 7.97731 29.7182 8.03931 28.6635 7.68141V7.68141C26.1746 6.81048 23.95 5.33049 22.1977 3.37982V3.37982C21.3212 2.39923 20.2578 1.59876 19.068 1.02414C17.8783 0.449508 16.5856 0.111984 15.2637 0.0308431C13.9418 -0.0502975 12.6167 0.126535 11.3641 0.55124C10.1114 0.975945 8.95575 1.6402 7.96312 2.50606V2.50606C3.8718 6.08646 1.16243 10.9556 0.295646 16.2858C-0.571139 21.6159 0.458161 27.078 3.20855 31.7434V31.7434L3.3155 31.9067V31.9643C3.7241 32.5035 4.25367 32.942 4.86267 33.2452C5.47166 33.5484 6.14352 33.7081 6.82552 33.7118V33.7118C7.56183 33.7126 8.28565 33.5239 8.9257 33.1645C9.79473 34.7765 11.0644 36.1439 12.6156 37.1382C14.1667 38.1325 15.9484 38.7211 17.7931 38.8487C18.0749 38.8631 18.3572 38.8631 18.639 38.8487C20.6477 38.8578 22.6195 38.317 24.3359 37.2865C26.0522 36.256 27.4458 34.7761 28.3621 33.0109C28.9274 33.1064 29.4998 33.1546 30.0733 33.1549C30.9525 33.1564 31.8282 33.0467 32.6791 32.8284C34.2894 36.2918 36.3061 39.5564 38.6879 42.555V42.555C39.5803 43.6916 40.1257 45.0561 40.2601 46.4882C40.3944 47.9203 40.1121 49.3605 39.4463 50.6397C36.86 55.6134 36.5294 61.7681 38.5518 67.9709L45.4941 90.1797V90.2566V90.3718V90.4582L45.5524 90.5734C45.5524 90.5734 45.5524 90.5734 45.5524 90.6502L45.6399 90.7751V90.8231L45.776 90.9959C45.8164 91.0454 45.8621 91.0904 45.9122 91.1303V91.1783L46.0483 91.284L46.1455 91.3512H46.2136H46.3011H46.3886H46.4469L46.5636 91.4088L46.6997 91.4664H46.8747H47.04C47.1663 91.4759 47.293 91.4759 47.4192 91.4664H47.6623H47.9054H48.0804H48.1874C48.2351 91.4531 48.2808 91.4337 48.3235 91.4088C48.3557 91.414 48.3885 91.414 48.4207 91.4088C48.4688 91.3922 48.5146 91.3696 48.5568 91.3416L48.6443 91.284C48.6935 91.2575 48.7392 91.2253 48.7805 91.1879L48.8485 91.1399C48.9838 91.0273 49.1075 90.9019 49.218 90.7655V90.7655C49.7186 90.1038 50.3686 89.5666 51.1164 89.1966C51.8641 88.8265 52.6889 88.6339 53.5253 88.6339C54.3617 88.6339 55.1865 88.8265 55.9343 89.1966C56.682 89.5666 57.332 90.1038 57.8326 90.7655V90.7655C57.8597 90.8051 57.8925 90.8407 57.9298 90.8711L57.9882 90.9383C58.0214 90.9759 58.0571 91.0111 58.0951 91.0439L58.1632 91.1015L58.2604 91.1783L58.3479 91.2455L58.4452 91.3032L58.5521 91.3704H58.6299L58.766 91.4376H58.8438L58.9897 91.4856H59.1355C59.2035 91.4902 59.2717 91.4902 59.3397 91.4856H59.8258H60.0397H60.2439H60.3217H60.4384H60.5356H60.6426H60.7301L60.9148 91.38L61.0801 91.2648L61.2065 91.1591V91.1111L61.3329 90.9767L61.4593 90.8039V90.7559C61.4909 90.7145 61.517 90.6693 61.5371 90.6214C61.5403 90.5991 61.5403 90.5765 61.5371 90.5542C61.5633 90.518 61.5861 90.4794 61.6052 90.439V90.3526C61.609 90.3143 61.609 90.2757 61.6052 90.2374V90.1509L68.5085 67.9517C70.5892 61.7585 70.2976 55.5846 67.6918 50.5725C67.0166 49.3065 66.728 47.8742 66.8609 46.4493C66.9938 45.0245 67.5425 43.6684 68.4405 42.5454V42.5454C70.8265 39.5429 72.8436 36.2714 74.4493 32.7996C75.2783 33.0106 76.131 33.1171 76.987 33.1165C77.8966 33.2389 78.8185 33.2421 79.7289 33.1261C80.6477 34.8907 82.0414 36.371 83.7567 37.4043C85.4721 38.4376 87.4427 38.9839 89.452 38.9832C89.7337 38.9973 90.0161 38.9973 90.2979 38.9832C92.1477 38.8515 93.9331 38.2571 95.4861 37.256C97.0391 36.2548 98.3086 34.8798 99.175 33.2605C99.8317 33.6137 100.566 33.8017 101.314 33.8078C101.993 33.8023 102.662 33.6427 103.269 33.3414C103.876 33.04 104.405 32.605 104.814 32.0699V32.0123V31.9643L104.912 31.801L105.057 31.7626ZM18.2598 34.2303C17.1207 34.1469 16.0275 33.7525 15.1021 33.0913C14.1767 32.4301 13.4556 31.528 13.0191 30.4856C13.9453 30.2677 14.8116 29.8514 15.5568 29.2662C16.1054 28.8265 16.5385 28.2626 16.8195 27.6224C17.1004 26.9823 17.221 26.2847 17.1708 25.5887C17.1708 25.4831 17.1708 25.3775 17.1708 25.2718C17.3621 25.3019 17.5507 25.3468 17.7348 25.4063V25.4063C17.9345 25.4688 18.1084 25.5934 18.2307 25.7615V25.7615C19.7702 27.9993 21.7552 29.9039 24.0645 31.3594C23.4725 32.3325 22.6124 33.1192 21.5845 33.6276C20.5566 34.136 19.4035 34.345 18.2598 34.2303V34.2303ZM29.2469 28.4692C26.7091 27.8451 24.1131 25.9248 22.1004 23.0442C21.3823 22.0456 20.3606 21.2989 19.1835 20.9126V20.9126C17.4045 20.3389 15.4832 20.3625 13.7192 20.9799C13.3184 20.4372 13.0641 19.8028 12.9802 19.1363C12.9046 18.5143 12.9729 17.8835 13.1801 17.2914C13.3872 16.6992 13.7278 16.1613 14.1761 15.7181V15.7181C14.5786 15.3394 15.1057 15.1165 15.6609 15.09C16.2162 15.0636 16.7625 15.2354 17.2 15.5741V15.5741C19.6876 17.3897 22.3254 18.9957 25.0854 20.3749C25.5229 20.5958 25.9702 20.7974 26.398 20.9991L27.0981 21.3351H27.1467H27.1953C27.7998 21.5837 28.337 21.9685 28.7641 22.4586C29.1912 22.9488 29.4964 23.5307 29.6552 24.158V24.158C30.015 25.5791 30.4331 27.0386 30.9289 28.3924C30.3761 28.5076 29.8081 28.5335 29.2469 28.4692V28.4692ZM54.1184 84.1594C52.3729 84.1644 50.6582 84.6142 49.1402 85.4653L43.3064 66.665C41.6729 61.6529 41.8771 56.7752 43.88 52.9249C44.9557 50.8384 45.4055 48.4918 45.1764 46.1614C44.9473 43.831 44.0489 41.6137 42.5869 39.7705V39.7705C38.6904 34.8582 35.8905 29.1874 34.3709 23.1306V23.1306C34.0413 21.8113 33.4085 20.5847 32.5216 19.5457C31.6347 18.5067 30.5175 17.6832 29.2566 17.1391L28.5176 16.7935L27.2925 16.2078C24.7662 14.9258 22.3501 13.4422 20.0683 11.7718V11.7718C18.7135 10.7562 17.034 10.2556 15.3365 10.3614C13.639 10.4672 12.0365 11.1722 10.8217 12.3479V12.3479C9.90759 13.2416 9.20013 14.32 8.74788 15.5092C8.29563 16.6984 8.10929 17.9701 8.20166 19.2371C8.29403 20.5041 8.66291 21.7364 9.283 22.8493C9.90308 23.9623 10.7597 24.9295 11.794 25.6847L11.9593 25.7999L12.0371 25.8575C11.9656 25.8869 11.8903 25.9063 11.8134 25.9152L11.2787 26.0016C10.5348 26.1266 9.81996 26.3836 9.16878 26.7601C9.00945 26.8358 8.85939 26.9292 8.72152 27.0386C8.11691 27.4416 7.58457 27.9413 7.14638 28.5172V28.5172L6.98109 28.7093C5.01384 25.0155 4.35481 20.7778 5.10896 16.6713C5.86312 12.5647 7.98708 8.82547 11.1426 6.04911C11.6622 5.59388 12.2676 5.2442 12.9241 5.02002C13.5806 4.79585 14.2754 4.70158 14.9688 4.74259C15.6623 4.78361 16.3407 4.9591 16.9654 5.25906C17.5902 5.55902 18.1489 5.97756 18.6099 6.49079V6.49079C20.8994 9.04143 23.8064 10.9773 27.0592 12.1174V12.1174C28.0264 12.4585 29.0463 12.6307 30.0733 12.6263C31.3855 12.6299 32.6828 12.3514 33.875 11.8102C40.173 8.80736 47.0762 7.24777 54.0698 7.24777C61.0634 7.24777 67.9666 8.80736 74.2646 11.8102V11.8102C75.46 12.3522 76.7606 12.6307 78.076 12.6263C79.0999 12.6316 80.1168 12.4593 81.0804 12.1174V12.1174C84.3356 10.9814 87.246 9.04887 89.5395 6.5004C89.9977 5.98443 90.5551 5.56343 91.1793 5.2618C91.8035 4.96018 92.4822 4.78393 93.1759 4.74327C94.5752 4.66846 95.9481 5.14106 96.997 6.05871V6.05871C100.162 8.83444 102.294 12.5778 103.052 16.6907C103.81 20.8036 103.15 25.0487 101.178 28.7477L101.071 28.6037C100.633 27.9996 100.093 27.4736 99.4764 27.0482C99.3404 26.9411 99.1938 26.8478 99.0389 26.7697C98.387 26.3947 97.6724 26.1378 96.929 26.0112V26.0112L96.472 25.9248H96.2775C97.3498 25.1813 98.2438 24.2146 98.8964 23.0927C99.5491 21.9709 99.9445 20.7213 100.055 19.4321C100.165 18.1429 99.9877 16.8455 99.535 15.6314C99.0822 14.4173 98.3652 13.3161 97.4346 12.4055V12.4055C96.2197 11.2298 94.6173 10.5248 92.9198 10.419C91.2222 10.3132 89.5428 10.8138 88.188 11.8294V11.8294L87.9449 12.0022C87.3712 12.4151 86.8365 12.7992 86.2822 13.1736C83.9632 14.6922 81.5321 16.037 79.0094 17.1968V17.1968C77.76 17.745 76.6515 18.5639 75.7661 19.5928C74.8808 20.6216 74.2413 21.8341 73.8951 23.1402V23.1402C72.4087 29.1997 69.6236 34.8739 65.7277 39.7801C64.2769 41.6223 63.389 43.8353 63.1685 46.1589C62.948 48.4824 63.4041 50.8198 64.4832 52.8961C66.5056 56.7368 66.6903 61.6625 64.9985 66.6554V66.713L59.0966 85.4557C57.5725 84.6253 55.8591 84.1924 54.1184 84.1979V84.1594ZM78.5038 24.2733C78.6652 23.6359 78.974 23.0441 79.4059 22.5444C79.8377 22.0446 80.3809 21.6504 80.9929 21.3927V21.3927C83.7393 20.1291 86.385 18.6623 88.9075 17.0047C89.5006 16.6014 90.084 16.179 90.6479 15.7757L90.891 15.6029C91.3269 15.2649 91.8716 15.0934 92.4252 15.1199C92.9788 15.1463 93.5042 15.3689 93.9051 15.7469C94.383 16.1675 94.7561 16.6912 94.9956 17.2774C95.235 17.8636 95.3344 18.4964 95.2858 19.1267C95.2064 19.7941 94.9591 20.4312 94.5663 20.9799C92.8008 20.355 90.875 20.328 89.0922 20.903V20.903C87.9076 21.2749 86.8816 22.0246 86.1753 23.0346C84.7363 25.0606 82.2861 27.6339 79.0094 28.4308C78.4262 28.5427 77.8283 28.559 77.2398 28.4788C77.726 27.1058 78.1441 25.7039 78.5038 24.2733ZM89.977 34.2303C88.8448 34.3196 87.7096 34.0979 86.6971 33.5895C85.6846 33.0811 84.8343 32.3059 84.2404 31.3498C86.5579 29.9006 88.5447 27.991 90.0742 25.7423V25.7423C90.1837 25.5822 90.3396 25.4583 90.5215 25.3871V25.3871C90.7223 25.3286 90.927 25.2837 91.134 25.2526C91.134 25.3583 91.134 25.4639 91.134 25.5695C91.0856 26.2667 91.2068 26.9652 91.4876 27.6066C91.7684 28.248 92.2006 28.8138 92.7481 29.2566V29.2566C93.4661 29.8385 94.3065 30.255 95.208 30.476C94.7746 31.5194 94.0558 32.4232 93.132 33.0862C92.2082 33.7493 91.1158 34.1454 89.977 34.2303V34.2303Z" fill="#692300"/>
</g>
<defs>
<clipPath id="clip0_21_63">
<rect width="108.247" height="91.9849" fill="white"/>
</clipPath>
</defs>
</svg>
