<svg width="97" height="84" viewBox="0 0 97 84" fill="none" xmlns="http://www.w3.org/2000/svg">
<g clip-path="url(#clip0_21_63)">
<path d="M48.4782 24.5511C48.2578 24.55 48.0393 24.5927 47.8354 24.6768C47.6314 24.7608 47.4459 24.8847 47.2897 25.0411C47.1334 25.1976 47.0094 25.3835 46.9248 25.5884C46.8402 25.7932 46.7966 26.0128 46.7966 26.2346V56.2572C46.7966 56.706 46.9738 57.1364 47.2892 57.4538C47.6045 57.7712 48.0322 57.9495 48.4782 57.9495C48.9242 57.9495 49.3519 57.7712 49.6673 57.4538C49.9826 57.1364 50.1598 56.706 50.1598 56.2572V26.1996C50.1484 25.7584 49.9663 25.3391 49.6521 25.0312C49.338 24.7233 48.9167 24.551 48.4782 24.5511Z" fill="#692300"/>
<path d="M48.4782 60.7115C48.2571 60.7103 48.0379 60.7533 47.8334 60.8379C47.6288 60.9226 47.443 61.0472 47.2866 61.2045C47.1302 61.3619 47.0064 61.5489 46.9223 61.7548C46.8382 61.9606 46.7955 62.1812 46.7967 62.4038V66.7265C46.7967 67.1753 46.9738 67.6058 47.2892 67.9231C47.6045 68.2405 48.0322 68.4188 48.4782 68.4188C48.9242 68.4188 49.3519 68.2405 49.6673 67.9231C49.9826 67.6058 50.1598 67.1753 50.1598 66.7265V62.4038C50.1598 62.1815 50.1163 61.9615 50.0318 61.7562C49.9473 61.5508 49.8234 61.3643 49.6673 61.2071C49.5111 61.05 49.3258 60.9253 49.1217 60.8403C48.9177 60.7553 48.6991 60.7115 48.4782 60.7115Z" fill="#692300"/>
<path d="M54.8908 21.342H54.9867L57.7573 20.9386H57.8532L60.5803 20.3774C60.796 20.3331 61.0009 20.2465 61.1833 20.1224C61.3657 19.9984 61.522 19.8395 61.6434 19.6546C61.7647 19.4698 61.8487 19.2627 61.8906 19.0453C61.9324 18.8278 61.9313 18.6041 61.8872 18.387C61.8432 18.17 61.7571 17.9638 61.6338 17.7802C61.5106 17.5967 61.3526 17.4393 61.169 17.3172C60.9853 17.1951 60.7796 17.1105 60.5634 17.0684C60.3473 17.0263 60.1251 17.0275 59.9094 17.0718L57.2259 17.6242L54.551 18.01L51.8762 18.2468L49.2013 18.3257L46.4916 18.2468L43.8168 18.01L41.203 17.6242L38.5194 17.0718C38.3037 17.0269 38.0814 17.0252 37.865 17.0668C37.6487 17.1083 37.4426 17.1924 37.2585 17.3141C36.8868 17.5599 36.6274 17.9443 36.5372 18.3827C36.4471 18.821 36.5337 19.2774 36.778 19.6515C37.0223 20.0256 37.4042 20.2868 37.8398 20.3774L40.5756 20.9386H40.6715L43.3986 21.342H43.4944L46.2651 21.5787H46.3609L49.1752 21.6576H49.271L52.0417 21.5787H52.1376L54.8908 21.342Z" fill="#692300"/>
<path d="M94.1423 29.0054C96.5897 24.7376 97.4988 19.7506 96.7163 14.8864C95.9337 10.0222 93.5074 5.57869 89.8468 2.30605V2.30605C88.96 1.5116 87.926 0.901207 86.8043 0.509892C85.6825 0.118577 84.4949 -0.0459556 83.3098 0.0257352C82.1246 0.0974261 80.9652 0.403929 79.8981 0.927657C78.831 1.45138 77.8771 2.18203 77.0912 3.07766C75.526 4.86271 73.535 6.21754 71.3059 7.01461V7.01461C70.3641 7.34968 69.3297 7.30251 68.422 6.88308C62.2006 3.88547 55.3933 2.32184 48.4957 2.30605V2.30605C41.6001 2.31362 34.7929 3.86824 28.5694 6.85678V6.85678C27.6651 7.28482 26.6306 7.34143 25.6855 7.01461V7.01461C23.4552 6.21928 21.4617 4.86776 19.8915 3.08642V3.08642C19.1061 2.19096 18.1531 1.45997 17.087 0.935226C16.0209 0.41048 14.8625 0.102255 13.6779 0.0281582C12.4934 -0.0459389 11.306 0.115544 10.1835 0.503381C9.06095 0.891219 8.02537 1.49781 7.13587 2.28851V2.28851C3.46963 5.5581 1.04177 10.0046 0.265037 14.8721C-0.511691 19.7395 0.410666 24.7275 2.87529 28.9879V28.9879L2.97114 29.1369V29.1895C3.33728 29.682 3.81183 30.0824 4.35755 30.3592C4.90327 30.6361 5.50533 30.782 6.11647 30.7854V30.7854C6.77628 30.7861 7.42489 30.6138 7.99844 30.2856C8.77718 31.7577 9.91498 33.0063 11.305 33.9144C12.6949 34.8224 14.2915 35.3599 15.9445 35.4764C16.1971 35.4895 16.4501 35.4895 16.7026 35.4764C18.5025 35.4846 20.2695 34.9909 21.8075 34.0498C23.3455 33.1088 24.5943 31.7573 25.4154 30.1453C25.922 30.2326 26.4349 30.2766 26.9489 30.2768C27.7367 30.2782 28.5214 30.178 29.2839 29.9787C30.7269 33.1415 32.5341 36.1226 34.6684 38.8609V38.8609C35.4681 39.8989 35.9569 41.1449 36.0772 42.4527C36.1976 43.7605 35.9446 45.0757 35.348 46.2438C33.0304 50.7858 32.7342 56.4062 34.5465 62.0705L40.7674 82.3515V82.4217V82.5269V82.6058L40.8197 82.711C40.8197 82.711 40.8197 82.711 40.8197 82.7812L40.8981 82.8952V82.939L41.0201 83.0968C41.0563 83.142 41.0972 83.1832 41.1421 83.2196V83.2634L41.2641 83.3599L41.3512 83.4213H41.4122H41.4906H41.569H41.6213L41.7258 83.4739L41.8478 83.5265H42.0046H42.1528C42.2659 83.5352 42.3795 83.5352 42.4926 83.5265H42.7104H42.9282H43.085H43.1809C43.2236 83.5143 43.2646 83.4966 43.3029 83.4739C43.3317 83.4786 43.3611 83.4786 43.39 83.4739C43.4331 83.4588 43.4741 83.4381 43.512 83.4125L43.5904 83.3599C43.6344 83.3357 43.6754 83.3063 43.7124 83.2722L43.7733 83.2284C43.8945 83.1255 44.0054 83.011 44.1044 82.8864V82.8864C44.553 82.2822 45.1355 81.7916 45.8056 81.4537C46.4756 81.1158 47.2147 80.9398 47.9642 80.9398C48.7137 80.9398 49.4528 81.1158 50.1229 81.4537C50.7929 81.7916 51.3754 82.2822 51.824 82.8864V82.8864C51.8483 82.9226 51.8777 82.9551 51.9111 82.9828L51.9634 83.0442C51.9931 83.0785 52.0252 83.1108 52.0593 83.1407L52.1202 83.1933L52.2074 83.2634L52.2858 83.3248L52.3729 83.3774L52.4688 83.4388H52.5385L52.6604 83.5002H52.7301L52.8608 83.544H52.9915C53.0524 83.5483 53.1136 83.5483 53.1745 83.544H53.6101H53.8018H53.9848H54.0545H54.159H54.2462H54.342H54.4204L54.586 83.4476L54.7341 83.3424L54.8474 83.2459V83.2021L54.9606 83.0793L55.0739 82.9215V82.8776C55.1022 82.8398 55.1256 82.7986 55.1436 82.7549C55.1465 82.7345 55.1465 82.7139 55.1436 82.6935C55.1671 82.6604 55.1875 82.6252 55.2046 82.5883V82.5094C55.208 82.4744 55.208 82.4391 55.2046 82.4041V82.3252L61.3907 62.053C63.2552 56.3975 62.9939 50.7595 60.6588 46.1824C60.0538 45.0263 59.7952 43.7183 59.9142 42.4172C60.0333 41.1161 60.525 39.8776 61.3297 38.8522V38.8522C63.4679 36.1103 65.2754 33.1228 66.7142 29.9524C67.4571 30.145 68.2212 30.2423 68.9883 30.2417C69.8033 30.3535 70.6295 30.3565 71.4453 30.2505C72.2687 31.8619 73.5175 33.2137 75.0547 34.1573C76.5918 35.1009 78.3576 35.5998 80.1581 35.5991C80.4107 35.6121 80.6637 35.6121 80.9162 35.5991C82.5738 35.4789 84.1737 34.9361 85.5654 34.0219C86.957 33.1076 88.0946 31.852 88.871 30.3733C89.4594 30.6958 90.1178 30.8675 90.7878 30.8731C91.3965 30.868 91.9959 30.7223 92.5398 30.4471C93.0836 30.1719 93.5574 29.7747 93.9244 29.286V29.2334V29.1895L94.0116 29.0405L94.1423 29.0054ZM16.3628 31.2589C15.342 31.1827 14.3624 30.8226 13.5331 30.2188C12.7039 29.6149 12.0577 28.7911 11.6665 27.8392C12.4965 27.6403 13.2728 27.2601 13.9406 26.7257C14.4322 26.3241 14.8203 25.8092 15.072 25.2246C15.3238 24.64 15.4318 24.003 15.3869 23.3674C15.3869 23.271 15.3869 23.1745 15.3869 23.0781C15.5583 23.1055 15.7273 23.1465 15.8923 23.2008V23.2008C16.0713 23.258 16.2271 23.3717 16.3366 23.5252V23.5252C17.7163 25.5687 19.495 27.308 21.5643 28.6371C21.0339 29.5258 20.2631 30.2442 19.342 30.7085C18.4209 31.1727 17.3876 31.3636 16.3628 31.2589V31.2589ZM26.2083 25.9979C23.9342 25.428 21.6079 23.6743 19.8043 21.0438C19.1608 20.1318 18.2452 19.45 17.1905 19.0973V19.0973C15.5963 18.5733 13.8746 18.5949 12.2939 19.1587C11.9347 18.6631 11.7068 18.0838 11.6317 17.4751C11.5639 16.9071 11.6251 16.3311 11.8108 15.7903C11.9964 15.2496 12.3016 14.7584 12.7034 14.3536V14.3536C13.064 14.0078 13.5363 13.8042 14.0339 13.7801C14.5314 13.7559 15.021 13.9128 15.4131 14.2221V14.2221C17.6422 15.8802 20.0059 17.3467 22.4792 18.6063C22.8713 18.8079 23.272 18.9921 23.6554 19.1762L24.2827 19.4831H24.3263H24.3699C24.9115 19.7101 25.3929 20.0615 25.7757 20.509C26.1584 20.9566 26.4319 21.4881 26.5742 22.0609V22.0609C26.8966 23.3587 27.2712 24.6914 27.7156 25.9278C27.2202 26.0329 26.7112 26.0566 26.2083 25.9979V25.9979ZM48.4957 76.8538C46.9315 76.8583 45.395 77.2691 44.0347 78.0463L38.807 60.8781C37.3433 56.301 37.5262 51.8467 39.3211 48.3307C40.285 46.4253 40.688 44.2824 40.4827 42.1543C40.2774 40.0262 39.4724 38.0014 38.1623 36.3181V36.3181C34.6707 31.8323 32.1616 26.6538 30.7999 21.1227V21.1227C30.5045 19.9179 29.9375 18.7978 29.1428 17.849C28.348 16.9001 27.3469 16.1482 26.217 15.6513L25.5548 15.3357L24.457 14.8008C22.1931 13.6301 20.028 12.2753 17.9834 10.7499V10.7499C16.7693 9.82249 15.2643 9.36536 13.7432 9.46194C12.222 9.55853 10.7861 10.2024 9.69745 11.276V11.276C8.87832 12.0921 8.24436 13.077 7.8391 14.1629C7.43383 15.2489 7.26686 16.4102 7.34963 17.5672C7.4324 18.7242 7.76296 19.8495 8.31862 20.8658C8.87428 21.8822 9.64188 22.7655 10.5687 23.4551L10.7168 23.5603L10.7866 23.6129C10.7225 23.6397 10.6551 23.6574 10.5862 23.6655L10.1069 23.7445C9.44035 23.8586 8.79979 24.0933 8.21626 24.4371C8.07349 24.5063 7.93902 24.5916 7.81547 24.6914C7.27368 25.0595 6.79665 25.5158 6.40399 26.0417V26.0417L6.25587 26.2171C4.49302 22.8439 3.90246 18.9741 4.57826 15.2241C5.25406 11.474 7.15734 8.05936 9.98497 5.524C10.4506 5.10829 10.9931 4.78896 11.5814 4.58424C12.1697 4.37953 12.7923 4.29344 13.4137 4.3309C14.0351 4.36835 14.643 4.52861 15.2029 4.80253C15.7627 5.07645 16.2634 5.45866 16.6764 5.92734V5.92734C18.7281 8.25657 21.3331 10.0244 24.2479 11.0655V11.0655C25.1146 11.377 26.0286 11.5343 26.9489 11.5303C28.1247 11.5335 29.2872 11.2792 30.3556 10.785C35.9992 8.04281 42.1852 6.6186 48.4521 6.6186C54.7191 6.6186 60.9051 8.04281 66.5487 10.785V10.785C67.6199 11.2799 68.7854 11.5342 69.9641 11.5303C70.8817 11.5351 71.7929 11.3778 72.6564 11.0655V11.0655C75.5734 10.0282 78.1814 8.26336 80.2366 5.93611C80.6472 5.46493 81.1466 5.08048 81.706 4.80504C82.2654 4.52959 82.8735 4.36864 83.4952 4.33152C84.7491 4.2632 85.9793 4.69478 86.9193 5.53277V5.53277C89.7558 8.06754 91.6663 11.486 92.3454 15.2418C93.0246 18.9977 92.4332 22.8743 90.6658 26.2522L90.57 26.1207C90.1772 25.569 89.694 25.0887 89.1411 24.7002C89.0192 24.6024 88.8879 24.5172 88.749 24.4459C88.1648 24.1035 87.5245 23.8689 86.8583 23.7532V23.7532L86.4488 23.6743H86.2746C87.2354 22.9954 88.0365 22.1126 88.6213 21.0881C89.2062 20.0637 89.5606 18.9225 89.6594 17.7453C89.7583 16.568 89.5993 15.3832 89.1936 14.2745C88.7879 13.1658 88.1454 12.1602 87.3114 11.3286V11.3286C86.2228 10.255 84.7868 9.61114 83.2657 9.51455C81.7445 9.41797 80.2395 9.8751 79.0255 10.8025V10.8025L78.8077 10.9603C78.2936 11.3374 77.8144 11.6881 77.3178 12.0301C75.2396 13.4168 73.0611 14.6449 70.8006 15.704V15.704C69.6809 16.2046 68.6876 16.9524 67.8943 17.892C67.1009 18.8315 66.5279 19.9387 66.2176 21.1315V21.1315C64.8856 26.665 62.3899 31.8466 58.8988 36.3269C57.5987 38.0092 56.8031 40.0301 56.6055 42.152C56.4079 44.2738 56.8166 46.4083 57.7836 48.3044C59.5959 51.8117 59.7614 56.3098 58.2454 60.8693V60.9219L52.9567 78.0375C51.5909 77.2793 50.0555 76.8839 48.4957 76.8889V76.8538ZM70.3475 22.1662C70.4922 21.5841 70.7688 21.0437 71.1558 20.5874C71.5428 20.131 72.0296 19.771 72.578 19.5357V19.5357C75.039 18.3818 77.4099 17.0422 79.6702 15.5286C80.2017 15.1603 80.7245 14.7745 81.2298 14.4063L81.4476 14.2484C81.8383 13.9398 82.3264 13.7832 82.8225 13.8074C83.3186 13.8315 83.7894 14.0348 84.1486 14.3799C84.5768 14.764 84.9112 15.2423 85.1258 15.7776C85.3404 16.3129 85.4294 16.8908 85.3858 17.4664C85.3147 18.0758 85.0931 18.6576 84.7411 19.1587C83.159 18.5881 81.4333 18.5634 79.8358 19.0885V19.0885C78.7743 19.428 77.8549 20.1127 77.2219 21.0351C75.9324 22.8852 73.7368 25.2351 70.8006 25.9628C70.278 26.065 69.7422 26.0798 69.2148 26.0067C69.6505 24.7528 70.0251 23.4726 70.3475 22.1662ZM80.6286 31.2589C79.614 31.3405 78.5968 31.1379 77.6895 30.6737C76.7822 30.2094 76.0203 29.5015 75.4881 28.6284C77.5648 27.305 79.3451 25.5611 80.7158 23.5077V23.5077C80.8139 23.3614 80.9536 23.2484 81.1166 23.1833V23.1833C81.2966 23.1299 81.4799 23.0889 81.6655 23.0605C81.6655 23.157 81.6655 23.2534 81.6655 23.3499C81.6221 23.9865 81.7307 24.6244 81.9823 25.2102C82.2339 25.7959 82.6212 26.3126 83.1118 26.7169V26.7169C83.7553 27.2483 84.5083 27.6287 85.3161 27.8305C84.9278 28.7833 84.2837 29.6086 83.4559 30.2141C82.628 30.8196 81.6491 31.1813 80.6286 31.2589V31.2589Z" fill="#692300"/>
</g>
<defs>
<clipPath id="clip0_21_63">
<rect width="97" height="84" fill="white"/>
</clipPath>
</defs>
</svg>
