<svg width="89" height="96" viewBox="0 0 89 96" fill="none" xmlns="http://www.w3.org/2000/svg">
<g clip-path="url(#clip0_21_56)">
<path d="M88.1989 49.6283C87.5576 47.7389 87.4374 45.7149 87.8506 43.7644V43.7644L88.6691 39.8952C89.2189 37.3312 89.1172 34.6727 88.373 32.1569V32.1569L87.2412 28.3738C86.8164 26.9141 86.6862 25.3862 86.8581 23.8769L87.8245 15.0467C88.0413 13.5289 87.9239 11.9829 87.4803 10.514C87.0366 9.04519 86.2773 7.68819 85.254 6.53567C84.2308 5.38315 82.9677 4.46226 81.5511 3.83588C80.1345 3.2095 78.5977 2.89237 77.0456 2.90616V2.90616C76.2072 2.92757 75.372 2.79642 74.5816 2.51924V2.51924C72.7403 1.85581 70.7694 1.61856 68.8207 1.82577C66.8719 2.03297 64.9973 2.67909 63.3413 3.71438V3.71438C62.2692 4.36373 61.0379 4.71158 59.7802 4.72036V4.72036L50.9777 4.77195C49.6219 4.77895 48.279 5.03253 47.0162 5.51998V5.51998L45.2748 6.22503L45.1007 6.29381C44.6906 6.44288 44.292 6.62104 43.9079 6.8269V6.8269C43.0361 7.34154 42.0107 7.54225 41.006 7.39492C40.0013 7.24758 39.0793 6.76129 38.3965 6.01867C38.3965 6.01867 38.3965 6.01867 38.353 6.01867V5.96708L38.2921 5.9155C37.0322 4.67001 35.3972 3.86177 33.6326 3.61215C31.8679 3.36254 30.0689 3.68504 28.5057 4.5312V4.5312H28.4448H28.3838H28.3229C27.9248 4.79347 27.4627 4.94539 26.9849 4.9711C26.507 4.99681 26.031 4.89537 25.6064 4.67737L20.1734 1.42728H20.1212H20.0689C18.3011 0.455717 16.294 -0.00998892 14.2729 0.0824502C12.2519 0.174889 10.297 0.821814 8.62768 1.9506C6.95833 3.07938 5.64065 4.64533 4.82255 6.47264C4.00446 8.29996 3.71834 10.3163 3.99632 12.2953V12.2953C4.23138 13.9298 3.84691 15.5924 2.91669 16.9641C1.83436 18.5802 1.15764 20.4277 0.94263 22.3536C0.72762 24.2795 0.98051 26.2283 1.68034 28.0384C2.01954 28.9267 2.16315 29.8761 2.1016 30.8235C2.04005 31.7709 1.77474 32.6944 1.32337 33.5326C0.308155 35.4577 -0.137965 37.626 0.0360219 39.7897C0.210008 41.9534 0.997077 44.025 2.30722 45.7677C2.94834 46.5807 3.38844 47.5303 3.5925 48.5408C3.79656 49.5514 3.75894 50.595 3.48263 51.5886C2.86651 53.7603 2.82877 56.0522 3.37307 58.2425C3.91738 60.4327 5.02527 62.4471 6.58942 64.0903C8.15358 65.7335 10.121 66.95 12.301 67.6218C14.4811 68.2937 16.7999 68.3981 19.0328 67.925V67.925C20.3506 67.6257 21.6077 67.1083 22.7506 66.3946C26.9318 69.4543 31.9996 71.1034 37.2037 71.0977H37.4388C37.7506 73.7155 38.62 76.2385 39.9899 78.5007V78.5007C40.0883 78.686 40.1101 78.9017 40.0508 79.1026C39.3952 81.3621 39.3202 83.7473 39.8325 86.0427C40.3448 88.338 41.4283 90.4711 42.985 92.2491V92.2491L44.3258 93.7194C44.8146 94.2591 45.413 94.6911 46.082 94.9874C46.7511 95.2836 47.4758 95.4375 48.209 95.439C49.401 95.4366 50.5541 95.02 51.4662 94.2623C52.3784 93.5046 52.9914 92.454 53.1979 91.2947V91.2947L53.9119 87.4857C54.0773 86.6864 54.0384 85.859 53.7987 85.0783V85.0783L53.2937 83.4704C53.2255 83.2569 53.2442 83.0256 53.346 82.8256L55.3485 79.1026C57.3598 80.039 59.5743 80.4702 61.795 80.3577C64.0158 80.2452 66.174 79.5925 68.0777 78.4577C69.2113 77.7745 70.4728 77.3242 71.7868 77.1336L75.6438 76.6349C77.9791 76.4058 80.1478 75.338 81.7385 73.6342C83.3668 71.9132 84.2966 69.6606 84.3505 67.306C84.3719 65.3216 85.0169 63.3927 86.1964 61.786V61.786C87.4746 60.0577 88.3221 58.0561 88.67 55.9436C89.0179 53.8312 88.8565 51.6675 88.1989 49.6283V49.6283ZM32.8678 66.3602C33.3733 65.8193 33.753 65.1758 33.9801 64.4748C34.2072 63.7737 34.2763 63.0321 34.1825 62.3019V62.3019L34.078 61.3905C34.0258 61.0203 34.0906 60.6432 34.2635 60.3108C34.4365 59.9784 34.7093 59.7068 35.0444 59.5333L37.7871 58.0802C37.9913 57.9831 38.1736 57.8461 38.3229 57.6776C38.4721 57.5091 38.5853 57.3125 38.6556 57.0996C38.7259 56.8868 38.7519 56.6621 38.7319 56.4391C38.712 56.216 38.6465 55.9993 38.5395 55.8019C38.4325 55.6045 38.2862 55.4306 38.1093 55.2905C37.9325 55.1504 37.7287 55.0472 37.5104 54.9869C37.292 54.9266 37.0636 54.9106 36.8388 54.9398C36.614 54.969 36.3976 55.0429 36.2024 55.1569L33.4511 56.6185C32.5272 57.1103 31.7748 57.8655 31.2918 58.7857C30.8088 59.7059 30.6177 60.7484 30.7433 61.7774V61.7774L30.8391 62.6372C30.9019 63.0011 30.8475 63.3752 30.6834 63.7069C30.5194 64.0385 30.2541 64.311 29.9249 64.4858V64.4858L28.9498 65.0447C27.921 64.58 26.9336 64.0307 25.9982 63.4024C27.5175 61.3725 28.3374 58.9149 28.3374 56.3907C28.3374 53.8665 27.5175 51.4088 25.9982 49.3789C25.373 48.548 24.9529 47.5844 24.7715 46.5649C24.5901 45.5453 24.6524 44.498 24.9534 43.5064C25.4503 41.866 25.5691 40.1365 25.3009 38.4449C25.0327 36.7532 24.3844 35.1423 23.4036 33.7304C25.4098 32.2819 27.843 31.5257 30.3276 31.5785C32.8123 31.6313 35.2103 32.4903 37.1515 34.0227C37.323 34.1593 37.5201 34.2613 37.7315 34.3227C37.9429 34.3841 38.1644 34.4038 38.3835 34.3806C38.6026 34.3575 38.815 34.2919 39.0084 34.1877C39.2019 34.0835 39.3726 33.9427 39.511 33.7734C39.6493 33.604 39.7526 33.4094 39.8147 33.2006C39.8769 32.9919 39.8969 32.773 39.8734 32.5567C39.85 32.3403 39.7836 32.1306 39.6781 31.9396C39.5726 31.7485 39.43 31.5799 39.2585 31.4433C36.4148 29.1575 32.7997 28.0208 29.1413 28.262C28.7068 28.2861 28.2738 28.332 27.844 28.3995C27.714 27.9159 27.6848 27.4113 27.7582 26.9162C27.8315 26.421 28.0058 25.9458 28.2706 25.5192C28.401 25.3345 28.4917 25.1255 28.5372 24.9049C28.5828 24.6843 28.5821 24.4569 28.5354 24.2366C28.4886 24.0163 28.3967 23.8077 28.2654 23.6238C28.134 23.4398 27.9659 23.2843 27.7715 23.1669C27.577 23.0494 27.3603 22.9725 27.1346 22.9408C26.9089 22.9091 26.6791 22.9233 26.4592 22.9826C26.2393 23.0418 26.0339 23.1449 25.8558 23.2854C25.6778 23.4259 25.5306 23.6008 25.4235 23.7996C24.9136 24.6129 24.5785 25.5211 24.4392 26.4678C24.2999 27.4145 24.3593 28.3793 24.6138 29.3023C23.5217 29.7257 22.4865 30.2801 21.5316 30.9532C20.9779 29.5621 20.9075 28.0288 21.3314 26.5939C22.0955 23.9623 21.9919 21.1587 21.0354 18.5891C21.9498 18.6991 22.8355 18.976 23.6474 19.4059L26.1375 20.7128C27.7398 21.5556 29.5287 21.9928 31.3441 21.9854H31.8578L35.8106 21.7876C36.5288 21.7731 37.245 21.8659 37.9351 22.0627V22.0627L44.2039 23.7824C43.7318 24.5206 43.3875 25.3313 43.1852 26.1812C41.0704 25.35 38.8385 24.8454 36.5681 24.6852C36.3486 24.6699 36.1282 24.6975 35.9194 24.7664C35.7107 24.8353 35.5178 24.9441 35.3516 25.0866C35.0161 25.3744 34.8101 25.7821 34.7789 26.2199C34.7477 26.6578 34.8939 27.0899 35.1854 27.4212C35.4769 27.7526 35.8897 27.9561 36.333 27.9868C38.7143 28.153 41.0422 28.7628 43.1939 29.7838C43.6404 31.5338 44.6825 33.0789 46.1455 34.1603C46.5024 34.4014 46.9397 34.4974 47.3664 34.4283C47.7932 34.3592 48.1765 34.1303 48.4367 33.7892C48.6969 33.4481 48.8139 33.0211 48.7633 32.5969C48.7128 32.1728 48.4987 31.7842 48.1655 31.5121C47.6087 31.1001 47.1552 30.5674 46.8398 29.955C46.5244 29.3427 46.3556 28.667 46.3463 27.98C46.3371 27.293 46.4876 26.6132 46.7864 25.9927C47.0852 25.3723 47.5242 24.8279 48.0697 24.4014C48.8865 24.3946 49.7005 24.3053 50.4989 24.1349V24.1349L57.9257 22.4754C58.5363 22.3588 59.1594 22.3184 59.7802 22.3551V22.3551L63.5589 22.527H63.8637C64.1918 22.9531 64.4299 23.4399 64.564 23.9585C64.6981 24.4771 64.7253 25.0171 64.6441 25.5463C64.5629 26.0756 64.3749 26.5833 64.0913 27.0394C63.8077 27.4956 63.4342 27.8909 62.993 28.2018C62.81 28.3271 62.6539 28.4868 62.5334 28.6717C62.413 28.8567 62.3306 29.0632 62.291 29.2796C62.211 29.7166 62.31 30.167 62.5664 30.5319C62.8227 30.8967 63.2153 31.1461 63.6578 31.2251C64.1003 31.3041 64.5564 31.2063 64.9259 30.9532C66.3066 29.9851 67.3085 28.5777 67.7634 26.9669C68.2184 25.3561 68.0988 23.6398 67.4247 22.1057C67.9125 21.9374 68.3869 21.7333 68.8439 21.4953V21.4953L71.4559 20.2743L71.8303 22.5786C72.029 23.8102 71.8783 25.0721 71.395 26.2242L70.4285 28.5285C69.6273 30.4301 69.3887 32.5171 69.7407 34.5472V34.5472L70.5243 39.3019C70.8147 40.8339 70.5464 42.4178 69.7668 43.773V43.773C68.5289 45.8879 67.5164 48.1239 66.7456 50.4451L65.3003 48.244C64.5314 47.0664 63.3705 46.1907 62.0178 45.7677L57.0376 44.1599C56.3577 43.9273 55.7858 43.4602 55.4269 42.8444V42.8444L53.9815 40.4111C53.876 40.2085 53.7294 40.0294 53.5507 39.8852C53.3721 39.741 53.1652 39.6346 52.9432 39.5728C52.7211 39.511 52.4885 39.495 52.2598 39.5258C52.0312 39.5566 51.8114 39.6336 51.6143 39.752C51.4171 39.8704 51.2467 40.0276 51.1138 40.2138C50.9808 40.4 50.8881 40.6113 50.8415 40.8345C50.7948 41.0577 50.7952 41.2879 50.8426 41.5109C50.89 41.7339 50.9834 41.9449 51.117 42.1307L52.5362 44.5382C53.3139 45.8573 54.5522 46.8509 56.0189 47.3326V47.3326L61.0079 48.9404C61.6284 49.134 62.1612 49.5354 62.5141 50.0754V50.0754L65.6398 54.8129C65.5092 55.4922 65.396 56.18 65.3003 56.8679C65.2441 57.2149 65.0639 57.5305 64.7924 57.7576C64.5209 57.9848 64.176 58.1084 63.8201 58.106H63.7069H62.5925C61.5128 58.106 60.3984 58.1576 59.2752 58.2264L57.0202 58.3983L55.9057 58.4671H55.8012C54.5427 58.612 53.2683 58.4003 52.127 57.8567V57.8567C50.7893 57.214 49.3251 56.8691 47.8376 56.8461C46.3502 56.8231 44.8757 57.1226 43.5183 57.7236C42.1608 58.3246 40.9534 59.2124 39.9812 60.3243C39.009 61.4362 38.2957 62.7453 37.8915 64.1591V64.1591C37.6737 65.0069 37.5166 65.8689 37.4214 66.7385C35.8939 66.7828 34.3663 66.6558 32.8678 66.3602ZM75.1737 72.3789H75.0779L71.2121 72.8776C69.3059 73.146 67.4767 73.8018 65.8401 74.8035C64.3866 75.675 62.715 76.1272 61.0147 76.109C59.3144 76.0908 57.6532 75.6028 56.2192 74.7003L51.0387 70.9344C50.81 70.769 50.5506 70.6496 50.2752 70.5832C49.9998 70.5168 49.7139 70.5046 49.4338 70.5474C49.1536 70.5901 48.8847 70.6869 48.6425 70.8322C48.4002 70.9775 48.1893 71.1686 48.0218 71.3944C47.8543 71.6202 47.7335 71.8764 47.6662 72.1483C47.599 72.4203 47.5866 72.7026 47.6299 72.9793C47.6731 73.2559 47.7712 73.5214 47.9183 73.7607C48.0655 73.9999 48.2589 74.2082 48.4876 74.3736L51.7439 76.7381L49.5411 80.8738C48.9112 82.0703 48.786 83.4642 49.1929 84.7515V84.7515L49.6978 86.3594C49.7282 86.4837 49.7282 86.6134 49.6978 86.7377V86.7377L48.9839 90.5467C48.9669 90.6965 48.9059 90.8382 48.8084 90.9543C48.711 91.0704 48.5813 91.1558 48.4354 91.2001C48.2818 91.2426 48.1194 91.2426 47.9659 91.2001C47.8124 91.1576 47.6736 91.0744 47.5647 90.9594L46.2413 89.4461C45.1501 88.1977 44.3915 86.7002 44.0342 85.0893C43.677 83.4784 43.7323 81.8048 44.1952 80.2203C44.3851 79.5612 44.4352 78.8705 44.3423 78.1914C44.2494 77.5124 44.0156 76.8595 43.6554 76.2738C42.3139 74.0462 41.5985 71.5055 41.5832 68.9138V68.7849C41.5862 67.6252 41.7324 66.4703 42.0185 65.3456C42.2505 64.5246 42.6631 63.7642 43.2268 63.1186C43.7905 62.4731 44.4914 61.9583 45.2797 61.6109C46.068 61.2636 46.9241 61.0923 47.7871 61.1092C48.6501 61.126 49.4988 61.3307 50.2725 61.7086V61.7086C51.758 62.405 53.3819 62.7663 55.0263 62.7662C55.4237 62.7878 55.8219 62.7878 56.2192 62.7662V62.7662L57.351 62.6802C58.065 62.62 58.8051 62.5512 59.519 62.5082C60.5464 62.4394 61.5651 62.4223 62.6447 62.3965C63.0104 62.3965 63.3848 62.3965 63.7505 62.3965C65.1471 62.3994 66.4976 61.9029 67.5523 60.9989C68.607 60.0948 69.2947 58.8442 69.4882 57.4783C70.0307 53.4212 71.3769 49.5091 73.4497 45.9655V45.9655C74.7217 43.7528 75.1713 41.1709 74.7209 38.6657L74.007 33.8679C73.7903 32.6206 73.9383 31.338 74.4336 30.1708V30.1708L75.4 27.8579C76.1804 25.9902 76.4186 23.9448 76.0879 21.951L75.5655 18.9158L76.767 18.7095C77.0578 18.6765 77.3386 18.5852 77.5925 18.4413C77.8463 18.2973 78.0676 18.1037 78.243 17.8724C78.4184 17.641 78.5442 17.3767 78.6125 17.0956C78.6809 16.8146 78.6904 16.5227 78.6406 16.2379C78.5907 15.9531 78.4825 15.6814 78.3226 15.4393C78.1627 15.1972 77.9544 14.9899 77.7106 14.8301C77.4667 14.6703 77.1924 14.5613 76.9044 14.5098C76.6164 14.4584 76.3208 14.4655 76.0356 14.5308L73.9983 14.8747C72.966 14.9912 71.9617 15.282 71.0293 15.7345V15.7345L67.0416 17.6863C66.026 18.1486 64.9102 18.3554 63.794 18.2882L60.0066 18.056C58.9956 18.005 57.9823 18.0889 56.9941 18.3054L49.5672 19.9648C48.4829 20.2017 47.3565 20.1752 46.2848 19.8874V19.8874L39.0931 17.9614C37.9623 17.6382 36.7869 17.4932 35.6104 17.5315L31.6575 17.7379C30.4483 17.7947 29.2456 17.5305 28.1749 16.9727L25.6847 15.6657C23.8837 14.6977 21.8469 14.2395 19.799 14.3416V14.3416C19.1126 14.3846 18.4236 14.3528 17.7442 14.2471C16.975 14.0917 16.2406 13.8004 15.5762 13.3873C15.0807 13.1227 14.4998 13.0608 13.9585 13.2148C13.4171 13.3688 12.9586 13.7264 12.6815 14.2107C12.4043 14.695 12.3307 15.2674 12.4763 15.8048C12.622 16.3422 12.9754 16.8016 13.4605 17.0844C14.2848 17.5505 15.1614 17.9199 16.0725 18.185C16.794 19.2312 17.2726 20.4218 17.4743 21.6717C17.676 22.9217 17.5957 24.2002 17.2392 25.416C16.7265 27.1465 16.6554 28.9754 17.0321 30.7397C17.4089 32.5039 18.2218 34.1487 19.3985 35.5274C20.1911 36.4454 20.7379 37.545 20.9888 38.7257C21.2398 39.9063 21.187 41.1302 20.8351 42.2855C20.3438 43.9092 20.2455 45.6241 20.5479 47.2923C20.8504 48.9604 21.5452 50.5351 22.5764 51.8896C23.7124 53.412 24.2306 55.299 24.0292 57.1796C23.8278 59.0602 22.9214 60.7984 21.4881 62.0525V62.0525C20.5401 62.8724 19.3999 63.4457 18.1708 63.7206C16.6601 64.0509 15.0885 63.99 13.6086 63.5438C12.1287 63.0976 10.7908 62.2811 9.72456 61.1737C8.65836 60.0663 7.90014 58.7056 7.52347 57.2235C7.1468 55.7414 7.16448 54.1883 7.57478 52.715C8.02896 51.106 8.10025 49.4151 7.78307 47.7744C7.46589 46.1337 6.76883 44.5877 5.74637 43.2571C4.91584 42.1556 4.41719 40.8449 4.30783 39.4759C4.19846 38.1069 4.48283 36.7352 5.1282 35.5188C5.86204 34.1479 6.29203 32.6384 6.38961 31.0907C6.48718 29.543 6.25011 27.9926 5.69413 26.5424C5.23573 25.3639 5.06925 24.0944 5.20859 22.8395C5.34793 21.5846 5.78904 20.3809 6.49515 19.3285C8.00441 17.0871 8.62435 14.375 8.23649 11.7106V11.7106C8.05654 10.5109 8.22055 9.28532 8.70991 8.17291C9.19927 7.0605 9.99442 6.10572 11.0052 5.41681C12.0222 4.73306 13.2102 4.33923 14.439 4.27856C15.6677 4.21789 16.8896 4.49272 17.9706 5.07288L23.4036 8.45194L23.5168 8.51212C24.52 9.03673 25.6379 9.31123 26.7731 9.31175C28.103 9.31182 29.4052 8.93589 30.5257 8.22839C31.2744 7.81866 32.1376 7.66002 32.9854 7.77631C33.8333 7.89259 34.62 8.27753 35.2273 8.87324C36.0379 9.7432 37.0234 10.4365 38.1209 10.9088C39.2183 11.3811 40.4035 11.622 41.6006 11.616C43.1258 11.6264 44.627 11.241 45.954 10.4983V10.4983C46.1567 10.3959 46.3661 10.3068 46.5808 10.2317L46.7898 10.1544L48.5311 9.45792C49.3009 9.15428 50.1227 8.99957 50.9516 9.00222V9.00222L59.7628 8.95063C61.8125 8.94452 63.8201 8.37595 65.5615 7.30839V7.30839C66.6568 6.61353 67.8984 6.17487 69.1915 6.02586C70.4847 5.87685 71.7952 6.02143 73.0231 6.44858V6.44858C74.2345 6.88215 75.5133 7.1033 76.8018 7.10204H77.0369C77.982 7.08411 78.9197 7.27012 79.7845 7.64707C80.6493 8.02403 81.4203 8.58284 82.0438 9.2845C82.6672 9.98616 83.1281 10.8138 83.3942 11.7095C83.6603 12.6052 83.7252 13.5475 83.5844 14.4706C83.5802 14.4847 83.5802 14.4996 83.5844 14.5136V14.5136L82.5918 23.3954C82.364 25.4564 82.5444 27.5415 83.1229 29.5345V29.5345L84.2461 33.3607C84.7889 35.1974 84.8607 37.1386 84.455 39.0096V39.0096L83.6366 42.8788C83.0738 45.5498 83.236 48.3202 84.1068 50.9094C84.5689 52.3208 84.6837 53.8207 84.4414 55.2846C84.1991 56.7485 83.6068 58.1343 82.7137 59.3269C81.0004 61.632 80.0515 64.4042 79.9972 67.263C79.9603 68.5525 79.4512 69.785 78.5642 70.7321C77.6772 71.6791 76.4726 72.2764 75.1737 72.4133V72.3789Z" fill="#692300"/>
<path d="M56.9419 34.0743C57.53 34.2405 58.0748 34.5301 58.5391 34.9233C59.0035 35.3166 59.3763 35.8042 59.6322 36.3528V36.3528C60.5632 38.3269 61.8162 40.1366 63.3413 41.7094C63.4971 41.8719 63.6847 42.0015 63.8928 42.0902C64.1008 42.1788 64.3249 42.2248 64.5515 42.2253C64.8804 42.2256 65.2021 42.1305 65.4768 41.9519C65.7515 41.7734 65.9671 41.5191 66.0968 41.2207C66.2266 40.9223 66.2648 40.5928 66.2068 40.2732C66.1488 39.9535 65.9971 39.6577 65.7705 39.4223C64.5012 38.1127 63.4598 36.6049 62.6883 34.9599C62.2283 33.979 61.5591 33.1078 60.7266 32.4059C59.8941 31.704 58.9179 31.1879 57.8648 30.893V30.893C57.2673 30.7259 56.7301 30.3948 56.3155 29.9382C55.9009 29.4816 55.626 28.9183 55.5227 28.3136C55.4289 27.898 55.1769 27.5339 54.8189 27.2967C54.4609 27.0594 54.0242 26.9672 53.5992 27.039C53.1742 27.1107 52.7935 27.3411 52.5357 27.6824C52.2779 28.0236 52.1627 28.4497 52.2141 28.8725C52.4275 30.0907 52.9842 31.2248 53.8204 32.1449C54.6566 33.0649 55.7384 33.7336 56.9419 34.0743V34.0743Z" fill="#692300"/>
<path d="M41.4004 43.9449C41.6015 45.1396 42.0911 46.2689 42.8276 47.2372C43.5642 48.2055 44.526 48.9844 45.6319 49.5079V49.5079C46.5829 49.9526 47.4295 50.5884 48.1176 51.3745C48.8057 52.1607 49.3202 53.0799 49.6283 54.0735C49.7315 54.4162 49.944 54.7169 50.2342 54.9307C50.5245 55.1445 50.8769 55.26 51.239 55.26C51.401 55.2583 51.5621 55.2351 51.7179 55.1912C52.1437 55.0639 52.5015 54.7757 52.7134 54.3893C52.9254 54.0029 52.9744 53.5495 52.8497 53.1277C52.4114 51.6933 51.6746 50.3651 50.6866 49.228C49.6986 48.091 48.4811 47.1701 47.112 46.5244V46.5244C46.4945 46.2264 45.9571 45.7882 45.544 45.2457C45.1308 44.7032 44.8536 44.0718 44.7351 43.4032C44.4449 41.6786 43.6444 40.0774 42.4343 38.8013C41.2242 37.5253 39.6588 36.6314 37.9352 36.2324C37.5142 36.1629 37.0822 36.2543 36.727 36.4878C36.3717 36.7214 36.1197 37.0797 36.0222 37.49C35.9247 37.9004 35.989 38.332 36.2019 38.6972C36.4149 39.0625 36.7606 39.334 37.169 39.4567C38.2431 39.711 39.2174 40.2724 39.97 41.0707C40.7227 41.869 41.2202 42.8688 41.4004 43.9449V43.9449Z" fill="#692300"/>
<path d="M34.5917 48.4332C34.1765 48.2603 33.8136 47.9843 33.5383 47.632C33.263 47.2796 33.0847 46.863 33.0207 46.4224C32.9567 45.9819 33.0093 45.5326 33.1732 45.118C33.3371 44.7035 33.6068 44.3379 33.9562 44.0567C34.287 43.7807 34.4972 43.3891 34.5427 42.9637C34.5883 42.5383 34.4658 42.1119 34.2007 41.7736C33.9356 41.4353 33.5484 41.2112 33.12 41.1479C32.6916 41.0847 32.255 41.1873 31.9014 41.4343C31.067 42.0729 30.4207 42.9202 30.0294 43.8884C29.6381 44.8566 29.5161 45.9105 29.6759 46.9409C29.8358 47.9713 30.2717 48.9408 30.9385 49.7489C31.6054 50.5571 32.4789 51.1744 33.4686 51.5371C33.6536 51.612 33.8519 51.65 34.0519 51.6488C34.4462 51.6489 34.828 51.512 35.1303 51.2621C35.4327 51.0122 35.6365 50.6653 35.7061 50.282C35.7756 49.8988 35.7064 49.5036 35.5107 49.1656C35.3149 48.8276 35.005 48.5683 34.6353 48.4332H34.5917Z" fill="#692300"/>
</g>
<defs>
<clipPath id="clip0_21_56">
<rect width="89" height="95.4906" fill="white"/>
</clipPath>
</defs>
</svg>
