<svg width="100" height="107" viewBox="0 0 100 107" fill="none" xmlns="http://www.w3.org/2000/svg">
<g clip-path="url(#clip0_21_56)">
<path d="M98.4944 55.4214C97.7783 53.3114 97.644 51.0512 98.1055 48.873V48.873L99.0195 44.5522C99.6335 41.6889 99.5199 38.72 98.6889 35.9106V35.9106L97.4249 31.6858C96.9505 30.0558 96.8051 28.3495 96.9971 26.6641L98.0764 16.8031C98.3184 15.1082 98.1873 13.3816 97.6919 11.7413C97.1965 10.101 96.3485 8.58563 95.2058 7.29858C94.0631 6.01153 92.6526 4.98314 91.0706 4.28364C89.4887 3.58414 87.7725 3.23 86.0392 3.2454V3.2454C85.1029 3.26931 84.1702 3.12285 83.2876 2.81332V2.81332C81.2314 2.07245 79.0304 1.8075 76.8542 2.03889C74.678 2.27028 72.5845 2.99183 70.7352 4.14796V4.14796C69.5379 4.87312 68.1629 5.26156 66.7584 5.27137V5.27137L56.9284 5.32898C55.4143 5.3368 53.9147 5.61998 52.5045 6.16433V6.16433L50.5598 6.95168L50.3654 7.02849C49.9074 7.19496 49.4622 7.39391 49.0333 7.6238V7.6238C48.0597 8.19853 46.9147 8.42266 45.7927 8.25813C44.6708 8.0936 43.6411 7.55054 42.8786 6.72124C42.8786 6.72124 42.8786 6.72124 42.83 6.72124V6.66363L42.762 6.60602C41.3551 5.21514 39.5292 4.31255 37.5586 4.0338C35.588 3.75506 33.579 4.11519 31.8333 5.06013V5.06013H31.7652H31.6971H31.6291C31.1845 5.35302 30.6685 5.52267 30.1349 5.55138C29.6013 5.5801 29.0696 5.46681 28.5955 5.22336L22.5283 1.5939H22.47H22.4116C20.4374 0.508918 18.196 -0.01115 15.9391 0.0920795C13.6822 0.195309 11.4991 0.917749 9.63487 2.17829C7.77067 3.43884 6.29917 5.18758 5.38557 7.2282C4.47198 9.26882 4.15247 11.5205 4.4629 13.7305V13.7305C4.72539 15.5558 4.29604 17.4125 3.25724 18.9443C2.04857 20.749 1.29286 22.8123 1.05275 24.963C0.812641 27.1137 1.09505 29.2899 1.87657 31.3114C2.25537 32.3033 2.41575 33.3636 2.34701 34.4216C2.27827 35.4795 1.98199 36.5109 1.47793 37.4469C0.344212 39.5967 -0.153984 42.0181 0.0403122 44.4343C0.234608 46.8506 1.11355 49.164 2.57663 51.1102C3.29259 52.0181 3.78406 53.0785 4.01194 54.207C4.23981 55.3355 4.1978 56.5009 3.88924 57.6106C3.2012 60.0357 3.15906 62.5952 3.7669 65.0411C4.37474 67.4871 5.61195 69.7365 7.35869 71.5716C9.10543 73.4066 11.3025 74.7651 13.737 75.5153C16.1715 76.2656 18.761 76.3822 21.2546 75.8539V75.8539C22.7263 75.5197 24.13 74.9418 25.4063 74.1448C30.0757 77.5617 35.735 79.4033 41.5466 79.397H41.8091C42.1573 82.3203 43.1282 85.1378 44.658 87.6641V87.6641C44.7679 87.871 44.7923 88.1119 44.726 88.3362C43.9939 90.8595 43.9101 93.5231 44.4822 96.0864C45.0543 98.6497 46.2643 101.032 48.0027 103.017V103.017L49.5 104.659C50.0459 105.262 50.7141 105.744 51.4613 106.075C52.2084 106.406 53.0177 106.578 53.8365 106.58C55.1676 106.577 56.4553 106.112 57.474 105.266C58.4926 104.419 59.1772 103.246 59.4078 101.952V101.952L60.2051 97.6979C60.3898 96.8053 60.3464 95.8813 60.0787 95.0094V95.0094L59.5148 93.2139C59.4385 92.9755 59.4595 92.7172 59.5731 92.4938L61.8094 88.3362C64.0555 89.382 66.5285 89.8635 69.0085 89.7378C71.4884 89.6122 73.8985 88.8833 76.0245 87.6161C77.2904 86.8531 78.6992 86.3502 80.1665 86.1374L84.4738 85.5805C87.0816 85.3247 89.5036 84.1322 91.2799 82.2295C93.0983 80.3077 94.1366 77.7921 94.1969 75.1626C94.2207 72.9466 94.941 70.7926 96.2581 68.9983V68.9983C97.6856 67.0682 98.632 64.8329 99.0205 62.4739C99.4091 60.1149 99.2288 57.6987 98.4944 55.4214V55.4214ZM36.7045 74.1064C37.2691 73.5024 37.693 72.7838 37.9466 72.0009C38.2003 71.218 38.2774 70.3898 38.1727 69.5744V69.5744L38.056 68.5566C37.9977 68.1432 38.07 67.7221 38.2632 67.3509C38.4564 66.9797 38.761 66.6764 39.1353 66.4826L42.198 64.8599C42.4261 64.7514 42.6297 64.5985 42.7964 64.4103C42.9631 64.2221 43.0895 64.0026 43.168 63.7649C43.2465 63.5272 43.2755 63.2762 43.2532 63.0272C43.2309 62.7781 43.1578 62.5361 43.0383 62.3157C42.9189 62.0953 42.7554 61.901 42.5579 61.7446C42.3604 61.5881 42.1329 61.4728 41.8891 61.4055C41.6452 61.3382 41.3901 61.3203 41.1391 61.3529C40.8881 61.3856 40.6463 61.468 40.4284 61.5953L37.356 63.2276C36.3242 63.7768 35.4839 64.6201 34.9445 65.6477C34.4052 66.6753 34.1918 67.8395 34.3321 68.9887V68.9887L34.439 69.9488C34.5092 70.3552 34.4484 70.773 34.2652 71.1434C34.082 71.5138 33.7857 71.818 33.4181 72.0132V72.0132L32.3291 72.6373C31.1803 72.1184 30.0777 71.505 29.033 70.8034C30.7297 68.5365 31.6453 65.792 31.6453 62.9732C31.6453 60.1543 30.7297 57.4098 29.033 55.1429C28.3348 54.215 27.8657 53.1389 27.6632 52.0004C27.4606 50.8618 27.5302 49.6923 27.8663 48.5849C28.4212 46.753 28.5539 44.8217 28.2544 42.9325C27.9549 41.0434 27.2309 39.2445 26.1356 37.6677C28.376 36.0501 31.0932 35.2057 33.8679 35.2647C36.6425 35.3237 39.3204 36.2829 41.4882 37.9942C41.6798 38.1467 41.8999 38.2606 42.1359 38.3291C42.372 38.3977 42.6194 38.4197 42.8641 38.3939C43.1088 38.368 43.3459 38.2948 43.5619 38.1785C43.778 38.0621 43.9687 37.9049 44.1232 37.7157C44.2777 37.5266 44.393 37.3092 44.4624 37.0761C44.5318 36.843 44.5541 36.5986 44.5279 36.357C44.5017 36.1154 44.4276 35.8812 44.3098 35.6679C44.192 35.4546 44.0327 35.2662 43.8412 35.1136C40.6656 32.5611 36.6285 31.2916 32.543 31.561C32.0578 31.5879 31.5743 31.6392 31.0943 31.7146C30.9492 31.1745 30.9166 30.611 30.9985 30.0581C31.0804 29.5052 31.275 28.9744 31.5707 28.498C31.7163 28.2918 31.8176 28.0584 31.8685 27.812C31.9193 27.5657 31.9186 27.3118 31.8664 27.0657C31.8142 26.8197 31.7116 26.5868 31.5649 26.3814C31.4182 26.1759 31.2305 26.0023 31.0133 25.8711C30.7961 25.74 30.5541 25.6541 30.3021 25.6187C30.0501 25.5833 29.7934 25.5991 29.5478 25.6653C29.3022 25.7315 29.073 25.8466 28.8741 26.0035C28.6752 26.1604 28.5109 26.3558 28.3913 26.5777C27.8218 27.4859 27.4476 28.5002 27.2921 29.5574C27.1365 30.6146 27.2029 31.692 27.4871 32.7228C26.2675 33.1955 25.1115 33.8147 24.0451 34.5663C23.4268 33.0129 23.3481 31.3006 23.8215 29.6983C24.6748 26.7594 24.5591 23.6286 23.4909 20.759C24.5121 20.8818 25.5012 21.1911 26.4078 21.6712L29.1886 23.1306C30.9779 24.0718 32.9757 24.56 35.003 24.5517H35.5766L39.9909 24.3309C40.7929 24.3147 41.5927 24.4183 42.3633 24.6381V24.6381L49.3639 26.5585C48.8367 27.3828 48.4522 28.2882 48.2263 29.2374C45.8646 28.3091 43.3722 27.7456 40.8368 27.5667C40.5916 27.5496 40.3455 27.5805 40.1124 27.6574C39.8793 27.7343 39.6639 27.8558 39.4783 28.015C39.1036 28.3364 38.8735 28.7916 38.8387 29.2806C38.8039 29.7695 38.9672 30.2521 39.2927 30.6221C39.6182 30.9922 40.0792 31.2194 40.5743 31.2537C43.2335 31.4393 45.8332 32.1202 48.236 33.2605C48.7346 35.2147 49.8984 36.9402 51.5321 38.1478C51.9307 38.4171 52.419 38.5243 52.8956 38.4471C53.3721 38.37 53.8002 38.1143 54.0908 37.7334C54.3813 37.3525 54.512 36.8756 54.4556 36.402C54.3992 35.9283 54.16 35.4944 53.7879 35.1905C53.1662 34.7304 52.6597 34.1355 52.3075 33.4517C51.9553 32.7678 51.7667 32.0133 51.7564 31.2461C51.7461 30.479 51.9142 29.7197 52.2479 29.0269C52.5815 28.334 53.0718 27.726 53.6809 27.2498C54.5931 27.2422 55.5021 27.1425 56.3937 26.9521V26.9521L64.6874 25.099C65.3693 24.9687 66.0651 24.9236 66.7584 24.9646V24.9646L70.9782 25.1566H71.3185C71.685 25.6324 71.9509 26.176 72.1006 26.7552C72.2504 27.3344 72.2808 27.9373 72.1901 28.5283C72.0994 29.1194 71.8895 29.6864 71.5728 30.1958C71.256 30.7052 70.8389 31.1466 70.3462 31.4938C70.1419 31.6337 69.9676 31.8121 69.833 32.0186C69.6985 32.2251 69.6065 32.4558 69.5623 32.6974C69.473 33.1854 69.5836 33.6884 69.8698 34.0959C70.156 34.5033 70.5945 34.7818 71.0886 34.87C71.5828 34.9582 72.0922 34.849 72.5047 34.5663C74.0467 33.4852 75.1655 31.9135 75.6735 30.1147C76.1816 28.3159 76.048 26.3993 75.2953 24.6861C75.84 24.4981 76.3697 24.2703 76.8801 24.0044V24.0044L79.797 22.641L80.2151 25.2142C80.4371 26.5896 80.2688 27.9987 79.729 29.2854L78.6497 31.8587C77.7549 33.9822 77.4886 36.3128 77.8816 38.5799V38.5799L78.7567 43.8897C79.081 45.6004 78.7813 47.3693 77.9108 48.8826V48.8826C76.5283 51.2444 75.3976 53.7414 74.5369 56.3335L72.9228 53.8755C72.0642 52.5605 70.7678 51.5825 69.2573 51.1102L63.6957 49.3147C62.9365 49.0549 62.2977 48.5333 61.8969 47.8456V47.8456L60.2829 45.1283C60.165 44.902 60.0013 44.7021 59.8018 44.541C59.6023 44.3799 59.3713 44.2612 59.1233 44.1921C58.8753 44.1231 58.6155 44.1052 58.3602 44.1396C58.1049 44.1741 57.8595 44.26 57.6393 44.3922C57.4191 44.5244 57.2288 44.7 57.0803 44.908C56.9319 45.1159 56.8284 45.3519 56.7763 45.6011C56.7242 45.8503 56.7246 46.1075 56.7775 46.3565C56.8305 46.6055 56.9348 46.8412 57.084 47.0486L58.6689 49.7371C59.5373 51.2103 60.9202 52.3199 62.5581 52.8577V52.8577L68.1294 54.6532C68.8224 54.8694 69.4173 55.3177 69.8115 55.9207V55.9207L73.302 61.2112C73.1562 61.9698 73.0298 62.7379 72.9228 63.5061C72.8601 63.8936 72.6589 64.246 72.3557 64.4997C72.0525 64.7533 71.6673 64.8913 71.2699 64.8887H71.1435H69.899C68.6933 64.8887 67.4488 64.9463 66.1945 65.0231L63.6762 65.2152L62.4317 65.292H62.315C60.9095 65.4538 59.4864 65.2173 58.2119 64.6103V64.6103C56.718 63.8926 55.0828 63.5074 53.4218 63.4817C51.7607 63.456 50.1142 63.7906 48.5983 64.4617C47.0824 65.1328 45.734 66.1242 44.6483 67.3659C43.5626 68.6077 42.766 70.0695 42.3147 71.6484V71.6484C42.0714 72.5952 41.896 73.5577 41.7897 74.5289C40.0839 74.5783 38.3779 74.4366 36.7045 74.1064ZM83.9488 80.8276H83.8418L79.5248 81.3845C77.3961 81.6843 75.3534 82.4167 73.5257 83.5353C71.9025 84.5085 70.0358 85.0136 68.137 84.9932C66.2382 84.9728 64.3831 84.4279 62.7817 83.4201L56.9965 79.2145C56.7411 79.0298 56.4514 78.8966 56.1439 78.8224C55.8364 78.7483 55.5171 78.7346 55.2042 78.7823C54.8914 78.83 54.5911 78.9381 54.3206 79.1004C54.05 79.2627 53.8145 79.4761 53.6275 79.7282C53.4404 79.9804 53.3055 80.2665 53.2304 80.5702C53.1553 80.8739 53.1415 81.1892 53.1898 81.4981C53.2381 81.8071 53.3476 82.1036 53.5119 82.3708C53.6763 82.6379 53.8923 82.8705 54.1476 83.0552L57.7841 85.6957L55.3241 90.3142C54.6207 91.6503 54.4808 93.207 54.9352 94.6446V94.6446L55.4992 96.4401C55.533 96.5789 55.533 96.7237 55.4992 96.8626V96.8626L54.7019 101.116C54.6829 101.283 54.6148 101.442 54.5059 101.571C54.3971 101.701 54.2523 101.796 54.0893 101.846C53.9179 101.893 53.7365 101.893 53.565 101.846C53.3936 101.798 53.2386 101.705 53.117 101.577L51.6391 99.8871C50.4205 98.493 49.5734 96.8207 49.1744 95.0218C48.7755 93.2228 48.8372 91.3539 49.3542 89.5844C49.5663 88.8484 49.6222 88.0771 49.5185 87.3187C49.4147 86.5604 49.1536 85.8313 48.7514 85.1772C47.2532 82.6896 46.4544 79.8524 46.4373 76.9581V76.8141C46.4406 75.5191 46.6039 74.2294 46.9234 72.9734C47.1825 72.0565 47.6432 71.2073 48.2727 70.4864C48.9022 69.7655 49.685 69.1907 50.5653 68.8028C51.4456 68.4149 52.4017 68.2236 53.3654 68.2424C54.3292 68.2613 55.2768 68.4898 56.1409 68.9118V68.9118C57.7998 69.6896 59.6133 70.093 61.4497 70.0929C61.8933 70.117 62.338 70.117 62.7817 70.0929V70.0929L64.0457 69.9968C64.843 69.9296 65.6695 69.8528 66.4667 69.8048C67.6141 69.728 68.7517 69.7088 69.9573 69.68C70.3657 69.68 70.7838 69.68 71.1921 69.68C72.7518 69.6832 74.2599 69.1288 75.4378 68.1192C76.6156 67.1097 77.3835 65.7131 77.5996 64.1878C78.2055 59.657 79.7088 55.2883 82.0236 51.331V51.331C83.4441 48.86 83.9462 45.9768 83.4432 43.1791L82.6459 37.8213C82.4039 36.4284 82.5692 34.9961 83.1223 33.6926V33.6926L84.2016 31.1097C85.073 29.024 85.339 26.7399 84.9697 24.5133L84.3863 21.1239L85.7281 20.8934C86.0528 20.8566 86.3665 20.7547 86.6499 20.5939C86.9333 20.4332 87.1805 20.217 87.3764 19.9586C87.5723 19.7002 87.7127 19.4051 87.789 19.0912C87.8654 18.7774 87.876 18.4514 87.8204 18.1334C87.7647 17.8153 87.6439 17.5119 87.4653 17.2415C87.2867 16.9712 87.0541 16.7397 86.7818 16.5612C86.5095 16.3828 86.2031 16.2611 85.8815 16.2036C85.5599 16.1461 85.2298 16.1541 84.9114 16.227L82.6362 16.6111C81.4834 16.7411 80.3619 17.0659 79.3206 17.5712V17.5712L74.8674 19.7508C73.7333 20.2671 72.4873 20.498 71.2408 20.423L67.0112 20.1637C65.8823 20.1067 64.7507 20.2004 63.6471 20.4422L55.3533 22.2953C54.1424 22.5599 52.8845 22.5302 51.6877 22.2089V22.2089L43.6565 20.0581C42.3937 19.6971 41.0812 19.5351 39.7673 19.578L35.353 19.8084C34.0026 19.8719 32.6596 19.5768 31.4638 18.9539L28.683 17.4944C26.6717 16.4133 24.3972 15.9016 22.1102 16.0157V16.0157C21.3437 16.0637 20.5742 16.0282 19.8156 15.9101C18.9566 15.7366 18.1365 15.4113 17.3945 14.9499C16.8411 14.6546 16.1924 14.5854 15.5879 14.7574C14.9834 14.9293 14.4714 15.3287 14.1618 15.8695C13.8523 16.4104 13.7701 17.0496 13.9328 17.6497C14.0955 18.2498 14.4901 18.7629 15.0318 19.0787C15.9523 19.5992 16.9313 20.0117 17.9488 20.3077C18.7544 21.476 19.2889 22.8056 19.5142 24.2015C19.7394 25.5973 19.6497 27.0251 19.2516 28.3828C18.6791 30.3153 18.5997 32.3577 19.0204 34.3279C19.4411 36.2981 20.349 38.1349 21.663 39.6745C22.5481 40.6996 23.1587 41.9276 23.439 43.2461C23.7192 44.5646 23.6602 45.9314 23.2673 47.2215C22.7187 49.0347 22.6088 50.9498 22.9466 52.8127C23.2843 54.6755 24.0603 56.434 25.2119 57.9466C26.4804 59.6468 27.0591 61.754 26.8342 63.8542C26.6093 65.9543 25.5971 67.8954 23.9965 69.2959V69.2959C22.9378 70.2115 21.6645 70.8517 20.292 71.1587C18.6049 71.5276 16.8499 71.4596 15.1972 70.9613C13.5446 70.4629 12.0504 69.5512 10.8598 68.3145C9.66914 67.0779 8.82241 65.5583 8.40177 63.9032C7.98114 62.2481 8.00087 60.5137 8.45907 58.8684C8.96627 57.0716 9.04587 55.1833 8.69167 53.3511C8.33746 51.5189 7.55904 49.7924 6.41723 48.3065C5.48976 47.0764 4.9329 45.6128 4.81077 44.0839C4.68864 42.5551 5.0062 41.0233 5.7269 39.6649C6.5464 38.1339 7.02658 36.4483 7.13555 34.7199C7.24452 32.9916 6.97977 31.2602 6.35889 29.6406C5.84698 28.3247 5.66107 26.9069 5.81668 25.5056C5.97228 24.1042 6.46488 22.7599 7.25341 21.5848C8.93885 19.0816 9.63115 16.053 9.19802 13.0776V13.0776C8.99707 11.7378 9.18021 10.3692 9.7267 9.12694C10.2732 7.88468 11.1612 6.81845 12.2899 6.04911C13.4256 5.28555 14.7524 4.84575 16.1245 4.778C17.4967 4.71025 18.8613 5.01716 20.0684 5.66504L26.1356 9.43854L26.262 9.50575C27.3823 10.0916 28.6307 10.3981 29.8984 10.3987C31.3836 10.3988 32.8377 9.97898 34.089 9.18889C34.9251 8.73134 35.8891 8.55417 36.8359 8.68404C37.7827 8.8139 38.6613 9.24377 39.3395 9.90902C40.2447 10.8805 41.3452 11.6547 42.5708 12.1822C43.7963 12.7096 45.1199 12.9786 46.4567 12.972C48.16 12.9836 49.8364 12.5532 51.3182 11.7238V11.7238C51.5447 11.6094 51.7785 11.5099 52.0183 11.4261L52.2517 11.3397L54.1963 10.5619C55.0559 10.2229 55.9736 10.0501 56.8993 10.053V10.053L66.739 9.99544C69.0279 9.98862 71.2699 9.35368 73.2145 8.1615V8.1615C74.4378 7.38553 75.8243 6.89566 77.2684 6.72926C78.7124 6.56286 80.1759 6.72432 81.5472 7.20132V7.20132C82.9 7.68551 84.3281 7.93247 85.767 7.93106H86.0295C87.0849 7.91104 88.1321 8.11876 89.0978 8.53972C90.0635 8.96067 90.9246 9.58472 91.6208 10.3683C92.3171 11.1518 92.8317 12.076 93.1289 13.0763C93.426 14.0766 93.4985 15.1289 93.3412 16.1598C93.3366 16.1754 93.3366 16.1921 93.3412 16.2078V16.2078L92.2328 26.1264C91.9784 28.428 92.1798 30.7564 92.8259 32.9821V32.9821L94.0802 37.2548C94.6864 39.306 94.7666 41.4738 94.3135 43.5632V43.5632L93.3996 47.884C92.7711 50.8668 92.9522 53.9606 93.9246 56.852C94.4408 58.4282 94.5689 60.1031 94.2983 61.738C94.0277 63.3728 93.3663 64.9203 92.3689 66.2522C90.4557 68.8263 89.396 71.9221 89.3353 75.1146C89.2942 76.5546 88.7256 77.931 87.7351 78.9886C86.7446 80.0462 85.3993 80.7133 83.9488 80.866V80.8276Z" fill="#692300"/>
<path d="M63.5887 38.0518C64.2454 38.2374 64.8538 38.5608 65.3723 38.9999C65.8909 39.439 66.3073 39.9836 66.5931 40.5963V40.5963C67.6326 42.8008 69.0319 44.8217 70.7351 46.5782C70.9091 46.7596 71.1186 46.9043 71.3509 47.0033C71.5832 47.1024 71.8335 47.1537 72.0866 47.1543C72.4538 47.1545 72.8131 47.0484 73.1198 46.849C73.4266 46.6495 73.6673 46.3656 73.8123 46.0324C73.9572 45.6991 73.9999 45.3312 73.9351 44.9742C73.8703 44.6173 73.7009 44.2869 73.4478 44.0241C72.0304 42.5615 70.8674 40.8778 70.0059 39.0408C69.4921 37.9454 68.7449 36.9725 67.8152 36.1886C66.8855 35.4048 65.7954 34.8285 64.6193 34.4991V34.4991C63.9521 34.3125 63.3521 33.9428 62.8892 33.4329C62.4262 32.923 62.1192 32.2939 62.0038 31.6186C61.899 31.1545 61.6176 30.748 61.2178 30.483C60.818 30.2181 60.3304 30.115 59.8558 30.1952C59.3812 30.2754 58.956 30.5326 58.6681 30.9137C58.3802 31.2948 58.2516 31.7706 58.309 32.2427C58.5473 33.6031 59.169 34.8697 60.1028 35.8971C61.0366 36.9246 62.2447 37.6714 63.5887 38.0518V38.0518Z" fill="#692300"/>
<path d="M46.2331 49.0746C46.4577 50.4087 47.0044 51.6698 47.8269 52.7512C48.6494 53.8325 49.7236 54.7023 50.9585 55.287V55.287C52.0205 55.7836 52.966 56.4936 53.7344 57.3715C54.5028 58.2494 55.0774 59.2759 55.4214 60.3855C55.5366 60.7683 55.774 61.104 56.0981 61.3428C56.4222 61.5816 56.8158 61.7105 57.2202 61.7105C57.4011 61.7086 57.5809 61.6827 57.7549 61.6337C58.2305 61.4915 58.63 61.1697 58.8667 60.7382C59.1034 60.3067 59.1581 59.8004 59.0189 59.3293C58.5294 57.7275 57.7066 56.2442 56.6033 54.9744C55.4999 53.7046 54.1403 52.6763 52.6114 51.9552V51.9552C51.9218 51.6224 51.3217 51.1331 50.8603 50.5273C50.399 49.9214 50.0894 49.2164 49.957 48.4697C49.633 46.5438 48.739 44.7557 47.3877 43.3306C46.0363 41.9056 44.2881 40.9074 42.3633 40.4618C41.8932 40.3843 41.4109 40.4862 41.0141 40.7471C40.6174 41.0079 40.336 41.408 40.2271 41.8663C40.1182 42.3245 40.19 42.8065 40.4278 43.2144C40.6657 43.6222 41.0517 43.9255 41.5077 44.0625C42.7072 44.3465 43.7952 44.9734 44.6357 45.8649C45.4763 46.7564 46.0319 47.8729 46.2331 49.0746V49.0746Z" fill="#692300"/>
<path d="M38.6296 54.0867C38.1658 53.8937 37.7606 53.5855 37.4531 53.192C37.1457 52.7986 36.9466 52.3333 36.8752 51.8413C36.8037 51.3494 36.8624 50.8476 37.0454 50.3846C37.2285 49.9217 37.5297 49.5134 37.9198 49.1995C38.2893 48.8912 38.524 48.4539 38.5749 47.9788C38.6257 47.5038 38.4889 47.0277 38.1929 46.6498C37.8968 46.272 37.4645 46.0217 36.9861 45.9511C36.5077 45.8805 36.0201 45.9951 35.6252 46.2709C34.6934 46.984 33.9717 47.9302 33.5347 49.0114C33.0977 50.0927 32.9615 51.2696 33.14 52.4203C33.3185 53.571 33.8053 54.6537 34.55 55.5561C35.2946 56.4586 36.2701 57.148 37.3753 57.553C37.582 57.6366 37.8034 57.6791 38.0268 57.6778C38.4671 57.6778 38.8934 57.5249 39.2311 57.2459C39.5688 56.9669 39.7963 56.5794 39.874 56.1514C39.9516 55.7234 39.8744 55.2821 39.6558 54.9046C39.4372 54.5272 39.0911 54.2377 38.6782 54.0867H38.6296Z" fill="#692300"/>
</g>
<defs>
<clipPath id="clip0_21_56">
<rect width="99.389" height="106.637" fill="white"/>
</clipPath>
</defs>
</svg>
