<svg width="78" height="83" viewBox="0 0 78 83" fill="none" xmlns="http://www.w3.org/2000/svg">
<g clip-path="url(#clip0_57_54)">
<path d="M72.6137 45.5445C72.0878 43.9992 71.9892 42.3438 72.3281 40.7485V40.7485L72.9992 37.584C73.4501 35.4869 73.3667 33.3125 72.7565 31.2549V31.2549L71.8283 28.1607C71.4799 26.9669 71.3732 25.7173 71.5141 24.4829L72.3067 17.2608C72.4844 16.0194 72.3881 14.7549 72.0244 13.5536C71.6606 12.3522 71.0378 11.2424 70.1987 10.2997C69.3596 9.3571 68.3238 8.60392 67.1621 8.09161C66.0004 7.57931 64.7402 7.31994 63.4674 7.33121V7.33121C62.7798 7.34873 62.0949 7.24145 61.4468 7.01476V7.01476C59.9368 6.47215 58.3205 6.27811 56.7225 6.44758C55.1244 6.61704 53.5871 7.1455 52.229 7.99224V7.99224C51.3499 8.52334 50.3401 8.80783 49.3088 8.81502V8.81502L42.0903 8.85721C40.9784 8.86294 39.8772 9.07033 38.8416 9.46902V9.46902L37.4136 10.0457L37.2708 10.1019C36.9345 10.2238 36.6076 10.3696 36.2926 10.5379V10.5379C35.5777 10.9588 34.7368 11.123 33.9129 11.0025C33.089 10.882 32.3329 10.4843 31.773 9.87689C31.773 9.87689 31.773 9.87689 31.7373 9.87689V9.83469L31.6873 9.7925C30.6542 8.77383 29.3134 8.11279 27.8663 7.90863C26.4192 7.70448 24.9439 7.96824 23.662 8.66031V8.66031H23.612H23.562H23.5121C23.1856 8.87481 22.8067 8.99907 22.4148 9.0201C22.023 9.04112 21.6326 8.95816 21.2844 8.77986L16.829 6.12166H16.7862H16.7434C15.2936 5.32703 13.6477 4.94614 11.9904 5.02174C10.333 5.09735 8.72988 5.62646 7.36092 6.54967C5.99197 7.47288 4.9114 8.75365 4.24051 10.2482C3.56963 11.7427 3.335 13.3918 3.56296 15.0104V15.0104C3.75572 16.3472 3.44043 17.7071 2.6776 18.8289C1.79003 20.1507 1.23508 21.6618 1.05876 23.237C0.882445 24.8121 1.08983 26.406 1.66373 27.8865C1.94189 28.613 2.05966 29.3895 2.00918 30.1644C1.95871 30.9392 1.74114 31.6946 1.37099 32.3801C0.538461 33.9546 0.172618 35.728 0.315297 37.4977C0.457975 39.2673 1.10341 40.9617 2.17781 42.387C2.70356 43.0519 3.06447 43.8286 3.2318 44.6551C3.39914 45.4816 3.36829 46.3351 3.1417 47.1478C2.63645 48.924 2.6055 50.7985 3.05186 52.5899C3.49822 54.3813 4.40675 56.0288 5.68944 57.3727C6.97214 58.7167 8.58551 59.7116 10.3733 60.2611C12.161 60.8106 14.0626 60.896 15.8937 60.5091V60.5091C16.9744 60.2643 18.0052 59.8411 18.9425 59.2574C22.3713 61.7599 26.5272 63.1087 30.7948 63.104H30.9876C31.2433 65.2451 31.9563 67.3086 33.0796 69.1588V69.1588C33.1604 69.3103 33.1783 69.4868 33.1296 69.651C32.592 71.4991 32.5305 73.4499 32.9506 75.3272C33.3707 77.2046 34.2592 78.9492 35.5358 80.4034V80.4034L36.6353 81.6059C37.0362 82.0473 37.5269 82.4006 38.0755 82.643C38.6242 82.8853 39.2185 83.0111 39.8198 83.0123C40.7972 83.0104 41.7429 82.6697 42.4909 82.0499C43.2389 81.4302 43.7416 80.571 43.911 79.6228V79.6228L44.4964 76.5075C44.6321 75.8537 44.6002 75.177 44.4036 74.5385V74.5385L43.9895 73.2234C43.9335 73.0488 43.9489 72.8596 44.0324 72.696L45.6745 69.651C47.3239 70.417 49.1399 70.7696 50.9611 70.6776C52.7822 70.5856 54.552 70.0518 56.1132 69.1236C57.0428 68.5648 58.0773 68.1965 59.1548 68.0407L62.3178 67.6328C64.2328 67.4454 66.0114 66.5721 67.3158 65.1785C68.6511 63.771 69.4136 61.9286 69.4578 60.0028C69.4753 58.3798 70.0042 56.8022 70.9715 55.4881V55.4881C72.0197 54.0745 72.7147 52.4374 73 50.7097C73.2853 48.982 73.153 47.2124 72.6137 45.5445V45.5445ZM27.2391 59.2292C27.6537 58.7869 27.965 58.2606 28.1513 57.6872C28.3375 57.1138 28.3942 56.5072 28.3173 55.91V55.91L28.2316 55.1646C28.1887 54.8618 28.2419 54.5534 28.3837 54.2816C28.5256 54.0097 28.7492 53.7876 29.0241 53.6456L31.2732 52.4572C31.4407 52.3777 31.5902 52.2657 31.7126 52.1279C31.835 51.9901 31.9278 51.8293 31.9855 51.6552C32.0431 51.4811 32.0644 51.2973 32.0481 51.1149C32.0317 50.9325 31.978 50.7553 31.8903 50.5938C31.8025 50.4324 31.6825 50.2901 31.5375 50.1755C31.3925 50.061 31.2254 49.9765 31.0463 49.9272C30.8673 49.8779 30.6799 49.8648 30.4956 49.8887C30.3113 49.9126 30.1338 49.973 29.9737 50.0662L27.7175 51.2617C26.9599 51.6639 26.3428 52.2816 25.9467 53.0342C25.5506 53.7868 25.3939 54.6394 25.497 55.4811V55.4811L25.5755 56.1843C25.627 56.4819 25.5824 56.7879 25.4479 57.0591C25.3133 57.3304 25.0958 57.5532 24.8258 57.6962V57.6962L24.0261 58.1533C23.1825 57.7733 22.3728 57.324 21.6057 56.8101C22.8516 55.1499 23.524 53.1399 23.524 51.0753C23.524 49.0108 22.8516 47.0008 21.6057 45.3405C21.093 44.661 20.7485 43.8728 20.5998 43.039C20.451 42.2051 20.5021 41.3485 20.7489 40.5375C21.1564 39.1958 21.2538 37.7813 21.0339 36.3978C20.814 35.0142 20.2823 33.6966 19.478 32.5418C21.1232 31.3571 23.1185 30.7387 25.1561 30.7819C27.1936 30.8251 29.1601 31.5276 30.752 32.7809C30.8926 32.8927 31.0543 32.976 31.2276 33.0263C31.401 33.0765 31.5827 33.0926 31.7623 33.0737C31.942 33.0547 32.1161 33.0011 32.2748 32.9159C32.4334 32.8307 32.5735 32.7155 32.6869 32.577C32.8004 32.4385 32.885 32.2793 32.936 32.1086C32.987 31.9378 33.0034 31.7589 32.9841 31.5819C32.9649 31.4049 32.9105 31.2334 32.824 31.0772C32.7374 30.9209 32.6205 30.783 32.4799 30.6713C30.1479 28.8018 27.1833 27.872 24.1832 28.0693C23.8269 28.0891 23.4718 28.1266 23.1194 28.1818C23.0128 27.7863 22.9888 27.3735 23.049 26.9686C23.1091 26.5637 23.2521 26.175 23.4692 25.826C23.5761 25.675 23.6505 25.504 23.6878 25.3236C23.7252 25.1432 23.7247 24.9572 23.6863 24.777C23.648 24.5968 23.5726 24.4263 23.4649 24.2758C23.3572 24.1253 23.2193 23.9982 23.0599 23.9021C22.9004 23.8061 22.7227 23.7431 22.5376 23.7172C22.3525 23.6913 22.164 23.7029 21.9837 23.7514C21.8034 23.7998 21.635 23.8841 21.489 23.999C21.3429 24.1139 21.2223 24.2571 21.1344 24.4196C20.7162 25.0848 20.4415 25.8276 20.3272 26.6019C20.213 27.3762 20.2617 28.1653 20.4704 28.9202C19.5749 29.2664 18.726 29.7199 17.9429 30.2704C17.4888 29.1327 17.4311 27.8786 17.7787 26.7051C18.4053 24.5527 18.3203 22.2597 17.5359 20.158C18.2858 20.248 19.0121 20.4745 19.6779 20.8261L21.7199 21.895C23.0339 22.5843 24.5009 22.9419 25.9896 22.9358H26.4109L29.6524 22.774C30.2414 22.7622 30.8287 22.8381 31.3946 22.9991V22.9991L36.5354 24.4055C36.1482 25.0093 35.8659 25.6724 35.7 26.3675C33.9657 25.6877 32.1355 25.275 30.2736 25.1439C30.0936 25.1314 29.9128 25.154 29.7417 25.2104C29.5705 25.2667 29.4123 25.3557 29.276 25.4722C29.0009 25.7076 28.8319 26.0411 28.8064 26.3992C28.7808 26.7573 28.9007 27.1107 29.1397 27.3817C29.3787 27.6527 29.7173 27.8191 30.0808 27.8443C32.0336 27.9802 33.9426 28.4789 35.7071 29.314C36.0733 30.7453 36.9278 32.009 38.1276 32.8935C38.4203 33.0907 38.7789 33.1692 39.1288 33.1127C39.4788 33.0562 39.7931 32.8689 40.0065 32.5899C40.2198 32.311 40.3158 31.9617 40.2744 31.6148C40.2329 31.2679 40.0573 30.9501 39.7841 30.7275C39.3275 30.3906 38.9556 29.9549 38.6969 29.454C38.4383 28.9532 38.2999 28.4006 38.2923 27.8387C38.2847 27.2769 38.4082 26.7208 38.6532 26.2133C38.8982 25.7059 39.2582 25.2606 39.7055 24.9118C40.3754 24.9063 41.0429 24.8333 41.6976 24.6938V24.6938L47.788 23.3366C48.2887 23.2412 48.7997 23.2081 49.3088 23.2382V23.2382L52.4075 23.3788H52.6574C52.9265 23.7273 53.1218 24.1254 53.2318 24.5496C53.3417 24.9738 53.3641 25.4154 53.2975 25.8482C53.2309 26.2811 53.0767 26.6964 52.8441 27.0694C52.6115 27.4425 52.3053 27.7658 51.9434 28.0201C51.7934 28.1226 51.6654 28.2532 51.5666 28.4045C51.4678 28.5557 51.4003 28.7246 51.3678 28.9016C51.3022 29.259 51.3834 29.6274 51.5936 29.9258C51.8038 30.2243 52.1257 30.4282 52.4886 30.4928C52.8515 30.5574 53.2255 30.4774 53.5285 30.2704C54.6608 29.4786 55.4824 28.3275 55.8555 27.0101C56.2285 25.6926 56.1305 24.2889 55.5777 23.0342C55.9777 22.8965 56.3667 22.7297 56.7415 22.5349V22.5349L58.8835 21.5364L59.1905 23.421C59.3535 24.4283 59.2299 25.4604 58.8335 26.4027L58.041 28.2873C57.3839 29.8426 57.1883 31.5495 57.4769 33.2099V33.2099L58.1195 37.0987C58.3577 38.3517 58.1376 39.6472 57.4983 40.7555V40.7555C56.4832 42.4853 55.6529 44.3141 55.0208 46.2125L53.8355 44.4123C53.205 43.4492 52.253 42.7329 51.1438 42.387L47.0597 41.072C46.5022 40.8817 46.0331 40.4997 45.7388 39.996V39.996L44.5536 38.0059C44.467 37.8402 44.3468 37.6937 44.2003 37.5758C44.0538 37.4578 43.8842 37.3709 43.702 37.3203C43.5199 37.2697 43.3292 37.2566 43.1417 37.2818C42.9542 37.307 42.774 37.37 42.6123 37.4668C42.4506 37.5636 42.3109 37.6922 42.2018 37.8445C42.0928 37.9969 42.0168 38.1697 41.9785 38.3522C41.9403 38.5347 41.9406 38.723 41.9795 38.9054C42.0184 39.0878 42.095 39.2604 42.2045 39.4124L43.3683 41.3814C44.006 42.4603 45.0215 43.273 46.2243 43.6669V43.6669L50.3155 44.9819C50.8244 45.1402 51.2613 45.4685 51.5508 45.9102V45.9102L54.114 49.7849C54.0069 50.3405 53.9141 50.9031 53.8355 51.4656C53.7895 51.7494 53.6417 52.0076 53.4191 52.1934C53.1964 52.3791 52.9135 52.4802 52.6217 52.4783H52.5289H51.615C50.7297 52.4783 49.8157 52.5205 48.8947 52.5767L47.0454 52.7174L46.1315 52.7736H46.0458C45.0137 52.8921 43.9687 52.7189 43.0328 52.2743V52.2743C41.9357 51.7487 40.735 51.4666 39.5152 51.4478C38.2954 51.429 37.0863 51.674 35.9731 52.1655C34.86 52.6571 33.8698 53.3831 33.0726 54.2926C32.2753 55.202 31.6903 56.2727 31.3589 57.429V57.429C31.1802 58.1224 31.0514 58.8274 30.9733 59.5387C29.7207 59.5749 28.468 59.4711 27.2391 59.2292ZM61.9323 64.1518H61.8537L58.6836 64.5597C57.1204 64.7793 55.6204 65.3156 54.2782 66.1349C53.0863 66.8477 51.7155 67.2176 50.3211 67.2026C48.9268 67.1877 47.5645 66.7886 46.3885 66.0505L42.1403 62.9704C41.9527 62.8351 41.74 62.7375 41.5142 62.6832C41.2883 62.6289 41.0539 62.6189 40.8241 62.6539C40.5944 62.6888 40.3739 62.768 40.1752 62.8868C39.9766 63.0057 39.8036 63.1619 39.6663 63.3466C39.5289 63.5313 39.4298 63.7409 39.3747 63.9633C39.3195 64.1857 39.3094 64.4166 39.3449 64.6429C39.3803 64.8692 39.4607 65.0863 39.5814 65.282C39.7021 65.4777 39.8607 65.648 40.0482 65.7833L42.7186 67.7172L40.9122 71.0997C40.3956 72.0783 40.2929 73.2184 40.6266 74.2712V74.2712L41.0407 75.5863C41.0656 75.688 41.0656 75.794 41.0407 75.8957V75.8957L40.4552 79.011C40.4413 79.1335 40.3913 79.2494 40.3113 79.3444C40.2314 79.4393 40.1251 79.5092 40.0054 79.5454C39.8795 79.5801 39.7463 79.5801 39.6204 79.5454C39.4945 79.5107 39.3807 79.4426 39.2914 79.3485L38.2061 78.1108C37.3113 77.0898 36.6892 75.865 36.3962 74.5475C36.1033 73.2299 36.1486 71.8612 36.5282 70.5652C36.684 70.0262 36.725 69.4613 36.6489 68.9058C36.5727 68.3504 36.3809 67.8165 36.0856 67.3374C34.9854 65.5155 34.3988 63.4375 34.3862 61.3178V61.2123C34.3887 60.2639 34.5086 59.3193 34.7432 58.3994C34.9335 57.7279 35.2718 57.106 35.7341 56.578C36.1963 56.05 36.7712 55.629 37.4176 55.3449C38.064 55.0608 38.7661 54.9207 39.4738 54.9345C40.1815 54.9483 40.8774 55.1157 41.5119 55.4248V55.4248C42.7302 55.9944 44.0618 56.2898 45.4104 56.2898C45.7362 56.3075 46.0627 56.3075 46.3885 56.2898V56.2898L47.3167 56.2194C47.9022 56.1702 48.5091 56.114 49.0946 56.0788C49.9371 56.0225 50.7725 56.0085 51.6578 55.9874C51.9577 55.9874 52.2647 55.9874 52.5646 55.9874C53.7099 55.9898 54.8174 55.5837 55.6823 54.8443C56.5473 54.1049 57.1112 53.0821 57.2699 51.9649C57.7148 48.6466 58.8187 45.447 60.5186 42.5487V42.5487C61.5617 40.739 61.9304 38.6273 61.561 36.5784L60.9755 32.6544C60.7978 31.6341 60.9192 30.5852 61.3254 29.6305V29.6305L62.1179 27.7388C62.7579 26.2113 62.9532 24.5384 62.682 22.9077L62.2536 20.4253L63.2389 20.2565C63.4773 20.2295 63.7077 20.1549 63.9158 20.0371C64.1239 19.9194 64.3055 19.7611 64.4493 19.5718C64.5932 19.3826 64.6963 19.1664 64.7523 18.9366C64.8084 18.7067 64.8162 18.468 64.7753 18.2351C64.7344 18.0021 64.6457 17.7798 64.5146 17.5819C64.3834 17.3839 64.2127 17.2143 64.0127 17.0836C63.8127 16.9529 63.5877 16.8638 63.3515 16.8217C63.1154 16.7796 62.8729 16.7854 62.6391 16.8388L60.9684 17.1201C60.1219 17.2153 59.2983 17.4532 58.5336 17.8233V17.8233L55.2635 19.4197C54.4307 19.7977 53.5157 19.9669 52.6003 19.9119L49.4944 19.722C48.6654 19.6803 47.8344 19.7489 47.024 19.926L40.9336 21.2832C40.0444 21.477 39.1207 21.4553 38.2418 21.2199V21.2199L32.3442 19.6447C31.4169 19.3803 30.4531 19.2617 29.4882 19.2931L26.2467 19.4618C25.255 19.5083 24.2688 19.2922 23.3907 18.836L21.3486 17.7671C19.8717 16.9753 18.2014 16.6005 16.522 16.6841V16.6841C15.9592 16.7192 15.3941 16.6933 14.837 16.6068C14.2062 16.4797 13.6039 16.2414 13.0591 15.9035C12.6527 15.6872 12.1764 15.6366 11.7325 15.7625C11.2885 15.8884 10.9125 16.1809 10.6852 16.577C10.458 16.9731 10.3976 17.4413 10.517 17.8808C10.6365 18.3203 10.9263 18.6961 11.3241 18.9274C12.0001 19.3086 12.7189 19.6107 13.4661 19.8275C14.0577 20.6832 14.4503 21.6569 14.6156 22.6793C14.781 23.7016 14.7152 24.7473 14.4229 25.7417C14.0024 27.157 13.9441 28.6528 14.253 30.0958C14.562 31.5387 15.2287 32.884 16.1936 34.0116C16.8435 34.7624 17.2919 35.6618 17.4978 36.6274C17.7036 37.593 17.6602 38.5941 17.3717 39.5389C16.9688 40.8669 16.8882 42.2696 17.1362 43.6339C17.3842 44.9982 17.954 46.2861 18.7997 47.394C19.7312 48.6391 20.1562 50.1825 19.991 51.7206C19.8259 53.2587 19.0826 54.6804 17.9072 55.7061V55.7061C17.1297 56.3766 16.1947 56.8455 15.1868 57.0703C13.9479 57.3405 12.6592 57.2907 11.4456 56.9258C10.232 56.5608 9.13477 55.8931 8.26043 54.9873C7.38609 54.0816 6.76431 52.9687 6.45542 51.7565C6.14653 50.5443 6.16102 49.2741 6.49749 48.0691C6.86994 46.7531 6.9284 45.3701 6.6683 44.0282C6.40819 42.6863 5.83657 41.4219 4.9981 40.3336C4.31702 39.4327 3.9081 38.3607 3.81841 37.241C3.72873 36.1213 3.96193 34.9995 4.49116 34.0046C5.09295 32.8833 5.44557 31.6487 5.52558 30.3829C5.6056 29.1171 5.41119 27.849 4.95526 26.6629C4.57934 25.6991 4.44282 24.6607 4.55709 23.6344C4.67135 22.608 5.03309 21.6235 5.61213 20.7628C6.84981 18.9296 7.35819 16.7114 7.04013 14.5322V14.5322C6.89256 13.551 7.02705 12.5486 7.42836 11.6388C7.82966 10.729 8.48173 9.94808 9.31064 9.38463C10.1446 8.8254 11.1189 8.5033 12.1265 8.45368C13.1342 8.40405 14.1362 8.62883 15.0226 9.10334L19.478 11.867L19.5708 11.9162C20.3935 12.3453 21.3102 12.5698 22.2411 12.5702C23.3318 12.5703 24.3996 12.2628 25.3185 11.6842C25.9325 11.3491 26.6403 11.2193 27.3356 11.3144C28.0309 11.4095 28.676 11.7244 29.1741 12.2116C29.8388 12.9231 30.647 13.4902 31.5469 13.8764C32.4469 14.2627 33.4188 14.4597 34.4005 14.4549C35.6513 14.4634 36.8824 14.1481 37.9705 13.5407V13.5407C38.1368 13.4569 38.3085 13.3841 38.4846 13.3227L38.656 13.2594L40.0839 12.6898C40.7152 12.4414 41.3891 12.3149 42.0689 12.3171V12.3171L49.2945 12.2749C50.9753 12.2699 52.6217 11.8049 54.0497 10.9317V10.9317C54.948 10.3634 55.9662 10.0046 57.0266 9.88276C58.087 9.76089 59.1617 9.87915 60.1687 10.2285V10.2285C61.1621 10.5831 62.2108 10.764 63.2675 10.763H63.4602C64.2353 10.7483 65.0042 10.9004 65.7134 11.2087C66.4226 11.517 67.0548 11.9741 67.5661 12.548C68.0774 13.1218 68.4553 13.7987 68.6736 14.5313C68.8918 15.2639 68.945 16.0346 68.8295 16.7896C68.8261 16.8011 68.8261 16.8133 68.8295 16.8248V16.8248L68.0155 24.0891C67.8287 25.7747 67.9766 27.4801 68.4511 29.1101V29.1101L69.3721 32.2395C69.8173 33.7417 69.8762 35.3294 69.5435 36.8596V36.8596L68.8723 40.0242C68.4108 42.2087 68.5438 44.4746 69.2579 46.5923C69.6369 47.7466 69.731 48.9734 69.5323 50.1707C69.3336 51.368 68.8479 52.5014 68.1155 53.4769C66.7105 55.3621 65.9324 57.6294 65.8878 59.9676C65.8576 61.0223 65.4401 62.0304 64.7127 62.8049C63.9853 63.5795 62.9975 64.0681 61.9323 64.18V64.1518Z" fill="#6B4D30"/>
<path d="M49.461 29.5976C49.9719 29.742 50.4451 29.9935 50.8484 30.3351C51.2518 30.6767 51.5756 31.1002 51.7979 31.5768V31.5768C52.6065 33.2915 53.695 34.8634 55.0197 36.2297C55.155 36.3708 55.318 36.4833 55.4987 36.5604C55.6794 36.6374 55.8741 36.6773 56.0709 36.6778C56.3566 36.678 56.636 36.5954 56.8746 36.4403C57.1132 36.2852 57.3005 36.0643 57.4132 35.8051C57.5259 35.5459 57.5592 35.2598 57.5088 34.9821C57.4584 34.7044 57.3266 34.4475 57.1297 34.243C56.0272 33.1054 55.1226 31.7957 54.4525 30.3669C54.0529 29.5149 53.4717 28.7581 52.7485 28.1484C52.0254 27.5387 51.1775 27.0905 50.2627 26.8343V26.8343C49.7437 26.6891 49.277 26.4015 48.9169 26.0049C48.5568 25.6083 48.318 25.119 48.2283 24.5937C48.1468 24.2328 47.9279 23.9165 47.6169 23.7105C47.306 23.5044 46.9267 23.4242 46.5575 23.4866C46.1884 23.5489 45.8576 23.749 45.6337 24.0455C45.4098 24.3419 45.3098 24.712 45.3544 25.0792C45.5397 26.1374 46.0233 27.1225 46.7496 27.9217C47.476 28.7209 48.4157 29.3017 49.461 29.5976V29.5976Z" fill="#6B4D30"/>
<path d="M35.9612 38.1715C36.1359 39.2092 36.5611 40.1901 37.2009 41.0312C37.8407 41.8723 38.6762 42.5488 39.6367 43.0036V43.0036C40.4628 43.3899 41.1982 43.9421 41.7959 44.625C42.3936 45.3078 42.8405 46.1063 43.1081 46.9694C43.1977 47.2671 43.3823 47.5283 43.6344 47.714C43.8866 47.8997 44.1927 48 44.5072 48C44.6479 47.9985 44.7878 47.9784 44.9232 47.9403C45.2931 47.8296 45.6038 47.5793 45.7879 47.2437C45.972 46.9081 46.0146 46.5143 45.9063 46.1478C45.5255 44.9019 44.8856 43.7482 44.0274 42.7605C43.1692 41.7728 42.1116 40.9729 40.9224 40.412V40.412C40.386 40.1532 39.9192 39.7726 39.5604 39.3014C39.2015 38.8302 38.9607 38.2817 38.8578 37.701C38.6057 36.2029 37.9104 34.8121 36.8593 33.7037C35.8081 32.5952 34.4484 31.8188 32.9512 31.4722C32.5855 31.4119 32.2103 31.4912 31.9017 31.6941C31.5931 31.897 31.3743 32.2082 31.2896 32.5646C31.2049 32.9211 31.2607 33.2959 31.4457 33.6132C31.6307 33.9305 31.931 34.1663 32.2857 34.2729C33.2186 34.4938 34.065 34.9814 34.7187 35.6749C35.3725 36.3683 35.8047 37.2367 35.9612 38.1715V38.1715Z" fill="#6B4D30"/>
<path d="M30.047 42.0701C29.6863 41.9199 29.3711 41.6802 29.132 41.3741C28.8929 41.0681 28.738 40.7062 28.6824 40.3235C28.6268 39.9409 28.6725 39.5505 28.8149 39.1905C28.9572 38.8304 29.1915 38.5128 29.495 38.2686C29.7824 38.0288 29.9649 37.6887 30.0045 37.3192C30.0441 36.9497 29.9376 36.5793 29.7074 36.2855C29.4771 35.9916 29.1408 35.7969 28.7687 35.742C28.3966 35.6871 28.0173 35.7762 27.7101 35.9907C26.9854 36.5454 26.424 37.2814 26.0841 38.1224C25.7442 38.9634 25.6382 39.8788 25.7771 40.7739C25.9159 41.6689 26.2946 42.511 26.8738 43.213C27.453 43.9149 28.2118 44.4512 29.0714 44.7662C29.2322 44.8313 29.4044 44.8643 29.5782 44.8633C29.9206 44.8633 30.2522 44.7444 30.5149 44.5273C30.7776 44.3103 30.9546 44.009 31.015 43.6761C31.0754 43.3431 31.0153 42.9999 30.8452 42.7063C30.6752 42.4127 30.4061 42.1875 30.0849 42.0701H30.047Z" fill="#6B4D30"/>
</g>
<defs>
<clipPath id="clip0_57_54">
<rect width="77.3073" height="82.9452" rx="22" fill="white"/>
</clipPath>
</defs>
</svg>
