<svg width="89" height="96" viewBox="0 0 89 96" fill="none" xmlns="http://www.w3.org/2000/svg">
<g clip-path="url(#clip0_21_22)">
<path d="M87.9232 49.4731C87.2839 47.5896 87.1641 45.572 87.576 43.6276V43.6276L88.3919 39.7705C88.94 37.2145 88.8386 34.5643 88.0968 32.0564V32.0564L86.9685 28.2851C86.545 26.83 86.4152 25.3068 86.5866 23.8023L87.55 14.9997C87.7661 13.4866 87.6491 11.9454 87.2068 10.4812C86.7646 9.01692 86.0076 7.66415 84.9875 6.51524C83.9675 5.36632 82.7084 4.44831 81.2962 3.82389C79.884 3.19946 78.352 2.88333 76.8048 2.89708V2.89708C75.969 2.91842 75.1364 2.78768 74.3485 2.51137V2.51137C72.513 1.85001 70.5482 1.61351 68.6056 1.82006C66.6629 2.02661 64.7942 2.67072 63.1433 3.70277V3.70277C62.0745 4.35009 60.8471 4.69685 59.5934 4.7056V4.7056L50.8184 4.75703C49.4668 4.76401 48.1281 5.0168 46.8692 5.50273V5.50273L45.1333 6.20557L44.9597 6.27414C44.5509 6.42274 44.1535 6.60034 43.7706 6.80556V6.80556C42.9015 7.3186 41.8794 7.51868 40.8778 7.3718C39.8763 7.22493 38.9571 6.74016 38.2765 5.99986C38.2765 5.99986 38.2765 5.99986 38.2331 5.99986V5.94843L38.1724 5.89701C36.9165 4.65541 35.2866 3.84969 33.5275 3.60086C31.7683 3.35203 29.9749 3.67352 28.4166 4.51704V4.51704H28.3558H28.2951H28.2343C27.8375 4.77849 27.3769 4.92993 26.9005 4.95557C26.4242 4.9812 25.9496 4.88007 25.5263 4.66275L20.1103 1.42282H20.0583H20.0062C18.2438 0.454293 16.243 -0.00995721 14.2283 0.082193C12.2136 0.174343 10.2648 0.819245 8.60071 1.9445C6.93658 3.06975 5.62301 4.63081 4.80748 6.45241C3.99194 8.27402 3.70672 10.2841 3.98383 12.2569V12.2569C4.21815 13.8862 3.83488 15.5436 2.90757 16.911C1.82862 18.5221 1.15402 20.3639 0.939681 22.2838C0.725344 24.2036 0.977443 26.1463 1.67509 27.9508C2.01323 28.8363 2.15639 29.7828 2.09503 30.7272C2.03367 31.6716 1.76919 32.5922 1.31923 33.4278C0.30719 35.3468 -0.137536 37.5084 0.035907 39.6653C0.20935 41.8222 0.993958 43.8874 2.30001 45.6247C2.93912 46.4351 3.37785 47.3817 3.58127 48.3891C3.78469 49.3965 3.74718 50.4368 3.47174 51.4274C2.85755 53.5922 2.81993 55.877 3.36253 58.0604C3.90513 60.2439 5.00956 62.2519 6.56882 63.89C8.12809 65.5281 10.0893 66.7407 12.2626 67.4105C14.4358 68.0802 16.7474 68.1843 18.9733 67.7127V67.7127C20.287 67.4144 21.5401 66.8985 22.6795 66.187C26.8477 69.2372 31.8995 70.8812 37.0874 70.8755H37.3218C37.6326 73.4851 38.4993 76.0002 39.8649 78.2553V78.2553C39.963 78.44 39.9848 78.6551 39.9256 78.8553C39.2721 81.1078 39.1973 83.4856 39.708 85.7737C40.2187 88.0619 41.2988 90.1883 42.8506 91.9607V91.9607L44.1872 93.4264C44.6745 93.9644 45.271 94.3951 45.938 94.6905C46.6049 94.9858 47.3274 95.1392 48.0583 95.1407C49.2465 95.1383 50.396 94.723 51.3054 93.9677C52.2147 93.2123 52.8258 92.165 53.0317 91.0093V91.0093L53.7434 87.2123C53.9083 86.4155 53.8695 85.5906 53.6305 84.8123V84.8123L53.1271 83.2095C53.0591 82.9967 53.0778 82.7661 53.1792 82.5667L55.1755 78.8553C57.1805 79.7889 59.3881 80.2187 61.6019 80.1065C63.8157 79.9944 65.9671 79.3437 67.8649 78.2125C68.995 77.5314 70.2525 77.0825 71.5624 76.8925L75.4074 76.3954C77.7353 76.167 79.8973 75.1025 81.483 73.404C83.1062 71.6885 84.0331 69.4429 84.0869 67.0956C84.1082 65.1174 84.7511 63.1946 85.9269 61.5929V61.5929C87.2011 59.87 88.046 57.8746 88.3928 55.7688C88.7397 53.663 88.5788 51.506 87.9232 49.4731V49.4731ZM32.765 66.1528C33.269 65.6136 33.6475 64.9721 33.8739 64.2732C34.1003 63.5744 34.1691 62.8351 34.0756 62.1071V62.1071L33.9715 61.1986C33.9194 60.8296 33.984 60.4537 34.1564 60.1223C34.3289 59.7909 34.6008 59.5202 34.9349 59.3472L37.6689 57.8987C37.8726 57.8018 38.0543 57.6653 38.2031 57.4973C38.3519 57.3293 38.4647 57.1333 38.5348 56.9212C38.6049 56.709 38.6307 56.485 38.6109 56.2627C38.591 56.0403 38.5257 55.8243 38.4191 55.6275C38.3124 55.4307 38.1665 55.2573 37.9902 55.1177C37.8139 54.978 37.6108 54.8751 37.3931 54.815C37.1755 54.7549 36.9477 54.739 36.7237 54.7681C36.4996 54.7972 36.2838 54.8708 36.0893 54.9844L33.3466 56.4416C32.4256 56.9318 31.6754 57.6846 31.194 58.6019C30.7125 59.5192 30.522 60.5585 30.6472 61.5843V61.5843L30.7427 62.4414C30.8053 62.8041 30.751 63.1771 30.5875 63.5077C30.424 63.8384 30.1595 64.11 29.8314 64.2842V64.2842L28.8593 64.8414C27.8337 64.3782 26.8494 63.8305 25.9169 63.2043C27.4315 61.1807 28.2488 58.7307 28.2488 56.2144C28.2488 53.6981 27.4315 51.2481 25.9169 49.2246C25.2936 48.3963 24.8749 47.4357 24.6941 46.4193C24.5133 45.4029 24.5753 44.3589 24.8754 43.3704C25.3708 41.7351 25.4892 40.0111 25.2218 38.3247C24.9545 36.6383 24.3082 35.0325 23.3304 33.6249C25.3304 32.181 27.7559 31.4271 30.2328 31.4798C32.7097 31.5325 35.1002 32.3887 37.0353 33.9164C37.2063 34.0526 37.4028 34.1542 37.6135 34.2154C37.8242 34.2766 38.0451 34.2962 38.2635 34.2731C38.482 34.2501 38.6936 34.1847 38.8865 34.0809C39.0793 33.977 39.2496 33.8366 39.3875 33.6678C39.5254 33.499 39.6283 33.3049 39.6903 33.0968C39.7523 32.8887 39.7722 32.6706 39.7488 32.4549C39.7254 32.2392 39.6592 32.0302 39.5541 31.8397C39.4489 31.6493 39.3068 31.4812 39.1358 31.345C36.301 29.0664 32.6972 27.9332 29.0502 28.1736C28.6171 28.1977 28.1854 28.2435 27.757 28.3108C27.6274 27.8287 27.5983 27.3256 27.6714 26.832C27.7445 26.3385 27.9183 25.8647 28.1823 25.4394C28.3122 25.2553 28.4026 25.0469 28.448 24.8271C28.4934 24.6072 28.4928 24.3805 28.4462 24.1608C28.3996 23.9412 28.308 23.7333 28.177 23.5499C28.0461 23.3665 27.8785 23.2115 27.6846 23.0945C27.4908 22.9774 27.2747 22.9007 27.0498 22.8691C26.8248 22.8375 26.5957 22.8517 26.3765 22.9107C26.1572 22.9698 25.9526 23.0725 25.775 23.2126C25.5975 23.3526 25.4508 23.5271 25.3441 23.7252C24.8357 24.5359 24.5017 25.4413 24.3628 26.3851C24.2239 27.3288 24.2832 28.2906 24.5369 29.2108C23.4482 29.6327 22.4163 30.1855 21.4643 30.8564C20.9124 29.4697 20.8422 27.9412 21.2647 26.5108C22.0265 23.8874 21.9231 21.0926 20.9696 18.531C21.8812 18.6406 22.7641 18.9167 23.5734 19.3453L26.0558 20.6481C27.6531 21.4882 29.4364 21.924 31.2461 21.9166H31.7582L35.6987 21.7195C36.4146 21.7051 37.1286 21.7975 37.8165 21.9938V21.9938L44.0657 23.708C43.5951 24.4439 43.2519 25.2521 43.0502 26.0994C40.942 25.2708 38.7171 24.7677 36.4538 24.608C36.235 24.5928 36.0152 24.6203 35.8072 24.689C35.5991 24.7577 35.4068 24.8661 35.2411 25.0082C34.9066 25.2951 34.7013 25.7015 34.6702 26.138C34.6391 26.5744 34.7849 27.0052 35.0754 27.3355C35.366 27.6659 35.7775 27.8687 36.2195 27.8994C38.5933 28.065 40.914 28.6729 43.0589 29.6907C43.504 31.4352 44.5428 32.9755 46.0013 34.0535C46.357 34.2939 46.793 34.3896 47.2184 34.3207C47.6438 34.2518 48.0259 34.0236 48.2853 33.6836C48.5446 33.3435 48.6613 32.9178 48.6109 32.495C48.5606 32.0722 48.3471 31.6849 48.0149 31.4136C47.4599 31.0029 47.0078 30.4718 46.6934 29.8614C46.379 29.2509 46.2107 28.5774 46.2014 27.8926C46.1922 27.2077 46.3423 26.53 46.6402 25.9115C46.938 25.293 47.3757 24.7503 47.9194 24.3252C48.7337 24.3184 49.5451 24.2294 50.341 24.0594V24.0594L57.7446 22.4052C58.3533 22.2889 58.9745 22.2486 59.5934 22.2852V22.2852L63.3603 22.4566H63.664C63.9911 22.8813 64.2286 23.3666 64.3622 23.8836C64.4958 24.4006 64.523 24.9389 64.4421 25.4665C64.3611 25.9941 64.1737 26.5002 63.891 26.9549C63.6082 27.4096 63.2359 27.8037 62.7961 28.1136C62.6137 28.2386 62.458 28.3978 62.338 28.5821C62.2179 28.7665 62.1358 28.9724 62.0963 29.1881C62.0165 29.6237 62.1153 30.0727 62.3708 30.4364C62.6263 30.8002 63.0177 31.0487 63.4588 31.1275C63.8999 31.2063 64.3546 31.1088 64.7229 30.8564C66.0994 29.8913 67.0981 28.4883 67.5516 26.8826C68.0051 25.2768 67.8859 23.5659 67.2139 22.0366C67.7002 21.8688 68.1731 21.6654 68.6287 21.4281V21.4281L71.2326 20.211L71.6058 22.5081C71.8039 23.7358 71.6537 24.9937 71.1718 26.1423L70.2084 28.4393C69.4096 30.335 69.1719 32.4155 69.5227 34.4392V34.4392L70.3038 39.1791C70.5934 40.7062 70.3258 42.2852 69.5487 43.6361V43.6361C68.3146 45.7444 67.3053 47.9735 66.5369 50.2874L65.0961 48.0932C64.3296 46.9193 63.1724 46.0463 61.824 45.6247L56.8593 44.0218C56.1816 43.79 55.6114 43.3243 55.2536 42.7104V42.7104L53.8128 40.2848C53.7076 40.0828 53.5614 39.9043 53.3833 39.7605C53.2052 39.6168 52.9991 39.5108 52.7777 39.4491C52.5563 39.3875 52.3244 39.3715 52.0965 39.4022C51.8686 39.433 51.6495 39.5097 51.4529 39.6277C51.2564 39.7457 51.0865 39.9024 50.954 40.0881C50.8214 40.2738 50.729 40.4844 50.6825 40.7069C50.636 40.9293 50.6364 41.1589 50.6837 41.3812C50.731 41.6035 50.8241 41.8138 50.9573 41.999L52.372 44.399C53.1472 45.714 54.3817 46.7045 55.8438 47.1846V47.1846L60.8172 48.7874C61.4358 48.9804 61.9669 49.3806 62.3187 49.9188V49.9188L65.4346 54.6416C65.3045 55.3187 65.1916 56.0044 65.0961 56.6901C65.0401 57.036 64.8605 57.3507 64.5899 57.5771C64.3192 57.8035 63.9754 57.9267 63.6206 57.9244H63.5078H62.3968C61.3206 57.9244 60.2096 57.9758 59.0899 58.0444L56.8419 58.2158L55.731 58.2844H55.6268C54.3722 58.4288 53.1018 58.2177 51.9641 57.6758V57.6758C50.6305 57.0352 49.1709 56.6913 47.6881 56.6684C46.2053 56.6455 44.7355 56.9441 43.3823 57.5432C42.0291 58.1423 40.8254 59.0273 39.8563 60.1357C38.8871 61.2442 38.176 62.5491 37.7731 63.9585V63.9585C37.5559 64.8037 37.3993 65.663 37.3044 66.5299C35.7817 66.574 34.2589 66.4475 32.765 66.1528ZM74.9387 72.1526H74.8432L70.9895 72.6498C69.0893 72.9174 67.2658 73.5711 65.6343 74.5697C64.1853 75.4385 62.519 75.8893 60.824 75.8711C59.129 75.8529 57.473 75.3665 56.0434 74.4669L50.8791 70.7127C50.6512 70.5478 50.3926 70.4288 50.118 70.3626C49.8435 70.2964 49.5585 70.2843 49.2792 70.3268C49 70.3694 48.7319 70.4659 48.4904 70.6108C48.2489 70.7557 48.0387 70.9461 47.8717 71.1712C47.7047 71.3963 47.5843 71.6517 47.5172 71.9228C47.4502 72.1939 47.4379 72.4754 47.481 72.7512C47.5241 73.0269 47.6218 73.2916 47.7685 73.5301C47.9152 73.7686 48.1081 73.9762 48.336 74.1411L51.5822 76.4982L49.3863 80.621C48.7583 81.8137 48.6335 83.2033 49.0391 84.4866V84.4866L49.5425 86.0894C49.5727 86.2134 49.5727 86.3426 49.5425 86.4666V86.4666L48.8308 90.2636C48.8138 90.413 48.753 90.5542 48.6559 90.67C48.5587 90.7857 48.4295 90.8709 48.284 90.915C48.1309 90.9574 47.969 90.9574 47.816 90.915C47.6629 90.8727 47.5246 90.7897 47.416 90.6751L46.0967 89.1665C45.009 87.922 44.2528 86.4292 43.8966 84.8233C43.5404 83.2174 43.5956 81.5491 44.0571 79.9696C44.2464 79.3126 44.2963 78.624 44.2037 77.947C44.1111 77.2701 43.878 76.6193 43.5189 76.0354C42.1816 73.8148 41.4685 71.282 41.4532 68.6984V68.5698C41.4562 67.4138 41.6019 66.2625 41.8872 65.1414C42.1184 64.3229 42.5297 63.5648 43.0917 62.9213C43.6536 62.2778 44.3524 61.7646 45.1382 61.4184C45.924 61.0721 46.7775 60.9013 47.6378 60.9181C48.4981 60.935 49.344 61.139 50.1153 61.5157V61.5157C51.5963 62.21 53.215 62.5701 54.8543 62.57C55.2504 62.5916 55.6474 62.5916 56.0434 62.57V62.57L57.1718 62.4843C57.8835 62.4243 58.6212 62.3557 59.333 62.3128C60.3571 62.2443 61.3726 62.2271 62.4489 62.2014C62.8134 62.2014 63.1867 62.2014 63.5512 62.2014C64.9435 62.2043 66.2897 61.7094 67.3411 60.8082C68.3926 59.907 69.0781 58.6603 69.271 57.2987C69.8118 53.2542 71.1538 49.3544 73.2202 45.8218V45.8218C74.4882 43.616 74.9364 41.0422 74.4874 38.5448L73.7756 33.7621C73.5596 32.5186 73.7072 31.2401 74.2009 30.0764V30.0764L75.1644 27.7708C75.9423 25.909 76.1797 23.87 75.85 21.8824L75.3293 18.8567L76.527 18.651C76.8169 18.6181 77.0969 18.5271 77.3499 18.3836C77.6029 18.2401 77.8236 18.0471 77.9985 17.8165C78.1733 17.5858 78.2986 17.3224 78.3668 17.0422C78.4349 16.762 78.4444 16.4711 78.3948 16.1872C78.3451 15.9033 78.2372 15.6324 78.0778 15.391C77.9184 15.1497 77.7108 14.9431 77.4677 14.7838C77.2246 14.6244 76.9511 14.5158 76.664 14.4645C76.3769 14.4132 76.0822 14.4203 75.798 14.4854L73.767 14.8282C72.7379 14.9443 71.7368 15.2342 70.8073 15.6854V15.6854L66.832 17.631C65.8196 18.0919 64.7074 18.298 63.5946 18.231L59.819 17.9996C58.8112 17.9487 57.8011 18.0323 56.8159 18.2481L49.4123 19.9024C48.3313 20.1386 47.2085 20.1121 46.1401 19.8253V19.8253L38.9709 17.9053C37.8436 17.5831 36.672 17.4385 35.4991 17.4767L31.5586 17.6824C30.3531 17.7391 29.1542 17.4757 28.0868 16.9196L25.6045 15.6168C23.809 14.6517 21.7787 14.1949 19.7371 14.2968V14.2968C19.0529 14.3396 18.366 14.308 17.6888 14.2025C16.922 14.0476 16.1898 13.7573 15.5276 13.3454C15.0335 13.0817 14.4544 13.02 13.9148 13.1735C13.3752 13.327 12.9181 13.6835 12.6418 14.1663C12.3655 14.6491 12.2921 15.2197 12.4373 15.7554C12.5826 16.2911 12.9348 16.7491 13.4184 17.031C14.2401 17.4957 15.114 17.8639 16.0223 18.1282C16.7415 19.1711 17.2186 20.3579 17.4197 21.604C17.6207 22.85 17.5407 24.1246 17.1853 25.3366C16.6742 27.0617 16.6033 28.8848 16.9789 30.6436C17.3545 32.4023 18.1649 34.0419 19.3379 35.4163C20.128 36.3315 20.673 37.4277 20.9232 38.6046C21.1734 39.7816 21.1207 41.0017 20.77 42.1533C20.2803 43.772 20.1822 45.4815 20.4837 47.1444C20.7852 48.8073 21.4779 50.3771 22.5059 51.7274C23.6383 53.2451 24.1549 55.1261 23.9541 57.0009C23.7533 58.8756 22.8497 60.6084 21.4209 61.8586V61.8586C20.4759 62.6759 19.3392 63.2474 18.114 63.5214C16.608 63.8507 15.0414 63.79 13.5661 63.3452C12.0908 62.9003 10.757 62.0865 9.69416 60.9825C8.6313 59.8786 7.87545 58.5221 7.49996 57.0446C7.12446 55.5672 7.14208 54.019 7.5511 52.5502C8.00386 50.9463 8.07493 49.2606 7.75874 47.6251C7.44255 45.9895 6.74767 44.4483 5.72841 43.1219C4.90048 42.0239 4.40338 40.7173 4.29436 39.3525C4.18534 37.9878 4.46882 36.6204 5.11217 35.4078C5.84371 34.0411 6.27236 32.5364 6.36963 30.9935C6.4669 29.4507 6.23057 27.9051 5.67633 26.4594C5.21936 25.2847 5.05341 24.019 5.19231 22.7681C5.33121 21.5172 5.77095 20.3172 6.47485 19.2681C7.97938 17.0337 8.59739 14.3301 8.21074 11.674V11.674C8.03136 10.478 8.19485 9.2563 8.68268 8.14736C9.17052 7.03843 9.96318 6.08664 10.9708 5.39987C11.9846 4.71826 13.1689 4.32567 14.3939 4.26519C15.6188 4.2047 16.8369 4.47868 17.9144 5.05703L23.3304 8.42552L23.4433 8.48552C24.4434 9.00848 25.5577 9.28213 26.6894 9.28264C28.0152 9.28271 29.3133 8.90796 30.4303 8.20267C31.1766 7.79422 32.0371 7.63607 32.8823 7.752C33.7275 7.86792 34.5118 8.25166 35.1172 8.84551C35.9252 9.71274 36.9077 10.4039 38.0017 10.8747C39.0957 11.3455 40.2772 11.5856 41.4706 11.5797C42.991 11.5901 44.4875 11.2059 45.8103 10.4655V10.4655C46.0124 10.3634 46.2212 10.2746 46.4352 10.1998L46.6435 10.1226L48.3794 9.42835C49.1468 9.12566 49.966 8.97144 50.7923 8.97408V8.97408L59.576 8.92265C61.6192 8.91657 63.6206 8.34977 65.3565 7.28555V7.28555C66.4485 6.59286 67.6862 6.15557 68.9753 6.00703C70.2644 5.85848 71.5708 6.00261 72.7949 6.42842V6.42842C74.0025 6.86064 75.2773 7.08109 76.5618 7.07984H76.7961C77.7383 7.06197 78.673 7.24739 79.5351 7.62317C80.3972 7.99895 81.1658 8.55601 81.7873 9.25548C82.4088 9.95495 82.8683 10.78 83.1335 11.6729C83.3988 12.5658 83.4635 13.5052 83.3231 14.4254C83.319 14.4394 83.319 14.4542 83.3231 14.4682V14.4682L82.3336 23.3223C82.1065 25.3769 82.2864 27.4554 82.8631 29.4422V29.4422L83.9827 33.2564C84.5239 35.0874 84.5955 37.0226 84.191 38.8877V38.8877L83.3752 42.7447C82.8141 45.4074 82.9758 48.1692 83.8439 50.7503C84.3046 52.1572 84.419 53.6524 84.1774 55.1118C83.9359 56.5711 83.3455 57.9526 82.4551 59.1415C80.7472 61.4394 79.8013 64.2029 79.7471 67.0527C79.7104 68.3382 79.2028 69.5669 78.3186 70.511C77.4344 71.4551 76.2336 72.0505 74.9387 72.1869V72.1526Z" fill="#FEFAEF"/>
<path d="M56.764 33.9678C57.3502 34.1334 57.8934 34.4221 58.3562 34.8141C58.8191 35.2061 59.1908 35.6922 59.4459 36.2392V36.2392C60.3739 38.2071 61.6231 40.0111 63.1434 41.579C63.2987 41.741 63.4857 41.8702 63.6931 41.9586C63.9005 42.047 64.124 42.0928 64.3499 42.0933C64.6777 42.0936 64.9984 41.9988 65.2722 41.8208C65.546 41.6428 65.7609 41.3893 65.8903 41.0918C66.0197 40.7944 66.0578 40.4659 66 40.1473C65.9422 39.8286 65.7909 39.5337 65.565 39.2991C64.2997 37.9935 63.2615 36.4904 62.4924 34.8506C62.0338 33.8728 61.3668 33.0043 60.5369 32.3046C59.707 31.6049 58.7338 31.0904 57.684 30.7964V30.7964C57.0884 30.6298 56.5528 30.2998 56.1396 29.8446C55.7263 29.3895 55.4522 28.8279 55.3492 28.2251C55.2557 27.8108 55.0045 27.4479 54.6476 27.2114C54.2907 26.9749 53.8554 26.8829 53.4318 26.9544C53.0081 27.026 52.6285 27.2556 52.3715 27.5958C52.1145 27.936 51.9998 28.3608 52.051 28.7822C52.2637 29.9966 52.8187 31.1272 53.6523 32.0444C54.4858 32.9616 55.5643 33.6282 56.764 33.9678V33.9678Z" fill="#FEFAEF"/>
<path d="M41.2709 43.8076C41.4714 44.9985 41.9594 46.1242 42.6936 47.0895C43.4279 48.0548 44.3868 48.8312 45.4892 49.3532V49.3532C46.4372 49.7965 47.2811 50.4303 47.9671 51.2139C48.6531 51.9976 49.166 52.914 49.4731 53.9045C49.5759 54.2462 49.7878 54.5459 50.0771 54.759C50.3665 54.9722 50.7178 55.0873 51.0788 55.0873C51.2403 55.0855 51.4008 55.0625 51.5561 55.0187C51.9807 54.8918 52.3373 54.6045 52.5486 54.2193C52.7599 53.8341 52.8087 53.3822 52.6845 52.9616C52.2475 51.5317 51.513 50.2077 50.5281 49.0742C49.5432 47.9407 48.3295 47.0227 46.9647 46.3789V46.3789C46.349 46.0819 45.8134 45.6451 45.4015 45.1043C44.9897 44.5635 44.7134 43.9341 44.5952 43.2676C44.3059 41.5484 43.5079 39.9522 42.3016 38.6801C41.0953 37.408 39.5347 36.5169 37.8165 36.1192C37.3968 36.0499 36.9662 36.141 36.6121 36.3738C36.2579 36.6066 36.0067 36.9638 35.9095 37.3729C35.8123 37.7819 35.8764 38.2122 36.0887 38.5763C36.301 38.9404 36.6457 39.2111 37.0527 39.3334C38.1234 39.5869 39.0947 40.1465 39.845 40.9423C40.5953 41.7382 41.0913 42.7348 41.2709 43.8076V43.8076Z" fill="#FEFAEF"/>
<path d="M34.4836 48.2818C34.0697 48.1094 33.7079 47.8343 33.4335 47.4831C33.159 47.1318 32.9813 46.7165 32.9175 46.2773C32.8537 45.8382 32.9061 45.3902 33.0695 44.977C33.2329 44.5637 33.5018 44.1993 33.85 43.919C34.1799 43.6438 34.3894 43.2534 34.4348 42.8294C34.4802 42.4053 34.358 41.9803 34.0938 41.643C33.8295 41.3058 33.4436 41.0823 33.0165 41.0193C32.5894 40.9563 32.1542 41.0585 31.8017 41.3048C30.9699 41.9414 30.3256 42.786 29.9356 43.7512C29.5455 44.7163 29.4238 45.7669 29.5832 46.7942C29.7425 47.8214 30.1771 48.7878 30.8419 49.5934C31.5066 50.399 32.3774 51.0144 33.364 51.376C33.5485 51.4507 33.7461 51.4885 33.9455 51.4874C34.3386 51.4874 34.7191 51.3509 35.0206 51.1018C35.322 50.8528 35.5252 50.5069 35.5945 50.1249C35.6638 49.7428 35.5948 49.3488 35.3997 49.0119C35.2045 48.6749 34.8956 48.4165 34.527 48.2818H34.4836Z" fill="#FEFAEF"/>
</g>
<defs>
<clipPath id="clip0_21_22">
<rect width="88.7218" height="95.1921" rx="22" fill="white"/>
</clipPath>
</defs>
</svg>
