<svg width="1355" height="1523" viewBox="0 0 1355 1523" fill="none" xmlns="http://www.w3.org/2000/svg">
<path opacity="0.32" d="M1121.63 379.528C1249.14 521.212 1253.92 801.802 1120.62 1059.7C1037.45 1220.62 917.609 1339.71 794.433 1399L549.352 1333.02L1115.85 373.756" fill="#01050F"/>
<path d="M1032.23 304.015C1028.45 301.957 1024.56 300.055 1020.73 298.168L912.033 243.488L898.834 269.814C725.318 265.876 527.674 399.706 410.649 618.481C287.579 848.582 291.334 1100.3 406.607 1239.3L395.921 1260.37L488.112 1307.56L492.889 1310.25C497.697 1312.83 502.565 1315.17 507.45 1317.47L508.305 1317.7C701.758 1406.74 969.55 1266.19 1114.59 995.57C1263.48 717.916 1226.63 408.163 1032.23 304.015Z" fill="#497F60"/>
<path d="M1020.88 947.869C1169.87 670.018 1133.07 360.307 938.674 256.109C744.282 151.912 465.914 292.685 316.922 570.536C167.929 848.386 204.732 1158.1 399.123 1262.3C593.515 1366.49 871.883 1225.72 1020.88 947.869Z" fill="#99BC95"/>
<path d="M981.188 926.576C1113.38 680.057 1080.73 405.271 908.257 312.824C735.787 220.376 488.81 345.276 356.619 591.795C224.427 838.314 257.079 1113.1 429.549 1205.55C602.019 1297.99 848.996 1173.09 981.188 926.576Z" fill="#EBE6C6"/>
<path d="M371.619 620.866C503.76 374.326 750.769 249.446 923.547 341.725C967.178 365.47 1003.26 400.992 1027.68 444.241C1001.8 387.108 961.889 340.987 908.592 312.585C736.102 220.14 489.151 345.035 356.664 591.727C258.275 775.557 251.226 974.994 325.638 1102.75C267.693 974.905 280.231 791.183 371.619 620.866Z" fill="#D0C390"/>
<path d="M715.799 937.705L678.419 809.53C681.24 806.157 683.7 802.498 685.759 798.614C698.039 775.706 695.032 750.089 678.931 741.783C678.464 741.627 677.988 741.499 677.506 741.399L663.666 734.679L660.936 740.055L677.504 504.491L630.993 747.514L640.796 750.153C635.405 755.034 630.894 760.806 627.462 767.216C623.554 773.826 621.127 781.204 620.348 788.843C619.568 796.481 620.455 804.198 622.947 811.462L619.969 817.076L633.633 823.992L634.317 824.177L635.742 824.56L636.369 824.729C639.381 825.936 642.598 826.553 645.843 826.546L715.799 937.705Z" fill="#355E48"/>
<path d="M674.062 794.609C661.721 817.744 638.533 829.405 622.409 820.726C606.285 812.047 603.181 786.343 615.563 763.28C627.945 740.216 651.092 728.483 667.231 737.105C683.37 745.727 686.46 771.489 674.062 794.609Z" fill="#54944C"/>
<path d="M461.444 1163.67C460.909 1163.42 460.43 1163.06 460.034 1162.62C459.638 1162.18 459.333 1161.66 459.137 1161.11C458.94 1160.55 458.857 1159.96 458.89 1159.36C458.924 1158.77 459.074 1158.19 459.332 1157.66L482.255 1108.84C482.767 1107.77 483.678 1106.94 484.793 1106.53C485.908 1106.13 487.139 1106.17 488.222 1106.66V1106.66C489.305 1107.17 490.14 1108.1 490.547 1109.22C490.953 1110.35 490.897 1111.59 490.39 1112.68L467.41 1161.49C467.163 1162.02 466.812 1162.5 466.378 1162.9C465.943 1163.3 465.435 1163.61 464.88 1163.82C464.326 1164.02 463.737 1164.11 463.147 1164.08C462.558 1164.06 461.979 1163.92 461.444 1163.67V1163.67Z" fill="#306327"/>
<path d="M891.185 873.162C891.413 872.618 891.747 872.126 892.168 871.714C892.589 871.302 893.089 870.978 893.637 870.761C894.185 870.545 894.77 870.44 895.36 870.452C895.949 870.465 896.53 870.595 897.068 870.835L946.754 892.215C947.84 892.689 948.696 893.573 949.132 894.675C949.568 895.778 949.55 897.008 949.082 898.096V898.096C948.853 898.641 948.518 899.135 948.097 899.55C947.676 899.966 947.177 900.293 946.629 900.515C946.081 900.736 945.494 900.847 944.903 900.841C944.312 900.836 943.727 900.713 943.184 900.48L893.513 879.043C892.97 878.815 892.478 878.48 892.065 878.059C891.653 877.639 891.329 877.139 891.112 876.592C890.895 876.044 890.79 875.458 890.802 874.869C890.815 874.28 890.945 873.7 891.185 873.162Z" fill="#306327"/>
<path d="M781.622 1013.35C782.54 1012.6 783.716 1012.23 784.9 1012.33C786.083 1012.43 787.18 1012.99 787.955 1013.89L822.851 1055.25C823.233 1055.7 823.521 1056.22 823.7 1056.78C823.879 1057.34 823.946 1057.94 823.895 1058.52C823.845 1059.11 823.679 1059.68 823.406 1060.21C823.134 1060.73 822.761 1061.2 822.309 1061.58V1061.58C821.391 1062.33 820.215 1062.7 819.031 1062.6C817.848 1062.49 816.751 1061.93 815.976 1061.03L781.079 1019.68C780.324 1018.76 779.958 1017.59 780.06 1016.4C780.161 1015.22 780.722 1014.13 781.622 1013.35V1013.35Z" fill="#306327"/>
<path d="M496.787 497.647C497.238 497.266 497.759 496.978 498.322 496.799C498.885 496.62 499.477 496.554 500.066 496.604C500.654 496.655 501.227 496.821 501.751 497.093C502.275 497.365 502.74 497.738 503.119 498.191L538.031 539.485C538.833 540.376 539.249 541.549 539.19 542.746C539.131 543.943 538.602 545.069 537.716 545.877V545.877C537.265 546.258 536.743 546.546 536.18 546.725C535.618 546.904 535.025 546.97 534.437 546.92C533.848 546.869 533.276 546.703 532.752 546.431C532.228 546.158 531.763 545.785 531.383 545.333L496.487 503.982C496.083 503.55 495.77 503.042 495.566 502.487C495.362 501.932 495.271 501.342 495.299 500.751C495.327 500.161 495.473 499.582 495.729 499.048C495.984 498.515 496.344 498.039 496.787 497.647Z" fill="#306327"/>
<path d="M661.954 1088.68C663.116 1088.49 664.305 1088.77 665.266 1089.45C666.226 1090.13 666.879 1091.16 667.086 1092.32L676.196 1145.67C676.378 1146.84 676.092 1148.03 675.399 1148.99C674.706 1149.95 673.663 1150.59 672.496 1150.78V1150.78C671.334 1150.97 670.144 1150.7 669.184 1150.01C668.224 1149.33 667.57 1148.3 667.364 1147.14L658.296 1093.86C658.186 1093.28 658.195 1092.68 658.321 1092.11C658.447 1091.53 658.687 1090.98 659.028 1090.5C659.369 1090.01 659.804 1089.6 660.306 1089.29C660.809 1088.98 661.369 1088.77 661.954 1088.68V1088.68Z" fill="#306327"/>
<path d="M390.951 977.533C391.481 978.603 391.569 979.839 391.195 980.973C390.821 982.108 390.015 983.049 388.952 983.594L340.611 1007.85C340.088 1008.12 339.516 1008.29 338.929 1008.33C338.341 1008.38 337.751 1008.31 337.191 1008.12C336.632 1007.94 336.115 1007.64 335.671 1007.26C335.227 1006.87 334.864 1006.4 334.605 1005.87V1005.87C334.075 1004.81 333.986 1003.58 334.357 1002.46C334.729 1001.33 335.531 1000.4 336.588 999.865L385.374 975.543C386.388 975.153 387.508 975.14 388.531 975.505C389.554 975.87 390.412 976.59 390.951 977.533Z" fill="#306327"/>
<path d="M967.883 511.732C968.413 512.802 968.501 514.038 968.127 515.173C967.753 516.307 966.947 517.248 965.884 517.793L917.699 542.155C916.639 542.685 915.412 542.774 914.287 542.402C913.161 542.03 912.229 541.229 911.692 540.172C911.17 539.096 911.094 537.859 911.478 536.727C911.863 535.595 912.679 534.661 913.748 534.126L962.047 509.794C963.086 509.328 964.261 509.268 965.342 509.627C966.423 509.986 967.329 510.737 967.883 511.732V511.732Z" fill="#306327"/>
<path d="M395.929 828.926C395.895 829.515 395.746 830.092 395.49 830.623C395.233 831.154 394.874 831.629 394.434 832.021C393.993 832.414 393.48 832.715 392.922 832.909C392.365 833.102 391.775 833.184 391.186 833.149L336.93 830.336C336.341 830.302 335.764 830.153 335.232 829.896C334.701 829.64 334.226 829.281 333.833 828.841C333.441 828.4 333.139 827.886 332.945 827.329C332.752 826.772 332.67 826.182 332.705 825.593V825.593C332.769 824.412 333.297 823.303 334.175 822.509C335.052 821.715 336.209 821.301 337.391 821.356L391.632 824.226C392.223 824.25 392.804 824.391 393.341 824.641C393.878 824.891 394.36 825.244 394.76 825.681C395.159 826.118 395.468 826.63 395.669 827.187C395.869 827.744 395.958 828.335 395.929 828.926V828.926Z" fill="#306327"/>
<path d="M994.568 684.627C994.544 685.214 994.403 685.792 994.154 686.324C993.904 686.857 993.551 687.334 993.115 687.729C992.678 688.124 992.168 688.427 991.613 688.622C991.057 688.817 990.469 688.9 989.882 688.865L935.625 686.052C935.034 686.026 934.453 685.882 933.918 685.628C933.383 685.374 932.904 685.015 932.51 684.573C932.116 684.131 931.815 683.614 931.625 683.053C931.434 682.493 931.358 681.9 931.401 681.309C931.426 680.718 931.57 680.137 931.824 679.602C932.078 679.067 932.437 678.589 932.879 678.195C933.321 677.802 933.838 677.501 934.399 677.31C934.96 677.12 935.553 677.044 936.144 677.087L990.385 679.957C991.554 680.035 992.646 680.567 993.428 681.44C994.209 682.313 994.619 683.457 994.568 684.627V684.627Z" fill="#306327"/>
<path d="M647.615 382.865C648.778 382.678 649.967 382.955 650.927 383.636C651.887 384.317 652.541 385.349 652.747 386.508L661.857 439.859C662.024 441.025 661.731 442.209 661.041 443.163C660.351 444.118 659.317 444.766 658.158 444.973V444.973C656.998 445.145 655.816 444.863 654.859 444.184C653.903 443.505 653.246 442.483 653.026 441.331L643.973 387.995C643.785 386.833 644.061 385.644 644.743 384.684C645.424 383.725 646.456 383.071 647.615 382.865V382.865Z" fill="#306327"/>
<path d="M391.446 646.671C391.92 645.585 392.804 644.73 393.907 644.294C395.009 643.858 396.24 643.876 397.329 644.344L447.056 665.797C448.143 666.27 448.998 667.155 449.435 668.257C449.871 669.359 449.853 670.589 449.385 671.678C448.911 672.765 448.026 673.619 446.924 674.055C445.821 674.491 444.591 674.473 443.502 674.005L393.816 652.625C392.714 652.147 391.846 651.252 391.402 650.137C390.958 649.021 390.974 647.775 391.446 646.671V646.671Z" fill="#306327"/>
<path d="M807.023 431.034C806.489 430.788 806.009 430.437 805.612 430.003C805.215 429.569 804.908 429.06 804.71 428.506C804.512 427.952 804.427 427.364 804.459 426.777C804.49 426.189 804.639 425.614 804.896 425.085L827.819 376.263C828.066 375.729 828.416 375.25 828.851 374.853C829.285 374.456 829.794 374.149 830.348 373.952C830.902 373.754 831.49 373.668 832.078 373.7C832.666 373.732 833.241 373.881 833.77 374.138V374.138C834.311 374.379 834.799 374.727 835.203 375.16C835.607 375.593 835.921 376.103 836.124 376.659C836.328 377.215 836.418 377.807 836.389 378.398C836.36 378.99 836.212 379.569 835.954 380.103L812.974 428.909C812.728 429.443 812.377 429.923 811.943 430.32C811.508 430.717 810.999 431.023 810.445 431.221C809.891 431.419 809.303 431.504 808.715 431.472C808.128 431.44 807.552 431.291 807.023 431.034V431.034Z" fill="#306327"/>
</svg>
