<svg width="1355" height="1523" viewBox="0 0 1355 1523" fill="none" xmlns="http://www.w3.org/2000/svg">
<path opacity="0.32" d="M1121.62 379.547C1249.13 521.231 1253.92 801.821 1120.61 1059.72C1037.44 1220.64 917.604 1339.73 794.428 1399.02L549.347 1333.04L1115.84 373.775" fill="#01050F"/>
<path d="M1032.23 304.034C1028.44 301.976 1024.55 300.074 1020.72 298.187L912.029 243.507L898.83 269.833C725.314 265.895 527.67 399.725 410.644 618.5C287.575 848.601 291.33 1100.32 406.603 1239.32L395.917 1260.39L488.108 1307.58L492.885 1310.27C497.692 1312.84 502.561 1315.19 507.445 1317.49L508.3 1317.72C701.754 1406.76 969.546 1266.21 1114.59 995.589C1263.48 717.935 1226.63 408.182 1032.23 304.034Z" fill="#497F60"/>
<path d="M1020.88 947.869C1169.87 670.018 1133.07 360.307 938.674 256.109C744.282 151.912 465.915 292.685 316.922 570.536C167.929 848.386 204.732 1158.1 399.124 1262.3C593.515 1366.49 871.883 1225.72 1020.88 947.869Z" fill="#99BC95"/>
<path d="M981.188 926.576C1113.38 680.057 1080.73 405.271 908.257 312.824C735.788 220.376 488.81 345.276 356.619 591.795C224.427 838.314 257.079 1113.1 429.549 1205.55C602.019 1297.99 848.996 1173.09 981.188 926.576Z" fill="#EBE6C6"/>
<path d="M371.615 620.885C503.756 374.345 750.764 249.465 923.543 341.744C967.174 365.489 1003.25 401.011 1027.67 444.26C1001.79 387.128 961.884 341.006 908.587 312.605C736.098 220.16 489.146 345.054 356.66 591.746C258.271 775.576 251.222 975.013 325.634 1102.77C267.689 974.924 280.227 791.202 371.615 620.885Z" fill="#D0C390"/>
<path d="M715.793 937.725L678.414 809.55C681.235 806.177 683.695 802.518 685.754 798.633C698.033 775.726 695.027 750.109 678.925 741.802C678.458 741.647 677.983 741.519 677.501 741.419L663.661 734.699L660.931 740.074L645.836 510.991L630.988 747.534L640.791 750.173C635.4 755.054 630.889 760.826 627.457 767.236C623.549 773.846 621.122 781.224 620.342 788.863C619.563 796.501 620.45 804.218 622.942 811.481L619.964 817.095L633.628 824.012L634.312 824.196L635.736 824.58L636.363 824.749C639.376 825.956 642.592 826.573 645.838 826.566L715.793 937.725Z" fill="#355E48"/>
<path d="M674.057 794.629C661.716 817.764 638.528 829.425 622.404 820.746C606.28 812.067 603.175 786.363 615.558 763.299C627.94 740.236 651.087 728.503 667.226 737.125C683.365 745.747 686.454 771.509 674.057 794.629Z" fill="#54944C"/>
<path d="M461.444 1163.67C460.909 1163.42 460.43 1163.06 460.034 1162.62C459.638 1162.18 459.333 1161.66 459.137 1161.11C458.941 1160.55 458.857 1159.96 458.89 1159.36C458.924 1158.77 459.074 1158.19 459.332 1157.66L482.255 1108.84C482.767 1107.77 483.678 1106.94 484.793 1106.53C485.909 1106.13 487.139 1106.17 488.222 1106.66V1106.66C489.305 1107.17 490.141 1108.1 490.547 1109.22C490.953 1110.35 490.897 1111.59 490.39 1112.68L467.41 1161.49C467.163 1162.02 466.812 1162.5 466.378 1162.9C465.944 1163.3 465.435 1163.61 464.88 1163.82C464.326 1164.02 463.737 1164.11 463.148 1164.08C462.558 1164.06 461.979 1163.92 461.444 1163.67V1163.67Z" fill="#306327"/>
<path d="M891.179 873.181C891.408 872.638 891.742 872.146 892.163 871.734C892.584 871.322 893.083 870.998 893.631 870.781C894.179 870.564 894.765 870.459 895.354 870.472C895.943 870.484 896.524 870.615 897.063 870.854L946.748 892.234C947.835 892.708 948.69 893.593 949.127 894.695C949.563 895.797 949.545 897.027 949.077 898.116V898.116C948.848 898.661 948.513 899.155 948.092 899.57C947.671 899.985 947.172 900.313 946.624 900.535C946.076 900.756 945.489 900.867 944.898 900.861C944.307 900.855 943.722 900.732 943.178 900.5L893.508 879.063C892.965 878.835 892.472 878.5 892.06 878.079C891.648 877.658 891.323 877.159 891.107 876.611C890.89 876.064 890.784 875.478 890.797 874.889C890.809 874.3 890.939 873.719 891.179 873.181Z" fill="#306327"/>
<path d="M781.617 1013.37C782.534 1012.62 783.711 1012.25 784.894 1012.35C786.078 1012.45 787.175 1013.01 787.95 1013.91L822.846 1055.27C823.228 1055.72 823.516 1056.24 823.695 1056.8C823.874 1057.36 823.94 1057.96 823.89 1058.54C823.84 1059.13 823.673 1059.7 823.401 1060.23C823.129 1060.75 822.756 1061.22 822.303 1061.6V1061.6C821.386 1062.35 820.21 1062.72 819.026 1062.61C817.842 1062.51 816.746 1061.95 815.97 1061.05L781.074 1019.7C780.319 1018.78 779.953 1017.61 780.055 1016.42C780.156 1015.24 780.717 1014.14 781.617 1013.37V1013.37Z" fill="#306327"/>
<path d="M496.781 497.667C497.232 497.286 497.754 496.997 498.317 496.818C498.88 496.639 499.472 496.573 500.06 496.624C500.649 496.674 501.222 496.841 501.746 497.113C502.27 497.385 502.735 497.758 503.114 498.211L538.026 539.505C538.827 540.396 539.244 541.568 539.185 542.766C539.126 543.963 538.596 545.088 537.711 545.897V545.897C537.26 546.278 536.738 546.566 536.175 546.745C535.613 546.924 535.02 546.99 534.432 546.94C533.843 546.889 533.271 546.723 532.747 546.451C532.222 546.178 531.757 545.805 531.378 545.353L496.482 504.002C496.078 503.57 495.765 503.061 495.561 502.506C495.357 501.952 495.266 501.361 495.294 500.771C495.322 500.18 495.468 499.601 495.723 499.068C495.979 498.535 496.338 498.059 496.781 497.667Z" fill="#306327"/>
<path d="M661.948 1088.7C663.111 1088.51 664.3 1088.79 665.26 1089.47C666.221 1090.15 666.874 1091.18 667.081 1092.34L676.191 1145.69C676.373 1146.86 676.086 1148.05 675.394 1149.01C674.701 1149.97 673.658 1150.61 672.491 1150.8V1150.8C671.329 1150.99 670.139 1150.72 669.179 1150.03C668.219 1149.35 667.565 1148.32 667.359 1147.16L658.291 1093.88C658.181 1093.3 658.19 1092.7 658.316 1092.13C658.441 1091.55 658.682 1091 659.023 1090.52C659.364 1090.03 659.799 1089.62 660.301 1089.31C660.804 1089 661.364 1088.79 661.948 1088.7V1088.7Z" fill="#306327"/>
<path d="M390.945 977.553C391.476 978.623 391.564 979.859 391.19 980.993C390.816 982.128 390.01 983.069 388.947 983.614L340.606 1007.87C340.083 1008.14 339.511 1008.31 338.923 1008.35C338.336 1008.4 337.746 1008.33 337.186 1008.14C336.627 1007.96 336.11 1007.66 335.666 1007.28C335.221 1006.89 334.859 1006.42 334.6 1005.89V1005.89C334.07 1004.83 333.981 1003.6 334.352 1002.48C334.724 1001.35 335.526 1000.42 336.583 999.885L385.369 975.562C386.383 975.173 387.502 975.16 388.525 975.525C389.549 975.89 390.407 976.609 390.945 977.553Z" fill="#306327"/>
<path d="M967.877 511.752C968.408 512.822 968.496 514.058 968.122 515.192C967.748 516.327 966.942 517.268 965.879 517.813L917.694 542.175C916.634 542.705 915.407 542.793 914.281 542.422C913.156 542.05 912.223 541.248 911.687 540.192C911.165 539.116 911.088 537.878 911.473 536.747C911.858 535.615 912.673 534.68 913.743 534.146L962.042 509.814C963.08 509.348 964.256 509.288 965.337 509.647C966.417 510.005 967.324 510.757 967.877 511.752V511.752Z" fill="#306327"/>
<path d="M395.924 828.946C395.891 829.535 395.742 830.112 395.485 830.643C395.229 831.174 394.87 831.649 394.429 832.041C393.989 832.434 393.475 832.735 392.918 832.929C392.36 833.122 391.77 833.204 391.181 833.169L336.925 830.356C336.336 830.322 335.759 830.173 335.228 829.917C334.697 829.66 334.221 829.301 333.829 828.861C333.436 828.42 333.135 827.906 332.941 827.349C332.748 826.792 332.666 826.202 332.701 825.613V825.613C332.764 824.432 333.292 823.323 334.17 822.529C335.048 821.736 336.204 821.321 337.387 821.376L391.627 824.246C392.219 824.27 392.8 824.411 393.337 824.661C393.874 824.911 394.356 825.264 394.755 825.701C395.155 826.138 395.464 826.65 395.664 827.207C395.865 827.764 395.953 828.355 395.924 828.946V828.946Z" fill="#306327"/>
<path d="M994.563 684.647C994.539 685.235 994.398 685.812 994.149 686.344C993.899 686.877 993.546 687.355 993.109 687.749C992.673 688.144 992.163 688.447 991.607 688.642C991.052 688.837 990.464 688.92 989.876 688.885L935.62 686.072C935.029 686.046 934.448 685.902 933.913 685.648C933.378 685.394 932.899 685.035 932.505 684.593C932.111 684.151 931.81 683.634 931.619 683.073C931.429 682.513 931.353 681.92 931.396 681.329C931.421 680.738 931.565 680.157 931.819 679.622C932.073 679.087 932.432 678.609 932.874 678.215C933.316 677.822 933.833 677.521 934.394 677.33C934.955 677.14 935.548 677.064 936.139 677.107L990.38 679.977C991.549 680.055 992.641 680.587 993.423 681.46C994.204 682.333 994.614 683.477 994.563 684.647V684.647Z" fill="#306327"/>
<path d="M647.61 382.885C648.772 382.698 649.962 382.974 650.922 383.656C651.882 384.337 652.536 385.369 652.742 386.527L661.852 439.879C662.019 441.044 661.726 442.229 661.036 443.183C660.346 444.137 659.312 444.786 658.153 444.993V444.993C656.992 445.165 655.81 444.882 654.854 444.203C653.898 443.525 653.241 442.502 653.02 441.351L643.967 388.015C643.78 386.853 644.056 385.664 644.738 384.704C645.419 383.744 646.451 383.091 647.61 382.885V382.885Z" fill="#306327"/>
<path d="M391.441 646.691C391.915 645.605 392.8 644.75 393.902 644.314C395.005 643.878 396.235 643.896 397.325 644.364L447.052 665.817C448.139 666.29 448.994 667.175 449.43 668.277C449.867 669.379 449.849 670.609 449.381 671.698C448.907 672.785 448.022 673.639 446.92 674.075C445.817 674.511 444.587 674.493 443.497 674.025L393.812 652.645C392.71 652.167 391.842 651.272 391.398 650.157C390.954 649.041 390.969 647.795 391.441 646.691V646.691Z" fill="#306327"/>
<path d="M807.018 431.054C806.484 430.807 806.004 430.456 805.607 430.022C805.21 429.588 804.903 429.079 804.705 428.525C804.507 427.971 804.422 427.383 804.454 426.796C804.486 426.208 804.634 425.633 804.891 425.104L827.814 376.282C828.061 375.748 828.412 375.269 828.846 374.872C829.28 374.475 829.789 374.168 830.343 373.971C830.897 373.773 831.485 373.687 832.073 373.719C832.661 373.751 833.236 373.9 833.765 374.157V374.157C834.307 374.398 834.794 374.746 835.198 375.179C835.602 375.612 835.916 376.122 836.119 376.678C836.323 377.234 836.413 377.826 836.384 378.417C836.355 379.009 836.207 379.588 835.949 380.122L812.969 428.928C812.723 429.462 812.372 429.942 811.938 430.339C811.503 430.736 810.994 431.042 810.44 431.24C809.886 431.438 809.298 431.523 808.71 431.491C808.123 431.459 807.548 431.31 807.018 431.054V431.054Z" fill="#306327"/>
</svg>
