<svg width="1098" height="1080" viewBox="0 0 1098 1080" fill="none" xmlns="http://www.w3.org/2000/svg">
<path d="M354.948 825.797L331.651 755.945L580.025 674.3L603.334 744.138L354.948 825.797Z" fill="#E4E4E4"/>
<path d="M236.667 826.852L236.4 826.05C229.054 804.012 236.49 781.693 253.015 776.186L441.538 711.769L470.957 793.98L279.9 856.766C263.364 862.288 244.014 848.891 236.667 826.852Z" fill="#355E48"/>
<g style="mix-blend-mode:multiply" opacity="0.2">
<path d="M563 680.3L550.156 683.577L507.791 774.311L598.968 744.92L563 680.3Z" fill="#5C5C5C"/>
</g>
<path d="M850.589 859.648C892.168 845.793 928.7 819.919 955.567 785.297C982.434 750.676 998.428 708.863 1001.53 665.145C1004.63 621.428 994.689 577.77 972.976 539.692C951.262 501.614 918.746 470.827 879.539 451.224C840.332 431.621 796.195 424.082 752.71 429.561C709.225 435.04 668.345 453.29 635.24 482.005C602.134 510.719 578.291 548.607 566.724 590.878C555.157 633.149 556.386 677.904 570.256 719.484C579.463 747.091 594.018 772.617 613.089 794.602C632.16 816.587 655.374 834.602 681.406 847.618C707.438 860.633 735.777 868.395 764.806 870.459C793.834 872.523 822.983 868.85 850.589 859.648ZM599.642 709.668C587.717 673.897 586.667 635.398 596.623 599.037C606.58 562.675 627.097 530.086 655.58 505.39C684.062 480.694 719.231 465 756.639 460.293C794.046 455.586 832.013 462.076 865.738 478.945C899.463 495.813 927.43 522.301 946.105 555.059C964.779 587.817 973.321 625.374 970.651 662.981C967.981 700.588 954.218 736.555 931.104 766.335C907.989 796.115 876.56 818.369 840.792 830.285C792.826 846.253 740.477 842.517 695.255 819.898C650.032 797.279 615.641 757.629 599.642 709.668Z" fill="#355E48" stroke="#355E48" stroke-width="4" stroke-miterlimit="10"/>
<path opacity="0.5" d="M590.7 667.385C600.649 772.197 693.684 849.122 798.498 839.203C903.313 829.283 980.217 736.275 970.267 631.463C960.318 526.651 867.283 449.725 762.469 459.645C657.654 469.565 580.75 562.573 590.7 667.385Z" fill="#C8E7F5"/>
<g opacity="0.22">
<path opacity="0.22" d="M873.956 548.408C921.373 586.476 938.595 651.979 914.235 707.895C889.874 763.811 829.444 796.386 769.359 786.628C752.421 783.893 746.94 809.919 763.883 812.704C797.625 818.209 832.24 812.959 862.827 797.698C893.413 782.437 918.42 757.939 934.305 727.674C966.261 666.536 953.256 591.18 906.145 541.723C901.568 536.994 896.681 532.573 891.518 528.49C878.162 517.796 860.511 537.709 873.941 548.512L873.956 548.408Z" fill="white"/>
</g>
<path opacity="0.31" d="M703.515 774.758C698.377 782.965 700.865 793.786 709.074 798.927C717.283 804.068 728.103 801.583 733.242 793.376C738.381 785.168 735.893 774.348 727.684 769.207C719.475 764.066 708.654 766.551 703.515 774.758Z" fill="white"/>
<path d="M442.003 715.058L469.989 793.295C470.455 794.591 471.384 795.667 472.597 796.318C473.809 796.97 475.22 797.149 476.557 796.821L477.451 796.584C478.21 796.398 478.922 796.053 479.539 795.573C480.156 795.093 480.664 794.488 481.031 793.797C481.398 793.107 481.615 792.346 481.667 791.566C481.72 790.786 481.607 790.004 481.336 789.27L452.594 711.244C452.341 710.548 451.951 709.91 451.447 709.367C450.943 708.824 450.336 708.387 449.661 708.083C448.986 707.778 448.257 707.611 447.517 707.592C446.776 707.574 446.04 707.703 445.35 707.973L445.282 708.056C443.932 708.568 442.835 709.585 442.223 710.892C441.611 712.199 441.532 713.693 442.003 715.058Z" fill="#355E48"/>
<path d="M660.927 791.852C625.756 762.763 602.313 721.919 594.939 676.882C587.565 631.846 596.758 585.667 620.818 546.896C644.955 507.528 683.97 478.531 728.068 465.427C760.718 455.869 795.347 455.316 828.291 463.826C861.235 472.336 891.268 489.593 915.211 513.77C939.155 537.946 956.119 568.144 964.308 601.167C972.497 634.191 971.606 668.811 961.731 701.364C947.961 745.998 918.295 784.027 878.355 808.244C840.154 831.477 793.853 839.739 749.851 832.543C717.155 827.014 686.487 812.981 660.927 791.852C655.888 787.686 649.418 795.511 654.468 799.664C689.528 828.616 733.445 844.688 778.906 845.205C824.367 845.722 868.629 830.652 904.323 802.505C931.305 781.216 952.304 753.294 965.271 721.465C978.239 689.635 982.731 654.986 978.31 620.897C973.888 586.809 960.704 554.447 940.045 526.97C919.385 499.492 891.956 477.838 860.434 464.12C829.235 450.546 795.077 445.204 761.228 448.603C727.378 452.003 694.97 464.031 667.103 483.537C639.236 503.043 616.842 529.375 602.065 560.013C587.287 590.651 580.62 624.57 582.701 658.526C584.435 685.681 591.693 712.199 604.032 736.454C616.371 760.71 633.531 782.193 654.461 799.588C659.51 803.856 665.969 796.044 660.927 791.852Z" fill="#DEDAE8"/>
<path d="M221.161 779.964C231.092 797.471 253.145 829.16 263.248 845.251C305.461 863.214 379.206 889.287 381.607 887.647C395.637 878.101 408.231 869.645 422.199 860.117C422.844 859.675 407.131 840.501 407.776 840.059C408.421 839.616 412.203 842.604 416.611 846.016L442.975 863.749C443.995 864.532 445.239 864.965 446.524 864.986C447.81 865.006 449.067 864.612 450.111 863.862C458.087 858.095 474.902 845.321 474.327 843.683C474.115 843.067 454.108 824.224 448.997 818.092L452.569 816.584L494.879 845.758C494.879 845.758 524.447 824.055 523.635 822.478C522.655 820.599 494.209 786.83 494.209 786.83C494.209 786.83 423.104 710.168 418.381 704.241C411.558 695.625 408.663 683.889 399.704 677.829C389.699 671.067 377.754 667.999 366.078 665.084L281.035 643.567C265.483 634.263 231.976 610.298 215.752 602.229C193.404 643.96 169.151 684.396 148.913 734.68C148.262 736.141 216.883 772.43 221.161 779.964Z" fill="#F6C5B0"/>
<path d="M171.806 549.394L251.261 601.171L185.991 787.948L76.9145 739.611L160.942 541.224L171.806 549.394Z" fill="#F6F6F6"/>
<path d="M118.017 782.868C118.017 782.868 155.561 566.286 172.747 529.28L-18.2356 357.239L-225 607.303L118.017 782.868Z" fill="#497F60"/>
<path d="M196.546 607.1C195.329 605.395 194.645 603.369 194.58 601.276C194.515 599.183 195.073 597.118 196.182 595.343C197.29 593.567 198.901 592.16 200.81 591.3C202.719 590.44 204.84 590.165 206.905 590.511C208.971 590.856 210.887 591.807 212.413 593.241C213.938 594.676 215.004 596.531 215.475 598.571C215.947 600.611 215.802 602.745 215.061 604.703C214.319 606.661 213.014 608.354 211.309 609.57C210.179 610.379 208.899 610.957 207.545 611.271C206.19 611.585 204.787 611.628 203.416 611.399C202.044 611.169 200.731 610.671 199.552 609.934C198.374 609.196 197.352 608.233 196.546 607.1Z" fill="#355E48"/>
<path d="M403.871 667.448L449.726 673.248L498.27 666.911C498.27 666.911 518.214 674.361 504.331 692.023C490.448 709.684 466.325 709.397 448.553 707.53C440.715 706.72 412.557 710.835 393.116 716.046C367.659 722.883 330.225 662.79 330.225 662.79C330.225 662.79 399.413 666.992 403.871 667.448Z" fill="#F6C5B0"/>
</svg>
