<svg width="1355" height="1523" viewBox="0 0 1355 1523" fill="none" xmlns="http://www.w3.org/2000/svg">
<path opacity="0.32" d="M1121.62 379.555C1249.13 521.239 1253.92 801.829 1120.61 1059.73C1037.44 1220.65 917.602 1339.74 794.426 1399.03L549.346 1333.05L1115.84 373.783" fill="#01050F"/>
<path d="M1032.23 304.042C1028.44 301.984 1024.55 300.082 1020.72 298.195L912.028 243.515L898.828 269.841C725.313 265.903 527.668 399.733 410.643 618.508C287.573 848.609 291.328 1100.33 406.602 1239.33L395.916 1260.4L488.107 1307.58L492.883 1310.27C497.691 1312.85 502.56 1315.2 507.444 1317.49L508.299 1317.72C701.753 1406.77 969.544 1266.22 1114.59 995.597C1263.48 717.943 1226.63 408.19 1032.23 304.042Z" fill="#497F60"/>
<path d="M1020.88 947.869C1169.87 670.019 1133.07 360.307 938.674 256.11C744.283 151.912 465.915 292.686 316.922 570.536C167.929 848.387 204.732 1158.1 399.124 1262.3C593.515 1366.49 871.883 1225.72 1020.88 947.869Z" fill="#99BC95"/>
<path d="M981.188 926.576C1113.38 680.057 1080.73 405.271 908.258 312.824C735.788 220.377 488.811 345.276 356.619 591.795C224.427 838.314 257.079 1113.1 429.549 1205.55C602.019 1297.99 848.996 1173.1 981.188 926.576Z" fill="#EBE6C6"/>
<path d="M371.614 620.893C503.754 374.353 750.763 249.473 923.542 341.752C967.173 365.497 1003.25 401.019 1027.67 444.268C1001.79 387.136 961.883 341.014 908.586 312.612C736.097 220.167 489.145 345.062 356.658 591.754C258.27 775.584 251.22 975.021 325.632 1102.78C267.687 974.932 280.225 791.21 371.614 620.893Z" fill="#D0C390"/>
<path d="M715.791 937.733L678.412 809.558C681.233 806.185 683.693 802.526 685.752 798.641C698.031 775.734 695.025 750.117 678.923 741.81C678.456 741.655 677.981 741.527 677.498 741.427V741.427L663.659 734.707L660.928 740.082L625.438 515.201L630.986 747.542L640.789 750.181C635.398 755.062 630.887 760.834 627.455 767.244C623.547 773.854 621.12 781.232 620.34 788.871C619.561 796.509 620.448 804.226 622.94 811.49L619.962 817.104L633.626 824.02L634.309 824.204L635.734 824.588L636.361 824.757C639.374 825.964 642.59 826.581 645.836 826.574L715.791 937.733Z" fill="#355E48"/>
<path d="M674.055 794.637C661.714 817.772 638.525 829.433 622.402 820.754C606.278 812.075 603.173 786.371 615.556 763.308C627.938 740.244 651.085 728.511 667.224 737.133C683.363 745.755 686.452 771.517 674.055 794.637Z" fill="#54944C"/>
<path d="M461.444 1163.67C460.909 1163.42 460.43 1163.06 460.034 1162.62C459.638 1162.18 459.333 1161.66 459.137 1161.11C458.941 1160.55 458.857 1159.96 458.89 1159.36C458.924 1158.77 459.074 1158.2 459.332 1157.66L482.255 1108.84C482.767 1107.77 483.678 1106.94 484.793 1106.53C485.909 1106.13 487.139 1106.17 488.222 1106.66V1106.66C489.305 1107.17 490.141 1108.1 490.547 1109.22C490.953 1110.35 490.897 1111.59 490.39 1112.68L467.41 1161.49C467.163 1162.02 466.812 1162.5 466.378 1162.9C465.944 1163.3 465.435 1163.61 464.88 1163.82C464.326 1164.02 463.737 1164.11 463.148 1164.09C462.558 1164.06 461.979 1163.92 461.444 1163.67V1163.67Z" fill="#306327"/>
<path d="M891.178 873.189C891.406 872.646 891.74 872.154 892.161 871.742C892.582 871.33 893.082 871.006 893.63 870.789C894.178 870.573 894.763 870.467 895.353 870.48C895.942 870.493 896.523 870.623 897.061 870.863L946.747 892.243C947.833 892.717 948.689 893.601 949.125 894.703C949.561 895.806 949.543 897.036 949.075 898.124V898.124C948.846 898.669 948.511 899.163 948.09 899.578C947.669 899.993 947.17 900.321 946.622 900.543C946.074 900.764 945.487 900.875 944.896 900.869C944.305 900.863 943.72 900.741 943.177 900.508L893.506 879.071C892.963 878.843 892.471 878.508 892.058 878.087C891.646 877.666 891.322 877.167 891.105 876.62C890.888 876.072 890.783 875.486 890.795 874.897C890.808 874.308 890.938 873.728 891.178 873.189Z" fill="#306327"/>
<path d="M781.615 1013.38C782.532 1012.62 783.709 1012.26 784.892 1012.36C786.076 1012.46 787.173 1013.02 787.948 1013.92L822.844 1055.27C823.225 1055.72 823.514 1056.25 823.693 1056.81C823.872 1057.37 823.938 1057.96 823.888 1058.55C823.837 1059.14 823.671 1059.71 823.399 1060.24C823.127 1060.76 822.754 1061.22 822.301 1061.6V1061.6C821.384 1062.36 820.208 1062.72 819.024 1062.62C817.84 1062.52 816.743 1061.96 815.968 1061.06L781.072 1019.71C780.317 1018.79 779.951 1017.62 780.052 1016.43C780.154 1015.25 780.715 1014.15 781.615 1013.38V1013.38Z" fill="#306327"/>
<path d="M496.779 497.675C497.23 497.294 497.752 497.006 498.315 496.827C498.878 496.648 499.47 496.581 500.059 496.632C500.647 496.683 501.22 496.849 501.744 497.121C502.268 497.393 502.733 497.766 503.112 498.219L538.024 539.513C538.825 540.404 539.242 541.577 539.183 542.774C539.124 543.971 538.594 545.097 537.709 545.905V545.905C537.258 546.286 536.736 546.574 536.173 546.753C535.611 546.932 535.018 546.998 534.43 546.948C533.841 546.897 533.269 546.731 532.745 546.459C532.221 546.186 531.755 545.813 531.376 545.361L496.48 504.01C496.076 503.578 495.763 503.07 495.559 502.515C495.355 501.96 495.264 501.37 495.292 500.779C495.32 500.188 495.466 499.609 495.721 499.076C495.977 498.543 496.337 498.067 496.779 497.675Z" fill="#306327"/>
<path d="M661.946 1088.7C663.109 1088.52 664.298 1088.79 665.258 1089.48C666.218 1090.16 666.872 1091.19 667.078 1092.35L676.189 1145.7C676.371 1146.87 676.084 1148.06 675.392 1149.02C674.699 1149.97 673.656 1150.62 672.489 1150.81V1150.81C671.327 1151 670.137 1150.72 669.177 1150.04C668.217 1149.36 667.563 1148.33 667.357 1147.17L658.288 1093.89C658.179 1093.31 658.188 1092.71 658.314 1092.13C658.439 1091.56 658.68 1091.01 659.021 1090.53C659.362 1090.04 659.797 1089.63 660.299 1089.32C660.802 1089.01 661.362 1088.8 661.946 1088.7V1088.7Z" fill="#306327"/>
<path d="M390.943 977.561C391.474 978.631 391.562 979.867 391.188 981.001C390.814 982.136 390.008 983.077 388.945 983.622L340.604 1007.88C340.081 1008.15 339.509 1008.31 338.921 1008.36C338.334 1008.41 337.744 1008.34 337.184 1008.15C336.625 1007.97 336.108 1007.67 335.664 1007.29C335.22 1006.9 334.857 1006.43 334.598 1005.9V1005.9C334.068 1004.84 333.979 1003.61 334.35 1002.49C334.722 1001.36 335.524 1000.43 336.581 999.893L385.367 975.571C386.381 975.181 387.5 975.168 388.524 975.533C389.547 975.898 390.405 976.618 390.943 977.561Z" fill="#306327"/>
<path d="M967.876 511.76C968.406 512.83 968.494 514.066 968.12 515.201C967.746 516.335 966.94 517.276 965.877 517.821L917.692 542.183C916.632 542.713 915.405 542.802 914.28 542.43C913.154 542.058 912.222 541.257 911.685 540.2C911.164 539.124 911.087 537.887 911.471 536.755C911.856 535.623 912.672 534.689 913.741 534.154L962.04 509.822C963.079 509.356 964.254 509.296 965.335 509.655C966.416 510.014 967.322 510.765 967.876 511.76V511.76Z" fill="#306327"/>
<path d="M395.923 828.954C395.89 829.543 395.741 830.12 395.484 830.651C395.227 831.182 394.869 831.657 394.428 832.05C393.987 832.442 393.474 832.743 392.916 832.937C392.359 833.13 391.769 833.212 391.18 833.177L336.924 830.364C336.335 830.33 335.758 830.181 335.227 829.925C334.695 829.668 334.22 829.309 333.827 828.869C333.435 828.428 333.133 827.915 332.94 827.357C332.746 826.8 332.664 826.21 332.699 825.621V825.621C332.763 824.44 333.291 823.331 334.169 822.537C335.047 821.744 336.203 821.329 337.385 821.384L391.626 824.254C392.218 824.278 392.799 824.419 393.335 824.669C393.872 824.919 394.354 825.272 394.754 825.709C395.153 826.146 395.462 826.658 395.663 827.215C395.864 827.772 395.952 828.363 395.923 828.954V828.954Z" fill="#306327"/>
<path d="M994.561 684.655C994.537 685.243 994.396 685.82 994.146 686.352C993.897 686.885 993.544 687.363 993.107 687.757C992.671 688.152 992.16 688.455 991.605 688.65C991.05 688.845 990.462 688.928 989.874 688.893L935.618 686.08C935.026 686.054 934.446 685.91 933.911 685.656C933.376 685.402 932.897 685.043 932.503 684.601C932.109 684.159 931.808 683.642 931.617 683.081C931.427 682.521 931.351 681.928 931.393 681.337C931.419 680.746 931.563 680.165 931.817 679.63C932.071 679.095 932.43 678.617 932.872 678.223C933.314 677.83 933.831 677.529 934.392 677.338C934.953 677.148 935.546 677.072 936.137 677.115L990.378 679.985C991.547 680.063 992.639 680.595 993.421 681.468C994.202 682.341 994.611 683.485 994.561 684.655V684.655Z" fill="#306327"/>
<path d="M647.608 382.893C648.77 382.706 649.96 382.982 650.92 383.664C651.88 384.345 652.534 385.377 652.74 386.536L661.85 439.887C662.017 441.053 661.724 442.237 661.034 443.191C660.344 444.145 659.31 444.794 658.15 445.001V445.001C656.99 445.173 655.808 444.89 654.852 444.212C653.895 443.533 653.238 442.511 653.018 441.359L643.965 388.023C643.777 386.861 644.054 385.672 644.735 384.712C645.417 383.752 646.449 383.099 647.608 382.893V382.893Z" fill="#306327"/>
<path d="M391.44 646.699C391.914 645.613 392.798 644.758 393.901 644.322C395.003 643.886 396.234 643.904 397.323 644.372L447.05 665.825C448.137 666.299 448.992 667.183 449.429 668.285C449.865 669.388 449.847 670.618 449.379 671.706C448.905 672.793 448.02 673.647 446.918 674.084C445.816 674.52 444.585 674.501 443.496 674.033L393.81 652.653C392.708 652.175 391.84 651.281 391.396 650.165C390.952 649.049 390.968 647.803 391.44 646.699V646.699Z" fill="#306327"/>
<path d="M807.016 431.061C806.482 430.815 806.002 430.464 805.605 430.03C805.208 429.596 804.902 429.087 804.704 428.533C804.506 427.979 804.42 427.391 804.452 426.803C804.484 426.216 804.633 425.641 804.889 425.112L827.812 376.29C828.059 375.756 828.41 375.276 828.844 374.88C829.278 374.483 829.787 374.176 830.342 373.978C830.896 373.781 831.484 373.695 832.071 373.727C832.659 373.759 833.234 373.908 833.764 374.165V374.165C834.305 374.406 834.792 374.754 835.196 375.187C835.601 375.62 835.914 376.129 836.118 376.686C836.321 377.242 836.411 377.833 836.382 378.425C836.353 379.017 836.205 379.596 835.948 380.13L812.968 428.936C812.721 429.47 812.37 429.95 811.936 430.347C811.502 430.743 810.993 431.05 810.439 431.248C809.884 431.446 809.296 431.531 808.709 431.499C808.121 431.467 807.546 431.318 807.016 431.061V431.061Z" fill="#306327"/>
</svg>
