<svg width="1339" height="1025" viewBox="0 0 1339 1025" fill="none" xmlns="http://www.w3.org/2000/svg">
<path opacity="0.32" d="M1121.92 379.743C1249.43 521.427 1254.21 802.017 1120.91 1059.91C1037.73 1220.83 917.897 1339.93 794.722 1399.21L549.641 1333.24L1116.14 373.97" fill="#01050F"/>
<path d="M1032.52 304.23C1028.74 302.172 1024.85 300.27 1021.02 298.383L912.324 243.703L899.124 270.029C725.609 266.091 527.964 399.921 410.939 618.696C287.869 848.797 291.624 1100.51 406.898 1239.51L396.212 1260.59L488.402 1307.77L493.179 1310.46C497.987 1313.04 502.856 1315.39 507.74 1317.68L508.595 1317.91C702.049 1406.96 969.84 1266.41 1114.88 995.785C1263.77 718.131 1226.92 408.378 1032.52 304.23Z" fill="#497F60"/>
<path d="M1021.17 948.046C1170.17 670.196 1133.36 360.484 938.973 256.287C744.581 152.089 466.213 292.863 317.221 570.713C168.228 848.564 205.031 1158.27 399.422 1262.47C593.814 1366.67 872.182 1225.9 1021.17 948.046Z" fill="#99BC95"/>
<path d="M981.486 926.753C1113.68 680.234 1081.03 405.448 908.556 313.001C736.086 220.553 489.109 345.453 356.917 591.972C224.725 838.491 257.378 1113.28 429.848 1205.72C602.318 1298.17 849.295 1173.27 981.486 926.753Z" fill="#EBE6C6"/>
<path d="M371.91 621.081C504.05 374.541 751.059 249.661 923.838 341.94C967.469 365.685 1003.55 401.207 1027.97 444.456C1002.09 387.323 962.179 341.201 908.882 312.8C736.393 220.355 489.441 345.25 356.954 591.941C258.566 775.772 251.516 975.209 325.928 1102.96C267.983 975.12 280.521 791.398 371.91 621.081Z" fill="#D0C390"/>
<path d="M716.087 937.921L678.707 809.746C681.528 806.373 683.988 802.714 686.047 798.83C698.327 775.922 695.32 750.305 679.219 741.999C678.752 741.843 678.276 741.715 677.794 741.615L663.955 734.895L661.224 740.271L625.733 515.389L631.281 747.73L641.084 750.369C635.693 755.25 631.182 761.022 627.75 767.432C623.842 774.042 621.415 781.42 620.636 789.059C619.856 796.697 620.743 804.414 623.235 811.678L620.257 817.292L633.921 824.209L634.605 824.393L636.03 824.776L636.657 824.945C639.669 826.152 642.886 826.769 646.131 826.762L716.087 937.921Z" fill="#355E48"/>
<path d="M674.35 794.825C662.009 817.96 638.821 829.621 622.697 820.942C606.574 812.264 603.469 786.559 615.851 763.496C628.233 740.432 651.38 728.699 667.519 737.321C683.658 745.943 686.748 771.705 674.35 794.825Z" fill="#54944C"/>
<path d="M891.473 873.378C891.701 872.834 892.036 872.342 892.457 871.93C892.878 871.518 893.377 871.194 893.925 870.977C894.473 870.761 895.058 870.656 895.648 870.668C896.237 870.681 896.818 870.811 897.356 871.051L947.042 892.431C948.129 892.905 948.984 893.789 949.42 894.892C949.857 895.994 949.839 897.224 949.37 898.313C949.141 898.857 948.807 899.352 948.386 899.767C947.965 900.182 947.466 900.509 946.917 900.731C946.369 900.952 945.783 901.063 945.191 901.058C944.6 901.052 944.016 900.929 943.472 900.696L893.801 879.259C893.258 879.031 892.766 878.697 892.353 878.276C891.941 877.855 891.617 877.356 891.4 876.808C891.183 876.26 891.078 875.674 891.09 875.085C891.103 874.496 891.233 873.916 891.473 873.378Z" fill="#306327"/>
<path d="M781.91 1013.57C782.828 1012.81 784.004 1012.45 785.188 1012.55C786.371 1012.65 787.468 1013.21 788.243 1014.11L823.139 1055.46C823.521 1055.91 823.809 1056.43 823.988 1057C824.167 1057.56 824.234 1058.15 824.183 1058.74C824.133 1059.33 823.967 1059.9 823.694 1060.42C823.422 1060.95 823.049 1061.41 822.597 1061.79C821.679 1062.55 820.503 1062.91 819.319 1062.81C818.136 1062.71 817.039 1062.15 816.264 1061.25L781.368 1019.9C780.612 1018.98 780.246 1017.8 780.348 1016.62C780.449 1015.44 781.01 1014.34 781.91 1013.57Z" fill="#306327"/>
<path d="M497.075 497.863C497.526 497.482 498.048 497.194 498.61 497.015C499.173 496.836 499.766 496.77 500.354 496.82C500.942 496.871 501.515 497.037 502.039 497.309C502.563 497.581 503.028 497.954 503.408 498.407L538.319 539.701C539.121 540.592 539.538 541.765 539.479 542.962C539.42 544.159 538.89 545.285 538.004 546.093C537.553 546.474 537.031 546.762 536.469 546.941C535.906 547.12 535.313 547.186 534.725 547.136C534.137 547.085 533.564 546.919 533.04 546.647C532.516 546.375 532.051 546.001 531.671 545.549L496.775 504.198C496.371 503.766 496.058 503.258 495.854 502.703C495.65 502.148 495.559 501.558 495.587 500.967C495.615 500.377 495.761 499.798 496.017 499.264C496.272 498.731 496.632 498.255 497.075 497.863Z" fill="#306327"/>
<path d="M391.239 977.749C391.77 978.819 391.858 980.055 391.484 981.19C391.11 982.324 390.304 983.266 389.24 983.81L340.9 1008.07C340.376 1008.34 339.804 1008.5 339.217 1008.55C338.63 1008.6 338.039 1008.52 337.48 1008.34C336.92 1008.15 336.403 1007.86 335.959 1007.47C335.515 1007.09 335.153 1006.61 334.893 1006.09C334.363 1005.03 334.274 1003.8 334.646 1002.67C335.017 1001.55 335.819 1000.62 336.876 1000.08L385.662 975.759C386.676 975.37 387.796 975.356 388.819 975.722C389.842 976.087 390.7 976.806 391.239 977.749Z" fill="#306327"/>
<path d="M968.171 511.948C968.702 513.018 968.79 514.255 968.416 515.389C968.042 516.523 967.236 517.465 966.172 518.009L917.987 542.372C916.927 542.901 915.7 542.99 914.575 542.618C913.449 542.247 912.517 541.445 911.981 540.388C911.459 539.313 911.382 538.075 911.767 536.943C912.151 535.811 912.967 534.877 914.036 534.342L962.335 510.011C963.374 509.544 964.55 509.484 965.63 509.843C966.711 510.202 967.618 510.953 968.171 511.948Z" fill="#306327"/>
<path d="M396.218 829.143C396.185 829.732 396.036 830.308 395.779 830.839C395.523 831.37 395.164 831.846 394.723 832.238C394.283 832.63 393.769 832.932 393.212 833.125C392.654 833.319 392.064 833.4 391.475 833.365L337.219 830.552C336.63 830.519 336.053 830.37 335.522 830.113C334.991 829.856 334.515 829.498 334.123 829.057C333.73 828.617 333.429 828.103 333.235 827.546C333.041 826.989 332.96 826.399 332.995 825.81C333.058 824.628 333.586 823.52 334.464 822.726C335.342 821.932 336.498 821.517 337.681 821.572L391.921 824.442C392.513 824.466 393.094 824.608 393.631 824.857C394.168 825.107 394.65 825.461 395.049 825.898C395.449 826.335 395.758 826.847 395.958 827.404C396.159 827.96 396.247 828.552 396.218 829.143Z" fill="#306327"/>
<path d="M994.856 684.843C994.832 685.431 994.691 686.008 994.442 686.541C994.192 687.073 993.839 687.551 993.403 687.945C992.966 688.34 992.456 688.644 991.901 688.839C991.346 689.033 990.757 689.116 990.17 689.081L935.914 686.268C935.322 686.242 934.741 686.098 934.206 685.844C933.671 685.59 933.192 685.232 932.798 684.789C932.404 684.347 932.103 683.83 931.913 683.27C931.722 682.709 931.646 682.116 931.689 681.525C931.714 680.934 931.858 680.353 932.112 679.819C932.366 679.284 932.725 678.805 933.167 678.412C933.61 678.018 934.126 677.717 934.687 677.526C935.248 677.336 935.841 677.26 936.432 677.303L990.673 680.173C991.842 680.251 992.934 680.784 993.716 681.656C994.498 682.529 994.907 683.673 994.856 684.843Z" fill="#306327"/>
<path d="M647.903 383.081C649.065 382.894 650.255 383.171 651.215 383.852C652.175 384.533 652.829 385.565 653.035 386.724L662.145 440.075C662.312 441.241 662.019 442.425 661.329 443.38C660.639 444.334 659.605 444.983 658.446 445.189C657.286 445.362 656.104 445.079 655.147 444.4C654.191 443.721 653.534 442.699 653.314 441.547L644.261 388.211C644.073 387.049 644.349 385.86 645.031 384.9C645.712 383.941 646.744 383.287 647.903 383.081Z" fill="#306327"/>
<path d="M391.736 646.888C392.209 645.801 393.094 644.947 394.197 644.511C395.299 644.075 396.53 644.093 397.619 644.561L447.346 666.013C448.433 666.487 449.288 667.372 449.725 668.474C450.161 669.576 450.143 670.806 449.675 671.895C449.201 672.981 448.316 673.836 447.214 674.272C446.111 674.708 444.881 674.69 443.792 674.222L394.106 652.842C393.004 652.364 392.136 651.469 391.692 650.353C391.248 649.238 391.264 647.992 391.736 646.888Z" fill="#306327"/>
<path d="M807.312 431.249C806.777 431.002 806.298 430.652 805.901 430.217C805.503 429.783 805.197 429.274 804.999 428.72C804.801 428.166 804.715 427.579 804.747 426.991C804.779 426.404 804.928 425.829 805.185 425.299L828.108 376.478C828.354 375.944 828.705 375.464 829.139 375.067C829.574 374.67 830.083 374.364 830.637 374.166C831.191 373.968 831.779 373.883 832.367 373.915C832.954 373.947 833.529 374.096 834.059 374.352C834.6 374.594 835.087 374.941 835.492 375.374C835.896 375.807 836.209 376.317 836.413 376.873C836.617 377.43 836.707 378.021 836.677 378.613C836.648 379.204 836.5 379.784 836.243 380.317L813.263 429.124C813.016 429.658 812.665 430.137 812.231 430.534C811.797 430.931 811.288 431.238 810.734 431.435C810.18 431.633 809.592 431.719 809.004 431.687C808.416 431.655 807.841 431.506 807.312 431.249Z" fill="#306327"/>
</svg>
