<svg width="520" height="513" viewBox="0 0 520 513" fill="none" xmlns="http://www.w3.org/2000/svg">
<path d="M340.967 262.284L355.375 268.128L355.177 271.8L341.524 274.867C341.081 275.899 340.638 276.931 340.207 277.979C360.838 286.044 381.312 294.59 402.159 301.872C406.208 303.264 412.199 300.065 416.935 298.092C431.125 292.186 443.034 295.528 449.106 307.627C454.398 318.134 449.863 332.388 439.596 337.552C427.481 343.533 415.87 337.998 407.383 324.682C403.4 318.372 396.658 312.008 389.775 309.634C371.104 303.181 351.682 298.87 332.576 293.701L331.35 297.21L342.386 309.055C341.942 309.984 341.487 310.895 341.031 311.807L323.665 308.44C337.224 324.685 343.425 342.514 364.437 346.254C374.9 348.117 379.815 356.395 378.387 366.713C376.958 377.03 369.778 382.857 359.158 382.51C349.264 382.163 341.411 376.114 342.123 366.464C343.918 341.238 323.432 334.644 307.814 323.284L312.05 339.945C311.089 340.666 310.128 341.387 309.166 342.108L294.816 328.709C303.135 358.96 300.367 387.895 319.674 411.457C322.836 415.327 322.986 424.952 320.306 429.32C318.131 432.842 308.452 435.027 304.225 433.121C299.998 431.215 294.893 421.785 296.405 418.553C305.783 398.568 293.923 381.929 289.156 364.423C286.153 354.137 281.188 344.529 274.534 336.129L271.752 351.994L268.507 353.263L262.286 339.308C249.808 355.299 248.069 372.143 257.734 389.342C263.789 400.209 261.569 411.716 251.961 418.898C247.254 422.38 241.394 423.934 235.58 423.241C229.766 422.549 224.435 419.663 220.677 415.172C213.885 406.774 213.573 391.339 223.268 385.102C244.15 371.716 239.428 351.405 242.508 328.272C236.028 336.033 232.279 340.53 228.542 345.042L224.771 343.468L228.432 324.664C221.008 331.374 215.356 335.82 210.501 341.017C199.671 352.612 188.385 363.978 178.993 376.696C174.334 383.598 171.655 391.645 171.247 399.963C170.549 412.012 165.813 419.579 154.104 421.163C143.588 422.577 136.005 417.129 134.218 406.634C132.211 394.775 138.67 388.402 149.786 384.232C157.398 381.397 165.606 376.975 170.565 370.846C185.185 352.808 198.318 333.58 212.052 314.809L209.209 312.021C204.461 314.08 199.725 316.157 194.96 318.229L192.482 315.892C195.515 311.442 198.518 306.987 203.634 299.446C182.677 306.724 162.018 306.113 151.794 327.665C150.917 329.707 149.587 331.523 147.904 332.974C146.22 334.426 144.228 335.474 142.079 336.04C139.93 336.607 137.68 336.676 135.5 336.242C133.32 335.809 131.267 334.884 129.498 333.538C123.85 329.255 118.309 318.623 119.85 312.805C121.391 306.988 133.629 298.065 138.134 299.581C161.127 307.273 175.255 291.858 192.151 281.099C187.083 280.524 182.011 279.978 177.018 279.502L175.821 276.282C180.958 273.568 186.083 270.836 194.921 266.149C174.63 263.578 158.83 255.463 140.417 262.542C135.735 264.345 126.635 260.604 122.732 256.436C120.303 253.855 121.839 242.991 125.067 240.699C129.28 237.719 139.175 236.823 142.664 239.748C157.943 252.554 174.504 246.528 194.981 246.757L179.69 236.732L180.079 233.28L202.28 233.46C187.881 222.378 176.742 213.226 164.986 204.978C151.746 195.718 139.36 185.767 120.301 193.02C109.457 197.14 100.154 188.502 96.5729 176.996C94.9823 171.533 95.5716 165.667 98.2169 160.63C100.862 155.593 105.357 151.778 110.757 149.987C122.272 146.244 135.163 149.031 137.472 160.119C142.401 183.641 161.275 189.813 178.103 199.229C187.149 204.383 196.779 208.658 208.767 214.66L201.962 198.684C202.956 197.938 203.95 197.192 204.928 196.458L221.557 206.645C214.544 186.007 209.433 167.387 193.653 154.776C186.401 148.975 180.645 143.167 185.828 134.747C187.574 132.426 189.839 130.545 192.44 129.254C195.042 127.963 197.91 127.298 200.814 127.311C210.568 128.437 212.72 136.277 212.037 145.724C210.502 165.911 226.895 176.509 235.743 191.134C237.512 191.076 239.323 191.039 241.043 190.914L236.574 176.499L242.566 176.408L251.223 189.674L255.52 189.326C255.049 166.499 255.337 143.751 253.996 121.111C253.73 116.545 247.179 112.369 243.59 107.965C240.102 103.604 238.298 98.1362 238.505 92.5567C238.712 86.9771 240.917 81.6577 244.718 77.5678C248.635 73.553 253.907 71.1399 259.506 70.7985C265.105 70.457 270.63 72.2116 275.007 75.7205C284.152 83.2856 287.688 97.2861 279.021 105.239C263.207 119.718 265.297 136.59 267.98 154.39C269.613 165.13 271.131 175.853 275.21 186.676L280.649 174.489L284.2 174.286L287.156 189.654C301.359 179.517 311.504 157.273 309.741 139.042C308.712 128.625 312.183 120.686 322.575 117.76C332.593 114.854 340.939 118.383 345.001 128.286C348.772 137.422 346.843 147.313 337.694 150.55C313.754 159.03 314.369 180.841 305.596 202.807L320.147 191.892C321.187 192.38 322.252 192.902 323.263 193.387C321.854 198.069 320.459 202.768 317.779 211.797C333.913 201.714 347.465 193.542 360.653 184.814C372.672 176.911 384.41 169.323 386.973 152.612C388.551 142.286 398.064 138.361 408.402 140.784C418.74 143.207 423.767 150.702 422.24 161.197C420.712 171.693 413.677 178.369 403.33 177.04C389.715 175.289 380.152 181.116 370.913 189.342C357.742 201.061 344.48 212.797 328.467 227.011L351.687 226.064C345.385 231.853 342.149 234.824 335.11 241.322C355.778 239.803 372.663 239.594 389.174 237.023C399.649 235.381 409.29 229.314 419.869 226.947C425.955 225.567 434.686 225.363 438.772 228.772C442.02 231.515 442.37 243.374 439.424 245.972C435.409 249.528 426.985 248.828 420.509 248.585C414.033 248.341 407.689 244.476 401.884 245.541C381.349 249.239 360.984 254.442 340.569 259.06L341.017 262.35L340.967 262.284Z" fill="#83B17F"/>
<mask id="mask0_1_96" style="mask-type:alpha" maskUnits="userSpaceOnUse" x="95" y="70" width="357" height="364">
<path d="M340.992 262.316L355.399 268.161L355.201 271.832L341.548 274.9C341.105 275.932 340.662 276.964 340.231 278.012C360.863 286.077 381.337 294.623 402.184 301.905C406.232 303.297 412.223 300.097 416.959 298.124C431.15 292.218 443.059 295.561 449.13 307.659C454.423 318.167 449.887 332.421 439.62 337.585C427.505 343.565 415.894 338.031 407.407 324.714C403.424 318.404 396.682 312.041 389.8 309.667C371.128 303.214 351.707 298.902 332.601 293.733L331.374 297.243L342.41 309.088C341.967 310.016 341.511 310.928 341.055 311.84L323.689 308.473C337.249 324.718 343.45 342.547 364.462 346.286C374.924 348.15 379.84 356.428 378.411 366.745C376.983 377.063 369.803 382.89 359.183 382.543C349.288 382.196 341.435 376.147 342.147 366.497C343.943 341.271 323.456 334.677 307.838 323.317L312.075 339.977C311.113 340.698 310.152 341.42 309.191 342.141L294.84 328.742C303.16 358.993 300.391 387.928 319.698 411.49C322.86 415.359 323.01 424.985 320.33 429.352C318.155 432.875 308.476 435.059 304.25 433.154C300.023 431.248 294.917 421.818 296.429 418.586C305.808 398.601 293.947 381.962 289.18 364.456C286.177 354.169 281.212 344.561 274.559 336.161L271.776 352.027L268.532 353.295L262.311 339.341C249.832 355.332 248.094 372.176 257.758 389.374C263.813 400.242 261.594 411.749 251.986 418.931C247.278 422.413 241.419 423.967 235.605 423.274C229.79 422.582 224.46 419.695 220.702 415.205C213.909 406.807 213.597 391.372 223.292 385.135C244.174 371.749 239.452 351.438 242.532 328.305C236.053 336.066 232.303 340.562 228.567 345.075L224.796 343.501L228.457 324.697C221.032 331.406 215.381 335.853 210.525 341.049C199.695 352.644 188.41 364.011 179.018 376.729C174.359 383.631 171.68 391.678 171.272 399.995C170.573 412.045 165.838 419.611 154.128 421.196C143.612 422.61 136.029 417.162 134.242 406.666C132.235 394.808 138.694 388.434 149.811 384.265C157.422 381.43 165.63 377.008 170.589 370.879C185.21 352.841 198.342 333.613 212.076 314.841L209.233 312.053C204.485 314.113 199.749 316.19 194.984 318.262L192.506 315.925C195.539 311.475 198.542 307.02 203.659 299.478C182.702 306.757 162.042 306.146 151.818 327.697C150.942 329.74 149.611 331.556 147.928 333.007C146.245 334.458 144.253 335.507 142.103 336.073C139.954 336.639 137.704 336.708 135.524 336.275C133.344 335.841 131.292 334.917 129.523 333.571C123.875 329.287 118.333 318.656 119.874 312.838C121.415 307.02 133.654 298.098 138.158 299.614C161.151 307.306 175.279 291.89 192.175 281.132C187.108 280.557 182.036 280.01 177.043 279.534L175.845 276.315C180.983 273.6 186.108 270.869 194.945 266.182C174.654 263.611 158.854 255.496 140.441 262.575C135.759 264.378 126.66 260.637 122.756 256.469C120.328 253.888 121.864 243.024 125.091 240.732C129.305 237.752 139.199 236.856 142.689 239.781C157.967 252.587 174.528 246.56 195.005 246.79L179.715 236.765L180.104 233.313L202.305 233.493C187.905 222.41 176.766 213.259 165.01 205.01C151.77 195.751 139.384 185.8 120.325 193.053C109.482 197.173 100.179 188.535 96.5973 177.028C95.0067 171.566 95.596 165.7 98.2413 160.663C100.887 155.626 105.382 151.81 110.782 150.019C122.296 146.276 135.187 149.064 137.496 160.151C142.425 183.674 161.3 189.845 178.128 199.262C187.174 204.415 196.804 208.69 208.792 214.693L201.986 198.716C202.98 197.97 203.975 197.224 204.953 196.491L221.582 206.678C214.569 186.04 209.458 167.419 193.678 154.808C186.426 149.008 180.67 143.2 185.852 134.779C187.599 132.458 189.863 130.578 192.465 129.287C195.067 127.996 197.934 127.331 200.839 127.344C210.593 128.47 212.744 136.309 212.061 145.757C210.526 165.944 226.919 176.541 235.767 191.167C237.537 191.109 239.347 191.071 241.067 190.947L236.599 176.532L242.59 176.44L251.247 189.707L255.544 189.358C255.073 166.532 255.361 143.784 254.02 121.144C253.754 116.578 247.203 112.402 243.614 107.997C240.127 103.637 238.322 98.1689 238.529 92.5894C238.736 87.0098 240.941 81.6904 244.742 77.6005C248.66 73.5857 253.931 71.1726 259.53 70.8312C265.129 70.4897 270.655 72.2443 275.031 75.7532C284.177 83.3183 287.713 97.3188 279.045 105.271C263.231 119.75 265.321 136.623 268.004 154.423C269.638 165.163 271.156 175.886 275.234 186.708L280.673 174.522L284.224 174.318L287.18 189.686C301.383 179.55 311.528 157.306 309.765 139.075C308.736 128.658 312.208 120.719 322.599 117.792C332.618 114.887 340.963 118.416 345.025 128.318C348.797 137.454 346.867 147.345 337.718 150.582C313.778 159.063 314.394 180.874 305.62 202.84L320.171 191.924C321.211 192.413 322.276 192.935 323.287 193.42C321.879 198.102 320.483 202.801 317.803 211.83C333.937 201.747 347.489 193.575 360.677 184.847C372.697 176.944 384.435 169.356 386.998 152.645C388.575 142.319 398.088 138.394 408.427 140.817C418.765 143.239 423.792 150.734 422.264 161.23C420.736 171.726 413.701 178.402 403.355 177.073C389.739 175.322 380.176 181.149 370.937 189.375C357.766 201.094 344.504 212.83 328.491 227.044L351.711 226.097C345.41 231.886 342.174 234.857 335.135 241.355C355.802 239.836 372.687 239.627 389.199 237.056C399.674 235.414 409.315 229.347 419.893 226.98C425.98 225.599 434.71 225.395 438.796 228.805C442.045 231.548 442.394 243.406 439.448 246.005C435.434 249.56 427.01 248.861 420.534 248.617C414.057 248.374 407.713 244.508 401.908 245.574C381.373 249.272 361.008 254.475 340.594 259.093L341.042 262.383L340.992 262.316Z" fill="#89B19D"/>
</mask>
<g mask="url(#mask0_1_96)">
<path d="M282.703 284.288C280.589 285.884 278.049 286.817 275.405 286.968C272.761 287.12 270.131 286.483 267.848 285.139C265.566 283.795 263.733 281.804 262.583 279.418C261.433 277.032 261.016 274.359 261.387 271.736C261.757 269.113 262.897 266.659 264.663 264.685C266.429 262.71 268.74 261.304 271.306 260.645C273.871 259.985 276.574 260.101 279.074 260.979C281.573 261.857 283.755 263.456 285.345 265.575C287.475 268.415 288.39 271.984 287.888 275.498C287.387 279.012 285.51 282.182 282.67 284.312L282.703 284.288Z" fill="#54944C"/>
<path d="M282.669 234.458C280.551 236.047 278.009 236.972 275.365 237.116C272.721 237.259 270.093 236.616 267.815 235.266C265.537 233.916 263.711 231.921 262.567 229.533C261.423 227.145 261.013 224.471 261.39 221.85C261.766 219.229 262.911 216.779 264.68 214.809C266.45 212.839 268.764 211.438 271.329 210.783C273.895 210.129 276.597 210.25 279.094 211.132C281.591 212.014 283.77 213.616 285.356 215.737C287.479 218.577 288.389 222.143 287.885 225.653C287.381 229.163 285.505 232.33 282.669 234.458V234.458Z" fill="#54944C"/>
<path d="M327.718 277.972C325.6 279.561 323.059 280.485 320.416 280.63C317.773 280.774 315.146 280.132 312.869 278.783C310.591 277.435 308.764 275.441 307.619 273.055C306.474 270.668 306.063 267.995 306.437 265.375C306.811 262.754 307.954 260.304 309.721 258.333C311.487 256.362 313.799 254.959 316.363 254.302C318.927 253.644 321.629 253.762 324.126 254.64C326.623 255.519 328.804 257.117 330.392 259.235C332.522 262.074 333.437 265.643 332.935 269.157C332.434 272.671 330.557 275.842 327.718 277.972V277.972Z" fill="#54944C"/>
<path d="M286.01 326.431C283.893 328.02 281.352 328.944 278.709 329.089C276.066 329.233 273.439 328.59 271.161 327.242C268.883 325.894 267.056 323.9 265.912 321.513C264.767 319.127 264.355 316.454 264.729 313.834C265.103 311.213 266.246 308.763 268.013 306.792C269.78 304.821 272.092 303.418 274.656 302.761C277.22 302.103 279.921 302.221 282.418 303.099C284.916 303.977 287.096 305.576 288.685 307.694C290.815 310.533 291.73 314.102 291.228 317.616C290.726 321.13 288.849 324.301 286.01 326.431V326.431Z" fill="#54944C"/>
<path d="M224.663 267.613C222.545 269.201 220.005 270.126 217.361 270.27C214.718 270.415 212.092 269.772 209.814 268.424C207.536 267.075 205.709 265.082 204.564 262.695C203.42 260.308 203.008 257.636 203.382 255.015C203.756 252.395 204.899 249.944 206.666 247.973C208.433 246.002 210.744 244.599 213.309 243.942C215.873 243.285 218.574 243.403 221.071 244.281C223.568 245.159 225.749 246.758 227.337 248.875C229.468 251.715 230.382 255.284 229.881 258.798C229.379 262.312 227.502 265.483 224.663 267.613V267.613Z" fill="#54944C"/>
<path d="M126.794 318.887C124.676 320.476 122.134 321.401 119.49 321.545C116.846 321.689 114.219 321.045 111.941 319.695C109.663 318.346 107.836 316.35 106.692 313.962C105.549 311.574 105.139 308.9 105.515 306.279C105.891 303.658 107.037 301.208 108.806 299.238C110.575 297.268 112.889 295.867 115.455 295.213C118.021 294.558 120.723 294.679 123.22 295.561C125.716 296.443 127.896 298.046 129.481 300.166C131.605 303.006 132.514 306.572 132.011 310.082C131.507 313.592 129.631 316.759 126.794 318.887V318.887Z" fill="#54944C"/>
<path d="M224.249 419.071C222.131 420.659 219.59 421.584 216.947 421.728C214.304 421.873 211.678 421.23 209.4 419.882C207.122 418.533 205.295 416.54 204.15 414.153C203.006 411.766 202.594 409.094 202.968 406.473C203.342 403.853 204.485 401.402 206.252 399.431C208.019 397.46 210.33 396.057 212.894 395.4C215.459 394.743 218.16 394.861 220.657 395.739C223.154 396.617 225.335 398.216 226.923 400.333C229.053 403.173 229.968 406.742 229.467 410.256C228.965 413.77 227.088 416.941 224.249 419.071Z" fill="#54944C"/>
<path d="M379.064 385.292C376.941 386.869 374.399 387.782 371.758 387.915C369.117 388.049 366.495 387.397 364.225 386.042C361.954 384.687 360.135 382.69 358.998 380.302C357.862 377.915 357.458 375.244 357.837 372.627C358.217 370.01 359.364 367.564 361.132 365.598C362.901 363.632 365.212 362.234 367.774 361.58C370.336 360.927 373.035 361.047 375.529 361.926C378.023 362.804 380.201 364.402 381.788 366.517C383.918 369.357 384.833 372.926 384.331 376.44C383.83 379.954 381.953 383.125 379.113 385.255L379.064 385.292Z" fill="#54944C"/>
<path d="M414.062 147.156C411.947 148.748 409.406 149.677 406.762 149.825C404.119 149.973 401.49 149.333 399.21 147.987C396.93 146.641 395.1 144.649 393.953 142.262C392.805 139.876 392.391 137.203 392.764 134.581C393.136 131.96 394.277 129.507 396.043 127.535C397.81 125.562 400.122 124.157 402.686 123.499C405.251 122.841 407.953 122.958 410.452 123.836C412.95 124.713 415.131 126.313 416.72 128.431C418.848 131.267 419.763 134.832 419.265 138.343C418.767 141.854 416.895 145.023 414.062 147.156Z" fill="#54944C"/>
</g>
</svg>
