<svg width="308" height="344" viewBox="0 0 308 344" fill="none" xmlns="http://www.w3.org/2000/svg">
<g clip-path="url(#clip0_1_110)">
<path d="M155.387 6.86027L155.46 6.73643C155.538 6.64068 155.634 6.56124 155.742 6.50262C155.851 6.44399 155.97 6.40734 156.093 6.39478C156.215 6.38223 156.339 6.39403 156.457 6.42947C156.576 6.46491 156.686 6.52331 156.781 6.60132C158.751 8.21489 160.578 9.99497 162.243 11.9219C162.404 12.1134 162.483 12.3611 162.462 12.6106C162.44 12.86 162.321 13.0908 162.129 13.2522C161.938 13.4135 161.69 13.4922 161.441 13.4709C161.191 13.4496 160.961 13.3301 160.799 13.1387C159.209 11.2917 157.461 9.58723 155.574 8.0447C155.408 7.90085 155.299 7.70319 155.264 7.48652C155.23 7.26985 155.274 7.04808 155.387 6.86027ZM165.167 18.0749C165.243 17.9459 165.347 17.8361 165.472 17.7542C165.681 17.6255 165.932 17.5839 166.172 17.6383C166.411 17.6926 166.619 17.8387 166.752 18.045C168.1 20.1903 169.305 22.4217 170.36 24.7248C170.423 24.8375 170.463 24.9623 170.476 25.0911C170.489 25.22 170.475 25.3501 170.436 25.4734C170.396 25.5967 170.331 25.7103 170.245 25.8073C170.159 25.9042 170.054 25.9823 169.937 26.0367C169.819 26.091 169.691 26.1204 169.562 26.123C169.432 26.1256 169.304 26.1014 169.184 26.0518C169.065 26.0023 168.956 25.9285 168.867 25.8351C168.777 25.7417 168.708 25.6307 168.663 25.5091C167.645 23.2756 166.487 21.1087 165.196 19.0214C165.107 18.8809 165.057 18.7188 165.051 18.5522C165.046 18.3856 165.086 18.2207 165.167 18.0749ZM171.451 31.5966C171.564 31.3962 171.749 31.2459 171.968 31.1758C172.085 31.1364 172.209 31.1205 172.332 31.129C172.455 31.1375 172.575 31.1702 172.686 31.2252C172.796 31.2803 172.895 31.3566 172.976 31.4499C173.057 31.5431 173.118 31.6514 173.157 31.7685C173.946 34.1214 174.612 36.561 175.178 39.0582C175.208 39.1792 175.214 39.3051 175.195 39.4285C175.176 39.5518 175.133 39.6702 175.067 39.7765C175.002 39.8828 174.916 39.9751 174.815 40.0478C174.713 40.1205 174.598 40.1723 174.477 40.2C174.355 40.2277 174.229 40.2309 174.106 40.2093C173.983 40.1877 173.866 40.1417 173.761 40.0742C173.656 40.0066 173.566 39.9188 173.495 39.8159C173.424 39.713 173.375 39.5969 173.35 39.4747C172.799 37.0375 172.136 34.6429 171.379 32.3595C171.336 32.2344 171.32 32.1018 171.333 31.9702C171.345 31.8387 171.386 31.7114 171.451 31.5966ZM174.763 46.1587C174.835 46.0357 174.934 45.931 175.053 45.8527C175.173 45.7745 175.308 45.7248 175.45 45.7077C175.695 45.6754 175.944 45.7416 176.141 45.8918C176.338 46.042 176.467 46.2641 176.501 46.5094C176.833 48.9847 177.058 51.5197 177.15 54.0204C177.16 54.1458 177.145 54.2719 177.105 54.3913C177.065 54.5106 177.002 54.6208 176.919 54.7151C176.835 54.8095 176.734 54.8861 176.621 54.9405C176.507 54.9949 176.384 55.0258 176.258 55.0316C176.133 55.0373 176.007 55.0177 175.889 54.9739C175.771 54.9301 175.663 54.8631 175.572 54.7767C175.48 54.6903 175.407 54.5864 175.357 54.4712C175.306 54.3559 175.279 54.2317 175.278 54.1059C175.163 51.643 174.94 49.1669 174.616 46.7399C174.6 46.5353 174.652 46.3313 174.763 46.1587ZM175.467 61.0917C175.554 60.9475 175.678 60.8288 175.825 60.7475C175.972 60.6662 176.138 60.6253 176.307 60.6288C176.549 60.6428 176.777 60.7497 176.942 60.9271C177.108 61.1046 177.199 61.3391 177.196 61.5818C177.116 64.0676 176.965 66.5989 176.738 69.0998C176.727 69.2225 176.692 69.3419 176.635 69.451C176.578 69.5602 176.5 69.6571 176.405 69.7362C176.311 69.8152 176.202 69.8749 176.084 69.9117C175.966 69.9486 175.843 69.9619 175.72 69.951C175.597 69.9401 175.478 69.9051 175.369 69.848C175.26 69.791 175.163 69.713 175.084 69.6185C175.005 69.524 174.945 69.4149 174.908 69.2973C174.871 69.1797 174.858 69.0561 174.869 68.9334C175.091 66.4658 175.247 63.9741 175.319 61.527C175.331 61.3673 175.384 61.2135 175.474 61.0809L175.467 61.0917ZM174.139 75.9644C174.25 75.7775 174.422 75.635 174.627 75.5611C174.831 75.4873 175.055 75.4867 175.259 75.5595C175.464 75.6323 175.637 75.774 175.749 75.9604C175.861 76.1467 175.905 76.3661 175.873 76.5811C175.512 79.025 175.069 81.522 174.564 83.9895C174.54 84.1107 174.493 84.2261 174.424 84.329C174.356 84.4319 174.268 84.5203 174.165 84.5891C174.063 84.658 173.947 84.7059 173.826 84.7302C173.705 84.7546 173.58 84.7548 173.459 84.7309C173.338 84.707 173.222 84.6595 173.12 84.591C173.017 84.5225 172.928 84.4345 172.859 84.3318C172.791 84.2292 172.743 84.114 172.718 83.9928C172.694 83.8717 172.694 83.7469 172.718 83.6256C173.221 81.1861 173.655 78.7277 174.011 76.317C174.028 76.1918 174.072 76.0717 174.139 75.9644ZM171.148 90.6039C171.263 90.4107 171.445 90.2656 171.659 90.1951C171.873 90.1247 172.105 90.1335 172.313 90.2201C172.521 90.3066 172.69 90.4651 172.791 90.6665C172.892 90.868 172.916 91.0989 172.861 91.3172C172.244 93.704 171.556 96.1363 170.781 98.5318C170.708 98.7694 170.543 98.9679 170.322 99.0837C170.102 99.1995 169.845 99.2232 169.608 99.1494C169.37 99.0757 169.172 98.9106 169.056 98.6904C168.94 98.4703 168.916 98.2132 168.99 97.9757C169.733 95.5976 170.418 93.1931 171.028 90.831C171.057 90.7498 171.097 90.6733 171.148 90.6039ZM112.687 194.907L113.072 194.255C113.198 194.041 113.404 193.886 113.645 193.824C113.886 193.762 114.142 193.798 114.356 193.924C114.57 194.051 114.725 194.257 114.787 194.498C114.85 194.739 114.813 194.994 114.687 195.209L114.303 195.86C113.124 197.857 112.057 199.826 111.136 201.707C111.081 201.818 111.005 201.917 110.913 201.999C110.82 202.08 110.712 202.143 110.595 202.183C110.478 202.222 110.355 202.239 110.231 202.231C110.108 202.223 109.988 202.191 109.877 202.137C109.766 202.082 109.667 202.006 109.585 201.914C109.504 201.821 109.441 201.713 109.401 201.596C109.361 201.479 109.345 201.356 109.353 201.232C109.361 201.109 109.393 200.989 109.447 200.878C110.39 198.973 111.474 196.964 112.687 194.907ZM117.113 187.973L117.144 187.919C118.402 186.07 119.822 184.07 121.495 181.776C121.568 181.676 121.66 181.592 121.766 181.528C121.872 181.464 121.989 181.421 122.112 181.402C122.234 181.383 122.359 181.389 122.479 181.418C122.599 181.447 122.713 181.5 122.812 181.573C122.912 181.647 122.997 181.739 123.061 181.845C123.125 181.95 123.168 182.068 123.187 182.19C123.205 182.312 123.2 182.437 123.17 182.557C123.141 182.678 123.088 182.791 123.015 182.891C121.364 185.147 119.959 187.134 118.706 188.964C118.64 189.068 118.554 189.158 118.453 189.228C118.352 189.299 118.238 189.349 118.118 189.376C117.997 189.403 117.873 189.406 117.752 189.384C117.63 189.363 117.514 189.318 117.41 189.252C117.307 189.186 117.217 189.1 117.146 188.999C117.075 188.898 117.025 188.784 116.998 188.664C116.971 188.544 116.969 188.42 116.99 188.298C117.011 188.177 117.056 188.061 117.122 187.957L117.113 187.973ZM166.734 104.861C166.841 104.635 167.033 104.461 167.268 104.376C167.503 104.292 167.762 104.304 167.988 104.41C168.214 104.517 168.388 104.709 168.473 104.944C168.557 105.179 168.545 105.438 168.439 105.664C167.605 107.974 166.698 110.335 165.751 112.679C165.656 112.912 165.472 113.097 165.241 113.195C165.009 113.292 164.748 113.294 164.515 113.199C164.282 113.104 164.097 112.92 164 112.688C163.902 112.457 163.901 112.196 163.996 111.963C164.954 109.625 165.841 107.31 166.645 105.012C166.671 104.957 166.701 104.905 166.738 104.856L166.734 104.861ZM106.566 207.692C106.672 207.466 106.864 207.292 107.099 207.207C107.334 207.122 107.593 207.135 107.819 207.241C108.045 207.348 108.22 207.539 108.304 207.774C108.389 208.009 108.377 208.268 108.27 208.494C107.443 210.798 106.779 213.156 106.283 215.553C106.235 215.797 106.092 216.012 105.886 216.151C105.679 216.29 105.426 216.341 105.182 216.293C104.938 216.245 104.722 216.103 104.584 215.896C104.445 215.69 104.394 215.436 104.441 215.192C104.948 212.706 105.633 210.26 106.489 207.872C106.506 207.815 106.529 207.76 106.557 207.708L106.566 207.692ZM125.894 175.872L125.944 175.786L127.285 173.993C128.326 172.599 129.36 171.195 130.386 169.783C130.459 169.683 130.551 169.599 130.656 169.534C130.762 169.47 130.879 169.427 131.001 169.407C131.124 169.388 131.248 169.393 131.369 169.422C131.489 169.451 131.602 169.504 131.702 169.576C131.802 169.649 131.887 169.741 131.952 169.847C132.016 169.952 132.059 170.069 132.078 170.192C132.098 170.314 132.093 170.439 132.064 170.559C132.035 170.679 131.982 170.793 131.909 170.893C130.878 172.309 129.835 173.719 128.794 175.115L127.453 176.908C127.315 177.115 127.1 177.259 126.856 177.309C126.612 177.358 126.358 177.308 126.151 177.17C125.943 177.033 125.799 176.818 125.75 176.574C125.701 176.33 125.75 176.076 125.888 175.869L125.894 175.872ZM161.084 118.694C161.199 118.473 161.397 118.307 161.634 118.232C161.872 118.157 162.129 118.179 162.35 118.294C162.571 118.409 162.738 118.607 162.812 118.845C162.887 119.082 162.865 119.34 162.75 119.561C161.743 121.797 160.659 124.076 159.519 126.365C159.464 126.475 159.388 126.574 159.294 126.654C159.201 126.735 159.093 126.797 158.976 126.836C158.739 126.915 158.481 126.897 158.258 126.786C158.035 126.674 157.866 126.479 157.787 126.242C157.708 126.006 157.726 125.748 157.837 125.525C158.952 123.279 160.029 121.011 161.026 118.805L161.084 118.694ZM134.682 163.782L134.72 163.718C136.163 161.666 137.585 159.601 138.953 157.577C139.022 157.475 139.11 157.387 139.213 157.319C139.316 157.251 139.431 157.204 139.552 157.18C139.674 157.157 139.798 157.157 139.919 157.182C140.04 157.206 140.155 157.255 140.257 157.323C140.359 157.392 140.447 157.481 140.515 157.584C140.583 157.686 140.631 157.802 140.654 157.923C140.678 158.044 140.677 158.168 140.653 158.289C140.628 158.41 140.58 158.525 140.511 158.627C139.148 160.654 137.715 162.726 136.247 164.821C136.112 165.031 135.899 165.177 135.656 165.23C135.413 165.282 135.158 165.236 134.949 165.101C134.74 164.966 134.593 164.754 134.541 164.51C134.488 164.267 134.535 164.013 134.67 163.804L134.682 163.782ZM143.041 151.388L143.06 151.356C144.417 149.253 145.747 147.134 147.019 145.04C147.15 144.827 147.359 144.676 147.602 144.618C147.844 144.559 148.1 144.599 148.313 144.729C148.419 144.792 148.51 144.876 148.583 144.975C148.656 145.074 148.709 145.187 148.737 145.307C148.766 145.426 148.771 145.551 148.751 145.672C148.731 145.794 148.687 145.91 148.621 146.014C147.347 148.1 145.994 150.271 144.637 152.373C144.511 152.588 144.304 152.743 144.063 152.805C143.823 152.867 143.567 152.831 143.353 152.704C143.139 152.578 142.983 152.372 142.921 152.131C142.859 151.89 142.895 151.635 143.022 151.42L143.041 151.388ZM154.436 132.076C154.558 131.859 154.762 131.7 155.001 131.633C155.241 131.566 155.497 131.597 155.714 131.719C155.931 131.841 156.09 132.044 156.157 132.284C156.224 132.523 156.193 132.78 156.071 132.996C154.911 135.158 153.69 137.362 152.425 139.556C152.298 139.767 152.094 139.921 151.856 139.985C151.618 140.049 151.364 140.018 151.149 139.898C151.042 139.837 150.948 139.756 150.873 139.658C150.797 139.561 150.742 139.45 150.709 139.331C150.677 139.212 150.669 139.088 150.684 138.966C150.7 138.844 150.739 138.726 150.8 138.619C152.071 136.465 153.261 134.264 154.417 132.108L154.436 132.076ZM103.626 222.282C103.732 222.102 103.896 221.963 104.09 221.887C104.284 221.811 104.498 221.801 104.698 221.86C104.898 221.919 105.073 222.043 105.194 222.212C105.316 222.382 105.378 222.587 105.37 222.795C105.279 225.239 105.375 227.687 105.66 230.116C105.679 230.358 105.603 230.598 105.449 230.786C105.295 230.973 105.074 231.093 104.832 231.121C104.591 231.149 104.349 231.082 104.156 230.935C103.963 230.788 103.834 230.571 103.798 230.331C103.501 227.806 103.401 225.262 103.497 222.721C103.514 222.576 103.564 222.436 103.644 222.314L103.626 222.282ZM105.305 237.064C105.432 236.85 105.638 236.695 105.879 236.633C105.998 236.601 106.122 236.594 106.245 236.611C106.367 236.628 106.484 236.669 106.59 236.731C106.697 236.794 106.789 236.877 106.863 236.976C106.937 237.074 106.99 237.187 107.02 237.306C107.638 239.683 108.39 242.022 109.274 244.312C109.325 244.428 109.352 244.554 109.353 244.68C109.354 244.807 109.329 244.932 109.281 245.049C109.232 245.166 109.16 245.272 109.069 245.36C108.978 245.449 108.871 245.518 108.752 245.563C108.634 245.609 108.508 245.63 108.382 245.626C108.255 245.621 108.131 245.591 108.016 245.537C107.901 245.483 107.799 245.407 107.715 245.312C107.63 245.218 107.566 245.107 107.526 244.987C106.616 242.629 105.841 240.221 105.205 237.774C105.159 237.55 105.197 237.316 105.31 237.117L105.305 237.064ZM110.639 251.041C110.726 250.897 110.85 250.778 110.998 250.698C111.146 250.618 111.313 250.579 111.481 250.585C111.649 250.591 111.813 250.642 111.955 250.732C112.097 250.823 112.212 250.949 112.288 251.099C113.362 253.228 114.576 255.403 115.879 257.573C115.943 257.679 115.986 257.795 116.005 257.917C116.025 258.039 116.02 258.163 115.991 258.283C115.962 258.403 115.91 258.516 115.837 258.615C115.765 258.715 115.673 258.799 115.568 258.863C115.463 258.928 115.346 258.971 115.224 258.99C115.103 259.009 114.978 259.004 114.859 258.975C114.739 258.946 114.626 258.894 114.526 258.821C114.427 258.749 114.342 258.657 114.278 258.552C112.937 256.36 111.705 254.13 110.597 251.96C110.526 251.816 110.492 251.656 110.499 251.495C110.507 251.334 110.555 251.178 110.639 251.041Z" fill="white"/>
<path d="M118.436 263.844C118.501 263.732 118.59 263.636 118.696 263.562C118.797 263.489 118.912 263.436 119.033 263.407C119.155 263.378 119.281 263.374 119.404 263.395C119.527 263.415 119.644 263.46 119.75 263.527C119.855 263.594 119.946 263.681 120.018 263.783C120.725 264.774 121.471 265.773 122.234 266.768C122.356 266.966 122.4 267.203 122.356 267.432C122.313 267.661 122.186 267.866 122 268.006C121.813 268.147 121.582 268.213 121.349 268.191C121.117 268.17 120.901 268.063 120.744 267.891C119.968 266.882 119.212 265.862 118.486 264.853C118.381 264.708 118.32 264.535 118.311 264.356C118.302 264.177 118.345 263.999 118.436 263.844Z" fill="white"/>
<path d="M159.262 341.742L84.6613 293.171L126.141 283.532C126.141 283.532 161.347 343.117 160.368 342.808L161.94 342.247C161.669 343.235 129.828 281.81 129.828 281.81L159.97 251.739L161.621 340.745L159.262 341.742Z" fill="white"/>
</g>
<defs>
<clipPath id="clip0_1_110">
<rect width="288.165" height="187.273" fill="white" transform="translate(0 248.181) rotate(-59.4568)"/>
</clipPath>
</defs>
</svg>
