<svg width="144" height="138" viewBox="0 0 144 138" fill="none" xmlns="http://www.w3.org/2000/svg">
<path d="M60.7607 47.5722L59.9743 43.0444L60.9262 42.5203L63.8302 45.4652C64.1583 45.4151 64.4864 45.365 64.8168 45.3091C63.6142 38.8731 62.5569 32.4013 61.1243 26.0336C60.8404 24.8006 59.1012 23.798 57.8659 22.9185C54.1658 20.2822 53.1424 16.7725 55.2279 13.358C57.0361 10.3877 61.3207 9.29687 64.2212 11.0649C67.6154 13.1688 68.0424 16.9465 66.0291 21.1574C65.0689 23.1429 64.5268 25.829 65.0075 27.9265C66.3078 33.619 68.2627 39.1646 69.9533 44.7653L71.0253 44.5241L72.2712 39.9041C72.5733 39.8702 72.8732 39.8419 73.1732 39.8137L75.0437 44.6961C76.9987 38.7551 80.5014 34.4123 78.1543 28.5571C76.9859 25.6413 78.294 23.1142 81.1053 21.8594C83.9167 20.6046 86.5007 21.4947 88.0741 24.2128C89.534 26.7491 89.2445 29.6645 86.7125 30.9947C80.1042 34.4882 81.653 40.6579 81.2453 46.3516L84.7621 42.6841C85.0932 42.8125 85.4244 42.9409 85.7555 43.0692L84.6383 48.7636C90.9257 41.9473 98.6164 38.1182 101.508 29.5914C101.984 28.1933 104.375 26.6508 105.89 26.6403C107.114 26.6352 109.175 28.7215 109.358 30.0796C109.54 31.4377 107.973 34.1928 106.926 34.3188C100.447 35.0908 98.1274 40.6673 94.4815 44.5999C92.3708 46.9614 90.737 49.7089 89.6701 52.6911L94.0849 50.9086L94.9103 51.5241L92.3825 55.2663C98.3446 55.8963 102.841 53.699 105.645 48.5858C107.424 45.368 110.657 44.1257 113.961 45.413C115.57 46.0493 116.876 47.2762 117.612 48.8429C118.347 50.4096 118.456 52.198 117.917 53.8427C116.873 56.8594 113.05 59.3509 109.97 57.8941C103.347 54.7489 98.9908 59.1087 92.7064 61.9528C95.6663 62.3647 97.3803 62.6023 99.0965 62.8341L99.2912 64.0261L94.0022 66.0476C96.8459 66.861 98.8448 67.5834 100.907 67.9889C105.509 68.8927 110.125 69.9465 114.783 70.314C117.243 70.4036 119.68 69.8175 121.83 68.6194C124.962 66.9109 127.6 66.9157 129.828 69.6052C131.827 72.022 131.646 74.7759 129.293 76.865C126.632 79.2223 124.024 78.5986 121.24 76.462C119.339 74.996 116.946 73.6286 114.633 73.3428C107.823 72.4956 100.947 72.2074 94.091 71.6973L93.836 72.8463C95.0951 73.7153 96.3563 74.5786 97.6211 75.4498L97.4224 76.4367C95.8319 76.3718 94.2449 76.3149 91.5533 76.2106C96.6554 80.3295 99.7321 85.6072 106.737 84.8023C107.386 84.7029 108.049 84.7527 108.677 84.9481C109.304 85.1434 109.878 85.4791 110.356 85.9297C110.834 86.3803 111.203 86.9339 111.436 87.5485C111.668 88.1631 111.757 88.8225 111.696 89.4766C111.504 91.5631 109.704 94.6152 108.003 95.1383C106.303 95.6613 102.152 93.9863 101.828 92.6194C100.162 85.6493 94.0869 84.5156 88.7467 81.9594C89.3947 83.3205 90.0505 84.6781 90.7118 86.005L90.0915 86.8087C88.6073 85.9444 87.121 85.0858 84.5635 83.6018C87.091 89.0935 87.5256 94.3256 92.18 97.8375C93.3643 98.7301 93.8486 101.597 93.4135 103.228C93.1457 104.241 90.1803 105.554 89.1008 105.103C87.6947 104.512 85.923 102.17 86.1111 100.837C86.9347 95.0028 82.8338 91.7909 79.69 86.6185L79.5658 92.0214L78.6391 92.4635L75.2133 86.8665C74.6847 92.2112 74.1306 96.436 73.8995 100.674C73.6468 105.443 73.0871 110.106 77.8863 113.753C80.615 115.828 79.9027 119.512 77.5764 122.21C76.4549 123.463 74.8912 124.232 73.2142 124.356C71.5372 124.48 69.8774 123.949 68.5839 122.874C65.8448 120.571 64.5286 116.902 66.9488 114.589C72.0784 109.675 70.6757 103.976 70.4067 98.2828C70.2852 95.208 69.8519 92.1241 69.4834 88.1786L66.5399 92.3835C66.1973 92.2507 65.8547 92.1179 65.5178 91.9873L65.4733 86.2234C61.393 91.2092 57.5213 95.4024 56.825 101.332C56.5039 104.058 55.9468 106.41 53.0244 106.426C52.1692 106.351 51.3434 106.077 50.6129 105.626C49.8823 105.176 49.2671 104.56 48.8164 103.83C47.5739 101.207 49.204 99.4418 51.6804 98.136C56.9842 95.3649 57.0795 89.5961 59.3648 85.0901C59.0736 84.6554 58.7811 84.2071 58.481 83.7952L55.5638 87.1697L54.6041 85.6811L56.5784 81.4354L55.8192 80.4121C50.167 84.0989 44.416 87.5833 38.9466 91.4592C37.8428 92.2397 37.8196 94.5359 37.2759 96.1247C36.7274 97.6812 35.6379 98.9887 34.206 99.8091C32.7741 100.63 31.095 100.908 29.4749 100.594C27.8554 100.239 26.4259 99.2941 25.4649 97.9431C24.5039 96.592 24.0801 94.9317 24.2761 93.2853C24.7439 89.8085 27.7029 86.7327 31.0527 87.6635C37.1571 89.3666 41.0625 86.2045 45.108 82.7486C47.5466 80.6597 49.9991 78.6025 52.0761 75.8875L48.1689 76.4284L47.5627 75.5695L50.9554 72.4254C46.1923 70.4475 39.0267 71.3804 34.7292 74.6729C32.2771 76.5595 29.7429 76.93 27.3842 74.781C25.089 72.7222 24.6695 70.077 26.5184 67.51C28.2204 65.1356 31.0031 64.0733 33.2454 65.862C39.1155 70.5413 44.4904 66.9768 51.3719 65.7434L46.3589 63.8001C46.3189 63.4628 46.2834 63.114 46.2469 62.7846C47.6415 62.4059 49.0384 62.0213 51.7222 61.2819C46.6707 58.8114 42.5018 56.6896 38.2508 54.7461C34.3893 52.9667 30.6508 51.2088 26.0583 53.1785C23.2216 54.3972 20.7497 52.6246 19.7411 49.6525C18.7326 46.6805 19.8267 44.2478 22.6983 42.9901C25.5698 41.7324 28.3443 42.4533 29.6285 45.2563C31.318 48.9455 34.2746 50.4332 37.7825 51.4646C42.7813 52.9362 47.7985 54.428 53.8675 56.2225L49.9996 50.5461C52.4369 51.2217 53.6881 51.5688 56.4185 52.3186C52.8063 47.3718 50.1141 43.1691 46.8878 39.4293C44.8383 37.0586 41.809 35.5887 39.5615 33.3054C38.2636 31.9945 36.8475 29.8364 37.064 28.2785C37.244 27.0348 40.164 25.0931 41.2763 25.4258C42.7958 25.8769 43.9374 28.0993 44.8888 29.7619C45.8402 31.4245 45.8625 33.6202 47.0373 34.9097C51.1755 39.4824 55.6643 43.7773 60.0144 48.1761L60.7696 47.5494L60.7607 47.5722Z" fill="#89B19D"/>
<mask id="mask0_15_81" style="mask-type:alpha" maskUnits="userSpaceOnUse" x="19" y="10" width="113" height="115">
<path d="M60.7651 47.561L59.9787 43.0332L60.9306 42.509L63.8346 45.454C64.1627 45.4039 64.4908 45.3538 64.8212 45.2979C63.6186 38.8618 62.5613 32.3901 61.1286 26.0224C60.8448 24.7893 59.1056 23.7867 57.8703 22.9073C54.1702 20.271 53.1468 16.7612 55.2323 13.3468C57.0405 10.3765 61.3251 9.28564 64.2256 11.0537C67.6198 13.1576 68.0468 16.9353 66.0335 21.1461C65.0733 23.1317 64.5312 25.8178 65.0119 27.9153C66.3122 33.6077 68.2671 39.1533 69.9577 44.7541L71.0297 44.5129L72.2756 39.8929C72.5777 39.8589 72.8776 39.8307 73.1775 39.8025L75.0481 44.6849C77.0031 38.7439 80.5058 34.4011 78.1587 28.5458C76.9903 25.6301 78.2984 23.103 81.1097 21.8482C83.9211 20.5934 86.5051 21.4835 88.0785 24.2016C89.5384 26.7378 89.2489 29.6532 86.7169 30.9835C80.1086 34.477 81.6574 40.6467 81.2497 46.3403L84.7665 42.6729C85.0976 42.8013 85.4288 42.9296 85.7599 43.058L84.6426 48.7524C90.9301 41.9361 98.6208 38.1069 101.513 29.5802C101.989 28.1821 104.38 26.6395 105.894 26.629C107.118 26.6239 109.179 28.7102 109.362 30.0683C109.545 31.4265 107.978 34.1815 106.931 34.3076C100.451 35.0796 98.1318 40.656 94.4859 44.5887C92.3752 46.9501 90.7414 49.6977 89.6745 52.6799L94.0893 50.8974L94.9147 51.5129L92.3869 55.2551C98.349 55.8851 102.846 53.6877 105.649 48.5746C107.428 45.3567 110.662 44.1145 113.965 45.4018C115.575 46.0381 116.881 47.265 117.616 48.8317C118.351 50.3984 118.461 52.1868 117.922 53.8315C116.877 56.8482 113.054 59.3396 109.974 57.8828C103.352 54.7376 98.9952 59.0975 92.7108 61.9416C95.6707 62.3535 97.3847 62.591 99.1009 62.8229L99.2956 64.0148L94.0066 66.0364C96.8502 66.8498 98.8492 67.5722 100.912 67.9777C105.513 68.8815 110.129 69.9352 114.787 70.3028C117.247 70.3923 119.684 69.8062 121.835 68.6082C124.966 66.8997 127.605 66.9045 129.833 69.594C131.831 72.0107 131.651 74.7646 129.297 76.8537C126.636 79.2111 124.028 78.5874 121.244 76.4508C119.343 74.9848 116.95 73.6173 114.638 73.3316C107.827 72.4844 100.951 72.1962 94.0954 71.6861L93.8404 72.8351C95.0995 73.7041 96.3607 74.5674 97.6254 75.4386L97.4267 76.4255C95.8363 76.3606 94.2493 76.3036 91.5576 76.1993C96.6598 80.3183 99.7365 85.596 106.741 84.7911C107.39 84.6917 108.054 84.7415 108.681 84.9368C109.308 85.1322 109.883 85.4679 110.361 85.9185C110.839 86.3691 111.208 86.9227 111.44 87.5373C111.672 88.1519 111.761 88.8113 111.7 89.4654C111.509 91.5519 109.708 94.604 108.008 95.127C106.308 95.6501 102.156 93.975 101.832 92.6082C100.167 85.638 94.0913 84.5044 88.7511 81.9482C89.3991 83.3093 90.0549 84.6669 90.7162 85.9937L90.0959 86.7975C88.6117 85.9332 87.1254 85.0746 84.5679 83.5906C87.0954 89.0823 87.53 94.3144 92.1844 97.8263C93.3687 98.7188 93.853 101.586 93.4179 103.217C93.1501 104.23 90.1847 105.543 89.1052 105.092C87.6991 104.501 85.9273 102.159 86.1155 100.826C86.9391 94.9916 82.8382 91.7797 79.6944 86.6073L79.5701 92.0102L78.6435 92.4522L75.2177 86.8553C74.6891 92.1999 74.135 96.4248 73.9039 100.663C73.6512 105.432 73.0915 110.095 77.8907 113.741C80.6194 115.817 79.907 119.501 77.5808 122.198C76.4593 123.451 74.8956 124.221 73.2186 124.345C71.5416 124.469 69.8818 123.938 68.5883 122.863C65.8492 120.56 64.533 116.891 66.9532 114.578C72.0828 109.664 70.6801 103.965 70.4111 98.2715C70.2896 95.1968 69.8563 92.1128 69.4878 88.1674L66.5442 92.3722C66.2017 92.2394 65.8591 92.1066 65.5222 91.9761L65.4777 86.2122C61.3973 91.1979 57.5257 95.3911 56.8294 101.321C56.5083 104.047 55.9512 106.399 53.0288 106.415C52.1736 106.34 51.3478 106.066 50.6173 105.615C49.8867 105.164 49.2715 104.549 48.8208 103.818C47.5783 101.196 49.2083 99.4305 51.6848 98.1248C56.9886 95.3537 57.0839 89.5849 59.3692 85.0789C59.078 84.6442 58.7855 84.1958 58.4854 83.784L55.5682 87.1584L54.6085 85.6699L56.5828 81.4242L55.8236 80.4009C50.1714 84.0877 44.4204 87.572 38.951 91.448C37.8472 92.2285 37.824 94.5247 37.2803 96.1135C36.7318 97.6699 35.6423 98.9775 34.2104 99.7979C32.7785 100.618 31.0994 100.897 29.4793 100.583C27.8598 100.228 26.4303 99.2829 25.4693 97.9318C24.5083 96.5808 24.0845 94.9204 24.2805 93.2741C24.7483 89.7973 27.7073 86.7214 31.0571 87.6523C37.1615 89.3554 41.0669 86.1932 45.1124 82.7373C47.551 80.6484 50.0035 78.5912 52.0805 75.8762L48.1733 76.4172L47.5671 75.5583L50.9598 72.4141C46.1967 70.4363 39.031 71.3691 34.7336 74.6617C32.2815 76.5483 29.7473 76.9188 27.3886 74.7697C25.0934 72.7109 24.6739 70.0658 26.5228 67.4988C28.2248 65.1244 31.0075 64.0621 33.2498 65.8508C39.1199 70.5301 44.4948 66.9656 51.3763 65.7322L46.3633 63.7889C46.3233 63.4515 46.2878 63.1028 46.2513 62.7734C47.6459 62.3946 49.0428 62.0101 51.7266 61.2707C46.6751 58.8001 42.5062 56.6784 38.2552 54.7349C34.3937 52.9555 30.6552 51.1975 26.0627 53.1673C23.2259 54.386 20.7541 52.6134 19.7455 49.6413C18.737 46.6693 19.8311 44.2365 22.7027 42.9788C25.5742 41.7212 28.3487 42.4421 29.6329 45.2451C31.3224 48.9343 34.279 50.4219 37.7869 51.4534C42.7857 52.925 47.8029 54.4168 53.8719 56.2112L50.004 50.5348C52.4413 51.2104 53.6925 51.5576 56.4229 52.3073C52.8107 47.3606 50.1185 43.1579 46.8922 39.4181C44.8427 37.0473 41.8134 35.5775 39.5659 33.2942C38.268 31.9832 36.8519 29.8252 37.0684 28.2672C37.2484 27.0235 40.1684 25.0819 41.2807 25.4146C42.8002 25.8657 43.9418 28.0881 44.8932 29.7507C45.8446 31.4133 45.8669 33.609 47.0417 34.8985C51.1799 39.4712 55.6687 43.7661 60.0188 48.1649L60.774 47.5382L60.7651 47.561Z" fill="#89B19D"/>
</mask>
<g mask="url(#mask0_15_81)">
<path d="M75.3891 58.7474C76.12 59.0282 76.7511 59.5194 77.2026 60.1591C77.654 60.7987 77.9055 61.5579 77.9253 62.3405C77.945 63.1232 77.732 63.8941 77.3134 64.5556C76.8947 65.2172 76.2891 65.7396 75.5734 66.0568C74.8576 66.374 74.0638 66.4717 73.2925 66.3374C72.5212 66.2032 71.807 65.8431 71.2405 65.3028C70.674 64.7624 70.2805 64.0661 70.1099 63.302C69.9394 62.5379 69.9994 61.7404 70.2824 61.0104C70.6616 60.0322 71.4139 59.2447 72.3737 58.8211C73.3335 58.3976 74.4223 58.3727 75.4005 58.7519L75.3891 58.7474Z" fill="#559473"/>
<path d="M62.8957 66.546C63.6254 66.8289 64.2548 67.3219 64.7043 67.9626C65.1537 68.6034 65.403 69.363 65.4206 70.1454C65.4382 70.9279 65.2233 71.698 64.8031 72.3583C64.3829 73.0185 63.7763 73.5393 63.0601 73.8547C62.3438 74.1701 61.55 74.266 60.7793 74.1302C60.0085 73.9943 59.2954 73.6329 58.7301 73.0916C58.1648 72.5504 57.7727 71.8536 57.6036 71.0894C57.4344 70.3253 57.4957 69.5282 57.7797 68.7989C58.16 67.8222 58.9124 67.0364 59.8716 66.6141C60.8308 66.1917 61.9184 66.1672 62.8957 66.546V66.546Z" fill="#559473"/>
<path d="M66.7673 48.4425C67.4967 48.7253 68.126 49.2181 68.5754 49.8585C69.0249 50.4989 69.2743 51.2582 69.2922 52.0404C69.3101 52.8226 69.0956 53.5925 68.676 54.2528C68.2563 54.9131 67.6502 55.4341 66.9344 55.75C66.2187 56.0658 65.4253 56.1623 64.6546 56.0273C63.884 55.8923 63.1707 55.5317 62.605 54.9913C62.0392 54.4509 61.6464 53.7548 61.4763 52.9912C61.3061 52.2275 61.3663 51.4305 61.6491 50.701C62.0283 49.7228 62.7806 48.9353 63.7404 48.5118C64.7002 48.0882 65.789 48.0633 66.7673 48.4425V48.4425Z" fill="#559473"/>
<path d="M85.443 51.3285C86.1725 51.6113 86.8018 52.1041 87.2512 52.7445C87.7006 53.3849 87.9501 54.1442 87.968 54.9264C87.9859 55.7086 87.7714 56.4785 87.3517 57.1388C86.9321 57.7991 86.326 58.3201 85.6102 58.636C84.8944 58.9518 84.1011 59.0483 83.3304 58.9133C82.5598 58.7782 81.8465 58.4177 81.2807 57.8773C80.715 57.3369 80.3222 56.6408 80.1521 55.8771C79.9819 55.1135 80.0421 54.3165 80.3248 53.587C80.7041 52.6088 81.4563 51.8213 82.4162 51.3978C83.376 50.9742 84.4648 50.9493 85.443 51.3285V51.3285Z" fill="#559473"/>
<path d="M80.2804 75.9125C81.0099 76.1953 81.6392 76.688 82.0886 77.3285C82.538 77.9689 82.7875 78.7282 82.8054 79.5104C82.8233 80.2925 82.6088 81.0625 82.1891 81.7228C81.7695 82.3831 81.1634 82.9041 80.4476 83.2199C79.7318 83.5358 78.9385 83.6323 78.1678 83.4973C77.3972 83.3622 76.6839 83.0017 76.1181 82.4613C75.5524 81.9208 75.1596 81.2248 74.9895 80.4611C74.8193 79.6975 74.8795 78.9005 75.1623 78.171C75.5415 77.1928 76.2937 76.4053 77.2536 75.9817C78.2134 75.5582 79.3022 75.5333 80.2804 75.9125V75.9125Z" fill="#559473"/>
<path d="M108.443 92.445C109.173 92.7279 109.802 93.2208 110.252 93.8616C110.701 94.5023 110.95 95.2619 110.968 96.0444C110.986 96.8268 110.771 97.5969 110.351 98.2572C109.93 98.9175 109.324 99.4382 108.607 99.7537C107.891 100.069 107.097 100.165 106.327 100.029C105.556 99.8932 104.843 99.5318 104.277 98.9906C103.712 98.4493 103.32 97.7525 103.151 96.9884C102.982 96.2242 103.043 95.4271 103.327 94.6978C103.707 93.7211 104.46 92.9354 105.419 92.513C106.378 92.0906 107.466 92.0661 108.443 92.445V92.445Z" fill="#559473"/>
<path d="M118.336 52.3373C119.066 52.6201 119.695 53.1128 120.144 53.7533C120.594 54.3937 120.843 55.153 120.861 55.9352C120.879 56.7174 120.664 57.4873 120.245 58.1476C119.825 58.8079 119.219 59.3289 118.503 59.6448C117.787 59.9606 116.994 60.0571 116.223 59.9221C115.453 59.787 114.74 59.4265 114.174 58.8861C113.608 58.3456 113.215 57.6496 113.045 56.8859C112.875 56.1223 112.935 55.3253 113.218 54.5958C113.597 53.6176 114.349 52.8301 115.309 52.4066C116.269 51.983 117.358 51.9581 118.336 52.3373Z" fill="#559473"/>
<path d="M85.6599 18.7844C86.3873 19.0703 87.0137 19.5653 87.4601 20.2069C87.9065 20.8485 88.1528 21.6079 88.168 22.3894C88.1831 23.1708 87.9664 23.9392 87.5453 24.5977C87.1241 25.2561 86.5173 25.775 85.8015 26.0889C85.0857 26.4028 84.293 26.4976 83.5234 26.3613C82.7537 26.2251 82.0417 25.8639 81.4772 25.3233C80.9126 24.7828 80.5208 24.0871 80.3513 23.3242C80.1818 22.5612 80.242 21.7651 80.5245 21.0363C80.9038 20.0581 81.656 19.2706 82.6159 18.847C83.5757 18.4235 84.6645 18.3985 85.6427 18.7778L85.6599 18.7844Z" fill="#559473"/>
<path d="M20.4539 47.2365C21.1841 47.5182 21.8143 48.0102 22.2647 48.6503C22.7152 49.2903 22.9657 50.0495 22.9845 50.8319C23.0033 51.6144 22.7896 52.3848 22.3704 53.0457C21.9512 53.7066 21.3454 54.2284 20.6296 54.5449C19.9138 54.8614 19.1203 54.9585 18.3493 54.8238C17.5783 54.6892 16.8646 54.3289 16.2985 53.7885C15.7323 53.2481 15.3392 52.5519 15.1688 51.7881C14.9985 51.0242 15.0586 50.2269 15.3414 49.4972C15.7203 48.52 16.4714 47.733 17.43 47.3092C18.3885 46.8853 19.4761 46.8591 20.4539 47.2365Z" fill="#559473"/>
</g>
</svg>
