<svg width="547" height="794" viewBox="0 0 547 794" fill="none" xmlns="http://www.w3.org/2000/svg">
<path d="M198.799 272.337L212.539 251.764L218.196 253.254L218.587 275.515C220.053 276.537 221.518 277.56 223.013 278.568C242.214 249.011 262.113 219.854 280.163 189.71C283.633 183.849 280.574 173.484 279.022 165.47C274.381 141.458 283.418 123.975 304.223 118.403C322.298 113.534 343.052 125.185 347.798 142.844C353.223 163.645 340.866 179.959 317.386 188.904C306.273 193.081 294.189 201.541 288.277 211.503C272.218 238.524 259.256 267.402 245.058 295.513L250.133 298.552L272.139 285.164C273.443 286.153 274.717 287.156 275.991 288.159L265.162 314.138C294.836 298.231 324.612 294.301 337.194 262.76C343.462 247.055 357.942 242.057 373.56 247.6C389.179 253.143 395.95 266.205 391.995 282.643C388.273 297.95 376.323 308.242 361.514 304.03C322.782 293.122 305.92 322.926 283.197 343.611L310.521 342.366C311.335 344.096 312.15 345.825 312.965 347.555L287.472 365.61C337.286 362.371 381.485 375.988 424.408 353.477C431.455 349.794 446.503 352.655 452.447 358.236C457.236 362.757 457.529 378.542 453.201 384.516C448.872 390.49 432.536 395.414 427.986 392.019C399.858 370.979 370.116 384.112 341.305 385.912C324.31 387.284 307.741 391.932 292.513 399.6L316.342 409.037L317.275 414.5L293.53 419.708C314.437 444.294 340.125 452.418 370.033 442.887C388.914 436.946 406.132 444.104 414.234 461.385C418.147 469.841 418.684 479.471 415.736 488.308C412.788 497.146 406.576 504.525 398.371 508.937C383.1 516.821 358.948 512.346 352.346 495.233C338.2 458.389 305.032 459.217 269.973 446.98C279.985 459.572 285.786 466.86 291.616 474.135L287.951 479.504L259.826 467.754C267.894 481.481 273.007 491.717 279.543 500.954C294.129 521.558 308.214 542.799 325.012 561.523C334.27 571.002 345.948 577.763 358.778 581.073C377.33 586.036 387.598 595.848 386.302 614.604C385.125 631.445 374.198 641.511 357.268 640.921C338.144 640.236 330.289 628.122 327.366 609.458C325.395 596.686 321.143 582.474 313.187 572.776C289.778 544.194 264.039 517.547 239.202 490.111L233.943 493.645C235.627 501.706 237.34 509.754 239.037 517.845L234.599 520.955C228.639 514.799 222.663 508.686 212.556 498.288C217.16 533.286 209.566 565.283 239.862 588.144C242.763 590.166 245.165 592.823 246.886 595.913C248.606 599.003 249.6 602.444 249.791 605.975C249.982 609.506 249.366 613.035 247.99 616.292C246.614 619.55 244.513 622.451 241.847 624.775C233.356 632.199 215.008 637.416 206.437 633.144C197.867 628.873 187.898 606.933 191.709 600.401C211.087 567.044 191.608 540.073 180.275 510.285C177.749 517.997 175.267 525.725 172.92 533.352L167.518 534.184C164.94 525.305 162.332 516.44 157.869 501.162C147.339 531.955 129.613 553.967 134.725 584.935C136.029 592.811 127.275 605.788 119.525 610.531C114.722 613.486 98.2858 607.599 95.7523 601.833C92.4638 594.309 94.2485 578.602 99.9282 574.105C124.796 554.414 120.729 526.669 127.67 494.834L107.132 515.438L101.878 513.722L109.296 479.184C87.3969 498.06 69.5547 512.476 52.9216 528.143C34.2364 545.797 14.7472 561.899 19.9223 593.931C22.8562 612.152 6.40438 623.872 -12.6769 625.754C-21.7004 626.476 -30.6525 623.672 -37.651 617.93C-44.6496 612.189 -49.1495 603.957 -50.2045 594.967C-52.3352 575.821 -43.8476 556.629 -25.8271 556.595C12.4121 556.477 28.0976 529.049 48.1811 505.854C59.1201 493.414 68.8779 479.783 82.0858 463.032L55.0016 468.5C54.1589 466.711 53.3162 464.921 52.4875 463.162L73.7082 440.524C39.2933 444.818 8.63413 446.796 -16.0909 467.331C-27.4606 476.766 -38.3626 483.868 -49.8176 473.085C-52.8728 469.618 -55.0757 465.485 -56.2507 461.015C-57.4258 456.546 -57.5404 451.864 -56.5856 447.342C-51.6951 432.504 -38.7875 431.672 -24.2854 435.773C6.67896 444.656 28.4629 422.518 54.0986 413.432C54.5767 410.656 55.1005 407.823 55.4593 405.103L31.5603 407.432L33.3435 398.066L56.8 388.84L57.6383 382.033C21.9165 375.427 -13.439 367.666 -49.1499 362.476C-56.3506 361.423 -64.9642 370.289 -72.981 374.465C-80.8968 378.498 -89.9981 379.552 -98.626 377.435C-107.254 375.319 -114.834 370.173 -119.986 362.935C-124.982 355.54 -127.048 346.55 -125.78 337.715C-124.512 328.88 -120.001 320.834 -113.126 315.142C-98.3975 303.323 -75.4437 302.314 -65.8382 318.377C-48.3596 347.675 -21.3959 349.843 7.20461 351.385C24.4656 352.292 41.6635 353.374 59.8392 350.498L42.5975 338.105L43.4221 332.506L68.3203 332.84C57.0907 307.449 25.6904 284.489 -3.28605 281.375C-19.849 279.629 -31.1048 271.667 -32.3242 254.533C-33.6311 237.987 -25.4483 226.117 -8.71142 222.971C6.73776 220.031 21.5301 226.218 23.6332 241.515C29.1511 281.547 63.3376 287.6 94.7459 308.334L82.4143 282.15C83.5104 280.687 84.6661 279.195 85.7464 277.775C92.5901 281.475 99.4636 285.161 112.672 292.24C102.147 263.857 93.7687 240.111 84.4083 216.754C75.9573 195.484 67.9066 174.753 42.6898 165.387C27.1064 159.609 24.0486 143.523 31.1478 128.192C38.247 112.86 51.5427 107.437 67.4068 113.192C83.271 118.947 91.4124 132.056 86.0152 147.751C78.9088 168.406 84.9144 185.18 94.7623 202.222C108.79 226.514 122.814 250.953 139.816 280.476L145.805 243.988C152.8 255.669 156.39 261.666 164.252 274.725C168.53 242.03 173.633 215.651 174.935 189.095C175.744 172.244 169.389 155.27 169.102 138.025C168.907 128.096 171.396 114.426 178.023 109.156C183.341 104.975 201.933 108.243 205.035 113.669C209.285 121.068 205.487 133.97 203.025 143.983C200.563 153.997 192.5 162.64 192.294 172.029C191.455 205.217 193.015 238.624 193.648 271.921L198.918 272.28L198.799 272.337Z" fill="#89B19D"/>
<mask id="mask0_138_3525" style="mask-type:alpha" maskUnits="userSpaceOnUse" x="-127" y="107" width="584" height="534">
<path d="M198.858 272.309L212.598 251.737L218.255 253.226L218.646 275.487C220.112 276.509 221.577 277.532 223.072 278.54C242.273 248.983 262.172 219.826 280.222 189.682C283.692 183.821 280.633 173.456 279.081 165.442C274.44 141.43 283.477 123.947 304.282 118.375C322.357 113.506 343.111 125.157 347.858 142.816C353.282 163.617 340.925 179.931 317.445 188.876C306.332 193.053 294.248 201.513 288.336 211.476C272.277 238.496 259.315 267.374 245.117 295.485L250.192 298.524L272.198 285.136C273.502 286.125 274.776 287.128 276.05 288.131L265.221 314.11C294.895 298.204 324.671 294.273 337.253 262.732C343.521 247.027 358.001 242.03 373.619 247.573C389.238 253.115 396.009 266.177 392.054 282.615C388.332 297.922 376.382 308.214 361.573 304.003C322.841 293.095 305.979 322.898 283.256 343.584L310.58 342.338C311.394 344.068 312.209 345.798 313.024 347.527L287.531 365.582C337.346 362.344 381.544 375.961 424.468 353.449C431.514 349.766 446.562 352.627 452.506 358.208C457.295 362.729 457.588 378.514 453.26 384.488C448.931 390.462 432.595 395.386 428.045 391.991C399.917 370.951 370.175 384.084 341.364 385.884C324.369 387.257 307.8 391.905 292.572 399.572L316.401 409.009L317.334 414.472L293.589 419.68C314.496 444.266 340.184 452.39 370.092 442.86C388.974 436.918 406.191 444.077 414.293 461.358C418.206 469.813 418.743 479.443 415.795 488.281C412.847 497.118 406.635 504.497 398.43 508.909C383.159 516.793 359.007 512.318 352.405 495.205C338.259 458.362 305.091 459.189 270.032 446.952C280.044 459.544 285.845 466.833 291.675 474.107L288.01 479.477L259.886 467.727C267.953 481.453 273.066 491.689 279.602 500.926C294.188 521.53 308.273 542.771 325.071 561.495C334.329 570.974 346.007 577.736 358.837 581.045C377.389 586.008 387.658 595.82 386.362 614.576C385.184 631.418 374.257 641.483 357.327 640.893C338.203 640.208 330.348 628.094 327.425 609.43C325.454 596.658 321.202 582.446 313.246 572.748C289.837 544.166 264.098 517.52 239.261 490.084L234.002 493.617C235.686 501.678 237.399 509.726 239.096 517.817L234.658 520.927C228.698 514.771 222.722 508.658 212.615 498.261C217.219 533.258 209.625 565.255 239.921 588.116C242.822 590.138 245.224 592.795 246.945 595.885C248.665 598.975 249.659 602.416 249.85 605.947C250.041 609.478 249.425 613.007 248.049 616.264C246.673 619.522 244.572 622.423 241.907 624.747C233.415 632.171 215.067 637.388 206.496 633.117C197.926 628.845 187.957 606.905 191.768 600.373C211.146 567.016 191.667 540.045 180.334 510.257C177.808 517.969 175.326 525.697 172.979 533.324L167.577 534.156C164.999 525.277 162.391 516.412 157.928 501.134C147.398 531.927 129.672 553.939 134.784 584.908C136.088 592.783 127.334 605.76 119.584 610.503C114.781 613.458 98.3449 607.571 95.8114 601.805C92.5229 594.281 94.3076 578.574 99.9873 574.077C124.855 554.386 120.788 526.642 127.729 494.806L107.191 515.41L101.937 513.694L109.355 479.156C87.456 498.033 69.6137 512.448 52.9807 528.115C34.2955 545.769 14.8063 561.871 19.9814 593.903C22.9153 612.125 6.46346 623.844 -12.6178 625.726C-21.6413 626.448 -30.5934 623.644 -37.592 617.902C-44.5905 612.161 -49.0904 603.93 -50.1455 594.939C-52.2761 575.793 -43.7885 556.601 -25.7681 556.568C12.4711 556.449 28.1566 529.021 48.2402 505.826C59.1792 493.387 68.937 479.755 82.1449 463.004L55.0607 468.472C54.218 466.683 53.3753 464.894 52.5466 463.134L73.7673 440.496C39.3524 444.79 8.69321 446.768 -16.0318 467.303C-27.4016 476.739 -38.3036 483.841 -49.7585 473.058C-52.8137 469.59 -55.0166 465.457 -56.1917 460.987C-57.3667 456.518 -57.4813 451.836 -56.5265 447.314C-51.636 432.477 -38.7284 431.645 -24.2263 435.746C6.73804 444.628 28.522 422.49 54.1577 413.404C54.6358 410.628 55.1595 407.795 55.5184 405.075L31.6193 407.404L33.4025 398.038L56.859 388.812L57.6974 382.005C21.9755 375.399 -13.3799 367.638 -49.0908 362.449C-56.2916 361.395 -64.9051 370.261 -72.9219 374.437C-80.8378 378.47 -89.939 379.524 -98.567 377.408C-107.195 375.291 -114.775 370.145 -119.927 362.907C-124.923 355.512 -126.989 346.522 -125.721 337.687C-124.453 328.853 -119.942 320.806 -113.067 315.115C-98.3384 303.295 -75.3847 302.286 -65.7791 318.349C-48.3006 347.648 -21.3368 349.815 7.26369 351.357C24.5247 352.264 41.7226 353.346 59.8983 350.47L42.6565 338.077L43.4812 332.478L68.3793 332.812C57.1498 307.421 25.7495 284.461 -3.22697 281.347C-19.79 279.601 -31.0457 271.639 -32.2651 254.505C-33.5721 237.959 -25.3892 226.089 -8.65234 222.943C6.79684 220.003 21.5892 226.19 23.6923 241.487C29.2102 281.519 63.3967 287.572 94.805 308.306L82.4734 282.122C83.5695 280.659 84.7252 279.167 85.8055 277.747C92.6492 281.447 99.5227 285.133 112.731 292.212C102.206 263.829 93.8278 240.083 84.4674 216.726C76.0164 195.456 67.9657 174.725 42.7489 165.359C27.1655 159.581 24.1077 143.495 31.2069 128.164C38.3061 112.832 51.6018 107.409 67.4659 113.164C83.3301 118.919 91.4715 132.028 86.0742 147.723C78.9679 168.378 84.9734 185.152 94.8214 202.194C108.849 226.486 122.873 250.926 139.875 280.448L145.864 243.96C152.859 255.641 156.449 261.639 164.311 274.697C168.589 242.002 173.692 215.623 174.994 189.067C175.803 172.217 169.448 155.242 169.161 137.997C168.966 128.069 171.455 114.399 178.082 109.128C183.4 104.947 201.992 108.215 205.094 113.641C209.344 121.04 205.546 133.942 203.084 143.956C200.622 153.969 192.559 162.613 192.353 172.001C191.514 205.189 193.074 238.596 193.707 271.893L198.978 272.253L198.858 272.309Z" fill="#89B19D"/>
</mask>
<g mask="url(#mask0_138_3525)">
<path d="M214.356 370.203C216.164 374.01 216.801 378.268 216.187 382.437C215.573 386.607 213.736 390.501 210.908 393.625C208.08 396.75 204.388 398.965 200.3 399.99C196.212 401.016 191.912 400.805 187.944 399.385C183.976 397.965 180.518 395.399 178.009 392.013C175.5 388.626 174.053 384.572 173.85 380.362C173.646 376.152 174.697 371.977 176.868 368.365C179.039 364.753 182.233 361.866 186.046 360.07C191.156 357.664 197.012 357.386 202.326 359.297C207.641 361.209 211.978 365.153 214.384 370.262L214.356 370.203Z" fill="#559473"/>
<path d="M136.696 354.236C138.491 358.048 139.115 362.306 138.489 366.473C137.863 370.639 136.016 374.526 133.18 377.642C130.344 380.758 126.648 382.963 122.559 383.978C118.47 384.992 114.172 384.771 110.208 383.342C106.245 381.913 102.794 379.341 100.293 375.95C97.7926 372.56 96.3536 368.504 96.1586 364.295C95.9636 360.086 97.0215 355.915 99.1983 352.307C101.375 348.7 104.573 345.82 108.387 344.03C113.495 341.634 119.345 341.363 124.653 343.277C129.96 345.191 134.292 349.132 136.696 354.236Z" fill="#559473"/>
<path d="M218.987 298.027C220.782 301.837 221.406 306.094 220.781 310.259C220.156 314.424 218.31 318.31 215.477 321.426C212.643 324.542 208.95 326.748 204.862 327.765C200.775 328.782 196.478 328.563 192.515 327.138C188.552 325.713 185.101 323.144 182.597 319.757C180.094 316.37 178.651 312.317 178.451 308.11C178.252 303.903 179.304 299.731 181.475 296.122C183.646 292.513 186.839 289.629 190.649 287.835C195.758 285.428 201.614 285.15 206.929 287.062C212.243 288.973 216.581 292.917 218.987 298.027Z" fill="#559473"/>
<path d="M281.091 378.599C282.886 382.409 283.51 386.666 282.885 390.831C282.26 394.996 280.414 398.882 277.581 401.998C274.747 405.114 271.054 407.32 266.966 408.337C262.879 409.354 258.582 409.135 254.619 407.71C250.656 406.285 247.205 403.716 244.701 400.329C242.198 396.942 240.755 392.889 240.555 388.682C240.356 384.475 241.408 380.303 243.579 376.694C245.75 373.085 248.943 370.201 252.753 368.407C257.862 366 263.718 365.722 269.033 367.634C274.347 369.545 278.685 373.489 281.091 378.599Z" fill="#559473"/>
<path d="M169.711 455.285C171.506 459.095 172.13 463.352 171.505 467.517C170.88 471.683 169.035 475.569 166.201 478.685C163.368 481.801 159.674 484.007 155.587 485.023C151.499 486.04 147.203 485.822 143.239 484.397C139.276 482.971 135.825 480.403 133.321 477.016C130.818 473.629 129.375 469.575 129.175 465.368C128.976 461.162 130.028 456.99 132.199 453.381C134.37 449.772 137.563 446.888 141.373 445.093C146.482 442.687 152.338 442.409 157.653 444.32C162.967 446.232 167.305 450.176 169.711 455.285Z" fill="#559473"/>
<path d="M218.147 624.277C219.942 628.089 220.566 632.347 219.941 636.514C219.315 640.68 217.467 644.567 214.632 647.683C211.796 650.799 208.1 653.004 204.011 654.019C199.921 655.033 195.623 654.812 191.66 653.383C187.697 651.954 184.246 649.382 181.745 645.991C179.244 642.601 177.805 638.545 177.61 634.336C177.415 630.127 178.473 625.956 180.65 622.348C182.827 618.741 186.025 615.861 189.839 614.071C194.947 611.675 200.797 611.405 206.104 613.318C211.412 615.232 215.743 619.173 218.147 624.277Z" fill="#559473"/>
<path d="M405.594 504.624C407.389 508.435 408.013 512.691 407.388 516.857C406.763 521.022 404.917 524.908 402.084 528.024C399.25 531.14 395.557 533.346 391.469 534.363C387.382 535.379 383.085 535.161 379.122 533.736C375.159 532.31 371.708 529.742 369.204 526.355C366.701 522.968 365.258 518.915 365.058 514.708C364.858 510.501 365.911 506.329 368.082 502.72C370.253 499.111 373.446 496.227 377.256 494.432C382.365 492.026 388.221 491.748 393.536 493.659C398.85 495.571 403.188 499.515 405.594 504.624Z" fill="#559473"/>
<path d="M402.73 252.518C404.505 256.333 405.11 260.588 404.469 264.746C403.828 268.905 401.969 272.78 399.128 275.883C396.286 278.986 392.589 281.178 388.503 282.181C384.417 283.185 380.125 282.956 376.17 281.523C372.214 280.09 368.771 277.517 366.276 274.129C363.781 270.741 362.346 266.69 362.151 262.487C361.956 258.284 363.011 254.118 365.182 250.514C367.353 246.91 370.543 244.029 374.349 242.237C379.459 239.83 385.315 239.552 390.629 241.464C395.944 243.375 400.281 247.319 402.688 252.429L402.73 252.518Z" fill="#559473"/>
<path d="M42.8969 121.419C44.6979 125.228 45.3286 129.486 44.7092 133.653C44.0899 137.82 42.2483 141.71 39.4174 144.831C36.5866 147.951 32.8938 150.161 28.8063 151.182C24.7187 152.203 20.4202 151.989 16.4546 150.566C12.489 149.143 9.03459 146.576 6.52842 143.19C4.02225 139.803 2.57699 135.749 2.37551 131.541C2.17403 127.333 3.22539 123.159 5.39656 119.548C7.56773 115.938 10.7611 113.053 14.5727 111.257C19.6769 108.853 25.5265 108.573 30.8371 110.479C36.1477 112.384 40.485 116.319 42.8969 121.419Z" fill="#559473"/>
</g>
</svg>
