<svg width="1920" height="1920" viewBox="0 0 1920 1920" fill="none" xmlns="http://www.w3.org/2000/svg">
<mask id="mask0_1_2" style="mask-type:alpha" maskUnits="userSpaceOnUse" x="0" y="0" width="1920" height="1920">
<circle cx="960" cy="960" r="960" fill="#C4C4C4"/>
</mask>
<g mask="url(#mask0_1_2)">
<path d="M960.015 1919.43C1491.56 1919.43 1922.46 1488.47 1922.46 956.846C1922.46 425.225 1491.56 -5.73969 960.015 -5.73969C428.468 -5.73969 -2.43488 425.225 -2.43488 956.846C-2.43488 1488.47 428.468 1919.43 960.015 1919.43Z" fill="url(#paint0_radial_1_2)"/>
<path d="M1166.37 507.947C1166.37 507.947 1165.33 484.057 1165.65 456.581C1165.65 452.796 1156.56 452.796 1157.65 449.096C1165.13 423.8 1169.12 387.119 1175.97 378.056C1190.31 358.811 1272.18 390.073 1289.01 378.056C1305.85 366.039 1281.79 308.306 1255.35 296.289C1228.91 284.272 1271.35 279.454 1294.6 274.636C1317.86 269.817 1322.68 240.965 1341.92 231.329C1361.16 221.692 1394.83 238.556 1394.83 207.295C1394.83 176.034 1481.4 200.068 1464.57 168.807C1447.73 137.545 1440.51 125.5 1411.66 94.2387C1382.81 62.9775 1387.6 10.0629 1426 0.42646C1464.39 -9.21001 1589.45 62.9775 1589.45 94.2387C1589.45 125.5 1514.89 151.971 1517.3 161.579C1519.71 171.187 1558.19 175.919 1570.21 163.988C1582.22 152.058 1570.21 154.381 1589.45 161.579C1608.69 168.778 1627.93 156.761 1627.93 156.761C1627.93 156.761 1784.25 317.914 1781.84 341.976C1779.43 366.039 1740.97 387.663 1767.5 404.527C1794.02 421.391 1839.65 445.396 1856.39 488.703C1873.14 532.01 1868.41 539.208 1842.06 527.192C1815.7 515.175 1781.84 517.555 1769.91 510.356C1757.98 503.158 1733.92 423.772 1726.75 433.379C1719.58 442.987 1709.92 450.215 1697.9 440.578C1685.89 430.942 1678.66 450.215 1688.3 459.822C1697.93 469.43 1709.92 495.902 1700.31 503.129C1690.71 510.356 1673.84 524.782 1664.24 510.356C1654.63 495.93 1669.06 476.657 1647.4 467.05C1625.75 457.442 1635.39 433.379 1633.07 421.362C1630.74 409.346 1560.92 370.828 1546.49 351.584C1532.07 332.34 1524.27 322.732 1516.13 332.369C1507.98 342.005 1520.03 378.056 1544.09 392.596C1568.14 407.137 1608.86 433.379 1608.86 445.425C1608.86 457.471 1575.2 438.226 1580.02 452.652C1584.83 467.078 1592.03 479.095 1575.2 486.323C1558.37 493.55 1563.18 503.158 1563.18 512.766C1563.18 522.373 1502.96 503.158 1500.64 488.732C1498.32 474.306 1541.53 486.323 1546.35 471.897C1551.17 457.471 1543.48 421.391 1515.98 414.164C1488.48 406.936 1481.4 370.857 1466.98 358.811C1452.55 346.766 1450.14 385.283 1428.49 382.874C1406.84 380.465 1365.98 368.534 1363.57 382.874C1361.16 397.214 1351.56 418.953 1334.69 421.362C1317.83 423.772 1305.85 450.214 1310.66 464.641C1315.48 479.067 1296.33 517.555 1272.18 507.947C1248.04 498.339 1228.88 507.947 1224.09 517.555C1219.3 527.163 1185.61 512.766 1166.37 507.947Z" fill="url(#paint1_radial_1_2)"/>
<path d="M1897.6 593.987C1883.87 538.979 1776.79 635.803 1746.59 610.249C1716.4 584.695 1676.91 561.493 1658.33 577.726C1639.75 593.958 1646.86 604.799 1639.75 624.933C1632.64 645.066 1611.88 641.969 1584 624.933C1556.13 607.897 1530.55 577.84 1511.97 582.515C1493.39 587.19 1481.77 587.964 1474.69 572.477C1467.61 556.99 1483.98 536.054 1474.69 517.469C1465.4 498.884 1428.23 496.561 1428.23 496.561C1428.23 496.561 1367.84 519.792 1358.55 519.792C1349.26 519.792 1330.68 508.177 1316.74 517.469C1302.81 526.761 1312.1 561.607 1279.46 554.753C1246.83 547.898 1226.01 536.168 1212.08 543.281C1198.14 550.394 1147.27 582.515 1144.95 598.748C1142.62 614.981 1175.14 640.563 1144.95 652.179C1114.75 663.794 1091.52 673.115 1077.59 691.7C1063.65 710.284 1040.31 763.715 1031.13 770.684C1021.95 777.654 1019.52 782.3 1010.23 791.592C1000.93 800.884 989.321 821.792 1010.23 831.084C1031.13 840.377 1028.81 872.9 1024.16 879.84C1019.52 886.781 1003.26 903.071 1007.9 914.687C1012.55 926.302 1000.73 935.594 998.497 947.21C996.261 958.825 1012.55 993.7 1019.52 1005.32C1026.49 1016.93 1065.97 1009.96 1070.62 1040.16C1075.26 1070.36 1077.59 1098.24 1114.75 1116.82C1151.91 1135.41 1144.63 1156.32 1157.56 1163.28C1170.5 1170.25 1205.34 1121.47 1233.21 1133.08C1261.08 1144.7 1275.05 1149.35 1288.98 1137.73C1302.92 1126.12 1328.47 1112.18 1328.47 1112.18C1328.47 1112.18 1388.86 1095.92 1409.77 1116.82C1430.67 1137.73 1379.57 1142.38 1402.8 1154.11C1426.03 1165.84 1458.55 1146.19 1463.19 1164.09C1467.84 1181.98 1465.51 1214.51 1460.87 1233.09C1456.22 1251.68 1484.1 1284.23 1491.06 1293.52C1498.03 1302.81 1546.81 1416.64 1539.81 1430.58C1532.82 1444.52 1525.88 1490.98 1500.33 1537.44C1474.78 1583.91 1581.68 1669.8 1574.77 1690.71C1567.86 1711.62 1532.93 1792.92 1551.51 1809.19C1551.46 1809.19 2112.1 1453.44 1897.6 593.987Z" fill="url(#paint2_radial_1_2)"/>
<path d="M334.306 26.2671C380.991 41.238 414.599 50.7311 468.452 40.4636C522.305 30.1962 559.383 -4.82202 572.201 20.6171C585.02 46.0562 665.714 30.5978 687.307 18.5235C708.899 6.44922 732.156 3.17967 749.619 11.1814C767.083 19.1831 720.227 44.106 718.277 76.3136C716.327 108.521 671.822 125.07 638.701 139.41C605.58 153.75 573.779 179.705 576.445 191.033C579.112 202.362 495.924 329.902 470.832 302.885C445.741 275.869 421.223 272.542 435.303 241.969C449.383 211.396 475.879 162.497 451.505 139.266C427.13 116.035 371.499 74.9083 349.017 103.101C326.535 131.293 314.262 129.658 295.938 117.24C277.614 104.822 334.306 26.2671 334.306 26.2671Z" fill="url(#paint3_radial_1_2)"/>
<path d="M256.767 135.767C299.78 157.736 295.852 182.229 328.973 197.458C362.093 212.687 367.025 216.042 366.538 224.79C366.05 233.537 325.876 223.929 325.617 252.007C325.359 280.085 328.944 298.842 310.706 293.708C292.468 288.574 198.87 261.185 181.263 270.993C163.656 280.802 169.965 211.941 169.965 211.941C169.965 211.941 203.057 249.569 227.144 251.434C251.232 253.298 333.647 233.222 299.264 222.553C264.882 211.884 293.529 189.055 227.202 192.066" fill="url(#paint4_radial_1_2)"/>
<path d="M89.0127 339.309C111.093 344.816 130.564 420.904 149.232 417.319C167.9 413.734 188.661 319.004 215.187 314.071C241.712 309.138 292.984 365.695 309.014 347.97C325.044 330.246 331.439 312.952 349.505 348.315C367.57 383.677 416.377 421.276 406.082 429.708C395.788 438.14 352.057 454.603 346.78 452.394C341.504 450.186 269.011 434.899 257.053 448.522C245.096 462.145 235.948 473.445 254.845 470.721C273.743 467.996 285.959 455.778 287.622 464.44C289.285 473.101 332.356 461.572 336.687 467.308C341.017 473.044 361.462 520.825 343.11 517.87C324.757 514.916 301.673 490.194 280.396 495.873C259.118 501.552 256.279 503.731 241.511 519.505C226.743 535.279 198.325 589.14 198.325 589.14C198.325 589.14 133.89 582.056 140.572 600.182C147.253 618.308 113.272 660.41 115.653 672.886C118.033 685.362 123.481 781.411 109.717 785.655C95.9523 789.9 56.781 745.503 12.2186 749.289C-32.3437 753.075 -67.6725 593.987 -67.6725 593.987L89.0127 339.309Z" fill="url(#paint5_radial_1_2)"/>
<path d="M-131.993 818.15C-98.3558 868.655 -76.7055 931.149 -47.8862 923.95C-19.0669 916.751 9.80968 874.018 31.46 871.322C53.1103 868.626 91.536 849.985 74.7033 871.322C57.8705 892.66 29.1373 945.575 29.1373 960.001C29.1373 974.427 61.455 974.341 78.9473 976.836C96.4396 979.331 108.455 976.836 101.257 1003.28C94.0595 1029.72 81.4708 1063.51 103.379 1077.85C125.288 1092.19 162.222 1073.06 168.99 1077.85C175.757 1082.64 168.559 1121.12 194.999 1101.88C221.438 1082.64 187.772 1068.24 238.242 1051.4L303.164 1029.78L292.382 1066.66C292.382 1066.66 286.331 1029.78 334.392 1048.99C382.453 1068.21 423.288 1061.04 435.36 1056.22C447.433 1051.4 459.391 1083.75 476.223 1107.24C493.056 1130.73 533.919 1140.37 557.95 1145.16C581.98 1149.95 608.419 1176.42 608.419 1183.62C608.419 1190.82 623.703 1243.85 637.697 1260.57C651.691 1277.29 702.161 1277.4 702.161 1277.4L716.499 1318.27C716.499 1318.27 783.801 1303.93 803.043 1318.27C822.284 1332.61 858.33 1361.52 858.33 1361.52C858.33 1361.52 791.027 1457.68 803.043 1491.35C815.058 1525.02 807.86 1645.22 769.377 1657.24C730.894 1669.26 651.605 1688.47 666.144 1719.73C680.682 1750.99 663.735 1796.65 654.129 1801.47C644.522 1806.29 637.726 1847.16 637.726 1847.16C637.726 1847.16 618.083 1897.64 610.857 1895.23L545.963 1873.6C545.963 1873.6 594.024 1914.47 572.402 1940.91C550.781 1967.36 531.539 2010.63 531.539 2010.63L382.424 1936.07C382.424 1936.07 341.561 1854.33 343.97 1839.9C346.379 1825.48 334.335 1640.38 327.137 1618.75C319.94 1597.13 274.259 1561.05 266.918 1556.23C259.577 1551.41 182.811 1414.41 182.811 1414.41C182.811 1414.41 137.131 1380.74 125.116 1347.07C113.1 1313.4 144.328 1313.42 144.328 1296.59C144.328 1279.75 127.524 1253.31 132.313 1246.11C137.102 1238.91 197.207 1181.21 194.827 1169.19C192.447 1157.18 158.752 1106.67 151.555 1113.9C144.357 1121.12 103.465 1109.08 96.2676 1104.26C89.0699 1099.44 62.602 1017.73 48.1781 1010.51C33.7541 1003.28 -45.4201 981.626 -52.6751 969.695C-59.9301 957.764 -71.9166 957.678 -131.993 967.286C-192.069 976.893 -131.993 818.15 -131.993 818.15Z" fill="url(#paint6_radial_1_2)"/>
<path style="mix-blend-mode:screen" d="M1418.26 1353C1439.71 1335.14 1454.66 1310.69 1460.79 1283.45C1466.92 1256.21 1463.89 1227.71 1452.16 1202.38C1440.43 1177.04 1420.67 1156.28 1395.94 1143.33C1371.21 1130.39 1342.9 1125.97 1315.4 1130.76C1316.83 1091.54 1304.8 1053 1281.3 1021.57C1257.8 990.13 1224.25 967.686 1186.23 957.967C1148.21 948.248 1108 951.839 1072.31 968.144C1036.61 984.449 1007.57 1012.49 990.01 1047.59C951.434 1038.49 910.928 1042.5 874.879 1058.97C838.83 1075.44 809.289 1103.45 790.914 1138.57C772.539 1173.69 766.375 1213.93 773.395 1252.95C780.414 1291.96 800.218 1327.52 829.683 1354.03L1418.26 1353Z" fill="url(#paint7_linear_1_2)"/>
<path style="mix-blend-mode:screen" d="M648.135 877.919C662.285 866.137 672.148 850.012 676.192 832.047C680.236 814.083 678.235 795.286 670.499 778.576C662.763 761.866 649.726 748.179 633.413 739.642C617.1 731.105 598.425 728.195 580.288 731.364C581.199 705.519 573.244 680.141 557.743 659.442C542.242 638.743 520.128 623.97 495.074 617.576C470.02 611.181 443.532 613.551 420.01 624.29C396.488 635.03 377.346 653.493 365.764 676.614C342.327 671.007 317.735 672.739 295.315 681.573C272.895 690.408 253.73 705.919 240.416 726.007C227.102 746.095 220.281 769.79 220.877 793.884C221.473 817.977 229.457 841.306 243.748 860.711C248.552 867.252 254.009 873.287 260.036 878.722L648.135 877.919Z" fill="url(#paint8_linear_1_2)"/>
<path style="mix-blend-mode:screen" d="M938.622 465.73C925.844 455.15 916.925 440.639 913.255 424.459C909.585 408.279 911.37 391.339 918.333 376.28C925.295 361.221 937.043 348.888 951.746 341.205C966.448 333.521 983.28 330.919 999.616 333.802C998.771 310.543 1005.91 287.696 1019.85 269.06C1033.8 250.424 1053.7 237.123 1076.24 231.368C1098.79 225.614 1122.63 227.753 1143.8 237.43C1164.96 247.107 1182.17 263.739 1192.58 284.559C1215.45 279.182 1239.46 281.568 1260.83 291.342C1282.2 301.116 1299.71 317.722 1310.6 338.544C1321.5 359.366 1325.16 383.221 1321 406.351C1316.85 429.482 1305.12 450.574 1287.67 466.304L938.622 465.73Z" fill="url(#paint9_linear_1_2)"/>
</g>
<defs>
<radialGradient id="paint0_radial_1_2" cx="0" cy="0" r="1" gradientUnits="userSpaceOnUse" gradientTransform="translate(802.24 649.827) scale(1159.11 1159.27)">
<stop offset="0.02" stop-color="#75E9FC"/>
<stop offset="1" stop-color="#3377AF"/>
</radialGradient>
<radialGradient id="paint1_radial_1_2" cx="0" cy="0" r="1" gradientUnits="userSpaceOnUse" gradientTransform="translate(841.439 744.07) scale(1030.56 1030.7)">
<stop offset="0.01" stop-color="#C1F880"/>
<stop offset="1" stop-color="#55C59D"/>
</radialGradient>
<radialGradient id="paint2_radial_1_2" cx="0" cy="0" r="1" gradientUnits="userSpaceOnUse" gradientTransform="translate(841.439 744.069) scale(1030.55 1030.7)">
<stop offset="0.01" stop-color="#C1F880"/>
<stop offset="1" stop-color="#55C59D"/>
</radialGradient>
<radialGradient id="paint3_radial_1_2" cx="0" cy="0" r="1" gradientUnits="userSpaceOnUse" gradientTransform="translate(841.44 744.069) scale(1030.55 1030.7)">
<stop offset="0.01" stop-color="#C1F880"/>
<stop offset="1" stop-color="#55C59D"/>
</radialGradient>
<radialGradient id="paint4_radial_1_2" cx="0" cy="0" r="1" gradientUnits="userSpaceOnUse" gradientTransform="translate(841.44 744.069) scale(1030.55 1030.7)">
<stop offset="0.01" stop-color="#C1F880"/>
<stop offset="1" stop-color="#55C59D"/>
</radialGradient>
<radialGradient id="paint5_radial_1_2" cx="0" cy="0" r="1" gradientUnits="userSpaceOnUse" gradientTransform="translate(841.44 744.069) scale(1030.55 1030.7)">
<stop offset="0.01" stop-color="#C1F880"/>
<stop offset="1" stop-color="#55C59D"/>
</radialGradient>
<radialGradient id="paint6_radial_1_2" cx="0" cy="0" r="1" gradientUnits="userSpaceOnUse" gradientTransform="translate(841.44 744.069) scale(1030.58 1030.73)">
<stop offset="0.01" stop-color="#C1F880"/>
<stop offset="1" stop-color="#55C59D"/>
</radialGradient>
<linearGradient id="paint7_linear_1_2" x1="1249.2" y1="1128.68" x2="810.673" y2="1449.93" gradientUnits="userSpaceOnUse">
<stop offset="0.01" stop-color="#E7F4FC"/>
<stop offset="1" stop-color="#7999AA"/>
</linearGradient>
<linearGradient id="paint8_linear_1_2" x1="536.715" y1="730.134" x2="247.567" y2="941.962" gradientUnits="userSpaceOnUse">
<stop offset="0.01" stop-color="#E7F4FC"/>
<stop offset="1" stop-color="#7999AA"/>
</linearGradient>
<linearGradient id="paint9_linear_1_2" x1="1043.92" y1="339.928" x2="1305.07" y2="530.121" gradientUnits="userSpaceOnUse">
<stop offset="0.01" stop-color="#E7F4FC"/>
<stop offset="1" stop-color="#7999AA"/>
</linearGradient>
</defs>
</svg>
