<svg width="458" height="506" viewBox="0 0 458 506" fill="none" xmlns="http://www.w3.org/2000/svg">
<path opacity="0.32" d="M279.504 70.1827C339.278 85.3561 391.027 159.959 401.557 253.293C408.128 311.53 397.316 365.111 374.852 403.209L297.073 429.541L276.911 69.6699" fill="#01050F"/>
<path d="M241.881 65.9498C240.493 66.0772 239.105 66.265 237.735 66.4466L198.669 71.2887L199.853 80.7428C152.479 110.889 123.392 182.427 131.263 262.312C139.546 346.33 185.826 413.353 241.826 430.005L242.743 437.595L276.022 433.704L277.791 433.569C279.548 433.398 281.28 433.154 283.006 432.892L283.277 432.8C351.32 421.957 398.064 335.997 388.403 237.129C378.512 135.678 312.895 58.9984 241.881 65.9498Z" fill="#497F60"/>
<path d="M354.616 241.148C344.718 139.626 279.12 62.9492 208.1 69.8858C137.08 76.8223 87.5318 164.745 97.4305 266.267C107.329 367.789 172.927 444.466 243.947 437.529C314.966 430.593 364.515 342.67 354.616 241.148Z" fill="#99BC95"/>
<path d="M340.113 242.56C331.331 152.486 273.13 84.4556 210.119 90.6099C147.108 96.7642 103.147 174.773 111.93 264.846C120.712 354.92 178.912 422.951 241.923 416.796C304.934 410.642 348.895 332.634 340.113 242.56Z" fill="#EBE6C6"/>
<path d="M121.195 269.974C112.395 179.903 156.369 101.894 219.432 95.6392C235.437 94.1787 251.529 97.2433 265.874 104.484C248.639 93.7724 229.611 88.5452 210.169 90.4919C147.154 96.6503 103.199 174.653 111.933 264.826C118.532 331.961 152.504 386.867 195.493 407.844C156.916 383.881 127.247 332.215 121.195 269.974Z" fill="#D0C390"/>
<path d="M270.742 293.288L237.638 265.538C237.79 264.124 237.793 262.697 237.648 261.282C236.831 252.913 231.416 246.564 225.591 247.226C225.438 247.268 225.287 247.319 225.139 247.379V247.379L220.208 248.061L220.441 249.997L170.452 195.899L213.729 257.389L216.841 256.335C216.268 258.618 216.093 260.981 216.323 263.323C216.461 265.803 217.135 268.224 218.299 270.418C219.463 272.613 221.09 274.529 223.066 276.034L223.275 278.08L228.193 277.482L228.411 277.409L228.863 277.256L229.062 277.189C230.089 276.971 231.065 276.559 231.937 275.973L270.742 293.288Z" fill="#355E48"/>
<path d="M233.782 262.308C234.624 270.749 230.485 278.056 224.587 278.621C218.69 279.187 213.232 272.832 212.415 264.403C211.597 255.973 215.712 248.655 221.603 248.071C227.494 247.487 232.958 253.86 233.782 262.308Z" fill="#54944C"/>
<path d="M242.97 399.797C242.781 399.824 242.588 399.814 242.402 399.767C242.216 399.72 242.042 399.637 241.889 399.522C241.735 399.407 241.607 399.263 241.509 399.098C241.412 398.933 241.348 398.75 241.322 398.561L238.707 381.308C238.652 380.928 238.748 380.541 238.975 380.231C239.201 379.921 239.54 379.711 239.919 379.648V379.648C240.303 379.592 240.693 379.689 241.006 379.92C241.318 380.15 241.526 380.494 241.585 380.877L244.182 398.137C244.212 398.325 244.204 398.518 244.159 398.703C244.115 398.889 244.034 399.064 243.921 399.218C243.808 399.372 243.666 399.503 243.503 399.602C243.34 399.701 243.159 399.767 242.97 399.797V399.797Z" fill="#306327"/>
<path d="M306.304 244.387C306.267 244.2 306.269 244.008 306.308 243.821C306.347 243.634 306.423 243.458 306.531 243.301C306.64 243.144 306.778 243.01 306.939 242.908C307.1 242.805 307.279 242.736 307.467 242.703L324.675 239.518C325.053 239.45 325.442 239.534 325.757 239.752C326.073 239.97 326.289 240.304 326.359 240.681V240.681C326.396 240.869 326.394 241.062 326.356 241.249C326.317 241.436 326.242 241.614 326.134 241.772C326.027 241.931 325.889 242.066 325.729 242.171C325.569 242.275 325.39 242.347 325.202 242.383L307.988 245.55C307.8 245.587 307.608 245.585 307.421 245.546C307.235 245.507 307.058 245.431 306.901 245.323C306.744 245.214 306.61 245.076 306.508 244.915C306.405 244.755 306.336 244.575 306.304 244.387Z" fill="#306327"/>
<path d="M302.05 301.795C302.161 301.427 302.411 301.117 302.748 300.931C303.084 300.746 303.48 300.699 303.851 300.802L320.672 305.647C320.856 305.7 321.028 305.788 321.177 305.907C321.326 306.027 321.451 306.174 321.543 306.341C321.635 306.508 321.693 306.692 321.714 306.882C321.735 307.072 321.719 307.264 321.665 307.448V307.448C321.554 307.815 321.304 308.125 320.967 308.311C320.63 308.496 320.234 308.543 319.864 308.44L303.042 303.595C302.674 303.484 302.364 303.234 302.179 302.897C301.993 302.561 301.947 302.165 302.05 301.795V301.795Z" fill="#306327"/>
<path d="M132.698 214.324C132.751 214.14 132.839 213.969 132.959 213.819C133.078 213.67 133.225 213.546 133.393 213.453C133.56 213.361 133.744 213.303 133.934 213.282C134.124 213.261 134.316 213.277 134.499 213.331L151.315 218.158C151.691 218.254 152.014 218.494 152.213 218.827C152.413 219.159 152.473 219.557 152.38 219.934V219.934C152.327 220.117 152.239 220.289 152.119 220.438C152 220.588 151.853 220.712 151.685 220.804C151.518 220.896 151.334 220.955 151.144 220.976C150.954 220.997 150.762 220.98 150.579 220.927L133.757 216.081C133.571 216.038 133.395 215.957 133.24 215.845C133.086 215.732 132.955 215.59 132.856 215.426C132.758 215.262 132.693 215.08 132.666 214.891C132.639 214.701 132.65 214.509 132.698 214.324Z" fill="#306327"/>
<path d="M283.412 343.575C283.691 343.316 284.061 343.177 284.441 343.187C284.822 343.198 285.183 343.358 285.447 343.632L297.492 356.342C297.751 356.624 297.889 356.996 297.875 357.378C297.861 357.76 297.696 358.121 297.417 358.383V358.383C297.138 358.643 296.769 358.782 296.388 358.772C296.007 358.761 295.646 358.601 295.382 358.327L283.361 345.628C283.227 345.492 283.122 345.329 283.052 345.151C282.982 344.973 282.948 344.783 282.953 344.591C282.957 344.4 283.001 344.211 283.079 344.037C283.158 343.862 283.271 343.706 283.412 343.575V343.575Z" fill="#306327"/>
<path d="M190.538 362.421C190.874 362.613 191.12 362.93 191.223 363.302C191.326 363.674 191.279 364.072 191.091 364.41L182.453 379.628C182.361 379.795 182.236 379.942 182.087 380.06C181.937 380.178 181.765 380.265 181.582 380.316C181.398 380.367 181.206 380.381 181.017 380.357C180.828 380.332 180.646 380.271 180.481 380.175V380.175C180.148 379.985 179.903 379.672 179.801 379.302C179.698 378.933 179.746 378.538 179.934 378.204L188.681 362.888C188.883 362.601 189.182 362.396 189.523 362.31C189.864 362.225 190.224 362.264 190.538 362.421Z" fill="#306327"/>
<path d="M261.931 133.388C262.266 133.58 262.512 133.897 262.615 134.269C262.719 134.642 262.671 135.04 262.483 135.378L253.905 150.596C253.715 150.929 253.401 151.173 253.032 151.276C252.662 151.378 252.267 151.33 251.933 151.142C251.599 150.947 251.356 150.628 251.256 150.254C251.156 149.881 251.207 149.483 251.399 149.147L260.013 133.916C260.208 133.604 260.514 133.377 260.869 133.279C261.224 133.181 261.603 133.22 261.931 133.388V133.388Z" fill="#306327"/>
<path d="M165.152 321.559C165.249 321.723 165.312 321.905 165.339 322.094C165.365 322.283 165.354 322.475 165.306 322.66C165.258 322.845 165.174 323.018 165.059 323.17C164.944 323.323 164.8 323.451 164.636 323.547L149.538 332.548C149.373 332.645 149.191 332.709 149.002 332.735C148.813 332.762 148.621 332.751 148.436 332.703C148.251 332.655 148.078 332.571 147.926 332.456C147.773 332.341 147.645 332.197 147.549 332.033V332.033C147.353 331.703 147.296 331.31 147.389 330.939C147.483 330.568 147.719 330.248 148.047 330.05L163.151 321.067C163.314 320.967 163.496 320.901 163.685 320.871C163.875 320.842 164.068 320.851 164.254 320.896C164.44 320.942 164.615 321.024 164.769 321.138C164.923 321.251 165.053 321.394 165.152 321.559V321.559Z" fill="#306327"/>
<path d="M300.202 175.089C300.301 175.251 300.367 175.432 300.396 175.62C300.424 175.808 300.415 176 300.369 176.184C300.322 176.369 300.24 176.542 300.125 176.695C300.011 176.847 299.868 176.975 299.703 177.071L284.606 186.072C284.442 186.172 284.26 186.238 284.07 186.265C283.881 186.293 283.687 186.283 283.502 186.235C283.316 186.187 283.142 186.102 282.99 185.986C282.838 185.869 282.711 185.723 282.616 185.557C282.517 185.393 282.451 185.211 282.423 185.021C282.395 184.832 282.406 184.639 282.454 184.453C282.502 184.268 282.587 184.094 282.704 183.942C282.82 183.79 282.966 183.663 283.133 183.568L298.237 174.585C298.565 174.396 298.955 174.343 299.322 174.437C299.689 174.531 300.005 174.765 300.202 175.089V175.089Z" fill="#306327"/>
<path d="M152.62 156.328C152.899 156.069 153.268 155.929 153.649 155.94C154.03 155.951 154.391 156.11 154.655 156.385L166.7 169.095C166.955 169.379 167.089 169.75 167.075 170.131C167.061 170.511 166.9 170.872 166.625 171.136V171.136C166.344 171.391 165.975 171.527 165.596 171.517C165.216 171.506 164.856 171.35 164.59 171.079L152.563 158.363C152.303 158.084 152.164 157.715 152.174 157.334C152.185 156.954 152.345 156.592 152.62 156.328V156.328Z" fill="#306327"/>
<path d="M131.169 273.348C131.101 272.971 131.185 272.582 131.403 272.267C131.621 271.951 131.956 271.735 132.333 271.665L149.565 268.491C149.942 268.423 150.331 268.507 150.647 268.725C150.962 268.943 151.179 269.277 151.249 269.654C151.317 270.031 151.232 270.42 151.014 270.736C150.796 271.051 150.462 271.268 150.085 271.338L132.877 274.523C132.495 274.593 132.101 274.509 131.78 274.288C131.46 274.068 131.24 273.73 131.169 273.348V273.348Z" fill="#306327"/>
<path d="M204.155 140.614C203.967 140.644 203.775 140.636 203.59 140.59C203.405 140.545 203.231 140.463 203.078 140.35C202.925 140.237 202.796 140.094 202.699 139.93C202.602 139.766 202.539 139.585 202.513 139.396L199.897 122.143C199.868 121.955 199.876 121.763 199.921 121.579C199.967 121.394 200.048 121.22 200.162 121.067C200.275 120.914 200.418 120.785 200.582 120.688C200.746 120.591 200.927 120.528 201.116 120.502V120.502C201.305 120.469 201.498 120.475 201.685 120.519C201.872 120.563 202.047 120.643 202.202 120.756C202.357 120.869 202.488 121.012 202.586 121.177C202.685 121.341 202.749 121.523 202.776 121.713L205.373 138.972C205.403 139.16 205.395 139.352 205.349 139.537C205.304 139.722 205.222 139.896 205.109 140.049C204.995 140.202 204.852 140.33 204.689 140.427C204.525 140.524 204.343 140.588 204.155 140.614V140.614Z" fill="#306327"/>
</svg>
