<svg width="153" height="164" viewBox="0 0 153 164" fill="none" xmlns="http://www.w3.org/2000/svg">
<path d="M99.8941 62.5211L105.284 60.3967L106.174 61.4385L103.278 65.7743C103.423 66.1667 103.569 66.559 103.722 66.9526C111.362 63.8283 119.084 60.8741 126.581 57.4831C128.031 56.8185 128.826 54.4157 129.597 52.6664C131.91 47.4262 135.983 45.2685 140.73 46.9737C144.858 48.4496 147.296 53.4621 145.852 57.4938C144.119 62.2206 139.564 63.7102 133.851 62.297C131.155 61.6173 127.7 61.6321 125.233 62.76C118.536 65.8157 112.186 69.6422 105.702 73.1563L106.273 74.4185L112.294 74.7799C112.413 75.1443 112.525 75.5075 112.636 75.8706L107.084 79.4239C114.917 80.3244 121.172 83.543 127.804 79.1533C131.106 76.968 134.56 77.9393 136.825 81.0909C139.091 84.2425 138.65 87.6598 135.695 90.2949C132.935 92.7436 129.261 93.1288 126.974 90.3414C120.977 83.0719 113.754 86.5559 106.62 87.5029L112.044 90.9109C111.97 91.3525 111.896 91.7941 111.821 92.2357L104.506 92.3068C114.524 98.3336 121.211 106.854 132.476 108.252C134.323 108.484 136.837 111.044 137.236 112.911C137.554 114.42 135.503 117.497 133.873 118.069C132.242 118.64 128.441 117.407 128.019 116.146C125.415 108.343 117.939 106.9 112.154 103.4C108.701 101.395 104.892 100.078 100.938 99.5203L104.264 104.517L103.714 105.693L98.4495 103.525C99.1905 111.047 103.049 116.04 110.077 118.199C114.503 119.576 116.86 123.252 116.113 127.659C115.737 129.808 114.555 131.733 112.808 133.04C111.06 134.347 108.88 134.938 106.712 134.691C102.721 134.17 98.6712 130.085 99.6852 125.91C101.882 116.932 95.3886 112.664 90.276 105.629C90.5215 109.388 90.6648 111.565 90.8157 113.743L89.3936 114.287L85.5502 108.272C85.2702 111.99 84.8875 114.642 84.9122 117.292C84.9685 123.204 84.8433 129.172 85.5761 135.017C86.0922 138.077 87.4367 140.937 89.4637 143.287C92.3711 146.718 93.0372 149.977 90.284 153.413C87.8092 156.497 84.3628 156.975 81.1838 154.602C77.5953 151.917 77.7009 148.537 79.6298 144.555C80.9556 141.835 82.0346 138.532 81.7983 135.604C81.1094 126.979 79.7136 118.416 78.597 109.821L77.1133 109.798C76.3611 111.574 75.6165 113.352 74.8629 115.135L73.5938 115.141C73.2687 113.161 72.9348 111.187 72.3779 107.837C68.5918 115.186 62.8591 120.329 65.6372 128.773C65.9254 129.549 66.0329 130.381 65.9515 131.205C65.8701 132.03 65.6019 132.824 65.1673 133.529C64.7327 134.234 64.1432 134.831 63.4435 135.274C62.7437 135.717 61.9522 135.995 61.1291 136.087C58.5041 136.382 54.2769 134.936 53.1979 132.97C52.119 131.004 53.1296 125.451 54.7348 124.703C62.9168 120.871 62.7689 113.081 64.5647 105.836C63.0491 106.983 61.5399 108.138 60.0701 109.293L58.9196 108.732C59.6087 106.679 60.2902 104.625 61.4711 101.089C55.3342 105.609 48.9847 107.478 45.8342 114.12C45.0338 115.81 41.6168 117.138 39.4923 117.016C38.1738 116.944 35.7968 113.617 36.0791 112.169C36.4507 110.282 38.8909 107.498 40.5841 107.391C47.998 106.921 50.9191 101.04 56.5048 95.8403L49.802 97.0633L49.0202 96.0318L55.0582 90.376C48.3243 91.0849 42.9666 91.4769 37.6744 92.2714C31.7222 93.1742 25.8224 93.6709 22.5421 100.526C20.6742 104.423 15.9439 104.482 12.021 102.297C10.1882 101.232 8.83992 99.497 8.25966 97.4579C7.6794 95.4188 7.91235 93.2342 8.90953 91.3633C11.0555 87.3946 15.2507 84.8347 18.7228 87.2338C26.0969 92.3157 32.7767 89.1318 39.7378 87.3494C43.5033 86.4161 47.2008 85.0956 51.9785 83.6354L46.0367 81.0721C46.1134 80.6153 46.1901 80.1585 46.2656 79.7093L53.371 78.186C46.1755 74.4179 40.0118 70.7057 32.5127 71.3566C29.0652 71.6545 26.0193 71.5657 25.2545 67.9616C25.1295 66.8865 25.2574 65.7971 25.6279 64.7802C25.9984 63.7633 26.6014 62.847 27.3888 62.1044C30.3106 59.9021 32.9054 61.4651 35.1486 64.1902C39.9212 70.0329 47.0684 68.6811 53.2143 70.3549C53.6768 69.8846 54.1559 69.4093 54.588 68.9339L49.6783 66.1915L51.2717 64.6273L57.017 65.9834L58.0871 64.7853C52.095 58.7456 46.3277 52.5323 40.1487 46.7666C38.9038 45.6025 36.0627 46.1588 33.9625 45.8922C31.901 45.6114 30.0089 44.5993 28.6312 43.0403C27.2535 41.4812 26.4818 39.479 26.4567 37.3986C26.4825 35.3085 27.2852 33.3028 28.7085 31.7721C30.1319 30.2413 32.074 29.2951 34.1568 29.1177C38.5688 28.8095 43.1204 31.6796 42.8245 36.0528C42.2767 44.0239 47.1759 48.0405 52.4736 52.1552C55.674 54.634 58.8388 57.1382 62.7202 59.0111L61.0569 54.3245L61.9631 53.3573L66.7095 56.7454C67.9382 50.3603 64.961 41.7504 59.8008 37.283C56.8467 34.7359 55.7437 31.7013 57.7963 28.2414C59.7537 24.883 62.9129 23.6913 66.5534 25.3202C69.9188 26.8169 71.9393 29.9821 70.3019 33.2064C66.0196 41.6464 71.79 47.3748 75.066 55.5574L76.1884 48.8727C76.5947 48.7374 77.0162 48.6047 77.4137 48.4757C78.2366 50.1012 79.0673 51.7281 80.6639 54.8535C82.4275 47.9868 83.9854 42.2989 85.3021 36.5549C86.5155 31.3337 87.7337 26.2699 84.1317 21.1012C81.9043 17.9091 83.4633 14.4055 86.876 12.403C90.2888 10.4006 93.5712 11.1318 95.8557 14.3571C98.1401 17.5823 97.9568 21.1916 94.8229 23.4914C90.6982 26.5172 89.6145 30.5468 89.2345 35.1408C88.691 41.6878 88.1271 48.2628 87.4575 56.2134L93.4809 49.9915C93.2677 53.1731 93.1578 54.8064 92.9276 58.3687C98.1153 52.6485 102.619 48.2537 106.414 43.3174C108.819 40.1829 109.863 36.0682 112.109 32.7114C113.397 30.7749 115.701 28.4767 117.68 28.3471C119.262 28.2525 122.403 31.3633 122.275 32.8215C122.105 34.8126 119.652 36.7883 117.842 38.3865C116.031 39.9848 113.326 40.5716 112.033 42.3507C107.441 48.6251 103.282 55.2617 98.9584 61.7534L99.9246 62.5262L99.8941 62.5211Z" fill="#83B17F"/>
<mask id="mask0_15_95" style="mask-type:alpha" maskUnits="userSpaceOnUse" x="7" y="11" width="140" height="146">
<path d="M99.9093 62.5238L105.3 60.3994L106.189 61.4412L103.293 65.777C103.438 66.1693 103.584 66.5617 103.737 66.9553C111.377 63.831 119.099 60.8768 126.596 57.4858C128.046 56.8212 128.841 54.4183 129.612 52.6691C131.925 47.4289 135.998 45.2711 140.745 46.9763C144.873 48.4523 147.312 53.4648 145.867 57.4965C144.134 62.2233 139.579 63.7129 133.867 62.2997C131.17 61.62 127.716 61.6348 125.248 62.7627C118.551 65.8183 112.202 69.6448 105.717 73.159L106.288 74.4212L112.31 74.7826C112.428 75.147 112.54 75.5101 112.651 75.8733L107.099 79.4266C114.933 80.3271 121.187 83.5457 127.819 79.156C131.121 76.9707 134.575 77.942 136.84 81.0936C139.106 84.2452 138.665 87.6625 135.71 90.2976C132.95 92.7463 129.277 93.1315 126.989 90.3441C120.992 83.0746 113.769 86.5586 106.635 87.5056L112.059 90.9136C111.985 91.3552 111.911 91.7968 111.837 92.2384L104.521 92.3095C114.539 98.3363 121.226 106.857 132.491 108.255C134.338 108.487 136.852 111.046 137.251 112.914C137.569 114.423 135.518 117.5 133.888 118.071C132.257 118.643 128.456 117.41 128.034 116.149C125.43 108.346 117.954 106.902 112.169 103.403C108.716 101.398 104.907 100.081 100.953 99.523L104.279 104.52L103.729 105.696L98.4647 103.528C99.2056 111.05 103.064 116.043 110.092 118.201C114.518 119.579 116.876 123.254 116.128 127.661C115.752 129.811 114.57 131.736 112.823 133.043C111.076 134.35 108.895 134.94 106.727 134.694C102.736 134.173 98.6863 130.087 99.7004 125.913C101.897 116.935 95.4038 112.666 90.2911 105.631C90.5366 109.391 90.6799 111.568 90.8308 113.746L89.4087 114.29L85.5653 108.274C85.2854 111.993 84.9027 114.645 84.9274 117.295C84.9837 123.207 84.8584 129.174 85.5912 135.02C86.1073 138.08 87.4519 140.94 89.4789 143.289C92.3862 146.721 93.0524 149.98 90.2992 153.416C87.8243 156.5 84.3779 156.978 81.1989 154.604C77.6104 151.92 77.716 148.54 79.645 144.558C80.9707 141.837 82.0498 138.535 81.8134 135.607C81.1246 126.982 79.7287 118.418 78.6121 109.823L77.1285 109.801C76.3762 111.577 75.6316 113.354 74.8781 115.138L73.6089 115.144C73.2838 113.164 72.9499 111.19 72.393 107.84C68.607 115.189 62.8742 120.332 65.6523 128.775C65.9406 129.552 66.0481 130.384 65.9666 131.208C65.8852 132.032 65.617 132.827 65.1825 133.532C64.7479 134.237 64.1583 134.834 63.4586 135.277C62.7589 135.72 61.9674 135.998 61.1442 136.089C58.5192 136.384 54.292 134.939 53.2131 132.973C52.1341 131.007 53.1448 125.454 54.7499 124.706C62.9319 120.874 62.784 113.084 64.5798 105.839C63.0643 106.985 61.5551 108.141 60.0852 109.296L58.9348 108.734C59.6239 106.682 60.3054 104.628 61.4862 101.092C55.3493 105.612 48.9999 107.481 45.8493 114.123C45.0489 115.812 41.6319 117.141 39.5075 117.019C38.1889 116.946 35.8119 113.619 36.0942 112.172C36.4658 110.285 38.906 107.501 40.5992 107.394C48.0131 106.924 50.9343 101.042 56.5199 95.843L49.8172 97.066L49.0353 96.0345L55.0733 90.3787C48.3395 91.0876 42.9818 91.4796 37.6896 92.2741C31.7373 93.1768 25.8375 93.6735 22.5573 100.528C20.6894 104.426 15.9591 104.485 12.0361 102.3C10.2033 101.234 8.85506 99.4997 8.2748 97.4606C7.69454 95.4215 7.92749 93.2368 8.92467 91.366C11.0706 87.3973 15.2658 84.8374 18.7379 87.2365C26.112 92.3184 32.7918 89.1345 39.7529 87.3521C43.5184 86.4188 47.2159 85.0982 51.9936 83.6381L46.0519 81.0748C46.1286 80.618 46.2053 80.1612 46.2807 79.712L53.3862 78.1887C46.1907 74.4206 40.0269 70.7084 32.5278 71.3593C29.0804 71.6572 26.0344 71.5684 25.2697 67.9643C25.1446 66.8892 25.2725 65.7998 25.643 64.7829C26.0136 63.766 26.6166 62.8497 27.4039 62.1071C30.3257 59.9048 32.9206 61.4677 35.1637 64.1929C39.9364 70.0356 47.0835 68.6837 53.2294 70.3576C53.6919 69.8873 54.171 69.412 54.6031 68.9365L49.6934 66.1942L51.2869 64.63L57.0321 65.9861L58.1022 64.788C52.1101 58.7483 46.3429 52.535 40.1639 46.7693C38.9189 45.6052 36.0778 46.1614 33.9777 45.8949C31.9161 45.6141 30.0241 44.602 28.6464 43.0429C27.2686 41.4839 26.4969 39.4817 26.4719 37.4013C26.4976 35.3112 27.3003 33.3055 28.7237 31.7747C30.147 30.244 32.0892 29.2978 34.1719 29.1203C38.5839 28.8122 43.1356 31.6823 42.8396 36.0555C42.2918 44.0266 47.191 48.0432 52.4887 52.1579C55.6891 54.6367 58.854 57.1408 62.7354 59.0138L61.0721 54.3272L61.9782 53.3599L66.7246 56.7481C67.9533 50.363 64.9761 41.7531 59.816 37.2857C56.8619 34.7386 55.7588 31.7039 57.8115 28.2441C59.7688 24.8857 62.928 23.694 66.5686 25.3229C69.9339 26.8196 71.9544 29.9848 70.3171 33.2091C66.0347 41.649 71.8051 47.3775 75.0811 55.5601L76.2035 48.8754C76.6099 48.7401 77.0314 48.6073 77.4288 48.4784C78.2518 50.1039 79.0824 51.7308 80.679 54.8562C82.4427 47.9895 84.0005 42.3016 85.3173 36.5576C86.5306 31.3364 87.7488 26.2726 84.1468 21.1039C81.9194 17.9118 83.4784 14.4082 86.8912 12.4057C90.3039 10.4033 93.5864 11.1345 95.8708 14.3597C98.1552 17.585 97.9719 21.1943 94.838 23.4941C90.7133 26.5199 89.6296 30.5495 89.2496 35.1435C88.7061 41.6905 88.1422 48.2655 87.4726 56.2161L93.4961 49.9942C93.2828 53.1758 93.1729 54.8091 92.9427 58.3714C98.1304 52.6512 102.634 48.2564 106.43 43.3201C108.835 40.1856 109.878 36.0709 112.125 32.7141C113.413 30.7776 115.716 28.4794 117.695 28.3498C119.277 28.2552 122.418 31.366 122.291 32.8241C122.121 34.8153 119.667 36.791 117.857 38.3892C116.046 39.9874 113.341 40.5743 112.048 42.3534C107.456 48.6278 103.297 55.2643 98.9735 61.756L99.9397 62.5289L99.9093 62.5238Z" fill="#89B19D"/>
</mask>
<g mask="url(#mask0_15_95)">
<path d="M89.8229 83.4306C89.6625 84.4045 89.2167 85.3089 88.5419 86.0293C87.8672 86.7496 86.9939 87.2536 86.0325 87.4773C85.0712 87.7011 84.0651 87.6345 83.1416 87.2861C82.2181 86.9377 81.4188 86.3231 80.8448 85.5201C80.2708 84.7171 79.948 83.7618 79.9173 82.7753C79.8865 81.7887 80.1492 80.8152 80.6721 79.9781C81.1949 79.1409 81.9545 78.4777 82.8545 78.0725C83.7545 77.6672 84.7545 77.5381 85.7279 77.7016C87.0323 77.9206 88.1963 78.6489 88.9638 79.7261C89.7313 80.8034 90.0394 82.1414 89.8204 83.4458L89.8229 83.4306Z" fill="#54944C"/>
<path d="M77.0104 69.991C76.847 70.9641 76.3986 71.8668 75.722 72.585C75.0454 73.3032 74.1709 73.8045 73.2093 74.0255C72.2477 74.2466 71.2421 74.1774 70.3198 73.8268C69.3975 73.4762 68.5999 72.8598 68.028 72.0558C67.4561 71.2517 67.1355 70.2961 67.1069 69.3098C67.0783 68.3235 67.3428 67.3509 67.8672 66.515C68.3915 65.6792 69.1519 65.0176 70.0524 64.6141C70.9528 64.2105 71.9526 64.0831 72.9255 64.248C74.2282 64.4689 75.3901 65.1977 76.156 66.2744C76.9219 67.3512 77.2292 68.6879 77.0104 69.991V69.991Z" fill="#54944C"/>
<path d="M100.349 70.1597C100.185 71.1324 99.7373 72.0349 99.061 72.753C98.3848 73.4711 97.5108 73.9725 96.5496 74.1938C95.5883 74.4152 94.5831 74.3465 93.6609 73.9965C92.7387 73.6466 91.941 73.031 91.3686 72.2276C90.7963 71.4243 90.475 70.4693 90.4454 69.4833C90.4158 68.4974 90.6793 67.5248 91.2025 66.6886C91.7256 65.8524 92.485 65.1902 93.3846 64.7855C94.2841 64.3809 95.2835 64.2521 96.2562 64.4155C97.5607 64.6345 98.7247 65.3627 99.4921 66.44C100.26 67.5172 100.568 68.8552 100.349 70.1597V70.1597Z" fill="#54944C"/>
<path d="M101.544 93.9543C101.381 94.9271 100.933 95.8296 100.256 96.5477C99.5801 97.2657 98.7061 97.7671 97.7449 97.9885C96.7837 98.2098 95.7784 98.1412 94.8562 97.7912C93.934 97.4412 93.1363 96.8257 92.5639 96.0223C91.9916 95.219 91.6703 94.264 91.6407 93.278C91.6112 92.2921 91.8746 91.3195 92.3978 90.4833C92.9209 89.6471 93.6803 88.9848 94.5799 88.5802C95.4794 88.1756 96.4788 88.0468 97.4516 88.2101C98.756 88.4292 99.92 89.1574 100.687 90.2347C101.455 91.3119 101.763 92.6499 101.544 93.9543V93.9543Z" fill="#54944C"/>
<path d="M69.8741 93.8423C69.7108 94.815 69.2627 95.7175 68.5864 96.4356C67.9102 97.1537 67.0362 97.6551 66.0749 97.8764C65.1137 98.0978 64.1085 98.0291 63.1863 97.6791C62.2641 97.3292 61.4663 96.7136 60.894 95.9103C60.3217 95.1069 60.0004 94.1519 59.9708 93.166C59.9412 92.18 60.2047 91.2075 60.7279 90.3713C61.251 89.5351 62.0104 88.8728 62.91 88.4681C63.8095 88.0635 64.8089 87.9347 65.7816 88.0981C67.0861 88.3171 68.2501 89.0454 69.0175 90.1226C69.785 91.1998 70.0932 92.5379 69.8741 93.8423V93.8423Z" fill="#54944C"/>
<path d="M56.6344 132.827C56.471 133.8 56.0226 134.703 55.346 135.421C54.6694 136.139 53.7949 136.641 52.8333 136.862C51.8717 137.083 50.8661 137.014 49.9438 136.663C49.0215 136.312 48.2239 135.696 47.652 134.892C47.0801 134.088 46.7596 133.132 46.7309 132.146C46.7023 131.16 46.9669 130.187 47.4912 129.351C48.0155 128.515 48.776 127.854 49.6764 127.45C50.5768 127.047 51.5767 126.919 52.5495 127.084C53.8523 127.305 55.0142 128.034 55.78 129.111C56.5459 130.187 56.8532 131.524 56.6344 132.827V132.827Z" fill="#54944C"/>
<path d="M108.678 134.826C108.514 135.798 108.066 136.701 107.39 137.419C106.714 138.137 105.84 138.638 104.879 138.86C103.917 139.081 102.912 139.013 101.99 138.663C101.068 138.313 100.27 137.697 99.6977 136.894C99.1254 136.09 98.8041 135.135 98.7745 134.149C98.7449 133.163 99.0084 132.191 99.5316 131.355C100.055 130.518 100.814 129.856 101.714 129.452C102.613 129.047 103.613 128.918 104.585 129.081C105.89 129.301 107.054 130.029 107.821 131.106C108.589 132.183 108.897 133.521 108.678 134.826Z" fill="#54944C"/>
<path d="M141.781 85.9318C141.614 86.9028 141.162 87.8024 140.484 88.517C139.805 89.2316 138.93 89.7292 137.969 89.9469C137.008 90.1647 136.004 90.0929 135.084 89.7407C134.164 89.3884 133.368 88.7713 132.798 87.9675C132.229 87.1636 131.91 86.209 131.882 85.224C131.854 84.239 132.118 83.2678 132.642 82.433C133.166 81.5983 133.925 80.9373 134.824 80.5336C135.723 80.1299 136.721 80.0016 137.693 80.1647C138.997 80.3838 140.161 81.112 140.929 82.1892C141.696 83.2665 142.004 84.6045 141.785 85.9089L141.781 85.9318Z" fill="#54944C"/>
<path d="M90.0409 12.6682C89.879 13.6415 89.4321 14.5449 88.7566 15.2642C88.0811 15.9834 87.2074 16.4861 86.2461 16.7086C85.2848 16.9312 84.2791 16.8636 83.3563 16.5144C82.4335 16.1652 81.6349 15.5501 81.0618 14.7469C80.4886 13.9437 80.1666 12.9886 80.1364 12.0024C80.1063 11.0161 80.3693 10.0431 80.8924 9.2064C81.4154 8.36971 82.1748 7.70697 83.0746 7.30204C83.9744 6.89711 84.9741 6.76818 85.9472 6.93157C87.2503 7.15038 88.4133 7.87738 89.1808 8.95295C89.9484 10.0285 90.2577 11.3647 90.0409 12.6682Z" fill="#54944C"/>
</g>
</svg>
