<svg width="480" height="458" viewBox="0 0 480 458" fill="none" xmlns="http://www.w3.org/2000/svg">
<path d="M315.136 259.509L327.057 269.491L325.742 272.925L311.806 271.657C311.068 272.503 310.329 273.349 309.598 274.215C326.761 288.22 343.627 302.633 361.236 315.959C364.662 318.525 371.346 317.317 376.458 316.892C391.777 315.624 402.086 322.458 404.154 335.835C405.969 347.46 397.28 359.635 385.924 361.401C372.558 363.378 363.205 354.549 359.211 339.271C357.356 332.043 352.89 323.918 347.068 319.548C331.276 307.679 314.113 297.618 297.513 286.838L295.269 289.803L302.14 304.462C301.433 305.209 300.72 305.937 300.007 306.665L284.51 298.134C292.433 317.755 292.867 336.626 311.719 346.63C321.106 351.613 323.245 361 318.721 370.382C314.197 379.764 305.575 383.108 295.574 379.52C286.262 376.155 280.644 367.989 284.281 359.022C293.727 335.563 276.251 323.003 264.87 307.4L263.792 324.557C262.656 324.949 261.52 325.34 260.384 325.732L250.835 308.577C249.475 339.922 237.964 366.612 249.114 394.961C250.936 399.614 248.127 408.821 244.236 412.156C241.086 414.842 231.203 413.952 227.765 410.842C224.326 407.732 222.359 397.19 224.79 394.578C239.846 378.433 233.661 358.958 234.493 340.833C234.79 330.122 233.011 319.454 229.255 309.418L221.74 323.666L218.263 323.878L216.622 308.687C199.84 320.08 193.019 335.579 196.943 354.913C199.373 367.114 193.73 377.385 182.383 381.274C176.834 383.145 170.781 382.826 165.459 380.384C160.137 377.941 155.949 373.559 153.749 368.132C149.861 358.056 154.297 343.269 165.438 340.306C189.419 333.971 191.155 313.19 201.183 292.117C192.635 297.517 187.687 300.646 182.746 303.795L179.64 301.14L188.892 284.366C179.767 288.474 173.024 290.973 166.809 294.43C152.945 302.144 138.716 309.501 125.876 318.725C119.325 323.866 114.307 330.703 111.367 338.495C107.006 349.749 100.178 355.498 88.5476 353.414C78.1046 351.535 72.5579 344.024 74.0762 333.486C75.8035 321.584 83.9061 317.498 95.7658 316.94C103.88 316.576 113.048 314.884 119.648 310.572C139.097 297.888 157.494 283.615 176.324 269.961L174.473 266.435C169.322 266.939 164.178 267.463 159.007 267.974L157.365 264.99C161.616 261.684 165.841 258.365 173.024 252.756C150.845 253.256 131.369 246.338 115.027 263.714C113.566 265.39 111.743 266.71 109.696 267.575C107.648 268.44 105.431 268.827 103.211 268.707C100.992 268.586 98.8293 267.962 96.8875 266.881C94.9456 265.799 93.2757 264.29 92.0045 262.466C87.9426 256.657 85.9296 244.838 89.1805 239.773C92.4314 234.709 106.817 229.97 110.639 232.795C130.165 247.169 148.34 236.83 167.721 231.772C163.075 229.67 158.415 227.594 153.809 225.61L153.656 222.178C159.379 221.17 165.095 220.143 174.944 218.392C156.419 209.722 143.87 197.151 124.173 198.241C119.164 198.521 111.65 192.17 109.213 187.006C107.693 183.804 112.488 173.934 116.263 172.743C121.187 171.199 130.88 173.381 133.304 177.236C143.918 194.111 161.529 193.454 180.949 199.954L169.47 185.721L170.899 182.555L191.975 189.536C181.668 174.571 173.874 162.444 165.214 150.987C155.453 138.113 146.716 124.843 126.351 125.9C114.766 126.496 108.561 115.42 108.682 103.37C108.843 97.6833 111.204 92.2804 115.266 88.2977C119.329 84.3149 124.778 82.0624 130.467 82.0139C142.574 81.9832 153.989 88.5899 152.786 99.8516C150.263 123.752 166.334 135.415 179.463 149.539C186.492 157.219 194.347 164.242 203.915 173.632L202.339 156.338C203.514 155.933 204.689 155.528 205.845 155.13L218.548 169.927C218.203 148.132 219.049 128.842 207.898 111.998C202.775 104.253 199.078 96.9593 206.594 90.5346C208.968 88.8612 211.7 87.7655 214.572 87.3349C217.444 86.9043 220.378 87.1507 223.138 88.0545C232.076 92.118 231.72 100.239 228.172 109.022C220.519 127.765 232.871 142.88 236.807 159.515C238.509 160.002 240.244 160.522 241.919 160.93L242.087 145.84L247.818 147.59L251.989 162.873L256.185 163.859C262.739 141.988 269.99 120.425 275.658 98.4649C276.805 94.0374 271.851 88.0533 269.786 82.7606C267.804 77.5408 267.764 71.7827 269.672 66.5356C271.58 61.2885 275.311 56.9017 280.183 54.1747C285.143 51.5551 290.9 50.8752 296.334 52.2676C301.768 53.6599 306.489 57.0248 309.578 61.7069C315.963 71.7125 315.034 86.1228 304.345 91.0334C284.852 99.9641 281.666 116.664 278.76 134.429C277.021 145.153 275.176 155.824 275.739 167.376L284.654 157.445L288.096 158.341L286.196 173.875C302.823 168.583 319.302 150.523 323.216 132.63C325.432 122.4 331.171 115.908 341.959 116.31C352.386 116.617 359.247 122.536 360.076 133.207C360.863 143.06 355.993 151.882 346.292 152.157C320.905 152.885 314.801 173.834 299.712 192.05L316.91 186.124C317.75 186.908 318.604 187.732 319.417 188.503C316.641 192.528 313.871 196.572 308.551 204.344C326.999 199.696 342.405 196.074 357.635 191.812C371.499 187.976 384.998 184.354 392.563 169.235C397.232 159.891 407.491 159.073 416.587 164.55C425.684 170.027 428.17 178.703 423.497 188.224C418.823 197.745 410.08 201.941 400.639 197.503C388.217 191.66 377.328 194.273 366.011 199.268C349.881 206.383 333.658 213.485 314.057 222.103L336.448 228.323C328.675 231.9 324.684 233.736 315.991 237.762C336.128 242.655 352.263 247.635 368.767 250.253C379.241 251.903 390.278 249.085 401.073 250.077C407.289 250.63 415.662 253.114 418.505 257.612C420.756 261.219 417.451 272.613 413.85 274.183C408.938 276.336 401.135 273.086 395.046 270.868C388.956 268.649 384.103 263.025 378.251 262.258C357.572 259.48 336.593 258.185 315.746 256.319L315.163 259.587L315.136 259.509Z" fill="#83B17F"/>
<mask id="mask0_15_31" style="mask-type:alpha" maskUnits="userSpaceOnUse" x="73" y="51" width="353" height="363">
<path d="M315.15 259.548L327.07 269.53L325.755 272.963L311.82 271.696C311.081 272.542 310.343 273.388 309.611 274.254C326.775 288.258 343.641 302.672 361.249 315.997C364.675 318.564 371.359 317.356 376.472 316.931C391.79 315.662 402.1 322.496 404.168 335.874C405.982 347.498 397.293 359.674 385.937 361.44C372.572 363.416 363.218 354.587 359.224 339.309C357.369 332.082 352.904 323.957 347.081 319.587C331.289 307.717 314.126 297.657 297.526 286.877L295.283 289.841L302.153 304.5C301.447 305.248 300.733 305.976 300.02 306.703L284.524 298.172C292.447 317.794 292.88 336.665 311.733 346.669C321.119 351.652 323.258 361.039 318.734 370.421C314.21 379.803 305.589 383.146 295.587 379.559C286.276 376.193 280.657 368.028 284.294 359.061C293.741 335.602 276.265 323.041 264.883 307.439L263.806 324.596C262.67 324.987 261.533 325.379 260.397 325.77L250.848 308.616C249.488 339.96 237.978 366.651 249.127 394.999C250.95 399.652 248.141 408.86 244.25 412.195C241.099 414.88 231.217 413.991 227.778 410.881C224.34 407.771 222.373 397.229 224.803 394.616C239.86 378.471 233.674 358.996 234.507 340.872C234.804 330.16 233.025 319.492 229.269 309.456L221.754 323.704L218.277 323.916L216.636 308.726C199.854 320.119 193.033 335.617 196.956 354.952C199.386 367.153 193.744 377.424 182.396 381.313C176.848 383.183 170.794 382.865 165.472 380.422C160.151 377.98 155.962 373.598 153.763 368.171C149.874 358.094 154.311 343.308 165.452 340.345C189.433 334.009 191.169 313.229 201.196 292.155C192.648 297.555 187.7 300.685 182.759 303.834L179.653 301.179L188.905 284.404C179.781 288.513 173.038 291.012 166.822 294.468C152.958 302.183 138.73 309.54 125.89 318.764C119.338 323.904 114.32 330.742 111.381 338.533C107.02 349.787 100.192 355.537 88.561 353.453C78.1181 351.573 72.5713 344.062 74.0896 333.525C75.8169 321.622 83.9195 317.537 95.7792 316.978C103.893 316.614 113.062 314.923 119.662 310.611C139.11 297.926 157.508 283.654 176.337 269.999L174.487 266.474C169.335 266.978 164.191 267.502 159.02 268.012L157.378 265.028C161.63 261.723 165.855 258.404 173.038 252.795C150.858 253.294 131.382 246.376 115.041 263.753C113.58 265.428 111.757 266.748 109.709 267.613C107.662 268.478 105.444 268.866 103.225 268.745C101.005 268.625 98.8428 268 96.9009 266.919C94.959 265.838 93.2891 264.328 92.018 262.505C87.9561 256.695 85.9431 244.877 89.194 239.812C92.4449 234.747 106.831 230.009 110.653 232.833C130.178 247.207 148.353 236.868 167.735 231.811C163.088 229.709 158.428 227.633 153.822 225.649L153.669 222.217C159.392 221.209 165.108 220.182 174.957 218.431C156.433 209.76 143.883 197.19 124.187 198.28C119.177 198.56 111.664 192.208 109.227 187.044C107.707 183.843 112.501 173.973 116.276 172.782C121.201 171.238 130.893 173.42 133.317 177.274C143.931 194.149 161.543 193.493 180.962 199.992L169.484 185.76L170.913 182.594L191.989 189.575C181.682 174.61 173.887 162.483 165.228 151.026C155.466 138.152 146.73 124.881 126.364 125.939C114.78 126.534 108.575 115.459 108.695 103.409C108.857 97.7219 111.217 92.319 115.28 88.3362C119.343 84.3534 124.791 82.101 130.48 82.0525C142.588 82.0218 154.002 88.6285 152.799 99.8901C150.276 123.79 166.348 135.454 179.476 149.578C186.505 157.258 194.36 164.28 203.929 173.671L202.352 156.377C203.527 155.972 204.702 155.567 205.858 155.169L218.561 169.965C218.216 148.171 219.063 128.88 207.912 112.037C202.788 104.292 199.091 96.9979 206.607 90.5731C208.981 88.8997 211.713 87.8041 214.585 87.3735C217.458 86.9429 220.391 87.1893 223.151 88.0931C232.09 92.1565 231.733 100.278 228.186 109.06C220.533 127.804 232.885 142.919 236.82 159.553C238.522 160.04 240.257 160.56 241.932 160.969L242.1 145.878L247.831 147.629L252.002 162.911L256.199 163.898C262.752 142.027 270.003 120.464 275.671 98.5035C276.819 94.076 271.864 88.0919 269.799 82.7992C267.817 77.5794 267.777 71.8213 269.685 66.5741C271.594 61.327 275.324 56.9403 280.196 54.2133C285.156 51.5937 290.914 50.9138 296.348 52.3062C301.782 53.6985 306.503 57.0633 309.592 61.7455C315.976 71.7511 315.047 86.1614 304.359 91.0719C284.866 100.003 281.68 116.703 278.774 134.468C277.034 145.191 275.19 155.863 275.752 167.415L284.667 157.484L288.109 158.379L286.209 173.913C302.837 168.622 319.315 150.562 323.229 132.669C325.445 122.438 331.184 115.947 341.973 116.349C352.4 116.656 359.26 122.575 360.089 133.246C360.877 143.098 356.006 151.921 346.306 152.196C320.918 152.924 314.814 173.873 299.726 192.089L316.923 186.162C317.763 186.947 318.617 187.77 319.431 188.542C316.654 192.566 313.884 196.611 308.564 204.382C327.013 199.734 342.419 196.112 357.648 191.85C371.512 188.015 385.012 184.393 392.577 169.273C397.246 159.929 407.504 159.111 416.601 164.588C425.698 170.065 428.183 178.741 423.51 188.262C418.837 197.783 410.093 201.98 400.653 197.542C388.23 191.698 377.342 194.311 366.025 199.307C349.894 206.421 333.671 213.524 314.07 222.141L336.462 228.362C328.688 231.939 324.697 233.775 316.004 237.8C336.142 242.694 352.277 247.674 368.781 250.291C379.254 251.941 390.292 249.124 401.086 250.115C407.303 250.668 415.675 253.152 418.518 257.651C420.769 261.258 417.464 272.652 413.864 274.221C408.952 276.374 401.148 273.125 395.059 270.906C388.97 268.688 384.117 263.063 378.265 262.297C357.585 259.518 336.607 258.223 315.759 256.357L315.177 259.626L315.15 259.548Z" fill="#89B19D"/>
</mask>
<g mask="url(#mask0_15_31)">
<path d="M252.932 262.582C250.43 263.452 247.726 263.561 245.163 262.894C242.599 262.228 240.291 260.815 238.531 258.836C236.771 256.856 235.638 254.399 235.275 251.776C234.912 249.152 235.336 246.479 236.492 244.096C237.649 241.714 239.487 239.728 241.773 238.39C244.06 237.052 246.691 236.423 249.335 236.582C251.979 236.741 254.517 237.681 256.626 239.283C258.736 240.885 260.322 243.077 261.185 245.581C262.342 248.937 262.118 252.615 260.563 255.806C259.007 258.996 256.248 261.439 252.892 262.595L252.932 262.582Z" fill="#54944C"/>
<path d="M268.183 215.143C265.679 216.006 262.976 216.106 260.416 215.432C257.855 214.758 255.552 213.34 253.797 211.356C252.043 209.373 250.917 206.914 250.56 204.29C250.204 201.666 250.634 198.996 251.796 196.616C252.958 194.237 254.8 192.256 257.088 190.924C259.377 189.591 262.009 188.968 264.652 189.132C267.294 189.296 269.829 190.24 271.935 191.845C274.041 193.45 275.624 195.644 276.482 198.149C277.632 201.503 277.404 205.177 275.848 208.363C274.292 211.549 271.535 213.988 268.183 215.143V215.143Z" fill="#54944C"/>
<path d="M297.714 270.378C295.211 271.24 292.509 271.341 289.949 270.668C287.389 269.994 285.086 268.577 283.332 266.595C281.577 264.613 280.45 262.155 280.092 259.532C279.735 256.91 280.163 254.24 281.323 251.86C282.482 249.481 284.322 247.499 286.608 246.165C288.894 244.831 291.525 244.204 294.167 244.365C296.809 244.526 299.344 245.467 301.451 247.069C303.559 248.671 305.144 250.861 306.006 253.364C307.163 256.72 306.939 260.397 305.384 263.588C303.828 266.779 301.069 269.221 297.714 270.378V270.378Z" fill="#54944C"/>
<path d="M243.153 303.708C240.65 304.57 237.948 304.671 235.388 303.998C232.828 303.325 230.525 301.907 228.771 299.925C227.016 297.943 225.889 295.485 225.531 292.863C225.174 290.24 225.602 287.57 226.762 285.191C227.922 282.811 229.761 280.829 232.047 279.495C234.333 278.161 236.964 277.535 239.606 277.696C242.248 277.857 244.783 278.797 246.891 280.399C248.998 282.001 250.583 284.192 251.446 286.694C252.602 290.05 252.378 293.728 250.823 296.919C249.268 300.109 246.509 302.551 243.153 303.708V303.708Z" fill="#54944C"/>
<path d="M202.804 228.908C200.301 229.77 197.599 229.871 195.039 229.198C192.479 228.525 190.176 227.107 188.422 225.125C186.667 223.143 185.54 220.685 185.182 218.063C184.825 215.44 185.253 212.77 186.413 210.391C187.572 208.011 189.412 206.029 191.698 204.695C193.984 203.361 196.615 202.735 199.257 202.896C201.899 203.057 204.434 203.997 206.542 205.599C208.649 207.201 210.234 209.391 211.097 211.894C212.253 215.25 212.029 218.928 210.474 222.118C208.919 225.309 206.159 227.751 202.804 228.908V228.908Z" fill="#54944C"/>
<path d="M93.9254 247.692C91.422 248.555 88.7189 248.655 86.1582 247.981C83.5976 247.307 81.2943 245.889 79.5401 243.906C77.7858 241.922 76.6593 239.463 76.3031 236.839C75.9469 234.215 76.377 231.545 77.539 229.165C78.701 226.786 80.5427 224.805 82.831 223.473C85.1193 222.14 87.7514 221.517 90.3942 221.681C93.037 221.845 95.5718 222.789 97.6778 224.394C99.7837 225.999 101.366 228.193 102.225 230.698C103.375 234.052 103.147 237.726 101.591 240.912C100.035 244.098 97.2779 246.537 93.9254 247.692V247.692Z" fill="#54944C"/>
<path d="M155.953 372.938C153.451 373.801 150.749 373.902 148.189 373.228C145.629 372.555 143.326 371.138 141.572 369.156C139.817 367.174 138.69 364.716 138.332 362.093C137.975 359.47 138.403 356.8 139.563 354.421C140.722 352.042 142.562 350.06 144.848 348.725C147.134 347.391 149.765 346.765 152.407 346.926C155.049 347.087 157.584 348.028 159.691 349.63C161.799 351.231 163.384 353.422 164.246 355.925C165.403 359.28 165.179 362.958 163.624 366.149C162.068 369.34 159.309 371.782 155.953 372.938Z" fill="#54944C"/>
<path d="M313.667 388.273C311.163 389.123 308.463 389.212 305.909 388.529C303.354 387.846 301.059 386.422 299.313 384.436C297.567 382.45 296.449 379.991 296.099 377.37C295.75 374.748 296.184 372.082 297.348 369.708C298.512 367.334 300.354 365.358 302.64 364.029C304.926 362.7 307.555 362.078 310.194 362.242C312.834 362.406 315.365 363.348 317.47 364.949C319.574 366.55 321.157 368.739 322.019 371.239C323.175 374.595 322.951 378.273 321.396 381.464C319.841 384.654 317.082 387.097 313.726 388.253L313.667 388.273Z" fill="#54944C"/>
<path d="M420.021 172.351C417.519 173.217 414.816 173.322 412.254 172.652C409.692 171.982 407.387 170.567 405.63 168.587C403.872 166.606 402.742 164.148 402.382 161.525C402.022 158.902 402.448 156.231 403.606 153.85C404.764 151.468 406.603 149.484 408.889 148.149C411.175 146.813 413.806 146.185 416.449 146.345C419.093 146.505 421.629 147.445 423.737 149.047C425.846 150.649 427.432 152.84 428.294 155.344C429.45 158.696 429.227 162.37 427.676 165.559C426.125 168.748 423.372 171.19 420.021 172.351Z" fill="#54944C"/>
</g>
</svg>
