<svg width="517" height="500" viewBox="0 0 517 500" fill="none" xmlns="http://www.w3.org/2000/svg">
<path d="M341.273 262.284L355.681 268.128L355.482 271.8L341.83 274.867C341.386 275.899 340.943 276.931 340.512 277.979C361.144 286.044 381.618 294.59 402.465 301.872C406.513 303.264 412.504 300.065 417.24 298.092C431.431 292.186 443.34 295.528 449.412 307.627C454.704 318.134 450.169 332.388 439.901 337.552C427.786 343.533 416.176 337.998 407.688 324.682C403.706 318.372 396.963 312.008 390.081 309.634C371.409 303.181 351.988 298.87 332.882 293.701L331.656 297.21L342.691 309.055C342.248 309.984 341.792 310.895 341.337 311.807L323.971 308.44C337.53 324.685 343.731 342.514 364.743 346.254C375.206 348.117 380.121 356.395 378.692 366.713C377.264 377.03 370.084 382.857 359.464 382.51C349.569 382.163 341.717 376.114 342.428 366.464C344.224 341.238 323.737 334.644 308.119 323.284L312.356 339.945C311.395 340.666 310.433 341.387 309.472 342.108L295.122 328.709C303.441 358.96 300.672 387.895 319.98 411.457C323.141 415.327 323.292 424.952 320.611 429.32C318.436 432.842 308.757 435.027 304.531 433.121C300.304 431.215 295.198 421.785 296.71 418.553C306.089 398.568 294.228 381.929 289.461 364.423C286.458 354.137 281.493 344.528 274.84 336.129L272.057 351.994L268.813 353.263L262.592 339.308C250.113 355.299 248.375 372.143 258.04 389.342C264.095 400.209 261.875 411.716 252.267 418.898C247.559 422.38 241.7 423.934 235.886 423.241C230.071 422.549 224.741 419.663 220.983 415.172C214.191 406.774 213.878 391.339 223.573 385.102C244.455 371.716 239.734 351.405 242.814 328.272C236.334 336.033 232.585 340.53 228.848 345.042L225.077 343.468L228.738 324.664C221.313 331.374 215.662 335.82 210.806 341.017C199.977 352.612 188.691 363.978 179.299 376.696C174.64 383.598 171.961 391.645 171.553 399.963C170.854 412.012 166.119 419.579 154.41 421.163C143.893 422.577 136.31 417.129 134.523 406.634C132.516 394.775 138.975 388.402 150.092 384.232C157.703 381.397 165.911 376.975 170.87 370.846C185.491 352.808 198.624 333.58 212.357 314.809L209.515 312.021C204.766 314.08 200.031 316.157 195.266 318.229L192.788 315.892C195.82 311.442 198.824 306.987 203.94 299.446C182.983 306.724 162.323 306.113 152.099 327.665C151.223 329.707 149.893 331.523 148.209 332.974C146.526 334.426 144.534 335.474 142.385 336.04C140.235 336.607 137.985 336.676 135.805 336.242C133.625 335.809 131.573 334.884 129.804 333.538C124.156 329.255 118.615 318.623 120.155 312.805C121.696 306.988 133.935 298.065 138.439 299.581C161.433 307.273 175.56 291.858 192.456 281.099C187.389 280.524 182.317 279.978 177.324 279.502L176.126 276.282C181.264 273.568 186.389 270.836 195.227 266.149C174.936 263.578 159.135 255.463 140.722 262.542C136.04 264.345 126.941 260.604 123.037 256.436C120.609 253.855 122.145 242.991 125.372 240.699C129.586 237.719 139.481 236.823 142.97 239.748C158.248 252.554 174.809 246.528 195.287 246.757L179.996 236.732L180.385 233.28L202.586 233.46C188.186 222.378 177.047 213.226 165.291 204.978C152.052 195.718 139.666 185.767 120.606 193.02C109.763 197.14 100.46 188.502 96.8786 176.996C95.288 171.533 95.8773 165.667 98.5225 160.63C101.168 155.593 105.663 151.778 111.063 149.987C122.577 146.244 135.468 149.031 137.777 160.119C142.707 183.641 161.581 189.813 178.409 199.229C187.455 204.383 197.085 208.658 209.073 214.66L202.267 198.684C203.262 197.938 204.256 197.192 205.234 196.458L221.863 206.645C214.85 186.007 209.739 167.387 193.959 154.776C186.707 148.975 180.951 143.167 186.134 134.747C187.88 132.426 190.144 130.545 192.746 129.254C195.348 127.963 198.215 127.298 201.12 127.311C210.874 128.437 213.025 136.277 212.343 145.724C210.808 165.911 227.201 176.509 236.049 191.134C237.818 191.076 239.629 191.039 241.348 190.914L236.88 176.499L242.871 176.408L251.529 189.674L255.825 189.326C255.355 166.499 255.642 143.751 254.301 121.111C254.036 116.545 247.484 112.369 243.896 107.965C240.408 103.604 238.604 98.1362 238.811 92.5567C239.018 86.9771 241.222 81.6577 245.023 77.5677C248.941 73.553 254.212 71.1399 259.811 70.7985C265.41 70.457 270.936 72.2116 275.312 75.7205C284.458 83.2856 287.994 97.2861 279.326 105.239C263.512 119.718 265.602 136.59 268.285 154.39C269.919 165.13 271.437 175.853 275.515 186.676L280.954 174.489L284.505 174.286L287.461 189.654C301.664 179.517 311.809 157.273 310.046 139.042C309.017 128.625 312.489 120.686 322.88 117.76C332.899 114.854 341.245 118.383 345.306 128.286C349.078 137.422 347.148 147.313 338 150.55C314.059 159.03 314.675 180.841 305.901 202.807L320.452 191.892C321.492 192.38 322.557 192.902 323.568 193.387C322.16 198.069 320.764 202.768 318.084 211.797C334.218 201.714 347.771 193.542 360.959 184.814C372.978 176.911 384.716 169.323 387.279 152.612C388.856 142.286 398.369 138.361 408.708 140.784C419.046 143.207 424.073 150.702 422.545 161.197C421.017 171.693 413.983 178.369 403.636 177.04C390.02 175.289 380.458 181.116 371.218 189.342C358.048 201.061 344.785 212.797 328.772 227.011L351.992 226.064C345.691 231.853 342.455 234.824 335.416 241.322C356.084 239.803 372.968 239.594 389.48 237.023C399.955 235.381 409.596 229.314 420.174 226.947C426.261 225.567 434.991 225.363 439.077 228.772C442.326 231.515 442.675 243.374 439.73 245.972C435.715 249.528 427.291 248.828 420.815 248.585C414.338 248.341 407.994 244.476 402.189 245.541C381.654 249.239 361.29 254.442 340.875 259.06L341.323 262.35L341.273 262.284Z" fill="#83B17F"/>
<mask id="mask0_138_3539" style="mask-type:alpha" maskUnits="userSpaceOnUse" x="96" y="70" width="356" height="364">
<path d="M341.297 262.316L355.705 268.161L355.507 271.832L341.854 274.9C341.411 275.932 340.968 276.964 340.537 278.012C361.168 286.077 381.642 294.623 402.489 301.905C406.538 303.297 412.529 300.097 417.265 298.124C431.456 292.218 443.364 295.561 449.436 307.659C454.728 318.167 450.193 332.421 439.926 337.585C427.811 343.565 416.2 338.031 407.713 324.714C403.73 318.404 396.988 312.041 390.105 309.667C371.434 303.214 352.013 298.902 332.906 293.733L331.68 297.243L342.716 309.088C342.272 310.016 341.817 310.928 341.361 311.84L323.995 308.473C337.555 324.718 343.755 342.547 364.767 346.286C375.23 348.15 380.145 356.428 378.717 366.745C377.288 377.063 370.108 382.89 359.488 382.543C349.594 382.196 341.741 376.147 342.453 366.497C344.248 341.271 323.762 334.677 308.144 323.317L312.38 339.977C311.419 340.698 310.458 341.42 309.497 342.141L295.146 328.742C303.465 358.993 300.697 387.928 320.004 411.49C323.166 415.359 323.316 424.985 320.636 429.352C318.461 432.875 308.782 435.059 304.555 433.154C300.329 431.248 295.223 421.818 296.735 418.586C306.113 398.601 294.253 381.962 289.486 364.456C286.483 354.169 281.518 344.561 274.864 336.161L272.082 352.027L268.837 353.295L262.616 339.341C250.138 355.332 248.4 372.176 258.064 389.374C264.119 400.242 261.899 411.749 252.291 418.931C247.584 422.413 241.725 423.967 235.91 423.274C230.096 422.582 224.765 419.695 221.007 415.205C214.215 406.807 213.903 391.372 223.598 385.135C244.48 371.749 239.758 351.438 242.838 328.305C236.359 336.066 232.609 340.562 228.872 345.075L225.101 343.501L228.762 324.697C221.338 331.406 215.686 335.853 210.831 341.049C200.001 352.644 188.715 364.011 179.323 376.729C174.664 383.631 171.985 391.678 171.578 399.995C170.879 412.045 166.143 419.611 154.434 421.196C143.918 422.61 136.335 417.162 134.548 406.666C132.541 394.808 139 388.434 150.116 384.265C157.728 381.43 165.936 377.008 170.895 370.879C185.515 352.841 198.648 333.613 212.382 314.842L209.539 312.053C204.791 314.113 200.055 316.19 195.29 318.262L192.812 315.925C195.845 311.475 198.848 307.02 203.965 299.478C183.007 306.757 162.348 306.146 152.124 327.697C151.247 329.74 149.917 331.556 148.234 333.007C146.55 334.458 144.558 335.507 142.409 336.073C140.26 336.639 138.01 336.708 135.83 336.275C133.65 335.841 131.597 334.917 129.828 333.571C124.18 329.287 118.639 318.656 120.18 312.838C121.721 307.02 133.96 298.098 138.464 299.614C161.457 307.306 175.585 291.89 192.481 281.132C187.413 280.557 182.341 280.01 177.348 279.534L176.151 276.315C181.288 273.6 186.414 270.869 195.251 266.182C174.96 263.611 159.16 255.496 140.747 262.575C136.065 264.378 126.965 260.637 123.062 256.469C120.633 253.888 122.169 243.024 125.397 240.732C129.61 237.752 139.505 236.856 142.994 239.781C158.273 252.587 174.834 246.56 195.311 246.79L180.02 236.765L180.41 233.313L202.611 233.493C188.211 222.41 177.072 213.259 165.316 205.01C152.076 195.751 139.69 185.8 120.631 193.053C109.787 197.173 100.484 188.535 96.903 177.028C95.3124 171.566 95.9017 165.7 98.547 160.663C101.192 155.626 105.687 151.81 111.087 150.019C122.602 146.276 135.493 149.064 137.802 160.151C142.731 183.674 161.606 189.845 178.433 199.262C187.479 204.415 197.109 208.69 209.097 214.693L202.292 198.716C203.286 197.97 204.28 197.224 205.258 196.491L221.887 206.678C214.874 186.04 209.763 167.419 193.983 154.808C186.731 149.008 180.975 143.2 186.158 134.779C187.904 132.458 190.169 130.578 192.771 129.287C195.372 127.996 198.24 127.331 201.144 127.344C210.898 128.47 213.05 136.309 212.367 145.757C210.832 165.944 227.225 176.541 236.073 191.167C237.842 191.109 239.653 191.071 241.373 190.947L236.904 176.532L242.896 176.44L251.553 189.707L255.85 189.358C255.379 166.532 255.667 143.784 254.326 121.144C254.06 116.578 247.509 112.402 243.92 107.997C240.433 103.637 238.628 98.1689 238.835 92.5894C239.042 87.0098 241.247 81.6904 245.048 77.6005C248.965 73.5857 254.237 71.1726 259.836 70.8312C265.435 70.4897 270.96 72.2443 275.337 75.7532C284.482 83.3183 288.018 97.3188 279.351 105.271C263.537 119.75 265.627 136.623 268.31 154.423C269.943 165.163 271.461 175.886 275.54 186.708L280.979 174.522L284.53 174.318L287.486 189.686C301.689 179.55 311.834 157.306 310.071 139.075C309.042 128.658 312.513 120.719 322.905 117.792C332.924 114.887 341.269 118.416 345.331 128.318C349.102 137.455 347.173 147.345 338.024 150.582C314.084 159.063 314.699 180.874 305.926 202.84L320.477 191.924C321.517 192.413 322.582 192.935 323.593 193.42C322.185 198.102 320.789 202.801 318.109 211.83C334.243 201.747 347.795 193.575 360.983 184.847C373.002 176.944 384.74 169.356 387.303 152.645C388.881 142.319 398.394 138.394 408.732 140.817C419.071 143.239 424.097 150.734 422.57 161.23C421.042 171.726 414.007 178.402 403.66 177.073C390.045 175.322 380.482 181.149 371.243 189.375C358.072 201.094 344.81 212.83 328.797 227.044L352.017 226.097C345.715 231.886 342.479 234.857 335.44 241.355C356.108 239.836 372.993 239.627 389.505 237.056C399.979 235.414 409.62 229.347 420.199 226.98C426.285 225.599 435.016 225.395 439.102 228.805C442.35 231.548 442.7 243.406 439.754 246.005C435.739 249.56 427.316 248.861 420.839 248.617C414.363 248.374 408.019 244.508 402.214 245.574C381.679 249.272 361.314 254.475 340.899 259.093L341.347 262.383L341.297 262.316Z" fill="#89B19D"/>
</mask>
<g mask="url(#mask0_138_3539)">
<path d="M283.009 284.288C280.895 285.884 278.355 286.816 275.711 286.968C273.066 287.12 270.436 286.483 268.154 285.139C265.871 283.795 264.039 281.804 262.889 279.418C261.738 277.032 261.322 274.359 261.692 271.736C262.063 269.113 263.203 266.659 264.968 264.685C266.734 262.71 269.046 261.304 271.611 260.645C274.177 259.985 276.88 260.101 279.379 260.979C281.878 261.857 284.061 263.456 285.65 265.575C287.78 268.414 288.695 271.984 288.194 275.498C287.692 279.012 285.815 282.182 282.976 284.312L283.009 284.288Z" fill="#54944C"/>
<path d="M282.974 234.458C280.856 236.047 278.314 236.972 275.67 237.116C273.026 237.259 270.399 236.616 268.121 235.266C265.843 233.916 264.016 231.921 262.873 229.533C261.729 227.145 261.319 224.471 261.695 221.85C262.071 219.229 263.217 216.779 264.986 214.809C266.755 212.839 269.069 211.438 271.635 210.783C274.201 210.129 276.903 210.25 279.4 211.132C281.897 212.014 284.076 213.616 285.661 215.737C287.785 218.577 288.695 222.143 288.191 225.653C287.687 229.163 285.811 232.33 282.974 234.458Z" fill="#54944C"/>
<path d="M328.023 277.972C325.906 279.561 323.365 280.485 320.722 280.63C318.079 280.774 315.452 280.132 313.174 278.783C310.896 277.435 309.07 275.441 307.925 273.055C306.78 270.668 306.369 267.995 306.743 265.375C307.117 262.754 308.259 260.304 310.026 258.333C311.793 256.362 314.105 254.959 316.669 254.302C319.233 253.644 321.934 253.762 324.432 254.64C326.929 255.518 329.109 257.117 330.698 259.235C332.828 262.074 333.743 265.643 333.241 269.157C332.74 272.671 330.863 275.842 328.023 277.972Z" fill="#54944C"/>
<path d="M286.316 326.431C284.198 328.02 281.657 328.944 279.014 329.089C276.371 329.233 273.745 328.59 271.467 327.242C269.189 325.894 267.362 323.9 266.217 321.513C265.072 319.127 264.661 316.454 265.035 313.834C265.409 311.213 266.552 308.763 268.319 306.792C270.086 304.821 272.397 303.418 274.961 302.761C277.526 302.103 280.227 302.221 282.724 303.099C285.221 303.977 287.402 305.576 288.99 307.694C291.12 310.533 292.035 314.102 291.534 317.616C291.032 321.13 289.155 324.301 286.316 326.431Z" fill="#54944C"/>
<path d="M224.969 267.612C222.851 269.201 220.31 270.126 217.667 270.27C215.024 270.415 212.397 269.772 210.12 268.423C207.842 267.075 206.015 265.082 204.87 262.695C203.725 260.308 203.314 257.636 203.688 255.015C204.062 252.395 205.205 249.944 206.972 247.973C208.738 246.002 211.05 244.599 213.614 243.942C216.178 243.285 218.88 243.403 221.377 244.281C223.874 245.159 226.055 246.758 227.643 248.875C229.773 251.715 230.688 255.284 230.186 258.798C229.685 262.312 227.808 265.482 224.969 267.612Z" fill="#54944C"/>
<path d="M127.1 318.887C124.982 320.476 122.44 321.401 119.796 321.545C117.152 321.689 114.525 321.045 112.247 319.695C109.968 318.346 108.142 316.35 106.998 313.962C105.854 311.574 105.445 308.9 105.821 306.279C106.197 303.658 107.342 301.208 109.112 299.238C110.881 297.268 113.195 295.867 115.761 295.213C118.326 294.558 121.029 294.679 123.525 295.561C126.022 296.443 128.201 298.046 129.787 300.166C131.91 303.006 132.82 306.572 132.316 310.082C131.813 313.592 129.936 316.759 127.1 318.887Z" fill="#54944C"/>
<path d="M224.554 419.07C222.437 420.659 219.896 421.584 217.253 421.728C214.61 421.873 211.983 421.23 209.706 419.881C207.428 418.533 205.601 416.54 204.456 414.153C203.311 411.766 202.9 409.094 203.274 406.473C203.648 403.853 204.791 401.402 206.557 399.431C208.324 397.46 210.636 396.057 213.2 395.4C215.764 394.743 218.466 394.861 220.963 395.739C223.46 396.617 225.641 398.216 227.229 400.333C229.359 403.173 230.274 406.742 229.772 410.256C229.271 413.77 227.394 416.94 224.554 419.07Z" fill="#54944C"/>
<path d="M379.369 385.292C377.247 386.869 374.704 387.782 372.063 387.915C369.423 388.049 366.801 387.397 364.53 386.042C362.259 384.687 360.441 382.69 359.304 380.302C358.167 377.914 357.763 375.244 358.143 372.627C358.523 370.01 359.669 367.564 361.438 365.598C363.206 363.632 365.518 362.234 368.08 361.58C370.642 360.927 373.341 361.047 375.835 361.925C378.329 362.804 380.507 364.402 382.094 366.517C384.224 369.357 385.139 372.926 384.637 376.44C384.135 379.954 382.259 383.124 379.419 385.254L379.369 385.292Z" fill="#54944C"/>
<path d="M414.368 147.156C412.252 148.748 409.712 149.677 407.068 149.825C404.424 149.973 401.796 149.333 399.516 147.987C397.236 146.641 395.406 144.649 394.259 142.262C393.111 139.876 392.697 137.203 393.069 134.581C393.441 131.96 394.583 129.507 396.349 127.535C398.115 125.562 400.427 124.157 402.992 123.499C405.557 122.841 408.259 122.958 410.757 123.836C413.255 124.713 415.437 126.313 417.026 128.431C419.154 131.267 420.069 134.832 419.571 138.343C419.072 141.854 417.201 145.023 414.368 147.156Z" fill="#54944C"/>
</g>
</svg>
