<svg width="1355" height="1523" viewBox="0 0 1355 1523" fill="none" xmlns="http://www.w3.org/2000/svg">
<path opacity="0.32" d="M1121.63 379.538C1249.14 521.221 1253.92 801.811 1120.62 1059.71C1037.44 1220.63 917.607 1339.72 794.431 1399.01L549.35 1333.03L1115.84 373.765" fill="#01050F"/>
<path d="M1032.23 304.024C1028.45 301.966 1024.56 300.064 1020.73 298.177L912.032 243.498L898.832 269.824C725.316 265.885 527.672 399.715 410.647 618.49C287.577 848.591 291.332 1100.31 406.605 1239.31L395.919 1260.38L488.11 1307.57L492.887 1310.26C497.695 1312.83 502.563 1315.18 507.448 1317.48L508.303 1317.71C701.756 1406.75 969.548 1266.2 1114.59 995.579C1263.48 717.925 1226.63 408.173 1032.23 304.024Z" fill="#497F60"/>
<path d="M1020.88 947.869C1169.87 670.018 1133.07 360.307 938.674 256.109C744.282 151.912 465.915 292.685 316.922 570.536C167.929 848.386 204.732 1158.1 399.124 1262.3C593.515 1366.49 871.883 1225.72 1020.88 947.869Z" fill="#99BC95"/>
<path d="M981.188 926.576C1113.38 680.057 1080.73 405.271 908.257 312.824C735.787 220.376 488.81 345.276 356.619 591.795C224.427 838.314 257.079 1113.1 429.549 1205.55C602.019 1297.99 848.996 1173.09 981.188 926.576Z" fill="#EBE6C6"/>
<path d="M371.617 620.875C503.758 374.335 750.767 249.455 923.545 341.734C967.176 365.479 1003.26 401.001 1027.67 444.25C1001.79 387.118 961.887 340.996 908.59 312.595C736.1 220.15 489.149 345.044 356.662 591.736C258.274 775.566 251.224 975.003 325.636 1102.76C267.691 974.914 280.229 791.192 371.617 620.875Z" fill="#D0C390"/>
<path d="M715.796 937.715L678.417 809.54C681.238 806.167 683.698 802.508 685.757 798.623C698.036 775.715 695.03 750.098 678.928 741.792C678.461 741.636 677.985 741.508 677.503 741.409L663.664 734.689L660.933 740.064L660.932 508.991L630.991 747.524L640.794 750.163C635.403 755.043 630.892 760.815 627.459 767.226C623.552 773.835 621.125 781.214 620.345 788.852C619.566 796.491 620.453 804.208 622.945 811.471L619.966 817.085L633.63 824.002L634.314 824.186L635.739 824.57L636.366 824.738C639.379 825.945 642.595 826.562 645.841 826.556L715.796 937.715Z" fill="#355E48"/>
<path d="M674.059 794.618C661.719 817.754 638.53 829.415 622.407 820.736C606.283 812.057 603.178 786.352 615.56 763.289C627.943 740.226 651.09 728.493 667.229 737.115C683.368 745.737 686.457 771.498 674.059 794.618Z" fill="#54944C"/>
<path d="M461.444 1163.67C460.909 1163.42 460.43 1163.06 460.034 1162.62C459.638 1162.18 459.333 1161.66 459.137 1161.11C458.941 1160.55 458.857 1159.96 458.89 1159.36C458.924 1158.77 459.074 1158.19 459.332 1157.66L482.255 1108.84C482.767 1107.77 483.678 1106.94 484.793 1106.53C485.909 1106.13 487.139 1106.17 488.222 1106.66V1106.66C489.305 1107.17 490.141 1108.1 490.547 1109.22C490.953 1110.35 490.897 1111.59 490.391 1112.68L467.41 1161.49C467.163 1162.02 466.812 1162.5 466.378 1162.9C465.944 1163.3 465.435 1163.61 464.88 1163.82C464.326 1164.02 463.737 1164.11 463.148 1164.08C462.558 1164.06 461.979 1163.92 461.444 1163.67V1163.67Z" fill="#306327"/>
<path d="M891.182 873.171C891.41 872.628 891.745 872.136 892.166 871.724C892.587 871.312 893.086 870.988 893.634 870.771C894.182 870.554 894.768 870.449 895.357 870.462C895.946 870.474 896.527 870.604 897.065 870.844L946.751 892.224C947.838 892.698 948.693 893.583 949.129 894.685C949.566 895.787 949.548 897.017 949.08 898.106V898.106C948.851 898.651 948.516 899.145 948.095 899.56C947.674 899.975 947.175 900.303 946.627 900.524C946.078 900.746 945.492 900.857 944.901 900.851C944.309 900.845 943.725 900.722 943.181 900.49L893.511 879.053C892.967 878.824 892.475 878.49 892.063 878.069C891.65 877.648 891.326 877.149 891.109 876.601C890.892 876.053 890.787 875.468 890.8 874.879C890.812 874.29 890.942 873.709 891.182 873.171Z" fill="#306327"/>
<path d="M781.62 1013.36C782.537 1012.61 783.713 1012.24 784.897 1012.34C786.081 1012.44 787.178 1013 787.953 1013.9L822.849 1055.25C823.23 1055.71 823.519 1056.23 823.698 1056.79C823.877 1057.35 823.943 1057.95 823.893 1058.53C823.842 1059.12 823.676 1059.69 823.404 1060.22C823.132 1060.74 822.759 1061.21 822.306 1061.59V1061.59C821.389 1062.34 820.213 1062.71 819.029 1062.6C817.845 1062.5 816.748 1061.94 815.973 1061.04L781.077 1019.69C780.322 1018.77 779.956 1017.6 780.057 1016.41C780.159 1015.23 780.72 1014.13 781.62 1013.36V1013.36Z" fill="#306327"/>
<path d="M496.784 497.656C497.235 497.275 497.757 496.987 498.32 496.808C498.882 496.629 499.475 496.563 500.063 496.614C500.652 496.664 501.224 496.83 501.748 497.103C502.272 497.375 502.738 497.748 503.117 498.2L538.028 539.494C538.83 540.386 539.247 541.558 539.188 542.755C539.129 543.953 538.599 545.078 537.714 545.886V545.886C537.263 546.267 536.741 546.556 536.178 546.735C535.615 546.914 535.023 546.98 534.434 546.929C533.846 546.879 533.273 546.713 532.749 546.44C532.225 546.168 531.76 545.795 531.381 545.343L496.485 503.992C496.081 503.56 495.768 503.051 495.563 502.496C495.359 501.941 495.269 501.351 495.297 500.761C495.325 500.17 495.471 499.591 495.726 499.058C495.982 498.525 496.341 498.048 496.784 497.656Z" fill="#306327"/>
<path d="M661.951 1088.69C663.114 1088.5 664.303 1088.78 665.263 1089.46C666.223 1090.14 666.877 1091.17 667.083 1092.33L676.193 1145.68C676.376 1146.85 676.089 1148.04 675.396 1149C674.704 1149.96 673.66 1150.6 672.494 1150.79V1150.79C671.332 1150.98 670.142 1150.71 669.182 1150.02C668.222 1149.34 667.568 1148.31 667.362 1147.15L658.293 1093.87C658.184 1093.29 658.193 1092.69 658.318 1092.12C658.444 1091.54 658.685 1090.99 659.026 1090.51C659.367 1090.02 659.802 1089.61 660.304 1089.3C660.806 1088.99 661.367 1088.78 661.951 1088.69V1088.69Z" fill="#306327"/>
<path d="M390.948 977.542C391.479 978.612 391.567 979.849 391.193 980.983C390.819 982.117 390.013 983.059 388.95 983.603L340.609 1007.86C340.085 1008.13 339.513 1008.3 338.926 1008.34C338.339 1008.39 337.748 1008.32 337.189 1008.13C336.629 1007.95 336.112 1007.65 335.668 1007.27C335.224 1006.88 334.862 1006.41 334.602 1005.88V1005.88C334.072 1004.82 333.983 1003.59 334.355 1002.47C334.727 1001.34 335.528 1000.41 336.585 999.875L385.371 975.552C386.385 975.163 387.505 975.15 388.528 975.515C389.551 975.88 390.41 976.599 390.948 977.542Z" fill="#306327"/>
<path d="M967.88 511.741C968.411 512.812 968.499 514.048 968.125 515.182C967.751 516.316 966.945 517.258 965.882 517.803L917.696 542.165C916.636 542.695 915.41 542.783 914.284 542.412C913.159 542.04 912.226 541.238 911.69 540.181C911.168 539.106 911.091 537.868 911.476 536.736C911.861 535.605 912.676 534.67 913.745 534.136L962.045 509.804C963.083 509.337 964.259 509.278 965.34 509.636C966.42 509.995 967.327 510.746 967.88 511.741V511.741Z" fill="#306327"/>
<path d="M395.927 828.936C395.893 829.525 395.744 830.101 395.488 830.632C395.231 831.163 394.872 831.639 394.432 832.031C393.991 832.423 393.477 832.725 392.92 832.918C392.363 833.112 391.773 833.193 391.184 833.158L336.928 830.345C336.339 830.312 335.762 830.163 335.23 829.906C334.699 829.649 334.224 829.291 333.831 828.85C333.439 828.41 333.137 827.896 332.943 827.339C332.75 826.782 332.668 826.192 332.703 825.603V825.603C332.766 824.421 333.295 823.313 334.173 822.519C335.05 821.725 336.207 821.31 337.389 821.365L391.63 824.235C392.221 824.259 392.802 824.401 393.339 824.65C393.876 824.9 394.358 825.254 394.758 825.691C395.157 826.128 395.466 826.64 395.667 827.197C395.867 827.753 395.956 828.345 395.927 828.936V828.936Z" fill="#306327"/>
<path d="M994.565 684.637C994.542 685.224 994.401 685.801 994.151 686.334C993.902 686.867 993.549 687.344 993.112 687.739C992.676 688.133 992.165 688.437 991.61 688.632C991.055 688.827 990.467 688.909 989.879 688.874L935.623 686.061C935.031 686.036 934.451 685.892 933.916 685.638C933.38 685.384 932.902 685.025 932.508 684.583C932.114 684.141 931.813 683.624 931.622 683.063C931.432 682.503 931.355 681.909 931.398 681.319C931.424 680.727 931.568 680.147 931.822 679.612C932.076 679.077 932.434 678.599 932.877 678.205C933.319 677.811 933.836 677.51 934.397 677.32C934.957 677.129 935.551 677.054 936.141 677.097L990.382 679.966C991.551 680.045 992.644 680.577 993.425 681.45C994.207 682.322 994.616 683.466 994.565 684.637V684.637Z" fill="#306327"/>
<path d="M647.613 382.875C648.775 382.687 649.965 382.964 650.925 383.646C651.885 384.327 652.539 385.358 652.745 386.517L661.855 439.869C662.021 441.034 661.729 442.219 661.039 443.173C660.349 444.127 659.315 444.776 658.155 444.983V444.983C656.995 445.155 655.813 444.872 654.857 444.193C653.9 443.514 653.243 442.492 653.023 441.341L643.97 388.005C643.782 386.843 644.059 385.653 644.74 384.694C645.422 383.734 646.454 383.081 647.613 382.875V382.875Z" fill="#306327"/>
<path d="M391.444 646.681C391.917 645.594 392.802 644.74 393.905 644.303C395.007 643.867 396.238 643.886 397.327 644.354L447.054 665.806C448.141 666.28 448.996 667.165 449.433 668.267C449.869 669.369 449.851 670.599 449.383 671.688C448.909 672.774 448.024 673.629 446.922 674.065C445.819 674.501 444.589 674.483 443.5 674.015L393.814 652.635C392.712 652.157 391.844 651.262 391.4 650.146C390.956 649.031 390.972 647.785 391.444 646.681V646.681Z" fill="#306327"/>
<path d="M807.021 431.044C806.486 430.797 806.007 430.446 805.61 430.012C805.213 429.578 804.906 429.069 804.708 428.515C804.51 427.961 804.424 427.373 804.456 426.786C804.488 426.198 804.637 425.623 804.894 425.094L827.817 376.272C828.063 375.738 828.414 375.259 828.848 374.862C829.283 374.465 829.792 374.159 830.346 373.961C830.9 373.763 831.488 373.678 832.076 373.71C832.663 373.742 833.239 373.89 833.768 374.147V374.147C834.309 374.388 834.796 374.736 835.201 375.169C835.605 375.602 835.918 376.112 836.122 376.668C836.326 377.224 836.416 377.816 836.386 378.407C836.357 378.999 836.209 379.579 835.952 380.112L812.972 428.919C812.725 429.453 812.375 429.932 811.94 430.329C811.506 430.726 810.997 431.032 810.443 431.23C809.889 431.428 809.301 431.513 808.713 431.481C808.126 431.449 807.55 431.301 807.021 431.044V431.044Z" fill="#306327"/>
</svg>
