<svg width="238" height="246" viewBox="0 0 238 246" fill="none" xmlns="http://www.w3.org/2000/svg">
<path d="M129.671 84.1481L133.923 77.7823L135.674 78.2432L135.795 85.1316C136.248 85.4479 136.701 85.7643 137.164 86.0763C143.106 76.9304 149.263 67.9081 154.848 58.5804C155.922 56.7667 154.975 53.5596 154.495 51.0797C153.059 43.6494 155.856 38.2396 162.293 36.5155C167.886 35.0089 174.309 38.6139 175.777 44.0784C177.456 50.5151 173.632 55.5631 166.366 58.3309C162.928 59.6235 159.188 62.2415 157.359 65.3241C152.39 73.6853 148.379 82.6211 143.986 91.3198L145.556 92.2601L152.365 88.1173C152.769 88.4234 153.163 88.7338 153.557 89.0442L150.206 97.0829C159.389 92.1609 168.602 90.9446 172.496 81.1847C174.435 76.3251 178.916 74.7786 183.749 76.4938C188.582 78.209 190.677 82.2508 189.453 87.3371C188.302 92.0738 184.604 95.2585 180.021 93.9553C168.036 90.58 162.818 99.8023 155.787 106.203L164.242 105.818C164.494 106.353 164.746 106.888 164.998 107.423L157.11 113.01C172.524 112.008 186.201 116.222 199.483 109.256C201.664 108.116 206.32 109.001 208.159 110.728C209.641 112.127 209.732 117.012 208.392 118.86C207.053 120.709 201.998 122.233 200.59 121.182C191.886 114.672 182.683 118.735 173.768 119.292C168.509 119.717 163.382 121.155 158.67 123.528L166.043 126.448L166.332 128.139L158.984 129.75C165.454 137.358 173.403 139.872 182.657 136.923C188.5 135.084 193.828 137.299 196.335 142.647C197.546 145.263 197.712 148.243 196.799 150.978C195.887 153.712 193.965 155.996 191.426 157.361C186.701 159.8 179.227 158.416 177.184 153.12C172.807 141.72 162.544 141.976 151.695 138.189C154.793 142.086 156.588 144.341 158.392 146.592L157.258 148.253L148.555 144.617C151.052 148.865 152.634 152.032 154.656 154.891C159.17 161.266 163.528 167.839 168.726 173.633C171.591 176.566 175.205 178.658 179.175 179.682C184.915 181.218 188.093 184.254 187.692 190.058C187.327 195.269 183.946 198.384 178.707 198.201C172.79 197.989 170.359 194.241 169.454 188.466C168.845 184.514 167.529 180.116 165.067 177.115C157.824 168.271 149.859 160.025 142.174 151.535L140.546 152.629C141.067 155.123 141.597 157.613 142.122 160.117L140.749 161.08C138.905 159.175 137.056 157.283 133.928 154.066C135.353 164.895 133.003 174.796 142.378 181.87C143.275 182.496 144.019 183.318 144.551 184.274C145.083 185.23 145.391 186.295 145.45 187.388C145.509 188.481 145.319 189.572 144.893 190.58C144.467 191.588 143.817 192.486 142.992 193.205C140.365 195.503 134.687 197.117 132.035 195.795C129.383 194.473 126.298 187.684 127.477 185.663C133.474 175.341 127.446 166.995 123.939 157.778C123.158 160.164 122.39 162.555 121.663 164.916L119.992 165.173C119.194 162.426 118.387 159.683 117.006 154.955C113.748 164.483 108.263 171.295 109.844 180.877C110.248 183.314 107.539 187.33 105.141 188.798C103.655 189.712 98.5689 187.89 97.7849 186.106C96.7674 183.778 97.3196 178.918 99.0771 177.526C106.772 171.433 105.514 162.848 107.662 152.997L101.306 159.372L99.6805 158.841L101.976 148.154C95.1995 153.995 89.6785 158.456 84.5316 163.304C78.7497 168.767 72.719 173.749 74.3204 183.661C75.2283 189.299 70.1375 192.926 64.233 193.508C61.4408 193.732 58.6707 192.864 56.5051 191.087C54.3395 189.311 52.9471 186.764 52.6206 183.982C51.9613 178.057 54.5877 172.118 60.1639 172.108C71.9965 172.071 76.8501 163.584 83.0647 156.407C86.4496 152.558 89.469 148.339 93.556 143.156L85.1752 144.848C84.9144 144.294 84.6537 143.741 84.3973 143.196L90.9637 136.191C80.3145 137.52 70.8274 138.132 63.1766 144.486C59.6584 147.406 56.2849 149.604 52.7404 146.267C51.795 145.194 51.1133 143.915 50.7497 142.532C50.3861 141.149 50.3506 139.7 50.6461 138.301C52.1594 133.71 56.1535 133.452 60.641 134.721C70.2224 137.47 76.9632 130.62 84.8958 127.808C85.0437 126.949 85.2058 126.072 85.3168 125.231L77.9216 125.951L78.4734 123.053L85.7317 120.199L85.9911 118.092C74.9375 116.048 63.9972 113.646 52.947 112.041C50.7188 111.714 48.0534 114.458 45.5728 115.75C43.1233 116.998 40.3071 117.324 37.6373 116.669C34.9675 116.015 32.6218 114.422 31.0278 112.183C29.4817 109.894 28.8425 107.112 29.2349 104.379C29.6272 101.645 31.023 99.1549 33.1503 97.3938C37.708 93.7364 44.8107 93.4242 47.783 98.3947C53.1915 107.461 61.5351 108.131 70.3851 108.608C75.7263 108.889 81.0479 109.224 86.6721 108.334L81.3369 104.499L81.5921 102.767L89.2965 102.87C85.8216 95.0132 76.1053 87.9085 67.1389 86.9449C62.0137 86.4046 58.5308 83.9409 58.1534 78.639C57.749 73.519 60.2811 69.846 65.4601 68.8726C70.2406 67.9629 74.8179 69.8774 75.4687 74.6108C77.1761 86.9982 87.7547 88.8712 97.4735 95.287L93.6577 87.1848C93.9969 86.7319 94.3545 86.2703 94.6888 85.831C96.8065 86.9759 98.9334 88.1164 103.02 90.3069C99.7636 81.5242 97.1711 74.1763 94.2747 66.9489C91.6597 60.367 89.1685 53.9523 81.3655 51.0539C76.5434 49.266 75.5972 44.2884 77.794 39.5444C79.9907 34.8004 84.1049 33.1221 89.0138 34.9029C93.9228 36.6837 96.442 40.7401 94.7719 45.5969C92.573 51.9881 94.4313 57.1788 97.4786 62.4521C101.819 69.9689 106.159 77.5313 111.42 86.6668L113.273 75.376C115.438 78.9905 116.548 80.8464 118.981 84.887C120.305 74.7701 121.884 66.6076 122.287 58.3901C122.537 53.1759 120.571 47.9234 120.482 42.5872C120.422 39.515 121.192 35.285 123.242 33.654C124.888 32.3603 130.641 33.3716 131.601 35.0505C132.916 37.34 131.741 41.3324 130.979 44.431C130.217 47.5295 127.722 50.2041 127.659 53.1092C127.399 63.3789 127.881 73.7162 128.077 84.0194L129.708 84.1307L129.671 84.1481Z" fill="#89B19D"/>
<mask id="mask0_15_17" style="mask-type:alpha" maskUnits="userSpaceOnUse" x="29" y="33" width="181" height="166">
<path d="M129.69 84.14L133.941 77.7742L135.692 78.2352L135.813 85.1235C136.266 85.4399 136.72 85.7562 137.182 86.0683C143.124 76.9223 149.281 67.9 154.867 58.5723C155.94 56.7587 154.994 53.5515 154.514 51.0717C153.077 43.6414 155.874 38.2316 162.312 36.5075C167.905 35.0008 174.327 38.6059 175.795 44.0703C177.474 50.507 173.65 55.555 166.385 58.3228C162.946 59.6155 159.207 62.2334 157.377 65.316C152.408 73.6772 148.397 82.613 144.004 91.3117L145.574 92.2521L152.384 88.1092C152.787 88.4153 153.182 88.7257 153.576 89.0362L150.225 97.0749C159.407 92.1528 168.621 90.9366 172.514 81.1767C174.454 76.3171 178.934 74.7706 183.767 76.4858C188.6 78.2009 190.695 82.2428 189.472 87.3291C188.32 92.0657 184.622 95.2504 180.04 93.9473C168.054 90.5719 162.837 99.7942 155.805 106.195L164.26 105.81C164.512 106.345 164.765 106.88 165.017 107.415L157.128 113.002C172.543 112 186.219 116.214 199.501 109.248C201.682 108.108 206.338 108.993 208.177 110.72C209.659 112.119 209.75 117.004 208.411 118.852C207.071 120.701 202.016 122.225 200.608 121.174C191.905 114.664 182.701 118.727 173.786 119.284C168.527 119.709 163.4 121.147 158.688 123.52L166.062 126.44L166.35 128.131L159.003 129.742C165.472 137.35 173.421 139.864 182.676 136.915C188.518 135.076 193.846 137.291 196.353 142.639C197.564 145.255 197.73 148.235 196.818 150.97C195.905 153.704 193.983 155.987 191.444 157.353C186.719 159.792 179.246 158.408 177.203 153.112C172.825 141.711 162.562 141.968 151.714 138.181C154.811 142.078 156.606 144.333 158.411 146.584L157.277 148.245L148.574 144.609C151.07 148.857 152.652 152.024 154.675 154.883C159.188 161.258 163.547 167.831 168.745 173.625C171.609 176.558 175.223 178.65 179.193 179.674C184.934 181.21 188.111 184.246 187.71 190.05C187.346 195.261 183.964 198.376 178.726 198.193C172.808 197.981 170.377 194.233 169.473 188.458C168.863 184.506 167.547 180.108 165.085 177.107C157.842 168.262 149.877 160.017 142.192 151.527L140.565 152.621C141.085 155.115 141.616 157.605 142.141 160.109L140.767 161.072C138.923 159.167 137.074 157.275 133.946 154.058C135.371 164.887 133.021 174.788 142.396 181.862C143.294 182.488 144.037 183.31 144.569 184.266C145.102 185.222 145.409 186.287 145.468 187.38C145.528 188.473 145.337 189.564 144.911 190.572C144.485 191.58 143.835 192.478 143.01 193.197C140.383 195.495 134.705 197.109 132.053 195.787C129.401 194.465 126.317 187.676 127.496 185.655C133.492 175.333 127.464 166.987 123.958 157.77C123.176 160.156 122.408 162.547 121.682 164.908L120.01 165.165C119.212 162.418 118.405 159.675 117.024 154.947C113.766 164.475 108.281 171.287 109.863 180.869C110.266 183.306 107.557 187.322 105.159 188.79C103.673 189.704 98.5872 187.882 97.8033 186.098C96.7857 183.77 97.3379 178.91 99.0954 177.518C106.79 171.425 105.532 162.84 107.68 152.989L101.324 159.364L99.6988 158.833L101.994 148.146C95.2178 153.987 89.6968 158.448 84.5499 163.296C78.768 168.759 72.7374 173.741 74.3387 183.653C75.2466 189.291 70.1558 192.918 64.2513 193.5C61.4592 193.724 58.6891 192.856 56.5234 191.079C54.3578 189.303 52.9654 186.755 52.6389 183.973C51.9797 178.049 54.606 172.11 60.1822 172.1C72.0148 172.063 76.8684 163.576 83.083 156.399C86.4679 152.55 89.4873 148.331 93.5744 143.148L85.1935 144.84C84.9328 144.286 84.672 143.733 84.4156 143.188L90.982 136.183C80.3328 137.512 70.8457 138.124 63.1949 144.478C59.6767 147.398 56.3033 149.596 52.7587 146.259C51.8133 145.186 51.1316 143.907 50.768 142.524C50.4044 141.141 50.3689 139.692 50.6644 138.293C52.1777 133.702 56.1718 133.444 60.6593 134.713C70.2407 137.462 76.9815 130.611 84.9141 127.8C85.062 126.941 85.2241 126.064 85.3351 125.223L77.9399 125.943L78.4917 123.045L85.75 120.19L86.0094 118.084C74.9558 116.04 64.0155 113.638 52.9653 112.033C50.7371 111.706 48.0718 114.45 45.5911 115.742C43.1416 116.99 40.3254 117.316 37.6556 116.661C34.9858 116.007 32.6401 114.414 31.0461 112.175C29.5 109.886 28.8608 107.104 29.2532 104.37C29.6455 101.637 31.0413 99.1468 33.1687 97.3857C37.7263 93.7284 44.829 93.4162 47.8013 98.3866C53.2098 107.453 61.5534 108.123 70.4034 108.6C75.7446 108.881 81.0662 109.216 86.6905 108.326L81.3552 104.491L81.6104 102.759L89.3148 102.862C85.84 95.0051 76.1236 87.9004 67.1572 86.9368C62.032 86.3966 58.5491 83.9328 58.1718 78.631C57.7673 73.511 60.2994 69.838 65.4784 68.8646C70.2589 67.9548 74.8362 69.8693 75.487 74.6027C77.1945 86.9902 87.773 88.8632 97.4919 95.2789L93.676 87.1767C94.0152 86.7238 94.3728 86.2623 94.7071 85.8229C96.8248 86.9678 98.9517 88.1083 103.039 90.2988C99.7819 81.5162 97.1895 74.1682 94.293 66.9409C91.678 60.359 89.1868 53.9442 81.3838 51.0459C76.5617 49.258 75.6155 44.2804 77.8123 39.5363C80.0091 34.7923 84.1232 33.114 89.0322 34.8948C93.9411 36.6757 96.4603 40.732 94.7902 45.5888C92.5913 51.98 94.4496 57.1707 97.4969 62.4441C101.838 69.9609 106.177 77.5233 111.438 86.6587L113.291 75.3679C115.456 78.9825 116.567 80.8383 119 84.8789C120.323 74.7621 121.902 66.5995 122.305 58.382C122.556 53.1679 120.589 47.9154 120.5 42.5792C120.44 39.5069 121.21 35.2769 123.261 33.6459C124.906 32.3522 130.659 33.3635 131.619 35.0424C132.934 37.332 131.759 41.3243 130.997 44.4229C130.235 47.5215 127.741 50.1961 127.677 53.1012C127.417 63.3708 127.9 73.7081 128.096 84.0113L129.727 84.1226L129.69 84.14Z" fill="#89B19D"/>
</mask>
<g mask="url(#mask0_15_17)">
<path d="M134.485 114.432C135.045 115.61 135.242 116.928 135.052 118.218C134.862 119.508 134.293 120.713 133.418 121.68C132.543 122.647 131.401 123.332 130.136 123.649C128.871 123.967 127.54 123.901 126.312 123.462C125.085 123.023 124.015 122.229 123.238 121.181C122.462 120.133 122.014 118.878 121.951 117.576C121.888 116.273 122.213 114.981 122.885 113.863C123.557 112.746 124.545 111.852 125.725 111.297C127.306 110.552 129.118 110.466 130.763 111.057C132.407 111.649 133.749 112.869 134.494 114.45L134.485 114.432Z" fill="#559473"/>
<path d="M110.454 109.491C111.01 110.671 111.203 111.988 111.009 113.278C110.816 114.567 110.244 115.77 109.366 116.734C108.489 117.698 107.345 118.38 106.08 118.694C104.815 119.008 103.485 118.94 102.258 118.498C101.032 118.055 99.9641 117.259 99.1902 116.21C98.4163 115.161 97.971 113.906 97.9107 112.604C97.8504 111.301 98.1777 110.01 98.8513 108.894C99.5248 107.778 100.514 106.887 101.695 106.333C103.275 105.592 105.085 105.508 106.728 106.1C108.37 106.692 109.71 107.912 110.454 109.491V109.491Z" fill="#559473"/>
<path d="M135.918 92.0981C136.473 93.2772 136.667 94.5944 136.473 95.8832C136.28 97.172 135.709 98.3746 134.832 99.3388C133.955 100.303 132.812 100.986 131.547 101.3C130.283 101.615 128.953 101.547 127.727 101.106C126.5 100.665 125.432 99.8704 124.658 98.8223C123.883 97.7743 123.437 96.52 123.375 95.2183C123.313 93.9165 123.639 92.6256 124.311 91.5088C124.982 90.3921 125.97 89.4997 127.149 88.9444C128.73 88.1998 130.542 88.1137 132.187 88.7052C133.831 89.2966 135.174 90.5171 135.918 92.0981V92.0981Z" fill="#559473"/>
<path d="M155.135 117.03C155.691 118.209 155.884 119.526 155.691 120.815C155.497 122.104 154.926 123.306 154.049 124.27C153.173 125.235 152.029 125.917 150.765 126.232C149.5 126.546 148.17 126.479 146.944 126.038C145.718 125.597 144.65 124.802 143.875 123.754C143.1 122.706 142.654 121.452 142.592 120.15C142.53 118.848 142.856 117.557 143.528 116.44C144.2 115.324 145.188 114.431 146.367 113.876C147.948 113.131 149.76 113.045 151.404 113.637C153.049 114.228 154.391 115.449 155.135 117.03V117.03Z" fill="#559473"/>
<path d="M120.671 140.759C121.226 141.938 121.419 143.256 121.226 144.544C121.032 145.833 120.461 147.036 119.584 148C118.708 148.964 117.565 149.647 116.3 149.961C115.035 150.276 113.706 150.208 112.479 149.767C111.253 149.326 110.185 148.531 109.41 147.483C108.636 146.435 108.189 145.181 108.127 143.879C108.066 142.578 108.391 141.287 109.063 140.17C109.735 139.053 110.723 138.161 111.902 137.606C113.483 136.861 115.295 136.775 116.939 137.366C118.584 137.958 119.926 139.178 120.671 140.759V140.759Z" fill="#559473"/>
<path d="M135.658 193.052C136.214 194.231 136.407 195.549 136.213 196.838C136.02 198.127 135.448 199.33 134.571 200.294C133.693 201.259 132.549 201.941 131.284 202.255C130.019 202.569 128.689 202.5 127.462 202.058C126.236 201.616 125.168 200.82 124.394 199.771C123.62 198.722 123.175 197.467 123.115 196.164C123.054 194.862 123.382 193.571 124.055 192.455C124.729 191.339 125.718 190.447 126.899 189.894C128.479 189.152 130.29 189.068 131.932 189.661C133.574 190.253 134.915 191.472 135.658 193.052V193.052Z" fill="#559473"/>
<path d="M193.661 156.027C194.216 157.206 194.41 158.523 194.216 159.812C194.023 161.101 193.452 162.303 192.575 163.268C191.698 164.232 190.555 164.914 189.29 165.229C188.026 165.544 186.696 165.476 185.47 165.035C184.243 164.594 183.175 163.799 182.401 162.751C181.626 161.703 181.18 160.449 181.118 159.147C181.056 157.845 181.382 156.554 182.053 155.438C182.725 154.321 183.713 153.428 184.892 152.873C186.473 152.128 188.285 152.042 189.93 152.634C191.574 153.225 192.916 154.446 193.661 156.027Z" fill="#559473"/>
<path d="M192.775 78.016C193.324 79.1964 193.511 80.5131 193.313 81.7998C193.115 83.0865 192.54 84.2857 191.66 85.2459C190.781 86.2061 189.637 86.8843 188.373 87.1949C187.108 87.5055 185.78 87.4346 184.556 86.9912C183.332 86.5477 182.267 85.7516 181.495 84.7032C180.723 83.6549 180.279 82.4014 180.218 81.1008C180.158 79.8002 180.484 78.511 181.156 77.3958C181.828 76.2805 182.815 75.3893 183.993 74.8346C185.574 74.0899 187.386 74.0039 189.031 74.5953C190.675 75.1868 192.017 76.4073 192.762 77.9883L192.775 78.016Z" fill="#559473"/>
<path d="M81.4297 37.4493C81.987 38.6278 82.1822 39.9452 81.9905 41.2347C81.7988 42.5243 81.229 43.728 80.353 44.6935C79.4771 45.6591 78.3344 46.3431 77.0695 46.659C75.8047 46.9749 74.4746 46.9086 73.2475 46.4683C72.0204 46.028 70.9515 45.2337 70.176 44.1857C69.4005 43.1378 68.9533 41.8834 68.8909 40.5812C68.8286 39.279 69.1539 37.9875 69.8257 36.8703C70.4976 35.7531 71.4857 34.8602 72.6652 34.3047C74.2446 33.5609 76.0547 33.4742 77.698 34.0638C79.3412 34.6534 80.6834 35.871 81.4297 37.4493Z" fill="#559473"/>
</g>
</svg>
