<svg width="1867" height="506" viewBox="0 0 1867 506" fill="none" xmlns="http://www.w3.org/2000/svg">
<mask id="mask0_138_3351" style="mask-type:alpha" maskUnits="userSpaceOnUse" x="-53" y="0" width="1920" height="1920">
<circle cx="907" cy="960" r="960" fill="#C4C4C4"/>
</mask>
<g mask="url(#mask0_138_3351)">
<path d="M907.014 1919.43C1438.56 1919.43 1869.46 1488.47 1869.46 956.846C1869.46 425.225 1438.56 -5.73975 907.014 -5.73975C375.468 -5.73975 -55.4355 425.225 -55.4355 956.846C-55.4355 1488.47 375.468 1919.43 907.014 1919.43Z" fill="url(#paint0_radial_138_3351)"/>
<path d="M1113.37 507.947C1113.37 507.947 1112.33 484.057 1112.65 456.581C1112.65 452.796 1103.56 452.796 1104.65 449.096C1112.13 423.8 1116.12 387.118 1122.97 378.056C1137.31 358.811 1219.18 390.073 1236.01 378.056C1252.85 366.039 1228.79 308.306 1202.35 296.289C1175.91 284.272 1218.35 279.454 1241.6 274.636C1264.86 269.817 1269.68 240.965 1288.92 231.329C1308.16 221.692 1341.83 238.556 1341.83 207.295C1341.83 176.034 1428.4 200.068 1411.57 168.807C1394.73 137.545 1387.51 125.5 1358.66 94.2386C1329.81 62.9774 1334.6 10.0629 1373 0.426399C1411.39 -9.21007 1536.45 62.9774 1536.45 94.2386C1536.45 125.5 1461.89 151.971 1464.3 161.579C1466.71 171.187 1505.19 175.919 1517.21 163.988C1529.22 152.057 1517.21 154.381 1536.45 161.579C1555.69 168.778 1574.93 156.761 1574.93 156.761C1574.93 156.761 1731.25 317.914 1728.84 341.976C1726.43 366.039 1687.97 387.663 1714.5 404.527C1741.02 421.391 1786.65 445.396 1803.39 488.703C1820.14 532.01 1815.41 539.208 1789.06 527.191C1762.7 515.175 1728.84 517.555 1716.91 510.356C1704.98 503.158 1680.92 423.772 1673.75 433.379C1666.58 442.987 1656.92 450.214 1644.9 440.578C1632.89 430.942 1625.66 450.214 1635.3 459.822C1644.93 469.43 1656.92 495.902 1647.31 503.129C1637.71 510.356 1620.84 524.782 1611.24 510.356C1601.63 495.93 1616.05 476.657 1594.4 467.05C1572.75 457.442 1582.39 433.379 1580.07 421.362C1577.74 409.345 1507.92 370.828 1493.49 351.584C1479.07 332.34 1471.27 322.732 1463.13 332.368C1454.98 342.005 1467.03 378.056 1491.08 392.596C1515.14 407.137 1555.86 433.379 1555.86 445.425C1555.86 457.47 1522.2 438.226 1527.02 452.652C1531.83 467.078 1539.03 479.095 1522.2 486.323C1505.37 493.55 1510.18 503.158 1510.18 512.765C1510.18 522.373 1449.96 503.158 1447.64 488.732C1445.32 474.306 1488.53 486.323 1493.35 471.896C1498.17 457.47 1490.48 421.391 1462.98 414.164C1435.48 406.936 1428.4 370.857 1413.98 358.811C1399.55 346.766 1397.14 385.283 1375.49 382.874C1353.84 380.465 1312.98 368.534 1310.57 382.874C1308.16 397.214 1298.55 418.953 1281.69 421.362C1264.83 423.771 1252.85 450.214 1257.66 464.64C1262.48 479.066 1243.33 517.555 1219.18 507.947C1195.03 498.339 1175.88 507.947 1171.09 517.555C1166.3 527.163 1132.61 512.765 1113.37 507.947Z" fill="url(#paint1_radial_138_3351)"/>
<path d="M1844.6 593.987C1830.87 538.979 1723.79 635.803 1693.59 610.249C1663.4 584.695 1623.91 561.493 1605.33 577.726C1586.75 593.958 1593.86 604.8 1586.75 624.933C1579.64 645.066 1558.87 641.969 1531 624.933C1503.13 607.897 1477.55 577.84 1458.97 582.515C1440.39 587.19 1428.77 587.964 1421.69 572.477C1414.61 556.99 1430.98 536.054 1421.69 517.469C1412.4 498.884 1375.23 496.561 1375.23 496.561C1375.23 496.561 1314.84 519.792 1305.55 519.792C1296.26 519.792 1277.68 508.177 1263.74 517.469C1249.81 526.761 1259.1 561.607 1226.46 554.753C1193.83 547.898 1173.01 536.168 1159.08 543.281C1145.14 550.394 1094.27 582.515 1091.95 598.748C1089.62 614.981 1122.14 640.563 1091.95 652.179C1061.75 663.794 1038.52 673.115 1024.59 691.7C1010.65 710.284 987.307 763.715 978.13 770.684C968.954 777.654 966.517 782.3 957.226 791.592C947.935 800.884 936.321 821.792 957.226 831.085C978.13 840.377 975.808 872.9 971.162 879.84C966.517 886.781 950.257 903.071 954.903 914.687C959.548 926.302 947.734 935.594 945.497 947.21C943.261 958.825 959.548 993.7 966.517 1005.32C973.485 1016.93 1012.97 1009.96 1017.62 1040.16C1022.26 1070.36 1024.59 1098.24 1061.75 1116.82C1098.91 1135.41 1091.63 1156.32 1104.56 1163.28C1117.5 1170.25 1152.34 1121.47 1180.21 1133.08C1208.08 1144.7 1222.05 1149.35 1235.98 1137.73C1249.92 1126.12 1275.47 1112.18 1275.47 1112.18C1275.47 1112.18 1335.86 1095.92 1356.77 1116.82C1377.67 1137.73 1326.57 1142.38 1349.8 1154.11C1373.03 1165.84 1405.54 1146.19 1410.19 1164.09C1414.84 1181.98 1412.51 1214.51 1407.87 1233.09C1403.22 1251.68 1431.1 1284.23 1438.06 1293.52C1445.03 1302.81 1493.81 1416.64 1486.81 1430.58C1479.82 1444.52 1472.88 1490.98 1447.33 1537.44C1421.78 1583.91 1528.68 1669.8 1521.77 1690.71C1514.86 1711.62 1479.93 1792.92 1498.51 1809.19C1498.45 1809.19 2059.1 1453.44 1844.6 593.987Z" fill="url(#paint2_radial_138_3351)"/>
<path d="M281.306 26.2671C327.99 41.2381 361.599 50.7311 415.452 40.4637C469.305 30.1963 506.383 -4.82196 519.201 20.6172C532.019 46.0563 612.713 30.5978 634.306 18.5236C655.899 6.44928 679.156 3.17973 696.619 11.1814C714.083 19.1832 667.226 44.1061 665.276 76.3137C663.326 108.521 618.821 125.07 585.701 139.41C552.58 153.75 520.778 179.705 523.445 191.034C526.112 202.362 442.923 329.902 417.832 302.885C392.741 275.869 368.223 272.542 382.303 241.969C396.382 211.396 422.879 162.497 398.504 139.266C374.13 116.035 318.499 74.9083 296.017 103.101C273.535 131.293 261.262 129.658 242.938 117.24C224.614 104.822 281.306 26.2671 281.306 26.2671Z" fill="url(#paint3_radial_138_3351)"/>
<path d="M203.767 135.767C246.78 157.736 242.852 182.229 275.973 197.458C309.093 212.687 314.025 216.042 313.538 224.79C313.05 233.537 272.876 223.929 272.617 252.007C272.359 280.085 275.944 298.841 257.706 293.708C239.468 288.574 145.87 261.185 128.263 270.993C110.656 280.802 116.965 211.941 116.965 211.941C116.965 211.941 150.057 249.569 174.144 251.433C198.232 253.298 280.647 233.222 246.264 222.553C211.882 211.884 240.529 189.054 174.202 192.066" fill="url(#paint4_radial_138_3351)"/>
<path d="M36.0123 339.309C58.0928 344.816 77.5637 420.904 96.2317 417.319C114.9 413.734 135.661 319.004 162.186 314.071C188.712 309.138 239.984 365.695 256.014 347.97C272.044 330.246 278.438 312.952 296.504 348.315C314.57 383.677 363.377 421.276 353.082 429.708C342.787 438.14 299.056 454.603 293.78 452.394C288.504 450.186 216.011 434.899 204.053 448.522C192.095 462.145 182.948 473.445 201.845 470.721C220.743 467.996 232.958 455.778 234.622 464.44C236.285 473.101 279.356 461.572 283.686 467.308C288.016 473.044 308.462 520.825 290.109 517.87C271.757 514.916 248.673 490.194 227.395 495.873C206.118 501.552 203.279 503.731 188.511 519.505C173.743 535.279 145.325 589.14 145.325 589.14C145.325 589.14 80.8901 582.056 87.5716 600.182C94.2531 618.308 60.2721 660.41 62.6522 672.886C65.0323 685.362 70.4808 781.411 56.7163 785.655C42.9519 789.9 3.78061 745.503 -40.7818 749.289C-85.3441 753.075 -120.673 593.987 -120.673 593.987L36.0123 339.309Z" fill="url(#paint5_radial_138_3351)"/>
<path style="mix-blend-mode:screen" d="M885.622 465.73C872.844 455.15 863.925 440.639 860.255 424.459C856.585 408.279 858.37 391.339 865.333 376.28C872.295 361.22 884.043 348.888 898.746 341.205C913.448 333.521 930.28 330.919 946.616 333.802C945.771 310.543 952.914 287.696 966.855 269.06C980.796 250.424 1000.7 237.123 1023.24 231.368C1045.79 225.614 1069.63 227.753 1090.8 237.43C1111.96 247.107 1129.17 263.739 1139.58 284.559C1162.45 279.182 1186.46 281.568 1207.83 291.342C1229.2 301.116 1246.71 317.722 1257.6 338.544C1268.5 359.366 1272.16 383.221 1268 406.351C1263.85 429.482 1252.12 450.574 1234.67 466.304L885.622 465.73Z" fill="url(#paint6_linear_138_3351)"/>
</g>
<defs>
<radialGradient id="paint0_radial_138_3351" cx="0" cy="0" r="1" gradientUnits="userSpaceOnUse" gradientTransform="translate(749.239 649.827) scale(1159.11 1159.27)">
<stop offset="0.02" stop-color="#75E9FC"/>
<stop offset="1" stop-color="#3377AF"/>
</radialGradient>
<radialGradient id="paint1_radial_138_3351" cx="0" cy="0" r="1" gradientUnits="userSpaceOnUse" gradientTransform="translate(788.439 744.069) scale(1030.56 1030.7)">
<stop offset="0.01" stop-color="#C1F880"/>
<stop offset="1" stop-color="#55C59D"/>
</radialGradient>
<radialGradient id="paint2_radial_138_3351" cx="0" cy="0" r="1" gradientUnits="userSpaceOnUse" gradientTransform="translate(788.439 744.069) scale(1030.55 1030.7)">
<stop offset="0.01" stop-color="#C1F880"/>
<stop offset="1" stop-color="#55C59D"/>
</radialGradient>
<radialGradient id="paint3_radial_138_3351" cx="0" cy="0" r="1" gradientUnits="userSpaceOnUse" gradientTransform="translate(788.439 744.069) scale(1030.55 1030.7)">
<stop offset="0.01" stop-color="#C1F880"/>
<stop offset="1" stop-color="#55C59D"/>
</radialGradient>
<radialGradient id="paint4_radial_138_3351" cx="0" cy="0" r="1" gradientUnits="userSpaceOnUse" gradientTransform="translate(788.44 744.069) scale(1030.55 1030.7)">
<stop offset="0.01" stop-color="#C1F880"/>
<stop offset="1" stop-color="#55C59D"/>
</radialGradient>
<radialGradient id="paint5_radial_138_3351" cx="0" cy="0" r="1" gradientUnits="userSpaceOnUse" gradientTransform="translate(788.439 744.069) scale(1030.55 1030.7)">
<stop offset="0.01" stop-color="#C1F880"/>
<stop offset="1" stop-color="#55C59D"/>
</radialGradient>
<linearGradient id="paint6_linear_138_3351" x1="990.917" y1="339.928" x2="1252.07" y2="530.121" gradientUnits="userSpaceOnUse">
<stop offset="0.01" stop-color="#E7F4FC"/>
<stop offset="1" stop-color="#7999AA"/>
</linearGradient>
</defs>
</svg>
