<svg width="768" height="794" viewBox="0 0 768 794" fill="none" xmlns="http://www.w3.org/2000/svg">
<path d="M419.799 272.337L433.539 251.764L439.196 253.254L439.587 275.515C441.053 276.537 442.518 277.56 444.013 278.568C463.214 249.011 483.113 219.854 501.163 189.71C504.633 183.849 501.574 173.484 500.022 165.47C495.381 141.458 504.418 123.975 525.223 118.403C543.298 113.534 564.052 125.185 568.798 142.844C574.223 163.645 561.866 179.959 538.386 188.904C527.273 193.081 515.189 201.541 509.277 211.503C493.218 238.524 480.256 267.402 466.058 295.513L471.133 298.552L493.139 285.164C494.443 286.153 495.717 287.156 496.991 288.159L486.162 314.138C515.836 298.231 545.612 294.301 558.194 262.76C564.462 247.055 578.942 242.058 594.56 247.6C610.179 253.143 616.95 266.205 612.995 282.643C609.273 297.95 597.323 308.242 582.514 304.03C543.782 293.122 526.92 322.926 504.197 343.611L531.521 342.366C532.335 344.096 533.15 345.825 533.965 347.555L508.472 365.61C558.286 362.371 602.485 375.988 645.409 353.477C652.455 349.794 667.503 352.655 673.447 358.236C678.236 362.757 678.529 378.542 674.201 384.516C669.872 390.49 653.536 395.414 648.986 392.019C620.858 370.979 591.116 384.112 562.305 385.912C545.31 387.284 528.741 391.932 513.513 399.6L537.342 409.037L538.275 414.5L514.53 419.708C535.437 444.294 561.125 452.418 591.033 442.887C609.914 436.946 627.132 444.104 635.234 461.385C639.147 469.841 639.684 479.471 636.736 488.308C633.788 497.146 627.576 504.525 619.371 508.937C604.1 516.821 579.948 512.346 573.346 495.233C559.2 458.389 526.032 459.217 490.973 446.98C500.985 459.572 506.786 466.86 512.616 474.135L508.951 479.504L480.826 467.754C488.894 481.481 494.007 491.717 500.543 500.954C515.129 521.558 529.214 542.799 546.012 561.523C555.27 571.002 566.948 577.763 579.778 581.073C598.33 586.036 608.598 595.848 607.302 614.604C606.125 631.445 595.198 641.511 578.268 640.921C559.144 640.236 551.289 628.122 548.366 609.458C546.395 596.686 542.143 582.474 534.187 572.776C510.778 544.194 485.039 517.548 460.202 490.111L454.943 493.645C456.627 501.706 458.34 509.753 460.037 517.845L455.599 520.955C449.639 514.799 443.663 508.686 433.556 498.289C438.16 533.286 430.566 565.283 460.862 588.144C463.763 590.166 466.165 592.823 467.886 595.913C469.606 599.003 470.6 602.444 470.791 605.975C470.982 609.506 470.366 613.035 468.99 616.292C467.614 619.55 465.513 622.451 462.847 624.775C454.356 632.199 436.008 637.416 427.437 633.144C418.867 628.873 408.898 606.933 412.709 600.401C432.087 567.044 412.608 540.073 401.275 510.285C398.749 517.997 396.267 525.725 393.92 533.352L388.518 534.184C385.94 525.305 383.332 516.44 378.869 501.162C368.339 531.955 350.613 553.967 355.725 584.935C357.029 592.811 348.275 605.788 340.525 610.531C335.722 613.486 319.286 607.599 316.752 601.833C313.464 594.309 315.249 578.602 320.928 574.105C345.796 554.414 341.729 526.669 348.67 494.834L328.132 515.438L322.878 513.722L330.296 479.184C308.397 498.06 290.555 512.476 273.922 528.143C255.236 545.797 235.747 561.899 240.922 593.931C243.856 612.152 227.404 623.872 208.323 625.754C199.3 626.476 190.348 623.672 183.349 617.93C176.35 612.189 171.851 603.957 170.795 594.967C168.665 575.821 177.152 556.629 195.173 556.595C233.412 556.477 249.098 529.049 269.181 505.854C280.12 493.414 289.878 479.783 303.086 463.032L276.002 468.5C275.159 466.711 274.316 464.921 273.488 463.162L294.708 440.524C260.293 444.818 229.634 446.796 204.909 467.331C193.539 476.766 182.637 483.868 171.182 473.085C168.127 469.618 165.924 465.485 164.749 461.015C163.574 456.546 163.46 451.864 164.414 447.342C169.305 432.504 182.212 431.672 196.715 435.773C227.679 444.656 249.463 422.518 275.099 413.432C275.577 410.656 276.1 407.823 276.459 405.103L252.56 407.432L254.343 398.066L277.8 388.84L278.638 382.033C242.916 375.427 207.561 367.666 171.85 362.476C164.649 361.423 156.036 370.289 148.019 374.465C140.103 378.498 131.002 379.552 122.374 377.435C113.746 375.319 106.166 370.173 101.014 362.935C96.0176 355.54 93.9521 346.55 95.2201 337.715C96.4881 328.88 100.999 320.834 107.874 315.142C122.603 303.323 145.556 302.314 155.162 318.377C172.64 347.675 199.604 349.843 228.205 351.385C245.466 352.292 262.664 353.374 280.839 350.498L263.597 338.105L264.422 332.506L289.32 332.84C278.091 307.449 246.69 284.489 217.714 281.375C201.151 279.629 189.895 271.667 188.676 254.533C187.369 237.987 195.552 226.117 212.289 222.971C227.738 220.031 242.53 226.218 244.633 241.515C250.151 281.547 284.338 287.6 315.746 308.334L303.414 282.15C304.51 280.687 305.666 279.195 306.746 277.775C313.59 281.475 320.464 285.161 333.672 292.24C323.147 263.857 314.769 240.111 305.408 216.754C296.957 195.484 288.907 174.753 263.69 165.387C248.106 159.609 245.049 143.523 252.148 128.192C259.247 112.86 272.543 107.437 288.407 113.192C304.271 118.947 312.412 132.056 307.015 147.751C299.909 168.406 305.914 185.18 315.762 202.222C329.79 226.514 343.814 250.953 360.816 280.476L366.805 243.988C373.8 255.669 377.39 261.666 385.252 274.725C389.53 242.03 394.633 215.651 395.935 189.095C396.744 172.244 390.389 155.27 390.102 138.025C389.907 128.096 392.396 114.426 399.023 109.156C404.341 104.975 422.933 108.243 426.035 113.669C430.285 121.068 426.487 133.97 424.025 143.983C421.563 153.997 413.5 162.64 413.294 172.029C412.455 205.217 414.015 238.624 414.648 271.921L419.918 272.28L419.799 272.337Z" fill="#89B19D"/>
<mask id="mask0_1_17" style="mask-type:alpha" maskUnits="userSpaceOnUse" x="94" y="107" width="584" height="534">
<path d="M419.858 272.309L433.598 251.737L439.255 253.226L439.646 275.487C441.112 276.509 442.577 277.532 444.072 278.54C463.273 248.983 483.172 219.826 501.222 189.682C504.692 183.821 501.633 173.456 500.081 165.442C495.44 141.43 504.477 123.947 525.282 118.375C543.357 113.506 564.111 125.157 568.857 142.816C574.282 163.618 561.925 179.931 538.445 188.876C527.332 193.053 515.248 201.514 509.336 211.476C493.277 238.496 480.315 267.374 466.117 295.485L471.192 298.524L493.198 285.136C494.502 286.125 495.776 287.128 497.05 288.132L486.221 314.11C515.895 298.204 545.671 294.273 558.253 262.732C564.521 247.028 579.001 242.03 594.619 247.573C610.238 253.116 617.009 266.177 613.054 282.615C609.332 297.922 597.382 308.214 582.573 304.003C543.841 293.095 526.979 322.898 504.256 343.584L531.58 342.338C532.394 344.068 533.209 345.798 534.024 347.527L508.531 365.582C558.346 362.344 602.544 375.961 645.468 353.45C652.514 349.766 667.562 352.627 673.506 358.208C678.295 362.729 678.588 378.515 674.26 384.488C669.931 390.462 653.595 395.386 649.045 391.991C620.917 370.951 591.175 384.084 562.364 385.884C545.369 387.257 528.8 391.905 513.572 399.572L537.401 409.009L538.334 414.472L514.589 419.68C535.496 444.266 561.184 452.39 591.092 442.86C609.974 436.918 627.191 444.077 635.293 461.358C639.206 469.813 639.743 479.443 636.795 488.281C633.847 497.118 627.635 504.497 619.43 508.909C604.159 516.794 580.007 512.318 573.405 495.205C559.259 458.362 526.091 459.189 491.032 446.952C501.044 459.545 506.845 466.833 512.675 474.107L509.01 479.477L480.886 467.727C488.953 481.453 494.066 491.689 500.602 500.926C515.188 521.53 529.273 542.771 546.071 561.495C555.329 570.974 567.007 577.736 579.837 581.045C598.389 586.008 608.658 595.82 607.362 614.576C606.184 631.418 595.257 641.483 578.327 640.893C559.203 640.208 551.348 628.094 548.425 609.431C546.454 596.658 542.202 582.447 534.246 572.748C510.837 544.166 485.098 517.52 460.261 490.084L455.002 493.617C456.686 501.678 458.399 509.726 460.096 517.817L455.658 520.927C449.698 514.771 443.722 508.658 433.615 498.261C438.219 533.258 430.625 565.255 460.921 588.116C463.822 590.138 466.224 592.795 467.945 595.885C469.665 598.975 470.659 602.416 470.85 605.947C471.041 609.479 470.425 613.007 469.049 616.265C467.673 619.522 465.572 622.423 462.907 624.747C454.415 632.171 436.067 637.388 427.496 633.117C418.926 628.845 408.957 606.905 412.768 600.374C432.146 567.016 412.667 540.045 401.334 510.257C398.808 517.969 396.326 525.697 393.979 533.324L388.577 534.156C385.999 525.277 383.391 516.412 378.928 501.134C368.398 531.927 350.672 553.939 355.784 584.908C357.088 592.783 348.334 605.76 340.584 610.503C335.781 613.458 319.345 607.571 316.811 601.805C313.523 594.281 315.308 578.574 320.987 574.077C345.855 554.386 341.788 526.642 348.729 494.806L328.191 515.41L322.937 513.694L330.355 479.156C308.456 498.033 290.614 512.448 273.981 528.115C255.296 545.77 235.806 561.871 240.981 593.903C243.915 612.125 227.463 623.844 208.382 625.726C199.359 626.448 190.407 623.644 183.408 617.902C176.409 612.161 171.91 603.93 170.855 594.939C168.724 575.793 177.212 556.601 195.232 556.568C233.471 556.449 249.157 529.021 269.24 505.826C280.179 493.387 289.937 479.755 303.145 463.004L276.061 468.472C275.218 466.683 274.375 464.894 273.547 463.134L294.767 440.496C260.352 444.79 229.693 446.768 204.968 467.303C193.598 476.739 182.696 483.841 171.242 473.058C168.186 469.59 165.983 465.457 164.808 460.988C163.633 456.518 163.519 451.836 164.474 447.314C169.364 432.477 182.272 431.645 196.774 435.746C227.738 444.628 249.522 422.49 275.158 413.404C275.636 410.629 276.16 407.795 276.518 405.075L252.619 407.404L254.403 398.038L277.859 388.812L278.697 382.005C242.976 375.4 207.62 367.638 171.909 362.449C164.708 361.395 156.095 370.261 148.078 374.438C140.162 378.47 131.061 379.524 122.433 377.408C113.805 375.291 106.225 370.145 101.073 362.907C96.0767 355.512 94.0112 346.522 95.2792 337.687C96.5471 328.853 101.058 320.806 107.933 315.115C122.662 303.295 145.615 302.286 155.221 318.349C172.699 347.648 199.663 349.815 228.264 351.357C245.525 352.264 262.723 353.346 280.898 350.471L263.657 338.077L264.481 332.478L289.379 332.812C278.15 307.421 246.749 284.461 217.773 281.347C201.21 279.601 189.954 271.639 188.735 254.505C187.428 237.959 195.611 226.089 212.348 222.943C227.797 220.003 242.589 226.19 244.692 241.487C250.21 281.52 284.397 287.573 315.805 308.306L303.473 282.122C304.569 280.659 305.725 279.167 306.806 277.747C313.649 281.447 320.523 285.133 333.731 292.212C323.206 263.829 314.828 240.083 305.467 216.727C297.016 195.456 288.966 174.725 263.749 165.359C248.165 159.581 245.108 143.495 252.207 128.164C259.306 112.833 272.602 107.409 288.466 113.164C304.33 118.919 312.471 132.028 307.074 147.723C299.968 168.378 305.973 185.152 315.821 202.194C329.849 226.486 343.873 250.926 360.875 280.449L366.864 243.96C373.859 255.641 377.449 261.639 385.311 274.697C389.589 242.002 394.692 215.624 395.994 189.067C396.803 172.217 390.448 155.242 390.161 137.997C389.966 128.069 392.455 114.399 399.082 109.128C404.4 104.947 422.992 108.215 426.094 113.641C430.344 121.04 426.546 133.942 424.084 143.956C421.622 153.969 413.559 162.613 413.353 172.001C412.514 205.189 414.074 238.596 414.707 271.893L419.978 272.253L419.858 272.309Z" fill="#89B19D"/>
</mask>
<g mask="url(#mask0_1_17)">
<path d="M435.356 370.203C437.164 374.01 437.801 378.268 437.187 382.438C436.573 386.607 434.736 390.501 431.908 393.625C429.08 396.75 425.388 398.965 421.3 399.991C417.212 401.016 412.912 400.805 408.944 399.385C404.976 397.965 401.518 395.399 399.009 392.013C396.5 388.627 395.053 384.572 394.85 380.362C394.646 376.153 395.697 371.977 397.868 368.365C400.039 364.753 403.233 361.866 407.046 360.071C412.156 357.664 418.012 357.386 423.326 359.298C428.641 361.209 432.978 365.153 435.384 370.262L435.356 370.203Z" fill="#559473"/>
<path d="M357.696 354.237C359.491 358.048 360.115 362.306 359.489 366.473C358.863 370.639 357.016 374.526 354.18 377.642C351.345 380.758 347.648 382.963 343.559 383.978C339.47 384.992 335.172 384.771 331.208 383.342C327.245 381.913 323.795 379.341 321.294 375.95C318.793 372.56 317.354 368.504 317.159 364.295C316.964 360.086 318.022 355.915 320.199 352.307C322.375 348.7 325.573 345.82 329.387 344.031C334.495 341.635 340.345 341.364 345.653 343.277C350.961 345.191 355.292 349.132 357.696 354.237V354.237Z" fill="#559473"/>
<path d="M439.987 298.027C441.782 301.837 442.406 306.094 441.781 310.259C441.156 314.424 439.31 318.31 436.477 321.427C433.643 324.543 429.95 326.748 425.862 327.765C421.775 328.782 417.478 328.564 413.515 327.138C409.552 325.713 406.101 323.144 403.597 319.757C401.094 316.37 399.651 312.317 399.451 308.11C399.252 303.903 400.304 299.731 402.475 296.123C404.646 292.514 407.839 289.629 411.649 287.835C416.758 285.429 422.614 285.151 427.929 287.062C433.243 288.973 437.581 292.917 439.987 298.027V298.027Z" fill="#559473"/>
<path d="M502.091 378.599C503.886 382.409 504.51 386.666 503.885 390.831C503.261 394.996 501.415 398.882 498.581 401.998C495.748 405.114 492.054 407.32 487.967 408.337C483.88 409.354 479.583 409.135 475.62 407.71C471.656 406.285 468.205 403.716 465.701 400.329C463.198 396.942 461.755 392.889 461.556 388.682C461.356 384.475 462.408 380.303 464.579 376.694C466.75 373.085 469.943 370.201 473.753 368.407C478.863 366 484.719 365.722 490.033 367.634C495.348 369.545 499.685 373.489 502.091 378.599V378.599Z" fill="#559473"/>
<path d="M390.712 455.285C392.506 459.096 393.131 463.352 392.506 467.517C391.881 471.683 390.035 475.569 387.202 478.685C384.368 481.801 380.674 484.007 376.587 485.023C372.5 486.04 368.203 485.822 364.24 484.397C360.277 482.971 356.825 480.403 354.322 477.016C351.818 473.629 350.376 469.576 350.176 465.369C349.976 461.162 351.028 456.99 353.199 453.381C355.371 449.772 358.563 446.888 362.373 445.093C367.483 442.687 373.339 442.409 378.653 444.32C383.968 446.232 388.305 450.176 390.712 455.285V455.285Z" fill="#559473"/>
<path d="M439.147 624.278C440.942 628.089 441.566 632.347 440.941 636.514C440.315 640.68 438.467 644.567 435.632 647.683C432.796 650.799 429.1 653.004 425.011 654.019C420.921 655.033 416.623 654.812 412.66 653.383C408.697 651.954 405.246 649.382 402.745 645.991C400.244 642.601 398.805 638.545 398.61 634.336C398.415 630.127 399.473 625.956 401.65 622.348C403.827 618.741 407.025 615.861 410.839 614.072C415.947 611.676 421.797 611.405 427.104 613.318C432.412 615.232 436.743 619.173 439.147 624.278V624.278Z" fill="#559473"/>
<path d="M626.594 504.624C628.389 508.435 629.013 512.692 628.388 516.857C627.763 521.022 625.917 524.908 623.084 528.024C620.25 531.14 616.557 533.346 612.469 534.363C608.382 535.379 604.085 535.161 600.122 533.736C596.159 532.31 592.708 529.742 590.204 526.355C587.701 522.968 586.258 518.915 586.058 514.708C585.858 510.501 586.911 506.329 589.082 502.72C591.253 499.111 594.446 496.227 598.256 494.433C603.365 492.026 609.221 491.748 614.536 493.659C619.85 495.571 624.188 499.515 626.594 504.624Z" fill="#559473"/>
<path d="M623.73 252.518C625.505 256.333 626.11 260.588 625.469 264.746C624.828 268.905 622.969 272.78 620.128 275.883C617.286 278.986 613.589 281.178 609.503 282.182C605.418 283.185 601.126 282.956 597.17 281.523C593.214 280.09 589.771 277.517 587.276 274.129C584.781 270.741 583.346 266.69 583.151 262.487C582.956 258.284 584.011 254.118 586.182 250.514C588.353 246.91 591.543 244.03 595.35 242.237C600.459 239.83 606.315 239.552 611.63 241.464C616.944 243.375 621.281 247.319 623.688 252.429L623.73 252.518Z" fill="#559473"/>
<path d="M263.897 121.419C265.698 125.228 266.329 129.485 265.709 133.653C265.09 137.82 263.249 141.71 260.418 144.83C257.587 147.951 253.894 150.161 249.807 151.182C245.719 152.203 241.42 151.989 237.455 150.566C233.489 149.143 230.035 146.576 227.529 143.19C225.022 139.803 223.577 135.749 223.376 131.541C223.174 127.332 224.226 123.159 226.397 119.548C228.568 115.938 231.761 113.052 235.573 111.257C240.677 108.853 246.527 108.573 251.837 110.479C257.148 112.384 261.485 116.319 263.897 121.419Z" fill="#559473"/>
</g>
</svg>
