<svg width="1323" height="1297" viewBox="0 0 1323 1297" fill="none" xmlns="http://www.w3.org/2000/svg">
<g clip-path="url(#clip0_1_65)">
<path d="M579.948 860.797L556.651 790.945L805.025 709.299L828.333 779.138L579.948 860.797Z" fill="#E4E4E4"/>
<path d="M461.667 861.852L461.4 861.05C454.054 839.011 461.49 816.693 478.015 811.185L666.538 746.769L695.957 828.979L504.9 891.766C488.363 897.288 469.013 883.891 461.667 861.852Z" fill="#355E48"/>
<g style="mix-blend-mode:multiply" opacity="0.2">
<path d="M788 715.3L775.156 718.576L732.791 809.311L823.968 779.92L788 715.3Z" fill="#5C5C5C"/>
</g>
<path d="M1075.59 894.648C1117.17 880.793 1153.7 854.918 1180.57 820.297C1207.43 785.676 1223.43 743.863 1226.53 700.145C1229.62 656.428 1219.69 612.77 1197.98 574.692C1176.26 536.614 1143.75 505.827 1104.54 486.224C1065.33 466.621 1021.19 459.082 977.71 464.561C934.225 470.04 893.345 488.29 860.24 517.005C827.134 545.719 803.29 583.607 791.723 625.878C780.156 668.149 781.386 712.904 795.256 754.484C804.463 782.091 819.018 807.616 838.089 829.602C857.16 851.587 880.374 869.602 906.406 882.618C932.438 895.633 960.777 903.395 989.805 905.459C1018.83 907.523 1047.98 903.85 1075.59 894.648V894.648ZM824.641 744.667C812.717 708.897 811.666 670.397 821.623 634.036C831.58 597.675 852.097 565.086 880.579 540.39C909.062 515.694 944.231 500 981.638 495.293C1019.05 490.585 1057.01 497.076 1090.74 513.944C1124.46 530.813 1152.43 557.3 1171.1 590.059C1189.78 622.817 1198.32 660.374 1195.65 697.981C1192.98 735.587 1179.22 771.555 1156.1 801.335C1132.99 831.114 1101.56 853.369 1065.79 865.284C1017.83 881.253 965.476 877.517 920.254 854.898C875.032 832.279 840.64 792.629 824.641 744.667V744.667Z" fill="#355E48" stroke="#355E48" stroke-width="4" stroke-miterlimit="10"/>
<path opacity="0.5" d="M815.699 702.385C825.648 807.197 918.683 884.122 1023.5 874.203C1128.31 864.283 1205.22 771.274 1195.27 666.462C1185.32 561.651 1092.28 484.725 987.468 494.645C882.653 504.565 805.75 597.573 815.699 702.385Z" fill="#C8E7F5"/>
<g opacity="0.22">
<path opacity="0.22" d="M1098.96 583.408C1146.37 621.476 1163.6 686.979 1139.23 742.895C1114.87 798.811 1054.44 831.386 994.359 821.628C977.421 818.893 971.94 844.919 988.883 847.704C1022.62 853.209 1057.24 847.959 1087.83 832.698C1118.41 817.437 1143.42 792.939 1159.31 762.674C1191.26 701.535 1178.26 626.18 1131.15 576.723C1126.57 571.993 1121.68 567.573 1116.52 563.49C1103.16 552.796 1085.51 572.709 1098.94 583.511L1098.96 583.408Z" fill="white"/>
</g>
<path opacity="0.31" d="M928.515 809.758C923.377 817.965 925.865 828.786 934.074 833.927C942.283 839.068 953.103 836.582 958.242 828.375C963.381 820.168 960.893 809.348 952.684 804.207C944.475 799.066 933.654 801.551 928.515 809.758Z" fill="white"/>
<path d="M667.003 750.058L694.989 828.295C695.455 829.59 696.384 830.667 697.597 831.318C698.809 831.969 700.22 832.148 701.557 831.821L702.451 831.584C703.21 831.397 703.922 831.053 704.539 830.573C705.156 830.093 705.664 829.487 706.031 828.797C706.398 828.106 706.615 827.346 706.667 826.566C706.72 825.786 706.607 825.003 706.336 824.27L677.594 746.244C677.341 745.548 676.951 744.91 676.447 744.367C675.943 743.824 675.336 743.387 674.661 743.082C673.986 742.778 673.257 742.611 672.517 742.592C671.776 742.573 671.04 742.703 670.35 742.973L670.282 743.056C668.932 743.567 667.835 744.585 667.223 745.892C666.611 747.199 666.532 748.693 667.003 750.058Z" fill="#355E48"/>
<path d="M885.927 826.852C850.756 797.763 827.313 756.919 819.939 711.882C812.564 666.846 821.758 620.667 845.818 581.896C869.955 542.527 908.97 513.531 953.068 500.427C985.718 490.869 1020.35 490.316 1053.29 498.826C1086.23 507.336 1116.27 524.593 1140.21 548.769C1164.15 572.946 1181.12 603.144 1189.31 636.167C1197.5 669.191 1196.61 703.811 1186.73 736.364C1172.96 780.998 1143.3 819.027 1103.35 843.244C1065.15 866.477 1018.85 874.739 974.851 867.543C942.155 862.014 911.487 847.981 885.927 826.852C880.888 822.685 874.417 830.511 879.468 834.664C914.528 863.616 958.445 879.688 1003.91 880.205C1049.37 880.722 1093.63 865.652 1129.32 837.504C1156.3 816.216 1177.3 788.294 1190.27 756.465C1203.24 724.635 1207.73 689.986 1203.31 655.897C1198.89 621.809 1185.7 589.447 1165.04 561.969C1144.39 534.492 1116.96 512.838 1085.43 499.12C1054.23 485.546 1020.08 480.204 986.227 483.603C952.378 487.003 919.969 499.031 892.102 518.537C864.235 538.043 841.842 564.375 827.064 595.013C812.287 625.651 805.62 659.57 807.7 693.526C809.434 720.681 816.693 747.198 829.032 771.454C841.371 795.71 858.531 817.193 879.461 834.588C884.509 838.856 890.969 831.044 885.927 826.852Z" fill="#DEDAE8"/>
<path d="M446.16 814.964C456.092 832.47 478.145 864.16 488.247 880.251C530.46 898.214 604.205 924.286 606.607 922.647C620.636 913.101 633.23 904.645 647.198 895.117C647.843 894.674 632.13 875.501 632.775 875.058C633.42 874.616 637.203 877.604 641.61 881.016L667.975 898.748C668.994 899.531 670.239 899.965 671.524 899.986C672.809 900.006 674.067 899.612 675.11 898.862C683.086 893.095 699.901 880.321 699.326 878.683C699.115 878.067 679.108 859.224 673.997 853.092L677.568 851.584L719.879 880.758C719.879 880.758 749.446 859.055 748.635 857.478C747.655 855.599 719.208 821.83 719.208 821.83C719.208 821.83 648.104 745.167 643.381 739.241C636.558 730.625 633.663 718.889 624.704 712.829C614.698 706.067 602.753 702.999 591.077 700.084L506.035 678.566C490.483 669.263 456.975 645.298 440.751 637.229C418.403 678.96 394.151 719.395 373.912 769.679C373.262 771.14 441.883 807.43 446.16 814.964Z" fill="#F6C5B0"/>
<path d="M396.806 584.393L476.261 636.171L410.991 822.948L301.914 774.611L385.942 576.224L396.806 584.393Z" fill="#F6F6F6"/>
<path d="M343.017 817.868C343.017 817.868 380.56 601.286 397.746 564.28L206.764 392.238L-0.000501622 642.303L343.017 817.868Z" fill="#497F60"/>
<path d="M421.545 642.1C420.328 640.395 419.644 638.368 419.58 636.276C419.515 634.183 420.072 632.118 421.181 630.342C422.29 628.567 423.901 627.16 425.81 626.3C427.718 625.44 429.84 625.165 431.905 625.511C433.97 625.856 435.887 626.806 437.412 628.241C438.938 629.676 440.003 631.531 440.475 633.571C440.946 635.611 440.802 637.745 440.06 639.703C439.319 641.66 438.013 643.354 436.309 644.57C435.178 645.379 433.899 645.957 432.544 646.271C431.19 646.585 429.787 646.628 428.415 646.398C427.044 646.169 425.731 645.671 424.552 644.933C423.373 644.196 422.351 643.233 421.545 642.1Z" fill="#355E48"/>
<path d="M628.871 702.448L674.725 708.248L723.27 701.91C723.27 701.91 743.213 709.361 729.33 727.022C715.447 744.684 691.324 744.397 673.552 742.53C665.715 741.719 637.557 745.835 618.115 751.046C592.658 757.882 555.225 697.79 555.225 697.79C555.225 697.79 624.413 701.992 628.871 702.448Z" fill="#F6C5B0"/>
</g>
<defs>
<clipPath id="clip0_1_65">
<rect width="833.429" height="1026.97" fill="white" transform="translate(1322.55 654.418) rotate(129.585)"/>
</clipPath>
</defs>
</svg>
