<svg width="422" height="355" viewBox="0 0 422 355" fill="none" xmlns="http://www.w3.org/2000/svg">
<path d="M235.515 264.159L211.279 251.293L257.335 165.441L281.57 178.301L235.515 264.159Z" fill="#E4E4E4"/>
<path d="M203.863 294.835L203.585 294.687C195.94 290.627 192.212 282.693 195.257 276.96L229.586 211.136L258.649 225.765L223.217 291.8C220.173 297.539 211.509 298.896 203.863 294.835Z" fill="#355E48"/>
<g style="mix-blend-mode:multiply" opacity="0.2">
<path d="M254.282 171.434L251.658 175.618L263.537 210.992L280.593 179.633L254.282 171.434Z" fill="#5C5C5C"/>
</g>
<path d="M377.981 145.945C385.642 131.523 388.854 115.153 387.209 98.9057C385.565 82.6587 379.138 67.2643 368.742 54.6693C358.345 42.0743 344.446 32.8443 328.802 28.1466C313.158 23.4489 296.472 23.4945 280.854 28.2776C265.235 33.0607 251.386 42.3665 241.058 55.0182C230.73 67.6699 224.386 83.0991 222.829 99.3549C221.272 115.611 224.572 131.963 232.311 146.343C240.05 160.724 251.881 172.487 266.308 180.145C275.887 185.23 286.373 188.379 297.169 189.413C307.965 190.446 318.859 189.344 329.229 186.168C339.599 182.992 349.242 177.805 357.606 170.904C365.971 164.002 372.894 155.521 377.981 145.945V145.945ZM271.717 169.945C259.308 163.355 249.132 153.234 242.477 140.863C235.822 128.491 232.985 114.424 234.327 100.44C235.669 86.4568 241.128 73.185 250.015 62.303C258.901 51.421 270.816 43.4177 284.252 39.3051C297.688 35.1924 312.042 35.1552 325.498 39.1981C338.955 43.241 350.911 51.1824 359.853 62.0181C368.795 72.8539 374.322 86.0972 375.735 100.074C377.148 114.05 374.384 128.131 367.792 140.538C358.949 157.171 343.861 169.614 325.844 175.128C307.828 180.643 288.358 178.779 271.717 169.945V169.945Z" fill="#355E48" stroke="#355E48" stroke-width="4" stroke-miterlimit="10"/>
<path opacity="0.5" d="M258.44 160.831C288.055 186.562 332.929 183.419 358.669 153.811C384.408 124.203 381.266 79.3415 351.651 53.6103C322.035 27.879 277.161 31.022 251.422 60.6302C225.682 90.2384 228.824 135.1 258.44 160.831Z" fill="#C8E7F5"/>
<g opacity="0.22">
<path opacity="0.22" d="M304.318 55.9418C326.896 54.0326 348.375 67.2861 356.167 88.6363C363.959 109.986 356.02 134.305 337.296 147.11C332.022 150.724 337.23 159.156 342.519 155.554C353.039 148.37 361.033 138.059 365.367 126.082C369.7 114.104 370.155 101.067 366.666 88.8175C359.582 64.1062 336.71 47.1103 311.288 45.867C308.837 45.7666 306.383 45.829 303.94 46.0538C297.588 46.5991 297.94 56.5089 304.34 55.9736L304.318 55.9418Z" fill="white"/>
</g>
<path opacity="0.31" d="M316.476 160.823C317.197 164.359 320.649 166.64 324.186 165.918C327.722 165.196 330.004 161.745 329.282 158.21C328.56 154.675 325.108 152.394 321.572 153.115C318.035 153.837 315.754 157.288 316.476 160.823Z" fill="white"/>
<path d="M230.557 211.904L258.212 225.829C258.67 226.058 259.198 226.11 259.693 225.974C260.187 225.838 260.614 225.524 260.891 225.092L261.071 224.799C261.228 224.553 261.331 224.278 261.375 223.989C261.418 223.701 261.399 223.407 261.321 223.127C261.243 222.846 261.106 222.585 260.92 222.361C260.733 222.137 260.502 221.955 260.24 221.826L232.435 208.153C232.188 208.03 231.919 207.958 231.643 207.941C231.368 207.924 231.092 207.962 230.831 208.053C230.571 208.145 230.331 208.287 230.127 208.472C229.922 208.657 229.756 208.881 229.64 209.132L229.642 209.171C229.41 209.656 229.375 210.213 229.546 210.723C229.716 211.233 230.079 211.657 230.557 211.904Z" fill="#355E48"/>
<path d="M309.374 176.38C292.408 177.566 275.586 172.566 262.024 162.306C248.462 152.046 239.079 137.221 235.61 120.575C232.009 103.748 235.089 85.8979 243.623 71.0307C249.979 60.0621 259.183 51.0153 270.261 44.8475C281.339 38.6798 293.878 35.6205 306.552 35.9935C319.226 36.3665 331.564 40.1579 342.259 46.9664C352.954 53.7749 361.609 63.3473 367.308 74.6707C375.06 90.2548 376.824 108.141 372.267 124.939C367.926 141.024 357.553 155.151 343.829 164.514C333.584 171.423 321.701 175.515 309.374 176.38C306.943 176.551 307.208 180.325 309.638 180.148C326.539 178.954 342.521 172.007 354.924 160.466C367.326 148.925 375.4 133.485 377.801 116.717C379.613 104.039 378.106 91.1079 373.428 79.1857C368.749 67.2635 361.059 56.7577 351.107 48.6937C341.155 40.6297 329.282 35.2829 316.646 33.1753C304.01 31.0676 291.044 32.2711 279.012 36.6682C267.104 41.0209 256.512 48.3555 248.25 57.9702C239.988 67.585 234.332 79.1582 231.823 91.5829C229.313 104.007 230.035 116.868 233.919 128.934C237.803 140.999 244.719 151.867 254.005 160.496C261.45 167.38 270.222 172.672 279.785 176.048C289.347 179.423 299.498 180.813 309.616 180.13C312.076 179.984 311.812 176.216 309.374 176.38Z" fill="#DEDAE8"/>
<path d="M187.631 286.164C194.81 288.337 208.904 291.224 215.765 292.971C231.773 286.973 258.375 275.061 258.602 274.002C259.936 267.821 261.162 262.303 262.484 256.142C262.544 255.857 253.377 254.72 253.437 254.435C253.498 254.149 255.286 253.984 257.352 253.772L269.024 251.784C269.5 251.733 269.948 251.531 270.3 251.206C270.652 250.881 270.89 250.452 270.979 249.981C271.65 246.375 272.906 238.608 272.33 238.313C272.115 238.201 261.873 238.256 258.918 237.915L259.495 236.59L278.41 233.593C278.41 233.593 280.813 220.138 280.189 219.921C279.442 219.666 263.088 217.861 263.088 217.861C263.088 217.861 224.2 215.44 221.403 215.054C217.347 214.482 213.551 212.058 209.576 212.725C205.138 213.47 201.126 215.711 197.226 217.925L168.745 233.968C162.157 235.453 146.956 237.595 140.504 239.585C145.195 256.59 149.039 273.735 156.497 292.506C156.697 293.067 184.541 285.23 187.631 286.164Z" fill="#F6C5B0"/>
<path d="M115.068 236.617L149.816 230.176L180.19 297.355L138.332 312.336L110.037 237.203L115.068 236.617Z" fill="#F6F6F6"/>
<path d="M160.54 313.45C160.54 313.45 115.025 245.35 110.155 230.947L14.4065 233.586L22.8542 354.201L160.54 313.45Z" fill="#497F60"/>
<path d="M136.572 245.835C135.805 245.687 135.1 245.316 134.545 244.768C133.99 244.22 133.61 243.519 133.453 242.755C133.296 241.991 133.369 241.197 133.663 240.475C133.957 239.752 134.459 239.133 135.105 238.696C135.751 238.258 136.513 238.022 137.293 238.018C138.074 238.013 138.838 238.24 139.489 238.669C140.141 239.099 140.65 239.711 140.953 240.43C141.256 241.149 141.339 241.942 141.191 242.708C141.094 243.217 140.897 243.702 140.612 244.134C140.327 244.567 139.959 244.939 139.53 245.23C139.101 245.52 138.619 245.723 138.111 245.827C137.604 245.931 137.08 245.933 136.572 245.835Z" fill="#355E48"/>
<path d="M208.033 208.853L221.899 198.636L233.372 184.453C233.372 184.453 240.669 181.339 241.46 189.673C242.251 198.007 235.667 204.128 230.391 208.19C228.067 209.985 221.525 218.331 217.617 224.732C212.503 233.118 186.96 226.518 186.96 226.518C186.96 226.518 206.713 209.875 208.033 208.853Z" fill="#F6C5B0"/>
</svg>
