<svg width="529" height="529" viewBox="0 0 529 529" fill="none" xmlns="http://www.w3.org/2000/svg">
<mask id="mask0_15_2" style="mask-type:alpha" maskUnits="userSpaceOnUse" x="0" y="0" width="529" height="529">
<circle cx="264.357" cy="264.357" r="264.357" fill="#C4C4C4"/>
</mask>
<g mask="url(#mask0_15_2)">
<path d="M264.36 528.555C410.733 528.555 529.391 409.88 529.391 263.486C529.391 117.093 410.733 -1.58228 264.36 -1.58228C117.988 -1.58228 -0.670532 117.093 -0.670532 263.486C-0.670532 409.88 117.988 528.555 264.36 528.555Z" fill="url(#paint0_radial_15_2)"/>
<path d="M321.184 139.872C321.184 139.872 320.899 133.294 320.986 125.728C320.986 124.685 318.483 124.685 318.783 123.666C320.844 116.701 321.942 106.599 323.829 104.104C327.777 98.8045 350.322 107.413 354.957 104.104C359.592 100.795 352.967 84.8968 345.686 81.5877C338.406 78.2786 350.093 76.9517 356.497 75.6249C362.901 74.2981 364.228 66.3531 369.526 63.6995C374.825 61.0459 384.095 65.6897 384.095 57.0813C384.095 48.4728 407.935 55.0911 403.3 46.4826C398.664 37.8742 396.674 34.5572 388.73 25.9488C380.787 17.3403 382.105 2.76918 392.679 0.115572C403.252 -2.53804 437.689 17.3403 437.689 25.9488C437.689 34.5572 417.158 41.8467 417.821 44.4924C418.485 47.1381 429.082 48.4413 432.39 45.1558C435.699 41.8704 432.39 42.5101 437.689 44.4924C442.987 46.4747 448.286 43.1656 448.286 43.1656C448.286 43.1656 491.33 87.5425 490.667 94.1686C490.003 100.795 479.414 106.75 486.718 111.393C494.023 116.037 506.586 122.648 511.198 134.573C515.809 146.498 514.506 148.481 507.249 145.172C499.993 141.862 490.667 142.518 487.382 140.536C484.097 138.553 477.472 116.693 475.497 119.338C473.523 121.984 470.862 123.974 467.554 121.321C464.245 118.667 462.255 123.974 464.908 126.62C467.562 129.266 470.862 136.555 468.217 138.545C465.572 140.536 460.928 144.508 458.283 140.536C455.638 136.563 459.61 131.256 453.648 128.61C447.686 125.965 450.339 119.338 449.7 116.029C449.06 112.72 429.832 102.114 425.86 96.8143C421.888 91.515 419.74 88.8693 417.497 91.5229C415.255 94.1765 418.571 104.104 425.197 108.108C431.822 112.112 443.035 119.338 443.035 122.655C443.035 125.972 433.764 120.673 435.091 124.646C436.418 128.618 438.4 131.927 433.764 133.917C429.129 135.908 430.456 138.553 430.456 141.199C430.456 143.845 413.873 138.553 413.233 134.581C412.594 130.608 424.494 133.917 425.82 129.945C427.147 125.972 425.031 116.037 417.458 114.047C409.885 112.057 407.935 102.122 403.963 98.8045C399.991 95.4875 399.328 106.094 393.366 105.431C387.404 104.767 376.151 101.482 375.488 105.431C374.825 109.379 372.179 115.366 367.536 116.029C362.893 116.693 359.592 123.974 360.919 127.947C362.246 131.919 356.971 142.518 350.322 139.872C343.673 137.227 338.398 139.872 337.079 142.518C335.761 145.164 326.482 141.199 321.184 139.872Z" fill="url(#paint1_radial_15_2)"/>
<path d="M522.545 163.565C518.763 148.417 489.277 175.08 480.962 168.043C472.647 161.006 461.773 154.617 456.657 159.087C451.54 163.557 453.498 166.542 451.54 172.086C449.581 177.631 443.864 176.778 436.189 172.086C428.513 167.395 421.47 159.118 416.353 160.406C411.236 161.693 408.038 161.906 406.087 157.642C404.137 153.377 408.646 147.612 406.087 142.494C403.529 137.376 393.295 136.737 393.295 136.737C393.295 136.737 376.665 143.134 374.106 143.134C371.548 143.134 366.431 139.935 362.593 142.494C358.755 145.053 361.314 154.648 352.328 152.761C343.341 150.873 337.609 147.643 333.771 149.602C329.933 151.56 315.925 160.406 315.285 164.876C314.645 169.346 323.6 176.391 315.285 179.589C306.97 182.788 300.574 185.354 296.736 190.472C292.898 195.59 286.471 210.303 283.944 212.222C281.417 214.141 280.746 215.421 278.187 217.98C275.629 220.538 272.431 226.296 278.187 228.855C283.944 231.414 283.304 240.369 282.025 242.281C280.746 244.192 276.268 248.678 277.548 251.876C278.827 255.075 275.573 257.634 274.957 260.832C274.342 264.031 278.827 273.634 280.746 276.833C282.664 280.031 293.538 278.112 294.817 286.428C296.096 294.745 296.736 302.421 306.97 307.539C317.204 312.657 315.198 318.414 318.76 320.333C322.321 322.252 331.915 308.818 339.591 312.017C347.266 315.215 351.112 316.495 354.949 313.296C358.787 310.098 365.823 306.259 365.823 306.259C365.823 306.259 382.453 301.781 388.209 307.539C393.966 313.296 379.894 314.576 386.291 317.806C392.687 321.036 401.641 315.626 402.921 320.554C404.2 325.482 403.56 334.438 402.281 339.556C401.002 344.674 408.677 353.637 410.596 356.196C412.515 358.755 425.947 390.101 424.02 393.939C422.093 397.777 420.182 410.572 413.147 423.366C406.111 436.16 435.549 459.813 433.646 465.571C431.743 471.328 422.125 493.718 427.242 498.196C427.226 498.196 581.611 400.234 522.545 163.565Z" fill="url(#paint2_radial_15_2)"/>
<path d="M92.0581 7.23247C104.914 11.355 114.168 13.9692 128.998 11.1418C143.828 8.31445 154.038 -1.32857 157.568 5.67664C161.097 12.6818 183.318 8.42502 189.264 5.10011C195.21 1.7752 201.615 0.874862 206.423 3.0783C211.232 5.28175 198.33 12.1448 197.793 21.0139C197.256 29.8829 185 34.4398 175.88 38.3887C166.759 42.3375 158.002 49.4849 158.736 52.6044C159.471 55.724 136.563 90.8448 129.653 83.4052C122.744 75.9657 115.993 75.0495 119.87 66.6306C123.747 58.2117 131.043 44.7463 124.331 38.3492C117.619 31.9521 102.3 20.6269 96.1091 28.3903C89.9182 36.1536 86.5385 35.7035 81.4926 32.2838C76.4467 28.8641 92.0581 7.23247 92.0581 7.23247Z" fill="url(#paint3_radial_15_2)"/>
<path d="M70.7057 37.3853C82.5504 43.4348 81.4686 50.1794 90.5891 54.3731C99.7096 58.5667 101.068 59.4908 100.934 61.8995C100.799 64.3083 89.7363 61.6626 89.6652 69.3944C89.5941 77.1262 90.5812 82.2912 85.559 80.8776C80.5368 79.4639 54.7626 71.9216 49.9141 74.6226C45.0656 77.3236 46.8029 58.3614 46.8029 58.3614C46.8029 58.3614 55.9155 68.7231 62.5485 69.2364C69.1816 69.7498 91.8762 64.2214 82.4083 61.2835C72.9404 58.3456 80.829 52.0591 62.5643 52.8883" fill="url(#paint4_radial_15_2)"/>
<path d="M24.5114 93.4351C30.5917 94.9515 35.9534 115.904 41.0941 114.917C46.2347 113.93 51.9518 87.8436 59.2561 86.4852C66.5603 85.1268 80.6793 100.701 85.0935 95.8202C89.5076 90.9395 91.2686 86.1772 96.2434 95.915C101.218 105.653 114.658 116.007 111.823 118.329C108.988 120.65 96.9462 125.184 95.4932 124.576C94.0402 123.967 74.0778 119.758 70.785 123.509C67.4921 127.261 64.9731 130.372 70.177 129.622C75.3808 128.872 78.7447 125.507 79.2027 127.893C79.6607 130.278 91.5213 127.103 92.7136 128.682C93.906 130.262 99.5362 143.419 94.4824 142.606C89.4287 141.792 83.072 134.985 77.2127 136.548C71.3535 138.112 70.5718 138.712 66.5051 143.056C62.4384 147.4 54.6129 162.231 54.6129 162.231C54.6129 162.231 36.8694 160.281 38.7093 165.272C40.5492 170.263 31.1918 181.857 31.8472 185.293C32.5026 188.728 34.003 215.177 30.2126 216.346C26.4223 217.515 15.6357 205.289 3.36447 206.332C-8.90673 207.374 -18.6353 163.566 -18.6353 163.566L24.5114 93.4351Z" fill="url(#paint5_radial_15_2)"/>
<path d="M-36.3473 225.293C-27.0847 239.201 -21.1228 256.41 -13.1868 254.427C-5.25078 252.445 2.70102 240.678 8.6629 239.935C14.6248 239.193 25.2061 234.059 20.5709 239.935C15.9356 245.811 8.02328 260.382 8.02328 264.355C8.02328 268.327 16.9227 268.304 21.7395 268.991C26.5564 269.678 29.8651 268.991 27.883 276.272C25.901 283.554 22.4344 292.857 28.4674 296.806C34.5003 300.755 44.671 295.487 46.5346 296.806C48.3982 298.125 46.4162 308.724 53.6968 303.424C60.9774 298.125 51.7068 294.16 65.6047 289.524L83.4825 283.57L80.5134 293.726C80.5134 293.726 78.8472 283.57 92.0818 288.861C105.316 294.152 116.561 292.178 119.885 290.851C123.21 289.524 126.503 298.433 131.138 304.901C135.773 311.369 147.026 314.023 153.643 315.342C160.26 316.661 167.541 323.95 167.541 325.933C167.541 327.915 171.75 342.518 175.603 347.122C179.457 351.726 193.355 351.758 193.355 351.758L197.303 363.012C197.303 363.012 215.836 359.063 221.135 363.012C226.433 366.961 236.359 374.922 236.359 374.922C236.359 374.922 217.826 401.402 221.135 410.674C224.443 419.946 222.461 453.045 211.864 456.354C201.267 459.663 179.433 464.955 183.437 473.563C187.44 482.172 182.773 494.745 180.128 496.072C177.483 497.398 175.611 508.652 175.611 508.652C175.611 508.652 170.202 522.552 168.212 521.889L150.342 515.934C150.342 515.934 163.577 527.188 157.623 534.47C151.669 541.751 146.37 553.669 146.37 553.669L105.308 533.135C105.308 533.135 94.0559 510.627 94.7192 506.654C95.3825 502.682 92.066 451.71 90.0839 445.756C88.1019 439.801 75.5228 429.866 73.5013 428.539C71.4797 427.212 50.3407 389.485 50.3407 389.485C50.3407 389.485 37.7616 380.213 34.4529 370.941C31.1443 361.669 39.7436 361.677 39.7436 357.041C39.7436 352.405 35.1162 345.124 36.435 343.142C37.7537 341.159 54.3048 325.269 53.6494 321.96C52.994 318.651 43.7156 304.743 41.7335 306.733C39.7515 308.724 28.4911 305.407 26.509 304.08C24.527 302.753 17.2385 280.253 13.2666 278.262C9.29462 276.272 -12.5077 270.31 -14.5055 267.024C-16.5033 263.739 -19.8041 263.715 -36.3473 266.361C-52.8905 269.006 -36.3473 225.293 -36.3473 225.293Z" fill="url(#paint6_radial_15_2)"/>
<path style="mix-blend-mode:screen" d="M390.547 372.576C396.454 367.656 400.571 360.923 402.259 353.422C403.948 345.922 403.112 338.074 399.883 331.097C396.654 324.12 391.212 318.405 384.402 314.839C377.592 311.273 369.795 310.056 362.222 311.377C362.618 300.576 359.305 289.964 352.834 281.308C346.363 272.651 337.124 266.47 326.654 263.794C316.184 261.118 305.113 262.107 295.282 266.597C285.452 271.087 277.455 278.807 272.62 288.474C261.997 285.969 250.843 287.071 240.916 291.608C230.99 296.144 222.855 303.856 217.795 313.527C212.735 323.199 211.038 334.28 212.971 345.023C214.904 355.766 220.357 365.559 228.471 372.86L390.547 372.576Z" fill="url(#paint7_linear_15_2)"/>
<path style="mix-blend-mode:screen" d="M178.478 241.752C182.374 238.507 185.09 234.067 186.204 229.12C187.317 224.173 186.766 218.997 184.636 214.395C182.506 209.794 178.916 206.025 174.424 203.674C169.932 201.323 164.789 200.522 159.795 201.395C160.045 194.278 157.855 187.289 153.586 181.589C149.318 175.889 143.228 171.821 136.329 170.06C129.43 168.3 122.136 168.952 115.658 171.909C109.181 174.867 103.91 179.951 100.721 186.318C94.2669 184.774 87.4948 185.251 81.3209 187.684C75.1471 190.116 69.8698 194.388 66.2035 199.919C62.5372 205.451 60.6589 211.976 60.823 218.611C60.9871 225.245 63.1856 231.669 67.1209 237.013C68.4438 238.814 69.9466 240.476 71.6061 241.973L178.478 241.752Z" fill="url(#paint8_linear_15_2)"/>
<path style="mix-blend-mode:screen" d="M258.47 128.248C254.951 125.334 252.495 121.338 251.484 116.883C250.474 112.427 250.965 107.762 252.882 103.615C254.8 99.4686 258.035 96.0726 262.083 93.9568C266.132 91.841 270.767 91.1243 275.265 91.9184C275.033 85.5135 277 79.222 280.839 74.0902C284.678 68.9584 290.157 65.2956 296.367 63.711C302.576 62.1264 309.14 62.7155 314.968 65.3803C320.797 68.045 325.537 72.6249 328.401 78.3582C334.7 76.8775 341.312 77.5347 347.197 80.2261C353.081 82.9175 357.903 87.4903 360.903 93.2241C363.903 98.9579 364.91 105.527 363.767 111.896C362.623 118.266 359.393 124.074 354.586 128.406L258.47 128.248Z" fill="url(#paint9_linear_15_2)"/>
</g>
<defs>
<radialGradient id="paint0_radial_15_2" cx="0" cy="0" r="1" gradientUnits="userSpaceOnUse" gradientTransform="translate(220.914 178.942) scale(319.185 319.231)">
<stop offset="0.02" stop-color="#75E9FC"/>
<stop offset="1" stop-color="#3377AF"/>
</radialGradient>
<radialGradient id="paint1_radial_15_2" cx="0" cy="0" r="1" gradientUnits="userSpaceOnUse" gradientTransform="translate(231.708 204.894) scale(283.785 283.826)">
<stop offset="0.01" stop-color="#C1F880"/>
<stop offset="1" stop-color="#55C59D"/>
</radialGradient>
<radialGradient id="paint2_radial_15_2" cx="0" cy="0" r="1" gradientUnits="userSpaceOnUse" gradientTransform="translate(231.708 204.893) scale(283.785 283.825)">
<stop offset="0.01" stop-color="#C1F880"/>
<stop offset="1" stop-color="#55C59D"/>
</radialGradient>
<radialGradient id="paint3_radial_15_2" cx="0" cy="0" r="1" gradientUnits="userSpaceOnUse" gradientTransform="translate(231.708 204.895) scale(283.785 283.826)">
<stop offset="0.01" stop-color="#C1F880"/>
<stop offset="1" stop-color="#55C59D"/>
</radialGradient>
<radialGradient id="paint4_radial_15_2" cx="0" cy="0" r="1" gradientUnits="userSpaceOnUse" gradientTransform="translate(231.708 204.894) scale(283.785 283.825)">
<stop offset="0.01" stop-color="#C1F880"/>
<stop offset="1" stop-color="#55C59D"/>
</radialGradient>
<radialGradient id="paint5_radial_15_2" cx="0" cy="0" r="1" gradientUnits="userSpaceOnUse" gradientTransform="translate(231.708 204.895) scale(283.785 283.826)">
<stop offset="0.01" stop-color="#C1F880"/>
<stop offset="1" stop-color="#55C59D"/>
</radialGradient>
<radialGradient id="paint6_radial_15_2" cx="0" cy="0" r="1" gradientUnits="userSpaceOnUse" gradientTransform="translate(231.708 204.893) scale(283.793 283.833)">
<stop offset="0.01" stop-color="#C1F880"/>
<stop offset="1" stop-color="#55C59D"/>
</radialGradient>
<linearGradient id="paint7_linear_15_2" x1="343.993" y1="310.802" x2="223.236" y2="399.267" gradientUnits="userSpaceOnUse">
<stop offset="0.01" stop-color="#E7F4FC"/>
<stop offset="1" stop-color="#7999AA"/>
</linearGradient>
<linearGradient id="paint8_linear_15_2" x1="147.796" y1="201.056" x2="68.1725" y2="259.387" gradientUnits="userSpaceOnUse">
<stop offset="0.01" stop-color="#E7F4FC"/>
<stop offset="1" stop-color="#7999AA"/>
</linearGradient>
<linearGradient id="paint9_linear_15_2" x1="287.465" y1="93.6054" x2="359.378" y2="145.979" gradientUnits="userSpaceOnUse">
<stop offset="0.01" stop-color="#E7F4FC"/>
<stop offset="1" stop-color="#7999AA"/>
</linearGradient>
</defs>
</svg>
