<svg width="383" height="396" viewBox="0 0 383 396" fill="none" xmlns="http://www.w3.org/2000/svg">
<path d="M208.906 135.566L215.756 125.311L218.576 126.053L218.771 137.151C219.501 137.66 220.232 138.17 220.977 138.673C230.549 123.938 240.469 109.403 249.467 94.3757C251.197 91.4538 249.672 86.2869 248.898 82.2918C246.585 70.3213 251.09 61.6059 261.461 58.8283C270.472 56.401 280.818 62.209 283.184 71.0124C285.888 81.3822 279.728 89.5147 268.023 93.9737C262.483 96.0562 256.459 100.274 253.512 105.24C245.506 118.71 239.044 133.106 231.967 147.12L234.497 148.635L245.467 141.961C246.117 142.454 246.752 142.954 247.387 143.454L241.989 156.405C256.782 148.475 271.625 146.516 277.898 130.792C281.022 122.963 288.241 120.472 296.027 123.235C303.813 125.998 307.188 132.51 305.217 140.704C303.361 148.335 297.404 153.466 290.021 151.366C270.713 145.928 262.307 160.786 250.979 171.098L264.601 170.477C265.007 171.339 265.413 172.202 265.819 173.064L253.111 182.064C277.944 180.45 299.977 187.238 321.375 176.016C324.888 174.18 332.39 175.606 335.353 178.388C337.74 180.642 337.886 188.511 335.729 191.489C333.571 194.467 325.427 196.922 323.159 195.23C309.137 184.741 294.31 191.288 279.947 192.185C271.475 192.869 263.215 195.187 255.623 199.009L267.502 203.713L267.968 206.437L256.13 209.033C266.553 221.29 279.359 225.34 294.268 220.588C303.681 217.626 312.264 221.195 316.303 229.81C318.254 234.025 318.522 238.826 317.052 243.231C315.582 247.637 312.486 251.315 308.395 253.515C300.783 257.445 288.742 255.214 285.451 246.683C278.399 228.316 261.864 228.729 244.387 222.628C249.378 228.906 252.27 232.539 255.177 236.165L253.349 238.842L239.329 232.985C243.351 239.828 245.899 244.93 249.158 249.535C256.429 259.807 263.451 270.395 271.825 279.73C276.44 284.455 282.262 287.826 288.658 289.476C297.906 291.95 303.025 296.841 302.379 306.191C301.792 314.587 296.345 319.605 287.905 319.311C278.371 318.969 274.455 312.93 272.998 303.626C272.016 297.259 269.896 290.174 265.93 285.34C254.26 271.091 241.429 257.807 229.047 244.13L226.426 245.892C227.265 249.91 228.119 253.922 228.965 257.956L226.753 259.506C223.781 256.437 220.802 253.39 215.764 248.207C218.059 265.653 214.273 281.604 229.376 293.001C230.823 294.009 232.02 295.333 232.878 296.874C233.735 298.414 234.231 300.129 234.326 301.89C234.421 303.65 234.114 305.409 233.428 307.033C232.742 308.657 231.695 310.103 230.366 311.262C226.133 314.963 216.986 317.563 212.714 315.434C208.441 313.305 203.472 302.367 205.371 299.111C215.032 282.482 205.321 269.037 199.671 254.187C198.412 258.031 197.175 261.884 196.005 265.686L193.312 266.101C192.027 261.675 190.726 257.255 188.502 249.639C183.252 264.99 174.416 275.963 176.964 291.401C177.614 295.327 173.25 301.797 169.386 304.161C166.992 305.634 158.799 302.699 157.536 299.825C155.896 296.074 156.786 288.244 159.617 286.002C172.014 276.186 169.987 262.355 173.447 246.484L163.208 256.756L160.589 255.9L164.287 238.683C153.37 248.093 144.476 255.279 136.184 263.089C126.869 271.89 117.153 279.917 119.733 295.886C121.196 304.969 112.994 310.812 103.482 311.75C98.9837 312.11 94.521 310.712 91.0321 307.85C87.5432 304.987 85.2999 300.884 84.774 296.402C83.7118 286.857 87.943 277.29 96.9265 277.273C115.989 277.214 123.809 263.541 133.821 251.978C139.274 245.777 144.138 238.981 150.723 230.631L137.221 233.357C136.801 232.465 136.381 231.573 135.967 230.695L146.546 219.41C129.39 221.551 114.106 222.537 101.78 232.774C96.1121 237.477 90.6773 241.018 84.9669 235.642C83.4438 233.914 82.3456 231.853 81.7599 229.625C81.1741 227.397 81.1169 225.063 81.5929 222.809C84.0309 215.412 90.4655 214.997 97.695 217.042C113.131 221.47 123.991 210.434 136.771 205.904C137.009 204.521 137.27 203.108 137.449 201.752L125.535 202.913L126.424 198.244L138.117 193.645L138.535 190.251C120.727 186.959 103.102 183.089 85.2997 180.502C81.7101 179.977 77.4161 184.397 73.4196 186.479C69.4734 188.489 64.9363 189.015 60.6352 187.96C56.334 186.905 52.5551 184.339 49.9871 180.731C47.4961 177.044 46.4665 172.563 47.0986 168.158C47.7307 163.754 49.9793 159.743 53.4066 156.906C60.7491 151.014 72.1919 150.511 76.9804 158.518C85.6937 173.124 99.1355 174.204 113.393 174.973C121.998 175.425 130.572 175.965 139.632 174.531L131.037 168.353L131.448 165.561L143.86 165.728C138.262 153.07 122.609 141.624 108.164 140.072C99.9066 139.202 94.2955 135.233 93.6876 126.691C93.036 118.442 97.1153 112.525 105.459 110.957C113.161 109.491 120.535 112.576 121.583 120.201C124.334 140.158 141.376 143.175 157.034 153.512L150.886 140.459C151.433 139.729 152.009 138.985 152.547 138.278C155.959 140.122 159.386 141.959 165.97 145.488C160.723 131.339 156.547 119.501 151.88 107.858C147.667 97.254 143.654 86.9196 131.083 82.2503C123.315 79.3699 121.79 71.3508 125.329 63.7079C128.868 56.0651 135.496 53.3613 143.405 56.2303C151.313 59.0993 155.372 65.6343 152.681 73.4588C149.139 83.7552 152.133 92.1176 157.042 100.613C164.035 112.723 171.026 124.906 179.502 139.624L182.487 121.434C185.975 127.257 187.764 130.247 191.684 136.757C193.816 120.458 196.36 107.308 197.009 94.0691C197.413 85.6689 194.245 77.2069 194.101 68.6101C194.004 63.6605 195.245 56.8458 198.549 54.2183C201.2 52.134 210.468 53.7633 212.014 56.468C214.133 60.1566 212.24 66.5884 211.012 71.5804C209.785 76.5723 205.766 80.8812 205.663 85.5614C205.245 102.106 206.022 118.76 206.338 135.359L208.965 135.538L208.906 135.566Z" fill="#89B19D"/>
<mask id="mask0_1_82" style="mask-type:alpha" maskUnits="userSpaceOnUse" x="46" y="53" width="292" height="267">
<path d="M208.935 135.552L215.785 125.297L218.605 126.04L218.8 137.137C219.53 137.647 220.261 138.156 221.006 138.659C230.578 123.924 240.498 109.389 249.496 94.3619C251.226 91.44 249.701 86.2731 248.927 82.278C246.614 70.3075 251.119 61.5921 261.491 58.8145C270.501 56.3872 280.847 62.1952 283.213 70.9986C285.917 81.3684 279.757 89.5009 268.052 93.96C262.512 96.0424 256.488 100.26 253.541 105.226C245.535 118.696 239.074 133.092 231.996 147.106L234.526 148.621L245.496 141.947C246.146 142.44 246.781 142.94 247.417 143.44L242.018 156.391C256.811 148.461 271.655 146.502 277.927 130.778C281.052 122.949 288.27 120.458 296.056 123.221C303.842 125.984 307.218 132.496 305.246 140.69C303.391 148.321 297.433 153.452 290.051 151.352C270.742 145.915 262.336 160.772 251.008 171.084L264.63 170.463C265.036 171.326 265.442 172.188 265.848 173.05L253.14 182.051C277.973 180.436 300.006 187.224 321.405 176.002C324.917 174.166 332.419 175.592 335.382 178.374C337.77 180.628 337.916 188.498 335.758 191.476C333.6 194.453 325.456 196.908 323.188 195.216C309.166 184.727 294.339 191.274 279.976 192.171C271.504 192.856 263.244 195.173 255.653 198.995L267.532 203.7L267.997 206.423L256.16 209.019C266.582 221.276 279.388 225.326 294.297 220.574C303.71 217.613 312.293 221.181 316.333 229.796C318.283 234.011 318.551 238.812 317.081 243.218C315.611 247.623 312.515 251.302 308.424 253.501C300.812 257.432 288.772 255.201 285.48 246.669C278.429 228.302 261.894 228.715 244.416 222.615C249.407 228.892 252.299 232.525 255.206 236.152L253.379 238.829L239.358 232.971C243.38 239.814 245.929 244.917 249.187 249.522C256.459 259.793 263.48 270.382 271.854 279.716C276.469 284.441 282.291 287.812 288.687 289.462C297.935 291.936 303.054 296.827 302.408 306.177C301.821 314.573 296.374 319.591 287.934 319.297C278.401 318.956 274.485 312.916 273.027 303.612C272.045 297.245 269.925 290.161 265.959 285.326C254.289 271.077 241.458 257.794 229.077 244.116L226.455 245.878C227.294 249.897 228.148 253.908 228.994 257.942L226.782 259.492C223.811 256.423 220.832 253.376 215.793 248.193C218.088 265.639 214.302 281.591 229.406 292.987C230.852 293.995 232.049 295.32 232.907 296.86C233.765 298.4 234.26 300.116 234.355 301.876C234.451 303.636 234.144 305.395 233.457 307.019C232.771 308.643 231.724 310.089 230.395 311.248C226.162 314.949 217.015 317.55 212.743 315.42C208.47 313.291 203.501 302.353 205.4 299.097C215.061 282.468 205.35 269.023 199.701 254.173C198.441 258.018 197.204 261.87 196.034 265.672L193.341 266.087C192.056 261.661 190.756 257.242 188.531 249.625C183.282 264.976 174.445 275.949 176.993 291.387C177.643 295.314 173.279 301.783 169.416 304.147C167.021 305.62 158.828 302.686 157.565 299.811C155.925 296.06 156.815 288.23 159.647 285.988C172.043 276.172 170.016 262.341 173.476 246.471L163.238 256.742L160.619 255.886L164.317 238.669C153.4 248.079 144.505 255.265 136.213 263.076C126.898 271.877 117.183 279.904 119.763 295.872C121.225 304.956 113.024 310.798 103.511 311.736C99.013 312.096 94.5503 310.698 91.0614 307.836C87.5725 304.974 85.3292 300.87 84.8033 296.388C83.7411 286.844 87.9723 277.276 96.9557 277.26C116.019 277.2 123.838 263.527 133.85 251.964C139.303 245.763 144.168 238.967 150.752 230.617L137.25 233.343C136.83 232.451 136.41 231.559 135.997 230.682L146.576 219.396C129.419 221.537 114.135 222.523 101.809 232.76C96.1414 237.464 90.7066 241.004 84.9962 235.629C83.4731 233.9 82.3749 231.84 81.7892 229.612C81.2034 227.383 81.1462 225.049 81.6222 222.795C84.0602 215.398 90.4948 214.984 97.7243 217.028C113.16 221.456 124.02 210.42 136.8 205.891C137.038 204.507 137.299 203.094 137.478 201.738L125.564 202.899L126.453 198.23L138.147 193.631L138.564 190.237C120.757 186.945 103.131 183.075 85.329 180.489C81.7394 179.963 77.4454 184.383 73.4489 186.465C69.5027 188.475 64.9656 189.001 60.6645 187.946C56.3633 186.891 52.5844 184.325 50.0164 180.717C47.5254 177.031 46.4958 172.549 47.1279 168.145C47.76 163.74 50.0086 159.729 53.4359 156.892C60.7784 151 72.2212 150.497 77.0097 158.504C85.723 173.11 99.1648 174.19 113.423 174.959C122.027 175.411 130.601 175.951 139.662 174.517L131.066 168.339L131.477 165.548L143.89 165.714C138.291 153.057 122.638 141.611 108.193 140.058C99.9359 139.188 94.3248 135.219 93.7169 126.677C93.0653 118.429 97.1446 112.511 105.488 110.943C113.19 109.477 120.564 112.562 121.612 120.187C124.363 140.144 141.406 143.162 157.063 153.498L150.916 140.445C151.462 139.715 152.038 138.972 152.577 138.264C155.988 140.108 159.415 141.946 165.999 145.475C160.753 131.325 156.576 119.487 151.91 107.844C147.697 97.2402 143.683 86.9058 131.112 82.2365C123.344 79.3561 121.82 71.337 125.359 63.6941C128.898 56.0513 135.526 53.3475 143.434 56.2165C151.343 59.0855 155.401 65.6205 152.711 73.445C149.168 83.7414 152.162 92.1038 157.071 100.599C164.064 112.709 171.056 124.893 179.531 139.61L182.517 121.42C186.004 127.243 187.793 130.233 191.713 136.743C193.846 120.444 196.389 107.294 197.039 94.0553C197.442 85.6551 194.274 77.1931 194.13 68.5963C194.034 63.6467 195.274 56.832 198.578 54.2045C201.229 52.1202 210.497 53.7495 212.044 56.4543C214.162 60.1428 212.269 66.5746 211.042 71.5666C209.814 76.5586 205.795 80.8674 205.692 85.5476C205.274 102.092 206.052 118.746 206.367 135.345L208.995 135.524L208.935 135.552Z" fill="#89B19D"/>
</mask>
<g mask="url(#mask0_1_82)">
<path d="M216.661 184.354C217.562 186.252 217.88 188.374 217.574 190.453C217.268 192.532 216.352 194.473 214.942 196.03C213.532 197.588 211.692 198.692 209.654 199.204C207.616 199.715 205.472 199.61 203.494 198.902C201.516 198.194 199.793 196.915 198.542 195.226C197.291 193.538 196.569 191.517 196.468 189.418C196.367 187.32 196.89 185.239 197.973 183.438C199.055 181.637 200.647 180.198 202.548 179.303C205.095 178.103 208.015 177.965 210.664 178.917C213.313 179.87 215.476 181.836 216.675 184.384L216.661 184.354Z" fill="#559473"/>
<path d="M177.946 176.395C178.841 178.295 179.152 180.417 178.84 182.494C178.528 184.571 177.607 186.509 176.194 188.063C174.78 189.616 172.937 190.715 170.899 191.221C168.86 191.727 166.718 191.616 164.742 190.904C162.766 190.192 161.046 188.909 159.799 187.219C158.553 185.529 157.835 183.507 157.738 181.409C157.641 179.311 158.168 177.231 159.253 175.433C160.338 173.635 161.933 172.199 163.834 171.307C166.381 170.112 169.297 169.977 171.943 170.931C174.589 171.885 176.748 173.85 177.946 176.395V176.395Z" fill="#559473"/>
<path d="M218.97 148.373C219.864 150.273 220.176 152.395 219.864 154.471C219.553 156.547 218.632 158.485 217.22 160.038C215.807 161.592 213.966 162.691 211.928 163.198C209.891 163.705 207.749 163.596 205.773 162.886C203.797 162.175 202.077 160.895 200.829 159.206C199.581 157.518 198.862 155.497 198.762 153.4C198.662 151.303 199.187 149.223 200.269 147.424C201.352 145.625 202.943 144.187 204.843 143.292C207.39 142.093 210.309 141.954 212.958 142.907C215.608 143.86 217.77 145.826 218.97 148.373V148.373Z" fill="#559473"/>
<path d="M249.929 188.539C250.824 190.439 251.135 192.561 250.824 194.637C250.512 196.714 249.592 198.651 248.179 200.204C246.767 201.758 244.925 202.858 242.888 203.364C240.85 203.871 238.708 203.762 236.733 203.052C234.757 202.341 233.036 201.061 231.788 199.372C230.54 197.684 229.821 195.663 229.721 193.566C229.622 191.469 230.146 189.389 231.229 187.59C232.311 185.791 233.903 184.353 235.802 183.459C238.349 182.259 241.269 182.12 243.918 183.073C246.567 184.026 248.73 185.992 249.929 188.539V188.539Z" fill="#559473"/>
<path d="M194.405 226.769C195.299 228.668 195.611 230.79 195.299 232.867C194.988 234.943 194.067 236.88 192.655 238.434C191.242 239.987 189.401 241.087 187.363 241.594C185.326 242.1 183.184 241.992 181.208 241.281C179.232 240.571 177.512 239.29 176.264 237.602C175.016 235.913 174.297 233.893 174.197 231.795C174.097 229.698 174.622 227.619 175.704 225.819C176.787 224.02 178.378 222.583 180.278 221.688C182.825 220.488 185.744 220.35 188.394 221.303C191.043 222.255 193.205 224.222 194.405 226.769V226.769Z" fill="#559473"/>
<path d="M218.551 311.014C219.446 312.914 219.757 315.037 219.445 317.114C219.133 319.191 218.212 321.128 216.798 322.682C215.385 324.235 213.542 325.334 211.503 325.84C209.465 326.346 207.322 326.236 205.346 325.523C203.371 324.811 201.651 323.529 200.404 321.838C199.157 320.148 198.44 318.126 198.342 316.028C198.245 313.93 198.773 311.85 199.858 310.052C200.943 308.254 202.537 306.818 204.439 305.926C206.985 304.732 209.901 304.596 212.547 305.55C215.193 306.504 217.352 308.469 218.551 311.014V311.014Z" fill="#559473"/>
<path d="M311.996 251.365C312.89 253.264 313.201 255.387 312.89 257.463C312.578 259.539 311.658 261.477 310.246 263.03C308.833 264.583 306.992 265.683 304.954 266.19C302.917 266.697 300.775 266.588 298.799 265.877C296.823 265.167 295.103 263.886 293.855 262.198C292.607 260.51 291.887 258.489 291.788 256.392C291.688 254.294 292.213 252.215 293.295 250.416C294.378 248.617 295.969 247.179 297.869 246.284C300.416 245.085 303.335 244.946 305.984 245.899C308.634 246.852 310.796 248.818 311.996 251.365Z" fill="#559473"/>
<path d="M310.568 125.686C311.453 127.588 311.754 129.709 311.435 131.782C311.115 133.855 310.189 135.787 308.772 137.334C307.356 138.881 305.513 139.974 303.476 140.474C301.439 140.975 299.299 140.86 297.327 140.146C295.355 139.431 293.639 138.149 292.395 136.46C291.151 134.771 290.436 132.752 290.339 130.656C290.242 128.561 290.767 126.484 291.85 124.687C292.932 122.891 294.522 121.455 296.42 120.561C298.967 119.361 301.886 119.223 304.536 120.176C307.185 121.129 309.347 123.095 310.547 125.642L310.568 125.686Z" fill="#559473"/>
<path d="M131.186 60.3318C132.084 62.2305 132.399 64.3529 132.09 66.4304C131.781 68.5079 130.863 70.4471 129.452 72.0026C128.041 73.5581 126.2 74.6601 124.162 75.1691C122.124 75.6781 119.981 75.5711 118.004 74.8619C116.028 74.1526 114.305 72.8729 113.056 71.1846C111.807 69.4963 111.086 67.4753 110.986 65.3774C110.885 63.2796 111.41 61.199 112.492 59.3991C113.574 57.5992 115.166 56.1608 117.066 55.2659C119.611 54.0675 122.527 53.9279 125.174 54.8777C127.822 55.8275 129.984 57.7891 131.186 60.3318Z" fill="#559473"/>
</g>
</svg>
