<svg width="36" height="36" viewBox="0 0 36 36" fill="none" xmlns="http://www.w3.org/2000/svg">
<circle cx="17.9191" cy="17.736" r="17.736" fill="#CD6D37"/>
<path d="M10.251 15.5309V17.6509H17.151V15.5309H10.251ZM13.411 18.7709V25.0909C13.411 25.3109 13.351 25.3909 13.071 25.4109C12.771 25.4109 11.831 25.4109 11.011 25.3709C11.311 25.9709 11.651 26.8909 11.751 27.5509C13.091 27.5509 14.091 27.5309 14.831 27.1909C15.591 26.8509 15.791 26.2509 15.791 25.1509V18.7709H13.411ZM9.37104 20.4909L9.59104 22.7909C12.271 22.5709 16.051 22.2709 19.551 21.9509V19.7709C15.911 20.0509 11.991 20.3309 9.37104 20.4909ZM16.511 15.5309V15.9909C15.931 16.8509 14.731 18.2509 13.711 19.0509C14.031 19.3309 14.631 19.9509 14.891 20.3309C16.351 19.3709 17.931 17.8909 19.131 16.6709L17.651 15.4109L17.131 15.5309H16.511ZM18.091 8.79094C15.891 9.37094 12.451 9.79094 9.41104 9.99094C9.67104 10.5309 9.95104 11.3909 10.031 11.9509C13.131 11.8109 16.811 11.4509 19.511 10.7709L18.091 8.79094ZM20.311 9.15094V23.8109C20.311 26.5509 20.931 27.3909 23.091 27.3909C23.511 27.3909 25.031 27.3909 25.451 27.3909C27.531 27.3909 28.111 25.9709 28.311 22.2909C27.671 22.1109 26.651 21.6309 26.071 21.1709C25.971 24.2909 25.871 25.1109 25.231 25.1109C24.911 25.1109 23.771 25.1109 23.511 25.1109C22.891 25.1109 22.811 24.9309 22.811 23.8309V9.15094H20.311ZM9.59104 12.6309C9.97104 13.5109 10.351 14.7109 10.451 15.4909L12.351 14.9509C12.191 14.1709 11.811 13.0309 11.391 12.1509L9.59104 12.6309ZM12.971 12.1109C13.211 13.0309 13.411 14.2309 13.411 14.9909L15.431 14.6509C15.391 13.8909 15.171 12.7309 14.891 11.8509L12.971 12.1109ZM17.611 11.5309C17.211 12.6509 16.471 14.1709 15.851 15.1109L17.651 15.8509C18.311 14.9709 19.111 13.6109 19.811 12.3509L17.611 11.5309Z" fill="white"/>
</svg>
