<svg width="37" height="36" viewBox="0 0 37 36" fill="none" xmlns="http://www.w3.org/2000/svg">
<circle cx="18.2848" cy="17.736" r="17.736" fill="#CD6D37"/>
<path d="M8.93676 17.4909V19.8909H27.4168V17.4909H8.93676ZM16.9368 14.3109V24.6909C16.9368 25.0309 16.7968 25.1309 16.3568 25.1509C15.8968 25.1509 14.3568 25.1509 12.9568 25.0909C13.3568 25.7509 13.8368 26.8509 13.9968 27.5709C15.8168 27.5909 17.2168 27.5109 18.1768 27.1309C19.1368 26.7509 19.4568 26.0909 19.4568 24.7309V14.3109H16.9368ZM11.0368 9.95094V12.3309H23.6368V9.95094H11.0368ZM22.8568 9.95094V10.5109C21.8368 11.8109 19.3368 13.7509 17.2168 14.8309C17.6768 15.2509 18.4168 16.0509 18.7768 16.5709C21.2368 15.2709 23.9968 13.1509 25.8768 11.2109L24.0368 9.83094L23.4968 9.95094H22.8568Z" fill="white"/>
</svg>
