<svg width="36" height="36" viewBox="0 0 36 36" fill="none" xmlns="http://www.w3.org/2000/svg">
<circle cx="18.1017" cy="17.736" r="17.736" fill="#CD6D37"/>
<path d="M16.0341 16.8709V18.9309H27.4341V16.8709H16.0341ZM17.8741 19.8309V21.7309H25.5941V19.8309H17.8741ZM18.2941 18.0509C17.6141 19.7309 16.3541 21.4109 14.9741 22.4509C15.4541 22.7509 16.2741 23.3909 16.6341 23.7309C18.0141 22.5109 19.4341 20.5709 20.2941 18.6109L18.2941 18.0509ZM24.8541 19.8309V20.1509C24.7141 23.6909 24.5341 24.9909 24.2541 25.3309C24.1141 25.5309 23.9541 25.5509 23.7141 25.5509C23.4541 25.5509 22.9541 25.5509 22.3741 25.4909C22.6741 25.9909 22.8741 26.8109 22.8941 27.4109C23.6741 27.4309 24.3941 27.4309 24.8341 27.3509C25.3541 27.2909 25.7541 27.1309 26.0941 26.6709C26.5941 26.0909 26.8141 24.5109 26.9941 20.6309C27.0141 20.3709 27.0341 19.8309 27.0341 19.8309H24.8541ZM19.3741 13.4909H23.9141V14.4109H19.3741V13.4909ZM19.3741 11.0309H23.9141V11.9509H19.3741V11.0309ZM17.2141 9.37094V16.0709H26.1741V9.37094H17.2141ZM10.6541 9.43094V11.5909H14.7141V9.43094H10.6541ZM10.7541 13.9909V16.1709H14.4741V13.9909H10.7541ZM10.7541 18.6509V20.8709H14.4741V18.6509H10.7541ZM9.71414 9.43094V16.7509C9.71414 19.6909 9.63414 23.7309 8.45414 26.5109C8.99414 26.7109 9.93414 27.2309 10.3541 27.5709C11.6141 24.5909 11.7941 19.9309 11.7941 16.7309V9.43094H9.71414ZM13.4541 9.43094V24.8909C13.4541 25.1309 13.3941 25.2109 13.1741 25.2109C12.9341 25.2309 12.2741 25.2309 11.6341 25.2109C11.9341 25.8109 12.2141 26.8509 12.2541 27.4709C13.4741 27.4709 14.2741 27.4109 14.8741 27.0109C15.4741 26.6309 15.6341 25.9709 15.6341 24.9309V9.43094H13.4541ZM19.9741 20.3709C19.1941 22.2709 17.5541 24.5309 15.9741 25.6309C16.5341 25.9509 17.1541 26.5109 17.5541 26.9709C19.0741 25.6709 20.7341 23.2309 21.5141 21.2309L19.9741 20.3709ZM22.6141 20.6709C22.0141 22.6109 20.7341 25.0309 19.4341 26.2509C20.0141 26.5509 20.7141 27.0509 21.1141 27.4709C22.3541 26.0709 23.6141 23.5109 24.1941 21.4909L22.6141 20.6709Z" fill="white"/>
</svg>
