<svg width="570" height="136" viewBox="0 0 570 136" fill="none" xmlns="http://www.w3.org/2000/svg">
<g clip-path="url(#clip0_140_8390)">
<path d="M156.341 73.5085C155.681 74.0821 154.914 74.5183 154.084 74.7916C153.253 75.0649 152.377 75.1697 151.506 75.0999H126.268C125.588 75.0707 124.936 74.82 124.412 74.3858C123.841 73.9567 123.357 73.4238 122.984 72.8149V75.0999H115.108V32.5413H122.984V34.7855C123.335 34.0873 123.879 33.5046 124.552 33.1067C125.225 32.7089 125.997 32.5126 126.778 32.5413H152.077C152.935 32.5354 153.785 32.7164 154.566 33.0717C155.289 33.415 155.94 33.8927 156.484 34.4794C157.492 35.5998 158.051 37.0527 158.055 38.5599V68.4488C158.128 69.3644 158.014 70.2854 157.719 71.1554C157.425 72.0253 156.956 72.8261 156.341 73.5085ZM150.22 64.5317H144.1C143.399 64.5152 142.708 64.37 142.059 64.1032C141.383 63.8376 140.761 63.4504 140.223 62.9607C139.751 62.4753 139.371 61.9085 139.101 61.2877C138.84 60.6395 138.708 59.9464 138.714 59.2475V35.3363H134.858V48.3324C134.867 50.2044 134.724 52.074 134.429 53.9226C134.152 55.602 133.665 57.2401 132.981 58.7987C132.095 60.6645 130.831 62.3252 129.267 63.6748C127.415 65.1951 125.279 66.3325 122.984 67.0207V72.3048H147.303C148.047 72.3192 148.771 72.0658 149.343 71.5908C149.619 71.3723 149.84 71.0926 149.988 70.7738C150.137 70.4551 150.209 70.1062 150.2 69.7546L150.22 64.5317ZM127.044 35.3363H122.963V65.9394C124.353 64.2546 125.4 62.3139 126.044 60.2268C126.689 58.1944 127.019 56.0753 127.023 53.943L127.044 35.3363ZM150.139 37.9886C150.134 37.2898 149.864 36.6189 149.384 36.1116C149.13 35.8247 148.815 35.5987 148.461 35.4504C148.108 35.302 147.726 35.2351 147.344 35.2547H146.16V59.4515C146.161 60.0173 146.372 60.5625 146.752 60.9817C146.915 61.182 147.12 61.3442 147.353 61.457C147.586 61.5697 147.84 61.6303 148.098 61.6346H150.139V37.9886Z" fill="white"/>
<path d="M170.602 63.5728C169.618 65.2816 168.129 66.6432 166.338 67.4695L166.032 67.1227C166.699 66.0318 167.162 64.829 167.399 63.5728C167.663 62.2285 167.8 60.8623 167.807 59.4923V51.3315H171.765V58.3906C171.842 60.1904 171.441 61.9784 170.602 63.5728ZM180.089 37.3561V62.471C180.126 64.2498 179.835 66.0202 179.232 67.694C178.691 69.1298 177.865 70.4414 176.805 71.55C175.545 72.8869 174.033 73.9616 172.357 74.7123C170.497 75.5261 168.544 76.1085 166.542 76.4464V76.0384C168.851 74.5073 170.638 72.3079 171.663 69.7342C172.144 68.5183 172.486 67.2522 172.683 65.9598C172.894 64.5209 172.996 63.0683 172.989 61.6142V49.6586C172.105 49.5738 171.247 49.3093 170.468 48.8813C169.689 48.4533 169.006 47.8708 168.46 47.1695C168.089 46.5766 167.833 45.9191 167.705 45.2313C167.555 44.3966 167.487 43.5494 167.501 42.7015V36.5809H171.357V44.9865C171.36 45.681 171.478 46.3702 171.704 47.0267C171.922 47.6477 172.357 48.1693 172.928 48.4956V34.5203H180.13V36.8665C180.384 36.1416 180.891 35.533 181.558 35.1527C182.176 34.786 182.88 34.5889 183.598 34.5815H189.535V31.1131H197.961V34.5815H212.386V37.3561H180.089ZM194.922 61.3897C194.331 61.9588 193.557 62.2988 192.739 62.3486C192.331 62.3818 191.922 62.3818 191.514 62.3486C191.11 62.3349 190.707 62.2872 190.311 62.2058C189.681 62.1024 189.09 61.835 188.597 61.4305C188.101 61.0605 187.753 60.5249 187.618 59.9208V62.471H181.558V52.066H187.679V54.3102C187.874 53.7381 188.203 53.2206 188.638 52.8005C189.029 52.3879 189.545 52.1154 190.107 52.0252C190.511 51.9575 190.921 51.9233 191.331 51.9232H192.555C193.041 51.8851 193.528 51.972 193.971 52.1755C194.414 52.3791 194.797 52.6925 195.085 53.0861C195.547 53.7017 195.778 54.4598 195.738 55.2283V58.5743C195.81 59.5801 195.521 60.5788 194.922 61.3897ZM211.1 73.0189C210.944 73.6033 210.673 74.1511 210.305 74.6307C209.924 75.0923 209.433 75.4502 208.877 75.6712C208.231 75.9401 207.536 76.072 206.836 76.0588H192.555C191.893 76.0195 191.254 75.8085 190.698 75.4467C190.019 75.0549 189.494 74.4432 189.209 73.7126V75.9568H181.558V64.9397H189.025V73.2637H192.677V63.7156H200.348V73.2637H202.389C202.584 73.2629 202.776 73.2164 202.949 73.1278C203.123 73.0392 203.273 72.911 203.388 72.7537C203.656 72.4643 203.809 72.0869 203.817 71.6928V64.9397H211.182V71.0603C211.23 71.7141 211.203 72.3713 211.1 73.0189ZM208.53 48.7405C208.237 49.1032 207.868 49.3959 207.448 49.5971C207.027 49.7983 206.568 49.903 206.102 49.9034H193.799C193.169 49.8713 192.569 49.6185 192.106 49.1893C191.559 48.7921 191.157 48.2257 190.964 47.5776V49.8626H183.456V39.9064H190.964V42.1914C191.159 41.577 191.528 41.0317 192.024 40.6205C192.502 40.1629 193.138 39.9072 193.799 39.9064H206.041C206.505 39.8988 206.966 39.9965 207.387 40.192C207.803 40.3783 208.188 40.6259 208.53 40.9265C208.848 41.2522 209.116 41.6235 209.325 42.0282C209.53 42.4402 209.635 42.8944 209.631 43.3543V45.9046C209.643 46.9566 209.249 47.9726 208.53 48.7405ZM189.719 55.8404C189.708 55.6049 189.614 55.3809 189.454 55.2079C189.369 55.1057 189.263 55.0234 189.144 54.9669C189.024 54.9105 188.893 54.8813 188.76 54.8815H187.679V59.5127H188.842C188.978 59.5096 189.112 59.4748 189.232 59.411C189.352 59.3473 189.456 59.2564 189.535 59.1455C189.693 58.9788 189.787 58.7622 189.801 58.5335L189.719 55.8404ZM201.96 43.9664C201.949 43.7957 201.9 43.6297 201.815 43.4812C201.73 43.3327 201.612 43.2056 201.471 43.1095C201.221 42.8713 200.897 42.727 200.552 42.7015H190.964V47.1083H200.859C201.02 47.1037 201.179 47.0605 201.321 46.9825C201.463 46.9044 201.584 46.7937 201.675 46.6595C201.864 46.4145 201.965 46.1123 201.96 45.8026V43.9664ZM210.509 61.4917C209.963 62.0335 209.236 62.3534 208.468 62.3894C207.401 62.4959 206.324 62.4616 205.265 62.2874C204.781 62.1777 204.353 61.8947 204.062 61.4917C203.753 61.0806 203.537 60.6072 203.429 60.1044V62.471H197.309V52.066H203.429V54.5143C203.582 53.9402 203.876 53.4139 204.286 52.9841C204.659 52.6023 205.146 52.3518 205.673 52.27C206.204 52.27 206.755 52.2292 207.326 52.1476C207.855 52.0958 208.388 52.0958 208.917 52.1476C209.247 52.1557 209.567 52.2623 209.835 52.4536C210.234 52.7446 210.565 53.1171 210.808 53.5463C211.05 53.9755 211.199 54.4516 211.243 54.9427V59.3087C211.289 60.0937 211.05 60.8689 210.57 61.4917H210.509ZM205.265 55.8404C205.272 55.6151 205.192 55.3959 205.041 55.2283C204.966 55.1466 204.875 55.0824 204.772 55.0401C204.67 54.9978 204.56 54.9784 204.449 54.9835H203.388V59.5536H204.204C204.475 59.5485 204.736 59.4472 204.939 59.2679C205.05 59.173 205.137 59.0535 205.194 58.9189C205.251 58.7843 205.275 58.6384 205.265 58.4926V55.8404Z" fill="white"/>
<path d="M239.051 37.3153C239.01 37.8995 239.01 38.4858 239.051 39.0699C239.079 39.6588 239.147 40.245 239.255 40.8245C239.348 41.3382 239.569 41.8203 239.897 42.2266C240.225 42.633 240.65 42.9506 241.132 43.1503V43.5584C239.366 44.0656 237.504 44.1356 235.705 43.7624C234.978 43.6158 234.286 43.3319 233.665 42.9259C233.055 42.5123 232.569 41.9412 232.257 41.2733C231.986 40.6769 231.8 40.0449 231.706 39.3963C231.706 38.7231 231.523 38.0294 231.441 37.3561H230.38C230.196 37.9398 229.92 38.4906 229.564 38.9883C229.172 39.553 228.736 40.0851 228.258 40.5797C227.756 41.1062 227.217 41.5971 226.647 42.0486C226.121 42.4957 225.569 42.9112 224.994 43.2931H231.359C231.313 43.8014 231.231 44.3059 231.115 44.8029C231.011 45.2815 230.854 45.7469 230.645 46.1902H235.521C236.009 46.1771 236.494 46.2707 236.941 46.4646C237.389 46.6584 237.789 46.9477 238.113 47.3123C238.741 48.004 239.083 48.908 239.071 49.8422V53.9226C239.07 54.3806 238.994 54.8353 238.847 55.2691C238.694 55.679 238.48 56.064 238.215 56.4116C237.877 56.8093 237.469 57.1413 237.011 57.3909C236.572 57.6487 236.071 57.7827 235.562 57.7786H229.217V64.0216C229.361 63.3369 229.718 62.7154 230.237 62.2466C230.616 61.8773 231.117 61.6596 231.645 61.6346H235.46C235.996 61.5991 236.533 61.6917 237.026 61.9045C237.519 62.1173 237.954 62.4444 238.296 62.8587C238.946 63.6798 239.273 64.7103 239.214 65.7558V71.2235C239.227 71.7527 239.137 72.2793 238.949 72.7741C238.763 73.2081 238.515 73.6134 238.215 73.9778C237.907 74.3388 237.526 74.6295 237.097 74.8301C236.667 75.0308 236.2 75.1367 235.726 75.1407H231.808C231.19 75.0994 230.608 74.8305 230.176 74.3858C229.684 73.9635 229.347 73.3892 229.217 72.7537V75.1407H221.852V53.2493C221.463 53.3615 221.068 53.45 220.669 53.5146L219.526 53.7186L219.322 53.3105C219.927 52.7011 220.493 52.0537 221.016 51.3723C221.561 50.6861 222.026 49.94 222.403 49.1485C223.224 47.516 223.697 45.7303 223.79 43.9052L221.75 44.7621C221.077 45.0477 220.404 45.3129 219.71 45.5374L219.445 45.2313C220.183 44.3146 220.8 43.3066 221.281 42.2322C221.81 41.0819 222.213 39.8781 222.485 38.6415C222.771 37.4532 222.976 36.2466 223.097 35.0303C223.237 33.7976 223.305 32.5578 223.301 31.3171H231.89C231.89 31.8612 231.829 32.4324 231.706 33.0309C231.649 33.524 231.54 34.0096 231.38 34.4795H243.621V37.3153H239.051ZM231.829 49.9646C231.844 49.8074 231.821 49.6488 231.76 49.5028C231.7 49.3569 231.604 49.2282 231.482 49.1281C231.255 48.9351 230.964 48.8333 230.666 48.8425H229.197V54.9631H230.666C230.824 54.9681 230.981 54.9377 231.126 54.8741C231.27 54.8106 231.399 54.7155 231.502 54.5959C231.609 54.4888 231.693 54.3613 231.749 54.2211C231.805 54.0809 231.832 53.9308 231.829 53.7798V49.9646ZM231.829 65.8578C231.83 65.6707 231.792 65.4855 231.718 65.3135C231.644 65.1415 231.536 64.9865 231.4 64.8581C231.271 64.723 231.116 64.6154 230.944 64.5418C230.772 64.4682 230.587 64.43 230.401 64.4296H229.238V72.3048H230.809C230.948 72.3017 231.084 72.267 231.208 72.2034C231.332 72.1398 231.439 72.0489 231.523 71.9376C231.702 71.7656 231.811 71.5328 231.829 71.2847V65.8578ZM256.699 47.8224V52.27H259.963C260.641 52.2412 261.318 52.3573 261.948 52.6106C262.577 52.8639 263.146 53.2486 263.615 53.739C264.334 54.5286 264.715 55.5687 264.676 56.6361V68.8773C264.667 69.4454 264.527 70.0038 264.268 70.5095C264.026 71.0131 263.678 71.4585 263.248 71.8152C262.843 72.1452 262.379 72.3945 261.881 72.5497C261.429 72.7099 260.953 72.7926 260.473 72.7945C259.823 72.7742 259.182 72.6431 258.576 72.4068C257.919 72.1602 257.29 71.8456 256.699 71.4683V75.9364H249.293V55.1875H247.253V73.1209H240.867V52.27H247.253V54.4939C247.389 53.9313 247.687 53.4209 248.11 53.0249C248.455 52.7141 248.857 52.4718 249.293 52.3108V47.8224H239.602V44.9865H265.737V47.8224H256.699ZM260.922 37.1725C260.797 38.4695 260.922 39.7784 261.289 41.0285C261.439 41.5108 261.689 41.9558 262.024 42.3342C262.345 42.6999 262.786 42.9387 263.268 43.0075V43.4564C262.348 43.7047 261.404 43.8552 260.453 43.9052C259.492 43.982 258.525 43.934 257.576 43.7624C256.855 43.619 256.164 43.3497 255.536 42.9667C254.893 42.5619 254.388 41.9714 254.087 41.2733C253.804 40.712 253.598 40.1149 253.475 39.4984C253.32 38.731 253.218 37.9539 253.169 37.1725H252.659C251.756 39.2662 250.232 41.0323 248.293 42.2322C246.243 43.5709 243.924 44.4417 241.499 44.7825L241.295 44.3744C242.178 43.4404 242.939 42.3984 243.56 41.2733C244.146 40.1846 244.631 39.044 245.008 37.8662C245.591 35.7347 245.825 33.5233 245.702 31.3171H254.128C254.128 31.766 253.985 32.2964 253.904 32.8881C253.845 33.3894 253.756 33.8867 253.638 34.3774H265.716V37.1725H260.922ZM258.596 57.4113C258.601 56.8872 258.444 56.3743 258.147 55.9424C257.974 55.7173 257.746 55.5396 257.486 55.4255C257.226 55.3114 256.941 55.2646 256.658 55.2895V69.8158H257.25C257.412 69.8369 257.577 69.8369 257.739 69.8158C257.86 69.8047 257.975 69.7634 258.075 69.6956C258.175 69.6278 258.256 69.5358 258.311 69.4281C258.491 69.2019 258.592 68.922 258.596 68.6325V57.4113Z" fill="white"/>
<path d="M320.536 46.3534C318.903 46.0789 317.303 45.6345 315.762 45.0273C314.186 44.3891 312.787 43.3815 311.682 42.0894V43.4155H297.298V42.2934C296.767 42.8323 296.201 43.3365 295.605 43.8032C294.973 44.3132 294.32 44.8233 293.565 45.2925C292.293 46.1367 290.923 46.8218 289.484 47.3327C289.732 47.7264 289.924 48.1519 290.056 48.5976C290.183 49.0623 290.231 49.5451 290.198 50.0258C290.198 52.9025 290.198 55.6976 290.198 58.3906C290.198 61.0837 290.341 63.736 290.505 66.3882C290.618 68.0012 291.07 69.5722 291.831 70.9991L291.565 71.3459C290.115 70.6207 288.873 69.5397 287.954 68.204C287.386 67.2123 287.057 66.1014 286.995 64.9601C286.832 62.7159 286.73 60.288 286.689 57.6766C286.689 55.0447 286.689 52.5148 286.689 50.087C286.664 49.6742 286.553 49.2712 286.363 48.9037C286.177 48.6045 285.917 48.3585 285.608 48.1896V76.0996H279.1V48.5364L278.447 49.0465L277.835 49.5565V63.838C277.846 65.4039 277.392 66.9379 276.529 68.2448C275.678 69.5577 274.567 70.6825 273.265 71.5499L272.918 71.2847C273.556 70.0682 274.003 68.7608 274.244 67.4083C274.473 66.0259 274.589 64.6271 274.591 63.2259V45.1905H277.835V46.6595C278.029 46.5024 278.233 46.3592 278.447 46.231L279.1 45.8026V41.1713H273.836V38.4374H279.1V31.0723H285.608V38.4374H290.423V41.1713H285.608V44.7213C286.967 45.0357 288.202 45.7456 289.158 46.7615C290.051 45.7945 290.775 44.6841 291.3 43.4767C291.939 42.0687 292.431 40.5989 292.769 39.0903C293.075 37.8263 293.306 36.5456 293.463 35.2547C293.608 33.9812 293.682 32.7008 293.687 31.4191H301.501C301.498 31.7615 301.463 32.1029 301.399 32.4392C302.728 31.7766 304.153 31.329 305.622 31.1131C306.507 30.987 307.401 30.9324 308.295 30.9499C309.219 30.9572 310.141 31.046 311.049 31.2151C311.747 31.3363 312.431 31.5277 313.09 31.7864C313.663 32.0048 314.189 32.3302 314.64 32.7453C315.51 33.6625 316.061 34.8359 316.211 36.0912C316.313 36.54 316.436 37.0297 316.538 37.5601C316.64 38.0906 316.803 38.6619 316.946 39.1923L317.435 40.7837C317.598 41.3141 317.762 41.7834 317.884 42.1914C318.392 43.6977 319.372 44.9999 320.679 45.9046L320.536 46.3534ZM320.536 76.6709C318.724 76.592 316.964 76.036 315.436 75.0591C313.877 74.086 312.536 72.8009 311.498 71.2847C310.232 72.7005 308.709 73.8635 307.01 74.7123C305.232 75.5768 303.322 76.1355 301.358 76.3648L301.256 75.9976C301.661 75.8236 302.044 75.6046 302.399 75.3447C302.746 75.0795 303.052 74.7939 303.337 74.5286C302.38 74.2237 301.462 73.8059 300.604 73.2841C299.721 72.7295 298.929 72.0412 298.257 71.2439C297.402 72.3412 296.367 73.2861 295.197 74.039C294.201 74.6966 293.134 75.2374 292.014 75.6507C290.924 76.0443 289.796 76.3247 288.648 76.4872L288.505 76.222C289.645 75.395 290.615 74.3559 291.361 73.1617C292.096 71.9988 292.672 70.7432 293.075 69.4281C293.447 68.3035 293.727 67.1503 293.912 65.9802C294.095 64.7969 294.258 63.6135 294.401 62.4098H301.603C301.603 62.9607 301.44 63.5115 301.318 64.1032C301.195 64.6949 301.073 65.1845 300.95 65.6742H302.215C302.35 66.9001 302.631 68.1056 303.052 69.2649C303.433 70.4198 304.028 71.4926 304.806 72.4272C305.653 70.9174 306.285 69.2968 306.683 67.6124C307.094 65.9012 307.381 64.1624 307.54 62.4098H314.599C314.599 62.9539 314.518 63.5047 314.355 64.0624C314.252 64.6337 314.15 65.1641 314.048 65.6742H316.089C316.261 67.3938 316.666 69.0821 317.292 70.6931C317.733 71.7269 318.244 72.729 318.823 73.6922C319.367 74.5959 320.018 75.4315 320.761 76.1812L320.536 76.6709ZM302.97 60.0636C302.655 60.3897 302.273 60.6441 301.85 60.8096C301.428 60.975 300.975 61.0476 300.522 61.0225H299.298C298.694 61.022 298.112 60.7965 297.666 60.39C297.194 60.0189 296.846 59.514 296.666 58.9415V60.9817H291.484V46.7003H296.666V48.516C296.889 47.9425 297.298 47.4609 297.829 47.1491C298.328 46.8737 298.891 46.7331 299.461 46.7411H300.583C301.02 46.7152 301.457 46.7901 301.86 46.9599C302.263 47.1297 302.622 47.3899 302.909 47.7204C303.44 48.3988 303.709 49.2467 303.664 50.1074V57.7582C303.737 58.5776 303.512 59.3959 303.031 60.0636H302.97ZM298.706 50.3726C298.691 50.1559 298.597 49.9524 298.441 49.8014C298.371 49.7249 298.286 49.6637 298.191 49.6216C298.096 49.5795 297.994 49.5573 297.89 49.5565H296.666V58.1866H297.931C298.122 58.174 298.302 58.0945 298.441 57.9622C298.524 57.8877 298.591 57.7965 298.637 57.6946C298.682 57.5927 298.706 57.4822 298.706 57.3705V50.3726ZM309.642 37.9886C309.295 37.0909 308.989 36.1932 308.703 35.2955C308.55 34.8985 308.288 34.5522 307.948 34.2958C307.625 34.0064 307.217 33.8277 306.785 33.7858C304.73 33.6674 302.683 34.1419 300.889 35.1527C300.696 36.1125 300.443 37.0596 300.134 37.9886C299.82 38.9121 299.374 39.785 298.808 40.5796H310.743C310.376 39.7432 310.09 38.8863 309.642 37.9886ZM317.129 60.1248C316.868 60.4073 316.553 60.6342 316.203 60.7919C315.852 60.9497 315.473 61.035 315.089 61.0429H313.253C312.665 61.0252 312.101 60.8013 311.661 60.4104C311.166 60.0364 310.802 59.515 310.621 58.9211V60.9613H305.398V46.6799H310.621V48.2508C310.871 47.7706 311.283 47.3946 311.784 47.1899C312.606 46.7813 313.518 46.585 314.436 46.6186C314.948 46.5775 315.462 46.6576 315.937 46.8526C316.412 47.0476 316.835 47.3519 317.17 47.7408C317.767 48.5077 318.071 49.4627 318.027 50.4338V57.799C318.04 58.2239 317.967 58.647 317.813 59.0431C317.659 59.4392 317.426 59.8002 317.129 60.1044V60.1248ZM312.722 50.7399C312.73 50.5853 312.704 50.431 312.648 50.2869C312.592 50.1427 312.506 50.0121 312.396 49.9034C312.293 49.7974 312.169 49.7138 312.032 49.6577C311.895 49.6015 311.748 49.574 311.6 49.5769H310.539V58.1866H311.967C312.164 58.1903 312.354 58.1171 312.498 57.9826C312.574 57.9008 312.634 57.8045 312.672 57.6993C312.711 57.5942 312.728 57.4824 312.722 57.3705V50.7399Z" fill="white"/>
<path d="M343.713 51.0459C343.713 51.7804 343.59 52.5352 343.488 53.3105C343.45 53.8617 343.275 54.3946 342.978 54.8611C342.721 55.2738 342.381 55.6282 341.979 55.9016C341.437 56.2397 340.845 56.4878 340.224 56.6361C339.551 56.787 338.87 56.896 338.184 56.9625L338.082 56.5544C338.551 56.2068 338.9 55.722 339.082 55.1671C339.261 54.6084 339.391 54.0349 339.469 53.4533C339.469 52.8821 339.571 52.27 339.612 51.6376C339.653 51.0051 339.612 50.393 339.612 49.8626L338.47 51.1479L337.266 52.4944V76.0588H330.105V58.0846L329.064 58.6355C328.677 58.8395 328.268 59.0435 327.84 59.2271L326.636 59.7372L325.637 60.1044L325.433 59.7576C327.852 57.118 329.999 54.2403 331.839 51.1683C333.64 48.1634 335.013 44.9224 335.919 41.5385C335.958 41.3981 335.958 41.2496 335.918 41.1093C335.879 40.969 335.802 40.8422 335.695 40.7429C335.606 40.6304 335.495 40.5377 335.369 40.4709C335.242 40.4041 335.103 40.3647 334.96 40.3552H327.146V37.5193H330.696V31.2151H338.653V37.5193H339.836C340.461 37.5088 341.079 37.6561 341.632 37.9478C342.155 38.231 342.614 38.6201 342.978 39.0903C343.282 39.5323 343.49 40.0325 343.59 40.5592C343.688 41.1172 343.653 41.6903 343.488 42.2322C343.114 43.3799 342.671 44.5041 342.162 45.5985C341.665 46.6883 341.085 47.7387 340.428 48.7405H343.794C343.809 49.5099 343.782 50.2795 343.713 51.0459ZM361.667 40.4572V44.5376H365.89C366.656 44.504 367.421 44.6422 368.127 44.9423C368.833 45.2424 369.463 45.6966 369.97 46.2718C370.874 47.3889 371.344 48.794 371.296 50.2298V71.5295C371.353 72.9905 370.841 74.4165 369.868 75.5079C369.335 75.9696 368.711 76.3151 368.036 76.5223C367.362 76.7295 366.652 76.794 365.951 76.7117C365.12 76.6668 364.313 76.4143 363.605 75.9772C362.879 75.5357 362.231 74.9774 361.687 74.3246V76.1608H354.322V64.5112H351.71V76.1404H344.611V67.7756C344.022 67.776 343.438 67.6866 342.876 67.5103C342.316 67.3238 341.787 67.0557 341.305 66.7147C340.776 66.3483 340.308 65.9008 339.918 65.3885C339.545 64.9116 339.274 64.363 339.122 63.7768C338.923 62.792 338.773 61.7979 338.674 60.7981C338.674 59.7984 338.49 58.7579 338.408 57.7786H342.734C342.734 58.9211 342.856 60.1248 342.917 61.3489C342.951 62.533 343.074 63.7128 343.284 64.8785C343.352 65.3062 343.49 65.7198 343.692 66.1026C343.915 66.4928 344.23 66.8221 344.611 67.0615V44.6193H351.71V46.9655C351.979 46.372 352.344 45.8273 352.792 45.3537C353.191 44.9192 353.721 44.6257 354.302 44.5172V40.4368H343.958V37.6622H354.302V31.0723H361.667V37.6622H372.439V40.4572H361.667ZM354.302 47.4143H351.71V53.0657H354.302V47.4143ZM354.302 55.8404H351.71V61.7366H354.302V55.8404ZM364.115 49.3933C364.115 49.1285 364.029 48.8707 363.87 48.6589C363.708 48.424 363.516 48.2113 363.299 48.0264C363.063 47.8305 362.793 47.6785 362.503 47.5775C362.236 47.4762 361.953 47.421 361.667 47.4143V53.0657H364.115V49.3933ZM364.115 55.8404H361.667V61.7366H364.115V55.8404ZM364.115 64.5316H361.667V72.5496C361.855 72.7177 362.068 72.8554 362.299 72.9577C362.583 73.0989 362.885 73.2018 363.197 73.2637C363.308 73.2878 363.423 73.2894 363.536 73.2683C363.648 73.2473 363.754 73.2041 363.85 73.1413C363.937 73.0706 364.007 72.9801 364.053 72.8773C364.099 72.7745 364.12 72.6622 364.115 72.5496V64.5316ZM370.603 36.4176C369.892 36.6154 369.157 36.7116 368.42 36.7033C367.733 36.7048 367.049 36.6295 366.38 36.4788C365.759 36.3359 365.175 36.0649 364.666 35.6832C364.007 35.2382 363.479 34.6254 363.136 33.9082C362.771 33.2164 362.49 32.4835 362.299 31.7252H369.256C369.395 32.208 369.572 32.6787 369.787 33.1329C369.985 33.6086 370.269 34.0441 370.623 34.4182C370.848 34.6737 371.127 34.8759 371.439 35.0099C371.774 35.1564 372.135 35.2328 372.5 35.2343L372.602 35.6832C371.968 36.009 371.297 36.2557 370.603 36.4176Z" fill="white"/>
<path d="M424.342 73.4473C423.963 74.1924 423.419 74.8412 422.751 75.3447C421.575 76.2073 420.122 76.6067 418.671 76.4668C417.837 76.3936 417.016 76.2224 416.222 75.9568C415.455 75.6913 414.722 75.3351 414.039 74.8959C413.362 74.4533 412.757 73.9097 412.244 73.2841C411.723 72.6821 411.315 71.9909 411.04 71.2439L411.407 70.9379C411.901 71.4671 412.48 71.9086 413.121 72.2436C413.712 72.5379 414.345 72.7375 414.998 72.8353C415.627 72.9604 416.28 72.8515 416.834 72.5292C417.142 72.3282 417.39 72.0476 417.552 71.7172C417.714 71.3868 417.783 71.0188 417.752 70.6523V45.1293C417.765 44.4493 417.542 43.7859 417.12 43.2523C416.932 43.0209 416.696 42.8334 416.428 42.703C416.161 42.5726 415.867 42.5024 415.569 42.4974H414.203V54.4326C414.23 57.4186 413.832 60.3933 413.019 63.2667C412.174 66.177 410.665 68.8516 408.612 71.0807C407.45 72.2604 406.132 73.2762 404.695 74.1002C403.158 74.9756 401.547 75.7129 399.88 76.3036L399.574 76.0588C400.673 74.8453 401.695 73.5643 402.635 72.2232C403.498 70.9625 404.184 69.5896 404.675 68.1428C402.847 69.1227 400.968 70.0013 399.044 70.7747C397.004 71.5499 395.127 72.2232 393.107 72.8149C391.087 73.4065 389.026 73.937 386.986 74.345C384.946 74.7531 382.906 75.1611 380.743 75.4875V67.7756C381.049 67.8576 381.365 67.8988 381.682 67.898C381.96 67.9297 382.24 67.9297 382.518 67.898V31.868H389.659V34.1734C389.851 33.5392 390.21 32.9684 390.699 32.5209C391.171 32.0683 391.801 31.8192 392.454 31.8272H398.146C398.774 31.8093 399.398 31.9277 399.976 32.1743C400.553 32.4208 401.071 32.7896 401.492 33.2553C401.889 33.7279 402.2 34.2665 402.41 34.8467C402.654 35.4991 402.779 36.1903 402.777 36.8869V66.2658C403.207 66.2544 403.636 66.2204 404.063 66.1638L405.511 65.8986C406.105 64.208 406.462 62.4435 406.572 60.6553C406.735 58.6151 406.837 56.5749 406.837 54.5346V42.4974H403.736V39.6412H406.837V31.1743H414.203V39.6412H419.67C420.366 39.6467 421.056 39.7709 421.71 40.0084C422.375 40.2224 422.982 40.5853 423.485 41.0693C423.96 41.5167 424.311 42.0788 424.506 42.7015C424.755 43.4021 424.879 44.141 424.873 44.8845V70.8359C424.904 71.736 424.723 72.6308 424.342 73.4473ZM395.473 36.7237C395.488 36.2044 395.33 35.695 395.025 35.2751C394.874 35.0669 394.674 34.8998 394.442 34.7893C394.211 34.6788 393.955 34.6284 393.698 34.6427H389.618V43.5584H395.412L395.473 36.7237ZM395.473 46.3126H389.659V55.6976H395.453L395.473 46.3126ZM395.473 58.5539H389.659V67.5512H391.005L392.617 67.4287L394.188 67.2859L395.453 67.1431L395.473 58.5539Z" fill="white"/>
<path d="M111.905 103.989L112.64 103.153C113.162 103.75 113.804 104.229 114.525 104.56C115.246 104.891 116.029 105.065 116.822 105.07C118.862 105.07 120.311 103.948 120.311 102.296C120.311 100.643 119.168 99.9904 117.74 99.3579L115.578 98.399C114.778 98.1685 114.068 97.699 113.543 97.0535C113.018 96.4081 112.703 95.6175 112.64 94.7879C112.667 94.2625 112.802 93.7482 113.035 93.2767C113.268 92.8052 113.596 92.3865 113.997 92.0464C114.399 91.7062 114.865 91.4517 115.369 91.2987C115.872 91.1456 116.401 91.0971 116.924 91.1563C117.689 91.1508 118.446 91.3038 119.148 91.6058C119.851 91.9078 120.483 92.3522 121.005 92.9109L120.352 93.6862C119.91 93.2228 119.378 92.8551 118.788 92.6059C118.199 92.3568 117.564 92.2314 116.924 92.2376C115.088 92.2376 113.843 93.1965 113.843 94.6859C113.843 96.1752 115.251 96.9505 116.271 97.4197L118.434 98.3582C120.086 99.0927 121.474 100.011 121.474 102.214C121.46 102.794 121.323 103.363 121.072 103.886C120.821 104.408 120.461 104.871 120.017 105.243C119.573 105.616 119.055 105.89 118.497 106.046C117.939 106.203 117.354 106.239 116.781 106.152C115.861 106.161 114.95 105.973 114.108 105.6C113.267 105.227 112.516 104.678 111.905 103.989Z" fill="white"/>
<path d="M123.535 100.602C123.473 99.9091 123.555 99.2103 123.776 98.5504C123.998 97.8904 124.354 97.2834 124.821 96.7678C125.289 96.2521 125.859 95.839 126.494 95.5544C127.129 95.2699 127.817 95.12 128.513 95.1143C129.674 95.1255 130.785 95.5862 131.614 96.3996L130.961 97.1953C130.65 96.8508 130.273 96.5721 129.853 96.3759C129.432 96.1796 128.977 96.0698 128.513 96.0528C127.967 96.0983 127.435 96.2533 126.95 96.5087C126.465 96.764 126.037 97.1145 125.69 97.5391C125.344 97.9638 125.086 98.4539 124.933 98.9802C124.78 99.5065 124.735 100.058 124.8 100.602C124.8 103.316 126.269 105.152 128.492 105.152C129.522 105.115 130.502 104.701 131.247 103.989L131.838 104.785C130.904 105.636 129.695 106.122 128.431 106.152C125.616 106.152 123.535 104.132 123.535 100.602Z" fill="white"/>
<path d="M134.307 95.3183H135.266L135.408 97.3585C135.66 96.7415 136.077 96.2058 136.613 95.8099C137.15 95.4141 137.784 95.1734 138.448 95.1143C138.818 95.0983 139.184 95.1829 139.509 95.3591L139.285 96.3792C138.976 96.2461 138.641 96.1834 138.305 96.1956C137.367 96.1956 136.265 96.8893 135.47 98.8683V105.968H134.307V95.3183Z" fill="white"/>
<path d="M140.346 100.602C140.29 99.9365 140.366 99.266 140.57 98.6295C140.774 97.993 141.101 97.4029 141.533 96.8931C141.965 96.3833 142.494 95.9637 143.088 95.6585C143.683 95.3533 144.332 95.1683 144.998 95.1143C147.568 95.1143 149.078 96.9301 149.078 100.031C149.1 100.31 149.1 100.589 149.078 100.868H141.529C141.488 101.412 141.556 101.959 141.73 102.476C141.903 102.994 142.179 103.471 142.54 103.88C142.902 104.289 143.342 104.622 143.834 104.858C144.326 105.094 144.861 105.228 145.406 105.254C146.416 105.26 147.401 104.946 148.221 104.356L148.65 105.193C147.663 105.881 146.486 106.244 145.283 106.233C144.576 106.227 143.879 106.072 143.236 105.777C142.593 105.482 142.02 105.055 141.554 104.524C141.088 103.992 140.739 103.368 140.531 102.692C140.323 102.016 140.26 101.304 140.346 100.602ZM148.038 99.868C148.038 97.3177 146.875 96.0324 145.018 96.0324C144.055 96.1003 143.155 96.5368 142.505 97.2511C141.856 97.9655 141.506 98.9027 141.529 99.868H148.038Z" fill="white"/>
<path d="M150.954 100.602C150.899 99.9301 150.978 99.2534 151.186 98.6118C151.395 97.9703 151.73 97.3768 152.17 96.8659C152.611 96.355 153.149 95.937 153.753 95.6362C154.357 95.3355 155.015 95.1581 155.688 95.1143C158.258 95.1143 159.768 96.9301 159.768 100.031C159.79 100.31 159.79 100.589 159.768 100.868H152.219C152.178 101.412 152.246 101.959 152.42 102.476C152.593 102.994 152.869 103.471 153.23 103.88C153.592 104.289 154.032 104.622 154.524 104.858C155.016 105.094 155.551 105.228 156.096 105.254C157.106 105.26 158.091 104.946 158.911 104.356L159.34 105.193C158.353 105.881 157.176 106.244 155.973 106.233C155.259 106.239 154.553 106.092 153.9 105.802C153.248 105.513 152.664 105.087 152.189 104.554C151.714 104.021 151.358 103.393 151.145 102.712C150.932 102.03 150.867 101.311 150.954 100.602ZM158.646 99.868C158.646 97.3177 157.483 96.0324 155.627 96.0324C154.663 96.1003 153.763 96.5368 153.114 97.2511C152.464 97.9655 152.114 98.9027 152.138 99.868H158.646Z" fill="white"/>
<path d="M162.604 95.3183H163.563L163.685 96.9097C164.601 95.8639 165.89 95.2192 167.276 95.1143C169.48 95.1143 170.479 96.4812 170.479 99.1947V105.968H169.337V99.1947C169.337 96.9913 168.643 95.9712 167.011 95.9712C165.787 95.9712 164.971 96.6241 163.665 97.889V105.805H162.522L162.604 95.3183Z" fill="white"/>
<path d="M174.05 91.85C174.044 91.726 174.064 91.6022 174.109 91.4867C174.155 91.3712 174.224 91.2666 174.313 91.1798C174.401 91.0931 174.507 91.0261 174.624 90.9834C174.74 90.9406 174.865 90.9231 174.988 90.9319C175.109 90.929 175.229 90.9508 175.34 90.9962C175.452 91.0416 175.553 91.1094 175.637 91.1956C175.721 91.2817 175.787 91.3843 175.83 91.4969C175.873 91.6094 175.892 91.7296 175.886 91.85C175.886 92.0935 175.789 92.327 175.617 92.4992C175.445 92.6713 175.211 92.7681 174.968 92.7681C174.724 92.7681 174.491 92.6713 174.319 92.4992C174.147 92.327 174.05 92.0935 174.05 91.85ZM174.376 95.3183H175.539V105.887H174.376V95.3183Z" fill="white"/>
<path d="M179.518 95.3183H180.456L180.599 96.9097C181.056 96.3854 181.612 95.9568 182.235 95.6486C182.858 95.3405 183.537 95.1589 184.23 95.1143C186.434 95.1143 187.454 96.4812 187.454 99.1947V105.968H186.311V99.1947C186.311 96.9913 185.618 95.9712 183.986 95.9712C182.741 95.9712 181.945 96.6241 180.64 97.889V105.805H179.518V95.3183Z" fill="white"/>
<path d="M190.371 108.049C190.411 107.53 190.576 107.028 190.854 106.587C191.131 106.146 191.512 105.78 191.962 105.519V105.417C191.671 105.235 191.431 104.983 191.263 104.683C191.096 104.384 191.006 104.047 191.004 103.704C191.025 103.294 191.144 102.896 191.35 102.541C191.555 102.186 191.842 101.886 192.187 101.663C191.77 101.308 191.434 100.867 191.202 100.371C190.97 99.8747 190.846 99.3345 190.84 98.7867C190.84 98.1678 190.992 97.5583 191.283 97.0125C191.575 96.4666 191.997 96.0014 192.512 95.6581C193.027 95.3148 193.619 95.1041 194.235 95.0448C194.851 94.9856 195.472 95.0795 196.043 95.3183H199.654V96.2568H197.267C197.62 96.5799 197.901 96.9742 198.091 97.4138C198.281 97.8534 198.376 98.3283 198.369 98.8071C198.38 99.3004 198.291 99.7909 198.107 100.249C197.924 100.707 197.649 101.123 197.3 101.472C196.951 101.821 196.535 102.095 196.077 102.279C195.619 102.463 195.128 102.552 194.635 102.541C194.035 102.542 193.444 102.387 192.921 102.092C192.676 102.253 192.472 102.47 192.326 102.726C192.181 102.981 192.098 103.267 192.085 103.561C192.085 104.316 192.534 104.907 194.125 104.907H196.349C198.695 104.907 199.919 105.662 199.919 107.356C199.919 109.049 197.879 110.967 194.819 110.967C192.105 110.946 190.371 109.824 190.371 108.049ZM198.675 107.498C198.675 106.376 197.838 105.948 196.267 105.948H194.105C193.659 105.926 193.216 105.872 192.779 105.785C192.413 105.995 192.104 106.29 191.877 106.646C191.65 107.001 191.511 107.405 191.473 107.825C191.473 109.11 192.717 109.987 194.88 109.987C197.043 109.987 198.675 108.763 198.675 107.498ZM197.247 98.7867C197.247 98.0887 196.969 97.4192 196.476 96.9257C195.982 96.4321 195.313 96.1548 194.615 96.1548C193.917 96.1548 193.247 96.4321 192.754 96.9257C192.26 97.4192 191.983 98.0887 191.983 98.7867C191.936 99.1598 191.97 99.5386 192.081 99.8978C192.192 100.257 192.378 100.589 192.627 100.871C192.875 101.152 193.181 101.378 193.524 101.533C193.867 101.687 194.239 101.767 194.615 101.767C194.991 101.767 195.362 101.687 195.705 101.533C196.048 101.378 196.354 101.152 196.603 100.871C196.852 100.589 197.038 100.257 197.149 99.8978C197.26 99.5386 197.293 99.1598 197.247 98.7867Z" fill="white"/>
<path d="M206.653 96.2772H205.184V95.3999H206.653V93.0741C206.653 91.0339 207.591 89.8506 209.366 89.8506C209.911 89.8665 210.45 89.9769 210.957 90.177L210.672 91.1155C210.285 90.9206 209.86 90.8159 209.427 90.8095C208.305 90.8095 207.795 91.646 207.795 93.1353V95.3183H210.121V96.2772H207.795V105.887H206.653V96.2772Z" fill="white"/>
<path d="M211.304 100.602C211.203 99.9156 211.252 99.2151 211.446 98.5487C211.64 97.8823 211.976 97.2655 212.43 96.7403C212.884 96.2151 213.445 95.7937 214.077 95.505C214.708 95.2162 215.394 95.0667 216.088 95.0667C216.782 95.0667 217.468 95.2162 218.1 95.505C218.731 95.7937 219.293 96.2151 219.747 96.7403C220.2 97.2655 220.536 97.8823 220.73 98.5487C220.925 99.2151 220.973 99.9156 220.872 100.602C220.973 101.289 220.925 101.99 220.73 102.656C220.536 103.323 220.2 103.939 219.747 104.465C219.293 104.99 218.731 105.411 218.1 105.7C217.468 105.989 216.782 106.138 216.088 106.138C215.394 106.138 214.708 105.989 214.077 105.7C213.445 105.411 212.884 104.99 212.43 104.465C211.976 103.939 211.64 103.323 211.446 102.656C211.252 101.99 211.203 101.289 211.304 100.602ZM219.669 100.602C219.669 97.9094 218.159 96.0528 216.078 96.0528C213.997 96.0528 212.508 97.9094 212.508 100.602C212.508 103.296 214.017 105.152 216.078 105.152C218.139 105.152 219.669 103.275 219.669 100.602Z" fill="white"/>
<path d="M223.973 95.3183H224.932L225.055 97.3585C225.305 96.7485 225.717 96.2178 226.245 95.8226C226.773 95.4275 227.398 95.1827 228.054 95.1143C228.43 95.0945 228.804 95.1793 229.135 95.3591L228.89 96.3792C228.59 96.2413 228.261 96.1783 227.931 96.1956C226.993 96.1956 225.891 96.8893 225.075 98.8683V105.968H223.933L223.973 95.3183Z" fill="white"/>
<path d="M235.644 91.4215H243.621V92.4212H236.827V98.0114H242.56V99.0315H236.827V105.887H235.644V91.4215Z" fill="white"/>
<path d="M244.947 100.602C244.846 99.9156 244.894 99.2151 245.089 98.5487C245.283 97.8823 245.619 97.2655 246.072 96.7403C246.526 96.2151 247.088 95.7937 247.719 95.505C248.351 95.2162 249.037 95.0667 249.731 95.0667C250.425 95.0667 251.111 95.2162 251.742 95.505C252.374 95.7937 252.935 96.2151 253.389 96.7403C253.843 97.2655 254.179 97.8823 254.373 98.5487C254.567 99.2151 254.616 99.9156 254.515 100.602C254.616 101.289 254.567 101.99 254.373 102.656C254.179 103.323 253.843 103.939 253.389 104.465C252.935 104.99 252.374 105.411 251.742 105.7C251.111 105.989 250.425 106.138 249.731 106.138C249.037 106.138 248.351 105.989 247.719 105.7C247.088 105.411 246.526 104.99 246.072 104.465C245.619 103.939 245.283 103.323 245.089 102.656C244.894 101.99 244.846 101.289 244.947 100.602ZM253.332 100.602C253.332 97.9094 251.802 96.0528 249.741 96.0528C247.68 96.0528 246.171 97.9094 246.171 100.602C246.171 103.296 247.68 105.152 249.741 105.152C251.802 105.152 253.332 103.275 253.332 100.602Z" fill="white"/>
<path d="M257.474 102.071V95.3183H258.616V101.949C258.616 104.112 259.289 105.111 260.922 105.111C262.146 105.111 262.962 104.479 264.227 103.071V95.3183H265.369V105.887H264.39V104.152C263.984 104.742 263.451 105.231 262.829 105.585C262.207 105.938 261.513 106.146 260.799 106.193C258.453 106.152 257.474 104.805 257.474 102.071Z" fill="white"/>
<path d="M269.286 95.3183H270.245L270.388 97.3585C270.637 96.7472 271.047 96.2153 271.576 95.8199C272.104 95.4245 272.73 95.1806 273.387 95.1143C273.756 95.0983 274.123 95.1829 274.448 95.3591L274.203 96.3792C273.903 96.2413 273.574 96.1783 273.244 96.1956C272.306 96.1956 271.204 96.8893 270.388 98.8683V105.968H269.286V95.3183Z" fill="white"/>
<path d="M281.018 91.4215H282.609L285.608 99.7456L286.73 102.908C287.097 101.867 287.444 100.868 287.811 99.7456L290.79 91.4215H292.361V105.887H291.239V96.7261C291.239 95.5224 291.239 93.931 291.382 92.6457L290.239 95.8896L287.199 104.254H286.261L283.201 95.8896L282.058 92.6457C282.058 93.8494 282.201 95.4407 282.201 96.7261V105.887H281.12L281.018 91.4215Z" fill="white"/>
<path d="M295.81 103.275C295.81 100.929 297.85 99.8272 302.563 99.1947C302.563 97.6237 302.155 96.012 300.135 96.012C298.927 96.0527 297.763 96.474 296.809 97.2157L296.299 96.3792C297.488 95.5146 298.91 95.0308 300.38 94.9919C302.909 94.9919 303.807 96.7873 303.807 99.0723V105.785H302.828L302.705 104.438C301.692 105.377 300.39 105.945 299.013 106.05C298.615 106.109 298.209 106.081 297.822 105.968C297.436 105.855 297.079 105.661 296.775 105.397C296.47 105.134 296.227 104.808 296.06 104.442C295.894 104.075 295.808 103.677 295.81 103.275ZM302.563 103.581V100.092C298.482 100.562 296.973 101.541 296.973 103.173C296.948 103.458 296.988 103.745 297.09 104.012C297.192 104.279 297.353 104.52 297.561 104.716C297.769 104.912 298.018 105.059 298.291 105.145C298.564 105.231 298.852 105.254 299.135 105.213C300.44 105.103 301.657 104.506 302.542 103.54L302.563 103.581Z" fill="white"/>
<path d="M304.644 110.599L304.909 109.681C305.26 109.819 305.633 109.895 306.01 109.906C307.173 109.906 307.398 108.967 307.398 107.641V95.3999H308.561V107.764C308.561 109.804 307.785 110.967 306.072 110.967C305.575 110.946 305.089 110.82 304.644 110.599ZM307.031 91.85C307.031 91.6065 307.127 91.373 307.299 91.2008C307.472 91.0286 307.705 90.9319 307.949 90.9319C308.192 90.9319 308.426 91.0286 308.598 91.2008C308.77 91.373 308.867 91.6065 308.867 91.85C308.867 92.0935 308.77 92.327 308.598 92.4992C308.426 92.6713 308.192 92.7681 307.949 92.7681C307.705 92.7681 307.472 92.6713 307.299 92.4992C307.127 92.327 307.031 92.0935 307.031 91.85Z" fill="white"/>
<path d="M311.641 100.602C311.54 99.9156 311.589 99.2151 311.783 98.5487C311.977 97.8823 312.313 97.2655 312.767 96.7403C313.221 96.2151 313.782 95.7937 314.414 95.505C315.045 95.2162 315.731 95.0667 316.425 95.0667C317.119 95.0667 317.805 95.2162 318.437 95.505C319.068 95.7937 319.63 96.2151 320.084 96.7403C320.537 97.2655 320.873 97.8823 321.067 98.5487C321.262 99.2151 321.31 99.9156 321.209 100.602C321.31 101.289 321.262 101.99 321.067 102.656C320.873 103.323 320.537 103.939 320.084 104.465C319.63 104.99 319.068 105.411 318.437 105.7C317.805 105.989 317.119 106.138 316.425 106.138C315.731 106.138 315.045 105.989 314.414 105.7C313.782 105.411 313.221 104.99 312.767 104.465C312.313 103.939 311.977 103.323 311.783 102.656C311.589 101.99 311.54 101.289 311.641 100.602ZM320.026 100.602C320.026 97.9094 318.496 96.0528 316.435 96.0528C314.375 96.0528 312.865 97.9094 312.865 100.602C312.865 103.296 314.375 105.152 316.435 105.152C318.496 105.152 320.026 103.275 320.026 100.602Z" fill="white"/>
<path d="M324.372 95.3183H325.331L325.474 97.3585C325.723 96.7513 326.131 96.2224 326.655 95.8275C327.179 95.4326 327.8 95.1862 328.453 95.1143C328.828 95.1006 329.201 95.1849 329.534 95.3591L329.289 96.3792C328.981 96.244 328.646 96.1812 328.31 96.1956C327.371 96.1956 326.269 96.8893 325.474 98.8683V105.968H324.372V95.3183Z" fill="white"/>
<path d="M335.062 98.6439C335.062 94.0126 337.633 91.1563 341.306 91.1563C342.031 91.1545 342.747 91.3105 343.406 91.6135C344.065 91.9165 344.65 92.3592 345.121 92.9109L344.447 93.6862C344.062 93.2293 343.581 92.8627 343.038 92.6124C342.495 92.3621 341.903 92.2341 341.306 92.2376C338.245 92.2376 336.327 94.6859 336.327 98.6031C336.327 102.52 338.204 105.071 341.244 105.071C341.929 105.051 342.6 104.88 343.211 104.569C343.821 104.259 344.355 103.817 344.774 103.275L345.447 104.03C344.931 104.679 344.272 105.201 343.522 105.554C342.772 105.908 341.951 106.085 341.122 106.07C337.613 106.152 335.062 103.275 335.062 98.6439Z" fill="white"/>
<path d="M347.59 103.275C347.59 100.929 349.63 99.8272 354.343 99.1947C354.343 97.6237 353.914 96.012 351.915 96.012C350.701 96.0526 349.531 96.4737 348.569 97.2157L348.059 96.3792C349.252 95.5225 350.672 95.0396 352.139 94.9919C354.649 94.9919 355.547 96.7873 355.547 99.0723V105.785H354.588L354.465 104.438C353.452 105.377 352.15 105.945 350.773 106.05C350.376 106.105 349.972 106.075 349.588 105.961C349.205 105.847 348.85 105.652 348.548 105.389C348.246 105.125 348.005 104.801 347.839 104.436C347.674 104.071 347.589 103.675 347.59 103.275ZM354.343 103.581V100.092C350.161 100.562 348.732 101.541 348.732 103.173C348.708 103.458 348.748 103.745 348.85 104.012C348.952 104.279 349.113 104.52 349.321 104.716C349.529 104.912 349.778 105.059 350.051 105.145C350.324 105.231 350.612 105.254 350.895 105.213C352.214 105.109 353.445 104.511 354.343 103.54V103.581Z" fill="white"/>
<path d="M359.178 95.3183H360.136L360.279 96.9097C360.725 96.3711 361.274 95.9274 361.894 95.605C362.515 95.2826 363.193 95.0879 363.89 95.0327C366.094 95.0327 367.114 96.3996 367.114 99.1131V105.887H365.951V99.1947C365.951 96.9913 365.257 95.9712 363.625 95.9712C362.401 95.9712 361.585 96.624 360.3 97.889V105.805H359.137L359.178 95.3183Z" fill="white"/>
<path d="M370.093 100.602C370.022 99.91 370.095 99.2104 370.308 98.5475C370.52 97.8846 370.867 97.2726 371.326 96.7498C371.786 96.2271 372.348 95.8047 372.979 95.5093C373.609 95.2138 374.293 95.0516 374.989 95.0327C376.151 95.0396 377.264 95.5009 378.09 96.318L377.417 97.1545C376.78 96.4935 375.907 96.112 374.989 96.0936C374.449 96.1419 373.923 96.2976 373.443 96.5515C372.964 96.8054 372.54 97.1525 372.196 97.5724C371.852 97.9922 371.595 98.4765 371.441 98.9968C371.286 99.5171 371.237 100.063 371.296 100.602C371.296 103.316 372.765 105.152 374.989 105.152C376.025 105.116 377.012 104.703 377.764 103.989L378.335 104.785C377.408 105.635 376.205 106.12 374.948 106.152C374.251 106.149 373.562 105.998 372.928 105.708C372.293 105.419 371.728 104.998 371.268 104.473C370.809 103.948 370.467 103.331 370.264 102.664C370.061 101.997 370.003 101.294 370.093 100.602Z" fill="white"/>
<path d="M379.6 100.602C379.541 99.9375 379.615 99.2676 379.816 98.6312C380.017 97.9948 380.343 97.4045 380.773 96.8943C381.204 96.3842 381.731 95.9643 382.324 95.6588C382.918 95.3533 383.566 95.1682 384.231 95.1143C386.802 95.1143 388.312 96.9301 388.312 100.031C388.333 100.31 388.333 100.589 388.312 100.868H380.804C380.762 101.412 380.83 101.959 381.004 102.476C381.178 102.994 381.453 103.471 381.815 103.88C382.176 104.289 382.616 104.622 383.108 104.858C383.6 105.094 384.135 105.228 384.68 105.254C385.69 105.26 386.676 104.946 387.496 104.356L387.924 105.193C386.939 105.885 385.761 106.249 384.558 106.233C383.849 106.23 383.149 106.077 382.504 105.783C381.859 105.49 381.283 105.063 380.814 104.531C380.346 103.999 379.996 103.374 379.786 102.697C379.577 102.02 379.514 101.306 379.6 100.602ZM387.271 99.868C387.271 97.3177 386.108 96.0324 384.252 96.0324C383.29 96.1052 382.393 96.5431 381.744 97.2563C381.096 97.9696 380.744 98.904 380.763 99.868H387.271Z" fill="white"/>
<path d="M391.148 95.3183H392.107L392.25 97.3585C392.499 96.7472 392.909 96.2153 393.438 95.8199C393.966 95.4245 394.592 95.1806 395.249 95.1143C395.618 95.0983 395.985 95.1829 396.31 95.3591L396.085 96.3792C395.777 96.2461 395.442 96.1834 395.106 96.1956C394.168 96.1956 393.066 96.8893 392.27 98.8683V105.968H391.107L391.148 95.3183Z" fill="white"/>
<path d="M397.003 104.703L397.615 103.867C398.515 104.715 399.704 105.189 400.941 105.193C402.552 105.193 403.368 104.295 403.368 103.153C403.368 102.01 402.042 101.317 400.798 100.888C399.247 100.337 397.574 99.6844 397.574 97.8482C397.574 96.012 398.798 94.9919 401.043 94.9919C402.166 95.0105 403.251 95.4056 404.123 96.114L403.511 96.9097C402.815 96.3191 401.935 95.9875 401.022 95.9712C399.431 95.9712 398.717 96.8281 398.717 97.787C398.717 98.7459 399.88 99.3987 401.104 99.8272C402.736 100.439 404.511 101.031 404.511 103.071C404.511 104.703 403.226 106.091 400.879 106.091C399.466 106.09 398.096 105.599 397.003 104.703Z" fill="white"/>
<path d="M411.774 89.3813H412.652V111.436H411.774V89.3813Z" fill="white"/>
<path d="M424.342 92.4212H419.792V91.4215H430.136V92.4212H425.566V105.887H424.342V92.4212Z" fill="white"/>
<path d="M430.319 103.275C430.319 100.929 432.36 99.8272 437.072 99.1947C437.072 97.6237 436.644 96.012 434.645 96.012C433.431 96.0526 432.26 96.4737 431.299 97.2157L430.789 96.3792C431.981 95.5225 433.401 95.0396 434.869 94.9919C437.378 94.9919 438.276 96.7873 438.276 99.0723V105.785H437.297L437.174 104.438C436.155 105.381 434.846 105.949 433.461 106.05C433.068 106.099 432.669 106.064 432.29 105.947C431.911 105.83 431.561 105.634 431.264 105.371C430.967 105.109 430.729 104.786 430.566 104.425C430.403 104.063 430.319 103.672 430.319 103.275ZM437.072 103.581V100.092C432.89 100.562 431.462 101.541 431.462 103.173C431.437 103.458 431.478 103.745 431.579 104.012C431.681 104.279 431.842 104.52 432.05 104.716C432.258 104.912 432.508 105.059 432.78 105.145C433.053 105.231 433.342 105.254 433.624 105.213C434.943 105.109 436.174 104.511 437.072 103.54V103.581Z" fill="white"/>
<path d="M441.582 91.85C441.582 91.6065 441.679 91.373 441.851 91.2008C442.023 91.0286 442.257 90.9319 442.5 90.9319C442.744 90.9319 442.977 91.0286 443.149 91.2008C443.321 91.373 443.418 91.6065 443.418 91.85C443.418 92.0935 443.321 92.327 443.149 92.4992C442.977 92.6713 442.744 92.7681 442.5 92.7681C442.257 92.7681 442.023 92.6713 441.851 92.4992C441.679 92.327 441.582 92.0935 441.582 91.85ZM441.908 95.3183H443.071V105.887H441.908V95.3183Z" fill="white"/>
<path d="M446.152 100.602C446.082 99.91 446.155 99.2104 446.367 98.5475C446.579 97.8846 446.926 97.2726 447.386 96.7498C447.845 96.2271 448.408 95.8047 449.038 95.5093C449.668 95.2138 450.353 95.0516 451.048 95.0327C452.209 95.0439 453.321 95.5046 454.15 96.318L453.497 97.1137C452.86 96.4527 451.987 96.0712 451.069 96.0528C450.523 96.0983 449.991 96.2533 449.506 96.5087C449.021 96.764 448.593 97.1145 448.246 97.5391C447.9 97.9638 447.642 98.4538 447.489 98.9802C447.336 99.5065 447.291 100.058 447.356 100.602C447.356 103.316 448.825 105.152 451.048 105.152C452.078 105.115 453.058 104.701 453.803 103.989L454.394 104.785C453.46 105.636 452.251 106.122 450.987 106.152C448.233 106.152 446.152 104.132 446.152 100.602Z" fill="white"/>
<path d="M456.985 90.0954H458.148V96.9301C458.588 96.4095 459.126 95.981 459.732 95.6694C460.337 95.3577 460.999 95.1691 461.678 95.1143C463.881 95.1143 464.901 96.4812 464.901 99.1947V105.968H463.738V99.1947C463.738 96.9913 463.045 95.9712 461.413 95.9712C460.188 95.9712 459.372 96.624 458.087 97.889V105.805H456.985V90.0954Z" fill="white"/>
<path d="M468.472 102.071V95.3183H469.635V101.949C469.635 104.112 470.308 105.111 471.92 105.111C473.164 105.111 473.96 104.479 475.225 103.071V95.3183H476.388V105.887H475.347L475.245 104.152C474.843 104.74 474.313 105.229 473.694 105.582C473.076 105.936 472.385 106.144 471.675 106.193C469.471 106.152 468.472 104.805 468.472 102.071Z" fill="white"/>
<path d="M480.346 95.3183H481.304L481.447 96.9097C481.894 96.3728 482.444 95.9303 483.064 95.608C483.684 95.2858 484.362 95.0902 485.058 95.0327C487.262 95.0327 488.282 96.3996 488.282 99.1131V105.887H487.119V99.1947C487.119 96.9913 486.425 95.9712 484.793 95.9712C483.569 95.9712 482.753 96.624 481.468 97.889V105.805H480.305L480.346 95.3183Z" fill="white"/>
<path d="M491.24 108.049C491.28 107.53 491.445 107.028 491.723 106.587C492 106.146 492.381 105.78 492.832 105.519V105.417C492.541 105.235 492.3 104.983 492.132 104.683C491.965 104.384 491.875 104.047 491.873 103.704C491.894 103.294 492.013 102.896 492.219 102.541C492.424 102.186 492.711 101.886 493.056 101.663C492.632 101.312 492.288 100.873 492.049 100.376C491.809 99.8799 491.68 99.3377 491.669 98.7867C491.671 98.293 491.773 97.8048 491.967 97.351C492.161 96.8972 492.445 96.4869 492.8 96.1445C493.156 95.8022 493.577 95.5346 494.038 95.3576C494.499 95.1807 494.99 95.0979 495.484 95.1143C495.974 95.1154 496.459 95.2124 496.912 95.3999H500.523V96.3384H498.136C498.487 96.6625 498.765 97.0575 498.951 97.4972C499.138 97.9369 499.228 98.4112 499.217 98.8887C499.232 99.3828 499.145 99.8746 498.962 100.334C498.779 100.793 498.505 101.211 498.155 101.56C497.806 101.91 497.388 102.184 496.929 102.367C496.47 102.549 495.978 102.636 495.484 102.622C494.89 102.621 494.307 102.466 493.79 102.173C493.545 102.335 493.341 102.552 493.195 102.807C493.05 103.063 492.967 103.349 492.954 103.642C492.954 104.397 493.403 104.989 494.994 104.989H497.218C499.625 104.989 500.748 105.744 500.748 107.417C500.748 109.09 498.707 111.028 495.668 111.028C492.974 110.946 491.24 109.824 491.24 108.049ZM499.544 107.498C499.544 106.376 498.707 105.948 497.136 105.948H494.974C494.528 105.927 494.085 105.873 493.648 105.785C493.283 105.995 492.973 106.29 492.746 106.646C492.519 107.001 492.38 107.405 492.342 107.825C492.342 109.11 493.586 109.987 495.749 109.987C497.912 109.987 499.544 108.763 499.544 107.498ZM498.116 98.7867C498.116 98.0887 497.838 97.4192 497.345 96.9257C496.851 96.4321 496.182 96.1548 495.484 96.1548C494.786 96.1548 494.116 96.4321 493.623 96.9257C493.129 97.4192 492.852 98.0887 492.852 98.7867C492.805 99.1598 492.839 99.5386 492.95 99.8978C493.061 100.257 493.247 100.589 493.496 100.871C493.745 101.152 494.051 101.378 494.393 101.533C494.736 101.687 495.108 101.767 495.484 101.767C495.86 101.767 496.232 101.687 496.574 101.533C496.917 101.378 497.223 101.152 497.472 100.871C497.721 100.589 497.907 100.257 498.018 99.8978C498.129 99.5386 498.162 99.1598 498.116 98.7867Z" fill="white"/>
<path d="M505.42 91.4215H506.705L509.296 99.7456C509.827 101.48 510.214 102.826 510.786 104.581C511.377 102.826 511.765 101.48 512.316 99.7456L514.907 91.4215H516.151L511.439 105.887H510.133L505.42 91.4215Z" fill="white"/>
<path d="M517.089 100.602C517.034 99.9365 517.11 99.266 517.313 98.6295C517.517 97.993 517.844 97.4029 518.276 96.8931C518.708 96.3833 519.237 95.9637 519.832 95.6585C520.426 95.3533 521.075 95.1683 521.741 95.1143C524.291 95.1143 525.822 96.9301 525.822 100.031C525.843 100.31 525.843 100.589 525.822 100.868H518.191C518.15 101.412 518.218 101.959 518.391 102.476C518.565 102.994 518.841 103.471 519.202 103.88C519.564 104.289 520.003 104.622 520.496 104.858C520.988 105.094 521.522 105.228 522.067 105.254C523.078 105.263 524.064 104.948 524.883 104.356L525.332 105.193C524.337 105.881 523.154 106.245 521.945 106.233C521.245 106.216 520.556 106.052 519.923 105.752C519.29 105.453 518.727 105.024 518.27 104.494C517.812 103.963 517.471 103.343 517.268 102.673C517.065 102.003 517.004 101.298 517.089 100.602ZM524.781 99.868C524.781 97.3177 523.598 96.0324 521.761 96.0324C520.786 96.0851 519.868 96.5143 519.202 97.2296C518.536 97.945 518.174 98.8908 518.191 99.868H524.781Z" fill="white"/>
<path d="M528.658 95.3183H529.596L529.739 97.3585C529.99 96.7485 530.401 96.2178 530.929 95.8226C531.457 95.4275 532.082 95.1827 532.738 95.1143C533.115 95.0945 533.489 95.1793 533.82 95.3591L533.575 96.3792C533.267 96.2441 532.932 96.1812 532.596 96.1956C531.677 96.1956 530.555 96.8893 529.76 98.8683V105.968H528.617L528.658 95.3183Z" fill="white"/>
<path d="M534.513 104.703L535.125 103.867C536.036 104.711 537.229 105.184 538.471 105.193C540.082 105.193 540.878 104.295 540.878 103.153C540.878 102.01 539.552 101.317 538.328 100.888C536.757 100.337 535.084 99.6844 535.084 97.8482C535.084 96.012 536.308 95.1143 538.593 95.1143C539.711 95.1327 540.789 95.5281 541.653 96.2364L541.041 97.0321C540.35 96.4459 539.479 96.1146 538.573 96.0936C536.981 96.0936 536.267 96.9505 536.267 97.9094C536.267 98.8683 537.41 99.5211 538.654 99.9496C540.266 100.562 542.061 101.153 542.061 103.194C542.061 104.826 540.776 106.213 538.43 106.213C536.989 106.175 535.606 105.642 534.513 104.703Z" fill="white"/>
<path d="M544.429 91.85C544.423 91.726 544.443 91.6022 544.488 91.4867C544.534 91.3712 544.603 91.2666 544.692 91.1798C544.78 91.0931 544.886 91.0261 545.003 90.9834C545.119 90.9406 545.244 90.9231 545.367 90.9319C545.488 90.929 545.607 90.9508 545.719 90.9962C545.831 91.0416 545.932 91.1094 546.016 91.1956C546.1 91.2817 546.166 91.3843 546.209 91.4969C546.251 91.6094 546.271 91.7296 546.265 91.85C546.265 92.0935 546.168 92.327 545.996 92.4992C545.824 92.6713 545.59 92.7681 545.347 92.7681C545.103 92.7681 544.87 92.6713 544.698 92.4992C544.526 92.327 544.429 92.0935 544.429 91.85ZM544.755 95.3183H545.918V105.887H544.714L544.755 95.3183Z" fill="white"/>
<path d="M548.998 100.602C548.898 99.9156 548.946 99.2151 549.14 98.5487C549.335 97.8823 549.67 97.2655 550.124 96.7403C550.578 96.2151 551.14 95.7937 551.771 95.505C552.402 95.2162 553.088 95.0667 553.783 95.0667C554.477 95.0667 555.163 95.2162 555.794 95.505C556.425 95.7937 556.987 96.2151 557.441 96.7403C557.895 97.2655 558.23 97.8823 558.425 98.5487C558.619 99.2151 558.667 99.9156 558.567 100.602C558.667 101.289 558.619 101.99 558.425 102.656C558.23 103.323 557.895 103.939 557.441 104.465C556.987 104.99 556.425 105.411 555.794 105.7C555.163 105.989 554.477 106.138 553.783 106.138C553.088 106.138 552.402 105.989 551.771 105.7C551.14 105.411 550.578 104.99 550.124 104.465C549.67 103.939 549.335 103.323 549.14 102.656C548.946 101.99 548.898 101.289 548.998 100.602ZM557.384 100.602C557.384 97.9094 555.853 96.0528 553.772 96.0528C551.691 96.0528 550.202 97.9094 550.202 100.602C550.202 103.296 551.712 105.152 553.772 105.152C555.833 105.152 557.384 103.275 557.384 100.602Z" fill="white"/>
<path d="M561.668 95.3183H562.627L562.769 96.9097C563.215 96.3711 563.764 95.9274 564.385 95.605C565.005 95.2826 565.684 95.0879 566.381 95.0327C568.584 95.0327 569.584 96.3996 569.584 99.1131V105.887H568.441V99.1947C568.441 96.9913 567.748 95.9712 566.115 95.9712C564.891 95.9712 564.075 96.624 562.79 97.889V105.805H561.627L561.668 95.3183Z" fill="white"/>
<path d="M14.9949 73.4474C13.5075 65.6569 14.3631 57.6004 17.4534 50.2961C20.5438 42.9918 25.7303 36.7676 32.3573 32.4103C38.9843 28.053 46.7543 25.7581 54.6852 25.8158C62.6162 25.8735 70.352 28.281 76.915 32.7343C83.4779 37.1875 88.5733 43.4864 91.5572 50.8349C94.541 58.1833 95.2793 66.2515 93.6788 74.0195C92.0783 81.7874 88.2108 88.9066 82.5652 94.477C76.9195 100.047 69.7491 103.819 61.9604 105.315C56.7841 106.307 51.4631 106.269 46.3014 105.204C41.1397 104.139 36.2383 102.068 31.877 99.109C27.5158 96.1497 23.7802 92.3604 20.8836 87.9574C17.9869 83.5543 15.9859 78.6238 14.9949 73.4474ZM93.8284 58.3907C92.1209 49.1412 86.8206 40.944 79.0863 35.5916C71.352 30.2391 61.813 28.1668 52.555 29.8278C43.3509 31.7081 35.2639 37.1521 30.0582 44.9721C24.8525 52.7921 22.9506 62.3535 24.7675 71.5704C26.4697 80.8267 31.7719 89.0307 39.5122 94.3846C47.2525 99.7385 56.7995 101.806 66.0612 100.133C75.2642 98.2532 83.3497 92.8084 88.5521 84.9875C93.7545 77.1667 95.6513 67.6052 93.8284 58.3907Z" fill="white"/>
<path d="M62.2671 93.6454C56.6819 94.7273 50.9012 94.1289 45.6561 91.9258C40.411 89.7227 35.9368 86.0138 32.7994 81.2682C29.6619 76.5225 28.0021 70.9531 28.0296 65.2641C28.0572 59.5751 29.771 54.0221 32.9543 49.307C36.1376 44.5919 40.6475 40.9266 45.9137 38.7745C51.18 36.6223 56.9661 36.08 62.5406 37.216C68.115 38.352 73.2275 41.1154 77.2315 45.1568C81.2356 49.1982 83.9515 54.336 85.0357 59.9208C86.479 67.4112 84.8924 75.1683 80.6241 81.4906C76.3557 87.8128 69.754 92.184 62.2671 93.6454ZM51.2908 37.1521C44.6614 38.3915 38.7929 42.2064 34.9694 47.762C31.1458 53.3176 29.6786 60.1615 30.8887 66.7963C32.2447 73.4109 36.1725 79.2161 41.8082 82.935C47.4439 86.6539 54.3261 87.982 60.9409 86.6271C67.5729 85.3927 73.4448 81.5789 77.2692 76.022C81.0937 70.465 82.5587 63.6183 81.343 56.9829C79.9722 50.3764 76.0412 44.5814 70.4096 40.8653C64.778 37.1491 57.904 35.8141 51.2908 37.1521Z" fill="#F5CD1E"/>
<path d="M77.5078 57.5338C78.3722 61.7636 77.9631 66.1547 76.3321 70.152C74.7011 74.1493 71.9214 77.5732 68.3447 79.9909C64.7679 82.4086 60.5546 83.7114 56.2374 83.7347C51.9202 83.758 47.6931 82.5007 44.0905 80.1217C40.4878 77.7428 37.6714 74.349 35.9974 70.3696C34.3234 66.3901 33.8669 62.0036 34.6857 57.7648C35.5044 53.5259 37.5616 49.625 40.5973 46.5552C43.6329 43.4854 47.5105 41.3846 51.74 40.5185C57.413 39.3623 63.3129 40.5047 68.1442 43.695C72.9755 46.8853 76.3432 51.8625 77.5078 57.5338ZM34.6635 66.2455C35.6367 71.2752 38.5656 75.7133 42.8075 78.5859C47.0494 81.4585 52.2577 82.5307 57.2893 81.5674C62.2938 80.4818 66.6634 77.4559 69.4401 73.1532C72.2167 68.8505 73.1737 63.6223 72.1012 58.6151C71.1275 53.6035 68.2098 49.181 63.9855 46.3138C59.7613 43.4467 54.574 42.3681 49.557 43.3136C44.5418 44.381 40.1558 47.3962 37.363 51.6964C34.5702 55.9965 33.5992 61.2297 34.6635 66.2455Z" fill="white"/>
<path d="M50.8614 49.2914C53.452 48.7179 56.1545 48.9261 58.6266 49.8896C61.0988 50.8532 63.2293 52.5288 64.7485 54.7042C66.2676 56.8795 67.1069 59.4568 67.1602 62.1096C67.2135 64.7623 66.4782 67.3712 65.0476 69.6058C63.617 71.8404 61.5554 73.6001 59.124 74.6622C56.6925 75.7242 54.0005 76.0407 51.389 75.5716C48.7775 75.1025 46.364 73.869 44.4541 72.0272C42.5442 70.1853 41.2239 67.8181 40.6604 65.2254C39.9129 61.7607 40.5659 58.141 42.4769 55.156C44.388 52.1709 47.402 50.0627 50.8614 49.2914ZM56.5536 75.4876C58.7978 74.9382 60.8302 73.7395 62.3969 72.0413C63.9635 70.3431 64.9948 68.2208 65.3618 65.9397C65.7288 63.6586 65.4152 61.3199 64.4603 59.216C63.5054 57.1122 61.9515 55.3365 59.9928 54.1109C58.0342 52.8854 55.7578 52.2644 53.4481 52.3256C51.1385 52.3868 48.8981 53.1274 47.0072 54.455C45.1162 55.7825 43.6585 57.638 42.8163 59.7895C41.9741 61.941 41.7849 64.293 42.2722 66.5515C42.621 68.0772 43.2674 69.519 44.1745 70.7944C45.0816 72.0697 46.2314 73.1535 47.5582 73.9837C48.8849 74.8138 50.3624 75.374 51.906 75.6321C53.4496 75.8901 55.029 75.841 56.5536 75.4876Z" fill="#F5CD1E"/>
<path d="M543.551 33.2349H465.411C453.253 33.2349 443.397 43.0908 443.397 55.2487C443.397 67.4066 453.253 77.2625 465.411 77.2625H543.551C555.709 77.2625 565.565 67.4066 565.565 55.2487C565.565 43.0908 555.709 33.2349 543.551 33.2349Z" fill="white"/>
<path d="M485.916 53.637C485.339 53.678 484.759 53.678 484.182 53.637C483.66 53.5609 483.147 53.431 482.652 53.2493C482.166 53.0643 481.717 52.795 481.325 52.4536C480.475 52.8307 479.575 53.0849 478.653 53.2085C477.694 53.3497 476.725 53.4179 475.756 53.4125H470.88H468.227H465.738C465.27 53.4111 464.809 53.2993 464.392 53.0861C464.228 52.9979 464.085 52.8759 463.973 52.7281C463.86 52.5804 463.78 52.4103 463.739 52.2292C463.678 51.9468 463.678 51.6547 463.739 51.3723C463.843 51.0198 464.009 50.6883 464.229 50.393L470.043 42.4771H475.49L469.227 50.8827C469.162 50.9599 469.127 51.0574 469.127 51.1581C469.127 51.2589 469.162 51.3564 469.227 51.4335C469.282 51.5253 469.36 51.6015 469.453 51.655C469.546 51.7086 469.65 51.7377 469.757 51.7396H473.287H476.857C477.466 51.7085 478.073 51.6404 478.673 51.5356C479.258 51.424 479.837 51.281 480.407 51.1071C480.224 50.7603 479.999 50.3522 479.754 49.8422L479.04 48.2916C478.816 47.7612 478.592 47.2307 478.388 46.7003L477.857 45.3741H482.57C482.917 46.4146 483.304 47.4143 483.733 48.4753C484.15 49.503 484.655 50.4928 485.243 51.4335C485.53 51.8891 485.896 52.2899 486.324 52.6169C486.738 52.9563 487.241 53.1689 487.772 53.2289V53.4738C487.157 53.564 486.537 53.6185 485.916 53.637ZM484.712 65.5722C484.441 65.8316 484.121 66.034 483.771 66.1672C483.42 66.3004 483.047 66.3617 482.672 66.3474H470.696C470.312 66.3402 469.941 66.2116 469.635 65.9802C469.319 65.7609 469.072 65.4568 468.921 65.1029V66.3474H464.494V55.1671H468.921V56.3504C469.057 56.0161 469.266 55.7164 469.533 55.4732C469.821 55.2393 470.183 55.1163 470.553 55.1263H482.427C482.848 55.1205 483.265 55.204 483.651 55.3711C484.388 55.6672 484.98 56.2378 485.304 56.9625C485.464 57.322 485.548 57.7112 485.549 58.105V63.634C485.561 63.9988 485.493 64.3618 485.348 64.697C485.203 65.0321 484.986 65.331 484.712 65.5722ZM481.121 57.901C481.119 57.7499 481.077 57.6021 480.999 57.4726C480.935 57.3232 480.837 57.1905 480.713 57.0849C480.61 56.9615 480.486 56.8578 480.346 56.7789C480.23 56.7043 480.096 56.6621 479.958 56.6565H468.901V64.8173H479.918C480.075 64.8157 480.23 64.7824 480.373 64.7192C480.517 64.6561 480.647 64.5646 480.754 64.45C480.974 64.2416 481.105 63.9568 481.121 63.6544V57.901Z" fill="#12A77A"/>
<path d="M514.254 57.7174C514.081 58.0978 513.831 58.4383 513.52 58.7171C512.913 59.2549 512.127 59.546 511.316 59.5332H505.624V66.2658H501.401V59.5332H498.177C497.81 59.5247 497.454 59.4036 497.157 59.1863C496.848 58.9609 496.614 58.6483 496.484 58.2886V59.5332H492.24V46.9859H496.484V48.1896C496.607 47.7931 496.868 47.4534 497.218 47.2307C497.553 47.0148 497.943 46.9014 498.34 46.9043H501.401V42.4771H505.624V46.9859H511.316C511.803 46.976 512.285 47.0808 512.724 47.2919C513.113 47.4789 513.466 47.7346 513.764 48.0468C514.281 48.5986 514.559 49.3315 514.54 50.087V56.3504C514.555 56.8223 514.457 57.2911 514.254 57.7174ZM501.401 48.5161H496.484V58.0438H501.401V48.5161ZM510.357 50.087C510.368 49.867 510.327 49.6475 510.239 49.4457C510.15 49.244 510.016 49.0655 509.847 48.9241C509.526 48.6581 509.122 48.5137 508.705 48.5161H505.624V58.0438H509.154C509.316 58.0385 509.475 57.9973 509.62 57.9233C509.764 57.8492 509.891 57.744 509.99 57.6154C510.213 57.3681 510.343 57.0506 510.357 56.7177V50.087Z" fill="#12A77A"/>
<path d="M524.067 51.6784V55.0039H526.107C526.786 54.9531 527.458 55.1649 527.984 55.5956C528.22 55.8401 528.4 56.1324 528.513 56.4528C528.626 56.7731 528.668 57.114 528.637 57.4521V66.3474H524.904V57.0441C524.907 56.9049 524.864 56.7687 524.781 56.6565C524.734 56.6058 524.677 56.5652 524.614 56.5372C524.551 56.5091 524.483 56.4942 524.414 56.4932H524.088C524.094 57.456 524.025 58.4177 523.883 59.3699C523.759 60.2873 523.519 61.1852 523.169 62.0426C522.826 62.8933 522.373 63.6958 521.823 64.4296C521.21 65.2088 520.489 65.8959 519.681 66.4698L519.497 66.3066C519.817 65.4932 520.037 64.6436 520.15 63.7768C520.286 62.913 520.355 62.0398 520.354 61.1653V42.4158H524.088V50.2298H525.067V42.4158H528.637V50.2298H529.29V51.7396L524.067 51.6784ZM544.571 66.7759C543.367 66.4946 542.187 66.1194 541.042 65.6538C539.873 65.1703 538.801 64.4791 537.879 63.6136C537.37 63.9727 536.838 64.2998 536.288 64.5929C535.737 64.8989 535.145 65.1845 534.554 65.4497C533.962 65.715 533.37 65.9394 532.779 66.1434C532.187 66.3474 531.636 66.531 531.106 66.6739L530.943 66.5106C531.902 65.7865 532.815 65.0029 533.676 64.1644C534.538 63.3264 535.33 62.4188 536.043 61.4509C535.485 60.5157 535.026 59.5241 534.676 58.4926C534.319 57.4575 534.026 56.4014 533.799 55.3303C533.819 56.3515 533.785 57.3731 533.697 58.3906C533.622 59.3155 533.458 60.2311 533.207 61.1245C532.888 62.1826 532.399 63.1817 531.759 64.0828C531.019 65.0713 530.123 65.9327 529.106 66.6331L528.923 66.4902C529.291 65.5376 529.544 64.5445 529.678 63.5319C529.808 62.401 529.87 61.2632 529.861 60.1248V46.7615C529.829 46.3902 529.876 46.0164 529.999 45.6647C530.122 45.313 530.319 44.9914 530.575 44.7213C530.835 44.498 531.136 44.3289 531.462 44.2238C531.788 44.1187 532.132 44.0797 532.473 44.1092H537.981C538.159 44.1223 538.337 44.0751 538.485 43.9752C538.633 43.8752 538.743 43.7284 538.797 43.5583C538.89 43.3613 538.965 43.1565 539.022 42.9463C539.022 42.7627 539.022 42.579 539.124 42.4362H543.816C543.816 42.6403 543.755 42.9055 543.633 43.2319C543.562 43.5278 543.46 43.8151 543.327 44.0888C543.124 44.5193 542.815 44.8913 542.429 45.1701C541.956 45.4745 541.4 45.6242 540.838 45.5985H534.88C534.75 45.5985 534.621 45.6257 534.501 45.6784C534.382 45.7311 534.275 45.8081 534.187 45.9046C534.093 45.9902 534.017 46.0941 533.964 46.2098C533.912 46.3255 533.883 46.4507 533.881 46.5778V50.2298H541.184C541.582 50.213 541.979 50.2826 542.347 50.4338C542.643 50.5574 542.903 50.754 543.102 51.0051C543.351 51.3357 543.493 51.7342 543.51 52.1476C543.57 52.6149 543.57 53.088 543.51 53.5553C543.403 54.2441 543.253 54.9255 543.061 55.5956C542.857 56.33 542.613 57.0441 542.347 57.7582C542.065 58.4618 541.73 59.1437 541.348 59.7984C540.98 60.4265 540.556 61.0205 540.083 61.5733C540.669 62.5384 541.353 63.4408 542.123 64.2664C542.899 65.1224 543.768 65.8888 544.714 66.5514L544.571 66.7759ZM539.389 52.6169C539.411 52.414 539.375 52.2092 539.287 52.0252C539.287 51.8416 539.001 51.76 538.695 51.76H533.799V53.0249H537.206C537.287 53.8399 537.41 54.6502 537.573 55.4527C537.715 56.2498 537.919 57.0344 538.185 57.799C538.524 56.9805 538.79 56.134 538.981 55.2691C539.188 54.3974 539.325 53.5105 539.389 52.6169Z" fill="#12A77A"/>
</g>
<defs>
<clipPath id="clip0_140_8390">
<rect width="569.625" height="136" fill="white"/>
</clipPath>
</defs>
</svg>
