<svg width="358" height="86" viewBox="0 0 358 86" fill="none" xmlns="http://www.w3.org/2000/svg">
<path d="M98.2577 46.1989C97.8432 46.5594 97.3609 46.8336 96.8391 47.0053C96.3173 47.1771 95.7664 47.2429 95.2188 47.1991H79.3576C78.9301 47.1807 78.5203 47.0231 78.1907 46.7503C77.8321 46.4806 77.5276 46.1457 77.2932 45.763V47.1991H72.3438V20.4517H77.2932V21.8621C77.5139 21.4233 77.856 21.0571 78.2788 20.8071C78.7016 20.557 79.1873 20.4337 79.6781 20.4517H95.5778C96.1173 20.448 96.6511 20.5618 97.1422 20.7851C97.5964 21.0008 98.0055 21.3011 98.3475 21.6698C98.9811 22.3739 99.3327 23.287 99.3348 24.2343V43.019C99.381 43.5944 99.3093 44.1732 99.1241 44.72C98.9389 45.2668 98.6441 45.77 98.2577 46.1989ZM94.411 40.5571H90.5643C90.124 40.5468 89.6893 40.4555 89.2821 40.2878C88.8568 40.1209 88.4657 39.8775 88.1281 39.5698C87.8315 39.2647 87.5925 38.9085 87.4228 38.5184C87.2586 38.111 87.1758 37.6754 87.1792 37.2361V22.2083H84.7558V30.3762C84.7618 31.5527 84.6718 32.7277 84.4865 33.8895C84.3121 34.945 84.0062 35.9745 83.5761 36.954C83.0198 38.1267 82.2249 39.1704 81.2425 40.0186C80.0783 40.9741 78.7359 41.6889 77.2932 42.1214V45.4424H92.5774C93.0448 45.4515 93.4999 45.2922 93.8596 44.9936C94.0329 44.8563 94.1717 44.6805 94.2652 44.4802C94.3587 44.2799 94.4042 44.0606 94.3982 43.8396L94.411 40.5571ZM79.8448 22.2083H77.2804V41.4419C78.1539 40.383 78.8117 39.1633 79.2165 37.8516C79.6218 36.5742 79.8294 35.2424 79.832 33.9023L79.8448 22.2083ZM94.3597 23.8752C94.3569 23.4361 94.1874 23.0144 93.8853 22.6956C93.7257 22.5153 93.5276 22.3732 93.3056 22.28C93.0836 22.1868 92.8435 22.1447 92.6031 22.157H91.8594V37.3644C91.86 37.7199 91.9925 38.0625 92.2312 38.326C92.3339 38.4519 92.4628 38.5539 92.609 38.6247C92.7552 38.6956 92.9151 38.7337 93.0775 38.7363H94.3597V23.8752Z" fill="white"/>
<path d="M107.221 39.9546C106.602 41.0286 105.666 41.8843 104.541 42.4036L104.348 42.1856C104.767 41.5 105.058 40.7441 105.207 39.9546C105.373 39.1097 105.459 38.2511 105.464 37.3901V32.2611H107.951V36.6977C108 37.8288 107.748 38.9525 107.221 39.9546ZM113.183 23.4778V39.2621C113.206 40.3801 113.023 41.4927 112.644 42.5447C112.304 43.4471 111.785 44.2714 111.119 44.9681C110.327 45.8083 109.377 46.4838 108.323 46.9556C107.154 47.467 105.927 47.8331 104.669 48.0455V47.789C106.12 46.8267 107.243 45.4444 107.887 43.8269C108.189 43.0628 108.404 42.267 108.528 41.4548C108.661 40.5505 108.725 39.6375 108.721 38.7236V31.2097C108.165 31.1564 107.626 30.9902 107.136 30.7212C106.647 30.4522 106.217 30.0861 105.874 29.6454C105.641 29.2727 105.48 28.8595 105.4 28.4273C105.306 27.9027 105.263 27.3702 105.272 26.8373V22.9906H107.695V28.2734C107.697 28.7099 107.771 29.143 107.913 29.5556C108.05 29.9459 108.323 30.2737 108.682 30.4788V21.6955H113.209V23.1701C113.368 22.7145 113.687 22.332 114.106 22.093C114.495 21.8625 114.937 21.7387 115.388 21.734H119.12V19.5542H124.415V21.734H133.481V23.4778H113.183ZM122.505 38.5826C122.134 38.9402 121.647 39.1539 121.133 39.1852C120.877 39.206 120.62 39.206 120.364 39.1852C120.109 39.1766 119.856 39.1466 119.607 39.0955C119.211 39.0305 118.84 38.8624 118.53 38.6082C118.218 38.3756 118 38.039 117.914 37.6594V39.2621H114.106V32.7228H117.953V34.1332C118.076 33.7736 118.282 33.4484 118.556 33.1844C118.801 32.925 119.126 32.7538 119.479 32.6971C119.733 32.6545 119.99 32.6331 120.248 32.633H121.017C121.323 32.6091 121.629 32.6636 121.908 32.7916C122.186 32.9195 122.427 33.1165 122.607 33.3639C122.898 33.7507 123.043 34.2272 123.018 34.7102V36.8131C123.064 37.4452 122.882 38.0729 122.505 38.5826ZM132.673 45.8913C132.575 46.2586 132.405 46.6029 132.173 46.9043C131.934 47.1944 131.625 47.4194 131.275 47.5582C130.869 47.7272 130.433 47.8102 129.993 47.8018H121.017C120.602 47.7771 120.2 47.6445 119.851 47.4172C119.424 47.1709 119.094 46.7864 118.915 46.3273V47.7377H114.106V40.8137H118.799V46.0452H121.094V40.0443H125.916V46.0452H127.198C127.32 46.0447 127.441 46.0154 127.55 45.9597C127.659 45.9041 127.754 45.8235 127.826 45.7246C127.994 45.5428 128.09 45.3056 128.095 45.0578V40.8137H132.724V44.6604C132.754 45.0713 132.737 45.4843 132.673 45.8913ZM131.057 30.6327C130.874 30.8607 130.641 31.0446 130.377 31.1711C130.113 31.2976 129.824 31.3633 129.531 31.3636H121.8C121.403 31.3434 121.027 31.1846 120.735 30.9148C120.391 30.6651 120.139 30.3092 120.017 29.9018V31.3379H115.299V25.0806H120.017V26.5167C120.14 26.1306 120.372 25.7879 120.684 25.5294C120.984 25.2419 121.384 25.0811 121.8 25.0806H129.493C129.785 25.0759 130.074 25.1372 130.339 25.2601C130.6 25.3772 130.842 25.5328 131.057 25.7217C131.257 25.9265 131.426 26.1598 131.557 26.4142C131.686 26.6731 131.752 26.9586 131.75 27.2476V28.8504C131.757 29.5116 131.509 30.1501 131.057 30.6327ZM119.235 35.0949C119.228 34.9469 119.169 34.8061 119.068 34.6974C119.015 34.6331 118.949 34.5814 118.873 34.5459C118.798 34.5105 118.716 34.4921 118.632 34.4922H117.953V37.4029H118.684C118.769 37.4009 118.853 37.379 118.929 37.339C119.005 37.2989 119.07 37.2418 119.12 37.1721C119.219 37.0673 119.278 36.9312 119.286 36.7874L119.235 35.0949ZM126.929 27.6323C126.922 27.525 126.89 27.4207 126.837 27.3274C126.784 27.234 126.71 27.1541 126.621 27.0937C126.464 26.944 126.26 26.8534 126.044 26.8373H120.017V29.6069H126.236C126.338 29.604 126.437 29.5769 126.527 29.5278C126.616 29.4788 126.692 29.4092 126.749 29.3248C126.868 29.1708 126.931 28.981 126.929 28.7863V27.6323ZM132.301 38.6467C131.958 38.9872 131.501 39.1882 131.019 39.2109C130.348 39.2778 129.671 39.2562 129.006 39.1467C128.701 39.0778 128.432 38.9 128.249 38.6467C128.055 38.3883 127.92 38.0908 127.852 37.7748V39.2621H124.005V32.7228H127.852V34.2614C127.948 33.9007 128.133 33.5699 128.39 33.2998C128.625 33.0598 128.931 32.9024 129.262 32.851C129.596 32.851 129.942 32.8253 130.301 32.774C130.633 32.7415 130.968 32.7415 131.301 32.774C131.508 32.7791 131.709 32.8461 131.878 32.9664C132.128 33.1492 132.337 33.3834 132.489 33.6531C132.642 33.9229 132.735 34.222 132.763 34.5307V37.2747C132.792 37.7681 132.641 38.2552 132.34 38.6467H132.301ZM129.006 35.0949C129.01 34.9533 128.959 34.8156 128.865 34.7102C128.818 34.6589 128.76 34.6185 128.696 34.5919C128.632 34.5653 128.562 34.5532 128.493 34.5563H127.826V37.4286H128.339C128.509 37.4254 128.673 37.3617 128.801 37.249C128.87 37.1894 128.925 37.1143 128.961 37.0297C128.996 36.9451 129.012 36.8534 129.006 36.7618V35.0949Z" fill="white"/>
<path d="M150.24 23.4521C150.214 23.8193 150.214 24.1877 150.24 24.5549C150.257 24.9249 150.3 25.2934 150.368 25.6576C150.426 25.9805 150.565 26.2834 150.771 26.5388C150.977 26.7942 151.244 26.9938 151.547 27.1193V27.3758C150.438 27.6946 149.267 27.7386 148.137 27.504C147.68 27.4119 147.245 27.2334 146.854 26.9783C146.471 26.7183 146.165 26.3594 145.97 25.9397C145.799 25.5648 145.682 25.1677 145.623 24.76C145.623 24.3369 145.508 23.9009 145.457 23.4778H144.79C144.674 23.8446 144.501 24.1908 144.277 24.5036C144.031 24.8585 143.756 25.1929 143.457 25.5037C143.141 25.8347 142.802 26.1432 142.444 26.4269C142.113 26.7079 141.766 26.9691 141.405 27.2091H145.406C145.376 27.5286 145.325 27.8456 145.252 28.1579C145.186 28.4588 145.088 28.7512 144.957 29.0299H148.021C148.328 29.0216 148.632 29.0805 148.914 29.2023C149.195 29.3241 149.446 29.506 149.65 29.7351C150.045 30.1698 150.26 30.7379 150.252 31.3251V33.8895C150.251 34.1774 150.204 34.4632 150.111 34.7358C150.015 34.9934 149.881 35.2354 149.714 35.4539C149.502 35.7038 149.245 35.9124 148.957 36.0693C148.681 36.2313 148.367 36.3155 148.047 36.313H144.059V40.2366C144.149 39.8063 144.374 39.4157 144.7 39.1211C144.938 38.889 145.253 38.7521 145.585 38.7364H147.983C148.32 38.7141 148.657 38.7723 148.967 38.906C149.277 39.0398 149.55 39.2454 149.765 39.5057C150.173 40.0218 150.379 40.6695 150.342 41.3265V44.7629C150.35 45.0955 150.294 45.4264 150.175 45.7374C150.058 46.0102 149.903 46.2649 149.714 46.4939C149.521 46.7208 149.281 46.9035 149.011 47.0296C148.741 47.1557 148.447 47.2223 148.149 47.2248H145.688C145.299 47.1988 144.933 47.0298 144.662 46.7504C144.353 46.4849 144.14 46.124 144.059 45.7246V47.2248H139.43V33.4664C139.186 33.5369 138.938 33.5925 138.687 33.6331L137.969 33.7613L137.84 33.5049C138.221 33.1219 138.576 32.715 138.905 32.2867C139.247 31.8555 139.54 31.3866 139.776 30.8891C140.293 29.8631 140.59 28.7408 140.648 27.5938L139.366 28.1323C138.943 28.3118 138.52 28.4785 138.084 28.6195L137.917 28.4272C138.381 27.8511 138.769 27.2176 139.071 26.5423C139.404 25.8194 139.657 25.0628 139.828 24.2856C140.008 23.5388 140.136 22.7805 140.212 22.016C140.301 21.2413 140.343 20.4621 140.341 19.6824H145.739C145.739 20.0243 145.7 20.3833 145.623 20.7595C145.588 21.0693 145.519 21.3745 145.418 21.6698H153.112V23.4521H150.24ZM145.7 31.402C145.71 31.3032 145.695 31.2035 145.657 31.1118C145.619 31.0201 145.559 30.9392 145.482 30.8763C145.34 30.755 145.157 30.691 144.97 30.6968H144.046V34.5435H144.97C145.069 34.5466 145.168 34.5275 145.259 34.4876C145.349 34.4476 145.43 34.3879 145.495 34.3127C145.562 34.2454 145.615 34.1653 145.65 34.0771C145.685 33.989 145.703 33.8947 145.7 33.7998V31.402ZM145.7 41.3906C145.701 41.273 145.677 41.1566 145.631 41.0485C145.585 40.9405 145.517 40.843 145.431 40.7623C145.35 40.6774 145.252 40.6098 145.144 40.5635C145.037 40.5173 144.92 40.4933 144.803 40.493H144.072V45.4425H145.059C145.147 45.4405 145.233 45.4187 145.31 45.3787C145.388 45.3388 145.456 45.2816 145.508 45.2117C145.621 45.1036 145.69 44.9573 145.7 44.8014V41.3906ZM161.331 30.0557V32.8509H163.382C163.809 32.8328 164.234 32.9058 164.63 33.065C165.025 33.2242 165.383 33.4659 165.678 33.7741C166.13 34.2704 166.369 34.9241 166.344 35.5949V43.2883C166.339 43.6454 166.251 43.9963 166.088 44.3141C165.936 44.6307 165.717 44.9106 165.447 45.1347C165.193 45.3421 164.901 45.4988 164.588 45.5963C164.304 45.697 164.004 45.749 163.703 45.7502C163.295 45.7375 162.891 45.6551 162.511 45.5066C162.098 45.3516 161.702 45.1539 161.331 44.9168V47.7248H156.676V34.6845H155.394V45.9554H151.381V32.8509H155.394V34.2486C155.48 33.895 155.667 33.5742 155.933 33.3254C156.15 33.13 156.402 32.9777 156.676 32.8766V30.0557H150.586V28.2733H167.011V30.0557H161.331ZM163.985 23.3624C163.907 24.1775 163.985 25.0002 164.216 25.7858C164.31 26.0889 164.467 26.3686 164.678 26.6064C164.879 26.8363 165.157 26.9864 165.46 27.0296V27.3117C164.881 27.4678 164.288 27.5623 163.69 27.5938C163.086 27.6421 162.478 27.6119 161.882 27.504C161.429 27.4139 160.995 27.2446 160.6 27.0039C160.196 26.7495 159.878 26.3784 159.69 25.9397C159.512 25.5869 159.382 25.2116 159.305 24.8241C159.207 24.3419 159.143 23.8535 159.113 23.3624H158.792C158.224 24.6782 157.267 25.7882 156.048 26.5423C154.76 27.3837 153.302 27.9309 151.778 28.1451L151.65 27.8887C152.205 27.3016 152.683 26.6468 153.073 25.9397C153.442 25.2554 153.747 24.5386 153.984 23.7983C154.35 22.4588 154.497 21.0689 154.42 19.6824H159.715C159.715 19.9645 159.625 20.2978 159.574 20.6697C159.537 20.9847 159.482 21.2973 159.408 21.6057H166.998V23.3624H163.985ZM162.523 36.0822C162.526 35.7527 162.428 35.4304 162.241 35.1589C162.132 35.0175 161.989 34.9058 161.826 34.8341C161.662 34.7624 161.483 34.733 161.305 34.7486V43.8781H161.677C161.779 43.8914 161.883 43.8914 161.985 43.8781C162.06 43.8712 162.133 43.8452 162.196 43.8026C162.259 43.76 162.309 43.7022 162.344 43.6345C162.457 43.4923 162.521 43.3164 162.523 43.1344V36.0822Z" fill="white"/>
<path d="M201.452 29.1323C200.426 28.9598 199.42 28.6805 198.452 28.2989C197.461 27.8978 196.582 27.2645 195.887 26.4525V27.2859H186.847V26.5807C186.513 26.9193 186.158 27.2363 185.783 27.5295C185.386 27.8501 184.975 28.1707 184.501 28.4656C183.702 28.9961 182.84 29.4267 181.936 29.7478C182.092 29.9952 182.213 30.2627 182.295 30.5428C182.375 30.8348 182.406 31.1382 182.385 31.4404C182.385 33.2483 182.385 35.005 182.385 36.6975C182.385 38.3901 182.475 40.057 182.578 41.7239C182.649 42.7376 182.933 43.7249 183.411 44.6217L183.244 44.8397C182.333 44.3839 181.552 43.7046 180.975 42.8651C180.618 42.2418 180.411 41.5436 180.372 40.8263C180.269 39.4159 180.205 37.89 180.18 36.2487C180.18 34.5946 180.18 33.0047 180.18 31.4788C180.164 31.2194 180.094 30.9661 179.975 30.7351C179.858 30.5471 179.694 30.3925 179.5 30.2863V47.8273H175.41V30.5043L175 30.8249L174.615 31.1454V40.1211C174.622 41.1052 174.336 42.0693 173.794 42.8907C173.259 43.7158 172.561 44.4228 171.743 44.9679L171.525 44.8012C171.926 44.0367 172.207 43.215 172.358 42.365C172.502 41.4961 172.575 40.6171 172.576 39.7364V28.4015H174.615V29.3247C174.737 29.2259 174.865 29.136 175 29.0554L175.41 28.7861V25.8755H172.102V24.1573H175.41V19.5284H179.5V24.1573H182.526V25.8755H179.5V28.1065C180.354 28.3041 181.131 28.7503 181.731 29.3888C182.293 28.7811 182.748 28.0832 183.078 27.3244C183.479 26.4395 183.788 25.5157 184.001 24.5676C184.193 23.7732 184.338 22.9683 184.437 22.157C184.528 21.3566 184.575 20.5519 184.578 19.7464H189.489C189.486 19.9616 189.465 20.1761 189.425 20.3875C190.26 19.971 191.156 19.6897 192.079 19.554C192.635 19.4748 193.197 19.4405 193.759 19.4515C194.339 19.4561 194.919 19.5118 195.49 19.6181C195.928 19.6943 196.358 19.8146 196.772 19.9772C197.132 20.1144 197.463 20.319 197.746 20.5798C198.293 21.1563 198.639 21.8938 198.734 22.6827C198.798 22.9648 198.875 23.2725 198.939 23.6059C199.003 23.9393 199.106 24.2983 199.195 24.6317L199.503 25.6318C199.606 25.9652 199.708 26.2601 199.785 26.5166C200.104 27.4632 200.72 28.2817 201.542 28.8502L201.452 29.1323ZM201.452 48.1863C200.313 48.1368 199.207 47.7874 198.246 47.1734C197.267 46.5618 196.424 45.7542 195.772 44.8012C194.976 45.691 194.019 46.422 192.951 46.9554C191.834 47.4987 190.633 47.8499 189.399 47.994L189.335 47.7632C189.589 47.6538 189.83 47.5162 190.053 47.3529C190.271 47.1862 190.463 47.0067 190.643 46.84C190.041 46.6483 189.464 46.3858 188.925 46.0578C188.37 45.7093 187.872 45.2767 187.45 44.7756C186.912 45.4652 186.262 46.0591 185.527 46.5323C184.901 46.9455 184.23 47.2854 183.526 47.5452C182.841 47.7926 182.132 47.9688 181.411 48.0709L181.321 47.9042C182.037 47.3845 182.647 46.7314 183.116 45.9809C183.578 45.25 183.94 44.4609 184.193 43.6344C184.427 42.9276 184.603 42.2028 184.719 41.4674C184.834 40.7237 184.937 39.98 185.027 39.2235H189.553C189.553 39.5697 189.45 39.9159 189.373 40.2878C189.296 40.6596 189.22 40.9674 189.143 41.2751H189.938C190.022 42.0456 190.199 42.8032 190.463 43.5318C190.703 44.2576 191.077 44.9319 191.566 45.5193C192.098 44.5704 192.495 43.5519 192.746 42.4932C193.004 41.4178 193.184 40.325 193.284 39.2235H197.721C197.721 39.5654 197.669 39.9116 197.567 40.2621C197.503 40.6212 197.439 40.9545 197.375 41.2751H198.657C198.765 42.3559 199.02 43.4169 199.413 44.4294C199.69 45.0791 200.011 45.7089 200.375 46.3143C200.717 46.8823 201.126 47.4074 201.593 47.8786L201.452 48.1863ZM190.412 37.7489C190.214 37.9539 189.974 38.1138 189.708 38.2178C189.443 38.3218 189.158 38.3674 188.873 38.3516H188.104C187.725 38.3513 187.359 38.2095 187.078 37.9541C186.782 37.7209 186.563 37.4035 186.45 37.0437V38.326H183.193V29.3503H186.45V30.4915C186.59 30.131 186.847 29.8284 187.181 29.6324C187.495 29.4593 187.848 29.3709 188.207 29.376H188.912C189.186 29.3597 189.461 29.4068 189.714 29.5135C189.968 29.6202 190.193 29.7837 190.374 29.9914C190.708 30.4178 190.876 30.9507 190.848 31.4916V36.3C190.894 36.815 190.753 37.3293 190.45 37.7489H190.412ZM187.732 31.6583C187.723 31.5221 187.663 31.3942 187.565 31.2993C187.521 31.2513 187.468 31.2128 187.408 31.1863C187.349 31.1598 187.284 31.1459 187.219 31.1454H186.45V36.5693H187.245C187.365 36.5613 187.478 36.5114 187.565 36.4282C187.618 36.3814 187.66 36.3241 187.688 36.2601C187.717 36.196 187.732 36.1266 187.732 36.0564V31.6583ZM194.605 23.8752C194.387 23.311 194.195 22.7468 194.015 22.1826C193.919 21.9331 193.754 21.7155 193.541 21.5543C193.337 21.3724 193.081 21.2601 192.81 21.2338C191.518 21.1594 190.232 21.4576 189.104 22.0929C188.982 22.6961 188.824 23.2913 188.63 23.8752C188.432 24.4556 188.152 25.0042 187.796 25.5036H195.297C195.066 24.9779 194.887 24.4393 194.605 23.8752ZM199.311 37.7874C199.147 37.9649 198.949 38.1075 198.728 38.2067C198.508 38.3058 198.27 38.3595 198.028 38.3644H196.874C196.505 38.3533 196.151 38.2126 195.874 37.9669C195.563 37.7318 195.334 37.4042 195.22 37.0309V38.3131H191.938V29.3375H195.22V30.3248C195.377 30.023 195.636 29.7867 195.951 29.658C196.468 29.4013 197.041 29.2779 197.618 29.299C197.94 29.2731 198.263 29.3235 198.562 29.4461C198.86 29.5686 199.126 29.7598 199.336 30.0042C199.712 30.4863 199.903 31.0865 199.875 31.6968V36.3257C199.883 36.5927 199.837 36.8586 199.74 37.1076C199.643 37.3565 199.497 37.5834 199.311 37.7746V37.7874ZM196.541 31.8891C196.546 31.792 196.53 31.695 196.494 31.6044C196.459 31.5138 196.405 31.4317 196.336 31.3634C196.271 31.2968 196.193 31.2443 196.107 31.209C196.021 31.1737 195.929 31.1564 195.836 31.1583H195.169V36.5693H196.067C196.19 36.5716 196.31 36.5256 196.4 36.4411C196.448 36.3897 196.485 36.3291 196.51 36.263C196.534 36.197 196.544 36.1267 196.541 36.0564V31.8891Z" fill="white"/>
<path d="M216.018 32.0814C216.018 32.543 215.941 33.0174 215.877 33.5047C215.853 33.8511 215.743 34.186 215.557 34.4792C215.395 34.7386 215.181 34.9613 214.928 35.1331C214.588 35.3457 214.216 35.5016 213.826 35.5947C213.403 35.6896 212.975 35.7581 212.543 35.7999L212.479 35.5434C212.774 35.325 212.993 35.0203 213.107 34.6715C213.22 34.3204 213.302 33.96 213.351 33.5944C213.351 33.2354 213.415 32.8507 213.441 32.4532C213.466 32.0558 213.441 31.6711 213.441 31.3377L212.723 32.1455L211.966 32.9918V47.8016H207.466V36.5051L206.812 36.8513C206.568 36.9795 206.312 37.1078 206.042 37.2232L205.286 37.5437L204.658 37.7745L204.529 37.5565C206.05 35.8977 207.399 34.089 208.556 32.1583C209.687 30.2698 210.55 28.2329 211.12 26.1062C211.145 26.0179 211.144 25.9246 211.119 25.8364C211.095 25.7482 211.046 25.6685 210.979 25.6061C210.923 25.5354 210.854 25.4772 210.774 25.4352C210.695 25.3932 210.607 25.3685 210.517 25.3625H205.606V23.5802H207.837V19.6181H212.838V23.5802H213.582C213.975 23.5735 214.363 23.6662 214.71 23.8495C215.039 24.0274 215.327 24.272 215.557 24.5675C215.747 24.8453 215.878 25.1597 215.941 25.4907C216.003 25.8414 215.981 26.2015 215.877 26.5421C215.642 27.2635 215.364 27.97 215.044 28.6578C214.731 29.3428 214.367 30.0029 213.954 30.6325H216.069C216.079 31.116 216.061 31.5997 216.018 32.0814ZM227.302 25.4266V27.9911H229.956C230.438 27.9699 230.918 28.0568 231.362 28.2454C231.806 28.434 232.201 28.7195 232.521 29.081C233.088 29.7831 233.384 30.6661 233.354 31.5685V44.955C233.389 45.8732 233.068 46.7694 232.456 47.4554C232.121 47.7455 231.729 47.9627 231.305 48.0929C230.881 48.2232 230.435 48.2637 229.994 48.2119C229.472 48.1838 228.965 48.025 228.52 47.7503C228.064 47.4729 227.656 47.1219 227.315 46.7117V47.8657H222.686V40.5442H221.044V47.8529H216.582V42.5957C216.213 42.596 215.845 42.5398 215.492 42.429C215.14 42.3118 214.808 42.1433 214.505 41.929C214.172 41.6987 213.878 41.4175 213.633 41.0955C213.399 40.7958 213.228 40.451 213.133 40.0825C213.008 39.4636 212.914 38.8388 212.851 38.2105C212.851 37.5822 212.736 36.9282 212.684 36.3128H215.403C215.403 37.0308 215.48 37.7873 215.518 38.5567C215.539 39.3008 215.617 40.0423 215.749 40.775C215.791 41.0438 215.878 41.3037 216.005 41.5443C216.145 41.7895 216.343 41.9965 216.582 42.1469V28.0424H221.044V29.5169C221.213 29.1439 221.443 28.8016 221.724 28.504C221.975 28.2309 222.308 28.0464 222.673 27.9782V25.4138H216.172V23.6699H222.673V19.5283H227.302V23.6699H234.072V25.4266H227.302ZM222.673 29.799H221.044V33.3508H222.673V29.799ZM222.673 35.0947H221.044V38.8003H222.673V35.0947ZM228.84 31.0428C228.84 30.8763 228.786 30.7144 228.687 30.5812C228.585 30.4336 228.464 30.2999 228.328 30.1837C228.179 30.0606 228.01 29.965 227.828 29.9016C227.659 29.8379 227.482 29.8032 227.302 29.799V33.3508H228.84V31.0428ZM228.84 35.0947H227.302V38.8003H228.84V35.0947ZM228.84 40.557H227.302V45.5962C227.42 45.7018 227.554 45.7883 227.699 45.8526C227.878 45.9414 228.068 46.0061 228.263 46.0449C228.334 46.0601 228.406 46.0611 228.476 46.0478C228.547 46.0346 228.614 46.0075 228.674 45.968C228.729 45.9236 228.773 45.8667 228.802 45.8021C228.831 45.7375 228.844 45.6669 228.84 45.5962V40.557ZM232.918 22.8878C232.471 23.0121 232.009 23.0725 231.546 23.0673C231.115 23.0682 230.685 23.0209 230.264 22.9262C229.874 22.8364 229.507 22.6661 229.187 22.4262C228.773 22.1465 228.441 21.7614 228.225 21.3106C227.996 20.8758 227.819 20.4152 227.699 19.9386H232.072C232.159 20.2421 232.27 20.5379 232.405 20.8234C232.53 21.1223 232.708 21.3961 232.931 21.6312C233.072 21.7918 233.247 21.9188 233.444 22.003C233.654 22.0951 233.881 22.1431 234.11 22.1441L234.175 22.4262C233.776 22.631 233.354 22.786 232.918 22.8878Z" fill="white"/>
<path d="M266.692 46.1604C266.454 46.6287 266.112 47.0365 265.692 47.3529C264.953 47.895 264.04 48.146 263.128 48.0581C262.604 48.0121 262.087 47.9045 261.589 47.7376C261.107 47.5707 260.646 47.3469 260.217 47.0708C259.791 46.7926 259.411 46.451 259.088 46.0579C258.761 45.6795 258.505 45.2451 258.332 44.7756L258.563 44.5833C258.873 44.9159 259.237 45.1934 259.64 45.4039C260.011 45.5889 260.409 45.7143 260.82 45.7758C261.215 45.8544 261.625 45.786 261.974 45.5834C262.167 45.4571 262.323 45.2807 262.425 45.0731C262.526 44.8654 262.57 44.6342 262.551 44.4038V28.363C262.559 27.9356 262.418 27.5187 262.153 27.1834C262.035 27.0379 261.887 26.9201 261.718 26.8381C261.55 26.7562 261.366 26.7121 261.179 26.7089H260.319V34.21C260.337 36.0867 260.087 37.9562 259.576 39.7621C259.044 41.5911 258.096 43.2721 256.806 44.673C256.075 45.4145 255.247 46.0529 254.344 46.5708C253.378 47.1209 252.366 47.5843 251.318 47.9556L251.126 47.8017C251.817 47.0391 252.459 46.234 253.049 45.3911C253.592 44.5987 254.023 43.7359 254.331 42.8266C253.183 43.4425 252.002 43.9947 250.792 44.4807C249.51 44.968 248.331 45.3911 247.061 45.7629C245.792 46.1348 244.497 46.4682 243.214 46.7246C241.932 46.9811 240.65 47.2375 239.291 47.4427V42.5958C239.483 42.6474 239.681 42.6732 239.881 42.6728C240.055 42.6927 240.232 42.6927 240.406 42.6728V20.0285H244.894V21.4774C245.015 21.0788 245.241 20.7201 245.548 20.4388C245.844 20.1544 246.24 19.9978 246.651 20.0028H250.228C250.623 19.9916 251.015 20.066 251.378 20.221C251.741 20.3759 252.066 20.6077 252.331 20.9004C252.581 21.1974 252.776 21.5359 252.908 21.9006C253.061 22.3106 253.14 22.745 253.139 23.1828V41.647C253.409 41.6398 253.679 41.6184 253.947 41.5829L254.857 41.4162C255.23 40.3536 255.454 39.2447 255.524 38.1208C255.626 36.8386 255.691 35.5564 255.691 34.2741V26.7089H253.742V24.9138H255.691V19.5925H260.319V24.9138H263.756C264.193 24.9173 264.627 24.9953 265.038 25.1446C265.456 25.2791 265.837 25.5072 266.154 25.8114C266.452 26.0925 266.673 26.4458 266.795 26.8372C266.951 27.2775 267.029 27.7418 267.026 28.2091V44.5192C267.045 45.0849 266.931 45.6473 266.692 46.1604ZM248.549 23.0802C248.558 22.7539 248.459 22.4337 248.266 22.1698C248.172 22.039 248.046 21.934 247.901 21.8645C247.755 21.795 247.594 21.7633 247.433 21.7723H244.868V27.3757H248.51L248.549 23.0802ZM248.549 29.1067H244.894V35.005H248.536L248.549 29.1067ZM248.549 36.8001H244.894V42.4548H245.74L246.753 42.3778L247.741 42.2881L248.536 42.1983L248.549 36.8001Z" fill="white"/>
<path d="M70.3306 65.3555L70.7922 64.8298C71.1202 65.2051 71.5241 65.5066 71.9772 65.7143C72.4303 65.9221 72.9223 66.0314 73.4208 66.0351C74.703 66.0351 75.6134 65.3299 75.6134 64.2913C75.6134 63.2527 74.8953 62.8424 73.9978 62.4449L72.6386 61.8422C72.1361 61.6973 71.69 61.4022 71.36 60.9966C71.0299 60.5909 70.8318 60.0941 70.7922 59.5727C70.8093 59.2424 70.8939 58.9192 71.0406 58.6229C71.1873 58.3266 71.3931 58.0635 71.6454 57.8497C71.8976 57.6359 72.1909 57.4759 72.5073 57.3797C72.8236 57.2835 73.1563 57.2531 73.4849 57.2903C73.9653 57.2868 74.4413 57.383 74.8827 57.5728C75.3241 57.7626 75.7213 58.0419 76.0493 58.393L75.639 58.8802C75.3615 58.589 75.027 58.3579 74.6565 58.2013C74.2859 58.0447 73.8871 57.9659 73.4849 57.9699C72.3309 57.9699 71.5487 58.5725 71.5487 59.5085C71.5487 60.4446 72.4334 60.9318 73.0745 61.2267L74.4337 61.8166C75.4723 62.2782 76.3442 62.8552 76.3442 64.24C76.3356 64.6041 76.2496 64.9623 76.0917 65.2905C75.9339 65.6188 75.708 65.9097 75.4289 66.1438C75.1499 66.378 74.8242 66.55 74.4735 66.6484C74.1228 66.7468 73.7552 66.7694 73.3951 66.7147C72.8168 66.7208 72.2439 66.6026 71.7152 66.3681C71.1865 66.1336 70.7143 65.7883 70.3306 65.3555Z" fill="white"/>
<path d="M77.6393 63.227C77.6003 62.7913 77.652 62.3521 77.7912 61.9373C77.9304 61.5225 78.154 61.1411 78.448 60.817C78.7419 60.4929 79.0998 60.2333 79.4991 60.0544C79.8984 59.8756 80.3304 59.7814 80.768 59.7778C81.4977 59.7849 82.1962 60.0744 82.717 60.5856L82.3066 61.0857C82.1112 60.8692 81.8744 60.694 81.6101 60.5707C81.3458 60.4474 81.0594 60.3783 80.768 60.3677C80.4247 60.3962 80.0907 60.4937 79.7859 60.6542C79.4811 60.8147 79.2117 61.0349 78.9939 61.3018C78.7761 61.5687 78.6143 61.8767 78.5182 62.2075C78.422 62.5382 78.3935 62.885 78.4343 63.227C78.4343 64.9324 79.3575 66.0864 80.7551 66.0864C81.4022 66.0632 82.0182 65.8031 82.4862 65.3556L82.858 65.8556C82.2711 66.3907 81.5106 66.6958 80.7167 66.7147C78.9472 66.7147 77.6393 65.4453 77.6393 63.227Z" fill="white"/>
<path d="M84.4094 59.906H85.0121L85.1018 61.1883C85.2602 60.8005 85.5222 60.4638 85.8592 60.215C86.1962 59.9662 86.5951 59.815 87.0124 59.7778C87.2444 59.7678 87.4749 59.8209 87.6791 59.9317L87.5381 60.5728C87.344 60.4891 87.1338 60.4497 86.9226 60.4574C86.3328 60.4574 85.6404 60.8934 85.1403 62.1371V66.5993H84.4094V59.906Z" fill="white"/>
<path d="M88.205 63.227C88.1698 62.8085 88.2177 62.3871 88.3457 61.9871C88.4737 61.587 88.6794 61.2162 88.951 60.8958C89.2225 60.5754 89.5547 60.3117 89.9283 60.1198C90.302 59.928 90.7098 59.8118 91.1285 59.7778C92.7441 59.7778 93.6929 60.919 93.6929 62.868C93.7066 63.043 93.7066 63.2188 93.6929 63.3937H88.9487C88.9225 63.7358 88.9653 64.0796 89.0745 64.4048C89.1836 64.73 89.3569 65.03 89.5841 65.2871C89.8112 65.5442 90.0876 65.753 90.397 65.9013C90.7063 66.0496 91.0422 66.1344 91.3849 66.1505C92.0196 66.1544 92.6391 65.9568 93.1544 65.5864L93.4237 66.1121C92.8034 66.5444 92.064 66.7729 91.308 66.766C90.8636 66.7621 90.4251 66.6644 90.0211 66.4792C89.6172 66.294 89.2569 66.0255 88.964 65.6914C88.671 65.3573 88.4519 64.965 88.3211 64.5403C88.1903 64.1156 88.1507 63.6681 88.205 63.227ZM93.039 62.7654C93.039 61.1626 92.3081 60.3548 91.1413 60.3548C90.5359 60.3975 89.9703 60.6719 89.5619 61.1208C89.1536 61.5697 88.934 62.1588 88.9487 62.7654H93.039Z" fill="white"/>
<path d="M94.8727 63.227C94.8377 62.8045 94.8873 62.3792 95.0185 61.976C95.1497 61.5728 95.3599 61.1997 95.6368 60.8787C95.9137 60.5576 96.2518 60.2949 96.6314 60.1059C97.0109 59.9168 97.4243 59.8053 97.8475 59.7778C99.4631 59.7778 100.412 60.919 100.412 62.868C100.426 63.043 100.426 63.2188 100.412 63.3937H95.6677C95.6416 63.7358 95.6843 64.0796 95.7935 64.4048C95.9026 64.73 96.0759 65.03 96.3031 65.2871C96.5302 65.5442 96.8067 65.753 97.116 65.9013C97.4253 66.0496 97.7612 66.1344 98.1039 66.1505C98.7386 66.1544 99.3581 65.9568 99.8734 65.5864L100.143 66.1121C99.5224 66.5444 98.783 66.7729 98.027 66.766C97.5783 66.7694 97.1341 66.6769 96.7239 66.4949C96.3138 66.3129 95.9472 66.0455 95.6487 65.7106C95.3501 65.3756 95.1265 64.9808 94.9927 64.5526C94.8589 64.1243 94.8179 63.6724 94.8727 63.227ZM99.7067 62.7654C99.7067 61.1626 98.9758 60.3548 97.809 60.3548C97.2036 60.3975 96.638 60.6719 96.2297 61.1208C95.8213 61.5697 95.6017 62.1588 95.6164 62.7654H99.7067Z" fill="white"/>
<path d="M102.194 59.9061H102.797L102.874 60.9062C103.449 60.249 104.259 59.8438 105.13 59.7778C106.515 59.7778 107.144 60.6369 107.144 62.3423V66.5993H106.425V62.3423C106.425 60.9575 105.99 60.3164 104.964 60.3164C104.194 60.3164 103.682 60.7267 102.861 61.5217V66.4967H102.143L102.194 59.9061Z" fill="white"/>
<path d="M109.387 57.7261C109.384 57.6482 109.396 57.5704 109.425 57.4978C109.453 57.4252 109.497 57.3595 109.553 57.3049C109.608 57.2504 109.675 57.2083 109.748 57.1815C109.821 57.1546 109.899 57.1436 109.977 57.1491C110.053 57.1473 110.128 57.161 110.198 57.1895C110.268 57.218 110.332 57.2607 110.385 57.3148C110.438 57.369 110.479 57.4334 110.506 57.5042C110.533 57.5749 110.545 57.6505 110.541 57.7261C110.541 57.8791 110.481 58.0259 110.372 58.1341C110.264 58.2423 110.117 58.3031 109.964 58.3031C109.811 58.3031 109.665 58.2423 109.556 58.1341C109.448 58.0259 109.387 57.8791 109.387 57.7261ZM109.593 59.9059H110.323V66.5479H109.593V59.9059Z" fill="white"/>
<path d="M112.824 59.9061H113.414L113.503 60.9062C113.79 60.5767 114.14 60.3073 114.532 60.1136C114.923 59.92 115.35 59.8058 115.786 59.7778C117.171 59.7778 117.812 60.6369 117.812 62.3423V66.5993H117.094V62.3423C117.094 60.9575 116.658 60.3164 115.632 60.3164C114.85 60.3164 114.35 60.7267 113.529 61.5217V66.4967H112.824V59.9061Z" fill="white"/>
<path d="M119.645 67.9073C119.67 67.5809 119.774 67.2655 119.949 66.9885C120.123 66.7114 120.362 66.481 120.645 66.3173V66.2532C120.462 66.1388 120.311 65.9802 120.206 65.7919C120.101 65.6036 120.044 65.3918 120.043 65.1761C120.056 64.9188 120.131 64.6684 120.26 64.4455C120.39 64.2225 120.57 64.0335 120.786 63.8939C120.524 63.6704 120.313 63.3935 120.167 63.0816C120.021 62.7697 119.944 62.4302 119.94 62.0859C119.94 61.697 120.035 61.3139 120.219 60.9709C120.402 60.6278 120.667 60.3354 120.991 60.1196C121.314 59.9039 121.686 59.7715 122.074 59.7342C122.461 59.697 122.851 59.756 123.21 59.9061H125.479V60.4959H123.979C124.201 60.699 124.378 60.9468 124.497 61.2231C124.617 61.4994 124.676 61.7978 124.672 62.0987C124.679 62.4088 124.623 62.7171 124.507 63.0049C124.392 63.2928 124.219 63.5543 124 63.7736C123.781 63.9929 123.519 64.1654 123.231 64.2809C122.943 64.3963 122.635 64.4522 122.325 64.4452C121.948 64.446 121.577 64.3488 121.248 64.1631C121.094 64.2644 120.965 64.4009 120.874 64.5614C120.783 64.7219 120.731 64.9018 120.722 65.0863C120.722 65.5608 121.004 65.9326 122.005 65.9326H123.402C124.877 65.9326 125.646 66.407 125.646 67.4713C125.646 68.5355 124.364 69.7409 122.441 69.7409C120.735 69.728 119.645 69.0228 119.645 67.9073ZM124.864 67.5611C124.864 66.8558 124.338 66.5866 123.351 66.5866H121.992C121.712 66.573 121.433 66.5387 121.158 66.484C120.929 66.6164 120.735 66.8019 120.592 67.0251C120.449 67.2482 120.362 67.5024 120.338 67.7662C120.338 68.574 121.12 69.1254 122.479 69.1254C123.838 69.1254 124.864 68.356 124.864 67.5611ZM123.966 62.0859C123.966 61.6472 123.792 61.2265 123.482 60.9163C123.172 60.6061 122.751 60.4318 122.312 60.4318C121.874 60.4318 121.453 60.6061 121.143 60.9163C120.832 61.2265 120.658 61.6472 120.658 62.0859C120.629 62.3204 120.65 62.5585 120.72 62.7843C120.789 63.01 120.906 63.2184 121.063 63.3956C121.219 63.5727 121.412 63.7146 121.627 63.8118C121.842 63.9089 122.076 63.9592 122.312 63.9592C122.549 63.9592 122.782 63.9089 122.998 63.8118C123.213 63.7146 123.405 63.5727 123.562 63.3956C123.718 63.2184 123.835 63.01 123.905 62.7843C123.975 62.5585 123.996 62.3204 123.966 62.0859Z" fill="white"/>
<path d="M129.878 60.5088H128.954V59.9574H129.878V58.4957C129.878 57.2134 130.467 56.4697 131.583 56.4697C131.926 56.4797 132.264 56.5491 132.583 56.6749L132.404 57.2647C132.161 57.1422 131.893 57.0764 131.621 57.0724C130.916 57.0724 130.596 57.5981 130.596 58.5341V59.9061H132.057V60.5088H130.596V66.5481H129.878V60.5088Z" fill="white"/>
<path d="M132.801 63.2269C132.738 62.7952 132.768 62.355 132.89 61.9362C133.013 61.5173 133.223 61.1297 133.509 60.7996C133.794 60.4695 134.147 60.2047 134.544 60.0232C134.94 59.8417 135.372 59.7478 135.808 59.7478C136.244 59.7478 136.675 59.8417 137.072 60.0232C137.469 60.2047 137.822 60.4695 138.107 60.7996C138.392 61.1297 138.603 61.5173 138.725 61.9362C138.847 62.355 138.878 62.7952 138.815 63.2269C138.878 63.6586 138.847 64.0988 138.725 64.5177C138.603 64.9365 138.392 65.3242 138.107 65.6543C137.822 65.9843 137.469 66.2491 137.072 66.4306C136.675 66.6121 136.244 66.7061 135.808 66.7061C135.372 66.7061 134.94 66.6121 134.544 66.4306C134.147 66.2491 133.794 65.9843 133.509 65.6543C133.223 65.3242 133.013 64.9365 132.89 64.5177C132.768 64.0988 132.738 63.6586 132.801 63.2269ZM138.058 63.2269C138.058 61.5344 137.109 60.3675 135.802 60.3675C134.494 60.3675 133.558 61.5344 133.558 63.2269C133.558 64.9195 134.506 66.0863 135.802 66.0863C137.097 66.0863 138.058 64.9067 138.058 63.2269Z" fill="white"/>
<path d="M140.764 59.9061H141.366L141.443 61.1883C141.601 60.805 141.859 60.4714 142.191 60.2231C142.523 59.9747 142.916 59.8209 143.328 59.7779C143.565 59.7655 143.8 59.8187 144.008 59.9318L143.854 60.5729C143.665 60.4862 143.458 60.4466 143.251 60.4575C142.661 60.4575 141.969 60.8934 141.456 62.1372V66.5994H140.738L140.764 59.9061Z" fill="white"/>
<path d="M148.098 57.457H153.112V58.0853H148.842V61.5987H152.445V62.2398H148.842V66.5481H148.098V57.457Z" fill="white"/>
<path d="M153.945 63.2269C153.882 62.7952 153.912 62.355 154.035 61.9362C154.157 61.5173 154.367 61.1297 154.653 60.7996C154.938 60.4695 155.291 60.2047 155.688 60.0232C156.085 59.8417 156.516 59.7478 156.952 59.7478C157.388 59.7478 157.819 59.8417 158.216 60.0232C158.613 60.2047 158.966 60.4695 159.251 60.7996C159.536 61.1297 159.747 61.5173 159.869 61.9362C159.992 62.355 160.022 62.7952 159.959 63.2269C160.022 63.6586 159.992 64.0988 159.869 64.5177C159.747 64.9365 159.536 65.3242 159.251 65.6543C158.966 65.9843 158.613 66.2491 158.216 66.4306C157.819 66.6121 157.388 66.7061 156.952 66.7061C156.516 66.7061 156.085 66.6121 155.688 66.4306C155.291 66.2491 154.938 65.9843 154.653 65.6543C154.367 65.3242 154.157 64.9365 154.035 64.5177C153.912 64.0988 153.882 63.6586 153.945 63.2269ZM159.215 63.2269C159.215 61.5344 158.253 60.3675 156.958 60.3675C155.663 60.3675 154.714 61.5344 154.714 63.2269C154.714 64.9195 155.663 66.0863 156.958 66.0863C158.253 66.0863 159.215 64.9067 159.215 63.2269Z" fill="white"/>
<path d="M161.818 64.1502V59.906H162.536V64.0733C162.536 65.4324 162.959 66.0607 163.985 66.0607C164.754 66.0607 165.267 65.6632 166.062 64.7785V59.906H166.78V66.548H166.165V65.4581C165.91 65.8284 165.575 66.1362 165.184 66.3583C164.793 66.5804 164.357 66.711 163.908 66.7403C162.434 66.7147 161.818 65.8684 161.818 64.1502Z" fill="white"/>
<path d="M169.242 59.906H169.845L169.935 61.1883C170.091 60.8041 170.349 60.4698 170.681 60.2213C171.013 59.9728 171.407 59.8195 171.819 59.7778C172.052 59.7678 172.282 59.8209 172.486 59.9317L172.332 60.5728C172.144 60.4861 171.937 60.4465 171.73 60.4574C171.14 60.4574 170.447 60.8934 169.935 62.1371V66.5993H169.242V59.906Z" fill="white"/>
<path d="M176.615 57.457H177.615L179.5 62.6886L180.205 64.676C180.436 64.0221 180.654 63.3938 180.885 62.6886L182.757 57.457H183.744V66.5481H183.039V60.7908C183.039 60.0343 183.039 59.0342 183.129 58.2264L182.411 60.2651L180.5 65.5223H179.91L177.987 60.2651L177.269 58.2264C177.269 58.9829 177.359 59.983 177.359 60.7908V66.5481H176.679L176.615 57.457Z" fill="white"/>
<path d="M185.911 64.9068C185.911 63.4322 187.193 62.7398 190.155 62.3423C190.155 61.355 189.899 60.342 188.629 60.342C187.87 60.3677 187.139 60.6324 186.539 61.0986L186.219 60.5728C186.966 60.0294 187.86 59.7254 188.783 59.7009C190.373 59.7009 190.937 60.8293 190.937 62.2654V66.4839H190.322L190.245 65.6377C189.608 66.2276 188.79 66.5846 187.924 66.6506C187.674 66.6876 187.419 66.67 187.176 66.5993C186.933 66.5285 186.709 66.4061 186.518 66.2406C186.326 66.075 186.173 65.8701 186.069 65.6399C185.964 65.4097 185.91 65.1597 185.911 64.9068ZM190.155 65.0991V62.9065C187.591 63.2014 186.642 63.8169 186.642 64.8427C186.627 65.0217 186.652 65.2019 186.716 65.3698C186.78 65.5376 186.881 65.6889 187.012 65.8122C187.143 65.9355 187.299 66.0276 187.471 66.0818C187.642 66.136 187.823 66.1507 188.001 66.1249C188.822 66.0554 189.586 65.6801 190.143 65.0735L190.155 65.0991Z" fill="white"/>
<path d="M191.463 69.5099L191.63 68.9329C191.851 69.0194 192.085 69.0671 192.322 69.074C193.053 69.074 193.194 68.4841 193.194 67.6507V59.9573H193.925V67.7276C193.925 69.0098 193.438 69.7407 192.361 69.7407C192.049 69.7275 191.743 69.6488 191.463 69.5099ZM192.964 57.7262C192.964 57.5731 193.024 57.4264 193.133 57.3182C193.241 57.21 193.388 57.1492 193.541 57.1492C193.694 57.1492 193.84 57.21 193.949 57.3182C194.057 57.4264 194.118 57.5731 194.118 57.7262C194.118 57.8792 194.057 58.026 193.949 58.1342C193.84 58.2424 193.694 58.3032 193.541 58.3032C193.388 58.3032 193.241 58.2424 193.133 58.1342C193.024 58.026 192.964 57.8792 192.964 57.7262Z" fill="white"/>
<path d="M195.861 63.2269C195.798 62.7952 195.829 62.355 195.951 61.9362C196.073 61.5173 196.284 61.1297 196.569 60.7996C196.854 60.4695 197.207 60.2047 197.604 60.0232C198.001 59.8417 198.432 59.7478 198.868 59.7478C199.305 59.7478 199.736 59.8417 200.132 60.0232C200.529 60.2047 200.882 60.4695 201.167 60.7996C201.453 61.1297 201.664 61.5173 201.786 61.9362C201.908 62.355 201.938 62.7952 201.875 63.2269C201.938 63.6586 201.908 64.0988 201.786 64.5177C201.664 64.9365 201.453 65.3242 201.167 65.6543C200.882 65.9843 200.529 66.2491 200.132 66.4306C199.736 66.6121 199.305 66.7061 198.868 66.7061C198.432 66.7061 198.001 66.6121 197.604 66.4306C197.207 66.2491 196.854 65.9843 196.569 65.6543C196.284 65.3242 196.073 64.9365 195.951 64.5177C195.829 64.0988 195.798 63.6586 195.861 63.2269ZM201.131 63.2269C201.131 61.5344 200.17 60.3675 198.875 60.3675C197.58 60.3675 196.631 61.5344 196.631 63.2269C196.631 64.9195 197.58 66.0863 198.875 66.0863C200.17 66.0863 201.131 64.9067 201.131 63.2269Z" fill="white"/>
<path d="M203.863 59.906H204.465L204.555 61.1882C204.711 60.8066 204.968 60.4742 205.297 60.226C205.627 59.9778 206.017 59.823 206.427 59.7778C206.663 59.7691 206.897 59.8222 207.107 59.9316L206.953 60.5727C206.759 60.4878 206.549 60.4483 206.337 60.4573C205.747 60.4573 205.055 60.8933 204.555 62.1371V66.5993H203.863V59.906Z" fill="white"/>
<path d="M210.582 61.9961C210.582 59.0854 212.197 57.2903 214.505 57.2903C214.961 57.2892 215.411 57.3872 215.825 57.5776C216.24 57.7681 216.607 58.0463 216.903 58.393L216.48 58.8803C216.237 58.5931 215.935 58.3627 215.594 58.2054C215.253 58.0481 214.881 57.9677 214.505 57.9699C212.582 57.9699 211.377 59.5086 211.377 61.9704C211.377 64.4323 212.556 66.0351 214.467 66.0351C214.897 66.0227 215.319 65.9151 215.703 65.72C216.086 65.5249 216.422 65.2471 216.685 64.9068L217.108 65.3812C216.784 65.7891 216.37 66.1169 215.898 66.3392C215.427 66.5616 214.911 66.6725 214.39 66.6634C212.184 66.7147 210.582 64.9068 210.582 61.9961Z" fill="white"/>
<path d="M218.454 64.9068C218.454 63.4322 219.737 62.7398 222.699 62.3423C222.699 61.355 222.429 60.342 221.173 60.342C220.41 60.3676 219.674 60.6322 219.07 61.0986L218.749 60.5728C219.499 60.0344 220.391 59.7309 221.314 59.7009C222.891 59.7009 223.455 60.8293 223.455 62.2654V66.484H222.852L222.775 65.6377C222.138 66.2276 221.32 66.5846 220.455 66.6506C220.205 66.6855 219.952 66.6665 219.71 66.5948C219.469 66.5231 219.246 66.4004 219.057 66.2351C218.867 66.0697 218.715 65.8656 218.611 65.6364C218.507 65.4072 218.454 65.1584 218.454 64.9068ZM222.699 65.0991V62.9065C220.07 63.2014 219.172 63.8169 219.172 64.8427C219.157 65.0217 219.182 65.2019 219.246 65.3698C219.31 65.5376 219.411 65.6889 219.542 65.8122C219.673 65.9355 219.83 66.0277 220.001 66.0818C220.172 66.136 220.354 66.1507 220.532 66.1249C221.36 66.0592 222.134 65.6838 222.699 65.0735V65.0991Z" fill="white"/>
<path d="M225.738 59.9061H226.34L226.43 60.9062C226.71 60.5677 227.055 60.2889 227.445 60.0862C227.835 59.8836 228.262 59.7613 228.7 59.7266C230.084 59.7266 230.725 60.5857 230.725 62.291V66.5481H229.995V62.3423C229.995 60.9575 229.559 60.3164 228.533 60.3164C227.764 60.3164 227.251 60.7267 226.443 61.5217V66.4968H225.712L225.738 59.9061Z" fill="white"/>
<path d="M232.597 63.2271C232.553 62.7918 232.599 62.3522 232.733 61.9356C232.866 61.5189 233.084 61.1343 233.373 60.8058C233.662 60.4772 234.015 60.2118 234.411 60.0261C234.807 59.8404 235.238 59.7384 235.675 59.7266C236.405 59.7309 237.105 60.0209 237.624 60.5344L237.201 61.0601C236.8 60.6447 236.252 60.4049 235.675 60.3933C235.335 60.4237 235.005 60.5215 234.703 60.6811C234.402 60.8407 234.135 61.0588 233.919 61.3227C233.703 61.5866 233.542 61.8909 233.445 62.2179C233.348 62.5449 233.317 62.888 233.354 63.2271C233.354 64.9324 234.277 66.0864 235.675 66.0864C236.326 66.064 236.946 65.804 237.419 65.3556L237.778 65.8557C237.195 66.3898 236.439 66.695 235.649 66.7147C235.211 66.7129 234.778 66.6179 234.379 66.436C233.98 66.254 233.625 65.9893 233.336 65.6595C233.048 65.3296 232.833 64.9422 232.705 64.5228C232.578 64.1034 232.541 63.6617 232.597 63.2271Z" fill="white"/>
<path d="M238.573 63.227C238.536 62.8092 238.582 62.3881 238.708 61.9881C238.835 61.5882 239.039 61.2172 239.31 60.8966C239.581 60.5759 239.912 60.312 240.285 60.12C240.658 59.928 241.065 59.8117 241.483 59.7778C243.099 59.7778 244.048 60.919 244.048 62.868C244.061 63.043 244.061 63.2188 244.048 63.3937H239.329C239.303 63.7358 239.346 64.0796 239.455 64.4048C239.564 64.73 239.737 65.0301 239.965 65.2871C240.192 65.5442 240.468 65.753 240.777 65.9013C241.087 66.0496 241.423 66.1344 241.765 66.1505C242.4 66.1544 243.02 65.9568 243.535 65.5864L243.804 66.1121C243.185 66.5467 242.445 66.7755 241.688 66.766C241.243 66.7639 240.803 66.6675 240.398 66.4831C239.992 66.2987 239.63 66.0305 239.336 65.6961C239.042 65.3618 238.821 64.9689 238.69 64.5434C238.558 64.1178 238.518 63.6692 238.573 63.227ZM243.394 62.7654C243.394 61.1626 242.663 60.3548 241.496 60.3548C240.892 60.4006 240.328 60.6758 239.92 61.1241C239.513 61.5723 239.292 62.1596 239.303 62.7654H243.394Z" fill="white"/>
<path d="M245.83 59.906H246.433L246.522 61.1883C246.679 60.8041 246.937 60.4698 247.269 60.2213C247.601 59.9728 247.995 59.8195 248.407 59.7778C248.639 59.7678 248.87 59.8209 249.074 59.9317L248.933 60.5728C248.739 60.4891 248.529 60.4497 248.318 60.4574C247.728 60.4574 247.035 60.8934 246.535 62.1371V66.5993H245.804L245.83 59.906Z" fill="white"/>
<path d="M249.51 65.8044L249.895 65.2787C250.46 65.8114 251.208 66.1094 251.985 66.1121C252.998 66.1121 253.511 65.5479 253.511 64.8299C253.511 64.1118 252.677 63.6759 251.895 63.4066C250.92 63.0604 249.869 62.6501 249.869 61.4961C249.869 60.342 250.638 59.7009 252.049 59.7009C252.755 59.7126 253.437 59.961 253.985 60.4062L253.6 60.9062C253.163 60.535 252.61 60.3266 252.036 60.3164C251.036 60.3164 250.587 60.8549 250.587 61.4576C250.587 62.0602 251.318 62.4706 252.087 62.7398C253.113 63.1245 254.229 63.4963 254.229 64.7786C254.229 65.8044 253.421 66.6763 251.946 66.6763C251.058 66.6757 250.197 66.3676 249.51 65.8044Z" fill="white"/>
<path d="M258.793 56.1748H259.345V70.0358H258.793V56.1748Z" fill="white"/>
<path d="M266.692 58.0853H263.833V57.457H270.334V58.0853H267.461V66.5481H266.692V58.0853Z" fill="white"/>
<path d="M270.449 64.9068C270.449 63.4322 271.731 62.7398 274.693 62.3423C274.693 61.355 274.424 60.342 273.167 60.342C272.404 60.3676 271.669 60.6322 271.064 61.0986L270.744 60.5728C271.493 60.0344 272.386 59.7309 273.308 59.7009C274.886 59.7009 275.45 60.8293 275.45 62.2654V66.484H274.834L274.757 65.6377C274.117 66.2302 273.294 66.5874 272.424 66.6506C272.176 66.6816 271.925 66.6595 271.687 66.586C271.449 66.5125 271.23 66.3892 271.043 66.2243C270.856 66.0593 270.707 65.8566 270.604 65.6294C270.502 65.4023 270.449 65.156 270.449 64.9068ZM274.693 65.0991V62.9065C272.065 63.2014 271.167 63.8169 271.167 64.8427C271.152 65.0217 271.177 65.2019 271.241 65.3698C271.305 65.5376 271.406 65.6889 271.537 65.8122C271.668 65.9355 271.824 66.0277 271.996 66.0818C272.167 66.136 272.348 66.1507 272.526 66.1249C273.355 66.0592 274.129 65.6838 274.693 65.0735V65.0991Z" fill="white"/>
<path d="M277.527 57.7262C277.527 57.5731 277.588 57.4264 277.696 57.3182C277.804 57.21 277.951 57.1492 278.104 57.1492C278.257 57.1492 278.404 57.21 278.512 57.3182C278.62 57.4264 278.681 57.5731 278.681 57.7262C278.681 57.8792 278.62 58.026 278.512 58.1342C278.404 58.2424 278.257 58.3032 278.104 58.3032C277.951 58.3032 277.804 58.2424 277.696 58.1342C277.588 58.026 277.527 57.8792 277.527 57.7262ZM277.732 59.906H278.463V66.5479H277.732V59.906Z" fill="white"/>
<path d="M280.399 63.2271C280.355 62.7918 280.401 62.3522 280.534 61.9356C280.668 61.5189 280.886 61.1343 281.174 60.8058C281.463 60.4772 281.817 60.2118 282.213 60.0261C282.609 59.8404 283.039 59.7384 283.476 59.7266C284.206 59.7336 284.905 60.0232 285.426 60.5344L285.015 61.0344C284.615 60.619 284.066 60.3793 283.489 60.3677C283.146 60.3963 282.812 60.4937 282.507 60.6542C282.202 60.8147 281.933 61.0349 281.715 61.3018C281.497 61.5687 281.336 61.8767 281.24 62.2075C281.143 62.5383 281.115 62.885 281.156 63.2271C281.156 64.9324 282.079 66.0864 283.476 66.0864C284.124 66.0632 284.74 65.8031 285.208 65.3556L285.579 65.8557C284.992 66.3907 284.232 66.6958 283.438 66.7147C281.707 66.7147 280.399 65.4453 280.399 63.2271Z" fill="white"/>
<path d="M287.208 56.6235H287.939V60.919C288.215 60.5918 288.553 60.3225 288.934 60.1267C289.314 59.9308 289.73 59.8123 290.157 59.7778C291.542 59.7778 292.183 60.6369 292.183 62.3423V66.5993H291.452V62.3423C291.452 60.9575 291.016 60.3164 289.99 60.3164C289.221 60.3164 288.708 60.7267 287.9 61.5217V66.4967H287.208V56.6235Z" fill="white"/>
<path d="M294.427 64.1502V59.906H295.158V64.0733C295.158 65.4324 295.581 66.0607 296.594 66.0607C297.376 66.0607 297.876 65.6632 298.671 64.7785V59.906H299.402V66.548H298.748L298.684 65.4581C298.431 65.8275 298.098 66.1348 297.709 66.3568C297.32 66.5789 296.886 66.71 296.44 66.7403C295.055 66.7147 294.427 65.8684 294.427 64.1502Z" fill="white"/>
<path d="M301.889 59.9061H302.492L302.582 60.9062C302.863 60.5688 303.208 60.2907 303.598 60.0882C303.988 59.8856 304.414 59.7627 304.851 59.7266C306.236 59.7266 306.877 60.5857 306.877 62.291V66.5481H306.146V62.3423C306.146 60.9575 305.711 60.3164 304.685 60.3164C303.915 60.3164 303.402 60.7267 302.595 61.5217V66.4968H301.864L301.889 59.9061Z" fill="white"/>
<path d="M308.737 67.9073C308.761 67.5809 308.866 67.2655 309.04 66.9885C309.214 66.7114 309.453 66.481 309.737 66.3173V66.2532C309.554 66.1388 309.403 65.9802 309.297 65.7919C309.192 65.6036 309.136 65.3918 309.134 65.1761C309.148 64.9188 309.222 64.6684 309.352 64.4455C309.481 64.2225 309.661 64.0335 309.878 63.8939C309.611 63.6728 309.395 63.3969 309.245 63.085C309.094 62.773 309.013 62.4322 309.006 62.0859C309.007 61.7756 309.071 61.4688 309.193 61.1836C309.316 60.8984 309.494 60.6406 309.717 60.4254C309.941 60.2102 310.205 60.042 310.495 59.9308C310.784 59.8196 311.094 59.7676 311.404 59.7779C311.712 59.7786 312.017 59.8395 312.301 59.9574H314.571V60.5472H313.071C313.291 60.7509 313.466 60.9991 313.583 61.2755C313.7 61.5518 313.757 61.8499 313.75 62.15C313.759 62.4606 313.704 62.7697 313.59 63.0584C313.475 63.347 313.302 63.6093 313.083 63.8289C312.863 64.0486 312.601 64.2211 312.312 64.3359C312.023 64.4507 311.714 64.5054 311.404 64.4965C311.031 64.4957 310.664 64.3985 310.339 64.2144C310.185 64.3157 310.057 64.4522 309.965 64.6127C309.874 64.7732 309.822 64.9531 309.814 65.1376C309.814 65.6121 310.096 65.9839 311.096 65.9839H312.494C314.007 65.9839 314.712 66.4583 314.712 67.5098C314.712 68.5612 313.43 69.7793 311.519 69.7793C309.826 69.728 308.737 69.0228 308.737 67.9073ZM313.955 67.5611C313.955 66.8558 313.43 66.5866 312.442 66.5866H311.083C310.803 66.5737 310.524 66.5394 310.25 66.484C310.02 66.6164 309.826 66.8019 309.683 67.0251C309.54 67.2482 309.453 67.5024 309.429 67.7662C309.429 68.574 310.211 69.1254 311.57 69.1254C312.929 69.1254 313.955 68.356 313.955 67.5611ZM313.058 62.0859C313.058 61.6472 312.883 61.2265 312.573 60.9163C312.263 60.6061 311.842 60.4318 311.404 60.4318C310.965 60.4318 310.544 60.6061 310.234 60.9163C309.924 61.2265 309.75 61.6472 309.75 62.0859C309.72 62.3204 309.741 62.5585 309.811 62.7843C309.881 63.0101 309.998 63.2184 310.154 63.3956C310.311 63.5727 310.503 63.7146 310.718 63.8118C310.934 63.9089 311.167 63.9592 311.404 63.9592C311.64 63.9592 311.874 63.9089 312.089 63.8118C312.304 63.7146 312.497 63.5727 312.653 63.3956C312.81 63.2184 312.927 63.0101 312.996 62.7843C313.066 62.5585 313.087 62.3204 313.058 62.0859Z" fill="white"/>
<path d="M317.648 57.457H318.456L320.084 62.6886C320.418 63.7785 320.661 64.6247 321.02 65.7274C321.392 64.6247 321.636 63.7785 321.982 62.6886L323.61 57.457H324.392L321.431 66.5481H320.61L317.648 57.457Z" fill="white"/>
<path d="M324.982 63.227C324.947 62.8085 324.995 62.3871 325.123 61.9871C325.251 61.587 325.457 61.2162 325.728 60.8958C326 60.5754 326.332 60.3117 326.706 60.1198C327.079 59.928 327.487 59.8118 327.906 59.7778C329.509 59.7778 330.47 60.919 330.47 62.868C330.484 63.043 330.484 63.2188 330.47 63.3937H325.675C325.649 63.7358 325.691 64.0796 325.801 64.4048C325.91 64.73 326.083 65.03 326.31 65.2871C326.537 65.5442 326.814 65.753 327.123 65.9013C327.432 66.0496 327.768 66.1344 328.111 66.1505C328.746 66.1561 329.366 65.9584 329.881 65.5864L330.163 66.1121C329.538 66.5446 328.794 66.7731 328.034 66.766C327.594 66.755 327.161 66.652 326.763 66.4637C326.366 66.2754 326.012 66.0059 325.724 65.6726C325.437 65.3393 325.222 64.9495 325.095 64.5283C324.967 64.1071 324.929 63.6639 324.982 63.227ZM329.816 62.7654C329.816 61.1626 329.073 60.3548 327.919 60.3548C327.305 60.3879 326.729 60.6577 326.31 61.1073C325.892 61.5569 325.664 62.1513 325.675 62.7654H329.816Z" fill="white"/>
<path d="M332.253 59.9061H332.843L332.932 61.1883C333.09 60.805 333.348 60.4714 333.68 60.2231C334.012 59.9747 334.405 59.8209 334.817 59.7779C335.054 59.7655 335.289 59.8187 335.497 59.9318L335.343 60.5729C335.149 60.4879 334.939 60.4484 334.727 60.4575C334.15 60.4575 333.445 60.8934 332.945 62.1372V66.5994H332.227L332.253 59.9061Z" fill="white"/>
<path d="M335.933 65.8043L336.317 65.2786C336.89 65.809 337.64 66.1062 338.42 66.1121C339.433 66.1121 339.933 65.5479 339.933 64.8298C339.933 64.1118 339.1 63.6758 338.33 63.4066C337.343 63.0604 336.292 62.65 336.292 61.496C336.292 60.342 337.061 59.7778 338.497 59.7778C339.199 59.7894 339.877 60.0379 340.42 60.4831L340.036 60.9831C339.601 60.6147 339.054 60.4065 338.484 60.3933C337.484 60.3933 337.035 60.9318 337.035 61.5345C337.035 62.1371 337.753 62.5475 338.536 62.8167C339.549 63.2014 340.677 63.5732 340.677 64.8555C340.677 65.8813 339.869 66.7532 338.395 66.7532C337.489 66.7295 336.62 66.3944 335.933 65.8043Z" fill="white"/>
<path d="M342.164 57.7261C342.16 57.6482 342.173 57.5704 342.202 57.4978C342.23 57.4252 342.274 57.3595 342.329 57.3049C342.385 57.2504 342.452 57.2083 342.525 57.1815C342.598 57.1546 342.676 57.1436 342.754 57.1491C342.83 57.1473 342.905 57.161 342.975 57.1895C343.045 57.218 343.109 57.2607 343.162 57.3148C343.215 57.369 343.256 57.4334 343.283 57.5042C343.31 57.5749 343.322 57.6505 343.318 57.7261C343.318 57.8791 343.257 58.0259 343.149 58.1341C343.041 58.2423 342.894 58.3031 342.741 58.3031C342.588 58.3031 342.441 58.2423 342.333 58.1341C342.225 58.0259 342.164 57.8791 342.164 57.7261ZM342.369 59.9059H343.1V66.5479H342.344L342.369 59.9059Z" fill="white"/>
<path d="M345.037 63.2269C344.973 62.7952 345.004 62.355 345.126 61.9362C345.248 61.5173 345.459 61.1297 345.744 60.7996C346.03 60.4695 346.383 60.2047 346.779 60.0232C347.176 59.8417 347.607 59.7478 348.044 59.7478C348.48 59.7478 348.911 59.8417 349.308 60.0232C349.704 60.2047 350.057 60.4695 350.343 60.7996C350.628 61.1297 350.839 61.5173 350.961 61.9362C351.083 62.355 351.114 62.7952 351.05 63.2269C351.114 63.6586 351.083 64.0988 350.961 64.5177C350.839 64.9365 350.628 65.3242 350.343 65.6543C350.057 65.9843 349.704 66.2491 349.308 66.4306C348.911 66.6121 348.48 66.7061 348.044 66.7061C347.607 66.7061 347.176 66.6121 346.779 66.4306C346.383 66.2491 346.03 65.9843 345.744 65.6543C345.459 65.3242 345.248 64.9365 345.126 64.5177C345.004 64.0988 344.973 63.6586 345.037 63.2269ZM350.307 63.2269C350.307 61.5344 349.345 60.3675 348.037 60.3675C346.729 60.3675 345.793 61.5344 345.793 63.2269C345.793 64.9195 346.742 66.0863 348.037 66.0863C349.332 66.0863 350.307 64.9067 350.307 63.2269Z" fill="white"/>
<path d="M352.999 59.9061H353.602L353.692 60.9062C353.972 60.5677 354.317 60.2889 354.707 60.0862C355.097 59.8836 355.523 59.7613 355.961 59.7266C357.346 59.7266 357.974 60.5857 357.974 62.291V66.5481H357.256V62.3423C357.256 60.9575 356.82 60.3164 355.795 60.3164C355.025 60.3164 354.512 60.7267 353.704 61.5217V66.4968H352.974L352.999 59.9061Z" fill="white"/>
<path d="M9.42409 46.1605C8.48929 41.2643 9.02699 36.2009 10.9692 31.6103C12.9115 27.0196 16.1711 23.1078 20.3361 20.3693C24.501 17.6308 29.3844 16.1885 34.3688 16.2248C39.3533 16.261 44.2152 17.7742 48.3399 20.5729C52.4646 23.3717 55.6669 27.3305 57.5422 31.9489C59.4175 36.5673 59.8816 41.638 58.8757 46.52C57.8698 51.4021 55.4391 55.8763 51.8909 59.3773C48.3427 62.8782 43.8362 65.2486 38.9411 66.189C35.6879 66.8122 32.3438 66.7885 29.0997 66.1192C25.8557 65.45 22.7752 64.1482 20.0342 62.2884C17.2933 60.4285 14.9455 58.047 13.125 55.2798C11.3045 52.5125 10.0469 49.4138 9.42409 46.1605ZM58.9696 36.6976C57.8965 30.8844 54.5654 25.7327 49.7045 22.3687C44.8436 19.0048 38.8485 17.7024 33.03 18.7463C27.2454 19.928 22.1628 23.3495 18.8911 28.2642C15.6194 33.179 14.4241 39.1881 15.566 44.9808C16.6358 50.7982 19.9682 55.9543 24.8328 59.3192C29.6975 62.684 35.6976 63.9832 41.5184 62.9321C47.3024 61.7505 52.3839 58.3285 55.6536 53.4133C58.9232 48.498 60.1153 42.4887 58.9696 36.6976Z" fill="white"/>
<path d="M39.1336 58.8547C35.6234 59.5347 31.9904 59.1586 28.6939 57.774C25.3974 56.3894 22.5855 54.0584 20.6136 51.0758C18.6418 48.0932 17.5986 44.593 17.6159 41.0175C17.6333 37.4421 18.7103 33.9521 20.711 30.9888C22.7117 28.0254 25.546 25.7218 28.8558 24.3692C32.1655 23.0166 35.802 22.6758 39.3055 23.3898C42.809 24.1037 46.022 25.8405 48.5385 28.3804C51.055 30.9204 52.7619 34.1494 53.4433 37.6594C54.3504 42.367 53.3533 47.2422 50.6707 51.2156C47.9881 55.1891 43.839 57.9363 39.1336 58.8547ZM32.2352 23.3496C28.0687 24.1286 24.3805 26.5261 21.9775 30.0177C19.5744 33.5093 18.6523 37.8107 19.4128 41.9805C20.265 46.1377 22.7336 49.7861 26.2755 52.1234C29.8175 54.4607 34.1428 55.2953 38.3001 54.4438C42.4682 53.668 46.1586 51.2711 48.5622 47.7787C50.9658 44.2862 51.8866 39.9832 51.1225 35.8129C50.261 31.6609 47.7904 28.0188 44.251 25.6833C40.7117 23.3477 36.3915 22.5087 32.2352 23.3496Z" fill="#F5CD1E"/>
<path d="M48.7125 36.159C49.2557 38.8174 48.9986 41.5771 47.9735 44.0894C46.9485 46.6016 45.2016 48.7535 42.9536 50.2729C40.7057 51.7924 38.0577 52.6112 35.3444 52.6259C32.6311 52.6405 29.9744 51.8503 27.7102 50.3552C25.446 48.86 23.676 46.7271 22.6239 44.2261C21.5718 41.7251 21.2849 38.9682 21.7995 36.3042C22.314 33.6401 23.607 31.1884 25.5148 29.2591C27.4226 27.3298 29.8597 26.0095 32.5178 25.4652C36.0832 24.7385 39.7912 25.4565 42.8276 27.4615C45.864 29.4666 47.9806 32.5947 48.7125 36.159ZM21.7855 41.6342C22.3972 44.7953 24.238 47.5846 26.9039 49.3899C29.5699 51.1953 32.8432 51.8692 36.0055 51.2637C39.1507 50.5815 41.897 48.6797 43.642 45.9756C45.3871 43.2714 45.9886 39.9856 45.3145 36.8386C44.7026 33.6889 42.8688 30.9094 40.214 29.1075C37.5591 27.3055 34.299 26.6276 31.1458 27.2218C27.9939 27.8927 25.2374 29.7877 23.4821 32.4903C21.7269 35.1929 21.1166 38.4818 21.7855 41.6342Z" fill="white"/>
<path d="M31.9657 30.9789C33.5939 30.6185 35.2923 30.7494 36.846 31.3549C38.3997 31.9605 39.7388 33.0136 40.6935 34.3808C41.6482 35.748 42.1758 37.3678 42.2092 39.035C42.2427 40.7022 41.7806 42.3418 40.8815 43.7462C39.9824 45.1506 38.6867 46.2566 37.1586 46.9241C35.6305 47.5915 33.9386 47.7905 32.2973 47.4957C30.656 47.2008 29.1392 46.4256 27.9388 45.268C26.7385 44.1105 25.9087 42.6227 25.5545 40.9932C25.0847 38.8157 25.4951 36.5408 26.6962 34.6647C27.8973 32.7887 29.7915 31.4637 31.9657 30.9789ZM35.5432 47.4428C36.9536 47.0976 38.231 46.3442 39.2156 45.2769C40.2002 44.2096 40.8483 42.8758 41.079 41.4422C41.3096 40.0085 41.1125 38.5387 40.5124 37.2164C39.9122 35.8942 38.9356 34.7782 37.7047 34.0079C36.4737 33.2377 35.043 32.8474 33.5914 32.8859C32.1399 32.9244 30.7318 33.3899 29.5434 34.2242C28.3549 35.0585 27.4388 36.2247 26.9095 37.5769C26.3802 38.929 26.2613 40.4072 26.5675 41.8266C26.7867 42.7855 27.193 43.6917 27.7631 44.4932C28.3332 45.2948 29.0559 45.9759 29.8897 46.4977C30.7235 47.0194 31.6521 47.3714 32.6222 47.5336C33.5924 47.6958 34.585 47.665 35.5432 47.4428Z" fill="#F5CD1E"/>
<path fill-rule="evenodd" clip-rule="evenodd" d="M290.835 19H339.945C347.586 19 353.78 25.1943 353.78 32.8353C353.78 40.4763 347.586 46.6706 339.945 46.6706H290.835C283.194 46.6706 277 40.4763 277 32.8353C277 25.1943 283.194 19 290.835 19ZM302.632 31.8224C302.995 31.8481 303.359 31.8481 303.722 31.8224C304.112 31.8107 304.502 31.7765 304.889 31.7198V31.5659C304.554 31.5282 304.238 31.3946 303.978 31.1813C303.709 30.9757 303.479 30.7239 303.299 30.4376C302.929 29.8463 302.612 29.2243 302.35 28.5783C302.081 27.9116 301.837 27.2833 301.619 26.6293H298.657L298.99 27.4628C299.119 27.7962 299.26 28.1295 299.401 28.4629L299.85 29.4374C299.974 29.6963 300.09 29.9134 300.19 30.1022L300.191 30.1026L300.192 30.1056C300.216 30.1493 300.238 30.1916 300.26 30.2324C299.902 30.3417 299.538 30.4316 299.17 30.5017C298.792 30.5676 298.411 30.6104 298.029 30.6299H295.785H293.567C293.499 30.6287 293.433 30.6104 293.375 30.5768C293.317 30.5431 293.268 30.4952 293.233 30.4376C293.192 30.3891 293.17 30.3278 293.17 30.2645C293.17 30.2011 293.192 30.1399 293.233 30.0914L297.17 24.8085H293.746L290.092 29.7836C289.954 29.9692 289.85 30.1775 289.784 30.3991C289.746 30.5766 289.746 30.7601 289.784 30.9376C289.81 31.0514 289.86 31.1583 289.931 31.2512C290.002 31.3441 290.092 31.4208 290.194 31.4762C290.456 31.6101 290.746 31.6804 291.041 31.6813H292.605H294.272H297.336C297.946 31.6847 298.554 31.6418 299.157 31.5531C299.737 31.4754 300.302 31.3156 300.837 31.0787C301.083 31.2932 301.365 31.4625 301.67 31.5787C301.982 31.6929 302.304 31.7745 302.632 31.8224ZM302.374 39.6974C302.594 39.6137 302.795 39.4865 302.965 39.3234C303.138 39.1719 303.274 38.9841 303.365 38.7734C303.456 38.5628 303.499 38.3346 303.491 38.1053V34.6305C303.491 34.383 303.438 34.1384 303.337 33.9124C303.134 33.457 302.761 33.0984 302.299 32.9123C302.056 32.8072 301.794 32.7548 301.529 32.7584H294.067C293.834 32.7521 293.606 32.8294 293.426 32.9764C293.258 33.1293 293.126 33.3176 293.041 33.5277V32.784H290.258V39.8107H293.041V39.0285C293.135 39.2509 293.291 39.4421 293.49 39.5799C293.682 39.7253 293.915 39.8061 294.156 39.8107H301.683C301.919 39.8196 302.153 39.7811 302.374 39.6974ZM300.632 34.233C300.681 34.3144 300.707 34.4073 300.709 34.5022V38.1181C300.698 38.3082 300.616 38.4872 300.478 38.6182C300.41 38.6902 300.329 38.7477 300.239 38.7874C300.148 38.8271 300.051 38.848 299.952 38.849H293.028V33.7201H299.978C300.064 33.7236 300.148 33.7502 300.221 33.797C300.309 33.8466 300.388 33.9118 300.452 33.9893C300.53 34.0557 300.591 34.1391 300.632 34.233ZM321.532 34.3868C321.423 34.626 321.266 34.8399 321.07 35.0151C320.689 35.3531 320.195 35.5361 319.686 35.528H316.108V39.7594H313.454V35.528H311.428C311.197 35.5227 310.973 35.4466 310.787 35.3101C310.593 35.1684 310.445 34.9719 310.364 34.7459V35.528H307.697V27.6423H310.364V28.3988C310.442 28.1496 310.605 27.9361 310.825 27.7962C311.035 27.6605 311.281 27.5892 311.531 27.591H313.454V24.8085H316.108V27.6423H319.686C319.992 27.6361 320.295 27.702 320.57 27.8346C320.815 27.9521 321.037 28.1129 321.224 28.3091C321.549 28.6559 321.724 29.1165 321.712 29.5913V33.5277C321.721 33.8243 321.66 34.1189 321.532 34.3868ZM313.454 28.604H310.364V34.592H313.454V28.604ZM319.083 29.5913C319.09 29.453 319.064 29.3151 319.008 29.1883C318.953 29.0615 318.869 28.9493 318.762 28.8604C318.561 28.6932 318.306 28.6025 318.044 28.604H316.108V34.592H318.327C318.429 34.5887 318.529 34.5628 318.62 34.5162C318.71 34.4697 318.79 34.4036 318.852 34.3227C318.993 34.1674 319.074 33.9678 319.083 33.7585V29.5913ZM327.7 32.6815V30.5914L330.982 30.6299V29.681H330.572V24.7701H328.328V29.681H327.713V24.7701H325.366V36.5538C325.367 37.1034 325.324 37.6522 325.238 38.1951C325.167 38.7399 325.029 39.2738 324.828 39.7851L324.943 39.8876C325.451 39.5269 325.904 39.0951 326.289 38.6054C326.635 38.1442 326.92 37.6399 327.136 37.1052C327.355 36.5664 327.506 36.002 327.584 35.4255C327.674 34.827 327.716 34.2226 327.713 33.6175H327.918C327.961 33.6181 328.004 33.6275 328.044 33.6451C328.083 33.6627 328.119 33.6882 328.149 33.7201C328.2 33.7906 328.227 33.8762 328.226 33.9637V39.8107H330.572V34.2202C330.591 34.0076 330.565 33.7934 330.494 33.5921C330.423 33.3907 330.31 33.207 330.162 33.0533C329.831 32.7827 329.408 32.6495 328.982 32.6815H327.7ZM338.368 39.3747C339.088 39.6674 339.83 39.9032 340.586 40.08L340.676 39.9389C340.081 39.5225 339.535 39.0408 339.048 38.5028C338.564 37.9839 338.134 37.4168 337.765 36.8103C338.063 36.4628 338.329 36.0895 338.56 35.6947C338.801 35.2833 339.011 34.8547 339.189 34.4125C339.355 33.9637 339.509 33.5149 339.637 33.0533C339.758 32.6322 339.852 32.204 339.92 31.7711C339.957 31.4774 339.957 31.18 339.92 30.8863C339.909 30.6265 339.819 30.3761 339.663 30.1683C339.538 30.0105 339.375 29.8869 339.189 29.8093C338.957 29.7142 338.708 29.6704 338.458 29.681H333.867V27.3858C333.869 27.306 333.887 27.2273 333.92 27.1545C333.953 27.0818 334.001 27.0165 334.06 26.9627C334.115 26.9021 334.182 26.8537 334.257 26.8206C334.332 26.7874 334.414 26.7703 334.496 26.7704H338.24C338.593 26.7865 338.943 26.6924 339.24 26.5011C339.482 26.3259 339.677 26.0921 339.804 25.8215C339.888 25.6495 339.952 25.4689 339.996 25.283C340.073 25.0778 340.112 24.9111 340.112 24.7829H337.163C337.099 24.8727 337.099 24.9881 337.099 25.1035C337.063 25.2356 337.016 25.3643 336.958 25.4881C336.923 25.595 336.854 25.6873 336.761 25.7501C336.668 25.8129 336.557 25.8426 336.445 25.8343H332.983C332.768 25.8158 332.552 25.8403 332.348 25.9064C332.143 25.9724 331.953 26.0787 331.79 26.219C331.629 26.3888 331.505 26.5909 331.428 26.8119C331.351 27.033 331.321 27.2679 331.341 27.5012V35.8999C331.347 36.6153 331.308 37.3305 331.226 38.0412C331.142 38.6776 330.983 39.3017 330.752 39.9005L330.867 39.9902C331.506 39.55 332.069 39.0087 332.534 38.3874C332.936 37.8211 333.244 37.1931 333.444 36.5282C333.602 35.9667 333.705 35.3913 333.752 34.81C333.807 34.1704 333.829 33.5284 333.816 32.8866C333.959 33.5598 334.143 34.2235 334.367 34.8741C334.588 35.5224 334.876 36.1456 335.227 36.7333C334.778 37.3416 334.281 37.912 333.739 38.4387C333.198 38.9657 332.624 39.4582 332.021 39.9133L332.124 40.0159C332.457 39.9261 332.803 39.8107 333.175 39.6825C333.547 39.5543 333.919 39.4132 334.291 39.2465C334.662 39.0798 335.034 38.9003 335.38 38.708C335.726 38.5238 336.06 38.3182 336.381 38.0925C336.96 38.6365 337.634 39.0709 338.368 39.3747ZM337.265 30.8094C337.321 30.925 337.343 31.0538 337.329 31.1813C337.289 31.7429 337.203 32.3003 337.073 32.8482C336.953 33.3917 336.786 33.9237 336.573 34.4381C336.406 33.9576 336.277 33.4645 336.188 32.9636C336.085 32.4592 336.008 31.9499 335.957 31.4377H333.816V30.6427H336.893C337.086 30.6427 337.265 30.694 337.265 30.8094Z" fill="white"/>
</svg>
