<svg width="389" height="548" viewBox="0 0 389 548" fill="none" xmlns="http://www.w3.org/2000/svg">
<g clip-path="url(#clip0_155_8829)">
<path d="M194.341 232.919C216.401 233.791 233.762 244.848 244.238 252.614C254.714 260.379 307.455 307.082 311.795 321.15C316.135 335.217 321.852 626.805 316.076 635.695C310.299 644.586 249.147 665.237 222.148 666.643C195.149 668.05 77.9945 647.652 68.7454 639.606C59.4963 631.559 37.556 350.438 42.405 333.219C47.254 316.001 122.025 260.576 136.961 244.342C143.456 237.139 184.703 232.554 194.341 232.919Z" fill="#BDBFE1"/>
<path d="M238.641 293.943C238.85 297.939 234.001 316.198 231.846 318.477C229.691 320.756 212.869 321.853 210.893 320.531C208.918 319.208 199.429 300.639 198.921 297.095C198.412 293.55 212.39 277.991 218.227 277.091C224.064 276.19 238.521 291.552 238.641 293.943Z" fill="#2E2766"/>
<path d="M231.846 318.477C231.846 318.477 259.174 506.838 260.761 519.527C262.347 532.216 231.487 608.433 226.279 610.149C221.07 611.865 191.946 534.185 190.15 525.745C188.354 517.304 208.978 326.664 210.654 319.912C211.103 318.027 231.607 316.704 231.846 318.477Z" fill="#2E2766"/>
<path d="M266.418 809.398C269.172 817.107 341.937 796.625 343.404 787.228C344.87 777.831 319.099 561.279 319.069 544.285C319.039 527.292 321.822 339.662 313.262 318.026C308.952 307.082 282.432 281.761 267.136 267.975C260.641 262.067 256.151 258.212 256.151 258.212C258.665 267.328 268.124 389.967 265.699 473.414C264.951 500.086 264.472 543.357 264.233 590.089C264.233 590.539 264.233 590.905 264.233 591.27C263.754 690.22 264.472 804.25 266.418 809.398Z" fill="white"/>
<path d="M301.678 383.411C302.277 374.802 270.638 339.746 270.638 339.746C270.638 339.746 298.745 343.91 298.775 338.143C298.775 333.135 273.183 280.354 267.136 267.975C260.641 262.067 251.542 255.258 251.542 255.258C254.056 264.402 268.094 389.967 265.7 473.414C264.951 500.086 264.472 543.357 264.233 590.089C265.49 563.501 301.079 391.908 301.678 383.411Z" fill="white"/>
<path d="M301.109 380.879C291.92 366.474 268.723 338.959 268.872 339.071C269.022 339.184 295.811 340.056 297.637 338.002C299.014 336.567 275.008 286.15 267.705 272.505C267.68 272.442 267.679 272.374 267.702 272.311C267.725 272.248 267.772 272.195 267.833 272.162C267.894 272.128 267.965 272.116 268.035 272.127C268.105 272.138 268.168 272.172 268.214 272.223C281.324 290.286 304.132 338.931 299.403 340.365C294.674 341.8 280.486 341.716 273.991 341.716C285.335 352.688 303.504 379.473 304.132 381.386C304.761 383.299 293.297 447.755 287.131 478.703C280.546 512.071 275.158 550.165 266.807 583.196C266.807 583.843 265.699 583.561 265.789 582.97C270.04 549.715 294.105 417.539 301.109 380.879Z" fill="#2E2766"/>
<path d="M30.432 787.932C88.2312 830.134 165.636 819.414 168.36 813.562C169.976 810.074 174.346 702.402 175.933 596.278V594.843C176.891 522.65 176.561 451.357 172.939 414.247C167.128 356.65 155.339 299.726 137.739 244.286C135.018 245.611 132.501 247.277 130.256 249.237C108.166 265.949 46.0866 319.574 46.7152 329.702C47.5234 341.603 50.5764 497.694 45.6376 565.64C40.6988 633.585 22.3503 781.995 30.432 787.932Z" fill="white"/>
<path d="M90.5061 426.598C100.623 425.782 142.678 428.005 153.364 429.13C153.962 429.13 153.843 430.115 153.364 430.115C142.588 430.453 95.2952 428.061 93.4993 428.765C91.7034 429.468 92.4217 437.627 93.4993 438.105C95.9837 439.231 142.528 439.625 153.663 439.85C155.579 439.85 155.669 442.663 153.663 442.663C132.711 442.213 111.758 441.425 90.985 440.44C90.5952 440.441 90.2199 440.302 89.9361 440.05C89.6523 439.799 89.4814 439.456 89.4584 439.09C89.3182 434.902 89.6695 430.713 90.5061 426.598Z" fill="#2E2766"/>
<path d="M145.013 331.194C145.492 332.235 115.32 359.694 113.644 363.689C111.967 367.684 154.262 474.737 163.182 507.176C172.101 539.615 175.933 596.335 175.933 596.335V594.9C176.891 522.706 176.561 451.413 172.939 414.303C167.037 355.897 156.177 298.027 140.463 241.247C139.834 241.247 134.476 246.114 130.316 249.237C129.747 251.46 109.573 321.768 109.363 324.047C109.154 326.326 144.594 330.153 145.013 331.194Z" fill="white"/>
<path d="M129.238 251.404C129.418 250.728 129.927 250.897 129.777 251.601C125.007 276.053 118.69 300.217 110.86 323.963C122.833 325.876 145.581 330.265 146 330.743C146.779 331.644 137.021 342.841 131.783 347.793C126.357 353.573 120.516 358.997 114.302 364.027C131.004 399.279 166.205 507.513 169.617 525.801C172.894 544.712 175.053 563.779 176.082 582.914C176.082 583.139 175.723 583.168 175.693 582.914C173.059 562.826 170.724 542.654 166.264 522.819C162.224 504.953 124.838 399.955 111.638 364.561C111.279 363.605 139.296 336.173 144.354 331.503C132.92 329.843 107.927 326.186 108.226 325.201C115.649 300.761 122.653 276.162 129.238 251.404Z" fill="#2E2766"/>
<path d="M97.3904 527.011C97.57 531.878 98.4381 535.282 99.3061 535.676C101.97 537.027 113.255 542.147 128.52 547.943C131.274 548.984 134.117 550.053 137.111 551.122C145.462 554.104 176.023 568.734 209.996 584.152C255.612 604.775 307.784 626.776 322.9 624.385C349.211 620.164 386.087 590.398 388.901 573.32C391.714 556.243 336.37 353.251 329.336 339.437C322.301 325.623 314.369 313.947 306.797 306.941L318.261 530.302C317.478 529.901 316.656 529.571 315.806 529.318C307.305 526.504 279.049 519.133 246.633 511.171C192.096 497.751 125.766 482.473 121.456 483.74C119.943 484.203 118.463 484.757 117.026 485.4C100.084 493.333 96.7918 514.8 97.3904 527.011Z" fill="white"/>
<path d="M128.49 547.943C131.244 548.984 134.087 550.053 137.08 551.122C145.432 554.104 175.992 568.734 209.965 584.152L233.253 571.379C251.901 561.194 271.057 551.544 289.256 540.769C290.724 539.914 292.133 538.975 293.476 537.955L296.679 538.096C302.666 538.293 315.147 537.871 315.896 530.921C315.906 530.762 315.906 530.602 315.896 530.443C315.916 530.322 315.916 530.199 315.896 530.077C315.896 529.852 315.896 529.599 315.896 529.318C307.395 526.504 279.139 519.133 246.722 511.171C217.351 509.685 188.074 515.416 161.775 527.798C149.859 533.232 138.684 539.996 128.49 547.943Z" fill="#BDBFE1"/>
<path d="M95.7441 527.151C95.7441 529.318 96.1632 531.569 96.5523 533.932C96.3428 534.467 97.2108 535.254 97.8693 535.592C129.627 552.867 226.069 593.493 249.925 603.425C263.933 609.305 311.765 630.828 326.522 624.075C326.821 623.907 326.881 623.625 326.522 623.681H326.133C312.663 625.623 261.15 605.563 210.594 583.787C202.123 580.157 193.653 576.472 185.421 572.87C185.154 572.717 184.874 572.585 184.583 572.476C167.312 564.852 150.969 557.424 137.29 551.15H137.111L129.149 547.493C110.71 539.052 98.7673 533.425 98.7673 533.425C97.9591 522.622 98.1387 493.868 122.264 484.921C158.752 494.065 199.908 502.252 236.665 511.227C237.952 511.509 239.209 511.818 240.497 512.156C259.733 516.901 278.999 521.74 298.296 526.673C304.226 528.004 309.943 530.066 315.297 532.807C318.673 534.582 321.8 536.746 324.606 539.249C331.371 545.242 337.836 551.432 344.9 557.143C345.319 557.509 345.828 556.974 345.469 556.58C337.806 547.83 329.784 537.927 319.637 531.259C320.655 504.081 321.224 476.79 321.942 449.669C323.241 447.651 324.143 445.431 324.606 443.113C325.419 440.136 326.009 437.109 326.372 434.054C326.4 433.942 326.379 433.824 326.315 433.727C326.25 433.629 326.147 433.56 326.028 433.533C325.909 433.507 325.784 433.527 325.68 433.587C325.576 433.648 325.502 433.745 325.474 433.857C324.756 436.67 323.858 439.484 322.84 442.157C322.601 442.776 322.331 443.367 322.062 444.014C322.361 432.76 322.631 421.309 323.05 409.971C323.05 409.971 322.87 409.971 322.84 409.971C318.021 440.919 317.003 472.795 316.854 504.475C316.854 512.915 316.854 521.356 316.854 529.796C314.102 528.14 311.16 526.781 308.084 525.745C288.837 519.921 268.872 515.729 249.356 510.918C226.548 505.291 202.123 499.917 177.788 494.769C177.28 494.769 176.741 494.515 176.142 494.431C160.817 491.195 145.581 487.988 130.855 484.837L122.264 483.008C120.01 483.502 117.85 484.318 115.859 485.428C107.537 489.648 93.7387 500.846 95.7441 527.151Z" fill="#2E2766"/>
<path d="M256.002 499.833C263.048 504.95 269.12 511.152 273.961 518.177C277.822 523.174 280.85 528.696 282.941 534.551C285.453 534.645 287.968 534.437 290.424 533.932C292.911 533.584 295.254 532.618 297.211 531.134C299.169 529.651 300.67 527.703 301.558 525.492L315.866 529.346C321.852 527.039 314.339 518.402 314.339 518.402C314.519 514.913 307.754 510.637 307.754 510.637C306.916 507.092 298.236 503.884 298.236 503.884C298.236 503.884 295.512 500.508 285.485 498.736C279.229 497.61 265.43 498.792 256.002 499.833Z" fill="#FFD395"/>
<path d="M0.26004 564.289C0.26004 575.121 37.3461 627.789 61.9804 624.807C102.389 619.996 273.422 541.331 281.653 539.559C283.359 539.137 283.629 537.308 282.91 534.551C280.819 528.696 277.791 523.174 273.931 518.177C269.09 511.152 263.018 504.949 255.971 499.833C254.465 498.826 252.812 498.03 251.062 497.469C240.107 494.346 138.218 511.087 95.6242 518.796C84.5493 520.793 77.6649 522.172 77.0363 522.425C76.4077 522.678 75.7193 508.358 74.971 487.06C72.6662 424.854 69.9124 301.371 69.9124 301.371C57.1313 313.666 31.2699 337.468 26.5106 345.824C21.7514 354.18 0.349854 553.457 0.26004 564.289Z" fill="white"/>
<path d="M48.3314 536.042C56.031 530.786 64.3222 526.342 73.0555 522.791C67.069 521.412 58.0893 524.225 53.4199 524.676C52.492 524.676 52.4022 523.522 53.1505 523.241C58.3445 521.464 63.8173 520.513 69.3439 520.427C71.0688 520.351 72.7868 520.679 74.3426 521.384C71.4278 486.116 71.8987 450.673 75.7494 415.485C75.7494 414.866 76.8868 415.007 76.8868 415.485C76.8868 424.826 76.8868 434.166 76.8868 443.62C77.9045 439.709 79.1317 435.826 80.1494 432.141C80.1367 432.111 80.132 432.078 80.1357 432.046C80.1393 432.014 80.1513 431.984 80.1705 431.957C80.1897 431.93 80.2155 431.909 80.2458 431.894C80.276 431.878 80.3097 431.871 80.344 431.871C80.3782 431.871 80.4119 431.878 80.4422 431.894C80.4724 431.909 80.4983 431.93 80.5175 431.957C80.5367 431.984 80.5486 432.014 80.5523 432.046C80.556 432.078 80.5512 432.111 80.5385 432.141C78.7725 440.581 78.7725 449.387 76.8269 457.715C76.8269 478.929 76.6174 500.142 76.8269 521.356C98.2883 514.013 222.208 493.784 250.733 496.879C252.629 497.193 254.404 497.969 255.882 499.129C256.54 499.608 256.45 500.255 256.091 500.086C254.134 498.968 251.935 498.276 249.656 498.06C219.304 497.92 97.9292 517.473 76.4977 524.873C76.3953 524.967 76.2735 525.041 76.1396 525.089C76.0057 525.137 75.8627 525.16 75.7194 525.154C66.3363 528.42 57.2222 532.332 48.4512 536.858C47.194 537.533 47.194 536.773 48.3314 536.042Z" fill="#2E2766"/>
<path d="M41.4171 617.407C46.1489 620.653 51.5873 622.873 57.3411 623.907C65.8119 625.257 88.8897 616.76 102.958 611.837C124.539 604.325 145.372 595.181 166.145 585.953C184.942 577.512 203.77 569.382 222.807 561.56C232.784 557.49 242.761 553.495 252.739 549.575C258.875 547.183 278.421 540.684 282.013 538.321C283.12 537.589 282.402 535.367 282.462 534.213C282.462 533.819 283.18 533.651 283.27 534.213C283.779 535.853 284.081 537.543 284.168 539.249C284.175 539.425 284.121 539.597 284.012 539.74C283.904 539.883 283.748 539.987 283.569 540.037C236.815 558.409 191.138 578.666 145.132 598.557C125.294 607.427 104.856 615.058 83.9509 621.403C75.7794 623.766 65.782 627.395 56.8023 626.467C53.6373 626.173 50.57 625.273 47.7899 623.821C45.0098 622.37 42.576 620.397 40.6389 618.026C40.2797 617.492 40.9382 617.098 41.4171 617.407Z" fill="#2E2766"/>
<path d="M41.2373 517.361C41.2373 517.361 39.3516 521.412 40.7584 523.241C42.618 525.023 44.7217 526.566 47.0143 527.827C47.0143 527.827 72.2771 523.522 76.9465 522.425C77.4254 522.172 84.4595 520.793 95.5344 518.795C96.6419 498.426 108.375 489.17 115.649 485.428C110.261 485.428 88.2609 485.934 74.8812 487.06C71.7608 487.208 68.6633 487.642 65.6321 488.354C57.7899 490.633 38.5434 510.861 38.6931 513.337C38.9774 514.93 39.8849 516.365 41.2373 517.361Z" fill="#FFD395"/>
<path d="M136.482 251.601C140.972 226.87 183.865 225.886 203.919 227.095C229.481 228.615 250.584 234.889 256.87 259.844C263.155 284.8 262.257 311.527 260.581 336.68C260.594 337.597 260.971 338.477 261.637 339.148C262.304 339.818 263.213 340.231 264.186 340.305C265.159 340.378 266.127 340.108 266.899 339.547C267.672 338.986 268.194 338.174 268.363 337.271C270.279 308.264 276.894 253.851 250.584 232.835C224.273 211.818 136.362 209.145 128.7 251.01C127.861 255.652 135.614 256.187 136.482 251.601Z" fill="#2E2766"/>
<path d="M281.145 352.098C280.884 355.433 279.575 358.62 277.385 361.255C275.194 363.89 272.22 365.854 268.841 366.898C265.461 367.942 261.827 368.019 258.401 367.119C254.974 366.219 251.909 364.383 249.595 361.844C247.28 359.304 245.82 356.176 245.4 352.855C244.98 349.534 245.618 346.171 247.234 343.192C248.851 340.213 251.372 337.752 254.478 336.122C257.584 334.492 261.136 333.766 264.682 334.035C269.406 334.395 273.788 336.495 276.872 339.878C279.956 343.262 281.492 347.654 281.145 352.098Z" fill="#778BFD"/>
<path d="M274.08 351.563C273.914 353.56 273.122 355.466 271.803 357.039C270.485 358.613 268.7 359.784 266.673 360.404C264.647 361.024 262.471 361.065 260.419 360.523C258.368 359.98 256.534 358.878 255.149 357.356C253.764 355.834 252.89 353.96 252.638 351.971C252.386 349.982 252.767 347.968 253.732 346.182C254.698 344.397 256.206 342.921 258.064 341.94C259.922 340.96 262.048 340.52 264.173 340.675C265.584 340.778 266.96 341.142 268.222 341.745C269.484 342.348 270.607 343.179 271.527 344.19C272.447 345.201 273.146 346.372 273.584 347.638C274.022 348.903 274.191 350.237 274.08 351.563Z" fill="#E4EEF8"/>
<path d="M143.067 333.726C144.534 406.369 137.29 422.378 129.208 428.849C123.239 433.287 116.265 436.377 108.825 437.88L107.777 432.872L108.316 435.376L107.777 432.872C114.325 431.555 120.467 428.851 125.736 424.966C131.723 420.296 139.176 405.75 137.709 333.838L143.067 333.726Z" fill="#BDBFE1"/>
<path d="M118.918 430.623L120.194 435.052C120.671 436.708 119.63 438.414 117.868 438.862L106.202 441.832C104.44 442.28 102.626 441.302 102.148 439.646L100.872 435.216C100.395 433.561 101.436 431.855 103.198 431.406L114.864 428.436C116.626 427.988 118.441 428.967 118.918 430.623Z" fill="#778BFD"/>
<path d="M95.2053 324.61C67.4881 372.777 56.7424 400.123 61.352 410.73C64.1103 416.429 68.2032 421.469 73.3249 425.473L69.9724 429.496C64.0843 424.933 59.3934 419.157 56.2635 412.615C50.756 399.983 60.6635 373.761 90.3862 322.106L95.2053 324.61Z" fill="#BDBFE1"/>
<path d="M81.0578 432.33L77.7344 435.726C76.4922 436.995 74.3903 437.078 73.0398 435.91L64.0958 428.177C62.7454 427.009 62.6576 425.034 63.8999 423.764L67.2232 420.368C68.4655 419.099 70.5674 419.017 71.9179 420.184L80.8618 427.917C82.2123 429.085 82.3001 431.061 81.0578 432.33Z" fill="#778BFD"/>
<path d="M89.189 319.602C94.4785 308.77 100.476 298.255 107.148 288.119C110.705 283.763 115.439 280.382 120.857 278.329C121.935 278.329 123.851 269.719 125.018 262.517C126.155 256.158 127.323 248.731 129.418 247.071C130.585 246.358 132.001 246.098 133.368 246.344C134.735 246.591 135.947 247.325 136.751 248.393C138.098 250.644 136.302 257.959 134.925 264.261C133.339 271.436 131.633 280.185 132.681 280.439C136.614 284.339 139.48 289.08 141.032 294.253C143.329 306.332 144.63 318.56 144.923 330.828C144.743 338.537 141.93 338.846 139.535 339.071C136.093 339.353 134.626 336.877 134.237 328.211C133.608 314.482 134.237 291.636 124.719 289.667C115.08 288.401 105.352 310.402 99.0068 322.472C95.0557 330.012 93.0203 330.378 90.0271 328.943C87.9618 327.789 85.8665 326.354 89.189 319.602Z" fill="#778BFD"/>
<path d="M171.323 210.186C164.08 213 139.206 244.117 140.134 248.59C141.062 253.064 137.949 309.558 192.904 331.559L219.843 283.73L246.782 322.838C246.782 322.838 262.287 291.664 261.748 283.899C261.21 276.134 254.774 237.421 222.837 218.148C198.771 203.828 186.439 204.137 171.323 210.186Z" fill="#BDBFE1"/>
<path d="M140.972 247.999C143.785 278.948 158.033 319.124 192.216 329.759C201.645 314.594 211.193 299.739 219.155 283.871C219.218 283.759 219.309 283.662 219.419 283.589C219.53 283.515 219.657 283.467 219.791 283.448C219.924 283.429 220.061 283.439 220.19 283.478C220.319 283.518 220.436 283.585 220.532 283.674C220.771 283.674 239.778 309.558 247.052 322.191C251.224 313.39 254.617 304.281 257.199 294.956C261.359 282.239 259.563 272.449 255.343 259.957C255.343 259.647 255.792 259.422 255.912 259.732C260.821 269.916 264.053 280.045 260.851 291.074C258.068 302.445 253.91 313.48 248.459 323.963C248.38 324.103 248.257 324.215 248.106 324.286C247.956 324.357 247.786 324.381 247.62 324.357C247.502 324.407 247.37 324.417 247.245 324.386C247.12 324.356 247.009 324.286 246.932 324.188C237.503 312.09 229.781 298.867 220.322 286.685C212.211 302.496 203.051 317.633 193.892 331.7C193.473 332.347 191.887 332.01 191.737 331.953C156.177 321.375 139.595 280.467 140.463 247.999C140.463 247.746 140.942 247.746 140.972 247.999Z" fill="#2E2766"/>
<path d="M249.865 174.174L245.824 247.324L245.226 257.622C245.226 257.622 241.185 278.779 217.658 282.689C194.131 286.6 158.422 257.059 155.758 251.544C154.321 248.731 153.154 222.509 152.316 197.638C151.508 173.865 151.059 151.244 151.059 151.244L162.074 153.805L249.865 174.174Z" fill="#FFD395"/>
<path d="M249.865 174.174L245.824 247.324C219.809 243.567 195.275 233.534 174.616 218.205C166.468 212.107 159.033 205.213 152.436 197.638C151.628 173.865 151.179 151.244 151.179 151.244L162.194 153.805L249.865 174.174Z" fill="#DBA89B"/>
<path d="M136.422 49.1436C120.169 83.6367 134.506 169.954 162.433 199.27C181.53 219.33 223.136 225.492 254.205 213.76C268.389 208.763 280.014 198.873 286.712 186.103C307.664 143.732 288.657 42.11 266.059 26.1295C226.159 -2.14585 156.327 6.96978 136.422 49.1436Z" fill="#FFD395"/>
<path d="M209.307 127.02C209.307 126.823 208.888 127.33 208.918 127.555C209.576 132.929 209.337 139.175 204.308 141.369C204.129 141.369 204.308 141.707 204.308 141.65C210.564 140.244 210.774 131.916 209.307 127.02Z" fill="#2E2766"/>
<path d="M203.65 121.675C194.371 121.675 195.149 139.146 203.65 139.118C212.151 139.09 211.432 121.647 203.65 121.675Z" fill="#2E2766"/>
<path d="M254.205 123.841C254.205 123.644 254.654 124.094 254.654 124.291C254.654 129.721 255.732 135.911 261.03 137.486C261.03 137.486 261.03 137.824 261.03 137.796C254.595 137.205 253.337 128.99 254.205 123.841Z" fill="#2E2766"/>
<path d="M259.084 117.989C268.304 116.976 269.8 134.392 261.24 135.32C252.679 136.249 251.212 118.861 259.084 117.989Z" fill="#2E2766"/>
<path d="M217.269 175.665C218.706 176.875 220.262 178.479 222.238 178.648C224.33 178.508 226.368 177.961 228.224 177.044C228.265 177.025 228.311 177.02 228.356 177.028C228.401 177.036 228.441 177.057 228.472 177.089C228.502 177.121 228.521 177.161 228.525 177.204C228.529 177.246 228.518 177.289 228.494 177.325C227.719 178.385 226.661 179.235 225.426 179.788C224.191 180.341 222.823 180.578 221.46 180.476C220.266 180.251 219.173 179.688 218.328 178.864C217.483 178.039 216.926 176.992 216.73 175.862C216.611 175.609 217.06 175.468 217.269 175.665Z" fill="#DBA89B"/>
<path d="M195.987 113.994C198.4 113.22 200.768 112.328 203.081 111.321C205.714 110.717 208.06 109.312 209.756 107.326C210.15 106.6 210.282 105.774 210.131 104.971C209.979 104.169 209.554 103.435 208.918 102.881C207.479 101.97 205.807 101.438 204.076 101.339C202.344 101.24 200.616 101.578 199.07 102.318C195.69 103.362 192.843 105.547 191.078 108.451C190.715 109.136 190.572 109.905 190.666 110.664C190.76 111.424 191.088 112.141 191.608 112.729C192.129 113.316 192.82 113.749 193.597 113.974C194.375 114.198 195.205 114.205 195.987 113.994Z" fill="#2E2766"/>
<path d="M265.879 108.93C263.365 108.526 260.877 107.99 258.426 107.326C255.764 107.136 253.236 106.15 251.212 104.513C250.688 103.866 250.404 103.075 250.404 102.262C250.404 101.449 250.688 100.658 251.212 100.011C252.476 98.8884 254.035 98.1034 255.73 97.7374C257.424 97.3714 259.192 97.4376 260.85 97.9291C264.372 98.4203 267.572 100.125 269.83 102.712C270.312 103.336 270.589 104.079 270.625 104.85C270.662 105.62 270.457 106.384 270.037 107.046C269.616 107.708 268.998 108.24 268.259 108.574C267.52 108.909 266.692 109.033 265.879 108.93Z" fill="#2E2766"/>
<path d="M237.473 163.258C237.473 163.258 232.804 174.512 223.675 172.402C216.76 170.91 220.083 157.8 220.083 157.8C220.083 157.8 229.092 164.046 237.473 163.258Z" fill="white"/>
<path d="M219.574 158.306C221.124 160.387 223.115 162.144 225.423 163.466C227.731 164.788 230.305 165.646 232.983 165.987C235.326 166.311 237.705 166.311 240.047 165.987C240.503 165.967 240.954 165.901 241.394 165.79L242.652 165.565C242.95 165.498 243.217 165.34 243.412 165.116C243.607 164.893 243.718 164.616 243.729 164.327C243.758 164.15 243.758 163.97 243.729 163.792V163.258C243.729 159.094 242.951 152.792 242.951 152.792C244.597 153.495 253.008 156.646 252.769 154.48C250.853 136.53 248.698 116.582 242.741 99.1109C242.699 98.9976 242.616 98.9021 242.506 98.8411C242.396 98.7802 242.267 98.7579 242.141 98.7782C242.016 98.7984 241.902 98.8599 241.82 98.9518C241.738 99.0436 241.693 99.1598 241.694 99.2797C242.831 116.611 247.201 133.604 248.608 150.991C245.62 149.802 242.464 149.025 239.239 148.684C238.611 148.881 240.826 160.866 240.706 162.751C240.713 162.826 240.713 162.902 240.706 162.977C233.313 164.158 227.596 162.245 220.172 157.828C219.634 157.518 219.215 157.969 219.574 158.306Z" fill="#DBA89B"/>
<path d="M270.1 50.2128C289.675 79.4447 292.549 126.683 296.59 113.291C309.85 69.1755 286.353 43.6293 286.353 43.6293C286.353 43.6293 267.765 46.696 270.1 50.2128Z" fill="#2E2766"/>
<path d="M142.409 141.397C142.409 141.397 177.908 134.786 167.402 63.7736C188.02 71.9176 210.59 74.6969 232.744 71.8202C271.656 67.2623 292.609 51.7883 304.731 26.8047C308.742 18.6175 287.73 30.1527 278.481 26.4108C262.138 19.7148 246.064 -0.457787 201.764 0.414388C157.464 1.28656 145.731 29.3931 145.731 29.3931C145.731 29.3931 121.785 36.2861 112.416 55.7553C103.048 75.2244 119.51 141.369 142.409 141.397Z" fill="#2E2766"/>
<path d="M154.86 138.978C154.86 138.978 136.901 110.308 123.072 116.16C109.244 122.012 121.456 162.611 136.482 169.222C138.345 170.179 140.395 170.772 142.508 170.965C144.622 171.158 146.755 170.947 148.779 170.346C150.804 169.744 152.678 168.763 154.289 167.463C155.9 166.163 157.214 164.57 158.153 162.779L154.86 138.978Z" fill="#FFD395"/>
<path d="M126.844 127.724C126.604 127.724 126.514 128.005 126.844 128.09C137.35 132.985 142.289 142.832 145.491 152.904C142.498 148.909 138.368 146.546 132.71 149.753C132.411 149.922 132.71 150.372 132.95 150.316C134.902 149.882 136.949 150.028 138.809 150.734C140.669 151.439 142.251 152.669 143.336 154.255C145.142 156.909 146.638 159.739 147.796 162.695C148.215 163.624 150.011 163.286 149.712 162.189C149.722 162.114 149.722 162.038 149.712 161.964C150.849 148.994 141.57 130.059 126.844 127.724Z" fill="#DBA89B"/>
<path d="M175.903 205.347C160.278 198.792 144.534 191.28 134.357 177.213C126.663 167.331 121.538 155.894 119.391 143.817C120.783 148.615 122.793 153.235 125.377 157.575C128.014 162.062 131.504 166.058 135.674 169.363C145.173 184.366 159.503 196.14 176.591 202.984C178.178 203.462 177.459 205.994 175.903 205.347Z" fill="white"/>
<path d="M159.53 148.853C156.746 145.589 148.066 128.737 140.313 122.434C139.135 121.316 137.896 120.255 136.602 119.255C134.528 117.574 132.086 116.344 129.448 115.654C131.601 114.828 133.969 114.632 136.242 115.091C148.215 117.229 156.267 139.681 160.637 148.178C160.877 148.684 160.009 149.528 159.53 148.853Z" fill="white"/>
<path d="M156.896 145.055C154.89 140.863 187.068 155.38 220.622 148.881C227.476 147.559 246.603 140.441 257.259 140.441C267.915 140.441 280.366 148.543 295.063 150.035C300.122 150.541 295.752 191.477 282.911 209.399C278.66 215.279 260.671 227.349 249.656 228.418C223.794 230.894 179.495 213.563 172.76 205.46C167.402 198.848 175.963 184.753 156.896 145.055Z" fill="white"/>
<path d="M291.561 158.869C282.209 155.052 272.472 152.131 262.497 150.147C253.876 148.543 246.064 151.526 237.892 154.255C215.982 161.57 193.892 160.754 171.802 154.817C171.563 154.817 171.443 155.183 171.802 155.296C189.247 162.325 208.649 163.836 227.087 159.6C237.054 157.406 247.112 152.342 257.498 152.932C268.872 153.608 279.917 158.559 291.172 160.529C292.1 160.782 292.489 159.263 291.561 158.869Z" fill="#BDBFE1"/>
<path d="M275.158 206.219C268.184 209.37 261.329 214.013 254.206 216.235C245.525 218.88 235.288 216.235 226.728 214.294C210.534 210.721 194.97 204.475 179.135 199.326C179.135 199.326 178.956 199.495 179.135 199.551C196.422 207.916 214.855 213.994 233.912 217.614C240.257 218.655 247.231 220.174 253.547 218.402C261.15 216.235 268.753 210.918 275.487 206.641C275.577 206.529 275.458 206.135 275.158 206.219Z" fill="#BDBFE1"/>
<path d="M286.023 172.655C269.561 168.097 254.205 169.222 237.473 171.333C218.566 173.627 199.403 173.286 180.602 170.32C180.422 170.32 180.363 170.601 180.602 170.629C197.323 173.936 214.49 174.781 231.487 173.133C239.688 172.317 247.89 170.854 256.121 170.32C266.221 169.961 276.319 171.081 286.053 173.64C286.383 173.78 286.622 172.824 286.023 172.655Z" fill="#BDBFE1"/>
<path d="M282.162 188.354C267.557 196.271 250.7 199.74 233.911 198.286C216.79 196.794 200.327 190.717 183.984 185.428C183.745 185.428 183.685 185.709 183.984 185.794C216.91 198.82 250.045 207.626 282.761 189.282C283.24 188.917 282.791 188.016 282.162 188.354Z" fill="#BDBFE1"/>
<path d="M318.151 272.753C328.377 271.81 355.1 263.512 380.178 237.863" stroke="black" stroke-width="5"/>
</g>
<defs>
<clipPath id="clip0_155_8829">
<rect width="388.64" height="868.348" fill="white" transform="matrix(-1 0 0 1 388.901 0.414429)"/>
</clipPath>
</defs>
</svg>
