<svg width="333" height="477" viewBox="0 0 333 477" fill="none" xmlns="http://www.w3.org/2000/svg">
<mask id="mask0_308_5" style="mask-type:alpha" maskUnits="userSpaceOnUse" x="0" y="0" width="333" height="477">
<rect y="0.796875" width="332.444" height="476.203" fill="#C4C4C4"/>
</mask>
<g mask="url(#mask0_308_5)">
<mask id="mask1_308_5" style="mask-type:alpha" maskUnits="userSpaceOnUse" x="0" y="-50" width="304" height="527">
<rect y="-49.5188" width="303.692" height="526.519" fill="#C4C4C4"/>
</mask>
<g mask="url(#mask1_308_5)">
<mask id="mask2_308_5" style="mask-type:alpha" maskUnits="userSpaceOnUse" x="-22" y="-27" width="359" height="594">
<rect width="358.5" height="593.008" transform="matrix(-1 0 0 1 336.936 -26.158)" fill="#C4C4C4"/>
</mask>
<g mask="url(#mask2_308_5)">
<g clip-path="url(#clip0_308_5)">
<path d="M190.541 98.9602C190.541 98.9602 227.086 118.755 235.452 144.262C248.845 185.21 237.797 250.05 205.434 242.054C179.155 235.554 199.941 181.665 184.964 167.72C169.987 153.775 152.158 139.141 170.008 99.3147L190.541 98.9602Z" fill="#2E2766"/>
<path d="M190.773 99.4331V99.6104C210.63 108.828 227.424 122.064 236.952 141.11C242.28 151.928 245.021 163.697 244.985 175.601C244.948 187.504 242.135 199.258 236.74 210.047C236.614 210.284 236.994 210.481 237.121 210.244C259.048 169.414 239.994 113.516 190.773 99.4331Z" fill="#2E2766"/>
<path d="M184.753 173.038C181.12 166.44 175.458 161.22 170.895 155.193C158.369 138.747 162.087 118.578 169.649 101.009C169.649 100.792 169.332 100.634 169.227 100.851C161.558 115.229 157.207 131.735 163.776 147.275C166.438 153.578 171.043 158.699 175.712 163.761C179.278 167.275 182.397 171.161 185.007 175.342C188.218 181.251 188.894 187.81 189.612 194.211C189.612 194.33 189.802 194.33 189.781 194.211C189.274 186.865 188.429 179.695 184.753 173.038Z" fill="#2E2766"/>
<path d="M58.302 252.788C58.302 252.788 21.5242 320.13 21.7777 337.797C22.0312 355.465 26.4673 370.966 33.6285 372.699C40.7897 374.432 69.8782 340.692 74.589 335.827C79.2997 330.963 98.8822 271.933 105.008 261.179C111.134 250.425 72.4765 237.74 58.302 252.788Z" fill="#FDD7BC"/>
<path d="M142.187 177.351C127.844 182.591 104.269 190.213 98.037 196.378C91.8053 202.543 30.6287 276.463 29.319 283.041C28.0093 289.62 57.9216 315.599 71.568 318.042C82.3709 319.726 93.4616 317.666 102.748 312.251C107.015 309.336 142.187 177.351 142.187 177.351Z" fill="#C0DCD9"/>
<path d="M287.46 595.562C250.471 619.848 150.827 625.54 131.625 621.404C112.423 617.267 66.4135 600.604 62.1886 594.853C57.9637 589.102 52.7671 512.661 59.1044 470.333C62.0408 450.637 70.1103 418.296 77.7785 389.185C84.3905 364.092 90.6645 341.461 93.0515 331.416C93.6444 329.656 93.9576 327.824 93.981 325.979C92.3756 325.014 70.1737 298.07 74.6098 279.752C79.046 261.435 132.491 183.241 142.039 177.332C151.588 171.423 166.67 174.909 181.141 176.071C197.533 177.411 230.931 201.676 235.22 214.814C238.726 225.588 241.113 297.814 242.698 325.526C242.778 329.104 243.074 332.675 243.585 336.221C244.662 339.156 253.492 376.343 261.562 406.557C264.878 418.946 268.047 430.192 270.54 437.362C279.137 462.278 294.284 591.15 287.46 595.562Z" fill="#C0DCD9"/>
<path d="M103.487 228.975C103.523 228.888 103.524 228.792 103.491 228.704C103.458 228.616 103.393 228.542 103.307 228.495C103.221 228.448 103.119 228.431 103.021 228.446C102.922 228.462 102.833 228.51 102.769 228.581C97.9313 235.18 93.6008 242.132 89.3759 249.203C90.8757 244.831 92.6502 240.557 94.5937 236.243C94.5827 236.218 94.5637 236.196 94.5393 236.18C94.5148 236.165 94.4859 236.156 94.4563 236.156C94.4268 236.156 94.3979 236.165 94.3734 236.18C94.349 236.196 94.33 236.218 94.319 236.243C91.1473 241.534 88.7731 247.208 87.2635 253.103C86.6931 254.088 86.1016 255.073 85.5524 256.097C81.074 264.172 75.983 273.055 74.0818 282.057C70.8286 297.479 82.4259 316.151 93.6642 326.807C94.0867 327.2 94.6993 326.61 94.319 326.176C81.8978 312.113 71.7792 294.268 78.9826 275.951C85.2989 259.564 94.319 244.141 103.487 228.975Z" fill="#2E2766"/>
<path d="M261.646 406.576C255.591 407.4 249.49 407.906 243.374 408.093C222.701 408.763 202.009 407.443 181.627 404.154C160.175 401.052 139.156 395.754 118.95 388.357C111.825 385.445 103.914 384.641 96.2836 386.053C91.6996 386.762 87.1367 387.707 82.5527 388.476C80.9895 388.732 79.4685 388.988 77.9053 389.185C84.5172 364.092 90.7912 341.461 93.1783 331.416C103.445 328.993 114.028 327.378 124.126 325.349C140.18 322.139 153.996 335.926 171.085 335.67C192.992 335.335 218.235 317.943 238.388 324.089C239.888 324.561 241.367 325.034 242.824 325.546C242.863 329.115 243.117 332.679 243.585 336.221C244.747 339.176 253.577 376.362 261.646 406.576Z" fill="#A2C8C3"/>
<path d="M134.033 337.226C126.777 315.684 125.505 292.778 130.336 270.653C135.198 249.214 141.989 228.196 150.637 207.821C150.742 207.546 150.256 207.349 150.13 207.625C140.089 229.385 132.747 252.144 128.245 275.458C124.463 295.036 123.872 317.648 132.723 336.241C132.448 336.241 112.127 530.249 134.688 619.414C134.814 619.966 135.702 619.729 135.575 619.178C113.838 529.382 134.138 337.541 134.033 337.226Z" fill="#2E2766"/>
<path d="M150.214 238.193C149.56 239.276 147.025 240.281 146.18 238.567C145.335 236.854 146.919 234.628 148.947 235.514C148.997 235.541 149.057 235.547 149.112 235.532C149.168 235.517 149.215 235.483 149.243 235.436C149.271 235.389 149.278 235.333 149.262 235.281C149.246 235.23 149.209 235.186 149.158 235.16C146.454 233.565 144.004 236.893 145.102 239.217C146.201 241.542 150.552 240.813 150.405 238.252C150.405 238.154 150.257 238.114 150.214 238.193Z" fill="#2E2766"/>
<path d="M140.075 297.892C139.42 298.956 136.885 299.96 136.04 298.267C135.195 296.573 136.779 294.327 138.786 295.194C139.04 295.292 139.251 294.997 139.018 294.859C136.315 293.244 133.864 296.592 134.963 298.897C136.061 301.201 140.413 300.492 140.265 297.932L140.075 297.892Z" fill="#2E2766"/>
<path d="M144.701 329.426C144.046 330.49 141.49 331.396 140.666 329.801C139.842 328.205 141.384 325.861 143.412 326.748C143.666 326.846 143.877 326.531 143.645 326.393C140.941 324.798 138.49 328.126 139.589 330.451C140.687 332.775 145.039 332.026 144.891 329.485C144.891 329.387 144.743 329.328 144.701 329.426Z" fill="#2E2766"/>
<path d="M141.891 392.297C141.257 393.38 138.701 394.365 137.877 392.671C137.054 390.977 138.596 388.732 140.624 389.618C140.674 389.644 140.734 389.65 140.789 389.636C140.845 389.621 140.891 389.586 140.919 389.539C140.947 389.492 140.954 389.437 140.938 389.385C140.923 389.333 140.885 389.29 140.835 389.263C138.152 387.668 135.702 390.997 136.8 393.321C137.899 395.645 142.25 394.897 142.102 392.356C142.097 392.335 142.087 392.317 142.071 392.301C142.056 392.286 142.037 392.275 142.015 392.269C141.994 392.263 141.971 392.262 141.949 392.267C141.927 392.272 141.907 392.282 141.891 392.297V392.297Z" fill="#2E2766"/>
<path d="M137.181 458.338C136.526 459.422 133.991 460.426 133.146 458.713C132.301 456.999 133.885 454.773 135.892 455.66C135.941 455.672 135.992 455.669 136.038 455.651C136.085 455.634 136.124 455.603 136.15 455.563C136.176 455.523 136.188 455.477 136.183 455.43C136.179 455.384 136.158 455.34 136.124 455.305C133.421 453.71 130.97 457.058 132.069 459.363C133.167 461.667 137.519 460.958 137.371 458.397C137.371 458.338 137.223 458.338 137.181 458.338Z" fill="#2E2766"/>
<path d="M144.701 358.833C144.046 359.896 141.49 360.901 140.666 359.207C139.842 357.513 141.384 355.268 143.412 356.134C143.666 356.134 143.877 355.937 143.645 355.799C140.941 354.184 138.49 357.533 139.589 359.837C140.687 362.142 145.039 361.433 144.891 358.872L144.701 358.833Z" fill="#2E2766"/>
<path d="M139.103 424.52C138.448 425.603 135.913 426.608 135.089 424.914C134.266 423.22 135.808 420.974 137.836 421.841C138.089 421.94 138.3 421.644 138.047 421.506C135.364 419.891 132.914 423.24 133.991 425.446C135.068 427.652 139.462 427.041 139.314 424.48C139.3 424.466 139.281 424.455 139.26 424.449C139.24 424.443 139.218 424.441 139.197 424.445C139.176 424.449 139.156 424.458 139.14 424.471C139.123 424.484 139.111 424.501 139.103 424.52Z" fill="#2E2766"/>
<path d="M142.757 268.053C142.103 269.136 139.568 270.14 138.723 268.427C137.878 266.713 139.462 264.488 141.469 265.374C141.517 265.386 141.569 265.383 141.615 265.366C141.662 265.348 141.701 265.317 141.727 265.278C141.753 265.238 141.765 265.191 141.76 265.145C141.755 265.098 141.735 265.054 141.701 265.019C138.997 263.424 136.547 266.772 137.645 269.077C138.744 271.381 143.095 270.672 142.947 268.112C142.947 268.013 142.8 267.974 142.757 268.053Z" fill="#2E2766"/>
<path d="M140.222 325.94C127.548 323.32 116.478 326.708 104.311 328.737C104.205 328.737 104.311 328.894 104.311 328.894C109.236 328.68 114.133 328.081 118.95 327.102C125.963 326.338 133.043 326.258 140.074 326.866C140.196 326.866 140.315 326.826 140.407 326.752C140.5 326.678 140.561 326.575 140.579 326.462C140.597 326.35 140.571 326.235 140.505 326.139C140.44 326.043 140.339 325.972 140.222 325.94V325.94Z" fill="#2E2766"/>
<path d="M201.124 325.231C189.738 333.503 176.662 336.891 162.445 333.818C151.123 331.376 141.194 326.826 129.491 329.997C129.322 329.997 129.343 330.313 129.491 330.293C144.764 328.796 158.157 337.62 173.261 337.443C184.069 337.331 194.394 333.247 201.99 326.078C202.624 325.507 201.758 324.758 201.124 325.231Z" fill="#2E2766"/>
<path d="M194.383 242.49L96.9082 249.244C92.1496 249.574 88.5787 253.438 88.9323 257.875L98.748 381.031C99.1016 385.467 103.246 388.797 108.004 388.467L205.479 381.713C210.237 381.384 213.808 377.52 213.455 373.083L203.639 249.927C203.285 245.49 199.141 242.161 194.383 242.49Z" fill="#DD9168"/>
<path d="M169.214 237.057L121.958 240.284C119.992 240.419 118.514 242.014 118.658 243.847L119.344 252.569C119.488 254.403 121.199 255.78 123.165 255.646L170.421 252.418C172.387 252.283 173.864 250.688 173.72 248.855L173.035 240.133C172.891 238.3 171.18 236.922 169.214 237.057Z" fill="#BDBFE1"/>
<path d="M159.784 229.862L160.396 237.74L153.7 238.193L153.425 234.569C153.349 233.651 152.887 232.798 152.139 232.196C151.391 231.594 150.418 231.293 149.433 231.359L140.603 231.969C139.619 232.035 138.704 232.462 138.059 233.156C137.413 233.85 137.09 234.755 137.159 235.672L137.434 239.296L130.737 239.769L130.125 231.89C130.073 231.232 130.161 230.571 130.383 229.944C130.606 229.317 130.959 228.738 131.422 228.238C131.885 227.739 132.449 227.329 133.082 227.033C133.715 226.737 134.404 226.561 135.11 226.513L154.122 225.213C155.529 225.148 156.908 225.597 157.966 226.465C159.023 227.333 159.675 228.552 159.784 229.862Z" fill="#BDBFE1"/>
<path d="M259.111 272.662C266.463 277.822 275.884 352.628 276.433 361.098C276.983 369.567 266.146 385.777 263.252 386.467C260.358 387.156 232.642 377.584 225.904 369.272C219.165 360.96 215.341 286.016 216.799 281.446C218.257 276.877 252.267 267.856 259.111 272.662Z" fill="#FDD7BC"/>
<path d="M212.848 191.08C216.461 195.432 249.098 211.623 255.097 222.377C261.097 233.131 282.137 311.837 284.123 316.427C286.108 321.016 261.118 333.424 248.211 335.571C235.304 337.718 217.348 333.188 210.989 329.997C204.631 326.806 212.848 191.08 212.848 191.08Z" fill="#C0DCD9"/>
<path d="M207.335 257.437C207.335 257.405 207.322 257.375 207.298 257.353C207.274 257.331 207.242 257.318 207.208 257.318C207.175 257.318 207.142 257.331 207.119 257.353C207.095 257.375 207.082 257.405 207.082 257.437C208.497 281.624 209.025 305.909 208.307 330.135C208.307 330.339 208.394 330.534 208.548 330.679C208.703 330.823 208.912 330.903 209.131 330.903C209.349 330.903 209.559 330.823 209.713 330.679C209.868 330.534 209.954 330.339 209.954 330.135C211.28 305.877 210.404 281.557 207.335 257.437V257.437Z" fill="#2E2766"/>
<path d="M243.036 221.254C234.633 223.962 227.187 228.767 221.511 235.147C215.834 241.527 212.144 249.236 210.842 257.436C210.842 257.614 211.095 257.692 211.138 257.436C212.692 249.376 216.448 241.825 222.042 235.512C227.637 229.199 234.881 224.336 243.078 221.392C243.205 221.373 243.162 221.215 243.036 221.254Z" fill="#2E2766"/>
<path d="M263.801 386.211C257.928 389.992 197.639 392.119 167.515 387.117C146.822 383.256 126.492 377.862 106.719 370.985C92.3543 365.963 81.7921 361.137 81.7076 358.399C81.4963 352.195 94.6992 338.703 103.17 339.589C111.641 340.476 161.664 336.143 179.683 337.226C194.238 338.093 208.603 338.624 220.686 339.53C232.769 340.436 242.993 341.776 248.274 344.297C258.71 349.26 263.801 386.211 263.801 386.211Z" fill="#FDD7BC"/>
<path d="M220.686 339.53C216.196 342.733 211.513 345.692 206.659 348.394C192.165 356.429 176.424 362.322 159.995 365.864C142.607 370.024 124.652 371.749 106.719 370.985C92.3543 365.963 81.7921 361.137 81.7076 358.399C81.4963 352.195 94.6992 338.703 103.17 339.589C111.641 340.476 161.664 336.143 179.683 337.226C194.238 338.191 208.603 338.624 220.686 339.53Z" fill="#BC847A"/>
<path d="M222.27 339.097C222.237 339.097 222.204 339.11 222.181 339.132C222.157 339.154 222.144 339.184 222.144 339.215C222.144 339.247 222.157 339.277 222.181 339.299C222.204 339.321 222.237 339.333 222.27 339.333C238.156 342.249 247.62 350.383 255.837 362.969C256.112 363.363 256.893 363.107 256.703 362.634C251.485 349.792 237.48 338.94 222.27 339.097Z" fill="#BC847A"/>
<path d="M33.6284 372.699C48.4156 380.42 161.727 351.033 168.825 346.739C170.938 345.459 201.167 344.258 206.342 343.627C211.518 342.997 220.263 337.817 220.77 334.941C221.049 332.697 220.646 330.424 219.609 328.382C219.102 327.22 222.524 322.71 222.186 320.642C221.392 318.486 220.306 316.434 218.954 314.536C218.383 313.374 219.714 308.213 218.954 306.657C218.193 305.101 214.729 303.467 213.546 302.186C212.363 300.906 214.56 299.193 212.131 297.834C205.223 293.894 171.043 310.695 165.826 312.33C160.608 313.965 112.824 314.3 100.34 315.718C87.855 317.136 67.5121 318.239 54.6051 329.013C41.698 339.787 33.6284 372.699 33.6284 372.699Z" fill="#FDD7BC"/>
<path d="M80.0388 317.884C61.8928 317.53 48.352 333.543 41.2964 347.429C41.2825 347.452 41.2737 347.477 41.2705 347.504C41.2672 347.53 41.2696 347.557 41.2774 347.583C41.2853 347.608 41.2984 347.632 41.3162 347.653C41.334 347.674 41.3559 347.691 41.3809 347.704C41.4059 347.717 41.4333 347.725 41.4617 347.728C41.4901 347.732 41.5188 347.729 41.5463 347.722C41.5737 347.715 41.5994 347.702 41.6218 347.686C41.6441 347.669 41.6628 347.649 41.6767 347.626C51.4996 333.05 61.8294 322.946 80.1444 318.731C80.2649 318.718 80.3748 318.661 80.4501 318.572C80.5254 318.484 80.5598 318.371 80.5458 318.258C80.5318 318.146 80.4705 318.044 80.3754 317.973C80.2803 317.903 80.1592 317.871 80.0388 317.884V317.884Z" fill="#BC847A"/>
<path d="M165.424 158.364C148.947 161.969 139.589 172.742 134.223 177.607C128.858 182.472 113.31 213.356 113.352 218.674C113.394 223.992 142.377 200.829 148.567 200.947C152.792 200.947 168.234 232.461 176.029 230.866C185.915 228.896 204.04 201.991 204.124 187.653C204.124 182.906 196.139 170.793 188.872 164.628C180.57 157.576 172.48 156.848 165.424 158.364Z" fill="#C0DCD9"/>
<path d="M204.357 188.5H204.166C198.188 211.15 180 230.295 175.986 230.847C171.381 231.477 151.059 200.14 148.694 199.963C144.3 199.648 114.725 218.714 114.387 218.418C114.049 218.123 117.894 205.517 131.9 180.621C131.9 180.503 131.794 180.404 131.731 180.621C115.486 203.745 110.606 221.274 112.718 221.254C115.634 221.254 135.617 207.979 147.743 202.11C153.51 209.653 170.769 233.033 174.994 233.033C183.169 232.993 203.153 205.34 204.357 188.5Z" fill="#2E2766"/>
<path d="M198.188 123.502C198.188 123.502 197.069 134.138 195.632 146.546C195.421 148.181 195.252 149.836 195.041 151.51C193.245 166.538 188.703 185.289 187.689 186.963C185.809 190.351 169.522 205.103 156.446 203.094C143.37 201.085 145.356 189.169 145.356 189.169L145.609 182.984L146.011 170.773L147.151 138.924L191.83 125.235L198.188 123.502Z" fill="#FDD7BC"/>
<path d="M198.188 123.502C198.188 123.502 197.069 134.138 195.632 146.546C182.451 161.122 164.79 172.112 146.011 170.773L147.151 138.924L191.83 125.235L198.188 123.502Z" fill="#BC847A"/>
<path d="M100.614 82.8291C100.614 82.8291 111.747 140.244 89.376 163.426C89.376 163.426 113.437 150.801 113.859 105.953L100.614 82.8291Z" fill="#2E2766"/>
<path d="M124.189 32.0718C124.189 32.0718 104.332 34.7111 98.0582 57.539C92.8404 76.5262 104.924 94.9619 107.395 96.9316C111.789 100.241 135.237 44.7168 124.189 32.0718Z" fill="#2E2766"/>
<path d="M101.903 93.5046C98.5649 149.895 132.237 154.76 142.419 156.986C153.996 159.408 199.688 160.117 209.257 104.357C218.827 48.5971 191.787 29.3145 164.896 26.6161C138.004 23.9177 105.261 37.1142 101.903 93.5046Z" fill="#FDD7BC"/>
<path d="M151.777 99.7482C151.777 99.6103 152.052 99.9846 152.031 100.142C151.27 103.924 151.08 108.375 154.566 110.168C154.566 110.168 154.566 110.404 154.566 110.364C150.087 109.124 150.404 103.234 151.777 99.7482Z" fill="#2E2766"/>
<path d="M156.066 96.321C162.699 96.7937 161.178 109.124 155.031 108.69C148.883 108.257 150.51 95.9271 156.066 96.321Z" fill="#2E2766"/>
<path d="M123.344 97.1678C123.344 97.0103 123.027 97.3451 123.027 97.5027C123.027 101.442 122.478 105.755 118.802 106.977C118.802 106.977 118.802 107.213 118.802 107.193C123.323 106.661 124.083 100.792 123.344 97.1678Z" fill="#2E2766"/>
<path d="M119.732 93.0909C113.12 92.5394 112.381 104.909 118.528 105.46C124.675 106.012 125.288 93.5636 119.732 93.0909Z" fill="#2E2766"/>
<path d="M142.821 127.205C141.849 128.111 140.898 129.371 139.399 129.529C137.862 129.53 136.344 129.228 134.941 128.643C134.911 128.631 134.877 128.629 134.845 128.637C134.813 128.646 134.785 128.664 134.766 128.689C134.746 128.714 134.736 128.744 134.737 128.775C134.739 128.806 134.751 128.836 134.772 128.859C135.382 129.599 136.194 130.172 137.123 130.519C138.053 130.866 139.065 130.973 140.053 130.829C140.877 130.611 141.615 130.175 142.178 129.574C142.74 128.972 143.103 128.231 143.222 127.441C143.286 127.146 142.969 127.067 142.821 127.205Z" fill="#BC847A"/>
<path d="M130.336 114.639C130.336 114.639 129.28 120.35 129.174 123.049C129.174 123.305 129.871 123.443 130.843 123.541H130.97C133.446 124.042 136.023 123.899 138.418 123.128C140.813 122.357 142.935 120.987 144.553 119.169C144.764 118.913 144.405 118.617 144.13 118.775C140.356 121.005 135.911 122.042 131.456 121.729C131.287 120.981 133.568 112.019 133.188 111.881C130.923 111.996 128.685 112.393 126.534 113.063C128.393 101.107 132.279 89.4274 133.927 77.6096C133.935 77.5225 133.911 77.4355 133.857 77.3637C133.804 77.2918 133.725 77.2397 133.635 77.2163C133.544 77.1929 133.448 77.1997 133.363 77.2356C133.277 77.2715 133.208 77.3341 133.167 77.4126C128.181 89.2304 125.731 103.018 123.471 115.308C123.175 116.884 129.174 115.052 130.336 114.639Z" fill="#BC847A"/>
<path d="M117.767 82.8882C119.187 82.7458 120.598 82.5288 121.992 82.2383C123.48 82.1903 124.911 81.6925 126.069 80.8201C126.369 80.4708 126.532 80.0366 126.532 79.5891C126.532 79.1416 126.369 78.7074 126.069 78.3581C125.406 77.7221 124.573 77.2626 123.655 77.0271C122.738 76.7917 121.77 76.7888 120.851 77.0188C118.913 77.2072 117.12 78.0643 115.824 79.4217C115.541 79.7443 115.366 80.1372 115.321 80.5516C115.276 80.966 115.362 81.3837 115.569 81.7529C115.776 82.122 116.094 82.4264 116.485 82.6282C116.876 82.8301 117.322 82.9205 117.767 82.8882V82.8882Z" fill="#2E2766"/>
<path d="M161.749 86.6106C160.375 86.2758 159.15 85.7637 157.819 85.3107C156.368 85.056 155.047 84.364 154.059 83.3411C153.809 82.9587 153.707 82.5085 153.768 82.0646C153.83 81.6206 154.052 81.2094 154.397 80.8987C155.165 80.3738 156.069 80.0496 157.016 79.9595C157.963 79.8695 158.919 80.017 159.784 80.3866C161.664 80.8785 163.277 82.0102 164.305 83.5577C164.498 83.9203 164.578 84.3266 164.534 84.7295C164.49 85.1325 164.325 85.5157 164.058 85.8349C163.791 86.1542 163.432 86.3964 163.023 86.5337C162.615 86.6709 162.173 86.6976 161.749 86.6106V86.6106Z" fill="#2E2766"/>
<path d="M204.906 107.587C194.872 108.119 189.358 82.829 189.358 82.829C189.358 82.829 122.436 71.9764 124.189 32.0717C124.189 32.0717 163.481 5.67875 199.266 34.6913C235.051 63.7039 214.011 107.114 204.906 107.587Z" fill="#2E2766"/>
<path d="M192.337 83.0063C176.219 81.9821 160.312 79.0671 146.94 70.0856C132.934 60.6511 127.146 47.6909 124.527 32.3278C124.527 32.1703 124.273 32.3278 124.252 32.3278C122.393 46.6864 132.787 61.4389 144.299 69.928C157.692 79.7761 175.437 84.2275 192.358 83.7154C192.459 83.7128 192.554 83.6729 192.624 83.6046C192.693 83.5362 192.73 83.445 192.727 83.351C192.725 83.257 192.682 83.1678 192.609 83.1032C192.535 83.0385 192.437 83.0037 192.337 83.0063V83.0063Z" fill="#2E2766"/>
<path d="M220.728 117.593C220.702 117.675 220.666 117.754 220.622 117.829C218.109 123.423 214.475 128.347 210.63 130.08C210.47 130.169 210.3 130.241 210.123 130.297C208.886 130.869 207.538 131.201 206.159 131.272C204.78 131.344 203.401 131.154 202.103 130.714C200.805 130.274 199.617 129.593 198.61 128.712C197.603 127.831 196.798 126.769 196.245 125.59L199.075 110.502C199.075 110.502 199.413 110.03 200.026 109.242C200.639 108.454 200.808 108.198 201.209 107.705C202.223 106.504 203.511 104.968 204.99 103.471C207.037 101.301 209.389 99.3992 211.982 97.8179C214.834 96.2028 217.749 95.474 220.432 96.7149C225.587 99.0193 224.573 109.045 220.728 117.593Z" fill="#FDD7BC"/>
<path d="M217.644 103.904C217.792 103.904 217.834 104.101 217.644 104.16C210.673 107.036 207.082 113.24 204.758 119.641C206.87 117.14 209.595 115.702 213.208 117.947C213.398 118.066 213.208 118.341 213.039 118.322C211.786 117.993 210.454 118.033 209.226 118.434C207.998 118.836 206.932 119.581 206.173 120.567C204.924 122.23 203.869 124.013 203.026 125.885C202.709 126.496 201.568 126.2 201.779 125.511V125.373C201.336 116.982 208.011 105.027 217.644 103.904Z" fill="#BC847A"/>
<path d="M189.358 82.8291C189.358 82.8291 200.491 140.244 178.099 163.426C178.099 163.426 202.181 150.801 202.603 105.953L189.358 82.8291Z" fill="#2E2766"/>
<path d="M221.911 115.013C219.704 122.859 215.551 130.112 209.786 136.186C202.075 144.813 191.09 148.89 180.211 152.317C179.134 152.633 178.817 150.939 179.937 150.604C191.784 147.127 202.141 140.229 209.511 130.908C209.933 130.652 210.356 130.356 210.757 130.061C214.602 128.327 218.235 123.403 220.749 117.81C220.793 117.735 220.829 117.655 220.855 117.573C221.151 116.766 221.552 115.879 221.911 115.013Z" fill="white"/>
<path d="M212.067 97.6801C209.295 99.1496 206.757 100.973 204.525 103.097C204.525 103.097 204.525 103.097 204.525 103.097C203.024 104.325 201.652 105.683 200.427 107.154C199.984 107.627 199.561 108.119 199.139 108.611C198.716 109.104 198.103 109.833 198.103 109.833C195.062 113.772 192.463 117.494 191.301 118.637C190.942 119.011 190.33 118.519 190.562 118.144C193.879 112.807 200.153 98.7043 208.814 97.5225C209.899 97.3948 211.001 97.4481 212.067 97.6801V97.6801Z" fill="white"/>
<path d="M195.442 111.822C196.794 109.045 175.268 118.696 152.834 114.382C148.25 113.496 135.448 108.69 128.351 108.69C121.253 108.69 112.887 114.067 103.001 115.072C99.6424 115.407 102.536 142.647 111.134 154.464C113.965 158.404 125.921 166.282 133.378 167.07C150.679 168.724 180.296 157.222 184.795 151.845C188.45 147.511 182.704 138.175 195.442 111.822Z" fill="white"/>
<path d="M104.754 123.679C111.007 121.145 117.518 119.205 124.189 117.888C129.956 116.825 135.174 118.794 140.645 120.607C155.305 125.472 170.071 124.92 184.838 121C185.028 121 185.091 121.237 184.838 121.296C173.167 125.965 160.187 126.974 147.848 124.172C141.131 122.714 134.413 119.326 127.442 119.74C119.943 120.173 112.613 123.502 105.029 124.782C104.395 124.881 104.163 123.935 104.754 123.679Z" fill="#BDBFE1"/>
<path d="M115.697 155.016C120.344 157.104 124.949 160.176 129.787 161.654C135.575 163.407 142.462 161.654 148.165 160.373C159.002 158.01 169.29 153.854 179.979 150.525C179.979 150.525 180.105 150.643 179.979 150.663C168.425 156.223 156.096 160.254 143.349 162.638C139.124 163.347 134.434 164.352 130.231 163.17C125.14 161.752 120.07 158.207 115.443 155.292C115.443 155.292 115.549 155.016 115.697 155.016Z" fill="#BDBFE1"/>
<path d="M108.388 132.838C119.415 129.805 129.681 130.553 140.877 131.952C153.518 133.475 166.331 133.249 178.901 131.282C179.028 131.282 179.091 131.459 178.901 131.479C167.725 133.671 156.251 134.229 144.891 133.133C139.398 132.602 133.927 131.636 128.414 131.282C121.663 131.032 114.911 131.777 108.409 133.488C108.24 133.567 108.071 132.936 108.388 132.838Z" fill="#BDBFE1"/>
<path d="M111.05 143.198C120.813 148.451 132.083 150.749 143.307 149.777C154.862 148.831 165.762 144.813 176.705 141.229C176.853 141.229 176.916 141.406 176.705 141.465C154.862 150.19 132.597 156.02 110.775 143.848C110.331 143.612 110.627 143.021 111.05 143.198Z" fill="#BDBFE1"/>
</g>
</g>
</g>
</g>
<defs>
<clipPath id="clip0_308_5">
<rect width="267.373" height="601.543" fill="white" transform="translate(21.7773 21.0813)"/>
</clipPath>
</defs>
</svg>
