<svg width="613" height="488" viewBox="0 0 613 488" fill="none" xmlns="http://www.w3.org/2000/svg">
<mask id="mask0_140_8456" style="mask-type:alpha" maskUnits="userSpaceOnUse" x="0" y="0" width="613" height="488">
<rect width="613" height="487.162" fill="#C4C4C4"/>
</mask>
<g mask="url(#mask0_140_8456)">
<mask id="mask1_140_8456" style="mask-type:alpha" maskUnits="userSpaceOnUse" x="-24" y="26" width="397" height="462">
<rect width="396.675" height="461.041" transform="matrix(-1 0 0 1 372.886 26.0539)" fill="#C4C4C4"/>
</mask>
<g mask="url(#mask1_140_8456)">
<g clip-path="url(#clip0_140_8456)">
<path d="M210.723 164.208C210.723 164.208 251.14 186.1 260.391 214.309C275.203 259.595 262.985 331.304 227.194 322.46C198.131 315.272 221.119 255.674 204.555 240.252C187.992 224.83 168.274 208.645 188.015 164.6L210.723 164.208Z" fill="#2E2766"/>
<path d="M210.98 164.731V164.927C232.941 175.121 251.514 189.759 262.05 210.823C267.944 222.787 270.975 235.802 270.935 248.967C270.894 262.132 267.783 275.131 261.817 287.063C261.677 287.324 262.097 287.542 262.237 287.281C286.487 242.125 265.415 180.306 210.98 164.731Z" fill="#2E2766"/>
<path d="M204.322 246.133C200.304 238.836 194.043 233.064 188.996 226.398C175.142 208.209 179.254 185.904 187.618 166.474C187.618 166.234 187.267 166.06 187.151 166.299C178.67 182.201 173.857 200.455 181.123 217.641C184.067 224.612 189.16 230.275 194.323 235.874C198.267 239.759 201.717 244.057 204.602 248.682C208.153 255.217 208.901 262.47 209.695 269.55C209.695 269.68 209.906 269.68 209.882 269.55C209.321 261.425 208.387 253.496 204.322 246.133Z" fill="#2E2766"/>
<path d="M64.4759 334.332C64.4759 334.332 23.8021 408.807 24.0825 428.346C24.3628 447.885 29.2689 465.028 37.1888 466.945C45.1086 468.862 77.2785 431.548 82.4883 426.168C87.6981 420.787 109.355 355.504 116.13 343.611C122.905 331.718 80.1521 317.69 64.4759 334.332Z" fill="#FFD395"/>
<path d="M157.247 250.904C141.384 256.698 115.311 265.128 108.42 271.946C101.528 278.764 33.8705 360.514 32.422 367.79C30.9736 375.065 64.0546 403.797 79.1466 406.498C91.094 408.361 103.36 406.083 113.629 400.094C118.349 396.87 157.247 250.904 157.247 250.904Z" fill="#C0DCD9"/>
<path d="M317.909 713.417C277.002 740.275 166.802 746.57 145.566 741.996C124.329 737.421 73.4463 718.993 68.7738 712.633C64.1013 706.272 58.3542 621.733 65.3629 574.922C68.6103 553.139 77.5347 517.372 86.0152 485.177C93.3276 457.426 100.266 432.398 102.906 421.288C103.562 419.342 103.908 417.316 103.934 415.276C102.159 414.209 77.6048 384.41 82.5108 364.152C87.4169 343.894 146.524 257.417 157.083 250.882C167.643 244.347 184.324 248.203 200.327 249.488C218.456 250.969 255.392 277.805 260.134 292.334C264.013 304.25 266.653 384.127 268.405 414.775C268.493 418.732 268.821 422.681 269.386 426.603C270.577 429.849 280.343 470.975 289.267 504.39C292.935 518.091 296.44 530.529 299.196 538.458C308.705 566.013 325.455 708.537 317.909 713.417Z" fill="#C0DCD9"/>
<path d="M114.447 307.996C114.487 307.9 114.488 307.794 114.452 307.697C114.415 307.599 114.343 307.517 114.248 307.465C114.152 307.413 114.04 307.394 113.931 307.411C113.823 307.429 113.724 307.482 113.653 307.561C108.303 314.858 103.514 322.547 98.8411 330.367C100.5 325.531 102.462 320.804 104.612 316.034C104.599 316.006 104.579 315.982 104.551 315.964C104.524 315.947 104.492 315.938 104.46 315.938C104.427 315.938 104.395 315.947 104.368 315.964C104.341 315.982 104.32 316.006 104.308 316.034C100.8 321.886 98.1745 328.16 96.5049 334.68C95.8741 335.769 95.22 336.858 94.6126 337.991C89.6598 346.922 84.0294 356.746 81.9268 366.701C78.329 383.757 91.1549 404.407 103.584 416.191C104.051 416.627 104.728 415.973 104.308 415.494C90.5709 399.941 79.3803 380.206 87.3469 359.948C94.3322 341.825 104.308 324.769 114.447 307.996Z" fill="#2E2766"/>
<path d="M289.361 504.411C282.663 505.322 275.917 505.882 269.152 506.089C246.289 506.83 223.406 505.37 200.864 501.732C177.141 498.302 153.895 492.443 131.548 484.262C123.669 481.042 114.919 480.152 106.48 481.714C101.411 482.498 96.3646 483.544 91.295 484.393C89.5662 484.676 87.8841 484.959 86.1553 485.177C93.4677 457.426 100.406 432.398 103.046 421.288C114.4 418.609 126.105 416.823 137.272 414.579C155.027 411.029 170.306 426.277 189.206 425.993C213.433 425.623 241.351 406.389 263.639 413.185C265.297 413.708 266.933 414.231 268.545 414.797C268.588 418.744 268.869 422.686 269.386 426.603C270.671 429.871 280.436 470.997 289.361 504.411Z" fill="#A2C8C3"/>
<path d="M148.229 427.714C140.205 403.89 138.798 378.557 144.141 354.088C149.518 330.379 157.028 307.135 166.592 284.602C166.709 284.297 166.171 284.079 166.031 284.384C154.927 308.45 146.807 333.619 141.828 359.403C137.646 381.055 136.992 406.062 146.781 426.625C146.477 426.625 124.002 641.185 148.953 739.796C149.094 740.405 150.075 740.144 149.935 739.534C125.895 640.227 148.346 428.063 148.229 427.714Z" fill="#2E2766"/>
<path d="M166.125 318.191C165.401 319.389 162.597 320.5 161.663 318.604C160.728 316.709 162.48 314.248 164.723 315.228C164.779 315.257 164.845 315.264 164.906 315.248C164.967 315.231 165.019 315.193 165.05 315.141C165.081 315.089 165.089 315.028 165.071 314.971C165.054 314.913 165.012 314.865 164.957 314.836C161.966 313.072 159.256 316.753 160.471 319.323C161.686 321.894 166.499 321.088 166.335 318.256C166.335 318.147 166.171 318.103 166.125 318.191Z" fill="#2E2766"/>
<path d="M154.911 384.214C154.187 385.39 151.383 386.501 150.449 384.628C149.514 382.755 151.266 380.271 153.486 381.23C153.766 381.339 154 381.012 153.743 380.859C150.752 379.073 148.042 382.776 149.257 385.325C150.472 387.874 155.285 387.089 155.121 384.258L154.911 384.214Z" fill="#2E2766"/>
<path d="M160.027 419.088C159.303 420.265 156.476 421.267 155.565 419.502C154.654 417.738 156.359 415.146 158.602 416.126C158.882 416.235 159.116 415.886 158.859 415.734C155.869 413.969 153.159 417.651 154.373 420.221C155.588 422.791 160.401 421.964 160.237 419.154C160.237 419.045 160.074 418.979 160.027 419.088Z" fill="#2E2766"/>
<path d="M156.92 488.619C156.219 489.817 153.392 490.906 152.481 489.033C151.57 487.159 153.275 484.676 155.518 485.656C155.574 485.685 155.64 485.692 155.701 485.676C155.762 485.66 155.814 485.621 155.845 485.569C155.876 485.517 155.884 485.456 155.866 485.399C155.849 485.341 155.808 485.293 155.752 485.264C152.785 483.5 150.075 487.181 151.29 489.751C152.504 492.322 157.317 491.494 157.154 488.684C157.148 488.662 157.136 488.641 157.119 488.624C157.102 488.607 157.081 488.595 157.057 488.588C157.033 488.581 157.008 488.581 156.984 488.586C156.96 488.592 156.938 488.603 156.92 488.619Z" fill="#2E2766"/>
<path d="M160.027 451.61C159.303 452.786 156.476 453.897 155.565 452.024C154.654 450.15 156.359 447.667 158.602 448.626C158.882 448.626 159.116 448.408 158.859 448.255C155.869 446.469 153.159 450.172 154.373 452.721C155.588 455.269 160.401 454.485 160.237 451.653L160.027 451.61Z" fill="#2E2766"/>
<path d="M157.878 351.213C157.153 352.411 154.35 353.522 153.415 351.627C152.481 349.732 154.233 347.271 156.453 348.251C156.506 348.264 156.563 348.261 156.614 348.242C156.666 348.223 156.709 348.188 156.738 348.144C156.767 348.1 156.78 348.048 156.775 347.997C156.77 347.946 156.747 347.897 156.71 347.859C153.719 346.094 151.009 349.797 152.224 352.346C153.439 354.894 158.251 354.11 158.088 351.279C158.088 351.17 157.924 351.126 157.878 351.213Z" fill="#2E2766"/>
<path d="M155.074 415.233C141.057 412.336 128.815 416.082 115.359 418.326C115.242 418.326 115.359 418.5 115.359 418.5C120.805 418.264 126.221 417.601 131.549 416.518C139.305 415.673 147.135 415.585 154.911 416.256C155.046 416.257 155.177 416.213 155.279 416.131C155.382 416.049 155.449 415.935 155.469 415.811C155.489 415.686 155.46 415.559 155.387 415.453C155.315 415.347 155.204 415.269 155.074 415.233Z" fill="#2E2766"/>
<path d="M222.428 414.448C209.836 423.597 195.375 427.344 179.652 423.946C167.13 421.245 156.149 416.213 143.207 419.72C143.02 419.72 143.043 420.068 143.207 420.047C160.098 418.391 174.909 428.15 191.613 427.954C203.567 427.831 214.985 423.314 223.386 415.385C224.087 414.753 223.129 413.926 222.428 414.448Z" fill="#2E2766"/>
<path d="M214.972 322.943L107.171 330.412C101.909 330.777 97.9596 335.05 98.3507 339.957L109.206 476.159C109.597 481.066 114.181 484.748 119.443 484.384L227.243 476.914C232.506 476.55 236.455 472.276 236.064 467.37L225.209 331.167C224.818 326.26 220.234 322.578 214.972 322.943Z" fill="#DD9168"/>
<path d="M187.137 316.934L134.875 320.503C132.7 320.652 131.067 322.416 131.226 324.444L131.984 334.089C132.143 336.117 134.035 337.641 136.21 337.492L188.472 333.922C190.646 333.774 192.28 332.009 192.121 329.982L191.363 320.336C191.204 318.308 189.311 316.785 187.137 316.934Z" fill="#BDBFE1"/>
<path d="M176.708 308.976L177.386 317.69L169.98 318.191L169.676 314.183C169.593 313.167 169.081 312.223 168.254 311.558C167.427 310.893 166.35 310.56 165.261 310.632L155.495 311.307C154.408 311.38 153.396 311.852 152.682 312.62C151.968 313.388 151.61 314.389 151.687 315.402L151.991 319.41L144.585 319.933L143.908 311.22C143.85 310.492 143.947 309.76 144.194 309.067C144.44 308.374 144.83 307.733 145.342 307.181C145.854 306.629 146.478 306.176 147.178 305.849C147.878 305.521 148.64 305.326 149.421 305.273L170.447 303.836C172.003 303.763 173.528 304.26 174.698 305.22C175.867 306.18 176.588 307.528 176.708 308.976Z" fill="#BDBFE1"/>
<path d="M286.557 356.31C294.688 362.017 305.107 444.748 305.715 454.115C306.322 463.482 294.337 481.409 291.136 482.171C287.936 482.934 257.285 472.347 249.832 463.155C242.379 453.962 238.151 371.079 239.763 366.025C241.375 360.972 278.988 350.995 286.557 356.31Z" fill="#FFD395"/>
<path d="M235.394 266.086C239.389 270.9 275.483 288.806 282.118 300.699C288.753 312.592 312.022 399.636 314.218 404.712C316.414 409.787 288.777 423.51 274.502 425.884C260.228 428.259 240.37 423.249 233.338 419.72C226.306 416.191 235.394 266.086 235.394 266.086Z" fill="#C0DCD9"/>
<path d="M229.297 339.472C229.297 339.438 229.282 339.404 229.256 339.38C229.23 339.355 229.194 339.342 229.157 339.342C229.12 339.342 229.084 339.355 229.058 339.38C229.031 339.404 229.017 339.438 229.017 339.472C230.582 366.222 231.166 393.08 230.372 419.872C230.372 420.098 230.468 420.314 230.638 420.473C230.809 420.632 231.041 420.722 231.283 420.722C231.524 420.722 231.756 420.632 231.927 420.473C232.098 420.314 232.194 420.098 232.194 419.872C233.66 393.044 232.691 366.148 229.297 339.472Z" fill="#2E2766"/>
<path d="M268.779 299.457C259.486 302.452 251.252 307.766 244.974 314.822C238.696 321.877 234.615 330.404 233.175 339.472C233.175 339.668 233.455 339.756 233.502 339.472C235.221 330.558 239.374 322.208 245.562 315.225C251.749 308.243 259.761 302.865 268.826 299.61C268.966 299.588 268.919 299.414 268.779 299.457Z" fill="#2E2766"/>
<path d="M291.744 481.888C285.25 486.07 218.574 488.423 185.259 482.89C162.373 478.621 139.89 472.655 118.022 465.05C102.136 459.495 90.4546 454.158 90.3612 451.131C90.1275 444.269 104.729 429.348 114.097 430.328C123.466 431.308 178.788 426.516 198.716 427.714C214.812 428.673 230.699 429.261 244.062 430.263C257.425 431.265 268.732 432.746 274.573 435.534C286.114 441.023 291.744 481.888 291.744 481.888Z" fill="#FFD395"/>
<path d="M244.062 430.263C239.097 433.804 233.917 437.077 228.549 440.065C212.52 448.952 195.111 455.469 176.942 459.386C157.712 463.986 137.855 465.895 118.022 465.05C102.136 459.495 90.4546 454.158 90.3612 451.131C90.1275 444.269 104.729 429.348 114.097 430.328C123.466 431.308 178.788 426.516 198.716 427.714C214.812 428.782 230.699 429.261 244.062 430.263Z" fill="#BC847A"/>
<path d="M245.814 429.784C245.777 429.784 245.741 429.797 245.715 429.822C245.689 429.846 245.674 429.88 245.674 429.914C245.674 429.949 245.689 429.982 245.715 430.007C245.741 430.031 245.777 430.045 245.814 430.045C263.382 433.269 273.849 442.265 282.937 456.184C283.24 456.62 284.105 456.337 283.895 455.814C278.124 441.612 262.635 429.609 245.814 429.784Z" fill="#BC847A"/>
<path d="M37.1885 466.945C53.5421 475.484 178.858 442.984 186.707 438.235C189.043 436.819 222.475 435.491 228.199 434.794C233.922 434.097 243.594 428.368 244.155 425.188C244.463 422.705 244.018 420.192 242.87 417.934C242.31 416.649 246.094 411.66 245.72 409.373C244.843 406.989 243.642 404.72 242.146 402.621C241.515 401.335 242.987 395.628 242.146 393.907C241.305 392.187 237.474 390.379 236.165 388.963C234.857 387.547 237.287 385.652 234.6 384.149C226.96 379.792 189.16 398.373 183.39 400.181C177.619 401.989 124.774 402.359 110.967 403.928C97.1595 405.496 74.6616 406.716 60.3872 418.631C46.1129 430.546 37.1885 466.945 37.1885 466.945Z" fill="#FFD395"/>
<path d="M88.5154 406.324C68.4472 405.931 53.472 423.641 45.6689 438.998C45.6536 439.023 45.6438 439.052 45.6402 439.081C45.6366 439.11 45.6392 439.14 45.6479 439.168C45.6566 439.196 45.6712 439.223 45.6908 439.246C45.7105 439.269 45.7348 439.288 45.7624 439.303C45.79 439.317 45.8204 439.326 45.8517 439.329C45.8831 439.333 45.9149 439.33 45.9453 439.322C45.9757 439.314 46.004 439.3 46.0288 439.282C46.0535 439.264 46.0741 439.241 46.0895 439.215C56.9529 423.096 68.3771 411.922 88.6322 407.26C88.7654 407.246 88.8871 407.183 88.9703 407.085C89.0535 406.986 89.0916 406.862 89.0761 406.737C89.0606 406.613 88.9929 406.5 88.8877 406.422C88.7826 406.345 88.6486 406.309 88.5154 406.324Z" fill="#BC847A"/>
<path d="M182.946 229.905C164.723 233.891 154.374 245.806 148.439 251.187C142.505 256.567 125.311 290.723 125.358 296.604C125.404 302.485 157.457 276.869 164.302 276.999C168.975 276.999 186.053 311.852 194.673 310.087C205.607 307.909 225.652 278.154 225.745 262.296C225.745 257.046 216.914 243.65 208.878 236.832C199.696 229.034 190.749 228.228 182.946 229.905Z" fill="#C0DCD9"/>
<path d="M226.002 263.233H225.792C219.18 288.283 199.065 309.456 194.626 310.066C189.533 310.763 167.059 276.106 164.442 275.91C159.583 275.562 126.876 296.647 126.502 296.321C126.128 295.994 130.38 282.053 145.869 254.52C145.869 254.389 145.753 254.28 145.682 254.52C127.717 280.093 122.32 299.479 124.656 299.457C127.88 299.457 149.981 284.776 163.391 278.285C169.769 286.627 188.856 312.484 193.528 312.484C202.57 312.44 224.67 281.857 226.002 263.233Z" fill="#2E2766"/>
<path d="M219.181 191.35C219.181 191.35 217.943 203.112 216.354 216.835C216.121 218.643 215.934 220.473 215.7 222.325C213.714 238.945 208.691 259.682 207.57 261.534C205.491 265.28 187.479 281.596 173.017 279.374C158.556 277.152 160.752 263.973 160.752 263.973L161.032 257.133L161.476 243.628L162.738 208.405L212.149 193.266L219.181 191.35Z" fill="#FFD395"/>
<path d="M219.181 191.35C219.181 191.35 217.942 203.112 216.354 216.835C201.776 232.955 182.245 245.109 161.476 243.628L162.737 208.405L212.148 193.266L219.181 191.35Z" fill="#BC847A"/>
<path d="M111.271 146.368C111.271 146.368 123.582 209.865 98.8418 235.503C98.8418 235.503 125.451 221.54 125.919 171.941L111.271 146.368Z" fill="#2E2766"/>
<path d="M137.342 90.2341C137.342 90.2341 115.381 93.1529 108.443 118.399C102.672 139.398 116.036 159.786 118.769 161.965C123.628 165.624 149.56 104.219 137.342 90.2341Z" fill="#2E2766"/>
<path d="M112.696 158.174C109.004 220.538 146.244 225.919 157.505 228.38C170.307 231.06 220.84 231.844 231.423 170.177C242.006 108.51 212.102 87.1845 182.362 84.2002C152.622 81.216 116.41 95.8105 112.696 158.174Z" fill="#FFD395"/>
<path d="M167.854 165.08C167.854 164.927 168.158 165.341 168.134 165.515C167.293 169.698 167.083 174.62 170.938 176.603C170.938 176.603 170.938 176.864 170.938 176.82C165.985 175.448 166.335 168.935 167.854 165.08Z" fill="#2E2766"/>
<path d="M172.596 161.289C179.932 161.812 178.25 175.448 171.452 174.969C164.653 174.49 166.452 160.854 172.596 161.289Z" fill="#2E2766"/>
<path d="M136.408 162.226C136.408 162.052 136.057 162.422 136.057 162.596C136.057 166.953 135.45 171.723 131.385 173.074C131.385 173.074 131.385 173.335 131.385 173.313C136.384 172.725 137.225 166.234 136.408 162.226Z" fill="#2E2766"/>
<path d="M132.413 157.717C125.1 157.107 124.283 170.787 131.081 171.397C137.88 172.007 138.557 158.24 132.413 157.717Z" fill="#2E2766"/>
<path d="M157.948 195.445C156.873 196.447 155.822 197.841 154.163 198.015C152.464 198.016 150.784 197.682 149.233 197.035C149.2 197.022 149.162 197.02 149.127 197.029C149.092 197.039 149.061 197.059 149.039 197.086C149.018 197.114 149.007 197.147 149.008 197.182C149.009 197.216 149.023 197.248 149.047 197.274C149.721 198.093 150.619 198.727 151.647 199.11C152.674 199.493 153.794 199.612 154.887 199.453C155.798 199.212 156.614 198.73 157.236 198.065C157.858 197.4 158.26 196.58 158.392 195.706C158.462 195.379 158.111 195.292 157.948 195.445Z" fill="#BC847A"/>
<path d="M144.141 181.547C144.141 181.547 142.972 187.864 142.856 190.849C142.856 191.132 143.627 191.284 144.701 191.393H144.841C147.58 191.947 150.43 191.789 153.079 190.936C155.728 190.083 158.074 188.569 159.863 186.557C160.097 186.274 159.7 185.947 159.396 186.122C155.222 188.589 150.307 189.735 145.379 189.389C145.192 188.561 147.715 178.65 147.294 178.498C144.79 178.624 142.315 179.064 139.935 179.805C141.991 166.583 146.29 153.665 148.112 140.596C148.121 140.499 148.094 140.403 148.035 140.324C147.976 140.244 147.889 140.187 147.789 140.161C147.689 140.135 147.582 140.142 147.488 140.182C147.393 140.222 147.317 140.291 147.271 140.378C141.758 153.448 139.048 168.696 136.548 182.288C136.221 184.031 142.856 182.005 144.141 181.547Z" fill="#BC847A"/>
<path d="M130.24 146.434C131.811 146.276 133.371 146.036 134.912 145.715C136.558 145.662 138.14 145.111 139.421 144.146C139.753 143.76 139.934 143.28 139.934 142.785C139.934 142.29 139.753 141.81 139.421 141.424C138.688 140.72 137.766 140.212 136.752 139.952C135.738 139.691 134.667 139.688 133.651 139.942C131.507 140.151 129.524 141.099 128.091 142.6C127.778 142.957 127.585 143.391 127.535 143.849C127.484 144.308 127.58 144.77 127.809 145.178C128.037 145.586 128.39 145.923 128.822 146.146C129.254 146.369 129.747 146.469 130.24 146.434Z" fill="#2E2766"/>
<path d="M178.881 150.55C177.362 150.18 176.007 149.614 174.536 149.113C172.931 148.831 171.47 148.066 170.377 146.935C170.101 146.512 169.987 146.014 170.055 145.523C170.123 145.032 170.369 144.577 170.751 144.233C171.6 143.653 172.6 143.294 173.647 143.195C174.694 143.095 175.751 143.258 176.708 143.667C178.787 144.211 180.571 145.463 181.708 147.174C181.922 147.575 182.01 148.024 181.961 148.47C181.913 148.916 181.731 149.34 181.435 149.693C181.139 150.046 180.743 150.314 180.291 150.465C179.839 150.617 179.35 150.647 178.881 150.55Z" fill="#2E2766"/>
<path d="M226.61 173.749C215.512 174.337 209.415 146.368 209.415 146.368C209.415 146.368 135.403 134.366 137.342 90.2341C137.342 90.2341 180.796 61.0452 220.372 93.1312C259.948 125.217 236.679 173.226 226.61 173.749Z" fill="#2E2766"/>
<path d="M212.709 146.564C194.884 145.432 177.292 142.208 162.504 132.275C147.014 121.841 140.613 107.508 137.716 90.5172C137.716 90.343 137.436 90.5172 137.412 90.5172C135.357 106.397 146.851 122.712 159.583 132.101C174.395 142.992 194.019 147.915 212.733 147.348C212.844 147.346 212.95 147.301 213.026 147.226C213.103 147.15 213.145 147.049 213.141 146.945C213.138 146.841 213.091 146.743 213.01 146.671C212.929 146.6 212.821 146.561 212.709 146.564Z" fill="#2E2766"/>
<path d="M244.108 184.815C244.079 184.906 244.04 184.993 243.991 185.076C241.211 191.262 237.193 196.708 232.941 198.625C232.763 198.723 232.576 198.803 232.38 198.865C231.012 199.497 229.521 199.864 227.996 199.943C226.471 200.023 224.945 199.813 223.51 199.326C222.075 198.839 220.761 198.086 219.647 197.112C218.534 196.138 217.644 194.963 217.031 193.659L220.162 176.973C220.162 176.973 220.536 176.45 221.213 175.579C221.891 174.708 222.078 174.424 222.521 173.88C223.643 172.551 225.068 170.852 226.703 169.197C228.966 166.797 231.568 164.694 234.436 162.945C237.59 161.159 240.814 160.353 243.781 161.725C249.482 164.274 248.36 175.361 244.108 184.815Z" fill="#FFD395"/>
<path d="M240.698 169.676C240.861 169.676 240.908 169.894 240.698 169.959C232.988 173.139 229.017 180.001 226.447 187.08C228.783 184.314 231.797 182.724 235.792 185.207C236.002 185.338 235.792 185.643 235.605 185.621C234.219 185.257 232.747 185.301 231.388 185.745C230.03 186.19 228.851 187.013 228.012 188.104C226.63 189.943 225.464 191.915 224.531 193.985C224.181 194.661 222.919 194.334 223.153 193.571V193.419C222.662 184.139 230.045 170.917 240.698 169.676Z" fill="#BC847A"/>
<path d="M209.415 146.368C209.415 146.368 221.727 209.865 196.963 235.503C196.963 235.503 223.596 221.54 224.063 171.941L209.415 146.368Z" fill="#2E2766"/>
<path d="M245.416 181.961C242.976 190.639 238.382 198.66 232.006 205.378C223.479 214.919 211.331 219.428 199.299 223.218C198.108 223.566 197.757 221.693 198.995 221.323C212.098 217.477 223.552 209.849 231.703 199.54C232.17 199.257 232.637 198.93 233.081 198.603C237.333 196.686 241.351 191.241 244.131 185.054C244.18 184.971 244.219 184.884 244.248 184.793C244.575 183.9 245.019 182.92 245.416 181.961Z" fill="white"/>
<path d="M234.53 162.792C231.464 164.418 228.657 166.434 226.19 168.783C224.53 170.141 223.012 171.644 221.657 173.27C221.167 173.793 220.699 174.337 220.232 174.882C219.765 175.426 219.087 176.232 219.087 176.232C215.723 180.589 212.85 184.706 211.565 185.969C211.168 186.383 210.49 185.839 210.747 185.425C214.415 179.522 221.354 163.925 230.932 162.618C232.133 162.477 233.351 162.536 234.53 162.792Z" fill="white"/>
<path d="M216.143 178.432C217.639 175.361 193.832 186.035 169.022 181.264C163.952 180.284 149.794 174.969 141.945 174.969C134.095 174.969 124.843 180.916 113.91 182.027C110.195 182.397 113.396 212.522 122.904 225.592C126.035 229.949 139.258 238.662 147.505 239.533C166.639 241.363 199.393 228.642 204.369 222.695C208.41 217.903 202.056 207.578 216.143 178.432Z" fill="white"/>
<path d="M115.849 191.546C122.765 188.743 129.965 186.597 137.343 185.142C143.72 183.965 149.491 186.144 155.542 188.148C171.755 193.528 188.085 192.918 204.416 188.583C204.626 188.583 204.696 188.845 204.416 188.91C191.509 194.073 177.154 195.189 163.508 192.09C156.079 190.478 148.65 186.732 140.94 187.189C132.647 187.668 124.54 191.35 116.153 192.765C115.452 192.874 115.195 191.829 115.849 191.546Z" fill="#BDBFE1"/>
<path d="M127.951 226.202C133.091 228.511 138.184 231.909 143.534 233.543C149.935 235.481 157.551 233.543 163.859 232.127C175.844 229.513 187.221 224.917 199.043 221.236C199.043 221.236 199.183 221.366 199.043 221.388C186.265 227.537 172.631 231.995 158.533 234.632C153.86 235.416 148.674 236.527 144.025 235.22C138.394 233.652 132.787 229.731 127.671 226.507C127.671 226.507 127.788 226.202 127.951 226.202Z" fill="#BDBFE1"/>
<path d="M119.867 201.675C132.062 198.32 143.416 199.148 155.798 200.694C169.778 202.379 183.949 202.129 197.85 199.954C197.991 199.954 198.061 200.15 197.85 200.172C185.49 202.596 172.801 203.213 160.237 202.001C154.163 201.413 148.112 200.346 142.014 199.954C134.548 199.678 127.082 200.501 119.89 202.393C119.703 202.481 119.517 201.784 119.867 201.675Z" fill="#BDBFE1"/>
<path d="M122.811 213.132C133.608 218.941 146.073 221.483 158.485 220.408C171.265 219.362 183.319 214.919 195.421 210.954C195.585 210.954 195.655 211.15 195.421 211.215C171.265 220.865 146.641 227.313 122.507 213.851C122.017 213.59 122.344 212.936 122.811 213.132Z" fill="#BDBFE1"/>
</g>
</g>
<g clip-path="url(#clip1_140_8456)">
<path d="M319.602 481.925C319.602 481.925 338.214 681.421 340.877 684.199H421.909V481.925H319.602Z" fill="#434B95"/>
<path d="M532.154 481.925H386.668C386.668 481.925 421.834 565.442 425.727 570.998C429.62 576.554 448.66 684.199 448.66 684.199H532.154C532.154 684.199 532.304 593.463 532.154 587.645C532.003 581.826 540.593 503.143 532.154 481.925Z" fill="#434B95"/>
<path d="M427.209 189.834C408.697 190.512 394.128 199.109 385.337 205.146C376.545 211.183 332.287 247.495 328.644 258.432C325.002 269.37 320.205 496.078 325.052 502.99C329.9 509.903 381.217 525.958 403.874 527.052C426.531 528.146 524.844 512.287 532.605 506.031C540.367 499.775 558.779 281.204 554.71 267.817C550.64 254.429 487.895 211.336 475.361 198.715C469.91 193.115 435.297 189.549 427.209 189.834Z" fill="#BDBFE1"/>
<path d="M390.034 237.28C389.858 240.386 393.927 254.582 395.736 256.354C397.544 258.126 411.661 258.979 413.319 257.951C414.976 256.923 422.939 242.486 423.366 239.73C423.793 236.973 412.063 224.877 407.165 224.177C402.266 223.477 390.134 235.42 390.034 237.28Z" fill="#2E2766"/>
<path d="M395.736 256.354C395.736 256.354 372.803 402.805 371.471 412.67C370.14 422.535 396.037 481.794 400.408 483.128C404.778 484.462 429.219 424.067 430.726 417.504C432.233 410.942 414.926 262.72 413.52 257.47C413.143 256.004 395.937 254.976 395.736 256.354Z" fill="#2E2766"/>
<path d="M366.723 638.044C364.412 644.037 303.35 628.113 302.119 620.806C300.888 613.5 322.515 445.132 322.54 431.92C322.565 418.707 320.229 272.826 327.413 256.004C331.03 247.495 353.285 227.808 366.121 217.089C371.571 212.496 375.339 209.499 375.339 209.499C373.229 216.586 365.292 311.938 367.326 376.818C367.954 397.555 368.356 431.198 368.557 467.531C368.557 467.881 368.557 468.166 368.557 468.45C368.959 545.383 368.356 634.041 366.723 638.044Z" fill="white"/>
<path d="M337.134 306.841C336.632 300.147 363.182 272.891 363.182 272.891C363.182 272.891 339.596 276.129 339.57 271.645C339.57 267.751 361.047 226.714 366.121 217.089C371.571 212.496 379.207 207.202 379.207 207.202C377.097 214.311 365.317 311.938 367.326 376.818C367.954 397.555 368.356 431.198 368.557 467.531C367.502 446.86 337.636 313.447 337.134 306.841Z" fill="white"/>
<path d="M337.611 304.872C345.323 293.672 364.79 272.279 364.664 272.366C364.538 272.454 342.057 273.132 340.525 271.535C339.37 270.42 359.515 231.22 365.644 220.611C365.665 220.563 365.666 220.51 365.646 220.461C365.626 220.412 365.588 220.371 365.536 220.345C365.485 220.318 365.425 220.309 365.366 220.318C365.308 220.326 365.255 220.353 365.217 220.392C354.215 234.436 335.075 272.257 339.043 273.373C343.012 274.488 354.918 274.423 360.369 274.423C350.849 282.954 335.602 303.778 335.075 305.266C334.547 306.753 344.167 356.868 349.342 380.93C354.868 406.873 359.389 436.491 366.397 462.172C366.397 462.675 367.327 462.456 367.251 461.997C363.684 436.141 343.489 333.375 337.611 304.872Z" fill="#2E2766"/>
<path d="M564.757 621.353C516.254 654.165 451.298 645.831 449.012 641.281C447.655 638.569 443.988 554.855 442.657 472.344V471.228C441.853 415.098 442.129 359.668 445.169 330.815C450.045 286.034 459.939 241.775 474.708 198.671C476.991 199.701 479.104 200.996 480.987 202.521C499.525 215.514 551.62 257.207 551.093 265.082C550.415 274.335 547.852 395.695 551.997 448.522C556.142 501.349 571.539 616.738 564.757 621.353Z" fill="white"/>
<path d="M514.344 340.418C505.854 339.784 470.563 341.512 461.596 342.387C461.093 342.387 461.194 343.153 461.596 343.153C470.638 343.415 510.325 341.556 511.832 342.103C513.339 342.649 512.737 348.993 511.832 349.365C509.748 350.24 470.688 350.546 461.344 350.721C459.737 350.721 459.662 352.909 461.344 352.909C478.927 352.559 496.51 351.946 513.942 351.181C514.269 351.181 514.584 351.073 514.823 350.877C515.061 350.682 515.204 350.415 515.223 350.131C515.341 346.875 515.046 343.618 514.344 340.418Z" fill="#2E2766"/>
<path d="M468.604 266.242C468.202 267.051 493.522 288.401 494.928 291.507C496.335 294.613 460.843 377.846 453.357 403.067C445.872 428.288 442.657 472.388 442.657 472.388V471.272C441.853 415.142 442.129 359.712 445.169 330.859C450.122 285.448 459.236 240.455 472.422 196.309C472.95 196.309 477.446 200.093 480.937 202.521C481.414 204.249 498.344 258.914 498.52 260.685C498.696 262.457 468.956 265.432 468.604 266.242Z" fill="white"/>
<path d="M481.841 204.205C481.691 203.68 481.264 203.812 481.389 204.358C485.392 223.37 490.693 242.157 497.264 260.62C487.217 262.107 468.127 265.52 467.775 265.892C467.122 266.592 475.311 275.298 479.706 279.148C484.26 283.642 489.161 287.859 494.376 291.769C480.36 319.178 450.82 403.33 447.957 417.548C445.206 432.251 443.395 447.076 442.531 461.953C442.531 462.128 442.833 462.15 442.858 461.953C445.068 446.335 447.027 430.651 450.77 415.229C454.161 401.339 485.534 319.703 496.611 292.185C496.913 291.441 473.402 270.113 469.157 266.482C478.752 265.192 499.726 262.348 499.475 261.582C493.245 242.581 487.368 223.455 481.841 204.205Z" fill="#2E2766"/>
<path d="M508.567 418.489C508.416 422.273 507.688 424.92 506.96 425.226C504.724 426.276 495.254 430.257 482.444 434.763C480.133 435.573 477.747 436.404 475.235 437.235C468.227 439.554 442.581 450.929 414.072 462.916C375.792 478.95 332.01 496.056 319.325 494.196C297.246 490.915 266.301 467.772 263.94 454.494C261.578 441.216 308.022 283.391 313.925 272.651C319.828 261.91 326.484 252.833 332.839 247.386L323.219 421.048C323.876 420.736 324.565 420.479 325.279 420.282C332.412 418.095 356.124 412.364 383.327 406.173C429.093 395.739 484.755 383.861 488.372 384.846C489.642 385.205 490.884 385.637 492.09 386.136C506.307 392.305 509.07 408.995 508.567 418.489Z" fill="white"/>
<path d="M482.469 434.763C480.158 435.573 477.772 436.404 475.26 437.235C468.252 439.554 442.606 450.929 414.097 462.916L394.555 452.985C378.906 445.066 362.83 437.563 347.558 429.185C346.327 428.521 345.144 427.791 344.017 426.998L341.329 427.107C336.305 427.26 325.831 426.932 325.203 421.529C325.194 421.405 325.194 421.281 325.203 421.157C325.186 421.063 325.186 420.967 325.203 420.873C325.203 420.698 325.203 420.501 325.203 420.282C332.337 418.095 356.048 412.364 383.252 406.173C407.9 405.018 432.468 409.474 454.538 419.101C464.537 423.326 473.915 428.585 482.469 434.763Z" fill="#BDBFE1"/>
<path d="M509.949 418.598C509.949 420.282 509.597 422.032 509.271 423.87C509.447 424.285 508.718 424.898 508.166 425.16C481.515 438.591 400.584 470.178 380.564 477.9C368.809 482.472 328.67 499.206 316.286 493.956C316.035 493.825 315.985 493.606 316.286 493.65H316.613C327.916 495.159 371.145 479.562 413.57 462.631C420.678 459.81 427.787 456.944 434.694 454.144C434.918 454.025 435.154 453.922 435.398 453.838C449.891 447.91 463.606 442.135 475.085 437.257H475.235L481.917 434.413C497.39 427.851 507.412 423.476 507.412 423.476C508.09 415.076 507.939 392.72 487.694 385.764C457.075 392.873 422.537 399.239 391.692 406.217C390.612 406.436 389.557 406.676 388.477 406.939C372.334 410.628 356.166 414.391 339.973 418.226C334.997 419.261 330.199 420.864 325.706 422.995C322.873 424.375 320.248 426.058 317.894 428.004C312.217 432.663 306.792 437.476 300.864 441.916C300.512 442.201 300.085 441.785 300.386 441.479C306.817 434.676 313.548 426.976 322.064 421.792C321.21 400.661 320.732 379.442 320.129 358.355C319.04 356.787 318.283 355.06 317.894 353.259C317.212 350.944 316.716 348.59 316.412 346.215C316.389 346.128 316.406 346.036 316.46 345.961C316.514 345.885 316.601 345.831 316.701 345.81C316.801 345.79 316.906 345.805 316.993 345.852C317.08 345.899 317.142 345.975 317.166 346.062C317.768 348.249 318.522 350.437 319.376 352.515C319.577 352.996 319.803 353.456 320.029 353.959C319.778 345.209 319.552 336.306 319.2 327.49C319.2 327.49 319.351 327.49 319.376 327.49C323.42 351.552 324.274 376.336 324.4 400.967C324.4 407.529 324.4 414.092 324.4 420.654C326.709 419.367 329.178 418.31 331.759 417.504C347.91 412.976 364.664 409.717 381.041 405.976C400.182 401.601 420.678 397.423 441.099 393.42C441.526 393.42 441.979 393.223 442.481 393.158C455.342 390.642 468.127 388.149 480.485 385.699L487.694 384.277C489.586 384.661 491.398 385.295 493.069 386.158C500.052 389.439 511.632 398.145 509.949 418.598Z" fill="#2E2766"/>
<path d="M375.465 397.358C369.552 401.336 364.456 406.158 360.394 411.62C357.154 415.506 354.613 419.799 352.858 424.351C350.75 424.424 348.64 424.263 346.579 423.87C344.492 423.599 342.525 422.848 340.883 421.695C339.24 420.541 337.981 419.026 337.235 417.307L325.228 420.304C320.204 418.51 326.509 411.795 326.509 411.795C326.358 409.083 332.035 405.758 332.035 405.758C332.739 403.001 340.023 400.508 340.023 400.508C340.023 400.508 342.309 397.883 350.723 396.505C355.973 395.63 367.553 396.548 375.465 397.358Z" fill="#FFD395"/>
<path d="M590.077 447.472C590.077 455.894 558.955 496.843 538.283 494.525C504.373 490.784 360.846 429.623 353.939 428.245C352.507 427.917 352.281 426.495 352.884 424.351C354.639 419.799 357.18 415.506 360.419 411.62C364.482 406.158 369.577 401.336 375.49 397.358C376.754 396.575 378.142 395.956 379.61 395.52C388.803 393.092 474.306 406.108 510.05 412.101C519.343 413.654 525.121 414.726 525.648 414.923C526.176 415.12 526.753 403.986 527.381 387.427C529.315 339.062 531.626 243.055 531.626 243.055C542.352 252.614 564.054 271.12 568.048 277.616C572.042 284.113 590.001 439.051 590.077 447.472Z" fill="white"/>
<path d="M549.736 425.51C543.275 421.424 536.317 417.969 528.988 415.207C534.012 414.136 541.548 416.323 545.466 416.673C546.245 416.673 546.32 415.776 545.692 415.557C541.333 414.176 536.741 413.437 532.103 413.37C530.656 413.31 529.214 413.566 527.908 414.114C530.354 386.693 529.959 359.137 526.728 331.778C526.728 331.297 525.773 331.406 525.773 331.778C525.773 339.04 525.773 346.302 525.773 353.652C524.919 350.612 523.889 347.593 523.035 344.728C523.046 344.704 523.05 344.679 523.047 344.654C523.044 344.629 523.034 344.606 523.018 344.585C523.002 344.564 522.98 344.547 522.955 344.535C522.929 344.524 522.901 344.518 522.872 344.518C522.843 344.518 522.815 344.524 522.79 344.535C522.764 344.547 522.743 344.564 522.727 344.585C522.71 344.606 522.7 344.629 522.697 344.654C522.694 344.679 522.698 344.704 522.709 344.728C524.191 351.29 524.191 358.137 525.824 364.611C525.824 381.105 525.999 397.598 525.824 414.092C507.814 408.383 403.824 392.655 379.886 395.061C378.295 395.305 376.805 395.909 375.566 396.811C375.013 397.183 375.088 397.686 375.39 397.555C377.032 396.685 378.878 396.147 380.79 395.98C406.26 395.87 508.115 411.073 526.1 416.826C526.186 416.9 526.288 416.957 526.4 416.995C526.513 417.032 526.633 417.049 526.753 417.045C534.627 419.584 542.275 422.626 549.636 426.145C550.691 426.67 550.691 426.079 549.736 425.51Z" fill="#2E2766"/>
<path d="M555.539 488.772C551.568 491.295 547.004 493.021 542.176 493.825C535.067 494.875 515.701 488.268 503.895 484.44C485.785 478.6 468.303 471.491 450.87 464.316C435.096 457.753 419.297 451.432 403.321 445.351C394.949 442.186 386.576 439.08 378.203 436.032C373.054 434.173 356.651 429.12 353.637 427.282C352.708 426.713 353.311 424.985 353.26 424.088C353.26 423.782 352.658 423.651 352.582 424.088C352.155 425.363 351.902 426.678 351.829 428.004C351.822 428.14 351.868 428.274 351.959 428.385C352.05 428.496 352.181 428.578 352.331 428.617C391.566 442.901 429.897 458.65 468.504 474.116C485.151 481.011 502.302 486.945 519.845 491.878C526.703 493.715 535.092 496.537 542.628 495.815C545.284 495.587 547.858 494.887 550.191 493.758C552.524 492.63 554.566 491.096 556.192 489.253C556.493 488.837 555.941 488.531 555.539 488.772Z" fill="#2E2766"/>
<path d="M555.689 410.986C555.689 410.986 557.272 414.136 556.091 415.557C554.531 416.943 552.765 418.143 550.842 419.123C550.842 419.123 529.642 415.776 525.723 414.923C525.321 414.726 519.418 413.654 510.125 412.101C509.195 396.264 499.349 389.067 493.245 386.158C497.766 386.158 516.228 386.552 527.456 387.427C530.075 387.542 532.674 387.879 535.218 388.433C541.799 390.205 557.95 405.933 557.824 407.858C557.586 409.096 556.824 410.211 555.689 410.986Z" fill="#FFD395"/>
<path d="M475.762 204.358C471.995 185.131 436 184.365 419.171 185.306C397.72 186.487 380.011 191.365 374.736 210.768C369.461 230.17 370.215 250.951 371.622 270.507C371.611 271.221 371.295 271.905 370.735 272.426C370.176 272.947 369.413 273.268 368.596 273.325C367.78 273.383 366.968 273.173 366.32 272.737C365.671 272.3 365.233 271.669 365.091 270.966C363.483 248.414 357.932 206.108 380.011 189.768C402.09 173.428 475.863 171.35 482.293 203.899C482.996 207.508 476.491 207.924 475.762 204.358Z" fill="#2E2766"/>
<path d="M354.366 282.494C354.584 285.087 355.683 287.565 357.521 289.614C359.359 291.663 361.855 293.19 364.691 294.002C367.527 294.813 370.576 294.873 373.452 294.174C376.327 293.474 378.899 292.046 380.842 290.072C382.784 288.097 384.009 285.665 384.362 283.083C384.714 280.501 384.179 277.887 382.822 275.57C381.466 273.254 379.35 271.341 376.744 270.074C374.137 268.806 371.157 268.241 368.181 268.451C364.216 268.73 360.539 270.363 357.951 272.994C355.363 275.625 354.074 279.04 354.366 282.494Z" fill="#778BFD"/>
<path d="M360.293 282.079C360.433 283.631 361.098 285.113 362.204 286.337C363.31 287.56 364.809 288.47 366.509 288.952C368.209 289.435 370.036 289.467 371.757 289.045C373.479 288.623 375.018 287.766 376.18 286.583C377.342 285.399 378.076 283.942 378.287 282.396C378.499 280.85 378.179 279.283 377.369 277.895C376.558 276.507 375.293 275.359 373.734 274.597C372.174 273.835 370.39 273.493 368.607 273.613C367.423 273.694 366.268 273.976 365.21 274.445C364.151 274.914 363.208 275.56 362.436 276.346C361.664 277.132 361.078 278.043 360.71 279.027C360.342 280.01 360.201 281.047 360.293 282.079Z" fill="#E4EEF8"/>
<path d="M470.237 268.21C469.006 324.69 475.085 337.137 481.867 342.168C486.876 345.619 492.728 348.021 498.972 349.19L499.851 345.296L499.399 347.243L499.851 345.296C494.356 344.272 489.202 342.17 484.78 339.15C479.757 335.518 473.502 324.209 474.733 268.298L470.237 268.21Z" fill="#BDBFE1"/>
<path d="M490.502 343.547L489.431 346.991C489.031 348.278 489.904 349.605 491.383 349.953L501.173 352.262C502.651 352.611 504.174 351.85 504.574 350.563L505.645 347.119C506.046 345.832 505.172 344.505 503.694 344.157L493.904 341.848C492.425 341.499 490.902 342.26 490.502 343.547Z" fill="#778BFD"/>
<path d="M510.4 261.123C533.66 298.572 542.677 319.834 538.809 328.081C536.494 332.512 533.06 336.431 528.762 339.543L531.575 342.671C536.516 339.124 540.453 334.633 543.079 329.547C547.701 319.725 539.387 299.338 514.444 259.176L510.4 261.123Z" fill="#BDBFE1"/>
<path d="M522.273 344.875L525.062 347.515C526.104 348.502 527.868 348.566 529.001 347.658L536.507 341.646C537.64 340.738 537.714 339.202 536.671 338.215L533.882 335.575C532.84 334.588 531.076 334.524 529.943 335.431L522.437 341.444C521.304 342.352 521.23 343.888 522.273 344.875Z" fill="#778BFD"/>
<path d="M515.449 257.229C511.01 248.807 505.977 240.632 500.378 232.752C497.393 229.364 493.421 226.736 488.874 225.139C487.97 225.139 486.362 218.446 485.382 212.846C484.428 207.902 483.448 202.127 481.69 200.837C480.71 200.282 479.523 200.08 478.375 200.272C477.228 200.463 476.211 201.034 475.536 201.865C474.406 203.615 475.913 209.302 477.068 214.202C478.4 219.78 479.831 226.583 478.952 226.78C475.651 229.813 473.246 233.499 471.944 237.52C470.016 246.912 468.924 256.419 468.679 265.957C468.829 271.951 471.191 272.191 473.2 272.366C476.089 272.585 477.319 270.66 477.646 263.923C478.173 253.248 477.646 235.486 485.634 233.955C493.722 232.97 501.885 250.076 507.21 259.46C510.526 265.323 512.234 265.607 514.746 264.492C516.479 263.595 518.237 262.479 515.449 257.229Z" fill="#778BFD"/>
<path d="M446.525 172.159C452.604 174.347 473.477 198.54 472.698 202.018C471.92 205.496 474.532 249.42 428.415 266.526L405.808 229.339L383.202 259.745C383.202 259.745 370.19 235.508 370.642 229.47C371.095 223.433 376.495 193.334 403.296 178.35C423.491 167.215 433.84 167.456 446.525 172.159Z" fill="#BDBFE1"/>
<path d="M471.995 201.558C469.633 225.621 457.677 256.857 428.992 265.126C421.08 253.336 413.067 241.786 406.385 229.449C406.332 229.361 406.256 229.286 406.163 229.229C406.071 229.172 405.964 229.134 405.852 229.119C405.74 229.104 405.625 229.113 405.517 229.143C405.409 229.174 405.311 229.226 405.23 229.295C405.029 229.295 389.079 249.42 382.975 259.242C379.474 252.399 376.626 245.317 374.46 238.067C370.969 228.18 372.476 220.568 376.017 210.855C376.017 210.615 375.641 210.44 375.54 210.68C371.421 218.599 368.708 226.474 371.396 235.048C373.731 243.89 377.22 252.469 381.795 260.62C381.861 260.728 381.964 260.816 382.09 260.871C382.216 260.926 382.359 260.945 382.498 260.926C382.597 260.965 382.708 260.973 382.813 260.949C382.918 260.925 383.011 260.871 383.076 260.795C390.988 251.389 397.468 241.108 405.406 231.636C412.213 243.93 419.899 255.698 427.585 266.635C427.937 267.139 429.268 266.876 429.394 266.832C459.234 258.607 473.15 226.802 472.422 201.558C472.422 201.362 472.02 201.362 471.995 201.558Z" fill="#2E2766"/>
<path d="M380.614 144.16L384.005 201.034L384.508 209.04C384.508 209.04 387.899 225.489 407.642 228.53C427.385 231.57 457.351 208.602 459.586 204.315C460.792 202.127 461.772 181.74 462.475 162.403C463.153 143.919 463.53 126.332 463.53 126.332L454.286 128.322L380.614 144.16Z" fill="#FFD395"/>
<path d="M380.614 144.16L384.005 201.033C405.837 198.112 426.425 190.312 443.762 178.393C450.599 173.653 456.838 168.292 462.375 162.403C463.053 143.919 463.429 126.332 463.429 126.332L454.186 128.322L380.614 144.16Z" fill="#DBA89B"/>
<path d="M475.813 46.949C489.452 73.7673 477.421 140.878 453.985 163.672C437.96 179.268 403.045 184.059 376.972 174.937C365.069 171.053 355.314 163.363 349.694 153.434C332.111 120.491 348.061 41.4804 367.025 29.0556C400.508 7.0717 459.109 14.1591 475.813 46.949Z" fill="#FFD395"/>
<path d="M414.649 107.498C414.649 107.345 415.001 107.738 414.976 107.913C414.423 112.091 414.624 116.948 418.844 118.654C418.995 118.654 418.844 118.916 418.844 118.873C413.594 117.779 413.419 111.304 414.649 107.498Z" fill="#2E2766"/>
<path d="M419.397 103.342C427.184 103.342 426.531 116.926 419.397 116.904C412.264 116.882 412.866 103.32 419.397 103.342Z" fill="#2E2766"/>
<path d="M376.972 105.026C376.972 104.873 376.595 105.223 376.595 105.376C376.595 109.598 375.691 114.41 371.245 115.635C371.245 115.635 371.245 115.898 371.245 115.876C376.646 115.416 377.701 109.029 376.972 105.026Z" fill="#2E2766"/>
<path d="M372.877 100.476C365.141 99.6886 363.885 113.229 371.069 113.951C378.253 114.673 379.484 101.154 372.877 100.476Z" fill="#2E2766"/>
<path d="M407.968 145.319C406.763 146.26 405.457 147.506 403.799 147.638C402.043 147.529 400.333 147.104 398.775 146.391C398.741 146.376 398.702 146.372 398.665 146.378C398.627 146.385 398.593 146.401 398.568 146.426C398.542 146.451 398.526 146.482 398.523 146.515C398.52 146.548 398.529 146.581 398.549 146.61C399.199 147.434 400.087 148.094 401.123 148.524C402.159 148.954 403.308 149.139 404.452 149.06C405.454 148.884 406.371 148.447 407.08 147.806C407.789 147.165 408.257 146.351 408.421 145.472C408.521 145.275 408.144 145.166 407.968 145.319Z" fill="#DBA89B"/>
<path d="M425.827 97.3699C423.803 96.7682 421.815 96.0745 419.874 95.2918C417.665 94.8219 415.696 93.73 414.273 92.1857C413.942 91.6214 413.832 90.9786 413.958 90.3548C414.085 89.731 414.443 89.1603 414.976 88.7295C416.184 88.0215 417.587 87.6076 419.04 87.5307C420.493 87.4538 421.943 87.7166 423.24 88.292C426.076 89.1036 428.466 90.8028 429.947 93.0606C430.251 93.5927 430.371 94.1905 430.292 94.781C430.213 95.3715 429.939 95.9293 429.502 96.3862C429.065 96.8431 428.485 97.1794 427.833 97.3541C427.18 97.5288 426.483 97.5343 425.827 97.3699Z" fill="#2E2766"/>
<path d="M367.176 93.4325C369.286 93.1184 371.374 92.7022 373.431 92.1857C375.665 92.0377 377.786 91.2712 379.484 89.9982C379.924 89.4953 380.162 88.8805 380.162 88.2482C380.162 87.616 379.924 87.0012 379.484 86.4983C378.424 85.6254 377.115 85.0151 375.693 84.7305C374.271 84.4459 372.787 84.4974 371.396 84.8796C368.441 85.2615 365.755 86.587 363.86 88.5982C363.456 89.0834 363.224 89.6614 363.193 90.2604C363.162 90.8594 363.334 91.4531 363.687 91.9679C364.04 92.4827 364.559 92.8959 365.179 93.1562C365.799 93.4166 366.494 93.5127 367.176 93.4325Z" fill="#2E2766"/>
<path d="M391.014 135.672C391.014 135.672 394.932 144.422 402.593 142.781C408.396 141.622 405.607 131.429 405.607 131.429C405.607 131.429 398.047 136.285 391.014 135.672Z" fill="white"/>
<path d="M406.034 131.822C404.734 133.44 403.062 134.806 401.126 135.834C399.189 136.862 397.029 137.529 394.781 137.794C392.816 138.046 390.819 138.046 388.853 137.794C388.471 137.779 388.092 137.727 387.723 137.641L386.668 137.466C386.417 137.414 386.193 137.291 386.03 137.117C385.867 136.944 385.773 136.728 385.764 136.504C385.739 136.366 385.739 136.226 385.764 136.088V135.672C385.764 132.435 386.417 127.535 386.417 127.535C385.035 128.082 377.977 130.532 378.178 128.847C379.786 114.891 381.594 99.3824 386.593 85.7983C386.628 85.7103 386.698 85.6359 386.79 85.5886C386.882 85.5412 386.991 85.5238 387.096 85.5396C387.202 85.5553 387.297 85.6032 387.366 85.6746C387.435 85.746 387.472 85.8363 387.472 85.9295C386.517 99.4043 382.85 112.617 381.669 126.135C384.177 125.211 386.825 124.606 389.532 124.341C390.059 124.494 388.2 133.813 388.301 135.279C388.295 135.337 388.295 135.395 388.301 135.454C394.505 136.372 399.303 134.885 405.532 131.451C405.984 131.21 406.336 131.56 406.034 131.822Z" fill="#DBA89B"/>
<path d="M363.634 47.7803C347.207 70.5079 344.796 107.235 341.405 96.823C330.277 62.5237 349.995 42.6616 349.995 42.6616C349.995 42.6616 365.594 45.046 363.634 47.7803Z" fill="#2E2766"/>
<path d="M470.789 118.676C470.789 118.676 440.999 113.535 449.815 58.3238C432.513 64.6557 413.573 66.8166 394.982 64.5799C362.328 61.0363 344.745 49.0053 334.573 29.5806C331.207 23.2151 348.84 32.1837 356.601 29.2744C370.316 24.0682 383.804 8.38418 420.98 9.06229C458.155 9.7404 468.001 31.5931 468.001 31.5931C468.001 31.5931 488.096 36.9524 495.958 52.0896C503.82 67.2268 490.005 118.654 470.789 118.676Z" fill="#2E2766"/>
<path d="M460.34 116.795C460.34 116.795 475.411 94.5044 487.016 99.0543C498.621 103.604 488.372 135.169 475.763 140.31C474.199 141.054 472.479 141.515 470.705 141.665C468.932 141.815 467.142 141.651 465.443 141.183C463.744 140.715 462.172 139.953 460.82 138.942C459.468 137.931 458.365 136.692 457.577 135.3L460.34 116.795Z" fill="#FFD395"/>
<path d="M483.85 108.045C484.051 108.045 484.127 108.263 483.85 108.329C475.034 112.135 470.889 119.791 468.202 127.622C470.713 124.516 474.18 122.679 478.927 125.172C479.178 125.304 478.927 125.654 478.726 125.61C477.088 125.273 475.37 125.386 473.809 125.935C472.248 126.483 470.921 127.44 470.01 128.672C468.495 130.736 467.24 132.936 466.267 135.235C465.916 135.957 464.409 135.694 464.66 134.841C464.651 134.783 464.651 134.724 464.66 134.666C463.705 124.582 471.492 109.86 483.85 108.045Z" fill="#DBA89B"/>
<path d="M442.681 168.397C455.793 163.3 469.005 157.459 477.546 146.522C484.002 138.839 488.303 129.947 490.105 120.557C488.937 124.287 487.25 127.88 485.081 131.254C482.868 134.743 479.94 137.849 476.44 140.419C468.469 152.084 456.443 161.238 442.104 166.559C440.772 166.931 441.375 168.9 442.681 168.397Z" fill="white"/>
<path d="M456.422 124.472C458.758 121.935 466.042 108.832 472.548 103.932C473.537 103.063 474.576 102.238 475.662 101.46C477.402 100.153 479.452 99.1974 481.666 98.6605C479.859 98.0183 477.872 97.8658 475.964 98.223C465.916 99.8855 459.16 117.341 455.492 123.948C455.291 124.341 456.02 124.997 456.422 124.472Z" fill="white"/>
<path d="M458.632 121.519C460.315 118.26 433.313 129.547 405.155 124.494C399.403 123.466 383.352 117.932 374.41 117.932C365.468 117.932 355.019 124.232 342.686 125.391C338.441 125.785 342.108 157.612 352.884 171.547C356.451 176.118 371.547 185.503 380.79 186.334C402.493 188.259 439.668 174.784 445.319 168.484C449.816 163.344 442.632 152.384 458.632 121.519Z" fill="white"/>
<path d="M345.624 132.26C353.473 129.293 361.644 127.021 370.014 125.479C377.248 124.232 383.804 126.551 390.662 128.672C409.048 134.36 427.586 133.725 446.123 129.11C446.324 129.11 446.424 129.394 446.123 129.482C431.484 134.947 415.202 136.122 399.729 132.829C391.365 131.122 382.925 127.185 374.209 127.644C364.664 128.169 355.395 132.019 345.951 133.55C345.172 133.747 344.846 132.566 345.624 132.26Z" fill="#BDBFE1"/>
<path d="M359.39 169.075C365.242 171.525 370.994 175.134 376.972 176.862C384.257 178.918 392.847 176.862 400.031 175.353C413.62 172.575 426.682 167.719 439.969 163.716C439.969 163.716 440.12 163.847 439.969 163.891C425.463 170.394 409.995 175.119 394.003 177.934C388.678 178.743 382.825 179.925 377.525 178.546C371.145 176.862 364.765 172.728 359.113 169.403C359.038 169.315 359.138 169.009 359.39 169.075Z" fill="#BDBFE1"/>
<path d="M350.271 142.978C364.086 139.435 376.972 140.31 391.013 141.95C406.879 143.734 422.961 143.469 438.738 141.163C438.889 141.163 438.939 141.382 438.738 141.403C424.706 143.975 410.3 144.632 396.037 143.35C389.154 142.716 382.272 141.578 375.364 141.163C366.888 140.884 358.414 141.755 350.246 143.744C349.97 143.853 349.769 143.11 350.271 142.978Z" fill="#BDBFE1"/>
<path d="M353.512 155.184C365.768 161.34 379.914 164.037 394.003 162.906C408.37 161.747 422.185 157.022 435.9 152.909C436.101 152.909 436.151 153.128 435.9 153.194C408.27 163.322 380.464 170.168 353.009 155.906C352.607 155.622 352.984 154.922 353.512 155.184Z" fill="#BDBFE1"/>
</g>
</g>
<defs>
<clipPath id="clip0_140_8456">
<rect width="295.697" height="665.267" fill="white" transform="translate(24.082 78.0793)"/>
</clipPath>
<clipPath id="clip1_140_8456">
<rect width="326.137" height="675.137" fill="white" transform="translate(263.939 9.06229)"/>
</clipPath>
</defs>
</svg>
