<svg width="333" height="477" viewBox="0 0 333 477" fill="none" xmlns="http://www.w3.org/2000/svg">
<mask id="mask0_874_274" style="mask-type:alpha" maskUnits="userSpaceOnUse" x="0" y="0" width="333" height="477">
<rect width="333" height="477" fill="#D9D9D9"/>
</mask>
<g mask="url(#mask0_874_274)">
<mask id="mask1_874_274" style="mask-type:alpha" maskUnits="userSpaceOnUse" x="12" y="1" width="333" height="477">
<rect x="12" y="1" width="332.444" height="476.203" fill="#C4C4C4"/>
</mask>
<g mask="url(#mask1_874_274)">
<mask id="mask2_874_274" style="mask-type:alpha" maskUnits="userSpaceOnUse" x="12" y="20" width="322" height="477">
<rect width="321.569" height="475.305" transform="matrix(-1 0 0 1 333.569 20.7669)" fill="#C4C4C4"/>
</mask>
<g mask="url(#mask2_874_274)">
<g clip-path="url(#clip0_874_274)">
<path d="M257.868 436.866C257.868 436.866 242.223 609.113 239.985 611.511H171.873V436.866H257.868Z" fill="#434B95"/>
<path d="M79.2061 436.866H201.495C201.495 436.866 171.936 508.975 168.664 513.772C165.391 518.57 149.387 611.511 149.387 611.511H79.2061C79.2061 611.511 79.0794 533.169 79.2061 528.145C79.3328 523.121 72.112 455.186 79.2061 436.866Z" fill="#434B95"/>
<path d="M167.418 184.671C182.979 185.257 195.225 192.679 202.614 197.892C210.004 203.105 247.206 234.457 250.267 243.9C253.329 253.344 257.362 449.086 253.287 455.054C249.212 461.022 206.077 474.885 187.033 475.829C167.988 476.773 85.3502 463.081 78.8261 457.679C72.302 452.277 56.8259 263.561 60.2462 252.003C63.6666 240.444 116.408 203.237 126.944 192.339C131.525 187.504 160.62 184.426 167.418 184.671Z" fill="#BDBFE1"/>
<path d="M198.666 225.637C198.814 228.319 195.393 240.576 193.873 242.106C192.353 243.636 180.487 244.372 179.094 243.485C177.7 242.597 171.007 230.132 170.648 227.752C170.29 225.372 180.15 214.928 184.267 214.324C188.384 213.719 198.582 224.031 198.666 225.637Z" fill="#2E2766"/>
<path d="M193.873 242.106C193.873 242.106 213.15 368.552 214.269 377.07C215.388 385.588 193.62 436.752 189.946 437.904C186.272 439.057 165.729 386.91 164.462 381.244C163.195 375.578 177.743 247.602 178.925 243.069C179.242 241.804 193.704 240.916 193.873 242.106Z" fill="#2E2766"/>
<path d="M218.259 571.66C220.202 576.835 271.529 563.086 272.563 556.778C273.598 550.469 255.419 405.098 255.398 393.691C255.377 382.283 257.34 256.328 251.302 241.804C248.262 234.457 229.555 217.459 218.766 208.204C214.184 204.238 211.017 201.651 211.017 201.651C212.791 207.77 219.463 290.097 217.753 346.115C217.225 364.02 216.887 393.068 216.718 424.438C216.718 424.741 216.718 424.986 216.718 425.232C216.38 491.656 216.887 568.204 218.259 571.66Z" fill="white"/>
<path d="M243.131 285.697C243.553 279.917 221.236 256.384 221.236 256.384C221.236 256.384 241.062 259.18 241.083 255.308C241.083 251.946 223.031 216.514 218.766 208.204C214.184 204.238 207.766 199.668 207.766 199.668C209.539 205.806 219.442 290.097 217.753 346.115C217.225 364.02 216.887 393.068 216.718 424.438C217.605 406.59 242.709 291.4 243.131 285.697Z" fill="white"/>
<path d="M242.73 283.997C236.248 274.327 219.885 255.855 219.991 255.931C220.096 256.007 238.993 256.592 240.281 255.213C241.252 254.25 224.319 220.405 219.167 211.245C219.149 211.203 219.149 211.157 219.165 211.115C219.182 211.073 219.214 211.037 219.257 211.015C219.3 210.992 219.351 210.984 219.4 210.992C219.449 210.999 219.494 211.022 219.526 211.056C228.774 223.181 244.862 255.837 241.526 256.8C238.191 257.763 228.183 257.706 223.601 257.706C231.603 265.072 244.419 283.052 244.862 284.337C245.306 285.621 237.219 328.89 232.87 349.666C228.225 372.065 224.425 397.638 218.534 419.811C218.534 420.245 217.753 420.057 217.816 419.66C220.814 397.336 237.789 308.606 242.73 283.997Z" fill="#2E2766"/>
<path d="M51.8007 557.25C92.5708 585.58 147.17 578.384 149.092 574.455C150.232 572.114 153.314 499.834 154.433 428.593V427.63C155.109 379.167 154.877 331.308 152.322 306.396C148.223 267.732 139.907 229.518 127.493 192.302C125.573 193.191 123.798 194.309 122.214 195.626C106.632 206.844 62.8431 242.843 63.2865 249.642C63.8565 257.631 66.0101 362.414 62.5264 408.026C59.0427 453.637 46.1001 553.265 51.8007 557.25Z" fill="white"/>
<path d="M73.8221 468.274C74.0332 467.632 75.7434 467.538 76.0602 467.595C95.0623 470.616 113.727 474.299 133.067 475.697C133.257 475.697 133.278 475.961 133.067 475.961C113.748 476.207 94.45 473.128 75.7012 469.162C74.4977 472.939 73.5899 476.717 72.6609 480.626C90.1851 484.838 107.35 486.292 125.445 487.426C125.472 487.435 125.495 487.452 125.512 487.474C125.529 487.496 125.537 487.522 125.537 487.548C125.537 487.575 125.529 487.601 125.512 487.622C125.495 487.644 125.472 487.661 125.445 487.671C107.92 489.295 89.1716 486.425 72.4286 481.854C70.8228 489.482 70.017 497.228 70.0217 504.99C70.0217 509.221 69.0294 519.061 72.3653 522.498C76.398 526.672 85.8779 528.636 91.6419 529.618C98.969 530.903 106.505 530.903 113.832 529.618C118.245 528.825 121.665 528.183 124.283 523.858C125.825 521.289 131.124 490.485 132.328 478.36C132.328 478.039 132.94 478.001 132.919 478.36C132.708 492.393 130.322 514.622 126.31 524.311C122.299 534 103.993 532.924 94.9567 531.866C87.5881 530.997 77.8759 529.656 71.7319 525.822C67.6781 523.31 67.8892 520.647 67.6781 516.19C66.7533 500.024 68.8294 483.833 73.8221 468.274Z" fill="#2E2766"/>
<path d="M94.1754 314.688C101.312 314.14 130.976 315.632 138.514 316.387C138.936 316.387 138.852 317.048 138.514 317.048C130.913 317.275 97.5536 315.67 96.2868 316.142C95.0199 316.614 95.5267 322.091 96.2868 322.412C98.0392 323.168 130.871 323.432 138.725 323.583C140.076 323.583 140.139 325.472 138.725 325.472C123.945 325.17 109.166 324.641 94.5132 323.98C94.2383 323.98 93.9736 323.887 93.7734 323.718C93.5732 323.55 93.4526 323.319 93.4364 323.073C93.3375 320.262 93.5853 317.45 94.1754 314.688Z" fill="#2E2766"/>
<path d="M132.623 250.643C132.961 251.342 111.679 269.775 110.496 272.457C109.314 275.139 139.147 347.003 145.439 368.779C151.731 390.556 154.433 428.631 154.433 428.631V427.668C155.109 379.205 154.877 331.346 152.322 306.434C148.158 267.226 140.498 228.378 129.414 190.262C128.97 190.262 125.191 193.529 122.256 195.626C121.855 197.118 107.625 244.316 107.477 245.846C107.329 247.375 132.327 249.944 132.623 250.643Z" fill="white"/>
<path d="M121.496 197.08C121.623 196.627 121.982 196.74 121.877 197.212C118.512 213.627 114.056 229.848 108.533 245.789C116.978 247.073 133.024 250.019 133.32 250.341C133.869 250.945 126.986 258.462 123.291 261.786C119.464 265.666 115.344 269.307 110.961 272.684C122.742 296.349 147.572 369.006 149.979 381.282C152.29 393.977 153.813 406.777 154.539 419.622C154.539 419.773 154.286 419.792 154.265 419.622C152.407 406.137 150.76 392.595 147.614 379.28C144.764 367.287 118.393 296.802 109.082 273.042C108.828 272.4 128.591 253.986 132.159 250.851C124.093 249.736 106.464 247.281 106.675 246.62C111.911 230.214 116.852 213.7 121.496 197.08Z" fill="#2E2766"/>
<path d="M99.0315 382.094C99.1582 385.362 99.7705 387.647 100.383 387.911C102.262 388.818 110.222 392.255 120.99 396.146C122.932 396.845 124.938 397.563 127.049 398.28C132.94 400.282 154.497 410.103 178.46 420.453C210.637 434.297 247.438 449.067 258.1 447.461C276.659 444.628 302.671 424.646 304.656 413.182C306.64 401.718 267.602 265.45 262.64 256.177C257.678 246.903 252.083 239.065 246.741 234.362L254.828 384.304C254.276 384.035 253.696 383.813 253.097 383.643C247.1 381.754 227.169 376.806 204.303 371.461C165.835 362.452 119.047 352.197 116.007 353.047C114.939 353.357 113.896 353.73 112.882 354.161C100.932 359.487 98.6092 373.897 99.0315 382.094Z" fill="white"/>
<path d="M120.969 396.146C122.911 396.845 124.917 397.563 127.028 398.28C132.919 400.282 154.476 410.103 178.439 420.453L194.866 411.879C208.019 405.042 221.532 398.564 234.369 391.33C235.404 390.757 236.399 390.126 237.346 389.441L239.605 389.536C243.828 389.668 252.632 389.385 253.16 384.72C253.167 384.613 253.167 384.505 253.16 384.399C253.174 384.317 253.174 384.234 253.16 384.153C253.16 384.002 253.16 383.832 253.16 383.643C247.164 381.754 227.233 376.806 204.367 371.461C183.649 370.464 162.998 374.311 144.447 382.623C136.042 386.271 128.159 390.811 120.969 396.146Z" fill="#BDBFE1"/>
<path d="M97.8703 382.189C97.8703 383.643 98.1659 385.154 98.4403 386.74C98.2925 387.099 98.9048 387.628 99.3693 387.855C121.771 399.451 189.798 426.724 206.626 433.391C216.507 437.338 250.246 451.786 260.655 447.253C260.866 447.14 260.909 446.951 260.655 446.989H260.381C250.88 448.292 214.543 434.826 178.883 420.208C172.908 417.771 166.932 415.297 161.126 412.88C160.938 412.777 160.74 412.688 160.535 412.615C148.353 407.497 136.825 402.511 127.176 398.299H127.049L121.433 395.844C108.427 390.178 100.003 386.4 100.003 386.4C99.4327 379.148 99.5593 359.846 116.577 353.84C142.314 359.978 171.345 365.474 197.273 371.499C198.18 371.688 199.067 371.895 199.975 372.122C213.544 375.308 227.134 378.556 240.745 381.868C244.928 382.761 248.961 384.146 252.738 385.985C255.119 387.177 257.325 388.63 259.304 390.31C264.076 394.333 268.636 398.488 273.619 402.322C273.914 402.567 274.273 402.209 274.02 401.944C268.615 396.07 262.957 389.422 255.799 384.946C256.517 366.702 256.918 348.381 257.425 330.175C258.341 328.82 258.977 327.33 259.304 325.774C259.877 323.775 260.294 321.743 260.55 319.693C260.569 319.617 260.555 319.538 260.509 319.473C260.464 319.407 260.391 319.361 260.307 319.343C260.223 319.326 260.134 319.339 260.061 319.379C259.988 319.42 259.936 319.485 259.916 319.56C259.409 321.449 258.776 323.338 258.058 325.132C257.889 325.547 257.699 325.944 257.509 326.378C257.72 318.824 257.91 311.137 258.206 303.526C258.206 303.526 258.079 303.526 258.058 303.526C254.659 324.301 253.941 345.7 253.836 366.966C253.836 372.632 253.836 378.298 253.836 383.964C251.894 382.852 249.819 381.94 247.649 381.244C234.073 377.335 219.991 374.521 206.225 371.291C190.136 367.514 172.908 363.906 155.742 360.45C155.383 360.45 155.003 360.28 154.581 360.223C143.771 358.051 133.024 355.898 122.636 353.783L116.577 352.555C114.987 352.887 113.463 353.435 112.059 354.18C106.189 357.013 96.4557 364.53 97.8703 382.189Z" fill="#2E2766"/>
<path d="M210.912 363.85C215.882 367.285 220.165 371.448 223.58 376.164C226.303 379.519 228.439 383.225 229.914 387.156C231.686 387.219 233.46 387.08 235.192 386.74C236.947 386.507 238.6 385.858 239.98 384.862C241.361 383.866 242.42 382.559 243.047 381.074L253.139 383.662C257.361 382.113 252.062 376.315 252.062 376.315C252.189 373.973 247.417 371.102 247.417 371.102C246.826 368.722 240.703 366.569 240.703 366.569C240.703 366.569 238.782 364.303 231.709 363.113C227.296 362.358 217.563 363.151 210.912 363.85Z" fill="#FDD7BC"/>
<path d="M30.5184 407.119C30.5184 414.391 56.678 449.747 74.0544 447.745C102.558 444.515 223.2 391.708 229.006 390.518C230.21 390.235 230.4 389.007 229.893 387.156C228.418 383.225 226.282 379.519 223.559 376.164C220.145 371.448 215.861 367.285 210.891 363.85C209.828 363.174 208.662 362.64 207.428 362.263C199.701 360.167 127.83 371.404 97.7859 376.579C89.9739 377.92 85.1178 378.846 84.6744 379.016C84.231 379.186 83.7455 369.572 83.2176 355.275C81.5919 313.517 79.6494 230.623 79.6494 230.623C70.634 238.876 52.3919 254.855 49.0349 260.464C45.6778 266.073 30.5817 399.848 30.5184 407.119Z" fill="white"/>
<path d="M64.4266 388.157C69.8577 384.629 75.7061 381.646 81.8663 379.261C77.6436 378.336 71.3095 380.225 68.0158 380.527C67.3613 380.527 67.298 379.752 67.8258 379.563C71.4895 378.371 75.3499 377.732 79.2482 377.675C80.4649 377.623 81.6768 377.844 82.7742 378.317C80.7182 354.642 81.0503 330.849 83.7665 307.227C83.7665 306.812 84.5688 306.906 84.5688 307.227C84.5688 313.498 84.5688 319.768 84.5688 326.114C85.2867 323.489 86.1523 320.882 86.8702 318.408C86.8612 318.388 86.8579 318.366 86.8605 318.345C86.8631 318.324 86.8715 318.303 86.885 318.285C86.8986 318.267 86.9168 318.253 86.9381 318.242C86.9595 318.232 86.9833 318.227 87.0074 318.227C87.0316 318.227 87.0553 318.232 87.0767 318.242C87.098 318.253 87.1162 318.267 87.1298 318.285C87.1433 318.303 87.1518 318.324 87.1544 318.345C87.1569 318.366 87.1536 318.388 87.1447 318.408C85.899 324.074 85.8989 329.986 84.5266 335.576C84.5266 349.817 84.3788 364.057 84.5266 378.298C99.6649 373.369 187.075 359.789 207.196 361.867C208.533 362.078 209.785 362.599 210.827 363.378C211.292 363.699 211.229 364.133 210.975 364.02C209.594 363.269 208.043 362.805 206.436 362.66C185.027 362.565 99.4116 375.692 84.2943 380.659C84.2221 380.722 84.1362 380.772 84.0418 380.804C83.9473 380.837 83.8465 380.852 83.7454 380.848C77.1268 383.04 70.6979 385.666 64.511 388.705C63.6243 389.158 63.6242 388.648 64.4266 388.157Z" fill="#2E2766"/>
<path d="M59.5495 442.777C62.8871 444.956 66.7233 446.446 70.7818 447.14C76.757 448.047 93.0354 442.343 102.959 439.038C118.182 433.995 132.877 427.857 147.529 421.662C160.789 415.996 174.069 410.538 187.497 405.287C194.535 402.555 201.573 399.873 208.611 397.241C212.939 395.636 226.726 391.273 229.26 389.687C230.041 389.196 229.534 387.704 229.576 386.929C229.576 386.665 230.083 386.552 230.146 386.929C230.506 388.03 230.718 389.165 230.78 390.31C230.785 390.428 230.747 390.544 230.67 390.639C230.594 390.735 230.484 390.805 230.358 390.839C197.378 403.172 165.159 416.77 132.708 430.123C118.714 436.077 104.298 441.2 89.5517 445.459C83.7878 447.046 76.7359 449.482 70.4018 448.859C68.1693 448.662 66.0057 448.057 64.0446 447.083C62.0836 446.108 60.3669 444.784 59.0005 443.193C58.7472 442.834 59.2117 442.57 59.5495 442.777Z" fill="#2E2766"/>
<path d="M59.4228 375.616C59.4228 375.616 58.0927 378.336 59.085 379.563C60.3967 380.76 61.8806 381.796 63.4977 382.642C63.4977 382.642 81.3175 379.752 84.6112 379.016C84.949 378.846 89.9106 377.92 97.7226 376.579C98.5038 362.905 106.78 356.692 111.911 354.18C108.11 354.18 92.5921 354.52 83.1543 355.275C80.9533 355.375 78.7684 355.666 76.6303 356.144C71.0985 357.674 57.5226 371.253 57.6281 372.915C57.8287 373.984 58.4688 374.948 59.4228 375.616Z" fill="#FDD7BC"/>
<path d="M126.606 197.212C129.773 180.611 160.028 179.95 174.174 180.762C192.205 181.782 207.09 185.994 211.524 202.746C215.958 219.499 215.325 237.441 214.142 254.326C214.151 254.942 214.417 255.532 214.887 255.982C215.358 256.432 215.999 256.709 216.685 256.759C217.372 256.809 218.054 256.627 218.599 256.251C219.144 255.874 219.512 255.329 219.632 254.722C220.983 235.25 225.649 198.723 207.09 184.615C188.532 170.506 126.521 168.712 121.116 196.816C120.525 199.932 125.994 200.291 126.606 197.212Z" fill="#2E2766"/>
<path d="M228.647 264.676C228.463 266.914 227.54 269.054 225.995 270.823C224.45 272.592 222.353 273.91 219.968 274.611C217.584 275.312 215.021 275.364 212.604 274.76C210.187 274.155 208.026 272.923 206.393 271.218C204.76 269.513 203.73 267.413 203.434 265.184C203.137 262.955 203.588 260.697 204.728 258.697C205.868 256.698 207.646 255.046 209.837 253.951C212.029 252.857 214.534 252.369 217.035 252.55C220.368 252.792 223.458 254.202 225.634 256.473C227.809 258.744 228.892 261.693 228.647 264.676Z" fill="#778BFD"/>
<path d="M223.664 264.317C223.547 265.657 222.988 266.937 222.058 267.993C221.128 269.049 219.869 269.835 218.44 270.252C217.01 270.668 215.475 270.696 214.028 270.331C212.581 269.967 211.287 269.228 210.31 268.206C209.333 267.184 208.717 265.926 208.539 264.591C208.361 263.255 208.63 261.903 209.311 260.705C209.993 259.506 211.056 258.515 212.367 257.857C213.678 257.199 215.177 256.903 216.676 257.008C217.671 257.077 218.642 257.321 219.532 257.726C220.422 258.13 221.214 258.688 221.863 259.367C222.512 260.046 223.005 260.832 223.314 261.682C223.623 262.531 223.742 263.426 223.664 264.317Z" fill="#E4EEF8"/>
<path d="M131.251 252.343C132.285 301.108 127.176 311.855 121.475 316.199C117.265 319.178 112.346 321.252 107.097 322.261L106.358 318.899L106.738 320.58L106.358 318.899C110.977 318.015 115.31 316.2 119.026 313.592C123.249 310.457 128.506 300.693 127.472 252.418L131.251 252.343Z" fill="#BDBFE1"/>
<path d="M114.216 317.389L115.117 320.363C115.453 321.474 114.719 322.619 113.476 322.92L105.247 324.914C104.004 325.215 102.724 324.558 102.388 323.447L101.488 320.473C101.151 319.362 101.886 318.216 103.128 317.915L111.357 315.922C112.6 315.621 113.88 316.278 114.216 317.389Z" fill="#778BFD"/>
<path d="M97.4905 246.223C77.9394 278.557 70.3597 296.915 73.6111 304.036C75.5568 307.861 78.4439 311.245 82.0565 313.932L79.6918 316.633C75.5385 313.57 72.2296 309.692 70.0219 305.301C66.137 296.821 73.1255 279.218 94.0912 244.542L97.4905 246.223Z" fill="#BDBFE1"/>
<path d="M87.5109 318.535L85.1667 320.815C84.2904 321.667 82.8078 321.723 81.8552 320.939L75.5464 315.747C74.5938 314.964 74.5319 313.637 75.4082 312.785L77.7524 310.506C78.6286 309.653 80.1112 309.598 81.0638 310.382L87.3727 315.573C88.3253 316.357 88.3872 317.683 87.5109 318.535Z" fill="#778BFD"/>
<path d="M151.182 169.411C146.072 171.3 128.527 192.188 129.182 195.191C129.836 198.194 127.64 236.119 166.405 250.888L185.407 218.781L204.409 245.033C204.409 245.033 215.346 224.107 214.966 218.894C214.586 213.681 210.046 187.693 187.518 174.756C170.543 165.143 161.844 165.35 151.182 169.411Z" fill="#BDBFE1"/>
<path d="M129.773 194.795C131.757 215.57 141.808 242.54 165.919 249.68C172.57 239.5 179.305 229.527 184.921 218.875C184.966 218.8 185.03 218.735 185.108 218.686C185.186 218.636 185.275 218.604 185.37 218.591C185.464 218.578 185.56 218.585 185.651 218.612C185.742 218.638 185.825 218.683 185.892 218.743C186.061 218.743 199.468 236.119 204.599 244.599C207.542 238.691 209.936 232.576 211.756 226.317C214.691 217.78 213.424 211.207 210.447 202.822C210.447 202.614 210.764 202.463 210.849 202.67C214.311 209.507 216.591 216.307 214.332 223.71C212.369 231.344 209.437 238.752 205.591 245.789C205.536 245.882 205.449 245.958 205.343 246.006C205.237 246.053 205.117 246.07 205 246.053C204.917 246.087 204.823 246.094 204.735 246.073C204.647 246.052 204.569 246.005 204.515 245.94C197.864 237.819 192.417 228.942 185.745 220.764C180.023 231.378 173.562 241.539 167.101 250.983C166.806 251.417 165.687 251.191 165.581 251.153C140.498 244.051 128.802 216.59 129.414 194.795C129.414 194.625 129.752 194.625 129.773 194.795Z" fill="#2E2766"/>
<path d="M206.584 145.236L203.733 194.341L203.311 201.254C203.311 201.254 200.461 215.457 183.866 218.082C167.27 220.707 142.082 200.876 140.203 197.174C139.19 195.286 138.366 177.683 137.775 160.988C137.205 145.028 136.888 129.843 136.888 129.843L144.658 131.562L206.584 145.236Z" fill="#FDD7BC"/>
<path d="M206.584 145.236L203.733 194.341C185.383 191.819 168.077 185.084 153.504 174.794C147.757 170.701 142.513 166.072 137.859 160.988C137.289 145.028 136.973 129.843 136.973 129.843L144.742 131.562L206.584 145.236Z" fill="#DBA89B"/>
<path d="M126.564 61.3034C115.099 84.4585 125.212 142.403 144.911 162.083C158.382 175.549 187.729 179.685 209.645 171.81C219.65 168.456 227.85 161.816 232.574 153.244C247.354 124.801 233.947 56.5818 218.006 45.8541C189.862 26.873 140.604 32.9922 126.564 61.3034Z" fill="#FDD7BC"/>
<path d="M177.975 113.582C177.975 113.45 177.679 113.79 177.7 113.941C178.165 117.548 177.996 121.741 174.449 123.214C174.322 123.214 174.449 123.441 174.449 123.403C178.862 122.459 179.01 116.868 177.975 113.582Z" fill="#2E2766"/>
<path d="M173.984 109.993C167.439 109.993 167.988 121.722 173.984 121.703C179.981 121.684 179.474 109.975 173.984 109.993Z" fill="#2E2766"/>
<path d="M209.645 111.448C209.645 111.315 209.962 111.618 209.962 111.75C209.962 115.395 210.722 119.55 214.459 120.608C214.459 120.608 214.459 120.834 214.459 120.815C209.92 120.419 209.033 114.904 209.645 111.448Z" fill="#2E2766"/>
<path d="M213.087 107.519C219.59 106.839 220.645 118.53 214.607 119.153C208.568 119.777 207.534 108.105 213.087 107.519Z" fill="#2E2766"/>
<path d="M183.591 146.237C184.605 147.049 185.702 148.126 187.096 148.239C188.572 148.145 190.009 147.778 191.319 147.162C191.347 147.15 191.38 147.146 191.412 147.152C191.443 147.157 191.472 147.172 191.493 147.193C191.515 147.214 191.528 147.241 191.53 147.27C191.533 147.298 191.526 147.327 191.509 147.351C190.962 148.063 190.216 148.633 189.345 149.004C188.474 149.376 187.509 149.535 186.547 149.467C185.705 149.315 184.934 148.938 184.338 148.384C183.742 147.831 183.349 147.128 183.211 146.369C183.127 146.199 183.443 146.105 183.591 146.237Z" fill="#DBA89B"/>
<path d="M168.579 104.837C170.281 104.318 171.952 103.719 173.583 103.043C175.44 102.637 177.095 101.695 178.292 100.361C178.57 99.874 178.662 99.319 178.556 98.7804C178.449 98.2418 178.149 97.7491 177.7 97.3771C176.685 96.7658 175.506 96.4085 174.285 96.3421C173.063 96.2756 171.844 96.5026 170.754 96.9994C168.37 97.7001 166.361 99.1672 165.117 101.117C164.861 101.576 164.76 102.092 164.826 102.602C164.893 103.112 165.123 103.593 165.491 103.988C165.858 104.382 166.345 104.673 166.894 104.824C167.442 104.974 168.028 104.979 168.579 104.837Z" fill="#2E2766"/>
<path d="M217.879 101.438C216.106 101.167 214.351 100.807 212.622 100.361C210.744 100.233 208.961 99.5716 207.534 98.4725C207.164 98.0383 206.964 97.5074 206.964 96.9615C206.964 96.4156 207.164 95.8848 207.534 95.4506C208.425 94.697 209.525 94.17 210.721 93.9243C211.916 93.6786 213.163 93.723 214.332 94.053C216.816 94.3828 219.074 95.5272 220.666 97.2637C221.007 97.6827 221.202 98.1817 221.228 98.6989C221.253 99.2161 221.109 99.7287 220.812 100.173C220.515 100.618 220.079 100.974 219.558 101.199C219.037 101.424 218.453 101.507 217.879 101.438Z" fill="#2E2766"/>
<path d="M197.843 137.908C197.843 137.908 194.549 145.463 188.109 144.046C183.232 143.045 185.576 134.244 185.576 134.244C185.576 134.244 191.931 138.437 197.843 137.908Z" fill="white"/>
<path d="M185.217 134.584C186.31 135.981 187.715 137.16 189.343 138.048C190.971 138.935 192.787 139.511 194.676 139.74C196.328 139.957 198.006 139.957 199.658 139.74C199.98 139.727 200.298 139.682 200.609 139.608L201.495 139.457C201.706 139.411 201.895 139.306 202.032 139.156C202.169 139.006 202.248 138.819 202.255 138.626C202.276 138.507 202.276 138.386 202.255 138.267V137.908C202.255 135.113 201.707 130.882 201.707 130.882C202.868 131.354 208.801 133.47 208.632 132.015C207.28 119.966 205.76 106.575 201.559 94.8463C201.529 94.7702 201.47 94.7061 201.393 94.6652C201.315 94.6243 201.224 94.6093 201.136 94.6229C201.047 94.6365 200.966 94.6778 200.909 94.7394C200.851 94.8011 200.819 94.8791 200.82 94.9596C201.622 106.594 204.705 118.001 205.697 129.673C203.589 128.875 201.363 128.354 199.088 128.125C198.645 128.257 200.207 136.303 200.123 137.568C200.128 137.618 200.128 137.669 200.123 137.719C194.908 138.512 190.875 137.228 185.639 134.263C185.259 134.055 184.964 134.357 185.217 134.584Z" fill="#DBA89B"/>
<path d="M220.856 62.0211C234.665 81.6444 236.691 113.355 239.542 104.365C248.895 74.7508 232.321 57.6017 232.321 57.6017C232.321 57.6017 219.209 59.6603 220.856 62.0211Z" fill="#2E2766"/>
<path d="M130.786 123.233C130.786 123.233 155.827 118.795 148.416 71.1248C162.96 76.5917 178.88 78.4575 194.507 76.5263C221.954 73.4667 236.734 63.079 245.285 46.3076C248.114 40.8116 233.292 48.5551 226.768 46.0432C215.24 41.5482 203.902 28.0064 172.654 28.5919C141.406 29.1774 133.13 48.0452 133.13 48.0452C133.13 48.0452 116.239 52.6724 109.631 65.742C103.022 78.8116 114.634 123.214 130.786 123.233Z" fill="#2E2766"/>
<path d="M139.57 121.609C139.57 121.609 126.902 102.363 117.147 106.292C107.393 110.22 116.007 137.474 126.606 141.912C127.92 142.554 129.366 142.952 130.857 143.082C132.348 143.211 133.852 143.07 135.28 142.666C136.708 142.262 138.03 141.604 139.166 140.731C140.303 139.858 141.23 138.789 141.892 137.587L139.57 121.609Z" fill="#FDD7BC"/>
<path d="M119.807 114.054C119.638 114.054 119.575 114.243 119.807 114.3C127.218 117.586 130.702 124.196 132.961 130.958C130.85 128.276 127.936 126.689 123.945 128.842C123.734 128.956 123.945 129.258 124.114 129.22C125.491 128.929 126.935 129.027 128.247 129.5C129.559 129.974 130.675 130.8 131.441 131.864C132.715 133.646 133.769 135.546 134.587 137.53C134.882 138.153 136.149 137.927 135.938 137.19C135.945 137.14 135.945 137.089 135.938 137.039C136.74 128.332 130.195 115.622 119.807 114.054Z" fill="#DBA89B"/>
<path d="M154.412 166.162C143.391 161.762 132.285 156.719 125.107 147.276C119.68 140.642 116.064 132.965 114.55 124.857C115.532 128.078 116.95 131.18 118.773 134.093C120.633 137.106 123.094 139.788 126.036 142.006C132.736 152.078 142.844 159.982 154.898 164.576C156.017 164.897 155.51 166.597 154.412 166.162Z" fill="white"/>
<path d="M142.863 128.238C140.9 126.047 134.777 114.734 129.308 110.503C128.477 109.752 127.603 109.04 126.69 108.369C125.228 107.241 123.505 106.415 121.644 105.952C123.163 105.397 124.833 105.265 126.437 105.574C134.882 107.009 140.562 122.081 143.644 127.785C143.813 128.125 143.201 128.691 142.863 128.238Z" fill="white"/>
<path d="M141.005 125.688C139.591 122.874 162.288 132.62 185.956 128.257C190.791 127.369 204.282 122.591 211.799 122.591C219.315 122.591 228.098 128.03 238.465 129.031C242.033 129.371 238.951 156.851 229.893 168.882C226.895 172.829 214.206 180.932 206.436 181.65C188.194 183.312 156.946 171.677 152.195 166.238C148.416 161.8 154.454 152.337 141.005 125.688Z" fill="white"/>
<path d="M235.995 134.962C229.398 132.4 222.53 130.438 215.494 129.107C209.413 128.03 203.902 130.032 198.138 131.864C182.683 136.775 167.102 136.227 151.52 132.242C151.351 132.242 151.266 132.487 151.52 132.563C163.825 137.282 177.511 138.296 190.516 135.453C197.547 133.98 204.641 130.58 211.968 130.977C219.991 131.43 227.782 134.754 235.72 136.076C236.375 136.246 236.649 135.226 235.995 134.962Z" fill="#BDBFE1"/>
<path d="M224.425 166.748C219.505 168.863 214.67 171.98 209.645 173.472C203.522 175.247 196.302 173.472 190.263 172.168C178.841 169.77 167.862 165.577 156.693 162.121C156.693 162.121 156.566 162.234 156.693 162.272C168.886 167.887 181.888 171.967 195.33 174.397C199.806 175.096 204.726 176.116 209.181 174.926C214.544 173.472 219.906 169.902 224.657 167.031C224.72 166.956 224.636 166.691 224.425 166.748Z" fill="#BDBFE1"/>
<path d="M232.089 144.216C220.476 141.156 209.645 141.912 197.843 143.328C184.506 144.869 170.989 144.64 157.727 142.649C157.601 142.649 157.558 142.837 157.727 142.856C169.522 145.076 181.631 145.644 193.62 144.537C199.405 143.989 205.19 143.007 210.996 142.649C218.121 142.408 225.244 143.159 232.11 144.877C232.342 144.972 232.511 144.329 232.089 144.216Z" fill="#BDBFE1"/>
<path d="M229.365 154.755C219.063 160.069 207.173 162.398 195.33 161.422C183.253 160.421 171.641 156.341 160.113 152.791C159.944 152.791 159.902 152.98 160.113 153.036C183.338 161.781 206.71 167.692 229.787 155.378C230.125 155.133 229.808 154.528 229.365 154.755Z" fill="#BDBFE1"/>
<path d="M123 194L59.45 248.169C54.9722 252.05 46.0167 263.255 46.0167 277.025C46.0167 290.795 40.1611 334.063 37.2333 353.975L30 407.638C34.9944 415.569 41.78 427.685 53.7667 437" stroke="#2E2766" stroke-width="2"/>
<path d="M220 209C229 213.333 250.3 229.8 263.5 261C276.7 292.2 287.333 334 291 351L304.5 408.5C304.5 415.5 300.5 431.1 284.5 437.5C268.5 443.9 263.5 445.833 263 446" stroke="#2E2766" stroke-width="2"/>
<path d="M93.2465 242.861C96.9776 235.59 101.208 228.531 105.915 221.727C108.423 218.803 111.763 216.533 115.585 215.155C116.345 215.155 117.696 209.375 118.519 204.54C119.322 200.272 120.145 195.286 121.623 194.171C122.446 193.693 123.445 193.518 124.409 193.684C125.374 193.849 126.229 194.342 126.796 195.059C127.746 196.57 126.479 201.481 125.508 205.711C124.389 210.527 123.185 216.401 123.924 216.571C126.699 219.19 128.72 222.372 129.815 225.845C131.436 233.953 132.353 242.162 132.56 250.397C132.433 255.572 130.448 255.78 128.759 255.931C126.331 256.12 125.297 254.458 125.022 248.641C124.579 239.424 125.022 224.088 118.308 222.766C111.51 221.916 104.648 236.685 100.172 244.788C97.3848 249.85 95.9491 250.095 93.8377 249.132C92.3809 248.357 90.903 247.394 93.2465 242.861Z" fill="#778BFD"/>
<path d="M58.5 443.5L55 477" stroke="#2E2766" stroke-width="2"/>
</g>
<path d="M263.5 477.5V446" stroke="#2E2766" stroke-width="2"/>
</g>
</g>
</g>
<defs>
<clipPath id="clip0_874_274">
<rect width="274.137" height="582.92" fill="white" transform="matrix(-1 0 0 1 304.656 28.5916)"/>
</clipPath>
</defs>
</svg>
