<svg width="99" height="105" viewBox="0 0 99 105" fill="none" xmlns="http://www.w3.org/2000/svg">
<mask id="mask0_14_18185" style="mask-type:alpha" maskUnits="userSpaceOnUse" x="0" y="0" width="99" height="105">
<rect width="99" height="105" transform="matrix(-1 0 0 1 99 0)" fill="#C4C4C4"/>
</mask>
<g mask="url(#mask0_14_18185)">
<g clip-path="url(#clip0_14_18185)">
<path d="M45.3759 51.169C50.3194 51.3589 54.2098 53.7667 56.5574 55.4577C58.9051 57.1487 70.7238 67.3191 71.6964 70.3825C72.669 73.4459 73.9501 136.944 72.6556 138.88C71.361 140.816 57.6575 145.313 51.6072 145.619C45.557 145.925 19.3036 141.483 17.231 139.731C15.1584 137.979 10.2417 76.7604 11.3284 73.0109C12.415 69.2613 29.1705 57.1916 32.5175 53.6565C33.9731 52.088 43.2161 51.0893 45.3759 51.169Z" fill="#BDBFE1"/>
<path d="M55.3022 64.458C55.3492 65.328 54.2626 69.3043 53.7796 69.8005C53.2967 70.2968 49.527 70.5357 49.0843 70.2478C48.6416 69.9598 46.5153 65.9162 46.4013 65.1442C46.2873 64.3722 49.4197 60.9841 50.7277 60.7881C52.0357 60.592 55.2754 63.9372 55.3022 64.458Z" fill="#2E2766"/>
<path d="M53.7797 69.8004C53.7797 69.8004 59.9037 110.819 60.2592 113.582C60.6147 116.345 53.6992 132.943 52.5321 133.316C51.365 133.69 44.8386 116.774 44.4361 114.936C44.0336 113.098 48.6552 71.5833 49.0308 70.1129C49.1314 69.7024 53.7261 69.4144 53.7797 69.8004Z" fill="#2E2766"/>
<path d="M61.5276 176.707C62.1447 178.385 78.4508 173.925 78.7795 171.879C79.1081 169.832 73.3329 122.675 73.3262 118.974C73.3195 115.274 73.9433 74.4142 72.0249 69.7027C71.0591 67.3194 65.1162 61.8053 61.6886 58.8032C60.2331 57.5166 59.2269 56.6772 59.2269 56.6772C59.7904 58.6623 61.9099 85.3688 61.3666 103.541C61.1989 109.349 61.0916 118.772 61.038 128.948C61.038 129.046 61.038 129.126 61.038 129.206C60.9306 150.754 61.0916 175.585 61.5276 176.707Z" fill="white"/>
<path d="M69.4288 83.9411C69.5629 82.0663 62.473 74.4323 62.473 74.4323C62.473 74.4323 68.7714 75.3391 68.7781 74.0831C68.7781 72.9925 63.0432 61.4988 61.6883 58.803C60.2327 57.5164 58.1936 56.0337 58.1936 56.0337C58.7571 58.0249 61.9029 85.3686 61.3663 103.541C61.1986 109.349 61.0913 118.772 61.0376 128.948C61.3193 123.158 69.2946 85.7913 69.4288 83.9411Z" fill="white"/>
<path d="M69.3013 83.3894C67.2421 80.2525 62.0438 74.2606 62.0773 74.2851C62.1108 74.3096 68.1141 74.4995 68.5233 74.0523C68.8318 73.7398 63.4524 62.7607 61.8157 59.7892C61.81 59.7757 61.8098 59.7607 61.8151 59.7471C61.8203 59.7334 61.8307 59.7219 61.8444 59.7145C61.858 59.7072 61.8741 59.7045 61.8897 59.7069C61.9054 59.7094 61.9195 59.7168 61.9297 59.7279C64.8677 63.6613 69.9788 74.2545 68.919 74.5669C67.8592 74.8794 64.6798 74.861 63.2243 74.861C65.7665 77.2504 69.838 83.0831 69.9788 83.4997C70.1197 83.9164 67.5507 97.9527 66.1689 104.692C64.6933 111.958 63.4859 120.254 61.6145 127.447C61.6145 127.588 61.3663 127.527 61.3864 127.398C62.3389 120.156 67.7318 91.3726 69.3013 83.3894Z" fill="#2E2766"/>
<path d="M8.64491 172.032C21.5972 181.222 38.9429 178.888 39.5533 177.613C39.9155 176.854 40.8948 153.406 41.2503 130.296V129.984C41.465 114.263 41.3912 98.7374 40.5796 90.6562C39.2773 78.1136 36.6354 65.7174 32.6915 53.6445C32.0818 53.9331 31.5177 54.2959 31.0146 54.7228V54.7228C26.0644 58.3621 12.153 70.0397 12.2938 72.2454C12.4749 74.837 13.1591 108.828 12.0523 123.624C10.9456 138.42 6.83386 170.739 8.64491 172.032Z" fill="white"/>
<path d="M22.1073 93.3455C24.3745 93.1678 33.7986 93.6518 36.1932 93.8969C36.3274 93.8969 36.3005 94.1113 36.1932 94.1113C33.7785 94.1848 23.1805 93.6641 22.7781 93.8172C22.3756 93.9704 22.5366 95.7472 22.7781 95.8513C23.3348 96.0964 33.7651 96.1822 36.2603 96.2312C36.6896 96.2312 36.7097 96.8438 36.2603 96.8438C31.565 96.7458 26.8697 96.5743 22.2147 96.3598C22.1273 96.36 22.0432 96.3296 21.9796 96.2749C21.916 96.2202 21.8777 96.1454 21.8726 96.0657C21.8411 95.1539 21.9199 94.2416 22.1073 93.3455V93.3455Z" fill="#2E2766"/>
<path d="M34.3214 72.5697C34.4288 72.7963 27.6675 78.7761 27.2919 79.646C26.9163 80.516 36.3941 103.828 38.3929 110.892C40.3918 117.957 41.2503 130.308 41.2503 130.308V129.996C41.465 114.274 41.3912 98.7493 40.5796 90.6681C39.2568 77.9491 36.8232 65.3471 33.3019 52.9824C33.161 52.9824 31.9604 54.0424 31.028 54.7224C30.9006 55.2064 26.3797 70.5172 26.3327 71.0135C26.2858 71.5097 34.2275 72.343 34.3214 72.5697Z" fill="white"/>
<path d="M30.7868 55.1942C30.8271 55.0471 30.9411 55.0839 30.9076 55.2371C29.8386 60.562 28.423 65.824 26.6684 70.9951C29.3514 71.4117 34.4492 72.3675 34.5431 72.4716C34.7175 72.6677 32.5308 75.1061 31.357 76.1844C30.1411 77.4431 28.8323 78.6243 27.4398 79.7196C31.1826 87.3964 39.0707 110.966 39.8353 114.948C40.5698 119.067 41.0535 123.219 41.2842 127.386C41.2842 127.435 41.2037 127.441 41.197 127.386C40.6067 123.011 40.0835 118.618 39.0841 114.299C38.1786 110.408 29.8008 87.5434 26.8428 79.836C26.7623 79.6277 33.0406 73.6541 34.1742 72.637C31.6119 72.2756 26.0111 71.4791 26.0781 71.2647C27.7416 65.9425 29.3112 60.5857 30.7868 55.1942Z" fill="#2E2766"/>
<g filter="url(#filter0_d_14_18185)">
<path d="M23.6499 115.212C23.6901 116.272 23.8847 117.013 24.0792 117.099C24.6761 117.393 27.2049 118.508 30.6258 119.77C31.2428 119.997 31.8801 120.23 32.5508 120.463C34.4222 121.112 41.2706 124.298 48.8837 127.655C59.1061 132.146 70.7973 136.938 74.1846 136.417C80.0806 135.498 88.3443 129.016 88.9748 125.297C89.6053 121.578 77.2031 77.3732 75.6268 74.365C74.0505 71.3567 72.273 68.8141 70.576 67.2886L73.145 115.929C72.9696 115.841 72.7854 115.77 72.595 115.714C70.69 115.102 64.3581 113.497 57.0938 111.763C44.8726 108.84 30.0087 105.513 29.0428 105.789C28.7037 105.89 28.3721 106.011 28.05 106.151C24.2536 107.878 23.5157 112.553 23.6499 115.212Z" fill="white"/>
</g>
<path d="M23.2811 115.243C23.2811 115.714 23.375 116.204 23.4622 116.719C23.4152 116.835 23.6097 117.007 23.7573 117.081C30.874 120.842 52.4858 129.689 57.8317 131.852C60.9708 133.133 71.6895 137.82 74.9963 136.349C75.0634 136.312 75.0768 136.251 74.9963 136.263H74.9091C71.8907 136.686 60.347 132.318 49.018 127.576C47.1197 126.785 45.2215 125.983 43.3769 125.198C43.3171 125.165 43.2543 125.136 43.1891 125.113C39.3188 123.452 35.6565 121.835 32.5911 120.469H32.5509L30.7667 119.672C26.6348 117.834 23.9585 116.609 23.9585 116.609C23.7774 114.256 23.8177 107.995 29.224 106.046C37.4005 108.037 46.6234 109.82 54.8602 111.775C55.1487 111.836 55.4304 111.903 55.7188 111.977C60.0295 113.01 64.347 114.064 68.6711 115.138C70 115.428 71.2811 115.877 72.481 116.474C73.2376 116.861 73.9383 117.332 74.5671 117.877C76.083 119.182 77.5318 120.53 79.1148 121.774C79.2087 121.853 79.3227 121.737 79.2422 121.651C77.5251 119.746 75.7275 117.589 73.4536 116.137C73.6817 110.219 73.8091 104.276 73.9701 98.3694C74.261 97.9301 74.4632 97.4466 74.5671 96.9419C74.7493 96.2936 74.8815 95.6344 74.9628 94.9691C74.969 94.9447 74.9644 94.9191 74.9499 94.8978C74.9355 94.8766 74.9123 94.8615 74.8857 94.8558C74.859 94.8501 74.8309 94.8543 74.8076 94.8675C74.7844 94.8807 74.7678 94.9018 74.7616 94.9262C74.6006 95.5389 74.3994 96.1516 74.1713 96.7336C74.1176 96.8684 74.0573 96.9971 73.9969 97.138C74.064 94.6873 74.1244 92.1937 74.2183 89.7246C74.2183 89.7246 74.178 89.7246 74.1713 89.7246C73.0914 96.464 72.8633 103.406 72.8298 110.304C72.8298 112.142 72.8298 113.98 72.8298 115.818C72.2131 115.458 71.5538 115.162 70.8645 114.936C66.5515 113.668 62.0776 112.755 57.7043 111.707C52.5931 110.482 47.1197 109.312 41.6665 108.191C41.5524 108.191 41.4317 108.135 41.2976 108.117C37.8633 107.413 34.4491 106.714 31.149 106.028L29.224 105.63C28.7188 105.737 28.2347 105.915 27.7885 106.157C25.9238 107.076 22.8316 109.514 23.2811 115.243Z" fill="#2E2766"/>
<g filter="url(#filter1_d_14_18185)">
<path d="M1.88365 123.33C1.88365 125.689 10.1943 137.158 15.7146 136.509C24.7698 135.461 63.0969 118.331 64.9414 117.945C65.3238 117.853 65.3841 117.455 65.2232 116.854C64.7546 115.579 64.076 114.377 63.2109 113.288C62.1262 111.759 60.7654 110.408 59.1863 109.294C58.8488 109.075 58.4783 108.901 58.0863 108.779C55.6313 108.099 32.7988 111.745 23.2539 113.423C20.7721 113.858 19.2294 114.158 19.0885 114.214C18.9477 114.269 18.7934 111.15 18.6257 106.512C18.1092 92.966 17.4921 66.0757 17.4921 66.0757C14.628 68.7531 8.83268 73.9363 7.76618 75.756C6.69968 77.5756 1.90378 120.971 1.88365 123.33Z" fill="white"/>
</g>
<path d="M12.6559 117.179C14.3813 116.034 16.2393 115.066 18.1963 114.293C16.8548 113.993 14.8425 114.605 13.7962 114.703C13.5882 114.703 13.5681 114.452 13.7358 114.391C14.8997 114.004 16.1261 113.797 17.3646 113.778C17.7511 113.762 18.1361 113.833 18.4847 113.987C17.8316 106.306 17.9371 98.5882 18.8 90.9254C18.8 90.7906 19.0549 90.8213 19.0549 90.9254C19.0549 92.9595 19.0549 94.9936 19.0549 97.0522C19.2829 96.2006 19.558 95.3551 19.786 94.5525C19.7832 94.5459 19.7821 94.5389 19.7829 94.5319C19.7838 94.525 19.7864 94.5183 19.7907 94.5125C19.795 94.5067 19.8008 94.5019 19.8076 94.4987C19.8144 94.4954 19.8219 94.4937 19.8296 94.4937C19.8373 94.4937 19.8448 94.4954 19.8516 94.4987C19.8584 94.5019 19.8642 94.5067 19.8685 94.5125C19.8728 94.5183 19.8755 94.525 19.8763 94.5319C19.8771 94.5389 19.8761 94.5459 19.8732 94.5525C19.4775 96.3905 19.4775 98.3082 19.0415 100.122C19.0415 104.741 18.9945 109.361 19.0415 113.98C23.8508 112.381 51.6201 107.976 58.0124 108.65C58.4372 108.719 58.835 108.888 59.1661 109.14C59.3137 109.244 59.2935 109.385 59.213 109.349C58.7744 109.105 58.2816 108.954 57.7709 108.907C50.9695 108.877 23.7703 113.135 18.9677 114.746C18.9448 114.767 18.9175 114.783 18.8875 114.793C18.8575 114.804 18.8254 114.809 18.7933 114.808C16.6906 115.519 14.6482 116.371 12.6827 117.356C12.401 117.503 12.401 117.338 12.6559 117.179Z" fill="#2E2766"/>
<path d="M32.4098 55.237C33.4159 49.8516 43.0279 49.6372 47.5219 49.9006C53.2502 50.2315 57.979 51.5977 59.3876 57.0322C60.7962 62.4666 60.595 68.287 60.2193 73.7643C60.2222 73.9642 60.3067 74.1558 60.4561 74.3018C60.6055 74.4478 60.8091 74.5376 61.0272 74.5537C61.2453 74.5698 61.4621 74.511 61.6352 74.3888C61.8083 74.2666 61.9253 74.0898 61.9633 73.893C62.3926 67.5763 63.875 55.7272 57.979 51.1505C52.0831 46.5738 32.383 45.9918 30.6658 55.1084C30.478 56.1193 32.2153 56.2357 32.4098 55.237V55.237Z" fill="#2E2766"/>
<path d="M64.8271 77.1221C64.7687 77.8484 64.4754 78.5424 63.9845 79.1162C63.4937 79.69 62.8273 80.1178 62.0699 80.3451C61.3125 80.5725 60.4982 80.5892 59.7304 80.3933C58.9625 80.1973 58.2757 79.7975 57.757 79.2444C57.2383 78.6914 56.9112 78.0101 56.817 77.287C56.7228 76.5639 56.8659 75.8315 57.2281 75.1828C57.5903 74.5341 58.1552 73.9982 58.8513 73.6432C59.5474 73.2882 60.3433 73.13 61.1379 73.1887C62.1967 73.267 63.1786 73.7244 63.8697 74.4612C64.5607 75.198 64.9049 76.1545 64.8271 77.1221Z" fill="#778BFD"/>
<path d="M63.2446 77.0056C63.2073 77.4405 63.0298 77.8555 62.7343 78.1982C62.4389 78.5408 62.0388 78.7958 61.5847 78.9308C61.1307 79.0659 60.643 79.0749 60.1833 78.9568C59.7236 78.8386 59.3126 78.5987 59.0022 78.2672C58.6918 77.9357 58.496 77.5276 58.4395 77.0945C58.383 76.6614 58.4684 76.2227 58.6848 75.8338C58.9012 75.445 59.239 75.1236 59.6555 74.9101C60.0719 74.6966 60.5483 74.6008 61.0244 74.6346C61.3406 74.657 61.649 74.7362 61.9317 74.8675C62.2145 74.9988 62.4661 75.1797 62.6723 75.3999C62.8785 75.6201 63.0351 75.8753 63.1333 76.1508C63.2315 76.4263 63.2693 76.7168 63.2446 77.0056V77.0056Z" fill="#E4EEF8"/>
<path d="M33.8851 73.1211C34.2138 88.9404 32.5905 92.4265 30.7795 93.8356C29.4419 94.8021 27.8791 95.4749 26.2117 95.8023L25.9769 94.7118L26.0976 95.257L25.9769 94.7118C27.4443 94.4249 28.8207 93.8361 30.0014 92.9901C31.3429 91.9731 33.0131 88.8056 32.6845 73.1456L33.8851 73.1211Z" fill="#BDBFE1"/>
<path d="M28.4735 94.2219L28.7595 95.1865C28.8665 95.5471 28.6331 95.9185 28.2384 96.0162L25.624 96.6629C25.2293 96.7606 24.8226 96.5474 24.7157 96.1869L24.4297 95.2223C24.3228 94.8617 24.5561 94.4902 24.9509 94.3926L27.5652 93.7459C27.9599 93.6482 28.3666 93.8613 28.4735 94.2219Z" fill="#778BFD"/>
<path d="M23.1602 71.1361C16.949 81.6251 14.5409 87.5803 15.5739 89.8901C16.192 91.1312 17.1092 92.2287 18.2569 93.1005L17.5057 93.9766C16.1862 92.983 15.135 91.7252 14.4336 90.3006C13.1994 87.5497 15.4196 81.8395 22.0802 70.5908L23.1602 71.1361Z" fill="#BDBFE1"/>
<path d="M19.99 94.594L19.2453 95.3335C18.9669 95.6099 18.4959 95.6279 18.1932 95.3736L16.189 93.6896C15.8863 93.4353 15.8667 93.0051 16.1451 92.7286L16.8898 91.9891C17.1682 91.7127 17.6392 91.6947 17.9418 91.949L19.9461 93.633C20.2487 93.8873 20.2684 94.3175 19.99 94.594Z" fill="#778BFD"/>
<path d="M21.8123 70.0455C22.9976 67.6866 24.3417 65.3969 25.8368 63.1897C26.6338 62.241 27.6947 61.5047 28.9089 61.0576C29.1504 61.0576 29.5796 59.1828 29.8412 57.6143C30.0961 56.2297 30.3577 54.6122 30.8272 54.2507C31.0888 54.0955 31.406 54.0388 31.7124 54.0925C32.0187 54.1462 32.2905 54.3061 32.4706 54.5387C32.7724 55.0288 32.37 56.6218 32.0614 57.9942C31.7059 59.5565 31.3236 61.4619 31.5584 61.5171C32.4398 62.3665 33.082 63.3989 33.4298 64.5253C33.9446 67.1557 34.2362 69.8186 34.3018 72.4901C34.2615 74.1688 33.631 74.2362 33.0944 74.2852C32.323 74.3465 31.9944 73.8073 31.9072 71.9203C31.7663 68.9304 31.9072 63.9555 29.7742 63.5266C27.6143 63.2509 25.4344 68.0421 24.0124 70.6704C23.127 72.3124 22.6709 72.392 22.0001 72.0796C21.5373 71.8284 21.0678 71.5159 21.8123 70.0455Z" fill="#778BFD"/>
<path d="M40.2178 46.2187C38.5945 46.8314 33.0206 53.6076 33.2285 54.5817C33.4364 55.5559 32.7388 67.8584 45.0539 72.6495L51.0907 62.234L57.1275 70.7502C57.1275 70.7502 60.602 63.9618 60.4813 62.2708C60.3606 60.5798 58.9184 52.1494 51.7615 47.9526C46.3686 44.8341 43.6051 44.9014 40.2178 46.2187Z" fill="#BDBFE1"/>
<path d="M33.4155 54.453C34.046 61.1924 37.2388 69.9414 44.8988 72.2573C47.0117 68.955 49.1514 65.7201 50.9356 62.2646C50.9499 62.2401 50.9702 62.2191 50.9949 62.2031C51.0197 62.187 51.0482 62.1765 51.0781 62.1724C51.1081 62.1682 51.1387 62.1705 51.1676 62.1791C51.1964 62.1876 51.2226 62.2022 51.2442 62.2217C51.2979 62.2217 55.5572 67.8583 57.1871 70.6092C58.122 68.6927 58.8825 66.7091 59.461 64.6785C60.3933 61.9092 59.9909 59.7771 59.0451 57.0569C59.0451 56.9895 59.1457 56.9404 59.1725 57.0078C60.2726 59.2257 60.997 61.4314 60.2793 63.833C59.6557 66.3094 58.724 68.7124 57.5024 70.9952C57.4847 71.0256 57.4571 71.0501 57.4234 71.0655C57.3898 71.0809 57.3517 71.0863 57.3145 71.081C57.2881 71.0918 57.2584 71.0941 57.2303 71.0874C57.2023 71.0807 57.1776 71.0655 57.1603 71.0442C55.0474 68.4097 53.3168 65.5302 51.1972 62.8773C49.3795 66.3205 47.327 69.6167 45.2745 72.6801C45.1806 72.821 44.8251 72.7475 44.7915 72.7352C36.8229 70.4316 33.107 61.5233 33.3015 54.453C33.3015 54.3978 33.4088 54.3978 33.4155 54.453Z" fill="#2E2766"/>
<path d="M57.8184 38.3766L56.9128 54.3062L56.7787 56.5486C56.7787 56.5486 55.8732 61.1559 50.601 62.0075C45.3289 62.8591 37.3268 56.426 36.7298 55.2252C36.4078 54.6125 36.1462 48.9024 35.9584 43.4863C35.7773 38.3092 35.6767 33.3833 35.6767 33.3833L38.1451 33.9408L57.8184 38.3766Z" fill="#FDD7BC"/>
<path d="M57.8184 38.3766L56.9128 54.3062C51.083 53.488 45.5851 51.3032 40.9556 47.965C39.1297 46.6372 37.4636 45.1358 35.9853 43.4863C35.8041 38.3092 35.7035 33.3833 35.7035 33.3833L38.1719 33.9408L57.8184 38.3766Z" fill="#DBA89B"/>
<path d="M32.3964 11.1489C28.7542 18.6603 31.9671 37.4572 38.2253 43.8413C42.5047 48.2097 51.8282 49.5514 58.7907 46.9966C61.9692 45.9086 64.5741 43.7548 66.0751 40.974C70.7704 31.7471 66.5111 9.61723 61.4469 6.13724C52.5057 -0.0201497 36.857 1.96492 32.3964 11.1489Z" fill="#FDD7BC"/>
<path d="M48.7293 28.1078C48.7293 28.065 48.6354 28.1752 48.6421 28.2243C48.7896 29.3945 48.736 30.7546 47.6091 31.2325C47.5689 31.2325 47.6091 31.306 47.6091 31.2938C49.011 30.9874 49.0579 29.1739 48.7293 28.1078Z" fill="#2E2766"/>
<path d="M47.4611 26.9439C45.3817 26.9439 45.5561 30.7486 47.4611 30.7424C49.366 30.7363 49.205 26.9377 47.4611 26.9439Z" fill="#2E2766"/>
<path d="M58.791 27.4159C58.791 27.373 58.8916 27.471 58.8916 27.5139C58.8916 28.6964 59.1331 30.0443 60.3203 30.3874C60.3203 30.3874 60.3203 30.4609 60.3203 30.4548C58.8782 30.3261 58.5965 28.5371 58.791 27.4159Z" fill="#2E2766"/>
<path d="M59.8835 26.1411C61.9494 25.9205 62.2848 29.713 60.3664 29.9152C58.4481 30.1174 58.1194 26.331 59.8835 26.1411Z" fill="#2E2766"/>
<path d="M50.5137 38.7014C50.8356 38.9648 51.1844 39.314 51.6271 39.3508C52.0959 39.3203 52.5527 39.2014 52.9687 39.0016C52.9778 38.9975 52.9882 38.9963 52.9982 38.998C53.0082 38.9998 53.0173 39.0045 53.0241 39.0114C53.0309 39.0184 53.0351 39.0271 53.036 39.0364C53.0368 39.0457 53.0344 39.0549 53.029 39.0628C52.8555 39.2937 52.6184 39.4786 52.3417 39.5991C52.0649 39.7196 51.7583 39.7713 51.4527 39.749C51.1852 39.6999 50.9404 39.5774 50.751 39.3979C50.5616 39.2183 50.4367 38.9903 50.3929 38.7442C50.3661 38.6891 50.4667 38.6585 50.5137 38.7014Z" fill="#DBA89B"/>
<path d="M45.7447 25.2712C46.2853 25.1027 46.8159 24.9084 47.3343 24.6892C47.9242 24.5576 48.45 24.2517 48.8301 23.8192C48.9185 23.6611 48.9479 23.4811 48.914 23.3064C48.8801 23.1317 48.7847 22.9718 48.6423 22.8511C48.3198 22.6529 47.9452 22.5369 47.5572 22.5154C47.1692 22.4938 46.7819 22.5675 46.4355 22.7286C45.6781 22.9559 45.04 23.4318 44.6446 24.0642C44.5633 24.2133 44.5312 24.3807 44.5523 24.5461C44.5734 24.7115 44.6467 24.8677 44.7633 24.9957C44.88 25.1237 45.0349 25.2179 45.2091 25.2668C45.3834 25.3157 45.5695 25.3172 45.7447 25.2712V25.2712Z" fill="#2E2766"/>
<path d="M61.4061 24.1687C60.8427 24.0807 60.2851 23.9642 59.7359 23.8195C59.1393 23.778 58.5729 23.5634 58.1194 23.2068C58.0019 23.066 57.9383 22.8938 57.9383 22.7167C57.9383 22.5396 58.0019 22.3674 58.1194 22.2265C58.4026 21.9821 58.7521 21.8111 59.1318 21.7314C59.5115 21.6517 59.9077 21.6661 60.2793 21.7732C61.0683 21.8801 61.7856 22.2514 62.2915 22.8147C62.3996 22.9506 62.4615 23.1125 62.4698 23.2802C62.478 23.448 62.4321 23.6143 62.3378 23.7585C62.2436 23.9027 62.105 24.0184 61.9394 24.0913C61.7738 24.1643 61.5883 24.1912 61.4061 24.1687V24.1687Z" fill="#2E2766"/>
<path d="M55.041 35.9991C55.041 35.9991 53.9946 38.4498 51.9488 37.9903C50.3994 37.6656 51.1439 34.8105 51.1439 34.8105C51.1439 34.8105 53.1629 36.1707 55.041 35.9991Z" fill="white"/>
<path d="M51.0299 34.9208C51.3773 35.3739 51.8236 35.7565 52.3408 36.0444C52.8579 36.3322 53.4348 36.5192 54.0349 36.5934C54.5597 36.6639 55.0931 36.6639 55.6179 36.5934C55.7199 36.589 55.8211 36.5747 55.9197 36.5505L56.2014 36.5015C56.2684 36.4868 56.3283 36.4525 56.3719 36.4038C56.4155 36.3551 56.4404 36.2948 56.4429 36.2319V36.2319C56.4495 36.1933 56.4495 36.1541 56.4429 36.1155V35.9991C56.4429 35.0923 56.2685 33.7199 56.2685 33.7199C56.6374 33.8731 58.5223 34.5593 58.4686 34.0875C58.0393 30.1787 57.5564 25.8348 56.2216 22.0301C56.2122 22.0054 56.1935 21.9846 56.1689 21.9714C56.1443 21.9581 56.1153 21.9532 56.0871 21.9576C56.059 21.9621 56.0334 21.9754 56.0151 21.9954C55.9967 22.0154 55.9867 22.0407 55.9868 22.0669C56.2417 25.8409 57.221 29.5415 57.5363 33.3278C56.8666 33.0689 56.1594 32.8997 55.4368 32.8254C55.2959 32.8683 55.7923 35.4783 55.7655 35.8888C55.7671 35.9051 55.7671 35.9215 55.7655 35.9378C54.1087 36.1951 52.8275 35.7785 51.1641 34.8166C51.0433 34.7492 50.9494 34.8473 51.0299 34.9208Z" fill="#DBA89B"/>
<path d="M62.3521 11.3819C66.7389 17.7476 67.3828 28.0344 68.2883 25.1181C71.2598 15.5113 65.9943 9.94824 65.9943 9.94824C65.9943 9.94824 61.829 10.6161 62.3521 11.3819Z" fill="#2E2766"/>
<path d="M33.7378 31.2389C33.7378 31.2389 41.6929 29.7991 39.3386 14.3352C43.9589 16.1086 49.0166 16.7139 53.9812 16.0874C62.701 15.0949 67.3963 11.7252 70.1129 6.28461C71.0117 4.50172 66.303 7.01369 64.2303 6.19883C60.568 4.74066 56.966 0.347781 47.0389 0.53771C37.1117 0.72764 34.4823 6.84827 34.4823 6.84827C34.4823 6.84827 29.1163 8.34932 27.0168 12.589C24.9173 16.8288 28.6065 31.2327 33.7378 31.2389Z" fill="#2E2766"/>
<path d="M36.5278 30.7116C36.5278 30.7116 32.5033 24.4685 29.4044 25.7429C26.3055 27.0172 29.0422 35.8581 32.4094 37.2979C32.8269 37.5063 33.2863 37.6354 33.7599 37.6774C34.2334 37.7195 34.7115 37.6736 35.1651 37.5425C35.6188 37.4114 36.0387 37.1979 36.3997 36.9148C36.7607 36.6316 37.0552 36.2847 37.2656 35.8949L36.5278 30.7116Z" fill="#FDD7BC"/>
<path d="M30.2499 28.2612C30.1962 28.2612 30.1761 28.3225 30.2499 28.3409C32.6042 29.4069 33.711 31.5513 34.4287 33.7447C33.7579 32.8747 32.8323 32.36 31.5646 33.0585C31.4975 33.0952 31.5646 33.1933 31.6182 33.181C32.0557 33.0866 32.5144 33.1183 32.9312 33.272C33.3481 33.4256 33.7025 33.6935 33.9457 34.0388C34.3505 34.6167 34.6855 35.233 34.9452 35.8768C35.0391 36.079 35.4415 36.0054 35.3744 35.7665C35.3768 35.7502 35.3768 35.7338 35.3744 35.7175C35.6293 32.8931 33.55 28.7698 30.2499 28.2612Z" fill="#DBA89B"/>
<path d="M41.2436 45.1648C37.7423 43.7373 34.2141 42.1015 31.9335 39.0381C30.2095 36.8863 29.0609 34.3957 28.5797 31.7656C28.8916 32.8105 29.3422 33.8166 29.9212 34.7616C30.5122 35.7389 31.2942 36.609 32.2287 37.3287C32.2287 37.3287 32.2287 37.3287 32.2287 37.3287C34.3574 40.5958 37.5686 43.1599 41.3979 44.6502C41.7534 44.7543 41.5924 45.3057 41.2436 45.1648Z" fill="white"/>
<path d="M37.5747 32.8625C36.9509 32.1518 35.0057 28.4818 33.2684 27.1094C33.0043 26.8659 32.7267 26.6348 32.4367 26.4171C31.9721 26.051 31.4247 25.7833 30.8336 25.6329C31.3161 25.453 31.8467 25.4103 32.3562 25.5103C35.0392 25.976 36.8435 30.8651 37.8229 32.7154C37.8765 32.8257 37.682 33.0095 37.5747 32.8625Z" fill="white"/>
<path d="M36.9848 32.0351C36.5354 31.1222 43.746 34.2836 51.2652 32.8683C52.8012 32.5803 57.0873 31.0303 59.4752 31.0303C61.8631 31.0303 64.6535 32.7948 67.9469 33.1195C69.0804 33.2298 68.1011 42.1442 65.2236 46.0469C64.2711 47.3274 60.2399 49.9558 57.7715 50.1886C51.9762 50.7278 42.049 46.9537 40.5398 45.1892C39.3391 43.7494 41.2575 40.6799 36.9848 32.0351Z" fill="white"/>
<path d="M67.1613 35.0434C65.0655 34.2123 62.8835 33.576 60.6482 33.1441C58.7164 32.7949 56.9658 33.4443 55.1346 34.0386C50.2247 35.6315 45.2745 35.4539 40.3243 34.1611C40.2707 34.1611 40.2438 34.2408 40.3243 34.2653C44.2335 35.7961 48.5815 36.1251 52.7132 35.2027C54.9468 34.7248 57.2005 33.622 59.5281 33.7506C62.0769 33.8977 64.552 34.976 67.0741 35.4049C67.282 35.46 67.3692 35.1291 67.1613 35.0434Z" fill="#BDBFE1"/>
<path d="M63.4861 45.3546C61.9232 46.0408 60.3872 47.0517 58.7908 47.5357C56.8456 48.1116 54.5516 47.5357 52.6333 47.1129C49.0045 46.3348 45.5165 44.9747 41.9682 43.8535C41.9682 43.8535 41.928 43.8903 41.9682 43.9025C45.8419 45.724 49.9726 47.0476 54.2431 47.8359C55.6651 48.0626 57.2279 48.3934 58.6432 48.0075C60.3469 47.5357 62.0507 46.3777 63.5599 45.4465C63.58 45.422 63.5532 45.3362 63.4861 45.3546Z" fill="#BDBFE1"/>
<path d="M65.9206 38.0455C62.2315 37.053 58.7905 37.2981 55.041 37.7576C50.8041 38.2572 46.5097 38.1829 42.2966 37.537C42.2564 37.537 42.2429 37.5983 42.2966 37.6044C46.0437 38.3246 49.8905 38.5086 53.6995 38.1497C55.5373 37.972 57.3752 37.6534 59.2198 37.537C61.4832 37.4589 63.7461 37.7028 65.9273 38.26C66.0011 38.2906 66.0548 38.0823 65.9206 38.0455Z" fill="#BDBFE1"/>
<path d="M65.0552 41.4643C61.7822 43.1883 58.0049 43.9439 54.2426 43.6271C50.4059 43.3024 46.7168 41.979 43.0544 40.8271C43.0008 40.8271 42.9873 40.8884 43.0544 40.9068C50.4327 43.7435 57.858 45.6612 65.1894 41.6665C65.2967 41.5869 65.1961 41.3908 65.0552 41.4643Z" fill="#BDBFE1"/>
</g>
</g>
<defs>
<filter id="filter0_d_14_18185" x="19.6357" y="67.2886" width="73.3623" height="77.167" filterUnits="userSpaceOnUse" color-interpolation-filters="sRGB">
<feFlood flood-opacity="0" result="BackgroundImageFix"/>
<feColorMatrix in="SourceAlpha" type="matrix" values="0 0 0 0 0 0 0 0 0 0 0 0 0 0 0 0 0 0 127 0" result="hardAlpha"/>
<feOffset dy="4"/>
<feGaussianBlur stdDeviation="2"/>
<feComposite in2="hardAlpha" operator="out"/>
<feColorMatrix type="matrix" values="0 0 0 0 0 0 0 0 0 0 0 0 0 0 0 0 0 0 0.75 0"/>
<feBlend mode="normal" in2="BackgroundImageFix" result="effect1_dropShadow_14_18185"/>
<feBlend mode="normal" in="SourceGraphic" in2="effect1_dropShadow_14_18185" result="shape"/>
</filter>
<filter id="filter1_d_14_18185" x="-2.11621" y="66.0757" width="71.4229" height="78.4595" filterUnits="userSpaceOnUse" color-interpolation-filters="sRGB">
<feFlood flood-opacity="0" result="BackgroundImageFix"/>
<feColorMatrix in="SourceAlpha" type="matrix" values="0 0 0 0 0 0 0 0 0 0 0 0 0 0 0 0 0 0 127 0" result="hardAlpha"/>
<feOffset dy="4"/>
<feGaussianBlur stdDeviation="2"/>
<feComposite in2="hardAlpha" operator="out"/>
<feColorMatrix type="matrix" values="0 0 0 0 0 0 0 0 0 0 0 0 0 0 0 0 0 0 0.75 0"/>
<feBlend mode="normal" in2="BackgroundImageFix" result="effect1_dropShadow_14_18185"/>
<feBlend mode="normal" in="SourceGraphic" in2="effect1_dropShadow_14_18185" result="shape"/>
</filter>
<clipPath id="clip0_14_18185">
<rect width="87.091" height="189.096" fill="white" transform="matrix(-1 0 0 1 88.9746 0.537598)"/>
</clipPath>
</defs>
</svg>
