<svg width="333" height="477" viewBox="0 0 333 477" fill="none" xmlns="http://www.w3.org/2000/svg">
<mask id="mask0_308_4" style="mask-type:alpha" maskUnits="userSpaceOnUse" x="0" y="0" width="333" height="477">
<rect width="332.444" height="476.203" fill="#C4C4C4"/>
</mask>
<g mask="url(#mask0_308_4)">
<mask id="mask1_308_4" style="mask-type:alpha" maskUnits="userSpaceOnUse" x="0" y="19" width="322" height="477">
<rect width="321.569" height="475.305" transform="matrix(-1 0 0 1 321.569 19.7668)" fill="#C4C4C4"/>
</mask>
<g mask="url(#mask1_308_4)">
<g clip-path="url(#clip0_308_4)">
<path d="M245.868 435.866C245.868 435.866 230.223 608.113 227.985 610.511H159.873V435.866H245.868Z" fill="#434B95"/>
<path d="M67.2059 435.866H189.495C189.495 435.866 159.936 507.975 156.664 512.773C153.391 517.57 137.387 610.511 137.387 610.511H67.2059C67.2059 610.511 67.0792 532.169 67.2059 527.145C67.3326 522.122 60.1118 454.186 67.2059 435.866Z" fill="#434B95"/>
<path d="M155.418 183.672C170.979 184.257 183.225 191.68 190.614 196.892C198.004 202.105 235.206 233.457 238.267 242.9C241.329 252.344 245.362 448.086 241.287 454.054C237.212 460.022 194.077 473.885 175.033 474.829C155.988 475.774 73.3502 462.081 66.8261 456.679C60.302 451.278 44.8259 262.561 48.2462 251.003C51.6666 239.444 104.408 202.237 114.944 191.34C119.525 186.505 148.62 183.426 155.418 183.672Z" fill="#BDBFE1"/>
<path d="M186.666 224.637C186.814 227.319 183.394 239.576 181.874 241.106C180.353 242.636 168.488 243.372 167.094 242.485C165.701 241.597 159.008 229.132 158.649 226.752C158.29 224.372 168.15 213.928 172.267 213.324C176.384 212.719 186.582 223.031 186.666 224.637Z" fill="#2E2766"/>
<path d="M181.873 241.106C181.873 241.106 201.15 367.553 202.269 376.07C203.388 384.588 181.62 435.752 177.946 436.905C174.272 438.057 153.729 385.91 152.462 380.244C151.195 374.578 165.743 246.602 166.925 242.069C167.242 240.804 181.704 239.916 181.873 241.106Z" fill="#2E2766"/>
<path d="M206.26 570.661C208.202 575.836 259.529 562.086 260.563 555.778C261.598 549.47 243.419 404.099 243.398 392.691C243.377 381.283 245.341 255.328 239.302 240.804C236.262 233.457 217.555 216.459 206.766 207.205C202.185 203.238 199.018 200.651 199.018 200.651C200.791 206.77 207.463 289.097 205.753 345.115C205.225 363.02 204.887 392.068 204.718 423.439C204.718 423.741 204.718 423.986 204.718 424.232C204.38 490.656 204.887 567.204 206.26 570.661Z" fill="white"/>
<path d="M231.131 284.697C231.554 278.917 209.237 255.385 209.237 255.385C209.237 255.385 229.062 258.18 229.083 254.308C229.083 250.946 211.031 215.515 206.766 207.205C202.185 203.238 195.766 198.668 195.766 198.668C197.54 204.806 207.442 289.097 205.753 345.115C205.225 363.02 204.887 392.068 204.718 423.439C205.605 405.591 230.709 290.401 231.131 284.697Z" fill="white"/>
<path d="M230.73 282.997C224.248 273.327 207.885 254.856 207.991 254.931C208.096 255.007 226.993 255.592 228.281 254.214C229.252 253.25 212.319 219.405 207.167 210.245C207.149 210.204 207.149 210.158 207.165 210.115C207.182 210.073 207.214 210.038 207.257 210.015C207.3 209.992 207.351 209.984 207.4 209.992C207.449 209.999 207.494 210.022 207.526 210.056C216.774 222.182 232.862 254.837 229.526 255.8C226.191 256.763 216.183 256.707 211.601 256.707C219.603 264.072 232.419 282.053 232.862 283.337C233.306 284.621 225.219 327.891 220.87 348.666C216.225 371.066 212.425 396.638 206.534 418.811C206.534 419.246 205.753 419.057 205.816 418.66C208.814 396.336 225.789 307.606 230.73 282.997Z" fill="#2E2766"/>
<path d="M39.801 556.25C80.5711 584.58 135.171 577.384 137.092 573.456C138.232 571.114 141.315 498.834 142.434 427.593V426.63C143.109 378.167 142.877 330.308 140.322 305.396C136.223 266.732 127.907 228.518 115.493 191.302C113.573 192.191 111.798 193.31 110.214 194.626V194.626C94.6327 205.845 50.8433 241.843 51.2867 248.642C51.8568 256.631 54.0104 361.414 50.5266 407.026C47.0429 452.637 34.1003 552.265 39.801 556.25Z" fill="white"/>
<path d="M61.8224 467.275C62.0335 466.632 63.7437 466.538 64.0604 466.595C83.0625 469.617 101.727 473.299 121.067 474.697C121.257 474.697 121.278 474.961 121.067 474.961C101.748 475.207 82.4502 472.128 63.7015 468.162C62.498 471.94 61.5901 475.717 60.6611 479.626C78.1853 483.838 95.3505 485.293 113.445 486.426C113.472 486.436 113.496 486.452 113.512 486.474C113.529 486.496 113.538 486.522 113.538 486.548C113.538 486.575 113.529 486.601 113.512 486.623C113.496 486.644 113.472 486.661 113.445 486.671C95.9206 488.296 77.1719 485.425 60.4289 480.854C58.823 488.482 58.0172 496.228 58.0219 503.99C58.0219 508.221 57.0296 518.061 60.3655 521.498C64.3982 525.672 73.8781 527.636 79.6421 528.619C86.9692 529.903 94.5053 529.903 101.832 528.619C106.245 527.825 109.665 527.183 112.284 522.858C113.825 520.29 119.124 489.485 120.328 477.36C120.328 477.039 120.94 477.001 120.919 477.36C120.708 491.393 118.322 513.623 114.31 523.311C110.299 533 91.9935 531.924 82.9569 530.866C75.5883 529.997 65.8761 528.656 59.7321 524.822C55.6783 522.31 55.8895 519.647 55.6783 515.19C54.7535 499.024 56.8297 482.833 61.8224 467.275V467.275Z" fill="#2E2766"/>
<path d="M82.1754 313.688C89.3118 313.14 118.976 314.632 126.514 315.388C126.936 315.388 126.852 316.049 126.514 316.049C118.913 316.275 85.5536 314.67 84.2868 315.142C83.0199 315.614 83.5267 321.091 84.2868 321.412C86.0392 322.168 118.871 322.432 126.725 322.583C128.076 322.583 128.139 324.472 126.725 324.472C111.945 324.17 97.166 323.641 82.5132 322.98C82.2383 322.98 81.9736 322.887 81.7734 322.718C81.5732 322.55 81.4526 322.319 81.4364 322.073C81.3375 319.262 81.5853 316.45 82.1754 313.688V313.688Z" fill="#2E2766"/>
<path d="M120.623 249.643C120.961 250.342 99.6788 268.775 98.4964 271.457C97.314 274.139 127.147 346.003 133.439 367.779C139.731 389.556 142.434 427.631 142.434 427.631V426.668C143.109 378.205 142.877 330.346 140.322 305.434C136.158 266.226 128.498 227.378 117.414 189.262C116.971 189.262 113.191 192.529 110.257 194.626C109.855 196.118 95.625 243.316 95.4772 244.846C95.3294 246.375 120.328 248.944 120.623 249.643Z" fill="white"/>
<path d="M109.496 196.08C109.623 195.627 109.982 195.74 109.877 196.212C106.512 212.627 102.056 228.848 96.5328 244.789C104.978 246.073 121.024 249.02 121.32 249.341C121.869 249.945 114.986 257.462 111.291 260.786C107.464 264.666 103.344 268.307 98.9608 271.684C110.742 295.349 135.572 368.006 137.979 380.282C140.29 392.977 141.813 405.777 142.539 418.622C142.539 418.773 142.286 418.792 142.265 418.622C140.407 405.137 138.76 391.595 135.614 378.28C132.764 366.287 106.393 295.802 97.0817 272.043C96.8284 271.4 116.591 252.986 120.159 249.851C112.093 248.736 94.4637 246.281 94.6748 245.62C99.911 229.214 104.852 212.701 109.496 196.08Z" fill="#2E2766"/>
<g filter="url(#filter0_d_308_4)">
<path d="M87.0318 381.094C87.1584 384.362 87.7707 386.647 88.383 386.912C90.2621 387.818 98.2219 391.255 108.99 395.146C110.932 395.845 112.938 396.563 115.049 397.28C120.94 399.282 142.497 409.103 166.461 419.453C198.638 433.297 235.438 448.067 246.101 446.461C264.659 443.628 290.671 423.646 292.656 412.182C294.641 400.718 255.602 264.45 250.64 255.177C245.678 245.903 240.083 238.065 234.742 233.363L242.828 383.304C242.276 383.035 241.696 382.813 241.097 382.643C235.101 380.754 215.169 375.806 192.304 370.461C153.835 361.452 107.047 351.197 104.007 352.047C102.94 352.357 101.896 352.73 100.882 353.161C88.932 358.487 86.6095 372.898 87.0318 381.094Z" fill="white"/>
</g>
<path d="M108.969 395.146C110.911 395.845 112.917 396.563 115.028 397.28C120.919 399.282 142.476 409.103 166.44 419.453L182.866 410.879C196.02 404.042 209.532 397.564 222.369 390.33C223.405 389.757 224.399 389.126 225.346 388.441L227.605 388.536C231.828 388.668 240.632 388.385 241.16 383.72C241.168 383.613 241.168 383.506 241.16 383.399C241.174 383.317 241.174 383.234 241.16 383.153C241.16 383.002 241.16 382.832 241.16 382.643C235.164 380.755 215.233 375.806 192.367 370.461C171.649 369.464 150.998 373.311 132.447 381.623C124.042 385.271 116.159 389.811 108.969 395.146V395.146Z" fill="#BDBFE1"/>
<path d="M85.8703 381.189C85.8703 382.643 86.1659 384.154 86.4403 385.74C86.2925 386.099 86.9048 386.628 87.3693 386.855C109.771 398.451 177.798 425.724 194.626 432.391C204.507 436.338 238.246 450.786 248.655 446.253C248.866 446.14 248.909 445.951 248.655 445.989H248.381C238.88 447.292 202.543 433.826 166.883 419.208C160.908 416.771 154.932 414.297 149.126 411.88C148.938 411.777 148.74 411.688 148.535 411.615C136.353 406.497 124.825 401.511 115.176 397.299H115.049L109.433 394.844C96.427 389.178 88.0027 385.4 88.0027 385.4C87.4327 378.148 87.5593 358.846 104.577 352.84C130.314 358.978 159.345 364.474 185.273 370.499C186.18 370.688 187.067 370.896 187.975 371.122C201.544 374.308 215.134 377.556 228.745 380.868C232.928 381.761 236.961 383.146 240.738 384.985C243.119 386.177 245.325 387.63 247.304 389.31C252.076 393.333 256.636 397.488 261.619 401.322C261.914 401.568 262.273 401.209 262.02 400.944C256.615 395.07 250.957 388.422 243.799 383.946C244.517 365.702 244.918 347.382 245.425 329.175C246.341 327.82 246.977 326.33 247.304 324.774C247.877 322.776 248.294 320.743 248.55 318.693C248.569 318.618 248.555 318.538 248.509 318.473C248.464 318.407 248.391 318.361 248.307 318.343C248.223 318.326 248.134 318.339 248.061 318.379C247.988 318.42 247.936 318.485 247.916 318.56C247.409 320.449 246.776 322.338 246.058 324.132C245.889 324.548 245.699 324.944 245.509 325.379C245.72 317.824 245.91 310.137 246.206 302.526C246.206 302.526 246.079 302.526 246.058 302.526C242.659 323.301 241.941 344.7 241.836 365.966C241.836 371.632 241.836 377.298 241.836 382.964C239.894 381.852 237.819 380.94 235.649 380.244C222.073 376.335 207.991 373.521 194.225 370.291C178.136 366.514 160.908 362.906 143.742 359.45C143.383 359.45 143.003 359.28 142.581 359.224C131.771 357.052 121.024 354.898 110.636 352.783L104.577 351.556C102.987 351.887 101.463 352.435 100.059 353.18C94.189 356.013 84.4557 363.53 85.8703 381.189Z" fill="#2E2766"/>
<path d="M198.912 362.85C203.882 366.285 208.165 370.448 211.58 375.164C214.303 378.519 216.439 382.226 217.914 386.156C219.686 386.219 221.46 386.08 223.192 385.741C224.947 385.507 226.6 384.858 227.98 383.862C229.361 382.866 230.42 381.559 231.047 380.075L241.139 382.662C245.361 381.113 240.062 375.315 240.062 375.315C240.189 372.973 235.417 370.102 235.417 370.102C234.826 367.723 228.703 365.57 228.703 365.57C228.703 365.57 226.782 363.303 219.709 362.113C215.296 361.358 205.563 362.151 198.912 362.85Z" fill="#FDD7BC"/>
<g filter="url(#filter1_d_308_4)">
<path d="M18.5184 406.119C18.5184 413.391 44.678 448.747 62.0544 446.745C90.5576 443.515 211.2 390.708 217.006 389.518C218.21 389.235 218.4 388.007 217.893 386.156C216.418 382.226 214.282 378.519 211.559 375.164C208.145 370.448 203.861 366.285 198.891 362.85C197.828 362.174 196.662 361.64 195.428 361.263C187.701 359.167 115.83 370.405 85.7859 375.58C77.9739 376.921 73.1178 377.846 72.6744 378.016C72.2311 378.186 71.7455 368.573 71.2176 354.275C69.5919 312.517 67.6494 229.623 67.6494 229.623C58.634 237.877 40.3919 253.855 37.0349 259.464C33.6778 265.073 18.5817 398.848 18.5184 406.119Z" fill="white"/>
</g>
<path d="M52.4266 387.157C57.8577 383.629 63.7061 380.646 69.8663 378.261C65.6436 377.336 59.3095 379.225 56.0158 379.527C55.3613 379.527 55.298 378.753 55.8258 378.564C59.4896 377.371 63.3499 376.733 67.2482 376.675C68.4649 376.624 69.6768 376.844 70.7742 377.317C68.7182 353.642 69.0503 329.849 71.7665 306.228C71.7665 305.812 72.5688 305.906 72.5688 306.228C72.5688 312.498 72.5688 318.768 72.5688 325.114C73.2867 322.489 74.1523 319.883 74.8702 317.408C74.8612 317.388 74.8579 317.367 74.8605 317.345C74.8631 317.324 74.8715 317.303 74.885 317.285C74.8986 317.267 74.9168 317.253 74.9381 317.243C74.9595 317.232 74.9833 317.227 75.0074 317.227C75.0316 317.227 75.0553 317.232 75.0767 317.243C75.098 317.253 75.1162 317.267 75.1298 317.285C75.1433 317.303 75.1518 317.324 75.1544 317.345C75.1569 317.367 75.1536 317.388 75.1447 317.408C73.899 323.074 73.8989 328.986 72.5266 334.576C72.5266 348.817 72.3788 363.058 72.5266 377.298C87.6649 372.369 175.075 358.789 195.196 360.867C196.533 361.078 197.785 361.599 198.827 362.378C199.292 362.699 199.229 363.133 198.975 363.02C197.594 362.269 196.043 361.805 194.436 361.66C173.027 361.566 87.4116 374.692 72.2943 379.659C72.2221 379.723 72.1362 379.772 72.0418 379.805C71.9473 379.837 71.8465 379.852 71.7454 379.848C65.1268 382.04 58.6979 384.667 52.511 387.705C51.6242 388.158 51.6242 387.648 52.4266 387.157Z" fill="#2E2766"/>
<path d="M47.5495 441.777C50.8871 443.956 54.7233 445.446 58.7818 446.14C64.757 447.047 81.0355 441.343 90.9588 438.038C106.182 432.995 120.877 426.857 135.529 420.662C148.789 414.996 162.069 409.538 175.497 404.287C182.535 401.555 189.573 398.873 196.611 396.242C200.939 394.636 214.726 390.273 217.26 388.687C218.041 388.196 217.534 386.704 217.576 385.929C217.576 385.665 218.083 385.552 218.146 385.929C218.506 387.03 218.718 388.165 218.78 389.31C218.785 389.428 218.747 389.544 218.67 389.639C218.594 389.735 218.484 389.805 218.358 389.839C185.378 402.172 153.159 415.77 120.708 429.123C106.714 435.077 92.2978 440.2 77.5517 444.459C71.7878 446.046 64.7358 448.482 58.4018 447.859C56.1693 447.662 54.0057 447.058 52.0446 446.083C50.0836 445.108 48.3669 443.784 47.0005 442.193C46.7472 441.834 47.2117 441.57 47.5495 441.777Z" fill="#2E2766"/>
<path d="M47.4225 374.616C47.4225 374.616 46.0924 377.336 47.0847 378.564C48.3964 379.76 49.8804 380.796 51.4974 381.642C51.4974 381.642 69.3172 378.753 72.6109 378.016C72.9487 377.846 77.9104 376.921 85.7224 375.58C86.5036 361.906 94.7801 355.692 99.9106 353.18C96.1102 353.18 80.5918 353.52 71.1541 354.275C68.9531 354.375 66.7681 354.666 64.63 355.144C59.0983 356.674 45.5223 370.254 45.6279 371.916C45.8285 372.985 46.4686 373.948 47.4225 374.616V374.616Z" fill="#FDD7BC"/>
<path d="M114.606 196.212C117.773 179.611 148.028 178.95 162.174 179.762C180.205 180.782 195.09 184.994 199.524 201.746C203.958 218.499 203.324 236.441 202.142 253.326C202.151 253.942 202.417 254.533 202.887 254.983C203.357 255.433 203.999 255.709 204.685 255.759C205.371 255.809 206.054 255.627 206.599 255.251C207.144 254.874 207.512 254.329 207.632 253.722C208.983 234.25 213.649 197.723 195.09 183.615C176.531 169.507 114.521 167.712 109.116 195.816C108.525 198.932 113.993 199.291 114.606 196.212V196.212Z" fill="#2E2766"/>
<path d="M216.647 263.676C216.463 265.915 215.54 268.054 213.995 269.823C212.45 271.592 210.352 272.91 207.968 273.611C205.584 274.312 203.021 274.364 200.604 273.76C198.187 273.156 196.025 271.923 194.393 270.218C192.76 268.514 191.73 266.413 191.434 264.184C191.137 261.955 191.588 259.697 192.728 257.698C193.868 255.698 195.646 254.046 197.837 252.952C200.028 251.857 202.533 251.37 205.035 251.551C208.367 251.792 211.458 253.202 213.633 255.473C215.809 257.744 216.892 260.693 216.647 263.676Z" fill="#778BFD"/>
<path d="M211.664 263.317C211.547 264.657 210.988 265.937 210.058 266.993C209.128 268.049 207.869 268.835 206.44 269.252C205.01 269.668 203.475 269.696 202.028 269.332C200.581 268.967 199.287 268.228 198.31 267.206C197.333 266.184 196.717 264.926 196.539 263.591C196.361 262.256 196.63 260.903 197.311 259.705C197.993 258.506 199.056 257.515 200.367 256.857C201.678 256.199 203.177 255.904 204.676 256.008C205.671 256.077 206.642 256.321 207.532 256.726C208.422 257.131 209.214 257.688 209.863 258.367C210.512 259.046 211.005 259.832 211.314 260.682C211.623 261.531 211.742 262.426 211.664 263.317V263.317Z" fill="#E4EEF8"/>
<path d="M119.251 251.343C120.285 300.108 115.176 310.855 109.475 315.199C105.265 318.178 100.345 320.252 95.0968 321.261L94.3578 317.9L94.7379 319.58L94.3578 317.9C98.9767 317.015 103.309 315.2 107.026 312.592C111.249 309.457 116.506 299.693 115.471 251.418L119.251 251.343Z" fill="#BDBFE1"/>
<path d="M102.216 316.389L103.117 319.363C103.453 320.474 102.719 321.62 101.476 321.921L93.247 323.914C92.0045 324.215 90.7244 323.558 90.3878 322.447L89.4876 319.473C89.151 318.362 89.8855 317.217 91.1281 316.916L99.3573 314.922C100.6 314.621 101.88 315.278 102.216 316.389Z" fill="#778BFD"/>
<path d="M85.4902 245.223C65.9392 277.557 58.3594 295.915 61.6109 303.036C63.5566 306.862 66.4436 310.245 70.0563 312.932L67.6916 315.633C63.5382 312.57 60.2294 308.693 58.0216 304.301C54.1367 295.821 61.1253 278.218 82.091 243.542L85.4902 245.223Z" fill="#BDBFE1"/>
<path d="M75.5109 317.536L73.1667 319.815C72.2904 320.667 70.8078 320.723 69.8552 319.939L63.5464 314.748C62.5938 313.964 62.5319 312.638 63.4082 311.785L65.7524 309.506C66.6286 308.654 68.1112 308.598 69.0638 309.382L75.3727 314.573C76.3253 315.357 76.3872 316.683 75.5109 317.536Z" fill="#778BFD"/>
<path d="M81.2468 241.862C84.9779 234.59 89.2086 227.532 93.9149 220.727C96.4236 217.803 99.7628 215.533 103.585 214.155C104.345 214.155 105.696 208.376 106.52 203.541C107.322 199.272 108.145 194.286 109.623 193.172C110.447 192.693 111.445 192.518 112.409 192.684C113.374 192.849 114.229 193.342 114.796 194.059C115.746 195.57 114.479 200.481 113.508 204.711C112.389 209.528 111.186 215.401 111.925 215.571C114.699 218.19 116.721 221.372 117.815 224.845C119.436 232.953 120.354 241.162 120.56 249.397C120.433 254.572 118.449 254.78 116.76 254.931C114.332 255.12 113.297 253.458 113.023 247.641C112.579 238.424 113.023 223.088 106.308 221.766C99.5099 220.916 92.6481 235.686 88.172 243.788C85.385 248.85 83.9493 249.095 81.838 248.132C80.3811 247.358 78.9032 246.394 81.2468 241.862Z" fill="#778BFD"/>
<path d="M139.182 168.411C134.073 170.3 116.527 191.189 117.182 194.192C117.836 197.195 115.641 235.119 154.405 249.889L173.407 217.781L192.409 244.034C192.409 244.034 203.346 223.107 202.966 217.894C202.586 212.682 198.046 186.694 175.518 173.756C158.543 164.143 149.844 164.351 139.182 168.411Z" fill="#BDBFE1"/>
<path d="M117.773 193.795C119.758 214.57 129.808 241.541 153.919 248.68C160.57 238.5 167.305 228.528 172.921 217.876C172.966 217.8 173.03 217.735 173.108 217.686C173.186 217.636 173.276 217.604 173.37 217.591C173.464 217.578 173.561 217.585 173.651 217.612C173.742 217.638 173.825 217.683 173.893 217.743C174.062 217.743 187.469 235.119 192.599 243.599C195.542 237.691 197.936 231.576 199.757 225.317C202.691 216.78 201.425 210.208 198.448 201.822C198.448 201.614 198.764 201.463 198.849 201.671C202.311 208.508 204.592 215.307 202.333 222.711C200.37 230.344 197.437 237.752 193.592 244.789C193.536 244.883 193.449 244.958 193.343 245.006C193.237 245.053 193.117 245.07 193 245.054C192.917 245.087 192.824 245.094 192.735 245.073C192.647 245.053 192.569 245.006 192.515 244.94C185.864 236.819 180.417 227.942 173.745 219.764C168.023 230.379 161.562 240.54 155.102 249.983C154.806 250.417 153.687 250.191 153.582 250.153C128.499 243.052 116.802 215.59 117.414 193.795C117.414 193.625 117.752 193.625 117.773 193.795Z" fill="#2E2766"/>
<path d="M194.583 144.236L191.733 193.342L191.311 200.254C191.311 200.254 188.461 214.457 171.865 217.082C155.27 219.708 130.082 199.876 128.203 196.175C127.189 194.286 126.366 176.684 125.775 159.988C125.205 144.028 124.888 128.844 124.888 128.844L132.658 130.562L194.583 144.236Z" fill="#FDD7BC"/>
<path d="M194.583 144.236L191.733 193.342C173.383 190.819 156.077 184.084 141.504 173.794C135.757 169.701 130.513 165.073 125.859 159.988C125.289 144.028 124.972 128.844 124.972 128.844L132.742 130.562L194.583 144.236Z" fill="#DBA89B"/>
<path d="M114.564 60.3035C103.099 83.4586 113.213 141.403 132.911 161.083C146.382 174.549 175.73 178.685 197.645 170.81C207.65 167.456 215.85 160.816 220.575 152.244C235.354 123.801 221.947 55.5818 206.006 44.8542C177.862 25.873 128.604 31.9923 114.564 60.3035Z" fill="#FDD7BC"/>
<path d="M165.975 112.582C165.975 112.45 165.679 112.79 165.7 112.941C166.165 116.548 165.996 120.741 162.449 122.214C162.322 122.214 162.449 122.441 162.449 122.403C166.862 121.459 167.01 115.868 165.975 112.582Z" fill="#2E2766"/>
<path d="M161.985 108.993C155.44 108.993 155.988 120.722 161.985 120.703C167.981 120.684 167.474 108.975 161.985 108.993Z" fill="#2E2766"/>
<path d="M197.645 110.448C197.645 110.316 197.962 110.618 197.962 110.75C197.962 114.395 198.722 118.55 202.459 119.608C202.459 119.608 202.459 119.834 202.459 119.816C197.92 119.419 197.033 113.904 197.645 110.448Z" fill="#2E2766"/>
<path d="M201.087 106.52C207.59 105.84 208.645 117.53 202.607 118.154C196.568 118.777 195.534 107.105 201.087 106.52Z" fill="#2E2766"/>
<path d="M171.591 145.237C172.605 146.049 173.703 147.126 175.096 147.239C176.572 147.145 178.01 146.779 179.319 146.163C179.348 146.15 179.38 146.146 179.412 146.152C179.443 146.157 179.472 146.172 179.493 146.193C179.515 146.214 179.528 146.241 179.531 146.27C179.533 146.298 179.526 146.327 179.509 146.351C178.963 147.063 178.216 147.633 177.345 148.005C176.474 148.376 175.509 148.535 174.547 148.467C173.705 148.315 172.934 147.938 172.338 147.384C171.742 146.831 171.349 146.128 171.211 145.369C171.127 145.199 171.444 145.105 171.591 145.237Z" fill="#DBA89B"/>
<path d="M156.579 103.837C158.281 103.318 159.951 102.719 161.583 102.043C163.44 101.637 165.095 100.695 166.291 99.3612C166.569 98.8741 166.662 98.3191 166.556 97.7805C166.449 97.2419 166.149 96.7491 165.7 96.3771C164.685 95.7659 163.506 95.4085 162.285 95.3421C161.063 95.2757 159.844 95.5026 158.754 95.9994C156.37 96.7002 154.361 98.1673 153.117 100.117C152.861 100.576 152.76 101.092 152.826 101.602C152.892 102.112 153.123 102.594 153.49 102.988C153.857 103.383 154.345 103.673 154.894 103.824C155.442 103.975 156.028 103.979 156.579 103.837V103.837Z" fill="#2E2766"/>
<path d="M205.879 100.438C204.106 100.167 202.351 99.8073 200.622 99.3613C198.744 99.2336 196.961 98.5718 195.534 97.4727C195.164 97.0384 194.964 96.5076 194.964 95.9617C194.964 95.4158 195.164 94.885 195.534 94.4508C196.425 93.6971 197.525 93.1702 198.721 92.9245C199.916 92.6788 201.163 92.7232 202.332 93.0532C204.816 93.3829 207.074 94.5274 208.666 96.2639C209.007 96.6828 209.202 97.1818 209.228 97.699C209.253 98.2162 209.109 98.7289 208.812 99.1733C208.515 99.6178 208.079 99.9745 207.558 100.199C207.037 100.424 206.453 100.507 205.879 100.438V100.438Z" fill="#2E2766"/>
<path d="M185.843 136.908C185.843 136.908 182.549 144.463 176.109 143.046C171.232 142.045 173.576 133.244 173.576 133.244C173.576 133.244 179.931 137.437 185.843 136.908Z" fill="white"/>
<path d="M173.217 133.584C174.31 134.981 175.715 136.16 177.343 137.048C178.971 137.935 180.787 138.511 182.676 138.74C184.328 138.957 186.006 138.957 187.658 138.74C187.98 138.727 188.298 138.682 188.609 138.608L189.495 138.457C189.706 138.412 189.895 138.306 190.032 138.156C190.169 138.006 190.248 137.82 190.255 137.626V137.626C190.276 137.507 190.276 137.386 190.255 137.267V136.908C190.255 134.113 189.707 129.882 189.707 129.882C190.868 130.354 196.801 132.47 196.632 131.015C195.28 118.966 193.76 105.575 189.559 93.8464C189.529 93.7704 189.47 93.7062 189.393 93.6653C189.315 93.6244 189.224 93.6095 189.136 93.6231C189.047 93.6367 188.966 93.6779 188.909 93.7396C188.851 93.8012 188.819 93.8792 188.82 93.9597C189.622 105.594 192.705 117.002 193.697 128.674C191.589 127.875 189.363 127.354 187.088 127.125C186.645 127.257 188.207 135.303 188.123 136.568C188.128 136.618 188.128 136.669 188.123 136.719C182.908 137.512 178.875 136.228 173.639 133.263C173.259 133.055 172.964 133.357 173.217 133.584Z" fill="#DBA89B"/>
<path d="M208.856 61.0213C222.665 80.6446 224.691 112.355 227.542 103.365C236.895 73.7509 220.321 56.6018 220.321 56.6018C220.321 56.6018 207.209 58.6605 208.856 61.0213Z" fill="#2E2766"/>
<path d="M118.786 122.233C118.786 122.233 143.827 117.795 136.416 70.1248C150.96 75.5918 166.88 77.4575 182.507 75.5264C209.954 72.4667 224.734 62.079 233.285 45.3076C236.114 39.8116 221.292 47.5552 214.768 45.0432C203.24 40.5482 191.902 27.0064 160.654 27.5919C129.407 28.1774 121.13 47.0452 121.13 47.0452C121.13 47.0452 104.239 51.6725 97.6308 64.7421C91.0223 77.8117 102.635 122.214 118.786 122.233Z" fill="#2E2766"/>
<path d="M127.57 120.609C127.57 120.609 114.902 101.363 105.147 105.292C95.3927 109.22 104.007 136.474 114.606 140.912C115.92 141.555 117.366 141.953 118.857 142.082C120.348 142.212 121.852 142.07 123.28 141.666C124.708 141.262 126.03 140.604 127.166 139.731C128.303 138.858 129.23 137.789 129.892 136.587L127.57 120.609Z" fill="#FDD7BC"/>
<path d="M107.807 113.054C107.639 113.054 107.575 113.243 107.807 113.3C115.218 116.586 118.702 123.196 120.961 129.958C118.85 127.276 115.936 125.689 111.946 127.842C111.735 127.956 111.946 128.258 112.115 128.22C113.492 127.929 114.935 128.027 116.248 128.501C117.56 128.974 118.675 129.8 119.441 130.864C120.715 132.646 121.77 134.546 122.587 136.53C122.882 137.154 124.149 136.927 123.938 136.19C123.945 136.14 123.945 136.089 123.938 136.039C124.74 127.333 118.195 114.622 107.807 113.054Z" fill="#DBA89B"/>
<path d="M142.412 165.163C131.391 160.762 120.285 155.719 113.107 146.276C107.68 139.643 104.065 131.965 102.55 123.857C103.532 127.078 104.95 130.18 106.773 133.093C108.633 136.106 111.095 138.788 114.036 141.007C114.036 141.007 114.036 141.007 114.036 141.007C120.737 151.078 130.845 158.982 142.898 163.576C144.017 163.897 143.51 165.597 142.412 165.163Z" fill="white"/>
<path d="M130.863 127.238C128.9 125.047 122.777 113.734 117.308 109.503C116.477 108.753 115.603 108.04 114.69 107.369C113.228 106.241 111.505 105.415 109.644 104.952C111.163 104.397 112.833 104.266 114.437 104.574C122.882 106.009 128.562 121.081 131.644 126.785C131.813 127.125 131.201 127.691 130.863 127.238Z" fill="white"/>
<path d="M129.005 124.688C127.591 121.874 150.288 131.62 173.956 127.257C178.791 126.369 192.282 121.591 199.799 121.591C207.315 121.591 216.098 127.03 226.465 128.031C230.033 128.371 226.951 155.852 217.893 167.882C214.895 171.83 202.206 179.932 194.436 180.65C176.194 182.312 144.946 170.678 140.195 165.238C136.416 160.8 142.454 151.338 129.005 124.688Z" fill="white"/>
<path d="M223.995 133.962C217.398 131.4 210.529 129.438 203.493 128.107C197.413 127.03 191.902 129.032 186.138 130.864C170.683 135.775 155.101 135.227 139.52 131.242C139.351 131.242 139.266 131.488 139.52 131.563C151.825 136.282 165.511 137.296 178.516 134.453C185.547 132.98 192.641 129.58 199.967 129.977C207.99 130.43 215.781 133.754 223.72 135.076C224.375 135.246 224.649 134.226 223.995 133.962Z" fill="#BDBFE1"/>
<path d="M212.424 165.748C207.505 167.863 202.67 170.98 197.645 172.472C191.522 174.247 184.301 172.472 178.263 171.169C166.84 168.77 155.861 164.577 144.692 161.121C144.692 161.121 144.566 161.234 144.692 161.272C156.886 166.887 169.888 170.967 183.33 173.397C187.806 174.096 192.726 175.116 197.18 173.926C202.543 172.472 207.906 168.902 212.657 166.031C212.72 165.956 212.636 165.691 212.424 165.748Z" fill="#BDBFE1"/>
<path d="M220.089 143.216C208.476 140.157 197.645 140.912 185.843 142.329C172.506 143.869 158.989 143.64 145.727 141.649C145.6 141.649 145.558 141.838 145.727 141.856C157.522 144.077 169.63 144.644 181.62 143.537C187.405 142.99 193.19 142.008 198.996 141.649C206.121 141.408 213.244 142.16 220.11 143.877C220.342 143.972 220.511 143.33 220.089 143.216Z" fill="#BDBFE1"/>
<path d="M217.365 153.755C207.063 159.069 195.173 161.399 183.33 160.422C171.253 159.421 159.641 155.341 148.113 151.791C147.944 151.791 147.902 151.98 148.113 152.036C171.338 160.781 194.711 166.692 217.788 154.378C218.125 154.133 217.809 153.528 217.365 153.755Z" fill="#BDBFE1"/>
</g>
</g>
</g>
<defs>
<filter id="filter0_d_308_4" x="82.9858" y="233.363" width="213.743" height="221.219" filterUnits="userSpaceOnUse" color-interpolation-filters="sRGB">
<feFlood flood-opacity="0" result="BackgroundImageFix"/>
<feColorMatrix in="SourceAlpha" type="matrix" values="0 0 0 0 0 0 0 0 0 0 0 0 0 0 0 0 0 0 127 0" result="hardAlpha"/>
<feOffset dy="4"/>
<feGaussianBlur stdDeviation="2"/>
<feComposite in2="hardAlpha" operator="out"/>
<feColorMatrix type="matrix" values="0 0 0 0 0 0 0 0 0 0 0 0 0 0 0 0 0 0 0.25 0"/>
<feBlend mode="normal" in2="BackgroundImageFix" result="effect1_dropShadow_308_4"/>
<feBlend mode="normal" in="SourceGraphic" in2="effect1_dropShadow_308_4" result="shape"/>
</filter>
<filter id="filter1_d_308_4" x="14.5186" y="229.623" width="207.637" height="225.203" filterUnits="userSpaceOnUse" color-interpolation-filters="sRGB">
<feFlood flood-opacity="0" result="BackgroundImageFix"/>
<feColorMatrix in="SourceAlpha" type="matrix" values="0 0 0 0 0 0 0 0 0 0 0 0 0 0 0 0 0 0 127 0" result="hardAlpha"/>
<feOffset dy="4"/>
<feGaussianBlur stdDeviation="2"/>
<feComposite in2="hardAlpha" operator="out"/>
<feColorMatrix type="matrix" values="0 0 0 0 0 0 0 0 0 0 0 0 0 0 0 0 0 0 0.25 0"/>
<feBlend mode="normal" in2="BackgroundImageFix" result="effect1_dropShadow_308_4"/>
<feBlend mode="normal" in="SourceGraphic" in2="effect1_dropShadow_308_4" result="shape"/>
</filter>
<clipPath id="clip0_308_4">
<rect width="274.137" height="582.92" fill="white" transform="matrix(-1 0 0 1 292.656 27.5918)"/>
</clipPath>
</defs>
</svg>
