<svg width="88" height="104" viewBox="0 0 88 104" fill="none" xmlns="http://www.w3.org/2000/svg">
<mask id="mask0_14_19111" style="mask-type:alpha" maskUnits="userSpaceOnUse" x="0" y="0" width="88" height="104">
<rect width="88" height="104" fill="#C4C4C4"/>
</mask>
<g mask="url(#mask0_14_19111)">
<g clip-path="url(#clip0_14_19111)">
<path d="M55.9801 25.8379C55.9801 25.8379 68.0005 32.3487 70.752 40.7384C75.1572 54.2071 71.5233 75.5342 60.8786 72.9039C52.235 70.766 59.072 53.041 54.1457 48.4542C49.2194 43.8675 43.3551 39.054 49.2264 25.9545L55.9801 25.8379Z" fill="#2E2766"/>
<path d="M56.0566 25.9937V26.052C62.588 29.0839 68.1118 33.4374 71.2455 39.7021C72.9982 43.2602 73.8998 47.1311 73.8878 51.0465C73.8758 54.9619 72.9505 58.828 71.176 62.3767C71.1343 62.4545 71.2594 62.5192 71.3011 62.4415C78.5134 49.0116 72.246 30.6258 56.0566 25.9937Z" fill="#2E2766"/>
<path d="M54.0764 50.2034C52.8813 48.0331 51.0192 46.3164 49.5183 44.3339C45.398 38.9244 46.6209 32.2905 49.1084 26.5117C49.1084 26.4404 49.0042 26.3886 48.9694 26.4599C46.4472 31.1891 45.0159 36.6181 47.1768 41.7296C48.0523 43.8027 49.567 45.4871 51.1025 47.1521C52.2756 48.3078 53.3015 49.586 54.1598 50.9614C55.2159 52.905 55.4382 55.0623 55.6745 57.1678C55.6745 57.2067 55.737 57.2067 55.7301 57.1678C55.5633 54.7513 55.2854 52.3932 54.0764 50.2034Z" fill="#2E2766"/>
<path d="M12.4847 76.4347C12.4847 76.4347 0.387753 98.5846 0.471132 104.396C0.554511 110.207 2.01364 115.305 4.3691 115.876C6.72456 116.446 16.2923 105.348 17.8418 103.748C19.3912 102.148 25.8322 82.7318 27.8472 79.1945C29.8622 75.6573 17.1469 71.4851 12.4847 76.4347Z" fill="#FDD7BC"/>
<path d="M40.0757 51.6221C35.3578 53.3453 27.6036 55.8525 25.5538 57.8803C23.5041 59.908 3.38199 84.2217 2.9512 86.3855C2.52041 88.5493 12.3591 97.0944 16.8477 97.8977C20.401 98.4518 24.0489 97.7743 27.1033 95.9931C28.5068 95.0343 40.0757 51.6221 40.0757 51.6221Z" fill="#C0DCD9"/>
<path d="M87.8592 189.179C75.6928 197.167 42.9179 199.04 36.602 197.679C30.286 196.319 15.1527 190.838 13.7631 188.946C12.3734 187.054 10.6642 161.911 12.7487 147.989C13.7145 141.511 16.3687 130.873 18.8909 121.298C21.0657 113.044 23.1293 105.601 23.9145 102.297C24.1095 101.718 24.2125 101.115 24.2202 100.509C23.6921 100.191 16.3895 91.3286 17.8487 85.3036C19.3078 79.2787 36.8869 53.5591 40.0275 51.6156C43.1681 49.6721 48.1291 50.8188 52.8887 51.201C58.2805 51.6415 69.2657 59.623 70.6762 63.9441C71.8296 67.4878 72.6147 91.2444 73.1359 100.36C73.1622 101.536 73.2597 102.711 73.4277 103.877C73.782 104.843 76.6864 117.074 79.3406 127.012C80.4315 131.087 81.4737 134.786 82.2936 137.144C85.1216 145.34 90.1035 187.728 87.8592 189.179Z" fill="#C0DCD9"/>
<path d="M27.3462 68.6026C27.3579 68.574 27.3584 68.5424 27.3475 68.5135C27.3366 68.4846 27.3151 68.4602 27.2868 68.4446C27.2585 68.4291 27.2252 68.4234 27.1928 68.4286C27.1604 68.4338 27.1311 68.4496 27.1099 68.473C25.5188 70.6433 24.0944 72.9302 22.7047 75.256C23.1981 73.8178 23.7817 72.4119 24.421 70.9931C24.4173 70.9847 24.4111 70.9775 24.4031 70.9724C24.395 70.9673 24.3855 70.9646 24.3758 70.9646C24.3661 70.9646 24.3566 70.9673 24.3485 70.9724C24.3405 70.9775 24.3342 70.9847 24.3306 70.9931C23.2874 72.7334 22.5065 74.5995 22.0099 76.5387C21.8223 76.8626 21.6278 77.1866 21.4471 77.5234C19.9741 80.1796 18.2996 83.1014 17.6742 86.0621C16.6042 91.1347 20.4188 97.2763 24.1152 100.781C24.2542 100.911 24.4557 100.716 24.3306 100.574C20.2451 95.9482 16.9169 90.0787 19.2862 84.0537C21.3637 78.6636 24.3306 73.591 27.3462 68.6026Z" fill="#2E2766"/>
<path d="M79.3684 127.018C77.3766 127.289 75.37 127.456 73.3582 127.517C66.5585 127.738 59.7526 127.303 53.0485 126.222C45.9928 125.201 39.0792 123.459 32.4331 121.026C30.0896 120.068 27.4874 119.804 24.9776 120.268C23.4698 120.501 21.969 120.812 20.4612 121.065C19.9471 121.149 19.4468 121.233 18.9326 121.298C21.1074 113.044 23.171 105.601 23.9562 102.297C27.333 101.5 30.8141 100.969 34.1354 100.301C39.416 99.2453 43.9602 103.78 49.5813 103.696C56.7866 103.586 65.0898 97.8654 71.7184 99.8867C72.2117 100.042 72.6981 100.198 73.1776 100.366C73.1904 101.54 73.2739 102.712 73.4277 103.877C73.8098 104.849 76.7142 117.081 79.3684 127.018Z" fill="#A2C8C3"/>
<path d="M37.3933 104.208C35.0068 97.1226 34.5884 89.5883 36.1774 82.3109C37.7767 75.2595 40.0103 68.3463 42.8546 61.6446C42.8894 61.5539 42.7296 61.4891 42.6879 61.5798C39.3855 68.7374 36.9704 76.2232 35.4895 83.8916C34.2458 90.3312 34.0512 97.7685 36.9625 103.884C36.8722 103.884 30.188 167.697 37.6087 197.025C37.6504 197.206 37.9422 197.129 37.9005 196.947C30.7508 167.412 37.4281 104.312 37.3933 104.208Z" fill="#2E2766"/>
<path d="M42.7162 71.6345C42.5008 71.9908 41.667 72.3212 41.3891 71.7576C41.1111 71.194 41.6322 70.4619 42.2993 70.7535C42.3159 70.762 42.3354 70.7641 42.3537 70.7593C42.3719 70.7544 42.3873 70.743 42.3966 70.7275C42.4058 70.7121 42.408 70.6938 42.4028 70.6768C42.3976 70.6598 42.3853 70.6454 42.3688 70.6368C41.4794 70.1121 40.6734 71.2069 41.0347 71.9714C41.396 72.7359 42.8273 72.4962 42.7787 71.654C42.7787 71.6216 42.7301 71.6086 42.7162 71.6345Z" fill="#2E2766"/>
<path d="M39.3812 91.2707C39.1658 91.6206 38.332 91.951 38.0541 91.3938C37.7762 90.8367 38.2973 90.0981 38.9574 90.3832C39.0407 90.4156 39.1102 90.3184 39.0338 90.273C38.1444 89.7418 37.3384 90.8431 37.6997 91.6011C38.061 92.3591 39.4924 92.1259 39.4437 91.2837L39.3812 91.2707Z" fill="#2E2766"/>
<path d="M40.9027 101.642C40.6873 101.992 39.8466 102.29 39.5756 101.765C39.3046 101.241 39.8118 100.47 40.4789 100.761C40.5622 100.794 40.6317 100.69 40.5553 100.645C39.6659 100.12 38.8599 101.215 39.2212 101.979C39.5825 102.744 41.0139 102.497 40.9652 101.662C40.9652 101.629 40.9166 101.61 40.9027 101.642Z" fill="#2E2766"/>
<path d="M40.263 81.4558C40.0476 81.8121 39.2139 82.1425 38.9359 81.5789C38.658 81.0152 39.1791 80.2832 39.8392 80.5747C39.8551 80.5787 39.872 80.5777 39.8873 80.572C39.9026 80.5663 39.9155 80.5561 39.9241 80.543C39.9327 80.5299 39.9365 80.5145 39.935 80.4992C39.9335 80.4839 39.9267 80.4695 39.9156 80.4581C39.0263 79.9333 38.2203 81.0347 38.5816 81.7926C38.9429 82.5506 40.3742 82.3174 40.3256 81.4752C40.3256 81.4428 40.2769 81.4299 40.263 81.4558Z" fill="#2E2766"/>
<path d="M39.43 100.496C35.261 99.6344 31.6202 100.749 27.618 101.416C27.5832 101.416 27.618 101.468 27.618 101.468C29.2379 101.398 30.8486 101.2 32.4331 100.878C34.74 100.627 37.0687 100.601 39.3814 100.801C39.4215 100.801 39.4604 100.788 39.4909 100.763C39.5214 100.739 39.5414 100.705 39.5473 100.668C39.5532 100.631 39.5446 100.593 39.5231 100.562C39.5015 100.53 39.4685 100.507 39.43 100.496V100.496Z" fill="#2E2766"/>
<path d="M59.461 100.263C55.7159 102.984 51.4149 104.098 46.7387 103.087C43.0145 102.284 39.7488 100.787 35.8995 101.83C35.8439 101.83 35.8508 101.934 35.8995 101.928C40.9231 101.435 45.3282 104.338 50.2962 104.279C53.8513 104.243 57.2471 102.899 59.7459 100.541C59.9543 100.353 59.6694 100.107 59.461 100.263Z" fill="#2E2766"/>
<path d="M57.2438 73.0475L25.1827 75.269C23.6175 75.3774 22.4429 76.6484 22.5592 78.1077L25.7878 118.616C25.9041 120.075 27.2672 121.171 28.8324 121.062L60.8936 118.841C62.4587 118.732 63.6333 117.461 63.517 116.002L60.2884 75.4935C60.1721 74.0342 58.809 72.9391 57.2438 73.0475Z" fill="#DD9168"/>
<path d="M48.9653 71.2606L33.4221 72.3223C32.7753 72.3665 32.2894 72.8912 32.3368 73.4943L32.5622 76.363C32.6096 76.9661 33.1723 77.4191 33.8191 77.375L49.3623 76.3133C50.0091 76.2691 50.495 75.7444 50.4477 75.1413L50.2223 72.2726C50.1749 71.6695 49.6121 71.2165 48.9653 71.2606Z" fill="#BDBFE1"/>
<path d="M45.8636 68.8938L46.0651 71.4852L43.8625 71.6342L43.7722 70.4421C43.7473 70.1401 43.5952 69.8595 43.3492 69.6616C43.1031 69.4637 42.7831 69.3647 42.459 69.3861L39.5546 69.587C39.2312 69.6085 38.9303 69.7489 38.7179 69.9773C38.5055 70.2057 38.3991 70.5034 38.422 70.8049L38.5124 71.997L36.3098 72.1524L36.1083 69.5611C36.0912 69.3445 36.1201 69.1269 36.1933 68.9208C36.2666 68.7147 36.3826 68.5241 36.5349 68.3598C36.6872 68.1955 36.8728 68.0609 37.0809 67.9635C37.2891 67.8662 37.5158 67.808 37.7481 67.7924L44.0015 67.3649C44.4643 67.3433 44.9179 67.4911 45.2657 67.7766C45.6134 68.0621 45.828 68.463 45.8636 68.8938Z" fill="#BDBFE1"/>
<path d="M78.5343 82.9718C80.9523 84.6692 84.0513 109.274 84.2319 112.06C84.4126 114.846 80.8481 120.178 79.8962 120.404C78.9443 120.631 69.8282 117.483 67.6117 114.749C65.3952 112.015 64.1376 87.3642 64.617 85.8612C65.0964 84.3582 76.2831 81.391 78.5343 82.9718Z" fill="#FDD7BC"/>
<path d="M63.3173 56.1377C64.5055 57.5694 75.2405 62.8947 77.2138 66.432C79.1871 69.9692 86.1076 95.8572 86.7607 97.3666C87.4138 98.8761 79.1941 102.958 74.9487 103.664C70.7033 104.37 64.7973 102.88 62.7059 101.83C60.6145 100.781 63.3173 56.1377 63.3173 56.1377Z" fill="#C0DCD9"/>
<path d="M61.5043 77.9637C61.5043 77.9534 61.4999 77.9435 61.4921 77.9362C61.4842 77.9289 61.4736 77.9248 61.4626 77.9248C61.4515 77.9248 61.4409 77.9289 61.4331 77.9362C61.4253 77.9435 61.4209 77.9534 61.4209 77.9637C61.8864 85.9192 62.0601 93.9072 61.8239 101.876C61.8239 101.943 61.8524 102.007 61.9033 102.054C61.9541 102.102 62.023 102.128 62.0949 102.128C62.1667 102.128 62.2357 102.102 62.2865 102.054C62.3373 102.007 62.3659 101.943 62.3659 101.876C62.8019 93.8966 62.5137 85.8975 61.5043 77.9637V77.9637Z" fill="#2E2766"/>
<path d="M73.2464 66.0626C70.4825 66.9531 68.0336 68.5337 66.1665 70.6321C64.2993 72.7305 63.0855 75.2664 62.6572 77.9636C62.6572 78.0219 62.7406 78.0478 62.7545 77.9636C63.2658 75.3124 64.5011 72.8288 66.3412 70.7522C68.1814 68.6756 70.5643 67.0761 73.2603 66.108C73.3019 66.1015 73.288 66.0497 73.2464 66.0626Z" fill="#2E2766"/>
<path d="M80.0763 120.32C78.1447 121.564 58.3144 122.263 48.4062 120.618C41.5998 119.348 34.9129 117.574 28.4092 115.312C23.6844 113.66 20.2103 112.073 20.1825 111.172C20.113 109.132 24.4556 104.694 27.2419 104.985C30.0281 105.277 46.4816 103.852 52.4084 104.208C57.1958 104.493 61.9206 104.668 65.895 104.966C69.8694 105.264 73.2323 105.705 74.9694 106.534C78.4018 108.166 80.0763 120.32 80.0763 120.32Z" fill="#FDD7BC"/>
<path d="M65.895 104.966C64.4182 106.019 62.8778 106.993 61.2813 107.881C56.5141 110.524 51.3364 112.463 45.9327 113.628C40.2133 114.996 34.3076 115.563 28.4092 115.312C23.6844 113.66 20.2103 112.073 20.1825 111.172C20.113 109.132 24.4556 104.694 27.2419 104.985C30.0281 105.277 46.4816 103.852 52.4084 104.208C57.1958 104.525 61.9206 104.668 65.895 104.966Z" fill="#BC847A"/>
<path d="M4.36914 115.876C9.23291 118.415 46.5033 108.749 48.8379 107.337C49.5327 106.916 59.4757 106.521 61.178 106.313C62.8803 106.106 65.7569 104.402 65.9236 103.456C66.0153 102.718 65.8829 101.971 65.5415 101.299C65.3747 100.917 66.5003 99.4332 66.3892 98.7529C66.1282 98.0439 65.7709 97.369 65.3261 96.7446C65.1385 96.3624 65.5762 94.665 65.3261 94.1532C65.0759 93.6414 63.9364 93.1037 63.5473 92.6826C63.1582 92.2615 63.8809 91.6979 63.0818 91.2509C60.8097 89.9552 49.5675 95.4813 47.8513 96.019C46.135 96.5567 30.4181 96.6669 26.3117 97.1333C22.2053 97.5998 15.5141 97.9626 11.2687 101.506C7.02337 105.05 4.36914 115.876 4.36914 115.876Z" fill="#FDD7BC"/>
<path d="M19.6339 97.8461C13.6654 97.7295 9.21155 102.997 6.89084 107.564C6.88628 107.571 6.88338 107.58 6.8823 107.589C6.88123 107.597 6.88201 107.606 6.88459 107.615C6.88717 107.623 6.8915 107.631 6.89735 107.638C6.90319 107.645 6.91042 107.65 6.91863 107.655C6.92684 107.659 6.93587 107.661 6.94521 107.662C6.95454 107.663 6.96399 107.663 6.97303 107.66C6.98206 107.658 6.99049 107.654 6.99785 107.648C7.00521 107.643 7.01134 107.636 7.01591 107.629C10.2468 102.835 13.6445 99.5111 19.6687 98.1247C19.7083 98.1204 19.7445 98.1016 19.7692 98.0725C19.794 98.0433 19.8053 98.0062 19.8007 97.9692C19.7961 97.9323 19.7759 97.8986 19.7446 97.8755C19.7134 97.8524 19.6735 97.8418 19.6339 97.8461V97.8461Z" fill="#BC847A"/>
<path d="M47.7193 45.3773C42.2996 46.5628 39.2215 50.1066 37.4567 51.7067C35.6918 53.3069 30.5779 63.4652 30.5918 65.2143C30.6057 66.9635 40.1387 59.3449 42.1746 59.3837C43.5642 59.3837 48.6434 69.7493 51.2073 69.2245C54.459 68.5767 60.4206 59.7271 60.4484 55.0108C60.4484 53.4494 57.822 49.4652 55.4318 47.4374C52.7011 45.1181 50.04 44.8784 47.7193 45.3773Z" fill="#C0DCD9"/>
<path d="M60.5248 55.2893H60.4622C58.4959 62.7395 52.5134 69.0366 51.1933 69.218C49.6785 69.4253 42.9943 59.1181 42.2161 59.0598C40.7709 58.9561 31.0434 65.2273 30.9322 65.1301C30.821 65.0329 32.0856 60.8867 36.6923 52.6979C36.6923 52.659 36.6575 52.6267 36.6367 52.6979C31.2935 60.3036 29.6884 66.0695 30.3833 66.063C31.3421 66.063 37.9152 61.6965 41.9035 59.7659C43.8003 62.2472 49.477 69.9371 50.8667 69.9371C53.5557 69.9242 60.1287 60.8284 60.5248 55.2893Z" fill="#2E2766"/>
<path d="M58.4951 33.9102C58.4951 33.9102 58.1268 37.4085 57.6543 41.49C57.5848 42.0277 57.5292 42.5719 57.4598 43.1225C56.8692 48.0656 55.3753 54.2331 55.0418 54.7838C54.4234 55.8981 49.0663 60.7504 44.7653 60.0896C40.4643 59.4288 41.1175 55.5094 41.1175 55.5094L41.2009 53.4751L41.3329 49.4585L41.7081 38.9828L56.4036 34.4803L58.4951 33.9102Z" fill="#FDD7BC"/>
<path d="M58.4952 33.9102C58.4952 33.9102 58.1269 37.4085 57.6544 41.49C53.3187 46.284 47.51 49.899 41.333 49.4585L41.7082 38.9828L56.4038 34.4803L58.4952 33.9102Z" fill="#BC847A"/>
<path d="M26.4015 20.5322C26.4015 20.5322 30.0633 39.4169 22.7051 47.0421C22.7051 47.0421 30.6191 42.8894 30.7581 28.1379L26.4015 20.5322Z" fill="#2E2766"/>
<path d="M34.1554 3.83691C34.1554 3.83691 27.624 4.70503 25.5604 12.2136C23.8442 18.4588 27.8186 24.5227 28.6315 25.1705C30.0768 26.2589 37.7893 7.99609 34.1554 3.83691Z" fill="#2E2766"/>
<path d="M26.8252 24.0435C25.7274 42.5913 36.8029 44.1915 40.1519 44.9236C43.9596 45.7204 58.9886 45.9536 62.1362 27.6131C65.2838 9.27258 56.39 2.93016 47.5449 2.04261C38.6998 1.15506 27.93 5.49563 26.8252 24.0435Z" fill="#FDD7BC"/>
<path d="M43.2306 26.0972C43.2306 26.0519 43.3209 26.175 43.3139 26.2268C43.0638 27.4707 43.0013 28.9348 44.1477 29.5244C44.1477 29.5244 44.1477 29.6021 44.1477 29.5891C42.6747 29.181 42.7789 27.2439 43.2306 26.0972Z" fill="#2E2766"/>
<path d="M44.641 24.9698C46.8227 25.1253 46.3224 29.1808 44.3005 29.0383C42.2786 28.8958 42.8136 24.8403 44.641 24.9698Z" fill="#2E2766"/>
<path d="M33.8777 25.2484C33.8777 25.1966 33.7734 25.3067 33.7734 25.3585C33.7734 26.6542 33.5928 28.073 32.3838 28.4747C32.3838 28.4747 32.3838 28.5524 32.3838 28.5459C33.8707 28.371 34.1209 26.4404 33.8777 25.2484Z" fill="#2E2766"/>
<path d="M32.6901 23.9073C30.5153 23.7259 30.2721 27.7943 32.294 27.9757C34.316 28.1571 34.5175 24.0627 32.6901 23.9073Z" fill="#2E2766"/>
<path d="M40.2838 35.1281C39.9642 35.4261 39.6515 35.8407 39.1582 35.8925C38.6529 35.8928 38.1533 35.7934 37.6921 35.601C37.682 35.5972 37.6709 35.5966 37.6604 35.5993C37.6499 35.6021 37.6407 35.6081 37.6343 35.6163C37.6279 35.6245 37.6246 35.6345 37.625 35.6446C37.6254 35.6548 37.6295 35.6645 37.6365 35.6723C37.8371 35.9157 38.1042 36.1042 38.4098 36.2182C38.7154 36.3322 39.0483 36.3674 39.3736 36.3201C39.6445 36.2486 39.8872 36.1052 40.0722 35.9073C40.2573 35.7095 40.3766 35.4658 40.4158 35.2058C40.4367 35.1087 40.3324 35.0827 40.2838 35.1281Z" fill="#BC847A"/>
<path d="M36.1777 30.995C36.1777 30.995 35.8303 32.8738 35.7955 33.7613C35.7955 33.8455 36.0248 33.8909 36.3444 33.9233H36.3861C37.2007 34.088 38.0481 34.041 38.8359 33.7873C39.6238 33.5337 40.3218 33.0833 40.8538 32.4851C40.9233 32.4008 40.8052 32.3037 40.7149 32.3555C39.4736 33.0892 38.0115 33.43 36.5459 33.3273C36.4903 33.0811 37.2408 30.1334 37.1157 30.088C36.3708 30.1257 35.6346 30.2565 34.927 30.4767C35.5384 26.5443 36.8169 22.7026 37.3589 18.8155C37.3616 18.7869 37.3534 18.7582 37.3359 18.7346C37.3183 18.711 37.2924 18.6938 37.2627 18.6861C37.233 18.6784 37.2013 18.6807 37.1732 18.6925C37.1451 18.7043 37.1223 18.7249 37.1087 18.7507C35.469 22.6378 34.663 27.1727 33.9195 31.2153C33.8222 31.7336 35.7955 31.1311 36.1777 30.995Z" fill="#BC847A"/>
<path d="M32.0438 20.5516C32.511 20.5047 32.9749 20.4333 33.4335 20.3378C33.9229 20.322 34.3936 20.1583 34.7745 19.8713C34.8732 19.7564 34.9269 19.6136 34.9269 19.4664C34.9269 19.3192 34.8732 19.1764 34.7745 19.0615C34.5564 18.8523 34.2823 18.7012 33.9806 18.6237C33.6789 18.5463 33.3605 18.5453 33.0583 18.621C32.4206 18.683 31.8309 18.9649 31.4046 19.4114C31.3116 19.5175 31.2541 19.6467 31.2392 19.783C31.2243 19.9193 31.2527 20.0567 31.3207 20.1781C31.3888 20.2995 31.4936 20.3997 31.6222 20.466C31.7507 20.5324 31.8973 20.5622 32.0438 20.5516V20.5516Z" fill="#2E2766"/>
<path d="M46.5095 21.7762C46.0578 21.6661 45.6548 21.4976 45.2171 21.3486C44.7398 21.2648 44.3053 21.0372 43.9803 20.7008C43.8982 20.575 43.8644 20.4269 43.8846 20.2809C43.9048 20.1349 43.9778 19.9996 44.0915 19.8974C44.3439 19.7248 44.6413 19.6181 44.9528 19.5885C45.2643 19.5589 45.5786 19.6074 45.8633 19.729C46.4815 19.8908 47.0121 20.263 47.3502 20.772C47.4138 20.8913 47.44 21.0249 47.4256 21.1575C47.4113 21.29 47.357 21.416 47.2691 21.5211C47.1812 21.6261 47.0632 21.7057 46.9288 21.7509C46.7944 21.796 46.649 21.8048 46.5095 21.7762V21.7762Z" fill="#2E2766"/>
<path d="M60.7049 28.6757C57.4045 28.8506 55.591 20.5323 55.591 20.5323C55.591 20.5323 33.579 16.9627 34.1557 3.83729C34.1557 3.83729 47.0794 -4.84386 58.8497 4.69892C70.6201 14.2417 63.6996 28.5202 60.7049 28.6757Z" fill="#2E2766"/>
<path d="M56.5709 20.5906C51.2694 20.2537 46.0374 19.2949 41.6392 16.3407C37.0325 13.2375 35.1286 8.97468 34.2671 3.92147C34.2671 3.86964 34.1837 3.92147 34.1767 3.92147C33.5653 8.64427 36.9838 13.4966 40.7706 16.2889C45.1758 19.5281 51.0123 20.9922 56.5779 20.8238C56.6111 20.8229 56.6425 20.8098 56.6653 20.7873C56.6881 20.7649 56.7004 20.7349 56.6995 20.7039C56.6986 20.673 56.6845 20.6437 56.6604 20.6224C56.6363 20.6012 56.6041 20.5897 56.5709 20.5906V20.5906Z" fill="#2E2766"/>
<path d="M65.9095 31.9665C65.9009 31.9935 65.8892 32.0195 65.8747 32.0442C65.0479 33.8841 63.8528 35.5037 62.5882 36.0738C62.5354 36.1029 62.4795 36.1268 62.4215 36.1451C62.0146 36.3332 61.571 36.4423 61.1175 36.4659C60.6641 36.4895 60.2102 36.427 59.7834 36.2822C59.3566 36.1375 58.9658 35.9135 58.6345 35.6237C58.3033 35.334 58.0386 34.9846 57.8564 34.5967L58.7875 29.6342C58.7875 29.6342 58.8987 29.4787 59.1002 29.2196C59.3017 28.9605 59.3573 28.8762 59.4893 28.7143C59.8228 28.3191 60.2466 27.8138 60.733 27.3214C61.4061 26.6077 62.1798 25.9822 63.0329 25.4621C63.9709 24.9309 64.9298 24.6912 65.8122 25.0993C67.5076 25.8573 67.1741 29.1548 65.9095 31.9665Z" fill="#FDD7BC"/>
<path d="M64.8946 27.4644C64.9433 27.4644 64.9572 27.5291 64.8946 27.5486C62.6017 28.4944 61.4205 30.5351 60.6562 32.6406C61.351 31.8179 62.2473 31.345 63.4355 32.0835C63.498 32.1224 63.4355 32.2131 63.3799 32.2066C62.9677 32.0985 62.5298 32.1115 62.1258 32.2436C61.7218 32.3758 61.3712 32.6207 61.1217 32.9451C60.7108 33.4922 60.3638 34.0786 60.0864 34.6943C59.9822 34.8952 59.607 34.798 59.6765 34.5712V34.5259C59.5306 31.7661 61.7262 27.8336 64.8946 27.4644Z" fill="#BC847A"/>
<path d="M55.5911 20.5322C55.5911 20.5322 59.2528 39.4169 51.8877 47.0421C51.8877 47.0421 59.8087 42.8894 59.9477 28.1379L55.5911 20.5322Z" fill="#2E2766"/>
<path d="M66.2985 31.1182C65.5727 33.6989 64.2066 36.0845 62.3103 38.0825C59.7741 40.9201 56.1611 42.2611 52.5827 43.3884C52.2283 43.492 52.1241 42.9349 52.4924 42.8248C56.3893 41.6811 59.7957 39.4124 62.2199 36.3463C62.3589 36.2621 62.4979 36.1649 62.6299 36.0677C63.8944 35.4976 65.0895 33.878 65.9164 32.0381C65.9309 32.0134 65.9426 31.9874 65.9511 31.9604C66.0484 31.6947 66.1804 31.4032 66.2985 31.1182Z" fill="white"/>
<path d="M63.0609 25.4169C62.1492 25.9002 61.3143 26.4999 60.5804 27.1984C60.5804 27.1984 60.5804 27.1984 60.5804 27.1984C60.0867 27.6024 59.6353 28.0493 59.2324 28.533C59.0865 28.6885 58.9475 28.8504 58.8085 29.0124C58.6696 29.1744 58.4681 29.4141 58.4681 29.4141C57.4675 30.7098 56.6129 31.9342 56.2307 32.3099C56.1126 32.433 55.9111 32.2711 55.9876 32.148C57.0784 30.3923 59.1421 25.7537 61.9908 25.365C62.348 25.323 62.7103 25.3406 63.0609 25.4169V25.4169Z" fill="white"/>
<path d="M57.5925 30.0686C58.0371 29.1552 50.9569 32.3296 43.5778 30.9108C42.0701 30.6193 37.8594 29.0386 35.5248 29.0386C33.1902 29.0386 30.4387 30.8072 27.1869 31.1376C26.0822 31.2477 27.0341 40.2074 29.862 44.0945C30.7931 45.3902 34.7258 47.9816 37.1785 48.2407C42.8691 48.7849 52.6106 45.0015 54.0905 43.2329C55.2926 41.8076 53.4027 38.7368 57.5925 30.0686Z" fill="white"/>
<path d="M27.7637 33.9686C29.8203 33.135 31.962 32.4968 34.156 32.064C36.0529 31.7141 37.7691 32.362 39.5687 32.958C44.3908 34.5582 49.2476 34.3768 54.1045 33.0876C54.167 33.0876 54.1878 33.1653 54.1045 33.1847C50.2659 34.7204 45.9964 35.0523 41.9381 34.1306C39.7285 33.6512 37.519 32.5369 35.2261 32.6729C32.7594 32.8155 30.3484 33.9103 27.854 34.3314C27.6455 34.3638 27.5691 34.0528 27.7637 33.9686Z" fill="#BDBFE1"/>
<path d="M31.3627 44.2759C32.8913 44.9626 34.406 45.9733 35.9972 46.4592C37.901 47.0357 40.1661 46.4592 42.0421 46.0381C45.6066 45.2606 48.9904 43.8937 52.5062 42.7988C52.5062 42.7988 52.5479 42.8377 52.5062 42.8442C48.706 44.673 44.6509 45.9987 40.4579 46.7831C39.0683 47.0163 37.5258 47.3467 36.1431 46.958C34.4685 46.4916 32.801 45.3254 31.2793 44.3666C31.2793 44.3666 31.314 44.2759 31.3627 44.2759Z" fill="#BDBFE1"/>
<path d="M28.958 36.9811C32.585 35.9834 35.9619 36.2296 39.6444 36.6896C43.8023 37.1905 48.0167 37.1163 52.1513 36.4693C52.193 36.4693 52.2138 36.5276 52.1513 36.5341C48.4752 37.255 44.7012 37.4386 40.9646 37.0783C39.1581 36.9033 37.3585 36.5859 35.545 36.4693C33.3244 36.3871 31.1038 36.632 28.965 37.1949C28.9094 37.2208 28.8538 37.0135 28.958 36.9811Z" fill="#BDBFE1"/>
<path d="M29.8337 40.3886C33.045 42.1162 36.7521 42.8723 40.4437 42.5524C44.2444 42.2414 47.8297 40.9198 51.4288 39.7407C51.4775 39.7407 51.4983 39.799 51.4288 39.8185C44.2444 42.6884 36.9209 44.606 29.7434 40.6024C29.5975 40.5246 29.6947 40.3303 29.8337 40.3886Z" fill="#BDBFE1"/>
</g>
</g>
<defs>
<clipPath id="clip0_14_19111">
<rect width="87.9439" height="197.859" fill="white" transform="translate(0.470703 0.222168)"/>
</clipPath>
</defs>
</svg>
