<svg width="98" height="88" viewBox="0 0 98 88" fill="none" xmlns="http://www.w3.org/2000/svg">
<g clip-path="url(#clip0_21_34)">
<path d="M97.4453 28.7218C97.289 27.4022 96.8415 26.1324 96.1345 25.0021C95.4274 23.8717 94.4779 22.9083 93.3529 22.1796V22.1796L93.2741 22.119C88.1507 18.6684 83.4846 14.5984 79.3846 10.0037C75.9157 5.73014 71.1993 2.61403 65.8754 1.07829C60.5516 -0.457441 54.8783 -0.338415 49.6253 1.41922C49.0374 1.61833 48.3992 1.61833 47.8113 1.41922V1.41922C42.5551 -0.329817 36.8827 -0.448058 31.5565 1.08038C26.2302 2.60882 21.5054 5.7107 18.0169 9.96912C13.9127 14.5944 9.23767 18.6936 4.1012 22.1709V22.1709C2.98595 22.9042 2.04704 23.87 1.35059 25.0003C0.654139 26.1306 0.217083 27.398 0.0701984 28.7131C-0.0766394 30.0548 0.0763986 31.412 0.518519 32.6889C0.960639 33.9658 1.68107 35.1314 2.62901 36.1035C7.42419 40.9795 13.4454 44.5096 20.0763 46.3322C20.8152 55.1263 22.7578 63.781 25.8511 72.0598V72.0598C27.5352 76.7261 30.64 80.7636 34.7395 83.6186C38.839 86.4735 43.7326 88.0061 48.749 88.0061C53.7654 88.0061 58.6589 86.4735 62.7585 83.6186C66.858 80.7636 69.9627 76.7261 71.6469 72.0598V72.0598C74.7401 63.784 76.6827 55.1322 77.4217 46.3408C84.0831 44.5669 90.1258 41.0266 94.8952 36.1035C95.8404 35.1316 96.5585 33.9671 96.9991 32.6919C97.4396 31.4166 97.5919 30.0614 97.4453 28.7218ZM26.9114 17.3508C31.8188 12.2018 38.2333 10.2893 44.0695 12.2451C45.5687 12.7428 47.1411 12.9914 48.7227 12.9806C50.2906 12.982 51.8481 12.7276 53.3321 12.2278C58.9054 10.3672 65.6003 12.3749 70.5164 17.3508L84.0553 31.0324C82.0573 32.3984 79.9225 33.5583 77.6846 34.4939C77.6121 32.6907 77.1574 30.9226 76.3498 29.3038C75.5423 27.685 74.3999 26.2515 72.9964 25.0959C69.8415 22.4905 65.9774 20.864 61.8894 20.4205C57.8014 19.9771 53.6719 20.7366 50.0196 22.6036C49.6268 22.8039 49.1911 22.9085 48.749 22.9085C48.3069 22.9085 47.8712 22.8039 47.4783 22.6036V22.6036C43.8296 20.7463 39.7075 19.9921 35.6271 20.4354C31.5468 20.8787 27.6893 22.4997 24.5367 25.0959C23.1326 26.2541 21.9888 27.689 21.1785 29.3088C20.3682 30.9285 19.9092 32.6975 19.8309 34.5025C17.5727 33.5687 15.4174 32.4088 13.3988 31.041L26.9114 17.3508ZM48.6876 83.725C44.5706 83.7279 40.5541 82.4692 37.1921 80.1225C33.8301 77.7758 31.2883 74.4568 29.9172 70.6233C25.6234 59.1397 23.6611 46.9337 24.1423 34.7015C24.1915 33.4905 24.4977 32.3031 25.0411 31.2163C25.5846 30.1296 26.3531 29.1677 27.297 28.393C29.7991 26.3316 32.8614 25.0449 36.1005 24.6939C39.3395 24.343 42.6115 24.9433 45.5066 26.4199V26.4199C46.5099 26.9385 47.6254 27.2094 48.7577 27.2094C49.8901 27.2094 51.0056 26.9385 52.0088 26.4199C54.9083 24.9401 58.1856 24.3387 61.4298 24.6912C64.674 25.0438 67.7406 26.3345 70.2448 28.4016C71.1705 29.1689 71.9256 30.1169 72.4624 31.1862C72.9993 32.2555 73.3064 33.4229 73.3644 34.615C73.8507 46.8531 71.8883 59.0658 67.5896 70.554V70.554C66.2116 74.4144 63.6519 77.756 60.2653 80.1159C56.8786 82.4757 52.8325 83.7371 48.6876 83.725V83.725ZM77.7547 38.4573C81.4759 37.0806 84.9627 35.1518 88.0951 32.7371V32.7371L88.174 32.6679L88.2441 32.6073L88.3317 32.5121C88.3342 32.4949 88.3342 32.4774 88.3317 32.4602L88.4106 32.365V32.2958L88.4632 32.2093V32.1227V32.0448C88.4681 32.0133 88.4681 31.9812 88.4632 31.9496C88.4632 31.9496 88.4632 31.9497 88.4632 31.8804C88.4669 31.8459 88.4669 31.8111 88.4632 31.7766C88.4582 31.7538 88.4582 31.7302 88.4632 31.7073C88.4632 31.7073 88.4632 31.6381 88.4632 31.6035C88.4632 31.5689 88.4632 31.5516 88.4632 31.5256C88.4675 31.4969 88.4675 31.4678 88.4632 31.4391C88.4588 31.4075 88.4588 31.3755 88.4632 31.3439C88.4632 31.3439 88.4632 31.292 88.4632 31.266V31.1535C88.4632 31.1535 88.4632 31.1102 88.4632 31.0843C88.4632 31.0583 88.4632 31.015 88.4632 30.9804C88.4673 30.9546 88.4673 30.9283 88.4632 30.9025C88.4674 30.8681 88.4674 30.8332 88.4632 30.7987V30.7208C88.4666 30.6921 88.4666 30.663 88.4632 30.6343C88.468 30.6027 88.468 30.5706 88.4632 30.5391V30.4612L88.4018 30.3574V30.3054C88.3815 30.2689 88.3581 30.2341 88.3317 30.2016C88.3292 30.1844 88.3292 30.1669 88.3317 30.1497L88.2704 30.0718L88.209 30.0026L73.233 14.7114C70.5881 11.9796 67.3099 9.9244 63.6812 8.72298C59.9389 7.45714 55.8804 7.43283 52.1228 8.65375C49.9136 9.38529 47.523 9.38529 45.3139 8.65375V8.65375C41.6086 7.42266 37.602 7.39234 33.8781 8.56721C30.1868 9.76976 26.8685 11.8849 24.2387 14.7114V14.7114L9.15749 29.9593L9.09615 30.0285L9.03481 30.1064V30.1583L8.95594 30.2622C8.95845 30.2794 8.95845 30.2969 8.95594 30.3141L8.8946 30.4179V30.4958C8.88979 30.5274 8.88979 30.5595 8.8946 30.591C8.89809 30.6198 8.89809 30.6488 8.8946 30.6775V30.7554C8.8946 30.7554 8.8946 30.8247 8.8946 30.8593C8.89049 30.8851 8.89049 30.9114 8.8946 30.9372C8.8946 30.9372 8.8946 31.0064 8.8946 31.041C8.8946 31.0756 8.8946 31.041 8.8946 31.1102V31.2141C8.89018 31.2399 8.89018 31.2662 8.8946 31.292V31.3872C8.8946 31.3872 8.8946 31.4477 8.8946 31.4737C8.8946 31.4997 8.8946 31.5256 8.8946 31.5516C8.89882 31.5861 8.89882 31.6209 8.8946 31.6554V31.7247C8.89062 31.7592 8.89062 31.794 8.8946 31.8285V31.8977C8.83981 31.9247 8.79414 31.9668 8.76315 32.0189V32.0968V32.1833L8.81573 32.2698L8.85954 32.3391L8.93841 32.4343V32.4862L9.02604 32.5814L9.09615 32.642L9.17501 32.7112C12.3289 35.1337 15.8359 37.071 19.5768 38.4573C19.5768 39.565 19.5768 40.664 19.6381 41.7717C14.2942 40.065 9.45384 37.0942 5.53835 33.1179C5.07233 32.5845 4.72786 31.9584 4.52828 31.2821C4.32871 30.6057 4.27869 29.8949 4.38162 29.1978C4.45775 28.4998 4.68982 27.8273 5.0611 27.2287C5.43238 26.6301 5.93359 26.1203 6.52857 25.7363V25.7363C11.9707 22.0367 16.9224 17.6788 21.268 12.7643C21.2706 12.7471 21.2706 12.7296 21.268 12.7124V12.7124C24.2024 9.09672 28.1931 6.46104 32.6975 5.16358C37.2019 3.86611 42.0016 3.96979 46.4443 5.46052V5.46052C47.1866 5.70874 47.9653 5.83446 48.749 5.83263C49.5298 5.83367 50.3054 5.70796 51.0449 5.46052C55.4628 3.99312 60.2302 3.89913 64.7039 5.19124C69.1777 6.48334 73.1424 9.09936 76.0634 12.6864V12.6864V12.7297C80.402 17.6049 85.3386 21.9275 90.7591 25.5978L90.8467 25.6584C91.4514 26.0378 91.9632 26.5452 92.3451 27.1438C92.727 27.7425 92.9695 28.4174 93.055 29.1199C93.135 29.8337 93.0556 30.5561 92.8225 31.2364C92.5893 31.9167 92.2081 32.5382 91.7055 33.0573C87.8095 37.0575 82.9626 40.0323 77.6057 41.7111C77.7284 40.6726 77.7547 39.5823 77.7547 38.4573Z" fill="#692300"/>
<path d="M48.7225 32.7372C48.274 32.7372 47.8438 32.9131 47.5266 33.2263C47.2094 33.5396 47.0312 33.9644 47.0312 34.4073V54.3888C47.0145 54.6177 47.0457 54.8475 47.1229 55.0639C47.2001 55.2803 47.3217 55.4787 47.48 55.6467C47.6382 55.8147 47.8299 55.9487 48.0429 56.0403C48.2559 56.1319 48.4858 56.1792 48.7181 56.1792C48.9505 56.1792 49.1803 56.1319 49.3934 56.0403C49.6064 55.9487 49.798 55.8147 49.9563 55.6467C50.1146 55.4787 50.2361 55.2803 50.3133 55.0639C50.3905 54.8475 50.4217 54.6177 50.405 54.3888V34.4073C50.405 33.9659 50.228 33.5424 49.9128 33.2294C49.5975 32.9164 49.1695 32.7394 48.7225 32.7372V32.7372Z" fill="#692300"/>
<path d="M48.7225 60.0051C48.5008 60.004 48.2811 60.0461 48.076 60.1291C47.8708 60.2121 47.6843 60.3343 47.5271 60.4887C47.37 60.6431 47.2453 60.8267 47.1602 61.0288C47.0751 61.231 47.0312 61.4477 47.0313 61.6666V67.7243C47.062 68.1453 47.2531 68.5393 47.566 68.8269C47.879 69.1144 48.2906 69.2743 48.7181 69.2743C49.1456 69.2743 49.5573 69.1144 49.8702 68.8269C50.1832 68.5393 50.3743 68.1453 50.405 67.7243V61.6666C50.405 61.226 50.2278 60.8034 49.9122 60.4918C49.5967 60.1802 49.1687 60.0051 48.7225 60.0051Z" fill="#692300"/>
</g>
<defs>
<clipPath id="clip0_21_34">
<rect width="97.4978" height="88" fill="white"/>
</clipPath>
</defs>
</svg>
