<svg width="85" height="76" viewBox="0 0 85 76" fill="none" xmlns="http://www.w3.org/2000/svg">
<g clip-path="url(#clip0_57_34)">
<path d="M84.0988 24.788C83.9639 23.6491 83.5778 22.5533 82.9675 21.5778C82.3573 20.6022 81.5379 19.7707 80.567 19.1418V19.1418L80.4989 19.0895C76.0773 16.1116 72.0503 12.599 68.5118 8.63364C65.518 4.94537 61.4475 2.25605 56.8529 0.930656C52.2583 -0.394738 47.3619 -0.292014 42.8284 1.22488C42.3211 1.39673 41.7702 1.39673 41.2629 1.22488V1.22488C36.7266 -0.284593 31.8311 -0.38664 27.2344 0.93246C22.6377 2.25156 18.5599 4.92859 15.5493 8.60376C12.0071 12.5956 7.97245 16.1333 3.5395 19.1343V19.1343C2.57699 19.7672 1.76668 20.6007 1.16562 21.5762C0.564555 22.5517 0.18736 23.6455 0.0605934 24.7805C-0.0661329 25.9385 0.0659444 27.1097 0.44751 28.2118C0.829076 29.3138 1.45084 30.3197 2.26894 31.1586C6.40736 35.3669 11.6039 38.4134 17.3265 39.9864C17.9643 47.5761 19.6408 55.0454 22.3105 62.1903V62.1903C23.7639 66.2174 26.4434 69.702 29.9815 72.1659C33.5195 74.6298 37.7428 75.9525 42.0721 75.9525C46.4015 75.9525 50.6248 74.6298 54.1628 72.1659C57.7009 69.702 60.3804 66.2174 61.8338 62.1903V62.1903C64.5034 55.0479 66.18 47.5811 66.8177 39.9939C72.5667 38.4629 77.7819 35.4075 81.898 31.1586C82.7137 30.3199 83.3335 29.3149 83.7137 28.2143C84.0939 27.1137 84.2254 25.9442 84.0988 24.788ZM23.2256 14.9744C27.4607 10.5306 32.9967 8.8801 38.0336 10.568C39.3274 10.9976 40.6845 11.2121 42.0495 11.2028C43.4026 11.204 44.7468 10.9844 46.0275 10.553C50.8375 8.94731 56.6155 10.68 60.8582 14.9744L72.5428 26.7821C70.8184 27.9611 68.976 28.9621 67.0446 29.7695C66.982 28.2133 66.5896 26.6874 65.8927 25.2903C65.1957 23.8932 64.2098 22.6561 62.9985 21.6587C60.2758 19.4102 56.9409 18.0064 53.4128 17.6237C49.8847 17.241 46.3208 17.8965 43.1688 19.5078C42.8297 19.6807 42.4537 19.7709 42.0721 19.7709C41.6906 19.7709 41.3146 19.6807 40.9755 19.5078V19.5078C37.8265 17.9048 34.269 17.254 30.7475 17.6365C27.2261 18.0191 23.8969 19.4181 21.176 21.6587C19.9643 22.6583 18.9771 23.8967 18.2778 25.2946C17.5785 26.6925 17.1824 28.2192 17.1148 29.777C15.1659 28.9711 13.3058 27.9701 11.5637 26.7896L23.2256 14.9744ZM42.0192 72.2578C38.4661 72.2603 34.9997 71.1739 32.0982 69.1487C29.1967 67.1234 27.0029 64.259 25.8196 60.9505C22.1139 51.0398 20.4204 40.5055 20.8357 29.9487C20.8781 28.9035 21.1424 27.8788 21.6114 26.9409C22.0804 26.003 22.7437 25.1728 23.5583 24.5042C25.7177 22.7252 28.3606 21.6147 31.156 21.3118C33.9514 21.0089 36.7752 21.5271 39.2739 22.8014V22.8014C40.1397 23.2489 41.1024 23.4827 42.0797 23.4827C43.057 23.4827 44.0197 23.2489 44.8855 22.8014C47.3878 21.5242 50.2163 21.0052 53.0162 21.3095C55.816 21.6137 58.4626 22.7277 60.6238 24.5117C61.4227 25.1738 62.0744 25.992 62.5377 26.9149C63.0011 27.8377 63.2661 28.8452 63.3161 29.8741C63.7358 40.436 62.0422 50.9759 58.3322 60.8907V60.8907C57.143 64.2224 54.9339 67.1063 52.0111 69.143C49.0883 71.1796 45.5964 72.2682 42.0192 72.2578V72.2578ZM67.1051 33.1901C70.3166 32.002 73.3259 30.3373 76.0293 28.2534V28.2534L76.0973 28.1936L76.1578 28.1414L76.2335 28.0592C76.2356 28.0443 76.2356 28.0293 76.2335 28.0144L76.3015 27.9322V27.8725L76.3469 27.7978V27.7231V27.6559C76.3512 27.6287 76.3512 27.601 76.3469 27.5738C76.3469 27.5738 76.3469 27.5738 76.3469 27.514C76.3502 27.4842 76.3502 27.4542 76.3469 27.4244C76.3426 27.4047 76.3426 27.3843 76.3469 27.3646C76.3469 27.3646 76.3469 27.3049 76.3469 27.275C76.3469 27.2451 76.3469 27.2302 76.3469 27.2078C76.3506 27.183 76.3506 27.1579 76.3469 27.1331C76.3432 27.1059 76.3432 27.0782 76.3469 27.051C76.3469 27.051 76.3469 27.0061 76.3469 26.9837V26.8867C76.3469 26.8867 76.3469 26.8493 76.3469 26.8269C76.3469 26.8045 76.3469 26.7672 76.3469 26.7373C76.3504 26.715 76.3504 26.6923 76.3469 26.6701C76.3505 26.6403 76.3505 26.6102 76.3469 26.5804V26.5132C76.3499 26.4884 76.3499 26.4633 76.3469 26.4385C76.351 26.4113 76.351 26.3836 76.3469 26.3564V26.2892L76.294 26.1996V26.1547C76.2765 26.1232 76.2562 26.0932 76.2335 26.0651C76.2313 26.0503 76.2313 26.0352 76.2335 26.0203L76.1805 25.9531L76.1276 25.8933L63.2027 12.6965C60.9201 10.3389 58.0909 8.56517 54.9592 7.5283C51.7295 6.43583 48.2268 6.41485 44.9838 7.46855C43.0772 8.0999 41.0141 8.0999 39.1075 7.46855V7.46855C35.9097 6.40607 32.4519 6.37991 29.238 7.39387C26.0523 8.43171 23.1885 10.2571 20.9189 12.6965V12.6965L7.90325 25.856L7.85031 25.9157L7.79737 25.983V26.0278L7.72931 26.1174C7.73148 26.1323 7.73148 26.1473 7.72931 26.1622L7.67637 26.2518V26.319C7.67222 26.3463 7.67222 26.374 7.67637 26.4012C7.67938 26.426 7.67938 26.4511 7.67637 26.4759V26.5431C7.67637 26.5431 7.67637 26.6028 7.67637 26.6327C7.67283 26.655 7.67283 26.6777 7.67637 26.6999C7.67637 26.6999 7.67637 26.7597 7.67637 26.7896C7.67637 26.8194 7.67637 26.7896 7.67637 26.8493V26.9389C7.67256 26.9612 7.67256 26.9839 7.67637 27.0061V27.0883C7.67637 27.0883 7.67637 27.1406 7.67637 27.163C7.67637 27.1854 7.67637 27.2078 7.67637 27.2302C7.68001 27.26 7.68001 27.2901 7.67637 27.3198V27.3796C7.67293 27.4094 7.67293 27.4394 7.67637 27.4692V27.5289C7.62908 27.5522 7.58967 27.5885 7.56293 27.6335V27.7007V27.7754L7.6083 27.8501L7.64612 27.9098L7.71418 27.992V28.0368L7.78981 28.119L7.85031 28.1712L7.91838 28.231C10.6403 30.3217 13.6669 31.9936 16.8955 33.1901C16.8955 34.146 16.8955 35.0945 16.9484 36.0505C12.3365 34.5776 8.15901 32.0137 4.7798 28.582C4.37761 28.1217 4.08032 27.5813 3.90808 26.9976C3.73584 26.4139 3.69267 25.8004 3.78151 25.1988C3.84721 24.5964 4.0475 24.016 4.36792 23.4994C4.68835 22.9828 5.12091 22.5429 5.6344 22.2114V22.2114C10.3312 19.0185 14.6047 15.2575 18.3551 11.0161C18.3573 11.0012 18.3573 10.9861 18.3551 10.9713V10.9713C20.8876 7.85085 24.3316 5.57616 28.2191 4.4564C32.1066 3.33664 36.2489 3.42612 40.0831 4.71267V4.71267C40.7238 4.9269 41.3958 5.0354 42.0721 5.03382C42.746 5.03472 43.4154 4.92622 44.0536 4.71267C47.8664 3.44626 51.9809 3.36514 55.8418 4.48028C59.7028 5.59541 63.1246 7.85313 65.6455 10.9489V10.9489V10.9862C69.3899 15.1937 73.6503 18.9243 78.3284 22.0919L78.404 22.1442C78.9259 22.4716 79.3676 22.9095 79.6972 23.4262C80.0268 23.9428 80.236 24.5253 80.3098 25.1316C80.3789 25.7476 80.3104 26.3711 80.1092 26.9582C79.9079 27.5453 79.5789 28.0817 79.1452 28.5297C75.7828 31.982 71.5998 34.5493 66.9766 35.9982C67.0824 35.102 67.1051 34.161 67.1051 33.1901Z" fill="#6B4D30"/>
<path d="M42.0493 28.2534C41.6622 28.2534 41.291 28.4052 41.0172 28.6755C40.7435 28.9459 40.5897 29.3125 40.5897 29.6948V46.9395C40.5753 47.1371 40.6022 47.3354 40.6689 47.5222C40.7355 47.7089 40.8404 47.8802 40.977 48.0251C41.1136 48.1701 41.279 48.2857 41.4628 48.3648C41.6467 48.4439 41.845 48.4847 42.0456 48.4847C42.2461 48.4847 42.4445 48.4439 42.6283 48.3648C42.8122 48.2857 42.9776 48.1701 43.1142 48.0251C43.2508 47.8802 43.3556 47.7089 43.4223 47.5222C43.4889 47.3354 43.5158 47.1371 43.5014 46.9395V29.6948C43.5014 29.3138 43.3487 28.9483 43.0766 28.6782C42.8045 28.4081 42.4352 28.2553 42.0493 28.2534V28.2534Z" fill="#6B4D30"/>
<path d="M42.0495 51.7866C41.8581 51.7856 41.6685 51.822 41.4915 51.8936C41.3144 51.9652 41.1535 52.0707 41.0178 52.2039C40.8822 52.3372 40.7745 52.4956 40.7011 52.6701C40.6276 52.8445 40.5898 53.0316 40.5898 53.2205V58.4485C40.6164 58.8119 40.7813 59.1519 41.0514 59.4001C41.3215 59.6482 41.6767 59.7862 42.0457 59.7862C42.4146 59.7862 42.7699 59.6482 43.04 59.4001C43.3101 59.1519 43.475 58.8119 43.5015 58.4485V53.2205C43.5015 52.8402 43.3485 52.4755 43.0762 52.2066C42.8039 51.9377 42.4346 51.7866 42.0495 51.7866Z" fill="#6B4D30"/>
</g>
<defs>
<clipPath id="clip0_57_34">
<rect width="84.1441" height="75.9472" rx="22" fill="white"/>
</clipPath>
</defs>
</svg>
