<svg width="109" height="98" viewBox="0 0 109 98" fill="none" xmlns="http://www.w3.org/2000/svg">
<g clip-path="url(#clip0_21_34)">
<path d="M108.12 31.8682C107.947 30.4041 107.45 28.9952 106.666 27.7411C105.881 26.4869 104.828 25.4179 103.58 24.6093V24.6093L103.492 24.5421C97.8075 20.7135 92.6303 16.1976 88.0811 11.0996C84.2321 6.35787 78.999 2.90038 73.092 1.19641C67.185 -0.50756 60.8901 -0.375495 55.0616 1.57468C54.4094 1.79561 53.7012 1.79561 53.049 1.57468V1.57468C47.217 -0.365954 40.9232 -0.497149 35.0134 1.19873C29.1037 2.89461 23.8612 6.33629 19.9906 11.0612C15.4367 16.1932 10.2496 20.7415 4.55043 24.5997V24.5997C3.313 25.4133 2.27124 26.4849 1.49849 27.7391C0.725743 28.9932 0.240808 30.3994 0.0778324 31.8586C-0.0850914 33.3473 0.0847118 34.8532 0.575266 36.27C1.06582 37.6868 1.86518 38.98 2.91696 40.0586C8.23745 45.4688 14.9183 49.3856 22.2755 51.4078C23.0954 61.1654 25.2509 70.7682 28.683 79.9539V79.9539C30.5516 85.1314 33.9965 89.6112 38.5451 92.7789C43.0938 95.9467 48.5234 97.6471 54.0893 97.6471C59.6553 97.6471 65.0849 95.9467 69.6335 92.7789C74.1822 89.6112 77.6271 85.1314 79.4957 79.9539V79.9539C82.9277 70.7715 85.0832 61.1719 85.9031 51.4174C93.2943 49.4492 99.999 45.521 105.291 40.0586C106.34 38.9803 107.136 37.6882 107.625 36.2732C108.114 34.8582 108.283 33.3547 108.12 31.8682ZM29.8595 19.2515C35.3044 13.5385 42.4217 11.4165 48.8972 13.5865C50.5606 14.1388 52.3053 14.4146 54.0602 14.4026C55.7999 14.4041 57.5279 14.1219 59.1745 13.5673C65.3584 11.5029 72.7868 13.7305 78.2414 19.2515L93.2635 34.4319C91.0466 35.9477 88.6779 37.2346 86.1948 38.2726C86.1144 36.2719 85.6099 34.3102 84.7139 32.514C83.8178 30.7179 82.5503 29.1273 80.993 27.8451C77.4926 24.9543 73.2051 23.1496 68.6693 22.6576C64.1335 22.1656 59.5516 23.0083 55.4992 25.0798C55.0633 25.3021 54.5799 25.4181 54.0893 25.4181C53.5988 25.4181 53.1154 25.3021 52.6795 25.0798V25.0798C48.6311 23.019 44.0573 22.1822 39.53 22.6741C35.0027 23.1659 30.7226 24.9645 27.2246 27.8451C25.6667 29.1302 24.3976 30.7223 23.4985 32.5195C22.5995 34.3167 22.0902 36.2795 22.0033 38.2822C19.4977 37.2462 17.1063 35.9592 14.8666 34.4415L29.8595 19.2515ZM54.0213 92.8971C49.4532 92.9002 44.9968 91.5036 41.2665 88.8999C37.5362 86.2961 34.7159 82.6135 33.1945 78.36C28.4303 65.6184 26.2531 52.0752 26.787 38.5031C26.8416 37.1593 27.1813 35.8419 27.7843 34.6361C28.3873 33.4303 29.24 32.363 30.2873 31.5034C33.0635 29.2162 36.4613 27.7885 40.0552 27.3991C43.6491 27.0097 47.2795 27.6759 50.4918 29.3142V29.3142C51.605 29.8896 52.8427 30.1901 54.0991 30.1901C55.3555 30.1901 56.5932 29.8896 57.7063 29.3142C60.9234 27.6722 64.5598 27.005 68.1594 27.3961C71.759 27.7873 75.1615 29.2195 77.94 31.513C78.9672 32.3643 79.8049 33.4162 80.4006 34.6026C80.9963 35.789 81.337 37.0843 81.4014 38.4071C81.9409 51.9858 79.7636 65.5364 74.9939 78.2832V78.2832C73.4649 82.5665 70.6249 86.2741 66.8672 88.8925C63.1095 91.5109 58.6202 92.9104 54.0213 92.8971V92.8971ZM86.2726 42.6702C90.4014 41.1428 94.2703 39.0026 97.7458 36.3235V36.3235L97.8333 36.2467L97.9111 36.1794L98.0083 36.0738C98.0111 36.0547 98.0111 36.0353 98.0083 36.0162L98.0958 35.9106V35.8338L98.1542 35.7378V35.6417V35.5553C98.1597 35.5203 98.1597 35.4847 98.1542 35.4497C98.1542 35.4497 98.1542 35.4497 98.1542 35.3729C98.1584 35.3346 98.1584 35.296 98.1542 35.2577C98.1487 35.2324 98.1487 35.2062 98.1542 35.1809C98.1542 35.1809 98.1542 35.104 98.1542 35.0656C98.1542 35.0272 98.1542 35.008 98.1542 34.9792C98.159 34.9474 98.159 34.915 98.1542 34.8832C98.1494 34.8482 98.1494 34.8126 98.1542 34.7776C98.1542 34.7776 98.1542 34.72 98.1542 34.6912V34.5663C98.1542 34.5663 98.1542 34.5183 98.1542 34.4895C98.1542 34.4607 98.1542 34.4127 98.1542 34.3743C98.1587 34.3457 98.1587 34.3165 98.1542 34.2879C98.1589 34.2496 98.1589 34.2109 98.1542 34.1727V34.0863C98.158 34.0544 98.158 34.0221 98.1542 33.9902C98.1595 33.9552 98.1595 33.9196 98.1542 33.8846V33.7982L98.0861 33.683V33.6254C98.0636 33.5848 98.0376 33.5463 98.0083 33.5102C98.0055 33.491 98.0055 33.4716 98.0083 33.4525L97.9403 33.3661L97.8722 33.2893L81.2555 16.323C78.3209 13.292 74.6836 11.0116 70.6574 9.67857C66.5051 8.27406 62.002 8.24709 57.8327 9.60176C55.3815 10.4134 52.7291 10.4134 50.2779 9.60176V9.60176C46.1667 8.2358 41.7212 8.20216 37.5893 9.50574C33.4937 10.84 29.8119 13.1869 26.894 16.323V16.323L10.1606 33.2413L10.0926 33.3181L10.0245 33.4045V33.4621L9.937 33.5774C9.93979 33.5965 9.93979 33.6159 9.937 33.635L9.86894 33.7502V33.8366C9.86361 33.8716 9.86361 33.9072 9.86894 33.9422C9.87281 33.9741 9.87281 34.0064 9.86894 34.0382V34.1247C9.86894 34.1247 9.86894 34.2015 9.86894 34.2399C9.86438 34.2685 9.86438 34.2977 9.86894 34.3263C9.86894 34.3263 9.86894 34.4031 9.86894 34.4415C9.86894 34.4799 9.86894 34.4415 9.86894 34.5183V34.6336C9.86404 34.6622 9.86404 34.6914 9.86894 34.72V34.8256C9.86894 34.8256 9.86894 34.8928 9.86894 34.9216C9.86894 34.9504 9.86894 34.9792 9.86894 35.008C9.87362 35.0463 9.87362 35.085 9.86894 35.1232V35.2001C9.86452 35.2383 9.86452 35.277 9.86894 35.3153V35.3921C9.80815 35.422 9.75747 35.4687 9.72309 35.5265V35.6129V35.709L9.78143 35.805L9.83004 35.8818L9.91755 35.9874V36.045L10.0148 36.1506L10.0926 36.2179L10.1801 36.2947C13.6795 38.9825 17.5706 41.1321 21.7213 42.6702C21.7213 43.8993 21.7213 45.1187 21.7894 46.3477C15.8601 44.4541 10.4894 41.1578 6.14501 36.7459C5.62794 36.1541 5.24573 35.4594 5.0243 34.709C4.80286 33.9585 4.74736 33.1698 4.86157 32.3963C4.94604 31.622 5.20354 30.8758 5.61548 30.2116C6.02743 29.5474 6.58355 28.9818 7.24372 28.5556V28.5556C13.2821 24.4508 18.7762 19.6155 23.5979 14.1626C23.6007 14.1435 23.6007 14.1241 23.5979 14.105V14.105C26.8538 10.0932 31.2815 7.16884 36.2794 5.72923C41.2773 4.28963 46.6028 4.40467 51.5322 6.05871V6.05871C52.3558 6.33412 53.2198 6.47362 54.0893 6.47158C54.9557 6.47274 55.8163 6.33325 56.6368 6.05871C61.5387 4.43056 66.8283 4.32627 71.7922 5.75993C76.756 7.19358 81.1551 10.0962 84.3961 14.0762V14.0762V14.1242C89.21 19.5335 94.6873 24.3297 100.702 28.402L100.799 28.4692C101.47 28.8903 102.038 29.4532 102.461 30.1174C102.885 30.7816 103.154 31.5305 103.249 32.3099C103.338 33.1019 103.25 33.9035 102.991 34.6583C102.732 35.4131 102.309 36.1028 101.752 36.6787C97.4289 41.1171 92.0511 44.4178 86.1073 46.2805C86.2434 45.1283 86.2726 43.9185 86.2726 42.6702Z" fill="#692300"/>
<path d="M54.0601 36.3235C53.5624 36.3235 53.0851 36.5187 52.7332 36.8663C52.3813 37.2138 52.1836 37.6851 52.1836 38.1766V60.3471C52.165 60.601 52.1997 60.856 52.2853 61.0961C52.371 61.3363 52.5058 61.5564 52.6814 61.7428C52.8571 61.9292 53.0697 62.0778 53.306 62.1794C53.5424 62.2811 53.7975 62.3335 54.0553 62.3335C54.3131 62.3335 54.5681 62.2811 54.8045 62.1794C55.0408 62.0778 55.2535 61.9292 55.4291 61.7428C55.6047 61.5564 55.7395 61.3363 55.8252 61.0961C55.9109 60.856 55.9455 60.601 55.9269 60.3471V38.1766C55.927 37.6868 55.7306 37.2169 55.3808 36.8696C55.0309 36.5224 54.5561 36.326 54.0601 36.3235V36.3235Z" fill="#692300"/>
<path d="M54.0601 66.5786C53.8142 66.5774 53.5704 66.6241 53.3428 66.7162C53.1151 66.8083 52.9082 66.9439 52.7338 67.1152C52.5594 67.2865 52.421 67.4902 52.3266 67.7145C52.2322 67.9388 52.1836 68.1793 52.1836 68.4222V75.1434C52.2177 75.6106 52.4297 76.0477 52.777 76.3668C53.1242 76.6859 53.581 76.8633 54.0553 76.8633C54.5296 76.8633 54.9863 76.6859 55.3336 76.3668C55.6808 76.0477 55.8928 75.6106 55.927 75.1434V68.4222C55.927 67.9332 55.7303 67.4643 55.3802 67.1186C55.0301 66.7729 54.5553 66.5786 54.0601 66.5786Z" fill="#692300"/>
</g>
<defs>
<clipPath id="clip0_21_34">
<rect width="108.179" height="97.6403" fill="white"/>
</clipPath>
</defs>
</svg>
