<svg width="98" height="88" viewBox="0 0 98 88" fill="none" xmlns="http://www.w3.org/2000/svg">
<g clip-path="url(#clip0_21_2)">
<path d="M97.0792 28.6139C96.9235 27.2993 96.4778 26.0343 95.7733 24.9082C95.0689 23.7821 94.123 22.8222 93.0023 22.0963V22.0963L92.9237 22.0359C87.8196 18.5983 83.171 14.5436 79.0864 9.9662C75.6305 5.70866 70.9318 2.60425 65.628 1.07429C60.3242 -0.455678 54.6721 -0.3371 49.4389 1.41393C48.8533 1.6123 48.2174 1.6123 47.6318 1.41393V1.41393C42.3953 -0.328533 36.7442 -0.44633 31.438 1.07637C26.1317 2.59907 21.4247 5.68928 17.9493 9.93171C13.8605 14.5396 9.20302 18.6234 4.08586 22.0877V22.0877C2.97479 22.8182 2.03941 23.7804 1.34558 24.9064C0.651742 26.0325 0.216328 27.2951 0.0699952 28.6053C-0.0762909 29.942 0.0761721 31.294 0.516631 32.5661C0.95709 33.8383 1.67482 34.9995 2.61919 35.9679C7.39636 40.8256 13.395 44.3424 20.0009 46.1582C20.7371 54.9193 22.6724 63.5414 25.754 71.7891V71.7891C27.4318 76.4379 30.5249 80.4602 34.609 83.3045C38.6932 86.1487 43.5683 87.6755 48.5659 87.6755C53.5634 87.6755 58.4386 86.1487 62.5227 83.3045C66.6069 80.4602 69.6999 76.4379 71.3777 71.7891V71.7891C74.4593 63.5444 76.3947 54.9251 77.1309 46.1668C83.7672 44.3995 89.7873 40.8725 94.5388 35.9679C95.4804 34.9997 96.1958 33.8396 96.6347 32.5691C97.0736 31.2986 97.2253 29.9485 97.0792 28.6139ZM26.8104 17.2856C31.6993 12.156 38.0897 10.2507 43.904 12.1991C45.3975 12.695 46.964 12.9426 48.5397 12.9319C50.1018 12.9333 51.6533 12.6798 53.1317 12.1819C58.6841 10.3283 65.3539 12.3284 70.2515 17.2856L83.7396 30.9158C81.7491 32.2768 79.6223 33.4323 77.3928 34.3643C77.3206 32.5679 76.8676 30.8065 76.063 29.1938C75.2585 27.5811 74.1204 26.1529 72.7222 25.0016C69.5792 22.4061 65.7296 20.7856 61.6569 20.3439C57.5843 19.9021 53.4703 20.6587 49.8318 22.5187C49.4404 22.7183 49.0063 22.8225 48.5659 22.8225C48.1254 22.8225 47.6914 22.7183 47.3 22.5187V22.5187C43.665 20.6684 39.5584 19.9171 35.4934 20.3587C31.4284 20.8003 27.5853 22.4152 24.4445 25.0016C23.0457 26.1555 21.9063 27.585 21.099 29.1987C20.2917 30.8124 19.8345 32.5747 19.7564 34.3729C17.5068 33.4427 15.3596 32.2871 13.3485 30.9244L26.8104 17.2856ZM48.5048 83.4105C44.4032 83.4134 40.4018 82.1594 37.0525 79.8215C33.7031 77.4837 31.1708 74.1771 29.8048 70.358C25.5271 58.9176 23.5723 46.7574 24.0517 34.5712C24.1006 33.3647 24.4057 32.1818 24.9471 31.0991C25.4885 30.0164 26.2542 29.0582 27.1945 28.2863C29.6872 26.2327 32.738 24.9508 35.9649 24.6012C39.1918 24.2515 42.4514 24.8497 45.3357 26.3207V26.3207C46.3352 26.8373 47.4465 27.1072 48.5746 27.1072C49.7027 27.1072 50.814 26.8373 51.8135 26.3207C54.702 24.8464 57.9671 24.2473 61.1991 24.5985C64.4311 24.9497 67.4861 26.2357 69.9809 28.2949C70.9032 29.0593 71.6554 30.0038 72.1903 31.0691C72.7251 32.1343 73.031 33.2973 73.0888 34.485C73.5733 46.6771 71.6183 58.8439 67.3357 70.289V70.289C65.9629 74.1349 63.4128 77.4639 60.0389 79.8149C56.6649 82.1659 52.6341 83.4225 48.5048 83.4105V83.4105ZM77.4626 38.3128C81.1698 36.9414 84.6436 35.0197 87.7642 32.6142V32.6142L87.8428 32.5452L87.9126 32.4849L87.9999 32.39C88.0024 32.3729 88.0024 32.3555 87.9999 32.3383L88.0785 32.2435V32.1745L88.1308 32.0883V32.0021V31.9245C88.1358 31.8931 88.1358 31.8611 88.1308 31.8297C88.1308 31.8297 88.1308 31.8297 88.1308 31.7607C88.1346 31.7263 88.1346 31.6916 88.1308 31.6572C88.1259 31.6345 88.1259 31.611 88.1308 31.5883C88.1308 31.5883 88.1308 31.5193 88.1308 31.4848C88.1308 31.4503 88.1308 31.4331 88.1308 31.4072C88.1351 31.3786 88.1351 31.3496 88.1308 31.321C88.1265 31.2895 88.1265 31.2576 88.1308 31.2262C88.1308 31.2262 88.1308 31.1744 88.1308 31.1486V31.0365C88.1308 31.0365 88.1308 30.9934 88.1308 30.9675C88.1308 30.9417 88.1308 30.8986 88.1308 30.8641C88.1349 30.8384 88.1349 30.8122 88.1308 30.7865C88.1351 30.7521 88.1351 30.7174 88.1308 30.683V30.6054C88.1343 30.5768 88.1343 30.5479 88.1308 30.5192C88.1356 30.4878 88.1356 30.4558 88.1308 30.4244V30.3468L88.0697 30.2433V30.1916C88.0495 30.1552 88.0262 30.1206 87.9999 30.0882C87.9974 30.071 87.9974 30.0536 87.9999 30.0364L87.9388 29.9588L87.8777 29.8899L72.9579 14.6561C70.3229 11.9347 67.0571 9.88716 63.442 8.69025C59.7138 7.42917 55.6705 7.40495 51.927 8.62128C49.7261 9.35008 47.3446 9.35008 45.1437 8.62128V8.62128C41.4523 7.39482 37.4608 7.36461 33.7508 8.53507C30.0735 9.7331 26.7676 11.8403 24.1477 14.6561V14.6561L9.12314 29.8468L9.06203 29.9157L9.00092 29.9933V30.0451L8.92235 30.1485C8.92486 30.1657 8.92486 30.1831 8.92235 30.2002L8.86124 30.3037V30.3813C8.85645 30.4127 8.85645 30.4447 8.86124 30.4761C8.86472 30.5048 8.86472 30.5337 8.86124 30.5623V30.6399C8.86124 30.6399 8.86124 30.7089 8.86124 30.7434C8.85715 30.7691 8.85715 30.7953 8.86124 30.821C8.86124 30.821 8.86124 30.8899 8.86124 30.9244C8.86124 30.9589 8.86124 30.9244 8.86124 30.9934V31.0969C8.85684 31.1225 8.85684 31.1488 8.86124 31.1744V31.2693C8.86124 31.2693 8.86124 31.3296 8.86124 31.3555C8.86124 31.3814 8.86124 31.4072 8.86124 31.4331C8.86544 31.4674 8.86544 31.5022 8.86124 31.5365V31.6055C8.85727 31.6399 8.85727 31.6746 8.86124 31.709V31.7779C8.80666 31.8048 8.76116 31.8467 8.73029 31.8986V31.9762V32.0624L8.78267 32.1486L8.82632 32.2176L8.90489 32.3124V32.3642L8.99219 32.459L9.06203 32.5194L9.1406 32.5883C12.2827 35.0017 15.7764 36.9317 19.5033 38.3128C19.5033 39.4163 19.5033 40.5112 19.5644 41.6148C14.2406 39.9145 9.41838 36.9549 5.5176 32.9935C5.05333 32.4621 4.71015 31.8384 4.51133 31.1646C4.3125 30.4908 4.26268 29.7826 4.36522 29.0881C4.44106 28.3928 4.67226 27.7228 5.04215 27.1264C5.41203 26.5301 5.91136 26.0223 6.5041 25.6396V25.6396C11.9258 21.954 16.8589 17.6125 21.1882 12.7164C21.1907 12.6992 21.1907 12.6818 21.1882 12.6646V12.6646C24.1116 9.06258 28.0872 6.43681 32.5747 5.14422C37.0622 3.85163 41.8439 3.95492 46.2699 5.44005V5.44005C47.0094 5.68734 47.7851 5.81259 48.5659 5.81076C49.3437 5.8118 50.1165 5.68656 50.8532 5.44005C55.2545 3.97816 60.004 3.88453 64.4609 5.17178C68.9178 6.45903 72.8677 9.06522 75.7777 12.6388V12.6388V12.6819C80.1 17.5388 85.018 21.8452 90.4181 25.5017L90.5054 25.562C91.1079 25.9401 91.6177 26.4455 91.9982 27.0419C92.3787 27.6383 92.6202 28.3107 92.7054 29.0105C92.7851 29.7216 92.7061 30.4414 92.4738 31.1191C92.2415 31.7968 91.8617 32.416 91.361 32.9332C87.4797 36.9183 82.651 39.8819 77.3142 41.5544C77.4364 40.5199 77.4626 39.4336 77.4626 38.3128Z" fill="white"/>
<path d="M48.5396 32.6142C48.0928 32.6142 47.6642 32.7895 47.3482 33.1015C47.0322 33.4135 46.8547 33.8368 46.8547 34.278V54.1845C46.8381 54.4125 46.8692 54.6414 46.9461 54.857C47.023 55.0726 47.1441 55.2703 47.3017 55.4376C47.4594 55.605 47.6503 55.7385 47.8626 55.8297C48.0748 55.921 48.3038 55.9681 48.5353 55.9681C48.7667 55.9681 48.9957 55.921 49.208 55.8297C49.4202 55.7385 49.6111 55.605 49.7688 55.4376C49.9265 55.2703 50.0475 55.0726 50.1244 54.857C50.2014 54.6414 50.2325 54.4125 50.2158 54.1845V34.278C50.2158 33.8382 50.0395 33.4163 49.7254 33.1045C49.4113 32.7927 48.985 32.6164 48.5396 32.6142V32.6142Z" fill="white"/>
<path d="M48.5396 59.7797C48.3188 59.7785 48.0999 59.8205 47.8955 59.9032C47.6911 59.9859 47.5053 60.1076 47.3488 60.2614C47.1922 60.4153 47.0679 60.5981 46.9832 60.7995C46.8984 61.0009 46.8547 61.2169 46.8547 61.435V67.4698C46.8854 67.8893 47.0757 68.2818 47.3875 68.5683C47.6993 68.8548 48.1094 69.014 48.5353 69.014C48.9612 69.014 49.3713 68.8548 49.683 68.5683C49.9948 68.2818 50.1852 67.8893 50.2158 67.4698V61.435C50.2158 60.9959 50.0392 60.5749 49.7249 60.2645C49.4105 59.9541 48.9842 59.7797 48.5396 59.7797Z" fill="white"/>
</g>
<defs>
<clipPath id="clip0_21_2">
<rect width="97.1315" height="87.6694" fill="white"/>
</clipPath>
</defs>
</svg>
