<svg width="307" height="322" viewBox="0 0 307 322" fill="none" xmlns="http://www.w3.org/2000/svg">
<mask id="mask0_874_205" style="mask-type:alpha" maskUnits="userSpaceOnUse" x="0" y="0" width="307" height="322">
<rect width="307" height="322" fill="#D9D9D9"/>
</mask>
<g mask="url(#mask0_874_205)">
<mask id="mask1_874_205" style="mask-type:alpha" maskUnits="userSpaceOnUse" x="5" y="-24" width="333" height="477">
<rect x="5" y="-24" width="332.444" height="476.203" fill="#C4C4C4"/>
</mask>
<g mask="url(#mask1_874_205)">
<mask id="mask2_874_205" style="mask-type:alpha" maskUnits="userSpaceOnUse" x="4" y="-5" width="323" height="477">
<rect width="321.569" height="475.305" transform="matrix(-1 0 0 1 326.569 -4.23303)" fill="#C4C4C4"/>
</mask>
<g mask="url(#mask2_874_205)">
<g clip-path="url(#clip0_874_205)">
<path d="M160.418 159.672C175.979 160.257 188.225 167.679 195.614 172.892C203.004 178.105 240.206 209.457 243.267 218.9C246.329 228.344 250.362 424.086 246.287 430.054C242.212 436.022 199.077 449.885 180.033 450.829C160.988 451.774 78.3502 438.081 71.8261 432.679C65.302 427.277 49.8259 238.561 53.2462 227.003C56.6666 215.444 109.408 178.237 119.944 167.34C124.525 162.505 153.62 159.426 160.418 159.672Z" fill="#BDBFE1"/>
<path d="M191.666 200.637C191.814 203.319 188.394 215.576 186.873 217.106C185.353 218.636 173.487 219.372 172.094 218.485C170.7 217.597 164.008 205.132 163.649 202.752C163.29 200.372 173.15 189.928 177.267 189.324C181.384 188.719 191.582 199.031 191.666 200.637Z" fill="#2E2766"/>
<path d="M186.873 217.106C186.873 217.106 206.15 343.553 207.269 352.07C208.388 360.588 186.62 411.752 182.946 412.905C179.273 414.057 158.729 361.91 157.462 356.244C156.196 350.578 170.743 222.602 171.925 218.069C172.242 216.804 186.704 215.916 186.873 217.106Z" fill="#2E2766"/>
<path d="M211.259 546.66C213.202 551.835 264.529 538.086 265.563 531.778C266.598 525.469 248.419 380.098 248.398 368.691C248.377 357.283 250.34 231.328 244.302 216.804C241.262 209.457 222.555 192.459 211.766 183.204C207.185 179.238 204.018 176.651 204.018 176.651C205.791 182.77 212.463 265.097 210.753 321.115C210.225 339.02 209.887 368.068 209.718 399.438C209.718 399.741 209.718 399.986 209.718 400.232C209.38 466.656 209.887 543.204 211.259 546.66Z" fill="white"/>
<path d="M236.131 260.697C236.553 254.917 214.236 231.384 214.236 231.384C214.236 231.384 234.062 234.18 234.083 230.308C234.083 226.946 216.031 191.515 211.766 183.204C207.184 179.238 200.766 174.668 200.766 174.668C202.539 180.806 212.442 265.097 210.753 321.115C210.225 339.02 209.887 368.068 209.718 399.438C210.605 381.59 235.709 266.4 236.131 260.697Z" fill="white"/>
<path d="M235.73 258.997C229.248 249.327 212.885 230.855 212.991 230.931C213.096 231.007 231.993 231.592 233.281 230.213C234.252 229.25 217.319 195.405 212.167 186.245C212.149 186.203 212.149 186.157 212.165 186.115C212.182 186.073 212.214 186.037 212.257 186.015C212.3 185.992 212.351 185.984 212.4 185.992C212.449 185.999 212.494 186.022 212.526 186.056C221.774 198.181 237.862 230.837 234.526 231.8C231.191 232.763 221.183 232.706 216.601 232.706C224.603 240.072 237.419 258.052 237.862 259.337C238.306 260.621 230.219 303.89 225.87 324.666C221.225 347.065 217.425 372.638 211.534 394.811C211.534 395.245 210.753 395.057 210.816 394.66C213.814 372.336 230.789 283.606 235.73 258.997Z" fill="#2E2766"/>
<path d="M44.8009 532.25C85.571 560.58 140.17 553.384 142.092 549.456C143.232 547.114 146.314 474.834 147.433 403.593V402.63C148.109 354.167 147.877 306.308 145.322 281.396C141.223 242.732 132.907 204.518 120.493 167.302C118.573 168.191 116.798 169.31 115.214 170.626C99.6325 181.845 55.8432 217.843 56.2866 224.642C56.8567 232.631 59.0102 337.414 55.5265 383.026C52.0428 428.637 39.1002 528.265 44.8009 532.25Z" fill="white"/>
<path d="M87.1755 289.688C94.3119 289.14 123.976 290.632 131.514 291.387C131.936 291.387 131.852 292.048 131.514 292.048C123.913 292.275 90.5537 290.67 89.2869 291.142C88.0201 291.614 88.5268 297.091 89.2869 297.412C91.0393 298.168 123.871 298.432 131.725 298.583C133.076 298.583 133.14 300.472 131.725 300.472C116.946 300.17 102.166 299.641 87.5133 298.98C87.2384 298.98 86.9737 298.887 86.7735 298.718C86.5733 298.55 86.4527 298.319 86.4366 298.073C86.3376 295.262 86.5854 292.45 87.1755 289.688Z" fill="#2E2766"/>
<path d="M125.623 225.643C125.961 226.342 104.679 244.775 103.496 247.457C102.314 250.139 132.147 322.003 138.439 343.779C144.731 365.556 147.433 403.631 147.433 403.631V402.668C148.109 354.205 147.877 306.346 145.322 281.434C141.158 242.226 133.498 203.378 122.414 165.262C121.971 165.262 118.191 168.529 115.256 170.626C114.855 172.118 100.625 219.316 100.477 220.846C100.329 222.375 125.328 224.944 125.623 225.643Z" fill="white"/>
<path d="M114.496 172.08C114.623 171.627 114.982 171.74 114.876 172.212C111.512 188.627 107.056 204.848 101.533 220.789C109.978 222.073 126.024 225.02 126.32 225.341C126.869 225.945 119.986 233.462 116.291 236.786C112.464 240.666 108.344 244.307 103.961 247.684C115.742 271.349 140.571 344.006 142.978 356.282C145.29 368.977 146.813 381.777 147.539 394.622C147.539 394.773 147.286 394.792 147.264 394.622C145.406 381.137 143.76 367.595 140.614 354.28C137.763 342.287 111.393 271.802 102.082 248.042C101.828 247.4 121.59 228.986 125.159 225.851C117.093 224.736 99.4636 222.281 99.6747 221.62C104.911 205.214 109.851 188.7 114.496 172.08Z" fill="#2E2766"/>
<path d="M92.0316 357.094C92.1583 360.362 92.7706 362.647 93.3829 362.911C95.262 363.818 103.222 367.255 113.99 371.146C115.932 371.845 117.938 372.563 120.049 373.28C125.94 375.282 147.497 385.103 171.461 395.453C203.637 409.297 240.438 424.067 251.101 422.461C269.659 419.628 295.671 399.646 297.656 388.182C299.64 376.718 260.602 240.45 255.64 231.177C250.678 221.903 245.083 214.065 239.742 209.362L247.828 359.304C247.276 359.035 246.696 358.813 246.097 358.643C240.1 356.754 220.169 351.806 197.303 346.461C158.835 337.452 112.047 327.197 109.007 328.047C107.939 328.357 106.896 328.73 105.882 329.161C93.9318 334.487 91.6094 348.897 92.0316 357.094Z" fill="white"/>
<path d="M90.8704 357.189C90.8704 358.643 91.166 360.154 91.4405 361.74C91.2927 362.099 91.905 362.628 92.3694 362.855C114.771 374.451 182.798 401.724 199.626 408.391C209.507 412.338 243.246 426.786 253.655 422.253C253.866 422.14 253.909 421.951 253.655 421.989H253.381C243.88 423.292 207.543 409.826 171.883 395.208C165.908 392.771 159.933 390.297 154.126 387.88C153.938 387.777 153.74 387.688 153.535 387.615C141.353 382.497 129.825 377.511 120.176 373.299H120.049L114.433 370.844C101.427 365.178 93.0029 361.4 93.0029 361.4C92.4328 354.148 92.5595 334.846 109.577 328.84C135.314 334.978 164.345 340.474 190.273 346.499C191.181 346.688 192.067 346.896 192.975 347.122C206.544 350.308 220.134 353.556 233.745 356.868C237.928 357.761 241.961 359.146 245.738 360.985C248.119 362.177 250.325 363.63 252.304 365.31C257.076 369.333 261.636 373.488 266.619 377.322C266.915 377.568 267.273 377.209 267.02 376.944C261.615 371.07 255.957 364.422 248.799 359.946C249.517 341.702 249.918 323.382 250.425 305.175C251.341 303.82 251.977 302.33 252.304 300.774C252.878 298.776 253.294 296.743 253.55 294.693C253.569 294.618 253.555 294.538 253.509 294.473C253.464 294.407 253.391 294.361 253.307 294.343C253.223 294.326 253.135 294.339 253.061 294.379C252.988 294.42 252.936 294.485 252.916 294.56C252.41 296.449 251.776 298.338 251.058 300.132C250.889 300.548 250.699 300.944 250.509 301.379C250.721 293.824 250.911 286.137 251.206 278.526C251.206 278.526 251.079 278.526 251.058 278.526C247.659 299.301 246.941 320.7 246.836 341.966C246.836 347.632 246.836 353.298 246.836 358.964C244.894 357.852 242.819 356.94 240.649 356.244C227.073 352.335 212.991 349.521 199.225 346.291C183.136 342.514 165.908 338.906 148.742 335.45C148.384 335.45 148.003 335.28 147.581 335.224C136.771 333.052 126.024 330.898 115.637 328.783L109.577 327.556C107.987 327.887 106.463 328.435 105.059 329.18C99.1891 332.013 89.4558 339.53 90.8704 357.189Z" fill="#2E2766"/>
<path d="M23.5184 382.119C23.5184 389.391 49.678 424.747 67.0544 422.745C95.5576 419.515 216.2 366.708 222.006 365.518C223.21 365.235 223.4 364.007 222.893 362.156C221.418 358.226 219.282 354.519 216.559 351.164C213.145 346.448 208.861 342.285 203.891 338.85C202.828 338.174 201.662 337.64 200.428 337.263C192.701 335.167 120.83 346.405 90.7859 351.579C82.9739 352.92 78.1178 353.846 77.6744 354.016C77.231 354.186 76.7455 344.573 76.2176 330.275C74.5919 288.517 72.6494 205.623 72.6494 205.623C63.634 213.876 45.3919 229.855 42.0349 235.464C38.6778 241.073 23.5817 374.848 23.5184 382.119Z" fill="white"/>
<path d="M57.4267 363.157C62.8578 359.629 68.7062 356.646 74.8664 354.261C70.6437 353.336 64.3097 355.224 61.016 355.527C60.3615 355.527 60.2981 354.752 60.8259 354.563C64.4897 353.371 68.35 352.732 72.2483 352.675C73.465 352.623 74.6769 352.844 75.7743 353.317C73.7183 329.642 74.0504 305.849 76.7666 282.227C76.7666 281.812 77.5689 281.906 77.5689 282.227C77.5689 288.498 77.5689 294.768 77.5689 301.114C78.2868 298.489 79.1524 295.882 79.8703 293.408C79.8613 293.388 79.858 293.366 79.8606 293.345C79.8632 293.323 79.8716 293.303 79.8852 293.285C79.8987 293.267 79.9169 293.253 79.9383 293.242C79.9596 293.232 79.9834 293.227 80.0075 293.227C80.0317 293.227 80.0555 293.232 80.0768 293.242C80.0981 293.253 80.1164 293.267 80.1299 293.285C80.1434 293.303 80.1519 293.323 80.1545 293.345C80.1571 293.366 80.1537 293.388 80.1448 293.408C78.8991 299.074 78.8991 304.986 77.5267 310.576C77.5267 324.817 77.3789 339.057 77.5267 353.298C92.6651 348.369 180.075 334.789 200.196 336.867C201.533 337.078 202.785 337.599 203.827 338.378C204.292 338.699 204.229 339.133 203.975 339.02C202.594 338.269 201.043 337.805 199.436 337.66C178.027 337.565 92.4117 350.692 77.2944 355.659C77.2223 355.722 77.1363 355.772 77.0419 355.804C76.9475 355.837 76.8466 355.852 76.7455 355.848C70.1269 358.04 63.698 360.666 57.5111 363.705C56.6244 364.158 56.6244 363.648 57.4267 363.157Z" fill="#2E2766"/>
<path d="M119.606 172.212C122.773 155.611 153.028 154.95 167.174 155.762C185.205 156.782 200.09 160.994 204.524 177.746C208.958 194.499 208.325 212.441 207.142 229.326C207.151 229.942 207.417 230.532 207.887 230.982C208.358 231.432 208.999 231.709 209.685 231.759C210.372 231.809 211.054 231.627 211.599 231.251C212.144 230.874 212.512 230.329 212.632 229.722C213.983 210.25 218.649 173.723 200.09 159.615C181.532 145.506 119.521 143.712 114.116 171.816C113.525 174.932 118.994 175.291 119.606 172.212Z" fill="#2E2766"/>
<path d="M221.647 239.676C221.463 241.914 220.54 244.054 218.995 245.823C217.45 247.592 215.352 248.91 212.968 249.611C210.584 250.312 208.021 250.364 205.604 249.76C203.187 249.155 201.025 247.923 199.393 246.218C197.76 244.513 196.73 242.413 196.434 240.184C196.137 237.955 196.588 235.697 197.728 233.697C198.868 231.698 200.646 230.046 202.837 228.951C205.028 227.857 207.533 227.369 210.035 227.55C213.367 227.792 216.458 229.202 218.634 231.473C220.809 233.744 221.892 236.693 221.647 239.676Z" fill="#778BFD"/>
<path d="M216.664 239.317C216.547 240.657 215.988 241.937 215.058 242.993C214.128 244.049 212.869 244.835 211.44 245.252C210.01 245.668 208.475 245.696 207.028 245.331C205.581 244.967 204.288 244.228 203.311 243.206C202.333 242.184 201.717 240.926 201.539 239.591C201.361 238.256 201.63 236.903 202.312 235.705C202.993 234.506 204.056 233.515 205.367 232.857C206.678 232.199 208.177 231.903 209.676 232.008C210.671 232.077 211.642 232.321 212.532 232.726C213.422 233.131 214.214 233.688 214.863 234.367C215.512 235.046 216.005 235.832 216.314 236.682C216.623 237.531 216.742 238.426 216.664 239.317Z" fill="#E4EEF8"/>
<path d="M124.251 227.343C125.285 276.108 120.176 286.855 114.475 291.199C110.265 294.178 105.345 296.252 100.097 297.261L99.358 293.899L99.738 295.58L99.358 293.899C103.977 293.015 108.309 291.2 112.026 288.592C116.249 285.457 121.506 275.693 120.471 227.418L124.251 227.343Z" fill="#BDBFE1"/>
<path d="M107.216 292.389L108.117 295.363C108.453 296.474 107.719 297.619 106.476 297.92L98.247 299.914C97.0045 300.215 95.7244 299.558 95.3878 298.446L94.4876 295.473C94.151 294.361 94.8855 293.216 96.1281 292.915L104.357 290.922C105.6 290.621 106.88 291.278 107.216 292.389Z" fill="#778BFD"/>
<path d="M90.4904 221.223C70.9393 253.557 63.3596 271.915 66.611 279.036C68.5567 282.861 71.4437 286.245 75.0564 288.932L72.6917 291.633C68.5383 288.57 65.2295 284.692 63.0217 280.301C59.1369 271.821 66.1254 254.218 87.0911 219.542L90.4904 221.223Z" fill="#BDBFE1"/>
<path d="M80.5109 293.535L78.1667 295.815C77.2904 296.667 75.8078 296.723 74.8552 295.939L68.5464 290.747C67.5938 289.964 67.5319 288.637 68.4082 287.785L70.7524 285.506C71.6286 284.653 73.1112 284.598 74.0638 285.382L80.3727 290.573C81.3253 291.357 81.3872 292.683 80.5109 293.535Z" fill="#778BFD"/>
<path d="M144.182 144.411C139.072 146.3 121.527 167.188 122.182 170.191C122.836 173.194 120.64 211.119 159.405 225.888L178.407 193.781L197.409 220.033C197.409 220.033 208.346 199.107 207.966 193.894C207.586 188.681 203.046 162.693 180.518 149.756C163.543 140.143 154.844 140.35 144.182 144.411Z" fill="#BDBFE1"/>
<path d="M122.773 169.795C124.757 190.57 134.808 217.54 158.919 224.68C165.57 214.5 172.305 204.527 177.921 193.875C177.966 193.8 178.03 193.735 178.108 193.686C178.186 193.636 178.275 193.604 178.37 193.591C178.464 193.578 178.56 193.585 178.651 193.612C178.742 193.638 178.825 193.683 178.892 193.743C179.061 193.743 192.468 211.119 197.599 219.599C200.542 213.691 202.936 207.576 204.756 201.317C207.691 192.78 206.424 186.207 203.447 177.822C203.447 177.614 203.764 177.463 203.849 177.67C207.311 184.507 209.591 191.307 207.332 198.71C205.369 206.344 202.437 213.752 198.591 220.789C198.536 220.882 198.449 220.958 198.343 221.006C198.237 221.053 198.117 221.07 198 221.053C197.917 221.087 197.823 221.094 197.735 221.073C197.647 221.052 197.569 221.005 197.515 220.94C190.864 212.819 185.417 203.942 178.745 195.764C173.023 206.378 166.562 216.539 160.101 225.983C159.806 226.417 158.687 226.191 158.581 226.153C133.498 219.051 121.802 191.59 122.414 169.795C122.414 169.625 122.752 169.625 122.773 169.795Z" fill="#2E2766"/>
<path d="M199.584 120.236L196.733 169.342L196.311 176.254C196.311 176.254 193.461 190.457 176.866 193.082C160.27 195.707 135.082 175.876 133.203 172.175C132.189 170.286 131.366 152.683 130.775 135.988C130.205 120.028 129.888 104.843 129.888 104.843L137.658 106.562L199.584 120.236Z" fill="#FDD7BC"/>
<path d="M199.584 120.236L196.733 169.342C178.383 166.819 161.077 160.084 146.504 149.794C140.757 145.701 135.513 141.073 130.859 135.988C130.289 120.028 129.972 104.843 129.972 104.843L137.742 106.562L199.584 120.236Z" fill="#DBA89B"/>
<path d="M119.564 36.3035C108.099 59.4586 118.212 117.403 137.911 137.083C151.382 150.549 180.729 154.685 202.645 146.81C212.65 143.456 220.85 136.816 225.574 128.244C240.354 99.8006 226.947 31.5818 211.006 20.8542C182.862 1.87301 133.604 7.99231 119.564 36.3035Z" fill="#FDD7BC"/>
<path d="M170.975 88.5819C170.975 88.4497 170.679 88.7897 170.7 88.9408C171.165 92.5481 170.996 96.741 167.449 98.2141C167.322 98.2141 167.449 98.4408 167.449 98.403C171.862 97.4587 172.009 91.8682 170.975 88.5819Z" fill="#2E2766"/>
<path d="M166.984 84.9934C160.439 84.9934 160.988 96.7221 166.984 96.7032C172.981 96.6843 172.474 84.9745 166.984 84.9934Z" fill="#2E2766"/>
<path d="M202.645 86.4477C202.645 86.3155 202.962 86.6176 202.962 86.7498C202.962 90.395 203.722 94.5501 207.459 95.6077C207.459 95.6077 207.459 95.8344 207.459 95.8155C202.92 95.4189 202.033 89.9039 202.645 86.4477Z" fill="#2E2766"/>
<path d="M206.087 82.5193C212.59 81.8393 213.645 93.5302 207.607 94.1535C201.568 94.7767 200.534 83.1047 206.087 82.5193Z" fill="#2E2766"/>
<path d="M176.591 121.237C177.605 122.049 178.702 123.126 180.096 123.239C181.572 123.145 183.009 122.779 184.319 122.163C184.347 122.15 184.38 122.146 184.412 122.152C184.443 122.157 184.472 122.172 184.493 122.193C184.515 122.214 184.528 122.241 184.53 122.27C184.533 122.298 184.526 122.327 184.509 122.351C183.962 123.063 183.216 123.633 182.345 124.005C181.474 124.376 180.509 124.535 179.547 124.467C178.705 124.315 177.934 123.938 177.338 123.384C176.742 122.831 176.349 122.128 176.211 121.369C176.127 121.199 176.443 121.105 176.591 121.237Z" fill="#DBA89B"/>
<path d="M161.579 79.8374C163.281 79.3178 164.952 78.7189 166.583 78.0432C168.44 77.6374 170.095 76.6947 171.292 75.3612C171.57 74.8741 171.662 74.3191 171.556 73.7805C171.449 73.2419 171.149 72.7491 170.7 72.3771C169.685 71.7659 168.506 71.4085 167.285 71.3421C166.063 71.2757 164.844 71.5026 163.754 71.9994C161.37 72.7002 159.361 74.1673 158.117 76.1167C157.861 76.5761 157.76 77.0922 157.826 77.6021C157.893 78.112 158.123 78.5935 158.491 78.988C158.858 79.3825 159.345 79.6729 159.894 79.8237C160.442 79.9746 161.028 79.9793 161.579 79.8374Z" fill="#2E2766"/>
<path d="M210.879 76.4378C209.106 76.1666 207.351 75.8072 205.622 75.3612C203.744 75.2335 201.961 74.5716 200.534 73.4725C200.164 73.0383 199.964 72.5075 199.964 71.9616C199.964 71.4157 200.164 70.8849 200.534 70.4507C201.425 69.697 202.525 69.1701 203.72 68.9244C204.916 68.6786 206.163 68.7231 207.332 69.053C209.816 69.3828 212.074 70.5273 213.666 72.2638C214.006 72.6827 214.201 73.1817 214.227 73.6989C214.253 74.2161 214.109 74.7287 213.812 75.1732C213.515 75.6177 213.079 75.9744 212.558 76.1992C212.037 76.424 211.453 76.507 210.879 76.4378Z" fill="#2E2766"/>
<path d="M190.843 112.908C190.843 112.908 187.549 120.463 181.109 119.046C176.232 118.045 178.576 109.244 178.576 109.244C178.576 109.244 184.931 113.437 190.843 112.908Z" fill="white"/>
<path d="M178.217 109.584C179.31 110.981 180.715 112.16 182.343 113.048C183.971 113.935 185.787 114.511 187.676 114.74C189.328 114.957 191.006 114.957 192.658 114.74C192.98 114.727 193.298 114.682 193.609 114.608L194.495 114.457C194.706 114.411 194.895 114.306 195.032 114.156C195.169 114.006 195.248 113.819 195.255 113.626C195.276 113.507 195.276 113.386 195.255 113.267V112.908C195.255 110.113 194.707 105.882 194.707 105.882C195.868 106.354 201.801 108.47 201.632 107.015C200.28 94.9656 198.76 81.5749 194.559 69.8463C194.529 69.7703 194.47 69.7061 194.393 69.6652C194.315 69.6243 194.224 69.6093 194.136 69.6229C194.047 69.6365 193.966 69.6778 193.909 69.7395C193.851 69.8011 193.819 69.8791 193.82 69.9596C194.622 81.5938 197.705 93.0014 198.697 104.673C196.589 103.875 194.363 103.354 192.088 103.125C191.645 103.257 193.207 111.303 193.123 112.568C193.128 112.618 193.128 112.669 193.123 112.719C187.908 113.512 183.875 112.228 178.639 109.263C178.259 109.055 177.964 109.357 178.217 109.584Z" fill="#DBA89B"/>
<path d="M213.856 37.0212C227.665 56.6445 229.691 88.3553 232.542 79.3652C241.895 49.7508 225.321 32.6017 225.321 32.6017C225.321 32.6017 212.209 34.6603 213.856 37.0212Z" fill="#2E2766"/>
<path d="M123.786 98.2332C123.786 98.2332 148.827 93.7949 141.416 46.1248C155.96 51.5918 171.88 53.4575 187.507 51.5264C214.954 48.4667 229.734 38.079 238.285 21.3076C241.114 15.8116 226.292 23.5552 219.768 21.0432C208.24 16.5482 196.902 3.00641 165.654 3.5919C134.406 4.17738 126.13 23.0452 126.13 23.0452C126.13 23.0452 109.239 27.6725 102.631 40.7421C96.0221 53.8117 107.635 98.2143 123.786 98.2332Z" fill="#2E2766"/>
<path d="M132.569 96.6087C132.569 96.6087 119.901 77.3631 110.147 81.2916C100.393 85.22 109.007 112.474 119.606 116.912C120.92 117.554 122.366 117.952 123.857 118.082C125.348 118.211 126.852 118.07 128.28 117.666C129.708 117.262 131.03 116.604 132.166 115.731C133.303 114.858 134.23 113.789 134.892 112.587L132.569 96.6087Z" fill="#FDD7BC"/>
<path d="M112.807 89.0541C112.638 89.0541 112.575 89.2429 112.807 89.2996C120.218 92.5859 123.702 99.1962 125.961 105.958C123.85 103.276 120.936 101.689 116.946 103.842C116.734 103.956 116.946 104.258 117.114 104.22C118.491 103.929 119.935 104.027 121.247 104.5C122.56 104.974 123.675 105.8 124.441 106.864C125.715 108.646 126.77 110.546 127.587 112.53C127.882 113.154 129.149 112.927 128.938 112.19C128.945 112.14 128.945 112.089 128.938 112.039C129.74 103.332 123.195 90.6217 112.807 89.0541Z" fill="#DBA89B"/>
<path d="M147.412 141.163C136.391 136.762 125.285 131.719 118.107 122.276C112.68 115.642 109.065 107.965 107.55 99.8573C108.532 103.078 109.95 106.18 111.773 109.093C113.633 112.106 116.095 114.788 119.036 117.006C125.737 127.078 135.844 134.982 147.898 139.576C149.017 139.897 148.51 141.597 147.412 141.163Z" fill="white"/>
<path d="M135.863 103.238C133.9 101.047 127.777 89.7339 122.308 85.5033C121.477 84.7525 120.603 84.0401 119.69 83.3691C118.228 82.2407 116.505 81.4151 114.644 80.9516C116.163 80.3971 117.833 80.2655 119.437 80.5739C127.882 82.0093 133.562 97.0809 136.644 102.785C136.813 103.125 136.201 103.691 135.863 103.238Z" fill="white"/>
<path d="M134.005 100.688C132.591 97.8741 155.288 107.62 178.956 103.257C183.791 102.369 197.282 97.5908 204.799 97.5908C212.315 97.5908 221.098 103.03 231.465 104.031C235.033 104.371 231.951 131.851 222.893 143.882C219.895 147.829 207.206 155.932 199.436 156.65C181.194 158.312 149.946 146.677 145.195 141.238C141.416 136.8 147.454 127.337 134.005 100.688Z" fill="white"/>
<path d="M228.995 109.962C222.398 107.4 215.53 105.438 208.494 104.107C202.413 103.03 196.902 105.032 191.138 106.864C175.683 111.775 160.102 111.227 144.52 107.242C144.351 107.242 144.266 107.487 144.52 107.563C156.825 112.282 170.511 113.296 183.516 110.453C190.547 108.98 197.641 105.58 204.968 105.977C212.991 106.43 220.782 109.754 228.72 111.076C229.375 111.246 229.649 110.226 228.995 109.962Z" fill="#BDBFE1"/>
<path d="M217.425 141.748C212.505 143.863 207.67 146.98 202.645 148.472C196.522 150.247 189.301 148.472 183.263 147.168C171.841 144.77 160.862 140.577 149.693 137.121C149.693 137.121 149.566 137.234 149.693 137.272C161.886 142.887 174.888 146.967 188.33 149.397C192.806 150.096 197.726 151.116 202.181 149.926C207.543 148.472 212.906 144.902 217.657 142.031C217.72 141.956 217.636 141.691 217.425 141.748Z" fill="#BDBFE1"/>
<path d="M225.089 119.216C213.476 116.157 202.645 116.912 190.843 118.328C177.506 119.869 163.989 119.64 150.727 117.649C150.6 117.649 150.558 117.837 150.727 117.856C162.522 120.076 174.631 120.644 186.62 119.537C192.405 118.989 198.19 118.007 203.996 117.649C211.121 117.408 218.244 118.159 225.11 119.877C225.342 119.972 225.511 119.329 225.089 119.216Z" fill="#BDBFE1"/>
<path d="M222.365 129.755C212.063 135.069 200.173 137.398 188.33 136.422C176.253 135.421 164.641 131.341 153.113 127.791C152.944 127.791 152.902 127.98 153.113 128.036C176.338 136.781 199.71 142.692 222.787 130.378C223.125 130.133 222.809 129.528 222.365 129.755Z" fill="#BDBFE1"/>
<path d="M116 169L52.45 223.169C47.9722 227.05 39.0167 238.255 39.0167 252.025C39.0167 265.795 33.1611 309.063 30.2333 328.975L23 382.638C27.9944 390.569 34.78 402.685 46.7667 412" stroke="#2E2766" stroke-width="2"/>
<path d="M213 184C222 188.333 243.3 204.8 256.5 236C269.7 267.2 280.333 309 284 326L297.5 383.5C297.5 390.5 293.5 406.1 277.5 412.5C261.5 418.9 256.5 420.833 256 421" stroke="#2E2766" stroke-width="2"/>
<path d="M86.2465 217.861C89.9776 210.59 94.2084 203.531 98.9146 196.727C101.423 193.803 104.763 191.533 108.585 190.155C109.345 190.155 110.696 184.375 111.519 179.54C112.322 175.272 113.145 170.286 114.623 169.171C115.446 168.693 116.445 168.518 117.409 168.684C118.374 168.849 119.229 169.342 119.796 170.059C120.746 171.57 119.479 176.481 118.508 180.711C117.389 185.527 116.185 191.401 116.924 191.571C119.699 194.19 121.72 197.372 122.815 200.844C124.436 208.953 125.353 217.162 125.56 225.397C125.433 230.572 123.448 230.78 121.759 230.931C119.331 231.12 118.297 229.458 118.022 223.641C117.579 214.424 118.022 199.088 111.308 197.766C104.51 196.916 97.6478 211.685 93.1718 219.788C90.3848 224.849 88.9491 225.095 86.8377 224.132C85.3809 223.357 83.903 222.394 86.2465 217.861Z" fill="#778BFD"/>
</g>
</g>
</g>
</g>
<defs>
<clipPath id="clip0_874_205">
<rect width="274.137" height="582.92" fill="white" transform="matrix(-1 0 0 1 297.656 3.59167)"/>
</clipPath>
</defs>
</svg>
