<svg width="307" height="322" viewBox="0 0 307 322" fill="none" xmlns="http://www.w3.org/2000/svg">
<mask id="mask0_441_18334" style="mask-type:alpha" maskUnits="userSpaceOnUse" x="0" y="0" width="307" height="322">
<rect width="307" height="322" transform="matrix(-1 0 0 1 307 0)" fill="#C4C4C4"/>
</mask>
<g mask="url(#mask0_441_18334)">
<g clip-path="url(#clip0_441_18334)">
<path d="M148.586 160.006C163.463 160.578 175.171 167.824 182.235 172.913C189.3 178.001 224.867 208.608 227.794 217.826C230.721 227.045 234.576 418.132 230.68 423.958C226.785 429.784 185.546 443.317 167.339 444.239C149.131 445.161 70.1259 431.794 63.8887 426.521C57.6514 421.248 42.8555 237.02 46.1255 225.736C49.3956 214.452 99.8186 178.13 109.891 167.492C114.271 162.772 142.087 159.767 148.586 160.006Z" fill="#BDBFE1"/>
<path d="M178.461 199.997C178.602 202.615 175.332 214.581 173.879 216.075C172.425 217.568 161.081 218.287 159.749 217.421C158.417 216.554 152.018 204.385 151.675 202.062C151.332 199.739 160.758 189.543 164.694 188.953C168.63 188.363 178.38 198.43 178.461 199.997Z" fill="#2E2766"/>
<path d="M173.879 216.075C173.879 216.075 192.308 339.514 193.378 347.829C194.447 356.145 173.636 406.092 170.124 407.217C166.612 408.341 146.972 357.435 145.76 351.904C144.549 346.373 158.457 221.44 159.587 217.015C159.89 215.78 173.717 214.913 173.879 216.075Z" fill="#2E2766"/>
<path d="M197.193 537.791C199.05 542.843 248.12 529.421 249.109 523.262C250.099 517.104 232.719 375.191 232.699 364.054C232.679 352.918 234.556 229.958 228.783 215.78C225.876 208.608 207.992 192.014 197.677 182.979C193.297 179.108 190.269 176.582 190.269 176.582C191.965 182.555 198.343 262.925 196.708 317.61C196.204 335.089 195.881 363.446 195.719 394.071C195.719 394.366 195.719 394.605 195.719 394.845C195.396 459.69 195.881 534.417 197.193 537.791Z" fill="white"/>
<path d="M220.971 258.629C221.375 252.987 200.039 230.014 200.039 230.014C200.039 230.014 218.993 232.742 219.013 228.963C219.013 225.681 201.755 191.092 197.677 182.98C193.297 179.108 187.161 174.646 187.161 174.646C188.856 180.638 198.323 262.925 196.708 317.61C196.204 335.089 195.881 363.446 195.719 394.071C196.567 376.647 220.567 264.197 220.971 258.629Z" fill="white"/>
<path d="M220.588 256.969C214.391 247.529 198.747 229.497 198.848 229.571C198.949 229.645 217.015 230.216 218.246 228.87C219.175 227.93 202.986 194.89 198.061 185.948C198.044 185.907 198.043 185.862 198.059 185.821C198.075 185.78 198.106 185.745 198.147 185.723C198.188 185.701 198.236 185.693 198.283 185.7C198.331 185.708 198.373 185.73 198.404 185.764C207.245 197.6 222.626 229.479 219.437 230.419C216.248 231.36 206.68 231.304 202.3 231.304C209.95 238.495 222.202 256.047 222.626 257.301C223.05 258.555 215.319 300.795 211.161 321.077C206.72 342.943 203.087 367.908 197.455 389.553C197.455 389.977 196.708 389.793 196.769 389.406C199.635 367.613 215.864 280.993 220.588 256.969Z" fill="#2E2766"/>
<path d="M38.0513 523.723C77.0292 551.38 129.229 544.355 131.065 540.52C132.155 538.234 135.102 467.673 136.172 398.127V397.187C136.818 349.876 136.596 303.155 134.154 278.836C130.235 241.091 122.284 203.787 110.416 167.455C108.581 168.324 106.883 169.415 105.369 170.7C90.4726 181.652 48.6082 216.794 49.0321 223.431C49.5771 231.23 51.636 333.522 48.3054 378.048C44.9748 422.575 32.6012 519.833 38.0513 523.723Z" fill="white"/>
<path d="M78.5633 286.93C85.386 286.395 113.746 287.852 120.953 288.59C121.356 288.59 121.276 289.235 120.953 289.235C113.686 289.456 81.793 287.889 80.5819 288.35C79.3708 288.811 79.8552 294.158 80.5819 294.471C82.2573 295.209 113.646 295.467 121.155 295.614C122.446 295.614 122.507 297.458 121.155 297.458C107.025 297.163 92.895 296.647 78.8863 296.001C78.6235 296.002 78.3704 295.91 78.179 295.746C77.9876 295.581 77.8723 295.356 77.8569 295.116C77.7623 292.372 77.9992 289.627 78.5633 286.93Z" fill="#2E2766"/>
<path d="M115.321 224.409C115.644 225.091 95.2969 243.086 94.1666 245.704C93.0362 248.322 121.558 318.477 127.573 339.735C133.589 360.994 136.172 398.164 136.172 398.164V397.223C136.818 349.913 136.596 303.192 134.154 278.873C130.173 240.597 122.849 202.674 112.253 165.464C111.829 165.464 108.216 168.654 105.41 170.7C105.026 172.157 91.4213 218.232 91.28 219.725C91.1388 221.219 115.038 223.726 115.321 224.409Z" fill="white"/>
<path d="M104.683 172.12C104.804 171.677 105.147 171.788 105.047 172.249C101.83 188.273 97.5697 204.109 92.2894 219.67C100.364 220.924 115.704 223.8 115.987 224.114C116.512 224.704 109.931 232.042 106.399 235.287C102.74 239.075 98.8014 242.629 94.6107 245.925C105.874 269.027 129.612 339.957 131.913 351.941C134.124 364.334 135.579 376.829 136.273 389.369C136.273 389.517 136.031 389.535 136.011 389.369C134.235 376.205 132.66 362.985 129.653 349.987C126.927 338.279 101.716 269.47 92.8142 246.275C92.572 245.649 111.465 227.672 114.877 224.611C107.166 223.524 90.3112 221.127 90.5131 220.481C95.5191 204.465 100.242 188.345 104.683 172.12Z" fill="#2E2766"/>
<g filter="url(#filter0_d_441_18334)">
<path d="M83.206 352.734C83.3271 355.923 83.9125 358.154 84.4978 358.412C86.2944 359.297 93.9043 362.653 104.199 366.451C106.056 367.133 107.973 367.834 109.992 368.535C115.624 370.489 136.233 380.076 159.143 390.18C189.906 403.695 225.089 418.113 235.283 416.546C253.026 413.78 277.894 394.273 279.791 383.082C281.689 371.89 244.366 238.864 239.622 229.811C234.879 220.758 229.53 213.106 224.423 208.515L232.154 354.891C231.626 354.628 231.072 354.412 230.499 354.246C224.766 352.402 205.711 347.571 183.85 342.353C147.073 333.559 102.342 323.547 99.435 324.377C98.4146 324.68 97.4167 325.044 96.4476 325.465C85.0227 330.664 82.8023 344.732 83.206 352.734Z" fill="white"/>
</g>
<path d="M82.0958 352.826C82.0958 354.246 82.3784 355.721 82.6408 357.269C82.4995 357.62 83.0849 358.136 83.5289 358.357C104.946 369.678 169.983 396.302 186.071 402.81C195.517 406.663 227.774 420.768 237.725 416.343C237.927 416.233 237.967 416.048 237.725 416.085H237.463C228.379 417.357 193.64 404.211 159.547 389.941C153.835 387.562 148.122 385.147 142.571 382.787C142.391 382.686 142.202 382.6 142.006 382.529C130.359 377.532 119.338 372.665 110.113 368.553H109.992L104.623 366.156C92.1885 360.625 84.1345 356.937 84.1345 356.937C83.5895 349.857 83.7106 331.014 99.98 325.151C124.586 331.143 152.341 336.509 177.128 342.39C177.996 342.575 178.844 342.777 179.712 342.999C192.685 346.109 205.677 349.28 218.69 352.512C222.689 353.385 226.544 354.736 230.155 356.532C232.432 357.695 234.541 359.114 236.433 360.754C240.995 364.681 245.355 368.738 250.119 372.48C250.401 372.72 250.745 372.37 250.502 372.112C245.335 366.377 239.925 359.887 233.082 355.518C233.769 337.707 234.152 319.823 234.637 302.049C235.512 300.727 236.121 299.272 236.433 297.753C236.981 295.802 237.379 293.818 237.624 291.816C237.643 291.743 237.629 291.666 237.585 291.602C237.542 291.538 237.472 291.492 237.392 291.475C237.312 291.458 237.227 291.471 237.157 291.51C237.087 291.55 237.037 291.614 237.018 291.687C236.534 293.531 235.928 295.375 235.242 297.126C235.081 297.532 234.899 297.919 234.717 298.343C234.919 290.968 235.101 283.464 235.383 276.034C235.383 276.034 235.262 276.034 235.242 276.034C231.992 296.315 231.306 317.205 231.205 337.965C231.205 343.497 231.205 349.028 231.205 354.559C229.349 353.474 227.365 352.583 225.291 351.904C212.312 348.087 198.848 345.34 185.687 342.187C170.306 338.5 153.835 334.978 137.424 331.604C137.081 331.604 136.717 331.438 136.314 331.383C125.979 329.263 115.704 327.161 105.773 325.096L99.98 323.897C98.4599 324.221 97.0031 324.756 95.6603 325.483C90.0488 328.249 80.7434 335.587 82.0958 352.826Z" fill="#2E2766"/>
<g filter="url(#filter1_d_441_18334)">
<path d="M17.7044 377.164C17.7044 384.262 42.7141 418.777 59.3267 416.823C86.5769 413.67 201.916 362.118 207.467 360.957C208.618 360.68 208.799 359.482 208.315 357.675C206.905 353.838 204.863 350.22 202.259 346.944C198.995 342.341 194.9 338.276 190.148 334.923C189.132 334.264 188.017 333.742 186.838 333.374C179.45 331.328 110.739 342.298 82.015 347.35C74.5464 348.659 69.9038 349.563 69.4799 349.728C69.056 349.894 68.5918 340.51 68.0871 326.553C66.5329 285.787 64.6758 204.865 64.6758 204.865C56.0566 212.922 38.6165 228.52 35.407 233.996C32.1975 239.472 17.765 370.065 17.7044 377.164Z" fill="white"/>
</g>
<path d="M50.1221 358.652C55.3145 355.208 60.9058 352.296 66.7953 349.968C62.7582 349.065 56.7026 350.908 53.5536 351.203C52.9279 351.203 52.8674 350.447 53.372 350.263C56.8747 349.099 60.5653 348.475 64.2923 348.419C65.4555 348.369 66.6141 348.585 67.6632 349.046C65.6976 325.934 66.0151 302.707 68.6119 279.647C68.6119 279.242 69.379 279.334 69.379 279.647C69.379 285.769 69.379 291.89 69.379 298.085C70.0653 295.522 70.8929 292.978 71.5792 290.562C71.5706 290.543 71.5674 290.522 71.5699 290.501C71.5724 290.48 71.5805 290.46 71.5934 290.442C71.6063 290.425 71.6238 290.41 71.6442 290.4C71.6646 290.391 71.6873 290.385 71.7104 290.385C71.7335 290.385 71.7562 290.391 71.7766 290.4C71.797 290.41 71.8144 290.425 71.8274 290.442C71.8403 290.46 71.8484 290.48 71.8509 290.501C71.8534 290.522 71.8502 290.543 71.8416 290.562C70.6507 296.094 70.6507 301.865 69.3386 307.322C69.3386 321.224 69.1973 335.126 69.3386 349.028C83.8115 344.216 167.379 330.959 186.616 332.987C187.894 333.193 189.091 333.702 190.087 334.462C190.532 334.776 190.471 335.2 190.229 335.089C188.909 334.356 187.426 333.903 185.889 333.761C165.421 333.669 83.5693 346.483 69.1166 351.332C69.0476 351.394 68.9654 351.443 68.8751 351.474C68.7848 351.506 68.6884 351.521 68.5918 351.517C62.2641 353.657 56.1178 356.221 50.2029 359.187C49.3551 359.629 49.3551 359.132 50.1221 358.652Z" fill="#2E2766"/>
<path d="M109.568 172.249C112.596 156.042 141.521 155.397 155.046 156.19C172.284 157.185 186.515 161.297 190.754 177.651C194.993 194.005 194.387 211.521 193.257 228.004C193.265 228.605 193.519 229.182 193.969 229.621C194.419 230.061 195.031 230.331 195.688 230.379C196.344 230.428 196.996 230.251 197.517 229.883C198.038 229.515 198.391 228.983 198.505 228.391C199.797 209.382 204.258 173.724 186.515 159.951C168.772 146.178 109.487 144.427 104.32 171.862C103.755 174.904 108.983 175.254 109.568 172.249Z" fill="#2E2766"/>
<path d="M207.124 238.108C206.948 240.293 206.066 242.382 204.588 244.109C203.111 245.835 201.106 247.123 198.827 247.807C196.547 248.491 194.097 248.541 191.786 247.952C189.476 247.362 187.409 246.159 185.848 244.495C184.287 242.83 183.302 240.78 183.019 238.604C182.735 236.428 183.166 234.224 184.256 232.272C185.346 230.319 187.046 228.707 189.141 227.638C191.236 226.57 193.631 226.094 196.022 226.271C199.208 226.506 202.163 227.883 204.243 230.1C206.322 232.317 207.358 235.196 207.124 238.108Z" fill="#778BFD"/>
<path d="M202.36 237.757C202.248 239.066 201.714 240.315 200.825 241.346C199.935 242.377 198.732 243.145 197.365 243.551C195.999 243.957 194.531 243.984 193.148 243.629C191.764 243.273 190.527 242.551 189.593 241.554C188.659 240.556 188.07 239.328 187.9 238.025C187.73 236.721 187.987 235.401 188.638 234.231C189.29 233.061 190.306 232.094 191.559 231.451C192.812 230.809 194.246 230.52 195.679 230.622C196.631 230.69 197.558 230.928 198.409 231.323C199.26 231.718 200.017 232.263 200.638 232.925C201.258 233.588 201.73 234.356 202.025 235.185C202.321 236.014 202.435 236.888 202.36 237.757Z" fill="#E4EEF8"/>
<path d="M114.009 226.068C114.998 273.674 110.113 284.165 104.663 288.405C100.638 291.314 95.9346 293.338 90.9168 294.324L90.2103 291.042L90.5736 292.683L90.2103 291.042C94.6262 290.178 98.7683 288.407 102.321 285.861C106.359 282.8 111.385 273.268 110.396 226.142L114.009 226.068Z" fill="#BDBFE1"/>
<path d="M97.7232 289.568L98.584 292.47C98.9057 293.555 98.2035 294.673 97.0155 294.967L89.1481 296.913C87.9602 297.207 86.7363 296.566 86.4146 295.481L85.5539 292.578C85.2322 291.493 85.9344 290.375 87.1223 290.081L94.9897 288.135C96.1777 287.841 97.4015 288.483 97.7232 289.568Z" fill="#778BFD"/>
<path d="M81.7324 220.094C63.0408 251.659 55.7942 269.58 58.9028 276.531C60.7629 280.266 63.5231 283.569 66.9769 286.193L64.7162 288.829C60.7454 285.839 57.582 282.054 55.4713 277.767C51.7572 269.488 58.4385 252.305 78.4826 218.453L81.7324 220.094Z" fill="#BDBFE1"/>
<path d="M72.1918 290.687L69.9506 292.912C69.1128 293.744 67.6954 293.798 66.7847 293.033L60.7532 287.965C59.8424 287.2 59.7833 285.905 60.621 285.073L62.8622 282.848C63.6999 282.016 65.1174 281.962 66.0281 282.727L72.0596 287.795C72.9703 288.56 73.0295 289.855 72.1918 290.687Z" fill="#778BFD"/>
<path d="M77.6752 216.812C81.2423 209.713 85.2871 202.823 89.7865 196.181C92.1849 193.326 95.3773 191.11 99.0313 189.765C99.758 189.765 101.05 184.123 101.837 179.403C102.604 175.236 103.391 170.368 104.804 169.28C105.592 168.813 106.546 168.643 107.468 168.804C108.39 168.966 109.208 169.447 109.75 170.147C110.658 171.622 109.447 176.416 108.518 180.546C107.449 185.247 106.298 190.981 107.005 191.147C109.657 193.704 111.59 196.81 112.636 200.2C114.186 208.116 115.063 216.13 115.26 224.169C115.139 229.221 113.242 229.424 111.627 229.571C109.306 229.756 108.317 228.133 108.054 222.454C107.63 213.457 108.054 198.486 101.635 197.195C95.1356 196.365 88.5753 210.783 84.296 218.693C81.6316 223.634 80.259 223.874 78.2404 222.934C76.8476 222.178 75.4347 221.237 77.6752 216.812Z" fill="#778BFD"/>
<path d="M133.064 145.109C128.179 146.953 111.405 167.344 112.031 170.276C112.656 173.208 110.557 210.23 147.618 224.648L165.784 193.304L183.951 218.933C183.951 218.933 194.407 198.504 194.044 193.415C193.681 188.326 189.341 162.956 167.803 150.327C151.574 140.942 143.257 141.145 133.064 145.109Z" fill="#BDBFE1"/>
<path d="M112.596 169.889C114.493 190.17 124.102 216.499 147.153 223.468C153.512 213.531 159.951 203.795 165.32 193.397C165.363 193.323 165.424 193.26 165.498 193.212C165.573 193.163 165.659 193.132 165.749 193.119C165.839 193.107 165.931 193.114 166.018 193.139C166.105 193.165 166.184 193.209 166.249 193.268C166.41 193.268 179.228 210.23 184.133 218.509C186.946 212.741 189.235 206.772 190.976 200.661C193.781 192.327 192.57 185.911 189.724 177.725C189.724 177.522 190.027 177.374 190.108 177.577C193.418 184.252 195.598 190.889 193.438 198.117C191.562 205.569 188.758 212.8 185.082 219.67C185.028 219.762 184.945 219.835 184.844 219.882C184.743 219.928 184.628 219.944 184.516 219.928C184.437 219.961 184.347 219.968 184.263 219.948C184.179 219.927 184.104 219.882 184.052 219.818C177.694 211.89 172.486 203.224 166.107 195.24C160.637 205.602 154.46 215.522 148.284 224.741C148.001 225.165 146.931 224.943 146.83 224.906C122.85 217.974 111.667 191.166 112.253 169.889C112.253 169.723 112.576 169.723 112.596 169.889Z" fill="#2E2766"/>
<path d="M186.03 121.509L183.305 169.446L182.902 176.194C182.902 176.194 180.177 190.059 164.311 192.622C148.445 195.185 124.364 175.826 122.567 172.212C121.599 170.368 120.811 153.184 120.246 136.886C119.701 121.306 119.398 106.482 119.398 106.482L126.827 108.16L186.03 121.509Z" fill="#FDD7BC"/>
<path d="M186.03 121.509L183.305 169.446C165.761 166.984 149.216 160.409 135.284 150.363C129.79 146.368 124.776 141.85 120.327 136.886C119.782 121.306 119.479 106.482 119.479 106.482L126.907 108.16L186.03 121.509Z" fill="#DBA89B"/>
<path d="M109.528 39.5725C98.567 62.1769 108.236 118.743 127.069 137.955C139.947 151.101 168.005 155.139 188.957 147.45C198.522 144.176 206.362 137.695 210.878 129.326C225.008 101.559 212.19 34.9631 196.951 24.4906C170.043 5.96091 122.951 11.9347 109.528 39.5725Z" fill="#FDD7BC"/>
<path d="M158.679 90.6074C158.679 90.4784 158.396 90.8103 158.417 90.9578C158.861 94.4793 158.699 98.5724 155.308 100.011C155.187 100.011 155.308 100.232 155.308 100.195C159.527 99.2731 159.668 93.8156 158.679 90.6074Z" fill="#2E2766"/>
<path d="M154.864 87.1044C148.607 87.1044 149.131 98.5541 154.864 98.5357C160.597 98.5172 160.112 87.086 154.864 87.1044Z" fill="#2E2766"/>
<path d="M188.957 88.524C188.957 88.395 189.26 88.69 189.26 88.819C189.26 92.3775 189.987 96.4337 193.559 97.4662C193.559 97.4662 193.559 97.6875 193.559 97.669C189.219 97.2819 188.372 91.8981 188.957 88.524Z" fill="#2E2766"/>
<path d="M192.247 84.6891C198.464 84.0254 199.474 95.4382 193.701 96.0466C187.928 96.6551 186.939 85.2607 192.247 84.6891Z" fill="#2E2766"/>
<path d="M164.048 122.486C165.017 123.279 166.067 124.33 167.399 124.44C168.81 124.349 170.184 123.991 171.436 123.389C171.464 123.377 171.495 123.373 171.525 123.379C171.555 123.384 171.583 123.398 171.603 123.419C171.624 123.44 171.636 123.466 171.639 123.494C171.641 123.522 171.634 123.55 171.618 123.574C171.096 124.268 170.382 124.825 169.549 125.188C168.717 125.55 167.794 125.706 166.874 125.639C166.069 125.491 165.332 125.122 164.763 124.582C164.193 124.042 163.817 123.356 163.685 122.615C163.604 122.449 163.907 122.357 164.048 122.486Z" fill="#DBA89B"/>
<path d="M149.697 82.071C151.324 81.5638 152.92 80.9791 154.48 80.3194C156.256 79.9234 157.838 79.003 158.982 77.7013C159.248 77.2257 159.336 76.6839 159.234 76.1581C159.132 75.6323 158.845 75.1513 158.417 74.7882C157.446 74.1915 156.319 73.8426 155.151 73.7778C153.983 73.7129 152.818 73.9345 151.776 74.4194C149.496 75.1035 147.576 76.5357 146.386 78.4388C146.141 78.8873 146.045 79.3911 146.108 79.8889C146.172 80.3866 146.392 80.8567 146.743 81.2418C147.094 81.6269 147.561 81.9104 148.085 82.0576C148.609 82.2049 149.169 82.2095 149.697 82.071Z" fill="#2E2766"/>
<path d="M196.829 78.7522C195.134 78.4874 193.456 78.1366 191.803 77.7012C190.008 77.5765 188.303 76.9304 186.939 75.8575C186.585 75.4336 186.393 74.9154 186.393 74.3825C186.393 73.8496 186.585 73.3314 186.939 72.9075C187.791 72.1718 188.842 71.6573 189.985 71.4175C191.128 71.1776 192.32 71.221 193.438 71.5431C195.813 71.865 197.971 72.9823 199.494 74.6775C199.819 75.0864 200.005 75.5736 200.03 76.0785C200.055 76.5834 199.917 77.0838 199.633 77.5177C199.35 77.9516 198.933 78.2999 198.434 78.5193C197.936 78.7387 197.378 78.8197 196.829 78.7522Z" fill="#2E2766"/>
<path d="M177.673 114.355C177.673 114.355 174.525 121.73 168.368 120.347C163.705 119.37 165.946 110.778 165.946 110.778C165.946 110.778 172.022 114.871 177.673 114.355Z" fill="white"/>
<path d="M165.603 111.11C166.648 112.474 167.991 113.625 169.547 114.491C171.104 115.358 172.84 115.92 174.646 116.144C176.225 116.356 177.83 116.356 179.409 116.144C179.716 116.13 180.021 116.087 180.318 116.014L181.166 115.867C181.367 115.823 181.547 115.72 181.678 115.573C181.81 115.427 181.885 115.245 181.892 115.056C181.912 114.94 181.912 114.821 181.892 114.705V114.355C181.892 111.626 181.367 107.496 181.367 107.496C182.478 107.957 188.15 110.022 187.988 108.603C186.696 96.8394 185.243 83.7672 181.226 72.3175C181.198 72.2433 181.142 72.1807 181.068 72.1408C180.994 72.1009 180.906 72.0862 180.822 72.0995C180.737 72.1128 180.66 72.1531 180.605 72.2133C180.549 72.2735 180.519 72.3496 180.52 72.4282C181.287 83.7857 184.234 94.9219 185.182 106.316C183.167 105.537 181.039 105.028 178.864 104.804C178.441 104.934 179.934 112.788 179.853 114.023C179.858 114.072 179.858 114.122 179.853 114.171C174.868 114.945 171.012 113.691 166.006 110.797C165.643 110.594 165.36 110.889 165.603 111.11Z" fill="#DBA89B"/>
<path d="M199.676 40.2731C212.877 59.4297 214.815 90.3863 217.54 81.61C226.482 52.7 210.636 35.9587 210.636 35.9587C210.636 35.9587 198.101 37.9684 199.676 40.2731Z" fill="#2E2766"/>
<path d="M113.565 100.029C113.565 100.029 137.505 95.6963 130.42 49.16C144.324 54.497 159.544 56.3183 174.484 54.4331C200.725 51.4462 214.855 41.3056 223.03 24.9331C225.735 19.5678 211.565 27.1272 205.327 24.675C194.306 20.2868 183.467 7.06714 153.592 7.6387C123.718 8.21026 115.805 26.6293 115.805 26.6293C115.805 26.6293 99.6571 31.1465 93.3391 43.9053C87.021 56.6641 98.123 100.011 113.565 100.029Z" fill="#2E2766"/>
<path d="M121.962 98.4435C121.962 98.4435 109.851 79.6557 100.525 83.4907C91.1994 87.3257 99.435 113.931 109.568 118.264C110.825 118.891 112.207 119.279 113.632 119.406C115.057 119.532 116.496 119.394 117.861 119C119.226 118.605 120.49 117.963 121.576 117.111C122.663 116.259 123.549 115.215 124.182 114.042L121.962 98.4435Z" fill="#FDD7BC"/>
<path d="M103.068 91.0685C102.907 91.0685 102.846 91.2529 103.068 91.3082C110.153 94.5163 113.484 100.969 115.644 107.57C113.625 104.952 110.84 103.403 107.025 105.505C106.823 105.616 107.025 105.911 107.186 105.874C108.503 105.59 109.883 105.685 111.138 106.148C112.392 106.61 113.459 107.416 114.19 108.455C115.408 110.194 116.417 112.049 117.198 113.986C117.481 114.595 118.692 114.373 118.49 113.654C118.497 113.605 118.497 113.556 118.49 113.507C119.257 105.007 113 92.5988 103.068 91.0685Z" fill="#DBA89B"/>
<path d="M136.152 141.938C125.615 137.642 114.998 132.719 108.135 123.5C102.947 117.025 99.4902 109.529 98.0422 101.615C98.9809 104.759 100.337 107.787 102.079 110.631C103.858 113.572 106.211 116.19 109.023 118.356C115.429 128.188 125.093 135.904 136.616 140.389C137.686 140.702 137.202 142.362 136.152 141.938Z" fill="white"/>
<path d="M125.111 104.915C123.234 102.776 117.38 91.7322 112.152 87.6022C111.357 86.8692 110.521 86.1738 109.649 85.5187C108.251 84.4171 106.603 83.6112 104.824 83.1587C106.276 82.6174 107.873 82.4889 109.407 82.79C117.481 84.1912 122.911 98.9044 125.858 104.472C126.019 104.804 125.434 105.357 125.111 104.915Z" fill="white"/>
<path d="M123.334 102.426C121.982 99.6788 143.681 109.193 166.309 104.933C170.932 104.067 183.83 99.4022 191.016 99.4022C198.202 99.4022 206.599 104.712 216.51 105.689C219.921 106.021 216.974 132.848 208.315 144.593C205.449 148.446 193.317 156.356 185.889 157.056C168.449 158.679 138.574 147.321 134.033 142.011C130.42 137.679 136.193 128.441 123.334 102.426Z" fill="white"/>
<path d="M214.148 111.479C207.842 108.978 201.275 107.063 194.548 105.763C188.735 104.712 183.467 106.667 177.956 108.455C163.18 113.249 148.284 112.714 133.387 108.824C133.225 108.824 133.145 109.063 133.387 109.137C145.151 113.744 158.235 114.734 170.669 111.958C177.391 110.52 184.173 107.201 191.177 107.588C198.848 108.031 206.296 111.276 213.886 112.567C214.512 112.732 214.774 111.737 214.148 111.479Z" fill="#BDBFE1"/>
<path d="M203.087 142.509C198.384 144.574 193.761 147.616 188.957 149.073C183.103 150.806 176.2 149.073 170.427 147.801C159.507 145.459 149.01 141.366 138.332 137.992C138.332 137.992 138.211 138.103 138.332 138.139C149.989 143.621 162.42 147.604 175.271 149.976C179.551 150.659 184.254 151.654 188.513 150.493C193.64 149.073 198.767 145.588 203.309 142.786C203.37 142.712 203.289 142.454 203.087 142.509Z" fill="#BDBFE1"/>
<path d="M210.414 120.513C199.312 117.526 188.957 118.264 177.674 119.647C164.923 121.15 152 120.927 139.321 118.983C139.2 118.983 139.16 119.167 139.321 119.186C150.598 121.353 162.174 121.907 173.636 120.827C179.167 120.292 184.698 119.333 190.249 118.983C197.06 118.748 203.87 119.482 210.434 121.158C210.656 121.251 210.818 120.624 210.414 120.513Z" fill="#BDBFE1"/>
<path d="M207.81 130.801C197.961 135.989 186.593 138.263 175.271 137.31C163.725 136.333 152.623 132.35 141.602 128.884C141.441 128.884 141.4 129.068 141.602 129.123C163.806 137.66 186.151 143.431 208.214 131.41C208.537 131.17 208.234 130.58 207.81 130.801Z" fill="#BDBFE1"/>
</g>
</g>
<defs>
<filter id="filter0_d_441_18334" x="79.162" y="208.515" width="204.699" height="216.148" filterUnits="userSpaceOnUse" color-interpolation-filters="sRGB">
<feFlood flood-opacity="0" result="BackgroundImageFix"/>
<feColorMatrix in="SourceAlpha" type="matrix" values="0 0 0 0 0 0 0 0 0 0 0 0 0 0 0 0 0 0 127 0" result="hardAlpha"/>
<feOffset dy="4"/>
<feGaussianBlur stdDeviation="2"/>
<feComposite in2="hardAlpha" operator="out"/>
<feColorMatrix type="matrix" values="0 0 0 0 0 0 0 0 0 0 0 0 0 0 0 0 0 0 0.75 0"/>
<feBlend mode="normal" in2="BackgroundImageFix" result="effect1_dropShadow_441_18334"/>
<feBlend mode="normal" in="SourceGraphic" in2="effect1_dropShadow_441_18334" result="shape"/>
</filter>
<filter id="filter1_d_441_18334" x="13.7045" y="204.865" width="198.862" height="220.038" filterUnits="userSpaceOnUse" color-interpolation-filters="sRGB">
<feFlood flood-opacity="0" result="BackgroundImageFix"/>
<feColorMatrix in="SourceAlpha" type="matrix" values="0 0 0 0 0 0 0 0 0 0 0 0 0 0 0 0 0 0 127 0" result="hardAlpha"/>
<feOffset dy="4"/>
<feGaussianBlur stdDeviation="2"/>
<feComposite in2="hardAlpha" operator="out"/>
<feColorMatrix type="matrix" values="0 0 0 0 0 0 0 0 0 0 0 0 0 0 0 0 0 0 0.75 0"/>
<feBlend mode="normal" in2="BackgroundImageFix" result="effect1_dropShadow_441_18334"/>
<feBlend mode="normal" in="SourceGraphic" in2="effect1_dropShadow_441_18334" result="shape"/>
</filter>
<clipPath id="clip0_441_18334">
<rect width="262.087" height="569.056" fill="white" transform="matrix(-1 0 0 1 279.791 7.63867)"/>
</clipPath>
</defs>
</svg>
