<?xml version="1.0" encoding="UTF-8"?><svg xmlns="http://www.w3.org/2000/svg" xmlns:xlink="http://www.w3.org/1999/xlink" viewBox="0 0 37.31 37.31"><defs><style>.h{fill:#fff;}.i{clip-path:url(#e);}.j{clip-path:url(#d);}.k{clip-path:url(#f);}.l{fill:#ebc62a;}.m{clip-path:url(#g);}</style><clipPath id="d"><path class="h" d="M0,18.68C-.02,8.4,8.34,.02,18.63,0s18.67,8.34,18.68,18.63-8.34,18.67-18.63,18.68S.02,28.97,0,18.68Zm37.31-.06c-.01-9.2-7.35-16.67-16.36-16.66-9.01,.01-16.32,7.51-16.31,16.71s7.35,16.67,16.36,16.66c9.01-.01,16.32-7.51,16.31-16.71Z"/></clipPath><clipPath id="e"><path class="l" d="M19.84,32.04c-7.38,.02-13.4-5.96-13.42-13.34-.02-7.38,5.96-13.4,13.34-13.42,7.38-.02,13.4,5.96,13.42,13.34,.02,7.38-5.96,13.4-13.34,13.42Zm-.08-26.76c-6.6,.02-11.95,5.29-11.93,11.76s5.41,11.7,12.01,11.68c6.6-.02,11.95-5.29,11.93-11.76s-5.41-11.7-12.01-11.68Z"/></clipPath><clipPath id="f"><path class="h" d="M29.94,16.87c.07,5.6-4.43,10.2-10.02,10.27s-10.2-4.43-10.27-10.02c-.07-5.6,4.43-10.2,10.02-10.27s10.2,4.43,10.27,10.02Zm-20.29,.25c.06,5,4.1,9.03,9,8.97s8.84-4.18,8.77-9.19c-.06-5-4.1-9.03-9-8.97-4.9,.06-8.84,4.18-8.77,9.19Z"/></clipPath><clipPath id="g"><path class="l" d="M18.5,10.77c3.44-.09,6.3,2.64,6.39,6.08s-2.64,6.3-6.08,6.39-6.3-2.64-6.39-6.08,2.64-6.3,6.08-6.39Zm.31,12.47c3.07-.08,5.51-2.59,5.44-5.6s-2.64-5.4-5.71-5.32-5.51,2.59-5.44,5.6,2.64,5.4,5.71,5.32Z"/></clipPath></defs><g id="a"/><g id="b"><g id="c"><g><g><path class="h" d="M0,18.68C-.02,8.4,8.34,.02,18.63,0s18.67,8.34,18.68,18.63-8.34,18.67-18.63,18.68S.02,28.97,0,18.68Zm37.31-.06c-.01-9.2-7.35-16.67-16.36-16.66-9.01,.01-16.32,7.51-16.31,16.71s7.35,16.67,16.36,16.66c9.01-.01,16.32-7.51,16.31-16.71Z"/><g class="j"><g><rect class="h" x="8.16" y="-8.78" width="4.96" height="56.72" transform="translate(-.06 .03) rotate(-.18)"/><rect class="h" x="13.12" y="-8.8" width="4.96" height="56.72" transform="translate(-.06 .05) rotate(-.18)"/><rect class="h" x="-1.77" y="-8.75" width="4.96" height="56.72" transform="translate(-.06 0) rotate(-.18)"/><rect class="h" x="3.19" y="-8.77" width="4.96" height="56.72" transform="translate(-.06 .02) rotate(-.18)"/><rect class="h" x="18.09" y="-8.81" width="4.96" height="56.72" transform="translate(-.06 .06) rotate(-.18)"/><rect class="h" x="23.05" y="-8.83" width="4.96" height="56.72" transform="translate(-.06 .08) rotate(-.18)"/><rect class="h" x="28.01" y="-8.84" width="4.96" height="56.72" transform="translate(-.06 .09) rotate(-.18)"/><rect class="h" x="32.98" y="-8.86" width="4.96" height="56.72" transform="translate(-.06 .11) rotate(-.18)"/></g></g></g><g><path class="l" d="M19.84,32.04c-7.38,.02-13.4-5.96-13.42-13.34-.02-7.38,5.96-13.4,13.34-13.42,7.38-.02,13.4,5.96,13.42,13.34,.02,7.38-5.96,13.4-13.34,13.42Zm-.08-26.76c-6.6,.02-11.95,5.29-11.93,11.76s5.41,11.7,12.01,11.68c6.6-.02,11.95-5.29,11.93-11.76s-5.41-11.7-12.01-11.68Z"/><g class="i"><g><rect class="l" x="18.69" y="4.06" width="3.56" height="40.69" transform="translate(-3.84 44.98) rotate(-90.27)"/><rect class="l" x="18.67" y=".5" width="3.56" height="40.69" transform="translate(-.3 41.39) rotate(-90.27)"/><rect class="l" x="18.72" y="11.18" width="3.56" height="40.69" transform="translate(-10.93 52.17) rotate(-90.27)"/><rect class="l" x="18.7" y="7.62" width="3.56" height="40.69" transform="translate(-7.39 48.58) rotate(-90.27)"/><rect class="l" x="18.65" y="-3.06" width="3.56" height="40.69" transform="translate(3.25 37.79) rotate(-90.27)"/><rect class="l" x="18.64" y="-6.62" width="3.56" height="40.69" transform="translate(6.79 34.2) rotate(-90.27)"/><rect class="l" x="18.62" y="-10.19" width="3.56" height="40.69" transform="translate(10.33 30.61) rotate(-90.27)"/><rect class="l" x="18.6" y="-13.75" width="3.56" height="40.69" transform="translate(13.88 27.01) rotate(-90.27)"/></g></g></g><g><path class="h" d="M29.94,16.87c.07,5.6-4.43,10.2-10.02,10.27s-10.2-4.43-10.27-10.02c-.07-5.6,4.43-10.2,10.02-10.27s10.2,4.43,10.27,10.02Zm-20.29,.25c.06,5,4.1,9.03,9,8.97s8.84-4.18,8.77-9.19c-.06-5-4.1-9.03-9-8.97-4.9,.06-8.84,4.18-8.77,9.19Z"/><g class="k"><g><rect class="h" x="22.79" y="1.01" width="2.7" height="30.86" transform="translate(48.52 32.55) rotate(179.2)"/><rect class="h" x="20.09" y="1.05" width="2.7" height="30.86" transform="translate(43.12 32.66) rotate(179.2)"/><rect class="h" x="28.19" y=".94" width="2.7" height="30.86" transform="translate(59.32 32.32) rotate(179.2)"/><rect class="h" x="25.49" y=".98" width="2.7" height="30.86" transform="translate(53.92 32.44) rotate(179.2)"/><rect class="h" x="17.39" y="1.09" width="2.7" height="30.86" transform="translate(37.72 32.77) rotate(179.2)"/><rect class="h" x="14.69" y="1.13" width="2.7" height="30.86" transform="translate(32.32 32.89) rotate(179.2)"/><rect class="h" x="11.99" y="1.16" width="2.7" height="30.86" transform="translate(26.92 33) rotate(179.2)"/><rect class="h" x="9.29" y="1.2" width="2.7" height="30.86" transform="translate(21.52 33.11) rotate(179.2)"/></g></g></g><g><path class="l" d="M18.5,10.77c3.44-.09,6.3,2.64,6.39,6.08s-2.64,6.3-6.08,6.39-6.3-2.64-6.39-6.08,2.64-6.3,6.08-6.39Zm.31,12.47c3.07-.08,5.51-2.59,5.44-5.6s-2.64-5.4-5.71-5.32-5.51,2.59-5.44,5.6,2.64,5.4,5.71,5.32Z"/><g class="m"><g><rect class="l" x="17.45" y="4.86" width="1.66" height="18.96" transform="translate(32.13 -4.32) rotate(88.49)"/><rect class="l" x="17.5" y="6.52" width="1.66" height="18.96" transform="translate(33.83 -2.75) rotate(88.49)"/><rect class="l" x="17.37" y="1.54" width="1.66" height="18.96" transform="translate(28.73 -7.46) rotate(88.49)"/><rect class="l" x="17.41" y="3.2" width="1.66" height="18.96" transform="translate(30.43 -5.89) rotate(88.49)"/><rect class="l" x="17.54" y="8.17" width="1.66" height="18.96" transform="translate(35.53 -1.17) rotate(88.49)"/><rect class="l" x="17.58" y="9.83" width="1.66" height="18.96" transform="translate(37.23 .4) rotate(88.49)"/><rect class="l" x="17.63" y="11.49" width="1.66" height="18.96" transform="translate(38.93 1.97) rotate(88.49)"/><rect class="l" x="17.67" y="13.15" width="1.66" height="18.96" transform="translate(40.64 3.54) rotate(88.49)"/></g></g></g></g></g></g></svg>