<svg width="26" height="23" viewBox="0 0 26 23" fill="none" xmlns="http://www.w3.org/2000/svg">
<g clip-path="url(#clip0_43_1264)">
<path d="M25.4683 7.50673C25.4275 7.16182 25.3106 6.82996 25.1257 6.53453C24.9409 6.2391 24.6928 5.98728 24.3988 5.79682V5.79682L24.3781 5.78099C23.0391 4.87914 21.8195 3.81539 20.7479 2.61451C19.8413 1.49754 18.6086 0.683104 17.2171 0.28172C15.8257 -0.119665 14.3429 -0.0885563 12.9699 0.370824C12.8163 0.422867 12.6495 0.422867 12.4958 0.370824V0.370824C11.1221 -0.0863089 9.6395 -0.117213 8.24741 0.282266C6.85532 0.681745 5.62042 1.49246 4.70867 2.60546C3.63596 3.81434 2.41409 4.88572 1.0716 5.79456V5.79456C0.780114 5.98621 0.534717 6.23864 0.35269 6.53407C0.170663 6.82949 0.0564324 7.16073 0.0180421 7.50447C-0.0203359 7.85513 0.0196626 8.20985 0.135217 8.54359C0.250771 8.87733 0.439066 9.18197 0.686823 9.43602C1.94011 10.7104 3.51384 11.6331 5.2469 12.1094C5.44003 14.4079 5.94777 16.6699 6.75623 18.8337V18.8337C7.1964 20.0533 8.00787 21.1086 9.07934 21.8547C10.1508 22.6009 11.4298 23.0015 12.7409 23.0015C14.052 23.0015 15.331 22.6009 16.4025 21.8547C17.4739 21.1086 18.2854 20.0533 18.7256 18.8337V18.8337C19.534 16.6707 20.0418 14.4094 20.2349 12.1117C21.9759 11.6481 23.5553 10.7227 24.8019 9.43602C25.0489 9.18202 25.2366 8.87767 25.3517 8.54435C25.4669 8.21104 25.5067 7.85686 25.4683 7.50673ZM7.03337 4.53475C8.31596 3.189 9.99249 2.68914 11.5179 3.20031C11.9097 3.3304 12.3207 3.39537 12.734 3.39256C13.1438 3.39291 13.5509 3.32642 13.9388 3.19578C15.3954 2.7095 17.1452 3.23423 18.4301 4.53475L21.9687 8.11062C21.4465 8.46767 20.8885 8.77083 20.3036 9.01533C20.2847 8.54405 20.1658 8.08194 19.9548 7.65885C19.7437 7.23575 19.4451 6.86108 19.0783 6.55904C18.2537 5.8781 17.2438 5.45297 16.1753 5.33708C15.1069 5.22118 14.0276 5.41969 13.073 5.90765C12.9703 5.96001 12.8565 5.98734 12.7409 5.98734C12.6254 5.98734 12.5115 5.96001 12.4088 5.90765V5.90765C11.4552 5.42222 10.3778 5.22511 9.31133 5.34096C8.24489 5.45682 7.23666 5.88049 6.41268 6.55904C6.04571 6.86176 5.74677 7.23679 5.53498 7.66014C5.3232 8.08349 5.20324 8.54583 5.18277 9.01759C4.59257 8.77354 4.02925 8.47039 3.50166 8.11288L7.03337 4.53475ZM12.7249 21.8826C11.6488 21.8833 10.5991 21.5543 9.72037 20.941C8.84167 20.3277 8.17732 19.4602 7.81895 18.4582C6.69671 15.4569 6.18384 12.2667 6.30962 9.06961C6.32246 8.75308 6.4025 8.44275 6.54453 8.15871C6.68657 7.87467 6.88744 7.62327 7.13414 7.42078C7.7881 6.88201 8.58847 6.54571 9.43504 6.45398C10.2816 6.36226 11.1368 6.51917 11.8935 6.90509V6.90509C12.1557 7.04063 12.4472 7.11143 12.7432 7.11143C13.0392 7.11143 13.3307 7.04063 13.5929 6.90509C14.3507 6.51832 15.2073 6.36114 16.0552 6.45328C16.9031 6.54543 17.7046 6.88279 18.3591 7.42304C18.6011 7.62357 18.7984 7.87136 18.9387 8.15083C19.0791 8.4303 19.1593 8.73542 19.1745 9.047C19.3016 12.2456 18.7887 15.4375 17.6651 18.4402V18.4402C17.305 19.4491 16.636 20.3225 15.7508 20.9393C14.8657 21.5561 13.8082 21.8857 12.7249 21.8826V21.8826ZM20.3219 10.0512C21.2945 9.69142 22.2059 9.18729 23.0245 8.55619V8.55619L23.0452 8.5381L23.0635 8.52226L23.0864 8.49738C23.087 8.49288 23.087 8.48831 23.0864 8.48381L23.107 8.45894V8.44084L23.1207 8.41822V8.3956V8.37525C23.122 8.367 23.122 8.35861 23.1207 8.35037C23.1207 8.35037 23.1207 8.35037 23.1207 8.33228C23.1217 8.32325 23.1217 8.31416 23.1207 8.30513C23.1194 8.29917 23.1194 8.293 23.1207 8.28704C23.1207 8.28704 23.1207 8.26895 23.1207 8.2599C23.1207 8.25085 23.1207 8.24633 23.1207 8.23954C23.1219 8.23204 23.1219 8.22442 23.1207 8.21693C23.1196 8.20867 23.1196 8.2003 23.1207 8.19205C23.1207 8.19205 23.1207 8.17847 23.1207 8.17169V8.14229C23.1207 8.14229 23.1207 8.13098 23.1207 8.12419C23.1207 8.11741 23.1207 8.1061 23.1207 8.09705C23.1218 8.09031 23.1218 8.08344 23.1207 8.07669C23.1218 8.06768 23.1218 8.05857 23.1207 8.04955V8.0292C23.1217 8.02169 23.1217 8.01409 23.1207 8.00658C23.122 7.99833 23.122 7.98995 23.1207 7.9817V7.96134L23.1047 7.9342V7.92063C23.0994 7.91108 23.0933 7.902 23.0864 7.89349C23.0857 7.88899 23.0857 7.88442 23.0864 7.87992L23.0704 7.85956L23.0543 7.84147L19.1401 3.84491C18.4489 3.13094 17.5921 2.59377 16.6437 2.27976C15.6655 1.94892 14.6048 1.94256 13.6227 2.26167C13.0453 2.45287 12.4205 2.45287 11.8431 2.26167V2.26167C10.8747 1.93991 9.82749 1.93198 8.85419 2.23905C7.88944 2.55335 7.02215 3.10617 6.33481 3.84491V3.84491L2.39313 7.83016L2.3771 7.84826L2.36106 7.86861V7.88218L2.34045 7.90932C2.34111 7.91382 2.34111 7.91839 2.34045 7.92289L2.32442 7.95004V7.97039C2.32316 7.97864 2.32316 7.98702 2.32442 7.99527C2.32533 8.00278 2.32533 8.01038 2.32442 8.01789V8.03824C2.32442 8.03824 2.32442 8.05634 2.32442 8.06539C2.32335 8.07213 2.32335 8.079 2.32442 8.08574C2.32442 8.08574 2.32442 8.10384 2.32442 8.11288C2.32442 8.12193 2.32442 8.11288 2.32442 8.13098V8.15812C2.32327 8.16486 2.32327 8.17174 2.32442 8.17847V8.20335C2.32442 8.20335 2.32442 8.21919 2.32442 8.22597C2.32442 8.23276 2.32442 8.23954 2.32442 8.24633C2.32552 8.25534 2.32552 8.26446 2.32442 8.27347V8.29156C2.32338 8.30058 2.32338 8.30969 2.32442 8.3187V8.3368C2.3101 8.34384 2.29816 8.35484 2.29006 8.36846V8.38882V8.41144L2.30381 8.43406L2.31526 8.45215L2.33587 8.47703V8.4906L2.35877 8.51548L2.3771 8.53131L2.39771 8.54941C3.22203 9.18256 4.13862 9.6889 5.11635 10.0512C5.11635 10.3407 5.11635 10.628 5.13238 10.9175C3.73569 10.4714 2.47058 9.69496 1.44722 8.65571C1.32542 8.5163 1.23538 8.35266 1.18322 8.17589C1.13106 7.99911 1.11799 7.81333 1.14489 7.63113C1.16479 7.44871 1.22544 7.27294 1.32248 7.11648C1.41952 6.96003 1.55052 6.8268 1.70603 6.72641V6.72641C3.12841 5.75949 4.42259 4.6205 5.55839 3.33601C5.55904 3.33151 5.55904 3.32694 5.55839 3.32244V3.32244C6.32533 2.37744 7.36834 1.68857 8.54563 1.34946C9.72292 1.01035 10.9774 1.03745 12.1385 1.42707V1.42707C12.3326 1.49195 12.5361 1.52481 12.7409 1.52433C12.945 1.5246 13.1477 1.49175 13.341 1.42707C14.4957 1.04355 15.7417 1.01898 16.9109 1.35669C18.0802 1.6944 19.1165 2.37814 19.8799 3.31566V3.31566V3.32697C21.0139 4.60117 22.3041 5.73095 23.7208 6.69023L23.7437 6.70606C23.9018 6.80524 24.0355 6.93785 24.1353 7.09431C24.2352 7.25077 24.2985 7.42717 24.3209 7.61077C24.3418 7.79733 24.3211 7.98616 24.2601 8.16396C24.1992 8.34175 24.0995 8.5042 23.9682 8.63988C22.9499 9.68537 21.6831 10.4629 20.283 10.9017C20.3151 10.6302 20.3219 10.3453 20.3219 10.0512Z" fill="white"/>
<path d="M12.7342 8.5563C12.617 8.5563 12.5045 8.60229 12.4216 8.68415C12.3387 8.76602 12.2922 8.87705 12.2922 8.99282V14.2153C12.2878 14.2751 12.296 14.3351 12.3161 14.3917C12.3363 14.4483 12.3681 14.5001 12.4094 14.544C12.4508 14.5879 12.5009 14.6229 12.5566 14.6469C12.6122 14.6708 12.6723 14.6832 12.7331 14.6832C12.7938 14.6832 12.8539 14.6708 12.9095 14.6469C12.9652 14.6229 13.0153 14.5879 13.0567 14.544C13.098 14.5001 13.1298 14.4483 13.15 14.3917C13.1702 14.3351 13.1783 14.2751 13.1739 14.2153V8.99282C13.1739 8.87744 13.1277 8.76675 13.0453 8.68495C12.9629 8.60315 12.851 8.5569 12.7342 8.5563V8.5563Z" fill="white"/>
<path d="M12.7343 15.6832C12.6763 15.6829 12.6189 15.6939 12.5653 15.7156C12.5117 15.7373 12.4629 15.7692 12.4218 15.8095C12.3808 15.8499 12.3482 15.8979 12.3259 15.9507C12.3037 16.0035 12.2922 16.0602 12.2922 16.1174V17.7007C12.3003 17.8107 12.3502 17.9137 12.432 17.9888C12.5138 18.064 12.6214 18.1058 12.7331 18.1058C12.8449 18.1058 12.9524 18.064 13.0342 17.9888C13.116 17.9137 13.166 17.8107 13.174 17.7007V16.1174C13.174 16.0022 13.1277 15.8918 13.0452 15.8103C12.9628 15.7289 12.8509 15.6832 12.7343 15.6832Z" fill="white"/>
</g>
<defs>
<clipPath id="clip0_43_1264">
<rect width="25.4824" height="23" fill="white"/>
</clipPath>
</defs>
</svg>
