<svg width="27" height="29" viewBox="0 0 27 29" fill="none" xmlns="http://www.w3.org/2000/svg">
<g clip-path="url(#clip0_43_1285)">
<path d="M26.6417 14.9909C26.448 14.4202 26.4117 13.8088 26.5365 13.2196V13.2196L26.7837 12.0509C26.9498 11.2764 26.9191 10.4734 26.6943 9.71346V9.71346L26.3524 8.5707C26.2241 8.12978 26.1848 7.66826 26.2367 7.21237L26.5286 4.54507C26.5941 4.08661 26.5586 3.61959 26.4246 3.17591C26.2906 2.73223 26.0613 2.32233 25.7522 1.97419C25.4431 1.62606 25.0616 1.34789 24.6336 1.15868C24.2057 0.969475 23.7415 0.873683 23.2727 0.877848V0.877848C23.0194 0.884316 22.7671 0.844699 22.5284 0.760975V0.760975C21.9722 0.560576 21.3769 0.488912 20.7882 0.5515C20.1996 0.614088 19.6333 0.809259 19.1331 1.12198V1.12198C18.8093 1.31813 18.4373 1.4232 18.0574 1.42585V1.42585L15.3985 1.44144C14.989 1.44355 14.5833 1.52015 14.2019 1.66739V1.66739L13.6759 1.88036L13.6233 1.90114C13.4994 1.94616 13.379 1.99998 13.263 2.06216V2.06216C12.9996 2.21762 12.6899 2.27825 12.3864 2.23374C12.0829 2.18924 11.8044 2.04235 11.5982 1.81803C11.5982 1.81803 11.5982 1.81803 11.585 1.81803V1.80244L11.5666 1.78686C11.1861 1.41064 10.6922 1.1665 10.1592 1.0911C9.62614 1.0157 9.08272 1.11312 8.61053 1.36871V1.36871H8.59212H8.57371H8.5553C8.43505 1.44794 8.29548 1.49383 8.15114 1.50159C8.0068 1.50936 7.863 1.47872 7.73475 1.41287L6.09364 0.431133H6.07786H6.06208C5.52807 0.137657 4.9218 -0.0030161 4.31132 0.0249064C3.70085 0.052829 3.11034 0.248242 2.60609 0.589206C2.10184 0.930171 1.70382 1.40319 1.4567 1.95516C1.20958 2.50712 1.12315 3.11619 1.20712 3.71397V3.71397C1.27813 4.20768 1.16199 4.7099 0.881006 5.12424C0.55407 5.6124 0.349658 6.17049 0.284712 6.75223C0.219765 7.33398 0.296154 7.92263 0.507548 8.46941C0.610009 8.73772 0.653389 9.02452 0.634795 9.31068C0.616202 9.59685 0.536063 9.87582 0.399718 10.129C0.0930598 10.7105 -0.0416971 11.3655 0.010858 12.019C0.0634131 12.6726 0.301158 13.2984 0.696907 13.8248C0.890566 14.0704 1.0235 14.3572 1.08514 14.6624C1.14678 14.9677 1.13542 15.2829 1.05195 15.5831C0.865847 16.2391 0.854448 16.9314 1.01886 17.593C1.18328 18.2546 1.51793 18.863 1.99041 19.3594C2.46288 19.8558 3.05716 20.2232 3.71568 20.4261C4.37419 20.6291 5.07462 20.6606 5.74911 20.5177V20.5177C6.14718 20.4273 6.52688 20.271 6.87211 20.0554C8.13512 20.9797 9.6659 21.4778 11.2379 21.4761H11.3089C11.4031 22.2668 11.6657 23.0289 12.0795 23.7123V23.7123C12.1092 23.7682 12.1158 23.8334 12.0979 23.8941C11.8999 24.5766 11.8772 25.2971 12.0319 25.9904C12.1867 26.6838 12.514 27.3281 12.9842 27.8651V27.8651L13.3892 28.3093C13.5369 28.4723 13.7176 28.6028 13.9197 28.6923C14.1218 28.7818 14.3407 28.8283 14.5622 28.8287C14.9222 28.828 15.2706 28.7022 15.5461 28.4733C15.8216 28.2444 16.0068 27.927 16.0692 27.5769V27.5769L16.2848 26.4263C16.3348 26.1849 16.323 25.9349 16.2506 25.6991V25.6991L16.0981 25.2134C16.0775 25.1489 16.0831 25.0791 16.1139 25.0186L16.7188 23.8941C17.3263 24.1769 17.9952 24.3072 18.666 24.2732C19.3369 24.2392 19.9888 24.0421 20.5638 23.6993C20.9062 23.4929 21.2873 23.3569 21.6842 23.2993L22.8493 23.1487C23.5547 23.0795 24.2098 22.7569 24.6903 22.2423C25.1821 21.7224 25.463 21.042 25.4793 20.3307C25.4857 19.7313 25.6805 19.1487 26.0368 18.6633V18.6633C26.4229 18.1413 26.6789 17.5367 26.784 16.8986C26.8891 16.2605 26.8404 15.6069 26.6417 14.9909V14.9909ZM9.92815 20.045C10.0809 19.8817 10.1955 19.6873 10.2641 19.4755C10.3327 19.2638 10.3536 19.0397 10.3253 18.8192V18.8192L10.2937 18.5439C10.2779 18.4321 10.2975 18.3182 10.3498 18.2177C10.402 18.1173 10.4844 18.0353 10.5857 17.9829L11.4141 17.544C11.4758 17.5146 11.5309 17.4732 11.5759 17.4223C11.621 17.3714 11.6552 17.3121 11.6765 17.2478C11.6977 17.1835 11.7055 17.1156 11.6995 17.0482C11.6935 16.9809 11.6737 16.9154 11.6414 16.8558C11.6091 16.7961 11.5649 16.7436 11.5114 16.7013C11.458 16.659 11.3965 16.6278 11.3305 16.6096C11.2646 16.5914 11.1956 16.5865 11.1277 16.5954C11.0598 16.6042 10.9944 16.6265 10.9354 16.6609L10.1044 17.1024C9.82529 17.251 9.598 17.4791 9.4521 17.7571C9.30621 18.035 9.24848 18.3499 9.28644 18.6607V18.6607L9.31537 18.9205C9.33434 19.0304 9.31789 19.1434 9.26835 19.2436C9.2188 19.3438 9.13866 19.4261 9.03922 19.4789V19.4789L8.74466 19.6477C8.4339 19.5073 8.13566 19.3414 7.8531 19.1516C8.31202 18.5384 8.55969 17.7961 8.55969 17.0336C8.55969 16.2711 8.31202 15.5288 7.8531 14.9156C7.66424 14.6646 7.53736 14.3736 7.48257 14.0656C7.42777 13.7576 7.44658 13.4413 7.5375 13.1417C7.68762 12.6462 7.72349 12.1238 7.64248 11.6128C7.56147 11.1018 7.36564 10.6152 7.06936 10.1887C7.67536 9.7512 8.41035 9.52278 9.16087 9.53874C9.91139 9.5547 10.6357 9.81415 11.2221 10.277C11.2739 10.3183 11.3334 10.3491 11.3973 10.3677C11.4612 10.3862 11.5281 10.3921 11.5943 10.3852C11.6604 10.3782 11.7246 10.3584 11.783 10.3269C11.8415 10.2954 11.893 10.2529 11.9348 10.2017C11.9766 10.1506 12.0078 10.0918 12.0266 10.0287C12.0454 9.96566 12.0514 9.89957 12.0443 9.83421C12.0372 9.76885 12.0172 9.70551 11.9853 9.64781C11.9534 9.5901 11.9104 9.53916 11.8586 9.49789C10.9996 8.80744 9.90761 8.46407 8.80252 8.53693C8.67127 8.54422 8.54048 8.55809 8.41065 8.57849C8.3714 8.4324 8.36258 8.27996 8.38473 8.13041C8.40688 7.98085 8.45954 7.8373 8.53952 7.70843C8.5789 7.65265 8.6063 7.58951 8.62005 7.52288C8.63381 7.45626 8.63361 7.38756 8.61949 7.32101C8.60537 7.25446 8.57762 7.19146 8.53793 7.13589C8.49825 7.08033 8.44748 7.03336 8.38874 6.99788C8.33 6.9624 8.26454 6.93916 8.19637 6.92959C8.1282 6.92002 8.05877 6.92431 7.99234 6.94221C7.92592 6.96011 7.8639 6.99124 7.8101 7.03368C7.75631 7.07612 7.71187 7.12897 7.67952 7.189C7.52547 7.43467 7.42426 7.70902 7.38219 7.99498C7.34011 8.28093 7.35806 8.57238 7.43493 8.85119C7.10505 8.97906 6.79236 9.14654 6.50391 9.34985C6.33666 8.92965 6.31539 8.46651 6.44342 8.03308C6.67425 7.23814 6.64293 6.3913 6.354 5.6151C6.63022 5.64832 6.89777 5.73198 7.143 5.86184L7.89518 6.25661C8.37918 6.51117 8.91955 6.64324 9.46791 6.64099H9.62308L10.8171 6.58126C11.034 6.57688 11.2504 6.6049 11.4588 6.66437V6.66437L13.3524 7.1838C13.2098 7.40678 13.1058 7.65167 13.0447 7.90841C12.4059 7.65733 11.7317 7.50491 11.0459 7.45651C10.9796 7.4519 10.913 7.46024 10.85 7.48105C10.7869 7.50185 10.7286 7.53472 10.6784 7.57777C10.5771 7.66471 10.5149 7.78785 10.5054 7.9201C10.496 8.05235 10.5402 8.18288 10.6282 8.28298C10.7163 8.38307 10.841 8.44452 10.9749 8.45382C11.6942 8.50402 12.3974 8.6882 13.0473 8.99663C13.1822 9.52523 13.497 9.99197 13.9389 10.3186C14.0467 10.3914 14.1788 10.4204 14.3077 10.3996C14.4366 10.3787 14.5524 10.3095 14.631 10.2065C14.7096 10.1035 14.7449 9.97448 14.7296 9.84637C14.7144 9.71825 14.6497 9.60088 14.549 9.51867C14.3809 9.39423 14.2439 9.23332 14.1486 9.04834C14.0533 8.86337 14.0023 8.65927 13.9995 8.45176C13.9967 8.24425 14.0422 8.03888 14.1325 7.85147C14.2227 7.66406 14.3553 7.49961 14.5201 7.3708C14.7668 7.36875 15.0127 7.34177 15.2539 7.29029V7.29029L17.4973 6.78903C17.6817 6.75379 17.8699 6.74158 18.0574 6.75267V6.75267L19.1989 6.80461H19.2909C19.39 6.93331 19.462 7.08034 19.5025 7.23701C19.543 7.39367 19.5512 7.55677 19.5267 7.71663C19.5021 7.87649 19.4453 8.02987 19.3597 8.16765C19.274 8.30544 19.1612 8.42483 19.0279 8.51875C18.9726 8.55661 18.9255 8.60485 18.8891 8.66071C18.8527 8.71657 18.8278 8.77896 18.8159 8.84431C18.7917 8.97631 18.8216 9.11238 18.899 9.22259C18.9765 9.3328 19.095 9.40812 19.2287 9.43199C19.3624 9.45585 19.5002 9.42631 19.6118 9.34985C20.0288 9.05742 20.3315 8.63229 20.4689 8.14573C20.6063 7.65917 20.5702 7.14074 20.3666 6.67735C20.5139 6.6265 20.6572 6.56486 20.7953 6.49295V6.49295L21.5842 6.12415L21.6973 6.8202C21.7574 7.19221 21.7119 7.57338 21.5658 7.9214L21.2739 8.61745C21.0319 9.19184 20.9598 9.82226 21.0661 10.4355V10.4355L21.3028 11.8717C21.3906 12.3344 21.3095 12.8129 21.074 13.2222V13.2222C20.7001 13.8611 20.3943 14.5365 20.1614 15.2377L19.7248 14.5728C19.4926 14.2171 19.1419 13.9525 18.7333 13.8248L17.229 13.3391C17.0236 13.2689 16.8509 13.1278 16.7424 12.9418V12.9418L16.3059 12.2067C16.274 12.1455 16.2297 12.0915 16.1757 12.0479C16.1218 12.0043 16.0593 11.9722 15.9922 11.9535C15.9251 11.9349 15.8549 11.93 15.7858 11.9393C15.7167 11.9486 15.6504 11.9719 15.5908 12.0077C15.5312 12.0434 15.4798 12.0909 15.4396 12.1472C15.3995 12.2034 15.3715 12.2672 15.3574 12.3346C15.3433 12.4021 15.3434 12.4716 15.3577 12.539C15.372 12.6063 15.4002 12.6701 15.4406 12.7262L15.8693 13.4534C16.1042 13.8519 16.4782 14.152 16.9213 14.2975V14.2975L18.4283 14.7832C18.6157 14.8416 18.7766 14.9629 18.8833 15.126V15.126L19.8274 16.557C19.788 16.7622 19.7538 16.97 19.7248 17.1778C19.7079 17.2826 19.6535 17.3779 19.5714 17.4465C19.4894 17.5151 19.3852 17.5525 19.2778 17.5517H19.2436H18.9069C18.5808 17.5517 18.2442 17.5673 17.9049 17.5881L17.2237 17.64L16.8871 17.6608H16.8555C16.4754 17.7046 16.0904 17.6406 15.7457 17.4764V17.4764C15.3416 17.2823 14.8993 17.1781 14.45 17.1712C14.0007 17.1642 13.5553 17.2547 13.1453 17.4362C12.7353 17.6178 12.3705 17.8859 12.0769 18.2218C11.7832 18.5577 11.5677 18.9531 11.4457 19.3802V19.3802C11.3798 19.6363 11.3324 19.8966 11.3036 20.1593C10.8422 20.1727 10.3808 20.1343 9.92815 20.045ZM22.7073 21.8631H22.6783L21.5106 22.0137C20.9348 22.0948 20.3823 22.2929 19.8879 22.5955C19.4489 22.8587 18.9439 22.9953 18.4303 22.9898C17.9167 22.9843 17.4149 22.8369 16.9818 22.5643L15.4169 21.4267C15.3479 21.3768 15.2695 21.3407 15.1863 21.3207C15.1031 21.3006 15.0168 21.2969 14.9321 21.3098C14.8475 21.3227 14.7663 21.352 14.6931 21.3959C14.6199 21.4398 14.5562 21.4975 14.5056 21.5657C14.455 21.6339 14.4185 21.7113 14.3982 21.7934C14.3779 21.8756 14.3742 21.9609 14.3873 22.0444C14.4003 22.128 14.4299 22.2082 14.4744 22.2805C14.5188 22.3527 14.5773 22.4156 14.6463 22.4656L15.63 23.1798L14.9646 24.4291C14.7743 24.7905 14.7365 25.2116 14.8594 25.6004V25.6004L15.0119 26.0861C15.0211 26.1236 15.0211 26.1628 15.0119 26.2004V26.2004L14.7963 27.3509C14.7911 27.3962 14.7727 27.439 14.7433 27.474C14.7138 27.5091 14.6747 27.5349 14.6306 27.5483C14.5842 27.5611 14.5351 27.5611 14.4888 27.5483C14.4424 27.5355 14.4005 27.5103 14.3676 27.4756L13.9678 27.0185C13.6382 26.6414 13.4091 26.189 13.3011 25.7024C13.1932 25.2158 13.2099 24.7103 13.3498 24.2317C13.4071 24.0326 13.4223 23.824 13.3942 23.6188C13.3661 23.4137 13.2955 23.2165 13.1867 23.0396C12.7815 22.3667 12.5654 21.5993 12.5608 20.8164V20.7774C12.5617 20.4272 12.6058 20.0783 12.6923 19.7386C12.7623 19.4906 12.887 19.2609 13.0572 19.0659C13.2275 18.8709 13.4392 18.7154 13.6774 18.6105C13.9155 18.5055 14.1741 18.4538 14.4348 18.4589C14.6954 18.464 14.9518 18.5258 15.1855 18.64V18.64C15.6342 18.8503 16.1247 18.9594 16.6215 18.9594C16.7415 18.966 16.8618 18.966 16.9818 18.9594V18.9594L17.3237 18.9334C17.5393 18.9153 17.7629 18.8945 17.9785 18.8815C18.2889 18.8607 18.5966 18.8555 18.9227 18.8477C19.0332 18.8477 19.1463 18.8477 19.2567 18.8477C19.6786 18.8486 20.0865 18.6987 20.4051 18.4256C20.7237 18.1525 20.9314 17.7747 20.9899 17.3622C21.1538 16.1366 21.5604 14.9549 22.1865 13.8845V13.8845C22.5707 13.2161 22.7065 12.4363 22.5705 11.6795L22.3548 10.2303C22.2894 9.8535 22.3341 9.4661 22.4837 9.11351V9.11351L22.7756 8.41487C23.0114 7.85071 23.0833 7.23287 22.9834 6.6306L22.8256 5.7138L23.1885 5.65147C23.2764 5.6415 23.3612 5.61393 23.4379 5.57045C23.5145 5.52697 23.5814 5.46849 23.6344 5.3986C23.6874 5.32871 23.7254 5.24887 23.746 5.16398C23.7667 5.07909 23.7695 4.99093 23.7545 4.9049C23.7394 4.81887 23.7067 4.73678 23.6584 4.66366C23.6101 4.59054 23.5472 4.52792 23.4736 4.47965C23.3999 4.43137 23.317 4.39845 23.23 4.38291C23.143 4.36736 23.0537 4.36951 22.9676 4.38924L22.3522 4.49312C22.0404 4.5283 21.737 4.61615 21.4554 4.75284V4.75284L20.2508 5.3424C19.9441 5.48204 19.607 5.5445 19.2699 5.5242L18.1258 5.45408C17.8204 5.43867 17.5144 5.464 17.2158 5.5294L14.9725 6.03065C14.6449 6.10222 14.3047 6.0942 13.981 6.00728V6.00728L11.8086 5.42551C11.467 5.32788 11.112 5.28406 10.7566 5.29565L9.56259 5.35798C9.19731 5.37515 8.83404 5.29534 8.51059 5.12683L7.75842 4.73206C7.21439 4.43964 6.59916 4.30123 5.98055 4.3321V4.3321C5.77322 4.34506 5.56508 4.33548 5.35987 4.30353C5.12753 4.25659 4.90568 4.16861 4.705 4.04381C4.55531 3.96391 4.37984 3.94521 4.21633 3.99173C4.05281 4.03824 3.91431 4.14625 3.83059 4.29255C3.74687 4.43885 3.72463 4.61174 3.76863 4.77406C3.81264 4.93639 3.91938 5.07518 4.06592 5.1606C4.3149 5.30139 4.5797 5.41296 4.85491 5.49304C5.07284 5.80905 5.21742 6.16868 5.27834 6.54625C5.33926 6.92382 5.31501 7.31002 5.20733 7.67727C5.05246 8.19999 5.03097 8.75243 5.14478 9.28535C5.25858 9.81827 5.50414 10.3151 5.85957 10.7316C6.09898 11.0088 6.26415 11.341 6.33996 11.6976C6.41577 12.0543 6.3998 12.424 6.29352 12.7729C6.14513 13.2634 6.11541 13.7814 6.20677 14.2853C6.29813 14.7892 6.50801 15.2648 6.81951 15.674C7.16264 16.1339 7.31918 16.7038 7.25834 17.2719C7.19751 17.84 6.92371 18.365 6.49076 18.7439V18.7439C6.2044 18.9915 5.85999 19.1647 5.48874 19.2477C5.0324 19.3475 4.55768 19.3291 4.11065 19.1943C3.66363 19.0595 3.25948 18.8129 2.93742 18.4784C2.61536 18.1439 2.38633 17.7329 2.27255 17.2852C2.15877 16.8375 2.16411 16.3684 2.28805 15.9233C2.42524 15.4373 2.44677 14.9265 2.35096 14.4309C2.25515 13.9353 2.0446 13.4683 1.73575 13.0664C1.48488 12.7337 1.33425 12.3378 1.30122 11.9243C1.26818 11.5107 1.35408 11.0964 1.54902 10.729C1.77069 10.3148 1.90057 9.85889 1.93005 9.3914C1.95952 8.9239 1.88791 8.45556 1.71997 8.0175C1.5815 7.66154 1.53122 7.27804 1.57331 6.899C1.6154 6.51995 1.74864 6.15633 1.96193 5.83846C2.41782 5.16139 2.60508 4.34217 2.48793 3.53736V3.53736C2.43357 3.17496 2.48311 2.80476 2.63093 2.46874C2.77875 2.13273 3.01894 1.84432 3.32426 1.63622C3.63145 1.42969 3.99032 1.31073 4.36148 1.2924C4.73264 1.27407 5.10173 1.35709 5.42825 1.53234L7.06936 2.55303L7.10355 2.57121C7.40659 2.72967 7.74426 2.81259 8.08717 2.81275C8.48889 2.81277 8.88223 2.69921 9.22069 2.4855C9.44685 2.36174 9.70758 2.31382 9.96369 2.34894C10.2198 2.38407 10.4574 2.50035 10.6409 2.68029C10.8857 2.94307 11.1834 3.15249 11.5149 3.29515C11.8464 3.43782 12.2044 3.51058 12.566 3.50879C13.0267 3.51193 13.4802 3.3955 13.881 3.17116V3.17116C13.9423 3.14022 14.0055 3.11332 14.0704 3.09065L14.1335 3.06727L14.6595 2.8569C14.892 2.76518 15.1402 2.71845 15.3906 2.71925V2.71925L18.0522 2.70367C18.6713 2.70182 19.2777 2.53008 19.8037 2.2076V2.2076C20.1346 1.99771 20.5097 1.86521 20.9003 1.8202C21.2909 1.77519 21.6867 1.81886 22.0576 1.94789V1.94789C22.4236 2.07885 22.8098 2.14565 23.1991 2.14527H23.2701C23.5556 2.13986 23.8388 2.19604 24.1 2.30991C24.3612 2.42377 24.5941 2.59257 24.7825 2.80452C24.9708 3.01646 25.11 3.26645 25.1904 3.53702C25.2708 3.80759 25.2904 4.09223 25.2478 4.37106C25.2466 4.3753 25.2466 4.3798 25.2478 4.38404V4.38404L24.948 7.06693C24.8792 7.68948 24.9337 8.31931 25.1084 8.92132V8.92132L25.4477 10.0771C25.6117 10.6319 25.6334 11.2183 25.5108 11.7834V11.7834L25.2636 12.9521C25.0936 13.759 25.1426 14.5958 25.4056 15.3779C25.5452 15.8042 25.5799 16.2573 25.5067 16.6995C25.4335 17.1417 25.2546 17.5603 24.9848 17.9205C24.4673 18.6168 24.1807 19.4542 24.1643 20.3177C24.1531 20.7073 23.9993 21.0796 23.7314 21.3656C23.4635 21.6517 23.0996 21.8321 22.7073 21.8735V21.8631Z" fill="#FEFAEF"/>
<path d="M17.2 10.2926C17.3777 10.3428 17.5422 10.4303 17.6825 10.5491C17.8227 10.6679 17.9354 10.8152 18.0127 10.9809V10.9809C18.2939 11.5772 18.6724 12.1238 19.1331 12.5989C19.1801 12.648 19.2368 12.6871 19.2996 12.7139C19.3625 12.7407 19.4302 12.7546 19.4986 12.7548C19.598 12.7548 19.6951 12.7261 19.7781 12.6722C19.8611 12.6182 19.9262 12.5414 19.9654 12.4513C20.0046 12.3612 20.0161 12.2616 19.9986 12.1651C19.9811 12.0685 19.9353 11.9792 19.8668 11.9081C19.4834 11.5125 19.1688 11.057 18.9358 10.5601C18.7968 10.2638 18.5947 10.0007 18.3432 9.78866C18.0918 9.57664 17.7969 9.42075 17.4788 9.33167V9.33167C17.2983 9.28119 17.136 9.18118 17.0108 9.04326C16.8856 8.90534 16.8025 8.73518 16.7713 8.55252C16.743 8.42699 16.6669 8.31702 16.5587 8.24535C16.4506 8.17369 16.3187 8.14582 16.1903 8.1675C16.0619 8.18918 15.9469 8.25877 15.8691 8.36185C15.7912 8.46494 15.7564 8.59364 15.7719 8.72133C15.8364 9.08931 16.0045 9.4319 16.2571 9.70981C16.5097 9.98773 16.8365 10.1897 17.2 10.2926V10.2926Z" fill="#FEFAEF"/>
<path d="M12.5057 13.2742C12.5664 13.6351 12.7143 13.9762 12.9368 14.2687C13.1592 14.5612 13.4498 14.7964 13.7838 14.9546V14.9546C14.0711 15.0889 14.3268 15.2809 14.5347 15.5184C14.7425 15.7559 14.898 16.0335 14.991 16.3337C15.0222 16.4372 15.0864 16.528 15.174 16.5926C15.2617 16.6572 15.3682 16.6921 15.4775 16.6921C15.5265 16.6915 15.5751 16.6846 15.6222 16.6713C15.7508 16.6328 15.8589 16.5458 15.9229 16.4291C15.9869 16.3123 16.0017 16.1754 15.9641 16.048C15.8317 15.6147 15.6091 15.2135 15.3107 14.87C15.0122 14.5266 14.6445 14.2484 14.2309 14.0533V14.0533C14.0444 13.9633 13.8821 13.831 13.7573 13.6671C13.6325 13.5032 13.5488 13.3125 13.5129 13.1106C13.4253 12.5896 13.1835 12.106 12.818 11.7205C12.4524 11.335 11.9796 11.065 11.4589 10.9445C11.3318 10.9235 11.2013 10.9511 11.094 11.0217C10.9867 11.0922 10.9106 11.2005 10.8811 11.3244C10.8516 11.4484 10.8711 11.5787 10.9354 11.689C10.9997 11.7994 11.1042 11.8814 11.2275 11.9185C11.5519 11.9953 11.8462 12.1649 12.0736 12.406C12.3009 12.6471 12.4512 12.9491 12.5057 13.2742V13.2742Z" fill="#FEFAEF"/>
<path d="M10.4489 14.6299C10.3234 14.5777 10.2138 14.4943 10.1307 14.3879C10.0475 14.2815 9.99364 14.1556 9.97432 14.0226C9.95499 13.8895 9.97086 13.7537 10.0204 13.6285C10.0699 13.5033 10.1514 13.3929 10.2569 13.308C10.3568 13.2246 10.4203 13.1063 10.4341 12.9778C10.4478 12.8493 10.4108 12.7205 10.3307 12.6183C10.2507 12.5161 10.1337 12.4484 10.0043 12.4293C9.87491 12.4102 9.74303 12.4412 9.6362 12.5158C9.38417 12.7087 9.18895 12.9646 9.07076 13.2571C8.95256 13.5496 8.9157 13.8679 8.96398 14.1792C9.01227 14.4904 9.14394 14.7833 9.34537 15.0274C9.5468 15.2715 9.81065 15.458 10.1096 15.5675C10.1655 15.5901 10.2254 15.6016 10.2858 15.6013C10.4049 15.6013 10.5202 15.5599 10.6116 15.4844C10.7029 15.409 10.7645 15.3042 10.7855 15.1884C10.8065 15.0726 10.7856 14.9532 10.7264 14.8512C10.6673 14.7491 10.5737 14.6707 10.462 14.6299H10.4489Z" fill="#FEFAEF"/>
</g>
<defs>
<clipPath id="clip0_43_1285">
<rect width="26.8837" height="28.8443" fill="white"/>
</clipPath>
</defs>
</svg>
