<svg width="160" height="516" viewBox="0 0 160 516" fill="none" xmlns="http://www.w3.org/2000/svg">
<path d="M65.6001 489.556L83.515 184.526H55.3299C55.3299 184.526 28.8453 211.81 38.204 310.715L48.8414 489.556" fill="#F79C97"/>
<path d="M115.141 489.045L125.18 310.758C134.539 211.853 106.925 184.57 106.925 184.57H78.7402L98.3827 489.556" fill="#F79C97"/>
<path d="M53.4255 184.526C53.4255 184.526 8.53623 236.434 26.6824 431.409H137.627C137.627 431.409 152.835 247.789 108.218 184.526H53.4255Z" fill="#FDAE20"/>
<path d="M26.6824 510.775C26.6824 510.775 29.4029 500.268 45.019 499.567C46.2296 499.567 46.2704 482.732 46.2704 482.732L66.9059 483.068L67.4228 510.293L26.6824 510.775Z" fill="#33334E"/>
<path d="M26.682 510.775L25.8386 515.525L67.5856 515.057L67.4224 510.293L26.682 510.775Z" fill="#F3F0ED"/>
<path d="M76.1968 510.483C76.1968 510.483 78.9173 499.961 94.5198 499.275C95.7304 499.275 95.7848 482.425 95.7848 482.425L116.42 482.776L116.91 510.016L76.1968 510.483Z" fill="#33334E"/>
<path d="M76.1827 510.483L75.3257 515.232L117.086 514.765L116.909 509.986L76.1827 510.483Z" fill="#F3F0ED"/>
<path d="M106.463 72.2207C115.403 72.2207 122.65 64.8797 122.65 55.8242C122.65 46.7687 115.403 39.4277 106.463 39.4277C97.523 39.4277 90.2756 46.7687 90.2756 55.8242C90.2756 64.8797 97.523 72.2207 106.463 72.2207Z" fill="#928CC5"/>
<path d="M85.1196 66.4625C102.834 66.4625 117.195 51.5843 117.195 33.2311C117.195 14.8779 102.834 -0.000244141 85.1196 -0.000244141C67.4048 -0.000244141 53.0442 14.8779 53.0442 33.2311C53.0442 51.5843 67.4048 66.4625 85.1196 66.4625Z" fill="#928CC5"/>
<path d="M85.9087 6.66382C87.6494 7.3639 89.2784 8.34987 90.7377 9.58655C104.34 21.0436 98.8994 46.7636 88.8333 59.2728C83.2697 66.1559 74.5639 70.0285 66.4159 67.7341C54.5134 64.2999 49.5892 50.7093 50.7454 37.9954C51.5272 28.4891 55.5707 19.6346 62.0902 13.1523C68.6195 6.86841 77.9374 3.52189 85.9087 6.66382Z" fill="#FEC5A7"/>
<path d="M92.2205 51.2354C93.5018 52.2735 95.0156 52.9296 96.6088 53.1374C98.2019 53.3453 99.8179 53.0975 101.293 52.4191C102.73 51.636 103.966 50.4878 104.896 49.0743C105.825 47.6608 106.419 46.0248 106.625 44.3086C106.86 42.7841 106.709 41.2198 106.187 39.7799C105.666 38.34 104.793 37.0775 103.66 36.1249C102.448 35.3036 100.992 35.0053 99.5844 35.2899C98.1764 35.5746 96.9209 36.4211 96.0699 37.6594L92.2205 51.2354Z" fill="#FEC5A7"/>
<path d="M94.628 42.7595L96.6004 86.9657C96.825 90.8944 95.645 94.7671 93.3014 97.7927C90.9579 100.818 87.6275 102.769 83.9906 103.245V103.245C81.9332 103.526 79.8436 103.326 77.865 102.658C75.8864 101.99 74.0658 100.87 72.5281 99.3748C70.9904 97.8796 69.772 96.0448 68.9564 93.9962C68.1408 91.9476 67.7475 89.7337 67.8033 87.5064L68.5243 46.1937L94.628 42.7595Z" fill="#FEC5A7"/>
<path d="M68.0349 74.0911V68.0118C71.9089 68.5569 75.8483 68.0386 79.4854 66.5053C83.1224 64.972 86.3386 62.4738 88.8336 59.2437C88.8336 59.2437 84.0862 71.2853 68.0349 74.0911Z" fill="#111010"/>
<path d="M98.4643 35.628C83.7325 36.4318 69.3951 27.3275 60.6621 14.5113C60.6621 14.5113 71.966 -1.16907 88.4254 3.96031C105.293 9.22121 98.4643 35.628 98.4643 35.628Z" fill="#928CC5"/>
<path d="M97.8113 45.916C98.5349 46.0077 99.2632 45.7914 99.8403 45.3134C100.417 44.8355 100.797 44.1338 100.899 43.3587C100.854 42.8049 100.649 42.2802 100.312 41.8582C99.9757 41.4362 99.5244 41.1381 99.0219 41.0059" stroke="#B05959" stroke-width="0.95" stroke-miterlimit="10" stroke-linecap="round"/>
<path d="M64.9067 36.7239C64.7815 38.6269 65.1829 40.5272 66.0603 42.1858C66.9378 43.8445 68.2521 45.1873 69.8381 46.0456C71.424 46.9039 73.2108 47.2393 74.9736 47.0096C76.7365 46.7798 78.3969 45.9953 79.7458 44.7546C81.0948 43.5138 82.0722 41.8723 82.5551 40.0364C83.0379 38.2006 83.0048 36.2523 82.4598 34.4366C81.9148 32.6209 80.8822 31.0189 79.492 29.8319C78.1017 28.645 76.4158 27.9261 74.6463 27.7658C72.251 27.576 69.8831 28.4112 68.0586 30.0892C66.2342 31.7673 65.1012 34.1522 64.9067 36.7239V36.7239Z" stroke="#E08F49" stroke-width="0.76" stroke-linecap="round" stroke-linejoin="round"/>
<path d="M44.9103 34.8243C44.4886 40.0413 47.6308 44.6008 51.8477 45.0538C56.0646 45.5068 59.8733 41.5173 60.2814 36.2856C60.6895 31.054 57.5609 26.5091 53.344 26.1292C49.1271 25.7492 45.2639 29.5926 44.9103 34.8243Z" stroke="#E08F49" stroke-width="0.76" stroke-linecap="round" stroke-linejoin="round"/>
<path d="M64.906 36.7242C64.6364 36.3506 64.2987 36.0399 63.9135 35.8112C63.5284 35.5825 63.1039 35.4406 62.6659 35.3941C62.228 35.3476 61.7858 35.3975 61.3665 35.5407C60.9471 35.684 60.5593 35.9176 60.2268 36.2273" stroke="#E08F49" stroke-width="0.76" stroke-linecap="round" stroke-linejoin="round"/>
<path d="M82.8479 38.3609L98.1239 35.5259" stroke="#E08F49" stroke-width="0.76" stroke-linecap="round" stroke-linejoin="round"/>
<path d="M17.8542 298.118C17.8542 298.118 22.8737 244.047 26.5328 220.344C30.6924 194.019 36.3989 168.004 43.6179 142.453L16.6028 138.522L10.1958 182.816C6.70271 207.026 4.83431 231.474 4.60509 255.972L4.23782 296.174C4.23782 296.174 -0.346329 318.357 0.0209468 320.038C0.388222 321.719 3.39444 313.652 3.39444 313.652C3.39444 313.652 2.03416 321.879 2.75511 324.437C3.34003 326.483 7.0808 315.99 7.0808 315.99C6.65911 328.441 6.22383 327.929 6.65911 328.441C7.77454 329.8 10.4679 315.829 10.4679 315.829C10.4679 315.829 9.67894 325.182 11.1072 326.059C12.5355 326.936 15.9362 309.458 15.9362 309.458C17.2081 311.756 19.2456 313.448 21.6358 314.192C22.0734 314.252 22.5174 314.163 22.9054 313.938C23.2934 313.712 23.6058 313.362 23.7986 312.936C19.6362 310.159 17.8542 298.118 17.8542 298.118Z" fill="#FEC5A7"/>
<path d="M64.3486 82.3623C64.3486 82.3623 38.2176 83.4145 30.5048 88.8946C17.0789 98.4081 6.01978 162.533 6.01978 162.533L54.8947 168.144L64.3486 82.3623Z" fill="#BBD6E1"/>
<path d="M142.102 297.562C142.102 297.562 137.082 243.375 133.423 219.745C129.263 193.425 123.556 167.414 116.338 141.869L143.353 137.938L149.747 182.232C153.246 206.441 155.115 230.889 155.337 255.387L155.705 295.575C155.705 295.575 160.289 317.773 159.908 319.453C159.527 321.134 156.534 313.067 156.534 313.067C156.534 313.067 157.895 321.28 157.174 323.852C156.589 325.883 152.848 315.405 152.848 315.405C153.27 327.856 153.691 327.33 153.27 327.856C152.154 329.201 149.447 315.245 149.447 315.245C149.447 315.245 150.236 324.583 148.822 325.474C147.407 326.366 143.979 308.888 143.979 308.888C142.698 311.131 140.678 312.775 138.32 313.491C137.881 313.554 137.433 313.467 137.043 313.241C136.652 313.015 136.337 312.663 136.144 312.234C140.306 309.56 142.102 297.562 142.102 297.562Z" fill="#FEC5A7"/>
<path d="M95.6077 81.8362C95.6077 81.8362 121.739 82.903 129.451 88.3685C142.864 97.8819 153.936 162.021 153.936 162.021L105.062 167.633L95.6077 81.8362Z" fill="#BBD6E1"/>
<path d="M111.563 83.0492L108.394 82.5085C104.64 81.8655 100.885 81.3832 97.1173 81.0471C95.0769 82.83 90.7376 84.569 81.4197 84.1306C72.9315 83.7506 68.9731 82.5669 67.1367 81.4271C60.4048 82.2001 53.7258 83.4351 47.1406 85.1243C37.6186 87.3894 30.7084 97.692 33.0209 107.936C33.0209 107.936 40.1624 180.595 53.4251 184.541H108.217C121.48 178.476 125.044 105.51 125.044 105.51C127.111 95.0616 121.33 84.8613 111.563 83.0492Z" fill="#BBD6E1"/>
<path d="M118.229 166.084L119.467 136.93" stroke="#2E2766" stroke-width="1.41" stroke-miterlimit="10"/>
<path d="M44.4344 166.084L43.2102 136.93" stroke="#2E2766" stroke-width="1.41" stroke-miterlimit="10"/>
<ellipse cx="71.9623" cy="39.3128" rx="2.12739" ry="2.65923" fill="#2E2766"/>
<ellipse cx="56.007" cy="38.2493" rx="2.12739" ry="2.65923" fill="#2E2766"/>
<path d="M60.8193 46.0092C60.9531 46.016 61.0843 45.9718 61.1852 45.8858C61.2861 45.7998 61.3488 45.6789 61.36 45.5486C61.3711 45.4184 61.3299 45.2889 61.245 45.1878C61.1602 45.0867 61.0383 45.0217 60.9052 45.0068C60.7403 44.839 60.6023 44.6478 60.4961 44.4397C60.0133 43.6409 60.2956 43.3774 60.9748 42.7703C61.4895 42.3733 61.8945 41.8572 62.1531 41.2687C62.344 40.6738 62.4202 40.0496 62.3782 39.4276V39.14C62.3782 39.0023 62.3221 38.8703 62.2224 38.7729C62.1226 38.6756 61.9873 38.6208 61.8463 38.6208C61.7052 38.6208 61.5699 38.6756 61.4702 38.7729C61.3704 38.8703 61.3144 39.0023 61.3144 39.14V39.4316C61.3521 39.9334 61.298 40.4378 61.1548 40.9212C60.9461 41.3528 60.6364 41.7303 60.2506 42.0235C59.5837 42.6185 58.6754 43.4333 59.5755 44.9429C60.0337 45.6897 60.402 46.0092 60.8193 46.0092Z" fill="#2E2766"/>
<path d="M72.6218 32.3931C72.4732 32.3237 72.3518 32.2081 72.2775 32.0654C72.2033 31.9226 72.1805 31.7611 72.213 31.6074C72.2454 31.4536 72.3312 31.3166 72.4563 31.219C72.5813 31.1213 72.7382 31.0687 72.9012 31.0697C74.7745 31.1133 76.6014 31.7422 78.1095 32.8625C78.2427 32.9872 78.324 33.1546 78.3372 33.3312C78.3503 33.5078 78.2944 33.6807 78.1805 33.8155C78.0667 33.9502 77.9032 34.0368 77.7228 34.0581C77.5424 34.0794 77.3583 34.0338 77.2072 33.9303C75.9691 33.0211 74.477 32.5073 72.9456 32.4628C72.8343 32.4642 72.7234 32.4403 72.6218 32.3931V32.3931Z" fill="#2E2766"/>
<path d="M64.6953 56.5657C64.3994 56.5657 64.1207 56.5657 63.8763 56.5657C63.0901 56.534 62.3123 56.3579 61.5692 56.0432C61.2773 55.9173 60.9971 55.7545 60.7331 55.5573C60.2185 55.1655 60.2185 54.7789 60.3042 54.5124C60.3554 54.3672 60.4474 54.249 60.5638 54.179C60.6801 54.1091 60.8131 54.0921 60.9389 54.131C61.0569 54.1652 61.1615 54.2484 61.2348 54.3661L61.3119 54.4445C61.5111 54.5863 61.7207 54.7053 61.938 54.7998C62.5789 55.0671 63.2504 55.2099 63.9277 55.223C65.4543 55.317 68.2802 55.223 70.0169 53.5407C70.1306 53.4319 70.2751 53.3826 70.4187 53.4037C70.5622 53.4248 70.693 53.5144 70.7823 53.653C70.8716 53.7916 70.912 53.9677 70.8947 54.1426C70.8775 54.3174 70.8038 54.4768 70.6901 54.5856C68.9748 56.247 66.4448 56.5657 64.6953 56.5657Z" fill="#2E2766"/>
</svg>
