<svg width="28" height="24" viewBox="0 0 28 24" fill="none" xmlns="http://www.w3.org/2000/svg">
<g clip-path="url(#clip0_32_121)">
<path d="M13.9725 6.94373C13.9089 6.94341 13.846 6.95548 13.7872 6.97926C13.7284 7.00304 13.6749 7.03806 13.6299 7.08231C13.5849 7.12656 13.5491 7.17916 13.5247 7.23709C13.5003 7.29502 13.4878 7.35714 13.4878 7.41987V15.911C13.4878 16.038 13.5389 16.1597 13.6297 16.2495C13.7206 16.3392 13.8439 16.3897 13.9725 16.3897C14.101 16.3897 14.2243 16.3392 14.3152 16.2495C14.4061 16.1597 14.4571 16.038 14.4571 15.911V7.40995C14.4538 7.28518 14.4013 7.1666 14.3108 7.0795C14.2203 6.99241 14.0989 6.94369 13.9725 6.94373Z" fill="#FEFAEF"/>
<path d="M13.9725 17.1708C13.9087 17.1705 13.8456 17.1826 13.7866 17.2065C13.7276 17.2305 13.6741 17.2657 13.629 17.3102C13.5839 17.3547 13.5483 17.4076 13.524 17.4659C13.4998 17.5241 13.4875 17.5865 13.4878 17.6494V18.872C13.4878 18.9989 13.5389 19.1207 13.6298 19.2104C13.7206 19.3002 13.8439 19.3506 13.9725 19.3506C14.101 19.3506 14.2243 19.3002 14.3152 19.2104C14.4061 19.1207 14.4571 18.9989 14.4571 18.872V17.6494C14.4571 17.5866 14.4446 17.5243 14.4202 17.4662C14.3959 17.4082 14.3602 17.3554 14.3152 17.311C14.2702 17.2665 14.2167 17.2313 14.1579 17.2072C14.0991 17.1832 14.0361 17.1708 13.9725 17.1708Z" fill="#FEFAEF"/>
<path d="M15.8207 6.03609H15.8483L16.6469 5.92202H16.6745L17.4605 5.7633C17.5227 5.75076 17.5817 5.72626 17.6343 5.69118C17.6869 5.65611 17.7319 5.61115 17.7669 5.55888C17.8019 5.5066 17.8261 5.44804 17.8381 5.38652C17.8502 5.32501 17.8499 5.26175 17.8372 5.20037C17.8245 5.13898 17.7997 5.08066 17.7641 5.02874C17.7286 4.97683 17.6831 4.93233 17.6302 4.89779C17.5772 4.86324 17.5179 4.83934 17.4556 4.82743C17.3933 4.81552 17.3293 4.81584 17.2671 4.82838L16.4937 4.98462L15.7227 5.09373L14.9518 5.16069L14.1808 5.18301L13.3998 5.16069L12.6289 5.09373L11.8755 4.98462L11.1021 4.82838C11.0399 4.81568 10.9758 4.8152 10.9135 4.82695C10.8511 4.83871 10.7917 4.86248 10.7387 4.89691C10.6315 4.96644 10.5568 5.07515 10.5308 5.19913C10.5048 5.3231 10.5298 5.45219 10.6002 5.558C10.6706 5.6638 10.7807 5.73765 10.9062 5.7633L11.6947 5.92202H11.7224L12.5084 6.03609H12.536L13.3346 6.10305H13.3622L14.1733 6.12537H14.2009L14.9995 6.10305H15.0271L15.8207 6.03609Z" fill="#FEFAEF"/>
<path d="M27.1337 8.20353C27.8391 6.99647 28.1011 5.58602 27.8756 4.2103C27.65 2.83457 26.9507 1.57783 25.8957 0.652243V0.652243C25.6401 0.427552 25.3421 0.254917 25.0187 0.144242C24.6954 0.0335682 24.3531 -0.012966 24.0116 0.00731006C23.67 0.0275861 23.3358 0.114273 23.0282 0.262397C22.7207 0.410521 22.4457 0.617166 22.2192 0.870474C21.7681 1.37534 21.1943 1.75852 20.5518 1.98395V1.98395C20.2804 2.07872 19.9822 2.06537 19.7206 1.94675C17.9275 1.09894 15.9655 0.656708 13.9774 0.652243V0.652243C11.9899 0.654385 10.028 1.09407 8.23425 1.93931V1.93931C7.9736 2.06037 7.67544 2.07638 7.40303 1.98395V1.98395C6.76021 1.75901 6.18565 1.37676 5.73307 0.872954V0.872954C5.50672 0.619692 5.23205 0.41295 4.92477 0.264538C4.61749 0.116126 4.28361 0.0289519 3.9422 0.00799534C3.60079 -0.0129613 3.25855 0.0327103 2.93502 0.142401C2.61149 0.252092 2.31302 0.423652 2.05665 0.647283V0.647283C0.999959 1.57201 0.300197 2.8296 0.0763274 4.20624C-0.147542 5.58289 0.118301 6.99361 0.828658 8.19857V8.19857L0.856282 8.24073V8.25561C0.961812 8.39488 1.09859 8.50812 1.25588 8.58643C1.41316 8.66474 1.58669 8.70599 1.76283 8.70695V8.70695C1.953 8.70715 2.13995 8.65843 2.30526 8.5656C2.5297 8.98194 2.85764 9.3351 3.25826 9.59191C3.65888 9.84872 4.11903 10.0007 4.59549 10.0337C4.66827 10.0374 4.74119 10.0374 4.81397 10.0337C5.33275 10.036 5.84204 9.89637 6.28532 9.63022C6.7286 9.36406 7.08854 8.98182 7.32519 8.52592C7.47119 8.5506 7.61904 8.56304 7.76716 8.56311C7.99422 8.5635 8.2204 8.53516 8.44017 8.4788C8.85606 9.37331 9.37695 10.2165 9.9921 10.9909V10.9909C10.2226 11.2845 10.3635 11.6369 10.3982 12.0068C10.4328 12.3767 10.3599 12.7486 10.188 13.079C9.51999 14.3636 9.43461 15.9532 9.95695 17.5552L11.75 23.2912V23.3111V23.3408V23.3631L11.765 23.3929C11.765 23.3929 11.765 23.3929 11.765 23.4127L11.7876 23.445V23.4574L11.8228 23.502C11.8332 23.5148 11.845 23.5264 11.8579 23.5367V23.5491L11.8931 23.5764L11.9182 23.5938H11.9358H11.9584H11.981H11.9961L12.0262 23.6086L12.0614 23.6235H12.1066H12.1492C12.1818 23.626 12.2146 23.626 12.2472 23.6235H12.31H12.3727H12.4179H12.4456C12.4579 23.6201 12.4697 23.6151 12.4807 23.6086C12.489 23.61 12.4975 23.61 12.5058 23.6086C12.5183 23.6044 12.5301 23.5985 12.541 23.5913L12.5636 23.5764C12.5763 23.5696 12.5881 23.5613 12.5988 23.5516L12.6163 23.5392C12.6513 23.5101 12.6832 23.4777 12.7118 23.4425V23.4425C12.8411 23.2716 13.0089 23.1329 13.2021 23.0373C13.3952 22.9417 13.6082 22.892 13.8242 22.892C14.0402 22.892 14.2533 22.9417 14.4464 23.0373C14.6395 23.1329 14.8074 23.2716 14.9367 23.4425V23.4425C14.9437 23.4527 14.9522 23.4619 14.9618 23.4698L14.9769 23.4871C14.9854 23.4968 14.9947 23.506 15.0045 23.5144L15.0221 23.5293L15.0472 23.5491L15.0698 23.5665L15.0949 23.5814L15.1225 23.5987H15.1426L15.1778 23.6161H15.1979L15.2355 23.6285H15.2732C15.2908 23.6297 15.3084 23.6297 15.3259 23.6285H15.4515H15.5067H15.5595H15.5796H15.6097H15.6348H15.6624H15.685L15.7328 23.6012L15.7754 23.5715L15.8081 23.5442V23.5318L15.8407 23.4971L15.8734 23.4524V23.44C15.8815 23.4293 15.8883 23.4177 15.8935 23.4053C15.8943 23.3995 15.8943 23.3937 15.8935 23.3879C15.9003 23.3786 15.9061 23.3686 15.9111 23.3582V23.3359C15.912 23.326 15.912 23.316 15.9111 23.3061V23.2838L17.694 17.5503C18.2314 15.9507 18.1561 14.3562 17.4831 13.0616C17.3087 12.7347 17.2342 12.3647 17.2685 11.9967C17.3028 11.6287 17.4445 11.2785 17.6764 10.9885V10.9885C18.2927 10.213 18.8137 9.36803 19.2284 8.47136C19.4425 8.52585 19.6627 8.55334 19.8838 8.5532C20.1187 8.58481 20.3568 8.58565 20.592 8.55568C20.8293 9.01143 21.1892 9.39375 21.6323 9.66063C22.0753 9.9275 22.5842 10.0686 23.1032 10.0684C23.176 10.0721 23.2489 10.0721 23.3217 10.0684C23.7994 10.0344 24.2606 9.88089 24.6617 9.62232C25.0628 9.36375 25.3906 9.00863 25.6144 8.59039C25.784 8.68162 25.9738 8.73017 26.1669 8.73175C26.3423 8.73032 26.5151 8.6891 26.6718 8.61128C26.8286 8.53345 26.9651 8.4211 27.0709 8.28289V8.26801V8.25561L27.096 8.21345L27.1337 8.20353ZM4.71603 8.84086C4.42183 8.81932 4.13948 8.71748 3.90047 8.5467C3.66147 8.37592 3.47521 8.14292 3.36248 7.8737C3.60169 7.81743 3.82545 7.70991 4.01791 7.55876C4.15959 7.44519 4.27145 7.29956 4.34402 7.13422C4.41658 6.96888 4.44772 6.7887 4.43477 6.60896C4.43477 6.58168 4.43477 6.5544 4.43477 6.52712C4.48417 6.53487 4.53288 6.54648 4.58042 6.56184V6.56184C4.63201 6.578 4.67693 6.61018 4.70849 6.65359V6.65359C5.10613 7.23154 5.61879 7.72347 6.21523 8.09937C6.06234 8.35071 5.84018 8.5539 5.57471 8.6852C5.30924 8.8165 5.01141 8.87049 4.71603 8.84086V8.84086ZM7.55371 7.35292C6.89828 7.19173 6.22778 6.69575 5.70796 5.95178C5.52249 5.69385 5.2586 5.501 4.95459 5.40125V5.40125C4.49511 5.25305 3.99889 5.25916 3.54329 5.4186C3.43977 5.27846 3.37409 5.1146 3.35244 4.94246C3.3329 4.78182 3.35055 4.61889 3.40405 4.46596C3.45756 4.31303 3.54552 4.17409 3.66132 4.05962V4.05962C3.76526 3.96182 3.90139 3.90424 4.0448 3.89741C4.1882 3.89058 4.32931 3.93495 4.44231 4.02242V4.02242C5.08479 4.49136 5.76606 4.90614 6.47891 5.26237C6.59191 5.31941 6.70743 5.37149 6.81792 5.42356L6.99873 5.51036H7.01128H7.02384C7.17996 5.57457 7.31872 5.67394 7.42903 5.80053C7.53934 5.92712 7.61816 6.07743 7.65918 6.23945V6.23945C7.75209 6.60648 7.86008 6.98342 7.98815 7.33309C7.84537 7.36282 7.69866 7.36952 7.55371 7.35292V7.35292ZM13.9774 21.7363C13.5266 21.7376 13.0837 21.8538 12.6917 22.0736L11.1849 17.218C10.763 15.9234 10.8158 14.6637 11.3331 13.6692C11.6109 13.1303 11.7271 12.5243 11.6679 11.9224C11.6087 11.3205 11.3767 10.7478 10.9991 10.2718V10.2718C9.99275 9.00304 9.26959 7.53842 8.87712 5.9741V5.9741C8.79198 5.63335 8.62855 5.31653 8.39949 5.04819C8.17043 4.77984 7.88189 4.56717 7.55622 4.42665L7.36537 4.33737L7.04895 4.1861C6.39646 3.85499 5.77244 3.47182 5.18312 3.04038V3.04038C4.8332 2.77809 4.39944 2.6488 3.961 2.67612C3.52257 2.70344 3.1087 2.88553 2.79494 3.18918V3.18918C2.55885 3.42 2.37614 3.69854 2.25933 4.00568C2.14252 4.31281 2.0944 4.64127 2.11825 4.9685C2.14211 5.29574 2.23739 5.614 2.39754 5.90144C2.55769 6.18889 2.77893 6.43871 3.04607 6.63375L3.08876 6.66351L3.10885 6.67839C3.09038 6.68597 3.07095 6.69098 3.05109 6.69327L2.91297 6.71559C2.72084 6.74788 2.53622 6.81426 2.36804 6.9115C2.32689 6.93106 2.28813 6.95519 2.25252 6.98342C2.09637 7.08751 1.95887 7.21658 1.8457 7.36532V7.36532L1.80301 7.41492C1.29492 6.4609 1.12471 5.36642 1.31949 4.3058C1.51427 3.24518 2.06283 2.27943 2.87781 1.56237C3.01203 1.44479 3.16838 1.35448 3.33795 1.29658C3.50751 1.23868 3.68696 1.21433 3.86605 1.22492C4.04514 1.23552 4.22037 1.28084 4.38172 1.35831C4.54307 1.43579 4.68739 1.54389 4.80643 1.67644V1.67644C5.39778 2.33521 6.14858 2.83519 6.98868 3.12966V3.12966C7.23849 3.21776 7.50191 3.26223 7.76716 3.26109C8.10607 3.26202 8.44112 3.19009 8.74905 3.0503C10.3756 2.27475 12.1586 1.87195 13.9649 1.87195C15.7711 1.87195 17.5541 2.27475 19.1807 3.0503V3.0503C19.4894 3.19029 19.8253 3.26222 20.1651 3.26109C20.4295 3.26245 20.6922 3.21797 20.941 3.12966V3.12966C21.7818 2.83626 22.5334 2.33713 23.1258 1.67892C23.2441 1.54566 23.3881 1.43693 23.5493 1.35902C23.7105 1.28112 23.8858 1.2356 24.065 1.2251C24.4264 1.20578 24.781 1.32784 25.0519 1.56484V1.56484C25.8694 2.28175 26.4201 3.24857 26.6158 4.31083C26.8116 5.37309 26.6411 6.46948 26.1317 7.42484L26.1041 7.38764C25.9909 7.23162 25.8516 7.09577 25.6923 6.9859C25.6571 6.95824 25.6193 6.93414 25.5793 6.91398C25.4109 6.81713 25.2263 6.75078 25.0343 6.71807V6.71807L24.9163 6.69575H24.8661C25.143 6.50374 25.3739 6.25405 25.5425 5.96431C25.711 5.67457 25.8132 5.35183 25.8417 5.01886C25.8702 4.68589 25.8243 4.3508 25.7074 4.03723C25.5905 3.72366 25.4053 3.43925 25.1649 3.20406V3.20406C24.8511 2.90041 24.4373 2.71832 23.9988 2.691C23.5604 2.66368 23.1266 2.79297 22.7767 3.05526V3.05526L22.7139 3.0999C22.5658 3.20654 22.4277 3.30573 22.2845 3.40245C21.6856 3.79467 21.0577 4.142 20.4061 4.44153V4.44153C20.0834 4.58312 19.7971 4.79462 19.5685 5.06035C19.3398 5.32608 19.1747 5.63923 19.0852 5.97658V5.97658C18.7013 7.54159 17.982 9.0071 16.9758 10.2742C16.6011 10.75 16.3718 11.3216 16.3148 11.9217C16.2579 12.5218 16.3757 13.1255 16.6544 13.6618C17.1767 14.6537 17.2244 15.9259 16.7875 17.2155V17.2304L15.2632 22.0711C14.8695 21.8566 14.427 21.7448 13.9774 21.7462V21.7363ZM20.2756 6.26921C20.3173 6.1046 20.397 5.95176 20.5085 5.82268C20.6201 5.6936 20.7604 5.5918 20.9184 5.52524V5.52524C21.6278 5.19888 22.3111 4.82003 22.9626 4.39193C23.1157 4.28777 23.2664 4.17866 23.4121 4.0745L23.4749 4.02986C23.5874 3.94257 23.7281 3.89829 23.8711 3.90512C24.0141 3.91195 24.1498 3.96944 24.2533 4.06706C24.3767 4.17568 24.4731 4.31095 24.535 4.46235C24.5968 4.61375 24.6225 4.7772 24.6099 4.93998C24.5894 5.11235 24.5255 5.27689 24.4241 5.4186C23.9681 5.25722 23.4707 5.25024 23.0103 5.39877V5.39877C22.7043 5.4948 22.4393 5.68844 22.2569 5.9493C21.8852 6.47256 21.2524 7.13717 20.4061 7.34301C20.2555 7.37191 20.1011 7.3761 19.9491 7.3554C20.0747 7.00078 20.1826 6.63871 20.2756 6.26921ZM23.2388 8.84086C22.9464 8.86394 22.6532 8.80666 22.3917 8.67535C22.1302 8.54405 21.9106 8.34384 21.7572 8.09689C22.3557 7.72261 22.8689 7.2294 23.2639 6.64863V6.64863C23.2922 6.60727 23.3324 6.57529 23.3794 6.55688V6.55688C23.4313 6.54178 23.4842 6.53018 23.5376 6.52216C23.5376 6.54944 23.5376 6.57672 23.5376 6.604C23.5251 6.78406 23.5564 6.96446 23.629 7.13013C23.7015 7.2958 23.8131 7.44192 23.9545 7.55628V7.55628C24.14 7.70656 24.357 7.81415 24.5898 7.87122C24.4779 8.14071 24.2923 8.37414 24.0537 8.54538C23.8151 8.71663 23.5329 8.81894 23.2388 8.84086V8.84086Z" fill="#FEFAEF"/>
</g>
<defs>
<clipPath id="clip0_32_121">
<rect width="27.9574" height="23.7574" fill="white"/>
</clipPath>
</defs>
</svg>
