<svg width="27" height="26" viewBox="0 0 27 26" fill="none" xmlns="http://www.w3.org/2000/svg">
<g clip-path="url(#clip0_43_1270)">
<path d="M4.76584 9.76279C4.7268 9.76465 4.68785 9.75769 4.65194 9.74245C4.61603 9.7272 4.58412 9.70406 4.55863 9.6748L3.35887 8.33653L3.06049 8.73351C3.03882 8.76175 3.01158 8.78535 2.98041 8.80289C2.94925 8.82043 2.9148 8.83154 2.87916 8.83556C2.84352 8.83958 2.80742 8.83641 2.77306 8.82626C2.73869 8.8161 2.70676 8.79917 2.67921 8.77648L1.19557 7.52416C1.14227 7.47966 1.10904 7.41607 1.10321 7.34738C1.10033 7.31336 1.10425 7.27912 1.11477 7.24661C1.12528 7.21409 1.14218 7.18394 1.16449 7.15788C1.1868 7.13181 1.2141 7.11034 1.24481 7.09469C1.27553 7.07904 1.30907 7.06952 1.34351 7.06667C1.41307 7.06091 1.48209 7.08268 1.5354 7.12718L2.81805 8.20148L3.1413 7.77585C3.16575 7.74427 3.19705 7.71851 3.23291 7.70045C3.26877 7.68239 3.30827 7.67249 3.34851 7.67149C3.38749 7.67008 3.42631 7.67723 3.46215 7.69245C3.49798 7.70767 3.52995 7.73057 3.55572 7.75948L4.97306 9.33102C4.99612 9.35645 5.01384 9.38615 5.0252 9.4184C5.03655 9.45064 5.0413 9.48479 5.03918 9.51887C5.03706 9.55294 5.02811 9.58626 5.01284 9.61689C4.99758 9.64753 4.97631 9.67486 4.95026 9.69731C4.92542 9.7197 4.89633 9.73701 4.86468 9.74825C4.83303 9.75949 4.79944 9.76443 4.76584 9.76279V9.76279Z" fill="#FEFAEF"/>
<path d="M2.43061 11.4305H2.39124L0.221728 11.0929C0.154786 11.0799 0.095625 11.0417 0.0569002 10.9862C0.0181754 10.9308 0.00296239 10.8625 0.0145157 10.7962C0.0252743 10.7301 0.0614435 10.6706 0.115486 10.6302C0.169529 10.5898 0.237277 10.5716 0.304613 10.5793L2.07214 10.8453L1.92709 10.2723C1.91542 10.2287 1.91555 10.1828 1.92745 10.1393C1.93935 10.0957 1.9626 10.056 1.9949 10.0242C2.0272 9.99226 2.0674 9.96929 2.11149 9.95754C2.15559 9.94579 2.20204 9.94567 2.24619 9.95718L4.51517 10.5179C4.58304 10.5347 4.64136 10.5774 4.67731 10.6367C4.71326 10.696 4.72388 10.767 4.70684 10.834C4.68981 10.901 4.64651 10.9586 4.58647 10.9941C4.52643 11.0296 4.45457 11.0401 4.3867 11.0233L2.54458 10.567L2.67927 11.099C2.68967 11.1406 2.68944 11.184 2.67859 11.2255C2.66773 11.2669 2.6466 11.305 2.6171 11.3364C2.59437 11.364 2.56604 11.3867 2.53392 11.4029C2.50181 11.4191 2.46662 11.4285 2.43061 11.4305V11.4305Z" fill="#FEFAEF"/>
<path d="M1.43588 15.2509C1.38009 15.2505 1.32585 15.2326 1.28102 15.1998C1.23619 15.167 1.20309 15.121 1.18648 15.0684C1.16988 15.0158 1.17064 14.9593 1.18865 14.9071C1.20666 14.855 1.241 14.8098 1.28669 14.7782L2.62736 13.8553L2.25645 13.4461C2.23254 13.4179 2.2147 13.3853 2.20401 13.3501C2.19332 13.3149 2.19001 13.278 2.19428 13.2415C2.20029 13.204 2.21453 13.1683 2.23601 13.1368C2.25748 13.1053 2.28568 13.0789 2.31861 13.0593L4.14415 11.9646C4.20405 11.929 4.2758 11.9184 4.34361 11.9351C4.41142 11.9518 4.46974 11.9944 4.50574 12.0536C4.54173 12.1128 4.55246 12.1836 4.53556 12.2506C4.51865 12.3175 4.4755 12.3751 4.4156 12.4107L2.86979 13.3295L3.2262 13.7387C3.25 13.7669 3.26778 13.7996 3.27846 13.8347C3.28915 13.8699 3.29251 13.9068 3.28836 13.9433C3.28417 13.9796 3.27221 14.0147 3.25328 14.0461C3.23435 14.0775 3.20887 14.1045 3.17854 14.1255L1.58715 15.2038C1.54301 15.2349 1.49007 15.2514 1.43588 15.2509Z" fill="#FEFAEF"/>
<path d="M5.50987 26C5.4688 26.0001 5.42782 25.996 5.38761 25.9877C5.26506 25.9559 5.16009 25.8778 5.09535 25.7702C5.03061 25.6626 5.0113 25.5342 5.04157 25.4127L7.21108 16.9616V16.3477C7.21258 16.2846 7.22666 16.2223 7.25251 16.1645C7.27836 16.1068 7.31549 16.0546 7.36176 16.011C7.40804 15.9674 7.46256 15.9332 7.52221 15.9104C7.58186 15.8876 7.64548 15.8766 7.70943 15.8781C7.77337 15.8796 7.8364 15.8935 7.89491 15.919C7.95341 15.9445 8.00626 15.9812 8.05041 16.0269C8.09457 16.0726 8.12919 16.1264 8.15227 16.1853C8.17536 16.2442 8.18648 16.3071 8.18498 16.3702L8.17255 17.0394C8.1718 17.0752 8.16694 17.1109 8.15804 17.1458L5.97402 25.6419C5.94848 25.7443 5.88884 25.8353 5.80467 25.9002C5.7205 25.9652 5.61668 26.0003 5.50987 26V26Z" fill="#FEFAEF"/>
<path d="M8.0812 26C8.0093 25.9989 7.93854 25.9822 7.87399 25.9509C7.76199 25.8932 7.67747 25.7944 7.63869 25.6757C7.59992 25.557 7.61001 25.428 7.66677 25.3165L9.29961 22.065C10.1139 20.4557 10.2488 18.5932 9.67466 16.8859C9.64097 16.8253 9.62115 16.7581 9.6166 16.6891C9.61205 16.6201 9.62289 16.551 9.64834 16.4865C9.6738 16.4221 9.71326 16.364 9.76393 16.3163C9.8146 16.2686 9.87526 16.2324 9.94162 16.2104C10.008 16.1883 10.0784 16.1809 10.148 16.1887C10.2176 16.1965 10.2846 16.2192 10.3443 16.2553C10.404 16.2914 10.455 16.3401 10.4936 16.3977C10.5322 16.4554 10.5575 16.5208 10.5677 16.5892C11.2217 18.5332 11.0682 20.6541 10.1409 22.4865L8.49562 25.736C8.45749 25.8132 8.39872 25.8785 8.32567 25.9251C8.25263 25.9716 8.16809 25.9975 8.0812 26V26Z" fill="#FEFAEF"/>
<path d="M7.53827 7.16197C7.41291 7.16147 7.2927 7.11262 7.20328 7.02585C7.11386 6.93907 7.06231 6.82124 7.05961 6.69747L7.0451 5.76436C7.04388 5.58228 7.03073 5.40046 7.00573 5.22005C6.81717 3.91657 7.57557 2.68676 8.77326 2.35527H8.79812L11.954 1.66772H11.9726C12.3104 1.60837 12.903 1.36282 13.0812 0.390839C13.1037 0.267374 13.175 0.157804 13.2793 0.0862343C13.3837 0.0146646 13.5125 -0.0130423 13.6376 0.00920864C13.7626 0.0314596 13.8735 0.101846 13.946 0.204883C14.0185 0.30792 14.0466 0.435168 14.024 0.558634C13.8168 1.65953 13.1226 2.42075 12.1591 2.60491L9.01362 3.27404C8.29874 3.47867 7.83251 4.26853 7.95062 5.085C7.98057 5.30342 7.99649 5.52349 7.99828 5.7439L8.019 6.68314C8.02067 6.80816 7.9721 6.92874 7.88395 7.01848C7.79579 7.10822 7.67522 7.15982 7.54863 7.16197H7.53827Z" fill="#FEFAEF"/>
<path d="M10.6362 15.9221C9.44854 15.9205 8.31 15.4538 7.47021 14.6245C6.63041 13.7952 6.15789 12.6709 6.15625 11.498C6.15625 10.0922 6.88149 8.77648 8.19729 7.78813C9.18155 7.05147 9.23336 5.71116 9.23336 5.69888C9.2383 5.57352 9.29348 5.45523 9.38674 5.37003C9.48 5.28484 9.60372 5.23972 9.73066 5.24461C9.85761 5.24949 9.9774 5.30398 10.0637 5.39608C10.1499 5.48818 10.1956 5.61035 10.1907 5.73572C10.1907 5.80733 10.1057 7.53644 8.76713 8.54116C8.14549 9.00771 7.10943 10.0104 7.10943 11.498C7.10943 12.4206 7.48056 13.3054 8.14118 13.9578C8.80179 14.6102 9.69778 14.9767 10.632 14.9767C11.1375 14.973 11.6369 14.8679 12.1 14.6677C12.5631 14.4676 12.9801 14.1766 13.3258 13.8124C13.6171 13.5116 13.8413 13.1539 13.9841 12.7624C14.1268 12.3708 14.1849 11.954 14.1547 11.539C14.1439 11.4133 14.1842 11.2886 14.2666 11.1923C14.349 11.096 14.4667 11.0359 14.5939 11.0253C14.7212 11.0148 14.8474 11.0545 14.945 11.1359C15.0425 11.2172 15.1033 11.3335 15.114 11.4592C15.1568 12.0042 15.0834 12.5521 14.8985 13.0674C14.7137 13.5827 14.4214 14.0539 14.0407 14.4508C13.6068 14.9148 13.0803 15.2851 12.4943 15.5383C11.9084 15.7915 11.2758 15.9222 10.6362 15.9221Z" fill="#FEFAEF"/>
<path d="M9.54007 12.5866C9.93946 12.5866 10.2632 12.2669 10.2632 11.8725C10.2632 11.4781 9.93946 11.1583 9.54007 11.1583C9.14067 11.1583 8.81689 11.4781 8.81689 11.8725C8.81689 12.2669 9.14067 12.5866 9.54007 12.5866Z" fill="#FEFAEF"/>
<path d="M26.2434 26C26.1368 25.9996 26.0333 25.9642 25.9493 25.8994C25.8653 25.8345 25.8055 25.744 25.7793 25.6419L23.5973 17.1376C23.5874 17.103 23.5825 17.0671 23.5828 17.0312L23.5704 16.3702C23.5682 16.2449 23.6165 16.1238 23.7047 16.0336C23.7929 15.9434 23.9138 15.8915 24.0408 15.8893C24.1677 15.8872 24.2903 15.9349 24.3816 16.022C24.473 16.1091 24.5255 16.2285 24.5277 16.3538V16.9677L26.6993 25.4189C26.7301 25.5407 26.7107 25.6696 26.6455 25.7773C26.5802 25.8851 26.4744 25.963 26.3512 25.9939C26.3155 25.9992 26.2795 26.0013 26.2434 26Z" fill="#FEFAEF"/>
<path d="M23.6802 26C23.5906 26 23.5028 25.9754 23.4266 25.9287C23.3504 25.8821 23.289 25.8153 23.2492 25.736L21.6164 22.4865C20.6943 20.6521 20.5453 18.5318 21.202 16.5892C21.2217 16.5302 21.253 16.4756 21.2941 16.4286C21.3352 16.3815 21.3852 16.343 21.4414 16.315C21.4976 16.2871 21.5588 16.2704 21.6215 16.2658C21.6843 16.2612 21.7473 16.2689 21.807 16.2884C21.8667 16.3079 21.922 16.3388 21.9696 16.3793C22.0173 16.4199 22.0563 16.4693 22.0846 16.5248C22.1129 16.5803 22.1299 16.6408 22.1345 16.7027C22.1391 16.7647 22.1313 16.8269 22.1116 16.8859C21.5369 18.593 21.671 20.4554 22.4846 22.065L24.1195 25.3165C24.1763 25.428 24.1864 25.557 24.1476 25.6757C24.1088 25.7944 24.0243 25.8932 23.9123 25.9509C23.8403 25.986 23.7605 26.0029 23.6802 26Z" fill="#FEFAEF"/>
<path d="M24.2149 7.16196C24.152 7.1609 24.09 7.14761 24.0323 7.12287C23.9746 7.09812 23.9225 7.0624 23.8788 7.01775C23.8351 6.97309 23.8008 6.92038 23.7777 6.86261C23.7547 6.80485 23.7434 6.74317 23.7445 6.68109L23.7631 5.74185C23.7655 5.52139 23.7821 5.30131 23.8129 5.08295C23.931 4.26443 23.4648 3.47253 22.7499 3.27199L19.6044 2.59467C18.6326 2.41869 17.9322 1.65748 17.7395 0.558627C17.7167 0.435161 17.7445 0.307805 17.8167 0.204576C17.889 0.101347 17.9999 0.0307004 18.1249 0.0081781C18.2499 -0.0143442 18.3789 0.0131025 18.4834 0.0844803C18.5879 0.155858 18.6595 0.26532 18.6823 0.388786C18.8605 1.36077 19.4531 1.60632 19.7909 1.66566H19.8095L22.9695 2.35321H22.9944C24.19 2.67857 24.9505 3.90838 24.7598 5.218C24.7367 5.39857 24.7242 5.58031 24.7225 5.76231L24.7018 6.70155C24.6985 6.82621 24.6455 6.94454 24.5543 7.03077C24.4631 7.11701 24.3411 7.16416 24.2149 7.16196V7.16196Z" fill="#FEFAEF"/>
<path d="M21.1191 15.9221C20.4795 15.9222 19.8469 15.7915 19.2609 15.5383C18.675 15.2851 18.1485 14.9148 17.7146 14.4508C17.3339 14.0539 17.0416 13.5827 16.8567 13.0674C16.6719 12.5521 16.5985 12.0042 16.6412 11.4592C16.6517 11.3341 16.712 11.2182 16.809 11.137C16.857 11.0968 16.9125 11.0664 16.9725 11.0474C17.0324 11.0284 17.0955 11.0213 17.1582 11.0264C17.221 11.0315 17.282 11.0487 17.338 11.0771C17.394 11.1056 17.4437 11.1446 17.4844 11.192C17.5251 11.2394 17.556 11.2943 17.5752 11.3535C17.5944 11.4126 17.6017 11.475 17.5965 11.5369C17.5653 11.9521 17.623 12.3691 17.7658 12.7608C17.9086 13.1525 18.1333 13.5101 18.4253 13.8103C18.771 14.1745 19.1881 14.4655 19.6511 14.6657C20.1142 14.8659 20.6136 14.971 21.1191 14.9747C22.0534 14.9747 22.9493 14.6082 23.61 13.9558C24.2706 13.3034 24.6417 12.4186 24.6417 11.496C24.6417 10.0083 23.6057 9.00567 22.984 8.53912C21.6371 7.53644 21.5501 5.80734 21.5501 5.72958C21.5452 5.60421 21.5908 5.48204 21.6771 5.38994C21.7634 5.29784 21.8832 5.24335 22.0101 5.23847C22.1371 5.23359 22.2608 5.2787 22.354 5.3639C22.4473 5.44909 22.5025 5.56738 22.5074 5.69274C22.5074 5.70502 22.582 7.05147 23.5538 7.78199C24.8717 8.77034 25.597 10.0861 25.597 11.4919C25.597 12.6654 25.1255 13.791 24.2859 14.6216C23.4464 15.4522 22.3075 15.9199 21.1191 15.9221Z" fill="#FEFAEF"/>
<path d="M22.2154 12.5866C22.6148 12.5866 22.9385 12.2669 22.9385 11.8725C22.9385 11.4781 22.6148 11.1583 22.2154 11.1583C21.816 11.1583 21.4922 11.4781 21.4922 11.8725C21.4922 12.2669 21.816 12.5866 22.2154 12.5866Z" fill="#FEFAEF"/>
</g>
<defs>
<clipPath id="clip0_43_1270">
<rect width="26.7242" height="26" fill="white"/>
</clipPath>
</defs>
</svg>
