<svg width="28" height="26" viewBox="0 0 28 26" fill="none" xmlns="http://www.w3.org/2000/svg">
<g clip-path="url(#clip0_32_70)">
<path d="M27.9251 8.23088C27.8803 7.85272 27.752 7.48886 27.5494 7.16493C27.3468 6.84101 27.0747 6.56491 26.7523 6.35608V6.35608L26.7297 6.33872C25.2615 5.3499 23.9244 4.18356 22.7494 2.86687C21.7553 1.64219 20.4038 0.749205 18.8781 0.309112C17.3525 -0.130982 15.7267 -0.0968726 14.2213 0.40681C14.0529 0.463871 13.87 0.463871 13.7015 0.40681V0.40681C12.1952 -0.0944085 10.5697 -0.128293 9.04338 0.309711C7.51704 0.747715 6.16304 1.63662 5.16336 2.85695C3.9872 4.18241 2.64749 5.35712 1.17554 6.3536V6.3536C0.855946 6.56374 0.586883 6.84051 0.387302 7.16442C0.187721 7.48834 0.0624745 7.85152 0.0203819 8.2284C-0.0216972 8.61289 0.0221587 9.00181 0.148857 9.36774C0.275555 9.73366 0.482009 10.0677 0.753658 10.3462C2.12781 11.7436 3.85331 12.7552 5.7535 13.2775C5.96526 15.7976 6.52196 18.2778 7.40839 20.6502V20.6502C7.89101 21.9874 8.78073 23.1445 9.95553 23.9626C11.1303 24.7807 12.5327 25.2199 13.9702 25.2199C15.4078 25.2199 16.8101 24.7807 17.9849 23.9626C19.1597 23.1445 20.0494 21.9874 20.532 20.6502V20.6502C21.4185 18.2786 21.9752 15.7993 22.1869 13.28C24.0959 12.7716 25.8275 11.7571 27.1943 10.3462C27.4652 10.0677 27.6709 9.73404 27.7972 9.36858C27.9234 9.00312 27.9671 8.61479 27.9251 8.23088ZM7.71225 4.9723C9.11853 3.49676 10.9567 2.9487 12.6292 3.50916C13.0588 3.6518 13.5094 3.72303 13.9627 3.71995C14.412 3.72034 14.8583 3.64744 15.2836 3.5042C16.8807 2.97102 18.7993 3.54636 20.2081 4.9723L24.0879 8.89302C23.5153 9.28449 22.9036 9.61689 22.2623 9.88498C22.2415 9.36825 22.1112 8.86157 21.8798 8.39768C21.6483 7.93378 21.321 7.52298 20.9188 7.19181C20.0147 6.44519 18.9073 5.97907 17.7359 5.852C16.5644 5.72493 15.381 5.94257 14.3343 6.4776C14.2218 6.53501 14.0969 6.56497 13.9702 6.56497C13.8435 6.56497 13.7187 6.53501 13.6061 6.4776V6.4776C12.5605 5.94535 11.3792 5.72923 10.2099 5.85626C9.0406 5.98329 7.93515 6.44782 7.03171 7.19181C6.62935 7.52372 6.30158 7.93491 6.06937 8.39909C5.83716 8.86327 5.70562 9.3702 5.68318 9.88746C5.03606 9.61987 4.41842 9.28748 3.83995 8.8955L7.71225 4.9723ZM13.9526 23.9931C12.7728 23.9939 11.6218 23.6332 10.6584 22.9607C9.69494 22.2883 8.96652 21.3371 8.5736 20.2385C7.34313 16.9477 6.7808 13.4498 6.9187 9.94449C6.93279 9.59744 7.02054 9.25718 7.17627 8.94574C7.33201 8.63431 7.55225 8.35866 7.82274 8.13665C8.53977 7.54592 9.41732 7.17719 10.3455 7.07662C11.2738 6.97604 12.2114 7.14809 13.0411 7.57123V7.57123C13.3286 7.71984 13.6482 7.79747 13.9727 7.79747C14.2972 7.79747 14.6169 7.71984 14.9044 7.57123C15.7353 7.14715 16.6745 6.97482 17.6042 7.07585C18.5338 7.17688 19.4126 7.54677 20.1302 8.13913C20.3955 8.359 20.6119 8.63068 20.7658 8.9371C20.9196 9.24353 21.0076 9.57807 21.0242 9.91969C21.1636 13.4268 20.6012 16.9265 19.3693 20.2187V20.2187C18.9744 21.325 18.2409 22.2826 17.2704 22.9588C16.2999 23.6351 15.1404 23.9966 13.9526 23.9931V23.9931ZM22.2824 11.0208C23.3487 10.6263 24.3479 10.0735 25.2456 9.38156V9.38156L25.2682 9.36172L25.2883 9.34436L25.3134 9.31708C25.3141 9.31215 25.3141 9.30713 25.3134 9.3022L25.336 9.27492V9.25508L25.3511 9.23028V9.20548V9.18316C25.3525 9.17413 25.3525 9.16493 25.3511 9.15589C25.3511 9.15589 25.3511 9.15589 25.3511 9.13605C25.3521 9.12616 25.3521 9.11618 25.3511 9.10629C25.3496 9.09975 25.3496 9.09299 25.3511 9.08645C25.3511 9.08645 25.3511 9.06661 25.3511 9.05669C25.3511 9.04677 25.3511 9.04181 25.3511 9.03437C25.3523 9.02615 25.3523 9.01779 25.3511 9.00957C25.3498 9.00052 25.3498 8.99135 25.3511 8.98229C25.3511 8.98229 25.3511 8.96741 25.3511 8.95997V8.92774C25.3511 8.92774 25.3511 8.91534 25.3511 8.9079C25.3511 8.90046 25.3511 8.88806 25.3511 8.87814C25.3522 8.87074 25.3522 8.86321 25.3511 8.85582C25.3523 8.84593 25.3523 8.83594 25.3511 8.82606V8.80374C25.3521 8.7955 25.3521 8.78718 25.3511 8.77894C25.3524 8.7699 25.3524 8.76071 25.3511 8.75166V8.72934L25.3335 8.69959V8.68471C25.3277 8.67423 25.321 8.66427 25.3134 8.65495C25.3127 8.65001 25.3127 8.645 25.3134 8.64007L25.2958 8.61775L25.2782 8.59791L20.9866 4.21593C20.2286 3.4331 19.2892 2.84413 18.2493 2.49984C17.1769 2.13709 16.0138 2.13013 14.937 2.48C14.3039 2.68964 13.6189 2.68964 12.9858 2.48V2.48C11.924 2.12721 10.7758 2.11852 9.70867 2.4552C8.65088 2.79982 7.69995 3.40594 6.94633 4.21593V4.21593L2.62452 8.58551L2.60694 8.60535L2.58936 8.62767V8.64255L2.56676 8.67231C2.56748 8.67724 2.56748 8.68225 2.56676 8.68719L2.54918 8.71694V8.73926C2.5478 8.74831 2.5478 8.7575 2.54918 8.76654C2.55018 8.77478 2.55018 8.7831 2.54918 8.79134V8.81366C2.54918 8.81366 2.54918 8.8335 2.54918 8.84342C2.548 8.85081 2.548 8.85834 2.54918 8.86574C2.54918 8.86574 2.54918 8.88558 2.54918 8.8955C2.54918 8.90542 2.54918 8.8955 2.54918 8.91534V8.9451C2.54792 8.95248 2.54792 8.96003 2.54918 8.96741V8.99469C2.54918 8.99469 2.54918 9.01205 2.54918 9.01949C2.54918 9.02693 2.54918 9.03437 2.54918 9.04181C2.55039 9.05169 2.55039 9.06169 2.54918 9.07157V9.09141C2.54804 9.1013 2.54804 9.11128 2.54918 9.12117V9.14101C2.53348 9.14873 2.52039 9.16079 2.51151 9.17573V9.19804V9.22284L2.52658 9.24764L2.53914 9.26748L2.56174 9.29476V9.30964L2.58685 9.33692L2.60694 9.35428L2.62954 9.37412C3.53336 10.0683 4.53834 10.6235 5.61036 11.0208C5.61036 11.3382 5.61036 11.6531 5.62794 11.9706C4.09655 11.4815 2.70944 10.6301 1.58738 9.49067C1.45384 9.33782 1.35512 9.1584 1.29793 8.96458C1.24074 8.77075 1.22641 8.56705 1.2559 8.36728C1.27772 8.16728 1.34422 7.97455 1.45062 7.80301C1.55702 7.63147 1.70065 7.48539 1.87115 7.37532V7.37532C3.4307 6.31515 4.8497 5.06632 6.09502 3.65795C6.09575 3.65302 6.09575 3.64801 6.09502 3.64308V3.64308C6.93594 2.60694 8.07952 1.85164 9.37035 1.47983C10.6612 1.10801 12.0366 1.13772 13.3098 1.56492V1.56492C13.5225 1.63605 13.7456 1.67208 13.9702 1.67156C14.194 1.67186 14.4162 1.63583 14.6282 1.56492C15.8942 1.14441 17.2604 1.11748 18.5424 1.48775C19.8244 1.85803 20.9606 2.6077 21.7977 3.63564V3.63564V3.64804C23.041 5.04512 24.4556 6.28386 26.009 7.33564L26.0341 7.353C26.2074 7.46174 26.3541 7.60714 26.4635 7.77869C26.5729 7.95024 26.6424 8.14366 26.6669 8.34496C26.6899 8.54952 26.6671 8.75655 26.6003 8.95149C26.5335 9.14644 26.4242 9.32456 26.2802 9.47331C25.1637 10.6196 23.7748 11.4721 22.2397 11.9532C22.2748 11.6556 22.2824 11.3432 22.2824 11.0208Z" fill="#FEFAEF"/>
<path d="M13.9625 9.38147C13.8339 9.38147 13.7107 9.43189 13.6198 9.52165C13.5289 9.61141 13.4778 9.73315 13.4778 9.86009V15.5862C13.473 15.6518 13.482 15.7176 13.5041 15.7796C13.5262 15.8416 13.561 15.8985 13.6064 15.9466C13.6518 15.9948 13.7067 16.0332 13.7677 16.0594C13.8288 16.0857 13.8946 16.0992 13.9612 16.0992C14.0278 16.0992 14.0937 16.0857 14.1547 16.0594C14.2158 16.0332 14.2707 15.9948 14.3161 15.9466C14.3614 15.8985 14.3962 15.8416 14.4184 15.7796C14.4405 15.7176 14.4494 15.6518 14.4446 15.5862V9.86009C14.4446 9.73358 14.3939 9.61222 14.3036 9.52253C14.2132 9.43284 14.0906 9.38213 13.9625 9.38147V9.38147Z" fill="#FEFAEF"/>
<path d="M13.9624 17.1956C13.8989 17.1952 13.836 17.2073 13.7772 17.2311C13.7184 17.2549 13.6649 17.2899 13.6199 17.3341C13.5749 17.3784 13.5391 17.431 13.5147 17.4889C13.4903 17.5468 13.4778 17.609 13.4778 17.6717V19.4076C13.4866 19.5283 13.5414 19.6412 13.631 19.7236C13.7207 19.806 13.8387 19.8518 13.9612 19.8518C14.0837 19.8518 14.2017 19.806 14.2913 19.7236C14.381 19.6412 14.4358 19.5283 14.4446 19.4076V17.6717C14.4446 17.5454 14.3938 17.4243 14.3034 17.335C14.213 17.2457 14.0903 17.1956 13.9624 17.1956Z" fill="#FEFAEF"/>
</g>
<defs>
<clipPath id="clip0_32_70">
<rect width="27.9398" height="25.2181" fill="white"/>
</clipPath>
</defs>
</svg>
