<svg width="28" height="24" viewBox="0 0 28 24" fill="none" xmlns="http://www.w3.org/2000/svg">
<g clip-path="url(#clip0_32_153)">
<path d="M13.9937 7.01465C13.9301 7.01432 13.867 7.02652 13.8081 7.05055C13.7493 7.07457 13.6957 7.10995 13.6506 7.15465C13.6055 7.19935 13.5697 7.25248 13.5453 7.311C13.5209 7.36953 13.5083 7.43228 13.5083 7.49566V16.0735C13.5083 16.2018 13.5594 16.3247 13.6505 16.4154C13.7415 16.5061 13.865 16.557 13.9937 16.557C14.1224 16.557 14.2459 16.5061 14.3369 16.4154C14.428 16.3247 14.4791 16.2018 14.4791 16.0735V7.48564C14.4758 7.35959 14.4232 7.2398 14.3326 7.15181C14.2419 7.06383 14.1203 7.01461 13.9937 7.01465Z" fill="#692300"/>
<path d="M13.9937 17.3461C13.9299 17.3457 13.8666 17.358 13.8076 17.3822C13.7485 17.4064 13.6949 17.442 13.6497 17.487C13.6046 17.5319 13.5689 17.5853 13.5446 17.6442C13.5203 17.703 13.508 17.766 13.5083 17.8296V19.0647C13.5083 19.1929 13.5594 19.3159 13.6505 19.4065C13.7415 19.4972 13.865 19.5482 13.9937 19.5482C14.1224 19.5482 14.2459 19.4972 14.3369 19.4065C14.428 19.3159 14.4791 19.1929 14.4791 19.0647V17.8296C14.4791 17.7661 14.4666 17.7032 14.4422 17.6446C14.4178 17.5859 14.382 17.5326 14.3369 17.4877C14.2919 17.4428 14.2384 17.4072 14.1795 17.3829C14.1206 17.3586 14.0575 17.3461 13.9937 17.3461Z" fill="#692300"/>
<path d="M15.8448 6.09772H15.8725L16.6723 5.98248H16.7L17.4872 5.82214C17.5494 5.80948 17.6086 5.78472 17.6612 5.74929C17.7139 5.71385 17.759 5.66844 17.794 5.61563C17.8291 5.56282 17.8533 5.50366 17.8654 5.44152C17.8775 5.37938 17.8771 5.31547 17.8644 5.25346C17.8517 5.19145 17.8269 5.13253 17.7913 5.08009C17.7557 5.02764 17.7101 4.98269 17.6571 4.94779C17.6041 4.9129 17.5447 4.88874 17.4823 4.87671C17.4199 4.86468 17.3558 4.86501 17.2935 4.87768L16.5189 5.03551L15.7468 5.14574L14.9746 5.21338L14.2025 5.23592L13.4203 5.21338L12.6482 5.14574L11.8937 5.03551L11.1191 4.87768C11.0568 4.86485 10.9926 4.86436 10.9302 4.87623C10.8677 4.88811 10.8083 4.91213 10.7551 4.9469C10.6478 5.01714 10.5729 5.12696 10.5469 5.25221C10.5209 5.37745 10.5459 5.50786 10.6164 5.61474C10.6869 5.72163 10.7972 5.79623 10.9229 5.82214L11.7126 5.98248H11.7403L12.5275 6.09772H12.5552L13.355 6.16536H13.3826L14.195 6.18791H14.2226L15.0224 6.16536H15.0501L15.8448 6.09772Z" fill="#692300"/>
<path d="M27.175 8.28727C27.8815 7.06788 28.1439 5.64303 27.918 4.25326C27.6922 2.86348 26.9918 1.59391 25.9351 0.658875V0.658875C25.6791 0.431891 25.3807 0.257492 25.0568 0.145688C24.733 0.0338836 24.3902 -0.0131258 24.0481 0.00735728C23.706 0.0278404 23.3714 0.115413 23.0633 0.265049C22.7553 0.414686 22.4799 0.62344 22.2531 0.879334C21.8013 1.38935 21.2266 1.77645 20.5831 2.00418V2.00418C20.3112 2.09991 20.0127 2.08643 19.7506 1.9666C17.9548 1.11014 15.9898 0.663386 13.9987 0.658875V0.658875C12.0082 0.661039 10.0432 1.10522 8.24679 1.95908V1.95908C7.98575 2.08138 7.68713 2.09756 7.41431 2.00418V2.00418C6.77051 1.77694 6.19507 1.39079 5.74181 0.88184V0.88184C5.51511 0.625992 5.24002 0.417139 4.93227 0.267212C4.62452 0.117284 4.29013 0.0292201 3.94821 0.00804956C3.60628 -0.013121 3.26352 0.0330168 2.93949 0.143828C2.61547 0.254638 2.31654 0.427951 2.05978 0.653865V0.653865C1.00148 1.58803 0.300655 2.85846 0.0764451 4.24916C-0.147765 5.63987 0.118482 7.06499 0.829922 8.28226V8.28226L0.857587 8.32484V8.33988C0.963278 8.48058 1.10026 8.59497 1.25779 8.67407C1.41532 8.75318 1.58911 8.79486 1.76552 8.79583V8.79583C1.95598 8.79603 2.14321 8.74681 2.30877 8.65303C2.53356 9.07362 2.862 9.43039 3.26323 9.68982C3.66446 9.94925 4.12531 10.1028 4.60249 10.1361C4.67538 10.1399 4.74841 10.1399 4.8213 10.1361C5.34087 10.1385 5.85093 9.99739 6.29489 9.72852C6.73885 9.45965 7.09933 9.07351 7.33634 8.61295C7.48257 8.63788 7.63064 8.65045 7.77899 8.65052C8.0064 8.65091 8.23292 8.62228 8.45303 8.56535C8.86955 9.46899 9.39123 10.3208 10.0073 11.1031V11.1031C10.2382 11.3997 10.3792 11.7557 10.414 12.1294C10.4487 12.503 10.3757 12.8788 10.2035 13.2125C9.5345 14.5102 9.44898 16.1161 9.97211 17.7344L11.7679 23.529V23.5491V23.5791V23.6017L11.7829 23.6317C11.7829 23.6317 11.7829 23.6317 11.7829 23.6518L11.8056 23.6843V23.6969L11.8408 23.742C11.8512 23.7549 11.863 23.7666 11.876 23.777V23.7896L11.9112 23.8171L11.9364 23.8347H11.954H11.9766H11.9992H12.0143L12.0445 23.8497L12.0797 23.8647H12.125H12.1677C12.2004 23.8672 12.2332 23.8672 12.2658 23.8647H12.3287H12.3916H12.4369H12.4645C12.4769 23.8612 12.4887 23.8562 12.4997 23.8497C12.5081 23.851 12.5166 23.851 12.5249 23.8497C12.5373 23.8454 12.5492 23.8395 12.5601 23.8321L12.5827 23.8171C12.5954 23.8102 12.6073 23.8018 12.6179 23.7921L12.6355 23.7795C12.6705 23.7502 12.7025 23.7174 12.7311 23.6818V23.6818C12.8606 23.5092 13.0287 23.369 13.2222 23.2725C13.4156 23.1759 13.6289 23.1257 13.8453 23.1257C14.0616 23.1257 14.275 23.1759 14.4684 23.2725C14.6618 23.369 14.83 23.5092 14.9594 23.6818V23.6818C14.9665 23.6922 14.9749 23.7015 14.9846 23.7094L14.9997 23.7269C15.0083 23.7367 15.0175 23.7459 15.0274 23.7545L15.045 23.7695L15.0701 23.7896L15.0927 23.8071L15.1179 23.8221L15.1456 23.8397H15.1657L15.2009 23.8572H15.221L15.2587 23.8697H15.2965C15.314 23.8709 15.3317 23.8709 15.3493 23.8697H15.475H15.5304H15.5832H15.6033H15.6335H15.6586H15.6863H15.7089L15.7567 23.8422L15.7995 23.8121L15.8322 23.7845V23.772L15.8649 23.7369L15.8976 23.6919V23.6793C15.9057 23.6685 15.9125 23.6567 15.9177 23.6443C15.9185 23.6384 15.9185 23.6325 15.9177 23.6267C15.9245 23.6173 15.9304 23.6072 15.9353 23.5967V23.5741C15.9363 23.5641 15.9363 23.554 15.9353 23.544V23.5215L17.721 17.7294C18.2592 16.1136 18.1837 14.5027 17.5097 13.195C17.3351 12.8647 17.2604 12.491 17.2948 12.1192C17.3292 11.7474 17.4711 11.3936 17.7034 11.1006V11.1006C18.3206 10.3172 18.8423 9.46366 19.2577 8.55783C19.4721 8.61287 19.6927 8.64065 19.9141 8.6405C20.1494 8.67244 20.3878 8.67329 20.6233 8.64301C20.861 9.10341 21.2215 9.48964 21.6652 9.75924C22.1089 10.0288 22.6186 10.1714 23.1384 10.1712C23.2113 10.1749 23.2843 10.1749 23.3572 10.1712C23.8357 10.1368 24.2975 9.98175 24.6992 9.72054C25.1009 9.45933 25.4293 9.10059 25.6534 8.67808C25.8233 8.77024 26.0133 8.81929 26.2067 8.82088C26.3824 8.81944 26.5555 8.7778 26.7124 8.69918C26.8694 8.62055 27.0062 8.50705 27.1121 8.36743V8.3524V8.33988L27.1373 8.29729L27.175 8.28727ZM4.72321 8.93111C4.42856 8.90934 4.14578 8.80646 3.90641 8.63394C3.66704 8.46142 3.4805 8.22604 3.3676 7.95407C3.60718 7.89722 3.83128 7.78861 4.02403 7.63591C4.16592 7.52118 4.27796 7.37407 4.35063 7.20704C4.42331 7.04001 4.45449 6.85799 4.44153 6.67641C4.44153 6.64885 4.44153 6.6213 4.44153 6.59374C4.49101 6.60157 4.53978 6.6133 4.5874 6.62881V6.62881C4.63907 6.64513 4.68406 6.67765 4.71567 6.7215V6.7215C5.11391 7.30535 5.62735 7.8023 6.22469 8.18205C6.07157 8.43595 5.84908 8.64122 5.5832 8.77386C5.31733 8.9065 5.01905 8.96104 4.72321 8.93111V8.93111ZM7.56521 7.42798C6.90879 7.26514 6.23727 6.76409 5.71666 6.01253C5.5309 5.75196 5.26661 5.55715 4.96214 5.45637V5.45637C4.50196 5.30666 4.00498 5.31283 3.54869 5.47391C3.44501 5.33233 3.37923 5.1668 3.35754 4.9929C3.33797 4.83062 3.35565 4.66602 3.40924 4.51153C3.46282 4.35704 3.55092 4.21669 3.66689 4.10105V4.10105C3.771 4.00224 3.90733 3.94407 4.05096 3.93717C4.19458 3.93027 4.3359 3.9751 4.44907 4.06347V4.06347C5.09254 4.5372 5.77484 4.95621 6.48877 5.31608C6.60195 5.3737 6.71764 5.42631 6.82831 5.47892L7.00939 5.5666H7.02196H7.03454C7.1909 5.63147 7.32986 5.73185 7.44034 5.85973C7.55082 5.98762 7.62976 6.13946 7.67085 6.30313V6.30313C7.7639 6.67391 7.87205 7.0547 8.00032 7.40793C7.85732 7.43798 7.71038 7.44474 7.56521 7.42798V7.42798ZM13.9987 21.9582C13.5472 21.9595 13.1036 22.0769 12.711 22.299L11.202 17.3937C10.7794 16.086 10.8323 14.8134 11.3504 13.8088C11.6286 13.2644 11.7449 12.6521 11.6857 12.0441C11.6264 11.4361 11.394 10.8575 11.0159 10.3766V10.3766C10.008 9.09494 9.2837 7.61537 8.89064 6.03507V6.03507C8.80537 5.69085 8.6417 5.37079 8.41229 5.09971C8.18288 4.82862 7.8939 4.61377 7.56773 4.47182L7.37659 4.38163L7.05969 4.22881C6.4062 3.89433 5.78123 3.50724 5.19101 3.0714V3.0714C4.84056 2.80643 4.40614 2.67582 3.96704 2.70342C3.52794 2.73101 3.11344 2.91497 2.7992 3.22171V3.22171C2.56275 3.4549 2.37976 3.73628 2.26277 4.04655C2.14579 4.35682 2.09759 4.68863 2.12148 5.01921C2.14537 5.34978 2.24079 5.67129 2.40119 5.96167C2.56159 6.25205 2.78316 6.50442 3.05071 6.70146L3.09346 6.73153L3.11358 6.74656C3.09509 6.75421 3.07562 6.75927 3.05574 6.76159L2.91741 6.78413C2.72499 6.81676 2.54009 6.88381 2.37164 6.98205C2.33043 7.0018 2.29162 7.02618 2.25595 7.0547C2.09956 7.15985 1.96186 7.29024 1.84852 7.4405V7.4405L1.80576 7.49061C1.29689 6.52685 1.12642 5.42119 1.3215 4.34974C1.51657 3.27829 2.06598 2.30268 2.8822 1.57829C3.01662 1.45952 3.17321 1.36828 3.34303 1.30979C3.51285 1.2513 3.69257 1.2267 3.87194 1.2374C4.0513 1.2481 4.22679 1.29389 4.38839 1.37216C4.54999 1.45042 4.69453 1.55962 4.81375 1.69353V1.69353C5.406 2.35902 6.15794 2.86411 6.99933 3.16159V3.16159C7.24951 3.25058 7.51334 3.29551 7.77899 3.29437C8.11842 3.2953 8.45398 3.22264 8.76238 3.08142C10.3915 2.29795 12.1771 1.89103 13.9861 1.89103C15.7951 1.89103 17.5808 2.29795 19.2099 3.08142V3.08142C19.5191 3.22284 19.8555 3.2955 20.1958 3.29437C20.4606 3.29574 20.7237 3.2508 20.9729 3.16159V3.16159C21.8149 2.86519 22.5678 2.36096 23.161 1.69604C23.2795 1.56141 23.4237 1.45157 23.5852 1.37287C23.7466 1.29417 23.9222 1.24819 24.1016 1.23758C24.4636 1.21806 24.8187 1.34137 25.0901 1.5808V1.5808C25.9088 2.30502 26.4603 3.28171 26.6564 4.35481C26.8524 5.42792 26.6817 6.53552 26.1715 7.50063L26.1439 7.46305C26.0305 7.30543 25.891 7.16819 25.7314 7.0572C25.6962 7.02926 25.6583 7.00492 25.6182 6.98455C25.4496 6.88671 25.2648 6.81969 25.0724 6.78664V6.78664L24.9542 6.76409H24.9039C25.1813 6.57012 25.4125 6.31788 25.5814 6.02518C25.7502 5.73248 25.8525 5.40645 25.881 5.07008C25.9096 4.73371 25.8637 4.3952 25.7465 4.07843C25.6294 3.76166 25.444 3.47434 25.2032 3.23675V3.23675C24.889 2.93 24.4745 2.74604 24.0354 2.71845C23.5963 2.69085 23.1619 2.82146 22.8114 3.08643V3.08643L22.7485 3.13153C22.6002 3.23925 22.4618 3.33946 22.3185 3.43716C21.7186 3.83339 21.0898 4.18427 20.4372 4.48685V4.48685C20.114 4.62989 19.8273 4.84355 19.5983 5.11199C19.3693 5.38044 19.2039 5.69679 19.1143 6.03758V6.03758C18.7298 7.61857 18.0094 9.09904 17.0017 10.3791C16.6264 10.8598 16.3967 11.4372 16.3397 12.0434C16.2826 12.6497 16.4006 13.2595 16.6797 13.8013C17.2029 14.8033 17.2507 16.0885 16.813 17.3912V17.4063L15.2864 22.2964C14.8922 22.0798 14.449 21.9668 13.9987 21.9683V21.9582ZM20.3064 6.3332C20.3482 6.1669 20.4281 6.0125 20.5398 5.88211C20.6515 5.75171 20.792 5.64887 20.9503 5.58163V5.58163C21.6607 5.25193 22.3451 4.86922 22.9975 4.43674C23.151 4.33153 23.3019 4.2213 23.4477 4.11608L23.5106 4.07098C23.6234 3.9828 23.7643 3.93806 23.9075 3.94497C24.0507 3.95187 24.1866 4.00995 24.2903 4.10856C24.4139 4.21829 24.5104 4.35494 24.5723 4.50789C24.6343 4.66083 24.66 4.82595 24.6474 4.9904C24.6269 5.16452 24.5629 5.33075 24.4613 5.47391C24.0046 5.31088 23.5065 5.30383 23.0453 5.45386V5.45386C22.7389 5.55087 22.4735 5.7465 22.2908 6.01002C21.9186 6.53862 21.2848 7.21002 20.4372 7.41796C20.2864 7.44716 20.1317 7.45139 19.9795 7.43048C20.1052 7.07223 20.2134 6.70647 20.3064 6.3332ZM23.2742 8.93111C22.9813 8.95442 22.6877 8.89655 22.4258 8.76391C22.1639 8.63126 21.9439 8.42901 21.7903 8.17954C22.3898 7.80144 22.9037 7.30319 23.2993 6.71649V6.71649C23.3277 6.6747 23.368 6.6424 23.415 6.6238V6.6238C23.467 6.60855 23.5199 6.59683 23.5735 6.58873C23.5735 6.61628 23.5735 6.64384 23.5735 6.6714C23.5609 6.8533 23.5923 7.03555 23.6649 7.20291C23.7376 7.37027 23.8494 7.51788 23.991 7.6334V7.6334C24.1767 7.78523 24.3941 7.89391 24.6273 7.95157C24.5152 8.22381 24.3293 8.45962 24.0903 8.63261C23.8513 8.8056 23.5688 8.90896 23.2742 8.93111V8.93111Z" fill="#692300"/>
</g>
<defs>
<clipPath id="clip0_32_153">
<rect width="28" height="24" fill="white"/>
</clipPath>
</defs>
</svg>
