<svg width="190" height="558" viewBox="0 0 190 558" fill="none" xmlns="http://www.w3.org/2000/svg">
<path d="M105.238 554.979C105.213 551.129 103.597 547.447 100.746 544.74C97.8948 542.033 94.0412 540.524 90.0319 540.545L77.8066 540.621V530.312L51.9131 530.465L52.0558 552.939V556.441H55.7028L77.9018 556.304L105.238 556.152V554.979Z" fill="#39374A"/>
<path d="M105.291 553.42L52.0457 553.741L52.0703 557.502L105.315 557.181L105.291 553.42Z" fill="#F5EFE7"/>
<path d="M180.413 554.979C180.388 551.129 178.772 547.447 175.921 544.74C173.07 542.033 169.216 540.524 165.207 540.545L152.982 540.621V530.312L127.088 530.465L127.231 552.939V556.426H130.878L153.077 556.289L180.413 556.137V554.979Z" fill="#39374A"/>
<path d="M180.464 553.423L127.219 553.745L127.244 557.506L180.489 557.184L180.464 553.423Z" fill="#F5EFE7"/>
<path d="M167.094 535.444L157.723 285.682V265.675H43.9534V282.652V290.677V535.139H95.8673L103.225 322.988L118.241 534.85L167.094 535.444Z" fill="#39374A"/>
<path d="M158.738 296.082C157.288 298.56 156.637 301.395 156.867 304.228C154.773 307.274 152.268 310.167 150.112 313.227C149.854 313.525 149.699 313.892 149.668 314.278C149.686 314.493 149.752 314.703 149.862 314.892C149.971 315.081 150.121 315.245 150.302 315.374C151.208 316.131 152.368 316.547 153.568 316.547C154.769 316.547 155.929 316.131 156.835 315.374C157.961 314.496 158.954 313.471 159.784 312.329C160.244 311.735 162.083 309.847 162.052 309.116C162.052 309.116 162.733 312.71 158.452 330.068C157.739 332.946 163.035 334.133 163.035 334.133C176.703 340.757 183.109 306.238 183.109 306.238L185.281 294.057L158.738 296.082Z" fill="#FEC5A7"/>
<path d="M178.986 147.548C178.415 112.45 160.577 98.3505 129.831 96.7061C128.8 96.5995 75.9192 96.3254 73.0809 96.3254C70.2502 96.3186 67.4219 96.4865 64.6136 96.8279C35.1999 99.1423 24.9725 113.212 17.7419 144.365L48.6144 166.505L38.5773 285.85C38.5029 286.757 38.6248 287.669 38.9354 288.529C39.2459 289.389 39.7384 290.177 40.3819 290.845C41.0253 291.513 41.8057 292.046 42.674 292.41C43.5423 292.774 44.4798 292.962 45.4273 292.961H155.629C155.947 292.964 156.262 292.904 156.555 292.784C156.847 292.665 157.111 292.489 157.329 292.268C157.548 292.046 157.717 291.784 157.826 291.497C157.934 291.211 157.98 290.905 157.96 290.601L157.596 283.977L158.531 296.159H158.737L185.281 294.255L189.689 293.936L178.986 147.548Z" fill="#39374A"/>
<path d="M157.961 290.601L155.615 173.144L149.986 210.814C149.898 211.398 150.051 211.992 150.413 212.47C150.774 212.947 151.315 213.271 151.92 213.372V213.372C152.45 213.472 152.928 213.742 153.277 214.138C153.626 214.534 153.824 215.031 153.839 215.549L156.519 291.758" fill="#2E2766"/>
<path d="M152.966 151.659H133.24V154.582H152.966V151.659Z" fill="#F5EFE7"/>
<path d="M129.562 286.459L126.216 98.9749C126.216 113.531 114.736 125.454 100.719 125.454C88.7634 125.454 78.6787 116.759 75.9832 105.157L77.0297 287.114L129.562 286.459Z" fill="#DE6A5B"/>
<path d="M129.562 275.709H76.8867V292.961H129.562V275.709Z" fill="#F5EFE7"/>
<path d="M100.719 134.255C114.736 134.255 126.216 125.911 126.216 115.694V96.5842H125.725C114.847 96.5081 85.5923 96.3863 76.0467 96.3406H75.238V115.724C75.2432 117.199 75.4948 118.665 75.9833 120.064C78.6789 128.164 88.827 134.255 100.719 134.255Z" fill="#F5EFE7"/>
<path d="M100.719 124.449C110.503 124.449 118.494 118.267 118.494 110.745V96.5084H118.161C110.566 96.5084 90.1746 96.3561 83.5308 96.3257H82.96V110.7C82.9685 111.788 83.1394 112.87 83.4674 113.912C85.3543 119.927 92.3787 124.449 100.719 124.449Z" fill="#2E2766"/>
<path d="M42.9379 234.4L42.2244 242.896L70.3061 225.447L42.9379 234.4Z" fill="#2E2766"/>
<path d="M50.7722 188.812L73.4627 181.777L46.1421 196.182L48.3937 169.794L54.2606 160.81L49.2817 187.594C49.2541 187.78 49.2759 187.969 49.3451 188.144C49.4143 188.32 49.5286 188.476 49.6774 188.597C49.8262 188.719 50.0046 188.802 50.196 188.84C50.3874 188.877 50.5856 188.868 50.7722 188.812Z" fill="#2E2766"/>
<path d="M123.093 186.481V185.887C123.074 185.427 122.962 184.975 122.761 184.557C122.561 184.139 122.276 183.763 121.924 183.45C121.572 183.138 121.16 182.895 120.71 182.736C120.26 182.577 119.782 182.504 119.303 182.522L114.99 182.675L118.161 182.553C118.597 182.535 119.024 182.435 119.419 182.259C119.814 182.083 120.169 181.833 120.464 181.525C120.758 181.216 120.987 180.855 121.136 180.462C121.285 180.069 121.352 179.651 121.333 179.233C121.292 178.178 120.826 177.179 120.033 176.446C119.241 175.713 118.183 175.304 117.083 175.305C113.946 175.285 110.823 175.695 107.807 176.523C101.591 178.35 100.117 177.056 100.117 177.056C100.117 177.056 98.8165 177.056 96.7235 170.341C94.6304 163.626 85.291 165.21 87.9707 169.412C88.7556 170.675 89.242 172.088 89.3954 173.55C89.5489 175.013 89.3656 176.491 88.8587 177.878L87.7646 180.634L87.4316 181.426L77.3311 185.324L85.2593 212.991L112.215 203.063C112.798 203.043 113.37 202.913 113.9 202.681C114.43 202.448 114.907 202.117 115.304 201.706C115.7 201.296 116.008 200.815 116.21 200.29C116.412 199.765 116.504 199.207 116.481 198.647C116.468 198.319 116.321 198.008 116.072 197.783C115.823 197.558 115.491 197.436 115.149 197.444H113.928L117.099 197.338C118.181 197.326 119.214 196.902 119.972 196.16C120.73 195.418 121.151 194.418 121.142 193.379V192.937C121.13 192.553 121.038 192.175 120.871 191.826C120.704 191.477 120.465 191.164 120.169 190.906C119.873 190.647 119.526 190.448 119.148 190.321C118.771 190.194 118.37 190.141 117.971 190.166L113.579 190.318L119.62 190.105C120.098 190.092 120.568 189.987 121.002 189.796C121.437 189.605 121.828 189.333 122.151 188.996C122.475 188.658 122.725 188.262 122.887 187.83C123.048 187.398 123.118 186.939 123.093 186.481V186.481Z" fill="#FEC5A7"/>
<path opacity="0.57" d="M113.547 183.543C113.337 183.543 113.135 183.462 112.986 183.32C112.838 183.177 112.754 182.983 112.754 182.781C112.754 182.579 112.838 182.386 112.986 182.243C113.135 182.1 113.337 182.02 113.547 182.02L119.287 181.822C119.497 181.822 119.699 181.902 119.848 182.045C119.996 182.188 120.08 182.381 120.08 182.583C120.08 182.785 119.996 182.979 119.848 183.122C119.699 183.264 119.497 183.345 119.287 183.345L113.531 183.543H113.547Z" fill="#EF7460"/>
<path opacity="0.57" d="M119.605 190.943L112.342 190.837C112.238 190.835 112.136 190.813 112.04 190.773C111.945 190.733 111.858 190.675 111.786 190.603C111.714 190.531 111.658 190.446 111.62 190.353C111.582 190.259 111.563 190.16 111.565 190.06C111.573 189.862 111.66 189.674 111.807 189.536C111.955 189.397 112.152 189.318 112.358 189.314L119.62 189.421C119.831 189.421 120.032 189.501 120.181 189.644C120.33 189.786 120.413 189.98 120.413 190.182C120.413 190.384 120.33 190.577 120.181 190.72C120.032 190.863 119.831 190.943 119.62 190.943H119.605Z" fill="#EF7460"/>
<path opacity="0.57" d="M110.724 198.176C110.514 198.176 110.313 198.096 110.164 197.953C110.015 197.81 109.932 197.617 109.932 197.415C109.932 197.213 110.015 197.019 110.164 196.876C110.313 196.734 110.514 196.653 110.724 196.653L116.116 196.471C116.22 196.467 116.324 196.482 116.422 196.517C116.519 196.551 116.609 196.604 116.686 196.672C116.762 196.74 116.824 196.821 116.868 196.912C116.912 197.003 116.936 197.101 116.94 197.201C116.944 197.301 116.928 197.401 116.892 197.495C116.856 197.589 116.801 197.675 116.731 197.749C116.66 197.822 116.575 197.882 116.48 197.924C116.386 197.966 116.283 197.989 116.179 197.993L110.772 198.176H110.724Z" fill="#EF7460"/>
<path d="M28.5723 241.8C21.8858 241.853 15.4003 239.606 10.2899 235.465C0.522298 227.532 -2.53799 214.468 2.17137 201.175L20.4697 134.529C21.1393 132.085 22.3094 129.793 23.9117 127.789C25.5139 125.784 27.5162 124.106 29.8015 122.853C32.0867 121.6 34.6092 120.796 37.2214 120.49C39.8336 120.184 42.4833 120.38 45.0155 121.068C50.0751 122.532 54.3384 125.837 56.8951 130.278C59.4518 134.719 60.0994 139.944 58.6996 144.837L53.6414 163.307L44.9203 195.115L73.4619 181.807C73.9311 181.585 74.4469 181.469 74.9699 181.467C75.4929 181.465 76.0095 181.578 76.4804 181.797C76.9512 182.016 77.3639 182.335 77.6871 182.729C78.0104 183.124 78.2356 183.585 78.3457 184.076L86.1153 217.818L45.5229 237.399C40.3507 240.218 34.519 241.732 28.5723 241.8Z" fill="#39374A"/>
<path d="M145.593 22.3243C144.82 20.4858 143.512 18.9004 141.824 17.758C140.137 16.6156 138.142 15.9648 136.079 15.8834C132.718 7.61543 126.074 1.2355 115.545 0.154416C114.705 0.00215051 113.849 0.0021505 113.008 0.0021505C106.19 -0.0892088 102.416 2.74293 100.323 6.09277C98.4018 9.01713 95.5323 11.2536 92.1569 12.4575C88.4941 13.7517 84.4982 12.4575 80.7244 13.0208C78.9361 13.3972 77.2519 14.1351 75.7837 15.1853C74.3155 16.2354 73.0971 17.5739 72.2095 19.1115C70.4793 22.2326 69.5805 25.7165 69.5932 29.2523C69.5241 33.0734 70.1299 36.8781 71.385 40.5048C71.7259 41.5541 72.1609 42.573 72.6852 43.5501L74.2709 49.3666C74.6983 50.7434 75.5742 51.9523 76.7701 52.8156C77.966 53.6789 79.4186 54.1512 80.9147 54.163H85.6716C82.895 57.2625 81.0984 61.0593 80.4935 65.1064C79.8886 69.1534 80.5005 73.2822 82.2573 77.0065C84.014 80.7308 86.8424 83.8956 90.4094 86.128C93.9763 88.3605 98.1333 89.5678 102.391 89.6076C106.648 89.6475 110.829 88.5183 114.441 86.353C118.052 84.1878 120.944 81.0766 122.776 77.3859C124.608 73.6952 125.304 69.5786 124.781 65.521C124.259 61.4634 122.54 57.6336 119.826 54.4827L134.319 54.6198C134.319 54.6198 139.948 54.2239 141.566 46.5345C143.183 38.8451 141.724 36.2413 141.724 36.2413C141.724 36.2413 151.048 34.81 145.593 22.3243Z" fill="#2E2766"/>
<path d="M96.7549 29.7549C96.7549 29.7549 96.6756 30.638 96.4695 32.0236C96.2753 34.8179 95.6666 37.5713 94.6618 40.2003C93.0762 45.1946 90.4599 50.0823 86.1945 49.8996C83.8477 50.1889 81.612 49.123 81.4376 46.8543V46.4279H79.5665H78.9957C76.8297 46.6322 74.8362 47.6521 73.4514 49.2644C72.0666 50.8767 71.4032 52.9501 71.6066 55.0309L71.7334 56.2186C71.9462 58.2986 73.0082 60.2129 74.6872 61.5427C76.3662 62.8725 78.5254 63.5094 80.6923 63.3142L83.9746 63.0097L84.0697 65.1109V96.3101C84.0823 99.9732 85.6032 103.483 88.3006 106.073C90.9979 108.663 94.6527 110.124 98.4674 110.136H102.86C104.758 110.146 106.641 109.796 108.398 109.106C110.156 108.416 111.755 107.4 113.103 106.115C114.451 104.831 115.521 103.303 116.253 101.621C116.985 99.9383 117.364 98.1336 117.368 96.3101V87.9507L121.316 87.5853C125.341 87.1884 129.041 85.2845 131.615 82.2862C134.188 79.2879 135.427 75.4367 135.064 71.567L134.81 69.4962L131.005 31.4298C130.656 31.4298 130.323 31.4298 129.974 31.5212C118.954 32.8459 98.6735 35.5714 96.7549 29.7549Z" fill="#FEC5A7"/>
<path opacity="0.15" d="M135.064 71.5669L134.811 69.4961C135.195 73.332 133.978 77.1577 131.427 80.1326C128.876 83.1075 125.2 84.9884 121.206 85.3621L109.853 86.4128C104.206 86.9218 98.5804 85.2601 94.2081 81.7922C89.8357 78.3242 87.0737 73.3329 86.5277 67.9125L86.0203 62.7964L83.9272 62.9943L84.3237 66.9989C84.7934 71.7064 86.7084 76.1739 89.8258 79.8349C88.9944 81.3466 88.5539 83.0283 88.5415 84.7378C88.5415 91.2396 94.884 96.508 102.527 96.508C105.388 96.6063 108.212 95.851 110.608 94.3459C113.004 92.8409 114.857 90.6599 115.91 88.1029L121.253 87.6157C125.296 87.2339 129.017 85.3321 131.604 82.3254C134.192 79.3186 135.436 75.4511 135.064 71.5669Z" fill="#EF7460"/>
<path opacity="0.57" d="M77.7275 57.7112C77.5951 57.7096 77.4651 57.6769 77.349 57.6158C77.2329 57.5547 77.1342 57.4672 77.0615 57.361C76.9482 57.1913 76.9097 56.9854 76.9543 56.7884C76.9988 56.5915 77.1229 56.4196 77.2993 56.3103L79.8522 54.7877L76.9505 51.651C76.8042 51.5061 76.7224 51.3123 76.7224 51.1105C76.7224 50.9087 76.8042 50.7148 76.9505 50.5699C77.0242 50.4986 77.1119 50.4419 77.2085 50.4033C77.3051 50.3646 77.4087 50.3447 77.5134 50.3447C77.6181 50.3447 77.7217 50.3646 77.8183 50.4033C77.9149 50.4419 78.0026 50.4986 78.0763 50.5699L81.5806 54.3766C81.657 54.4584 81.7138 54.5554 81.7467 54.6607C81.7796 54.7659 81.7878 54.8769 81.7708 54.9856C81.7547 55.0929 81.7153 55.1958 81.6552 55.2876C81.5951 55.3793 81.5157 55.458 81.422 55.5186L78.0922 57.5741C77.9844 57.6484 77.859 57.6955 77.7275 57.7112V57.7112Z" fill="#EF7460"/>
<path d="M108.649 62.7041C111.164 64.7031 113.955 66.3582 116.942 67.6223C121.334 69.3429 115.848 75.7533 109.014 73.4997C102.18 71.2462 105.129 61.0596 108.649 62.7041Z" fill="white"/>
<path d="M102.654 44.3423C103.462 44.4405 104.282 44.3783 105.064 44.1595C105.904 43.9464 106.745 43.7637 107.49 43.6418C108.235 43.52 109.076 43.3678 109.948 43.2764C110.761 43.2326 111.555 43.0251 112.279 42.6673C112.865 42.3019 112.976 41.5101 112.057 40.7336C111.278 40.2197 110.395 39.87 109.466 39.7073C108.537 39.5446 107.583 39.5726 106.665 39.7895C105.736 39.9002 104.844 40.2041 104.049 40.6801C103.255 41.1561 102.579 41.7927 102.067 42.5455C101.512 43.5048 101.956 44.1595 102.654 44.3423Z" fill="#39374A"/>
<path d="M133.003 43.0475C132.21 43.2405 131.384 43.2716 130.577 43.1388C129.721 43.1388 128.849 43.0018 128.103 42.9714C127.358 42.9409 126.518 42.9714 125.614 42.9714C124.795 43.0223 123.974 42.9082 123.204 42.6364C122.57 42.3471 122.332 41.5857 123.204 40.6874C123.894 40.073 124.711 39.6039 125.601 39.3102C126.491 39.0165 127.435 38.9047 128.373 38.982C129.292 38.9904 130.199 39.1845 131.035 39.5518C131.871 39.9191 132.617 40.4513 133.225 41.1137C133.986 42.073 133.669 42.8191 133.003 43.0475Z" fill="#39374A"/>
<path opacity="0.57" d="M115.894 58.9745C115.693 58.9746 115.5 58.9002 115.355 58.7668C115.211 58.6334 115.125 58.4514 115.117 58.2588C115.108 58.1596 115.12 58.0597 115.153 57.965C115.185 57.8703 115.236 57.7828 115.304 57.7076C115.372 57.6324 115.455 57.571 115.548 57.5271C115.642 57.4832 115.743 57.4576 115.846 57.4518L118.669 57.2691C119.159 57.2338 119.638 57.1053 120.076 56.891C120.514 56.6766 120.904 56.3807 121.222 56.0205C121.553 55.6465 121.804 55.2129 121.959 54.745C122.114 54.2771 122.171 53.7841 122.125 53.295C122.118 53.1342 122.076 52.9766 122.003 52.8315C121.931 52.6864 121.829 52.5568 121.703 52.4503C121.577 52.3438 121.431 52.2626 121.272 52.2116C121.113 52.1605 120.945 52.1406 120.778 52.153C119.878 52.2073 118.993 51.9174 118.316 51.3468C117.638 50.7761 117.224 49.9711 117.162 49.1077L116.576 42.9409C116.565 42.8408 116.575 42.7397 116.605 42.6433C116.635 42.5469 116.684 42.4571 116.751 42.3793C116.817 42.3014 116.899 42.2369 116.991 42.1896C117.084 42.1422 117.185 42.113 117.289 42.1035C117.393 42.0951 117.498 42.1067 117.598 42.1374C117.697 42.1682 117.79 42.2175 117.869 42.2826C117.949 42.3477 118.014 42.4273 118.062 42.5167C118.109 42.6062 118.138 42.7038 118.146 42.8039L118.764 49.0772C118.78 49.3054 118.843 49.5282 118.949 49.733C119.055 49.9377 119.202 50.1203 119.382 50.2703C119.562 50.4203 119.77 50.5347 119.996 50.6069C120.222 50.6791 120.461 50.7078 120.698 50.6912C121.075 50.6707 121.451 50.7219 121.807 50.8419C122.162 50.9619 122.49 51.1483 122.77 51.3904C123.05 51.6325 123.277 51.9254 123.439 52.2523C123.6 52.5792 123.693 52.9335 123.711 53.295C123.811 54.6642 123.344 56.0158 122.411 57.0559C121.959 57.5714 121.402 57.9937 120.776 58.2972C120.149 58.6008 119.464 58.7794 118.764 58.8222L115.941 59.0201L115.894 58.9745Z" fill="#2E2766"/>
<path d="M128.642 49.747C128.437 49.7423 128.24 49.6666 128.087 49.5339C127.869 49.2883 127.6 49.0895 127.297 48.9505C126.994 48.8114 126.663 48.7352 126.327 48.7269C125.755 48.7979 125.23 49.0689 124.853 49.4882C124.722 49.6477 124.531 49.751 124.322 49.7752C124.112 49.7995 123.901 49.7428 123.735 49.6176C123.569 49.4924 123.461 49.309 123.436 49.1077C123.411 48.9064 123.47 48.7037 123.6 48.5441C124.26 47.7906 125.197 47.3106 126.216 47.2042C126.783 47.1926 127.346 47.3012 127.864 47.5223C128.382 47.7434 128.842 48.0715 129.213 48.4832C129.359 48.6281 129.441 48.822 129.441 49.0238C129.441 49.2256 129.359 49.4194 129.213 49.5643C129.052 49.6895 128.849 49.7545 128.642 49.747Z" fill="#2E2766"/>
<path d="M110.264 50.6917C110.058 50.6929 109.858 50.6164 109.709 50.4785C109.489 50.2298 109.217 50.0271 108.912 49.8831C108.606 49.7391 108.273 49.6567 107.934 49.6411C107.358 49.7132 106.832 49.9904 106.459 50.4176C106.326 50.5722 106.135 50.6701 105.927 50.6901C105.719 50.71 105.511 50.6504 105.349 50.5242C105.269 50.4634 105.202 50.3879 105.152 50.3021C105.102 50.2162 105.07 50.1218 105.058 50.0242C105.046 49.9266 105.055 49.8277 105.083 49.7332C105.111 49.6387 105.158 49.5505 105.222 49.4736C105.546 49.0582 105.966 48.7197 106.447 48.4842C106.929 48.2487 107.461 48.1224 108.001 48.1151C108.542 48.1077 109.077 48.2195 109.566 48.4418C110.054 48.6641 110.483 48.991 110.819 49.3974C110.928 49.5038 111.002 49.6385 111.031 49.7848C111.061 49.9311 111.045 50.0825 110.986 50.2203C110.927 50.3581 110.827 50.4762 110.699 50.56C110.571 50.6438 110.42 50.6896 110.264 50.6917Z" fill="#2E2766"/>
</svg>
