<svg width="57" height="180" viewBox="0 0 57 180" fill="none" xmlns="http://www.w3.org/2000/svg">
<path d="M41.4121 169.975H32.1013V173.583H41.4121V169.975Z" fill="#4E4E4E"/>
<path d="M51.1959 178.125C51.0328 176.876 50.3875 175.725 49.381 174.888C48.3746 174.052 47.0763 173.588 45.7296 173.583H31.9521V179.049H32.101V178.125H51.1959Z" fill="#4E4E4E"/>
<path d="M51.1962 178.125H32.1013V179.059V179.442H51.2387V179.059V178.751V178.125H51.1962Z" fill="#4E4E4E"/>
<path d="M21.8015 169.975H12.4907V173.583H21.8015V169.975Z" fill="#4E4E4E"/>
<path d="M8.19462 173.583C6.84395 173.582 5.53982 174.044 4.5287 174.881C3.51758 175.718 2.86953 176.872 2.70703 178.125H21.8019V173.583H8.19462Z" fill="#4E4E4E"/>
<path d="M2.70685 178.125H2.66431V178.751V179.059V179.442H21.8017V179.059V178.125H2.70685Z" fill="#4E4E4E"/>
<path d="M14.0172 104.892L10.1036 100.683C9.92753 100.46 9.78609 100.216 9.68354 99.9569L11.0289 101.155C11.1665 101.276 11.3298 101.37 11.5084 101.429C11.687 101.488 11.8769 101.511 12.0658 101.498C12.3309 101.478 12.584 101.386 12.7935 101.233C13.0031 101.08 13.1598 100.872 13.2443 100.637C13.3287 100.401 13.3371 100.147 13.2684 99.907C13.1998 99.6669 13.0571 99.4509 12.8581 99.286L11.1671 97.7602C10.2924 96.5499 9.13398 95.542 7.77991 94.813H0.73963L0.792804 95.5833C0.5333 97.9478 0.624559 100.334 1.06399 102.675L1.45748 106.965C1.47384 107.142 1.52955 107.315 1.62109 107.472C1.71263 107.628 1.83799 107.765 1.98923 107.874C2.13796 107.983 2.30933 108.062 2.49243 108.105C2.67552 108.149 2.86633 108.157 3.05271 108.128C3.38769 108.068 3.68747 107.895 3.89524 107.642C4.10301 107.389 4.20433 107.074 4.18001 106.756L4.06302 105.036C4.12655 105.119 4.17505 105.212 4.20659 105.31L5.50936 109.534C5.55412 109.703 5.6364 109.862 5.75089 110C5.86538 110.138 6.00954 110.252 6.17404 110.334C6.41263 110.445 6.68082 110.487 6.9449 110.455C7.20899 110.424 7.4572 110.32 7.65834 110.157C7.85948 109.994 8.00458 109.779 8.0754 109.539C8.14623 109.299 8.13962 109.045 8.05641 108.808L6.80682 104.743C6.80071 104.725 6.80071 104.706 6.80682 104.688C6.81195 104.679 6.81949 104.671 6.82876 104.665C6.83803 104.659 6.84876 104.655 6.85999 104.654L8.98696 108.943C9.06664 109.103 9.18156 109.246 9.32427 109.363C9.46697 109.479 9.63426 109.566 9.81528 109.618C9.9963 109.67 10.187 109.686 10.375 109.665C10.563 109.643 10.7441 109.585 10.9066 109.494C11.1976 109.327 11.4127 109.065 11.5107 108.759C11.6088 108.453 11.583 108.124 11.4383 107.834L9.43363 103.824L11.8371 106.423C12.0748 106.674 12.3961 106.843 12.7493 106.903C13.1024 106.962 13.4667 106.909 13.7833 106.751L13.8684 106.691C14.0035 106.583 14.1144 106.451 14.1948 106.303C14.2752 106.154 14.3234 105.993 14.3368 105.827C14.3501 105.661 14.3283 105.495 14.2725 105.337C14.2168 105.179 14.1282 105.033 14.0119 104.907L14.0172 104.892Z" fill="#4E4E4E"/>
<path d="M9.08694 99.8183C9.08333 101.168 9.44945 102.495 10.1504 103.675L9.60273 169.438C9.6097 169.721 9.73562 169.991 9.95341 170.189C10.1712 170.387 10.4634 170.498 10.7672 170.496H22.7527C23.0513 170.5 23.3402 170.397 23.5591 170.207C23.778 170.017 23.9101 169.756 23.9279 169.477L26.4483 107.74H27.5703L30.5428 169.477C30.5578 169.755 30.6867 170.016 30.9027 170.207C31.1186 170.397 31.4049 170.503 31.702 170.501H42.4432C42.7474 170.502 43.0398 170.391 43.2569 170.192C43.474 169.993 43.5982 169.722 43.6024 169.438L44.4904 101.737C44.7041 101.027 44.8132 100.293 44.8147 99.5548V92.6963H9.08694V99.8183Z" fill="#4E4E4E"/>
<path d="M14.8462 99.3366C13.9922 99.3355 13.1418 99.2336 12.3151 99.0335C12.2644 99.0185 12.2218 98.9859 12.1961 98.9425C12.1704 98.899 12.1635 98.848 12.1768 98.7999C12.1928 98.7527 12.2279 98.7133 12.2746 98.69C12.3214 98.6668 12.376 98.6616 12.4268 98.6756C12.464 98.6756 16.149 99.6696 18.579 97.9401C20.0041 96.9461 20.706 95.2116 20.706 92.8011C20.7137 92.7569 20.738 92.7167 20.7746 92.6877C20.8111 92.6587 20.8575 92.6428 20.9054 92.6428C20.9533 92.6428 20.9997 92.6587 21.0362 92.6877C21.0727 92.7167 21.097 92.7569 21.1048 92.8011C21.1048 95.3358 20.3285 97.1648 18.797 98.2383C17.6407 98.9919 16.2552 99.377 14.8462 99.3366V99.3366Z" fill="#4E4E4E"/>
<path d="M38.131 99.4858C36.9207 99.519 35.7288 99.2032 34.7172 98.5812C33.1219 97.5226 32.2871 95.5992 32.2871 92.8011C32.2949 92.7569 32.3192 92.7167 32.3557 92.6877C32.3922 92.6587 32.4386 92.6428 32.4865 92.6428C32.5344 92.6428 32.5808 92.6587 32.6173 92.6877C32.6539 92.7167 32.6782 92.7569 32.6859 92.8011C32.6859 95.4452 33.4463 97.2741 34.9458 98.2681C37.3599 99.8585 40.9386 98.6856 40.9705 98.6707C40.9952 98.6621 41.0216 98.6582 41.048 98.6593C41.0743 98.6605 41.1002 98.6665 41.124 98.6772C41.1479 98.6879 41.1691 98.7029 41.1866 98.7214C41.2041 98.7399 41.2174 98.7616 41.2257 98.785C41.2431 98.8312 41.2406 98.8819 41.2188 98.9264C41.197 98.9709 41.1575 99.0057 41.1087 99.0235C40.1481 99.3222 39.1433 99.4782 38.131 99.4858V99.4858Z" fill="#4E4E4E"/>
<path d="M44.815 88.0339H8.36401V92.6958H44.815V88.0339Z" fill="#4E4E4E"/>
<path d="M38.0143 31.7057C37.6899 31.6312 37.3656 31.5666 37.0359 31.5019C35.2847 31.1798 33.5032 31.0233 31.7185 31.0348H25.077C23.1147 31.0243 21.1559 31.1908 19.2278 31.5318C14.5006 32.4214 0 33.8478 0 46.6454V94.8144H9.99677L10.2573 89.4468H44.5335L44.342 93.4874L46.7242 93.7458L55.1683 94.6653L56.5509 94.8144L56.721 54.3042C56.7689 43.6535 49.1011 34.1708 38.0143 31.7057Z" fill="#4E4E4E"/>
<path d="M44.8151 88.0344L44.0919 49.9644L39.3381 46.9675L42.5924 51.5846L44.8151 88.0344Z" fill="#4E4E4E"/>
<path d="M10.2573 89.4466L10.7199 52.1917L14.6229 48.4146L12.1397 52.9869L10.2573 89.4466Z" fill="#4E4E4E"/>
<path d="M44.7085 95.7882L42.9857 97.319C42.7345 97.5349 42.5777 97.8299 42.5453 98.1474C42.5129 98.4648 42.6073 98.7823 42.8102 99.0386C42.9245 99.181 43.0699 99.2989 43.2368 99.3846C43.4036 99.4703 43.5881 99.5218 43.778 99.5356C43.9711 99.5523 44.1658 99.5303 44.3492 99.4712C44.5326 99.412 44.7004 99.3171 44.8414 99.1927L46.1814 97.9949C46.0811 98.2556 45.9414 98.5017 45.7667 98.7255L41.869 102.93C41.6348 103.184 41.5179 103.514 41.5438 103.849C41.5697 104.183 41.7364 104.494 42.0073 104.714L42.0976 104.774C42.4137 104.932 42.7776 104.987 43.1307 104.928C43.4838 104.869 43.8055 104.701 44.0438 104.451L46.4473 101.852L44.416 105.862C44.271 106.153 44.2451 106.482 44.3431 106.789C44.4411 107.096 44.6563 107.359 44.9478 107.527C45.1111 107.617 45.2924 107.674 45.4804 107.694C45.6684 107.715 45.859 107.699 46.0399 107.647C46.2209 107.595 46.3884 107.508 46.5317 107.393C46.6751 107.277 46.7912 107.135 46.8727 106.976L48.9997 102.682C49.0195 102.688 49.0359 102.702 49.0457 102.719C49.0555 102.737 49.0581 102.757 49.0528 102.776L47.7979 106.836C47.7001 107.142 47.7263 107.471 47.8715 107.76C48.0167 108.049 48.2707 108.277 48.5849 108.402C48.7447 108.465 48.9166 108.497 49.0901 108.496C49.3828 108.495 49.6671 108.405 49.9008 108.24C50.1345 108.075 50.3052 107.845 50.3875 107.582L51.6903 103.358C51.7207 103.259 51.7693 103.167 51.8339 103.084L51.7169 104.804C51.6926 105.122 51.7939 105.437 52.0016 105.69C52.2094 105.943 52.5092 106.115 52.8442 106.175C53.0318 106.208 53.2247 106.203 53.4101 106.161C53.5956 106.119 53.7694 106.041 53.9202 105.931C54.0709 105.822 54.1951 105.684 54.2846 105.526C54.3741 105.369 54.4269 105.195 54.4394 105.017L54.8329 100.753C55.1854 98.7467 55.3066 96.7106 55.1945 94.6799L46.7504 93.7605C45.9614 94.3334 45.2725 95.0175 44.7085 95.7882V95.7882Z" fill="#4E4E4E"/>
<path d="M33.0743 32.6657L28.1822 51.8001C27.8925 52.4227 27.4217 52.9569 26.8233 53.3418C26.2249 53.7268 25.5229 53.9471 24.7972 53.9776C24.0715 54.0082 23.3511 53.8478 22.7181 53.5146C22.0851 53.1815 21.5648 52.6891 21.2164 52.0933L15.9521 32.0345L17.2656 31.7015C22.0512 31.1647 27.2304 31.617 31.9736 32.4669L33.0902 32.6657H33.0743Z" fill="#4E4E4E"/>
<path d="M35.9562 10.304C35.9224 9.0789 35.5565 7.88187 34.8927 6.825C34.547 6.28659 34.0886 5.81893 33.545 5.45001C33.0014 5.08109 32.3836 4.8185 31.7289 4.67798C30.3516 4.42451 28.9106 4.85193 27.56 4.37978C26.3246 3.94081 25.2655 3.15412 24.5291 2.12838C23.7368 1.02505 22.333 0.0310572 19.855 0.00123742C19.5463 -0.00372258 19.2375 0.00623063 18.9298 0.0310572C12.4053 0.498234 10.1401 6.32801 11.0069 11.5614C11.0627 12.2517 11.3407 12.9101 11.8045 13.45C12.2941 13.8755 12.9057 14.1587 13.5645 14.265L13.3625 15.4727C13.1535 16.7607 13.4345 18.0763 14.1564 19.1905C14.8783 20.3048 15.9954 21.1472 17.3133 21.5709C16.8438 23.3049 17.081 25.1401 17.9788 26.7198C18.8766 28.2994 20.3708 29.5105 22.1709 30.1176C23.971 30.7247 25.9484 30.6845 27.7185 30.0046C29.4886 29.3248 30.9249 28.054 31.7482 26.4393C32.5715 24.8246 32.7229 22.9814 32.173 21.2682C31.6231 19.5549 30.4111 18.0941 28.7728 17.1696C27.1345 16.2452 25.1869 15.9232 23.3087 16.2664C21.4306 16.6095 19.756 17.5933 18.6108 19.0263V14.9111L22.5084 15.4081L28.5012 16.1984C28.6851 16.5073 28.952 16.766 29.2756 16.949C29.5992 17.1321 29.9682 17.2331 30.3463 17.2421V17.2421C30.6248 17.2949 30.9139 17.2687 31.1763 17.1669C31.4388 17.0651 31.6627 16.8922 31.8193 16.6705C32.6157 16.7634 33.4207 16.5775 34.0792 16.1487C34.7347 15.6075 35.1999 14.8937 35.4138 14.101C35.8378 12.8762 36.0215 11.5899 35.9562 10.304Z" fill="#4E4E4E"/>
<path d="M32.8935 16.0691L32.0693 15.9946L31.9789 16.2133C31.9417 16.9687 31.176 17.3265 30.3837 17.2321C28.9161 17.2868 28.0174 15.6566 27.4804 13.9867C27.1319 13.1087 26.9223 12.1878 26.8582 11.2532C26.7838 10.791 26.7572 10.4978 26.7572 10.4978C26.0553 12.4262 19.1001 11.5316 15.2875 11.0793C15.112 11.0793 14.9472 11.0495 14.7558 11.0445L14.1549 17.1029L14.006 18.5541L13.3892 24.5181C13.2455 25.9211 13.7035 27.32 14.6627 28.4075C15.6218 29.495 17.0037 30.1822 18.5046 30.318L19.6531 30.4174V32.8577C19.6601 34.0477 20.1686 35.1872 21.0684 36.0292C21.9683 36.8711 23.1869 37.3477 24.4601 37.3555H26.2148C27.4936 37.3529 28.7192 36.8773 29.6239 36.0326C30.5286 35.188 31.0388 34.0429 31.0431 32.8477V23.8571L31.2717 21.6007L32.3086 21.6951C33.0344 21.7589 33.7578 21.5517 34.3207 21.1187C34.8836 20.6857 35.2403 20.0621 35.313 19.3841L35.3661 18.8623C35.4299 18.1863 35.2062 17.5141 34.7433 16.9912C34.2805 16.4684 33.6159 16.1371 32.8935 16.0691V16.0691Z" fill="#4E4E4E"/>
<path opacity="0.15" d="M30.4475 22.4758C30.3509 23.4184 30.0565 24.334 29.5811 25.1702C29.1057 26.0064 28.4586 26.7468 27.6769 27.3492C26.8951 27.9515 25.9941 28.404 25.0251 28.6806C24.0562 28.9573 23.0385 29.0528 22.03 28.9616L18.6109 28.6535C17.1302 28.5202 15.7668 27.8426 14.8205 26.7699C13.8742 25.6971 13.4225 24.317 13.5647 22.933L14.1655 17.1033L13.3998 24.5085C13.253 25.9116 13.7082 27.3117 14.6655 28.4011C15.6227 29.4906 17.0036 30.1802 18.5046 30.3184L20.488 30.4973C20.8933 31.2713 21.5274 31.9204 22.3153 32.3679C23.1031 32.8153 24.0117 33.0424 24.9333 33.0221C27.5921 33.0221 29.719 31.213 29.719 28.9765C29.7257 28.4087 29.5909 27.8472 29.3255 27.3364C30.3401 26.1079 30.963 24.6368 31.1228 23.0921L31.2717 21.6011L30.5432 21.5365L30.4475 22.4758Z" fill="#4E4E4E"/>
<path opacity="0.57" d="M33.2708 19.8315C33.2195 19.8337 33.1689 19.8197 33.1272 19.7917L31.984 19.1059C31.951 19.0877 31.9232 19.0625 31.9028 19.0322C31.8825 19.0019 31.8702 18.9675 31.867 18.9319C31.8601 18.8964 31.8623 18.8599 31.8734 18.8254C31.8844 18.7908 31.9041 18.7592 31.9308 18.7331L33.1325 17.4658C33.1831 17.4199 33.2508 17.3943 33.3213 17.3943C33.3918 17.3943 33.4595 17.4199 33.5101 17.4658C33.5591 17.5131 33.5865 17.5763 33.5865 17.6422C33.5865 17.7081 33.5591 17.7714 33.5101 17.8186L32.5104 18.8723L33.4143 19.3842C33.4735 19.4198 33.5151 19.476 33.5301 19.5402C33.545 19.6045 33.5321 19.6717 33.4941 19.7271C33.4686 19.76 33.4349 19.7866 33.3961 19.8047C33.3572 19.8229 33.3142 19.8321 33.2708 19.8315V19.8315Z" fill="#4E4E4E"/>
<path d="M22.2647 20.9397C21.4142 21.5957 20.4713 22.1392 19.4624 22.555C17.9789 23.1166 19.8346 25.2288 22.1211 24.4833C24.4076 23.7378 23.4558 20.398 22.2647 20.9397Z" fill="#4E4E4E"/>
<path d="M26.0554 15.8114C25.718 15.8433 25.3773 15.8078 25.0557 15.707C24.7048 15.6225 24.3538 15.548 24.0454 15.4983C23.737 15.4486 23.3967 15.4088 23.0298 15.3492C22.6905 15.3342 22.3586 15.2512 22.0567 15.1056C21.8121 14.9566 21.7643 14.6335 22.1524 14.3204C22.4746 14.1086 22.8413 13.9632 23.2281 13.8938C23.615 13.8244 24.0132 13.8326 24.3964 13.9178C24.7823 13.9639 25.1531 14.0872 25.4835 14.2793C25.8138 14.4714 26.0959 14.7278 26.3107 15.0311C26.534 15.4734 26.3585 15.7567 26.0554 15.8114Z" fill="#4E4E4E"/>
<path d="M23.2115 21.695C22.841 21.8798 22.4337 21.9915 22.0151 22.023C21.5737 22.0926 21.1324 22.1671 20.7548 22.2466C20.3773 22.3262 19.9359 22.4256 19.5105 22.5399C19.1141 22.6742 18.6926 22.7317 18.2716 22.7089C17.9153 22.6542 17.7026 22.3311 17.9898 21.8192C18.262 21.4459 18.6126 21.1282 19.0203 20.8856C19.428 20.6429 19.8843 20.4804 20.3613 20.4078C20.8211 20.2863 21.3029 20.2554 21.7761 20.317C22.2493 20.3786 22.7037 20.5313 23.1104 20.7656C23.5784 21.1284 23.5146 21.5061 23.2115 21.695Z" fill="#4E4E4E"/>
<path d="M14.8887 14.8766C15.1806 14.9471 15.4855 14.9572 15.782 14.9064C16.0957 14.9064 16.4201 14.8567 16.6966 14.8467C16.9731 14.8368 17.2922 14.8467 17.6112 14.8467C17.9107 14.8751 18.2131 14.8446 18.4992 14.7573C18.7332 14.6529 18.8236 14.3796 18.5258 14.0565C18.2719 13.8285 17.9689 13.6538 17.6369 13.5441C17.3049 13.4344 16.9517 13.3922 16.6009 13.4204C16.2558 13.4142 15.9133 13.4776 15.5967 13.6062C15.2802 13.7349 14.997 13.9257 14.7664 14.1658C14.5112 14.5237 14.6228 14.7921 14.8887 14.8766Z" fill="#4E4E4E"/>
<path opacity="0.57" d="M20.1369 20.2544L19.1426 20.1898C18.658 20.1542 18.2081 19.9409 17.8913 19.5963C17.5745 19.2518 17.4164 18.804 17.4516 18.3509C17.4596 18.2291 17.4937 18.1101 17.5519 18.0008C17.6102 17.8916 17.6913 17.7945 17.7905 17.7152C17.8898 17.6359 18.005 17.5761 18.1295 17.5393C18.254 17.5025 18.3851 17.4895 18.5151 17.501C18.6737 17.4991 18.8258 17.442 18.9418 17.3409C19.0578 17.2399 19.1294 17.1021 19.1426 16.9543L19.3499 14.857C19.3563 14.7911 19.3904 14.7303 19.4447 14.6879C19.4991 14.6454 19.5692 14.625 19.6397 14.6309C19.7103 14.6368 19.7754 14.6687 19.8207 14.7195C19.8661 14.7703 19.888 14.8358 19.8817 14.9018L19.6743 16.9991C19.6512 17.2836 19.5084 17.5479 19.2771 17.7342C19.0459 17.9205 18.7451 18.0136 18.4407 17.9931C18.323 17.9876 18.2079 18.0259 18.1202 18.0994C18.0326 18.1729 17.9796 18.2758 17.9727 18.3857C17.9477 18.7075 18.0592 19.0255 18.2831 19.2711C18.5069 19.5166 18.8253 19.6699 19.1691 19.6978L20.1369 19.7574C20.2074 19.7574 20.2751 19.7836 20.3249 19.8302C20.3748 19.8768 20.4028 19.94 20.4028 20.0059C20.4028 20.0718 20.3748 20.135 20.3249 20.1816C20.2751 20.2282 20.2074 20.2544 20.1369 20.2544Z" fill="#4E4E4E"/>
<path d="M15.8834 16.8105C15.893 17.0047 15.957 17.1872 16.0628 17.3224C16.1685 17.4577 16.3085 17.536 16.4555 17.5422C16.6025 17.5483 16.746 17.4819 16.858 17.3558C16.97 17.2297 17.0426 17.053 17.0616 16.86C17.0722 16.7516 17.0656 16.6414 17.0422 16.5366C17.0187 16.4317 16.979 16.3345 16.9254 16.2512C16.8719 16.1679 16.8057 16.1004 16.7313 16.053C16.6568 16.0055 16.5757 15.9792 16.4931 15.9757C16.4105 15.9723 16.3283 15.9917 16.2517 16.0328C16.1751 16.0739 16.1059 16.1358 16.0484 16.2144C15.991 16.293 15.9467 16.3867 15.9182 16.4894C15.8898 16.592 15.8779 16.7014 15.8834 16.8105Z" fill="#4E4E4E"/>
<path d="M22.5953 16.8105C22.605 17.0047 22.6689 17.1872 22.7747 17.3224C22.8804 17.4577 23.0204 17.536 23.1674 17.5422C23.3144 17.5483 23.4579 17.4819 23.5699 17.3558C23.682 17.2297 23.7545 17.053 23.7735 16.86C23.7842 16.7516 23.7775 16.6414 23.7541 16.5366C23.7306 16.4317 23.6909 16.3345 23.6373 16.2512C23.5838 16.1679 23.5177 16.1004 23.4432 16.053C23.3687 16.0055 23.2876 15.9792 23.205 15.9757C23.1224 15.9723 23.0402 15.9917 22.9636 16.0328C22.887 16.0739 22.8178 16.1358 22.7604 16.2144C22.7029 16.293 22.6586 16.3867 22.6301 16.4894C22.6017 16.592 22.5898 16.7014 22.5953 16.8105Z" fill="#4E4E4E"/>
<path opacity="0.57" d="M23.0987 18.0319C22.7099 18.0254 22.3349 17.8957 22.0352 17.6641C21.9943 17.6331 21.9682 17.5882 21.9628 17.5393C21.9573 17.4904 21.9728 17.4414 22.0059 17.4032C22.0391 17.365 22.0871 17.3406 22.1395 17.3355C22.1918 17.3304 22.2442 17.3449 22.2851 17.3759C22.535 17.5536 22.8404 17.6499 23.1545 17.6499C23.4686 17.6499 23.774 17.5536 24.0239 17.3759C24.0663 17.3458 24.1197 17.3326 24.1725 17.3391C24.2252 17.3456 24.2731 17.3713 24.3057 17.4106C24.3363 17.4499 24.3494 17.4987 24.3425 17.5468C24.3356 17.595 24.3091 17.6387 24.2685 17.6691C23.9307 17.905 23.5203 18.0322 23.0987 18.0319V18.0319Z" fill="#4E4E4E"/>
<path opacity="0.57" d="M16.3243 17.8928C15.9353 17.8871 15.5601 17.7573 15.2608 17.5251C15.2406 17.5101 15.2237 17.4915 15.2111 17.4704C15.1985 17.4492 15.1905 17.426 15.1876 17.402C15.1846 17.378 15.1867 17.3537 15.1938 17.3305C15.2009 17.3072 15.2128 17.2855 15.2289 17.2666C15.2623 17.2281 15.3106 17.2033 15.3633 17.1977C15.416 17.1922 15.469 17.2062 15.5107 17.2368C15.7592 17.4178 16.0652 17.516 16.3801 17.516C16.6951 17.516 17.0011 17.4178 17.2495 17.2368C17.2921 17.2123 17.343 17.2034 17.3921 17.2119C17.4413 17.2204 17.4854 17.2456 17.5159 17.2827C17.5463 17.3198 17.5609 17.3662 17.5569 17.4128C17.5529 17.4594 17.5305 17.5029 17.4941 17.535C17.1545 17.7669 16.7449 17.8922 16.3243 17.8928V17.8928Z" fill="#4E4E4E"/>
<path d="M19.5467 31.1462L24.46 36.7374C24.6492 36.9546 24.781 37.2105 24.8448 37.4842C24.9085 37.7579 24.9024 38.0418 24.8269 38.3129L23.705 42.3336C23.6191 42.6411 23.4466 42.9214 23.2055 43.1456C22.9644 43.3697 22.6635 43.5294 22.3341 43.608C22.0046 43.6866 21.6587 43.6813 21.3321 43.5927C21.0056 43.504 20.7104 43.3353 20.4773 43.1039L15.5693 38.2333C15.3854 38.0557 15.2432 37.8442 15.1516 37.6123C15.0601 37.3804 15.0212 37.1332 15.0376 36.8865L15.4204 31.8569C15.4399 31.5754 15.5305 31.3023 15.6847 31.0599C15.8389 30.8175 16.0525 30.6128 16.3078 30.4624C16.5631 30.3121 16.8528 30.2204 17.1534 30.195C17.4539 30.1696 17.7566 30.2111 18.0366 30.3162L18.7864 30.5995C19.0867 30.7163 19.3489 30.9048 19.5467 31.1462V31.1462Z" fill="#4E4E4E"/>
<path d="M30.1126 31.1464L25.2525 36.7128C25.0563 36.9363 24.9214 37.201 24.8593 37.4842C24.7972 37.7674 24.8099 38.0604 24.8962 38.338L26.1724 42.4034C26.2673 42.7072 26.4471 42.9818 26.6933 43.1989C26.9396 43.4161 27.2433 43.5679 27.5733 43.6388C27.9032 43.7097 28.2474 43.6971 28.5704 43.6022C28.8934 43.5074 29.1834 43.3337 29.4107 43.0992L34.1432 38.2286C34.3168 38.05 34.4496 37.8403 34.5337 37.6121C34.6178 37.384 34.6514 37.1423 34.6324 36.9017L34.2389 31.8571C34.2203 31.5759 34.1305 31.3028 33.9769 31.0603C33.8232 30.8178 33.6102 30.613 33.3552 30.4625C33.1003 30.3121 32.8108 30.2204 32.5105 30.195C32.2102 30.1696 31.9078 30.2112 31.6281 30.3164L30.873 30.5997C30.5727 30.7165 30.3104 30.9051 30.1126 31.1464V31.1464Z" fill="#4E4E4E"/>
</svg>
