<svg width="26" height="28" viewBox="0 0 26 28" fill="none" xmlns="http://www.w3.org/2000/svg">
<g clip-path="url(#clip0_32_147)">
<path d="M25.7659 14.5521C25.5786 13.9981 25.5435 13.4046 25.6642 12.8327V12.8327L25.9033 11.6981C26.0639 10.9463 26.0342 10.1668 25.8168 9.42909V9.42909L25.4862 8.31978C25.3621 7.89177 25.324 7.44375 25.3742 7.00121L25.6566 4.41198C25.7199 3.96694 25.6856 3.5136 25.556 3.0829C25.4264 2.65221 25.2046 2.2543 24.9056 1.91636C24.6067 1.57841 24.2377 1.30839 23.8239 1.12472C23.41 0.941048 22.9611 0.84806 22.5077 0.852103V0.852103C22.2627 0.858382 22.0187 0.819924 21.7879 0.738651V0.738651C21.25 0.544118 20.6742 0.474551 20.1049 0.535307C19.5356 0.596063 18.988 0.785522 18.5042 1.08909V1.08909C18.191 1.2795 17.8313 1.38149 17.4639 1.38407V1.38407L14.8923 1.39919C14.4963 1.40125 14.1039 1.4756 13.735 1.61854V1.61854L13.2263 1.82527L13.1755 1.84544C13.0557 1.88915 12.9392 1.94139 12.827 2.00175V2.00175C12.5723 2.15266 12.2728 2.21151 11.9793 2.16831C11.6858 2.12511 11.4164 1.98252 11.2169 1.76476C11.2169 1.76476 11.2169 1.76476 11.2042 1.76476V1.74964L11.1864 1.73451C10.8184 1.3693 10.3407 1.13231 9.82522 1.05912C9.30971 0.985925 8.78415 1.08049 8.32748 1.3286V1.3286H8.30968H8.29187H8.27407C8.15777 1.40551 8.02278 1.45005 7.88319 1.45759C7.7436 1.46513 7.60452 1.43539 7.48048 1.37146L5.89332 0.418463H5.87806H5.8628C5.34635 0.133578 4.76 -0.00297768 4.16959 0.0241276C3.57919 0.0512328 3.00809 0.240926 2.52042 0.57191C2.03274 0.902894 1.6478 1.36207 1.40881 1.89788C1.16981 2.43369 1.08623 3.02492 1.16744 3.60521V3.60521C1.2361 4.08447 1.12379 4.57199 0.852037 4.9742C0.535849 5.44807 0.338157 5.98982 0.275345 6.55454C0.212533 7.11926 0.286411 7.69068 0.490856 8.22145C0.589949 8.48191 0.631903 8.76031 0.613921 9.0381C0.595938 9.3159 0.518434 9.5867 0.386571 9.83247C0.0899927 10.3969 -0.0403344 11.0328 0.0104931 11.6672C0.0613206 12.3016 0.291251 12.9091 0.67399 13.4201C0.861284 13.6585 0.989852 13.9369 1.04946 14.2332C1.10908 14.5295 1.09809 14.8355 1.01737 15.1269C0.837377 15.7637 0.826353 16.4357 0.985362 17.078C1.14437 17.7202 1.46803 18.3108 1.92497 18.7927C2.38191 19.2745 2.95666 19.6312 3.59353 19.8282C4.2304 20.0252 4.9078 20.0558 5.56012 19.9171V19.9171C5.9451 19.8293 6.31232 19.6776 6.64621 19.4683C7.8677 20.3655 9.34816 20.8491 10.8685 20.8474H10.9371C11.0282 21.615 11.2822 22.3548 11.6824 23.0181V23.0181C11.7112 23.0725 11.7175 23.1357 11.7002 23.1946C11.5087 23.8572 11.4868 24.5566 11.6364 25.2296C11.7861 25.9027 12.1026 26.5281 12.5574 27.0495V27.0495L12.9491 27.4806C13.0919 27.6388 13.2667 27.7655 13.4621 27.8524C13.6576 27.9393 13.8693 27.9844 14.0835 27.9848C14.4317 27.9841 14.7686 27.862 15.035 27.6398C15.3015 27.4176 15.4806 27.1096 15.5409 26.7696V26.7696L15.7495 25.6527C15.7978 25.4184 15.7865 25.1757 15.7164 24.9468V24.9468L15.5689 24.4754C15.549 24.4128 15.5545 24.3449 15.5842 24.2863L16.1692 23.1946C16.7568 23.4692 17.4037 23.5956 18.0525 23.5626C18.7012 23.5297 19.3317 23.3383 19.8878 23.0055C20.219 22.8052 20.5875 22.6731 20.9714 22.6173L22.0982 22.471C22.7804 22.4039 23.4139 22.0908 23.8786 21.5912C24.3543 21.0865 24.6259 20.426 24.6417 19.7356C24.6479 19.1537 24.8364 18.5881 25.1809 18.117V18.117C25.5543 17.6102 25.8019 17.0233 25.9036 16.4039C26.0052 15.7845 25.9581 15.15 25.7659 14.5521V14.5521ZM9.60179 19.4583C9.74948 19.2997 9.86038 19.111 9.92673 18.9054C9.99308 18.6998 10.0133 18.4824 9.98586 18.2683V18.2683L9.95534 18.001C9.94008 17.8925 9.95901 17.7819 10.0095 17.6844C10.0601 17.587 10.1398 17.5073 10.2377 17.4565L11.0389 17.0304C11.0986 17.0019 11.1518 16.9617 11.1954 16.9123C11.239 16.8629 11.2721 16.8053 11.2926 16.7429C11.3132 16.6804 11.3207 16.6146 11.3149 16.5492C11.3091 16.4838 11.29 16.4202 11.2587 16.3623C11.2275 16.3045 11.1847 16.2534 11.133 16.2124C11.0814 16.1713 11.0218 16.141 10.9581 16.1233C10.8943 16.1057 10.8275 16.101 10.7619 16.1095C10.6962 16.1181 10.633 16.1398 10.576 16.1732L9.77221 16.6018C9.50231 16.746 9.28249 16.9674 9.14139 17.2372C9.00029 17.5071 8.94446 17.8128 8.98117 18.1145V18.1145L9.00915 18.3666C9.0275 18.4733 9.01159 18.583 8.96367 18.6802C8.91576 18.7775 8.83825 18.8574 8.74208 18.9086V18.9086L8.4572 19.0725C8.15666 18.9363 7.86822 18.7752 7.59494 18.591C8.03879 17.9958 8.27831 17.2751 8.27831 16.535C8.27831 15.7948 8.03879 15.0742 7.59494 14.479C7.41229 14.2353 7.28958 13.9528 7.23659 13.6538C7.1836 13.3549 7.20179 13.0478 7.28972 12.757C7.4349 12.276 7.46959 11.7689 7.39125 11.2729C7.31291 10.7768 7.12351 10.3045 6.83697 9.89046C7.42305 9.46572 8.13387 9.24399 8.85973 9.25948C9.58558 9.27498 10.2861 9.52683 10.8532 9.97618C10.9033 10.0162 10.9609 10.0461 11.0226 10.0641C11.0844 10.0821 11.1491 10.0879 11.2131 10.0811C11.2771 10.0743 11.3392 10.0551 11.3957 10.0246C11.4522 9.99401 11.5021 9.95273 11.5425 9.90306C11.5829 9.8534 11.6131 9.79633 11.6312 9.73512C11.6494 9.67391 11.6552 9.60975 11.6484 9.54631C11.6415 9.48286 11.6221 9.42138 11.5913 9.36536C11.5605 9.30934 11.5188 9.25989 11.4687 9.21983C10.638 8.54959 9.58192 8.21627 8.51316 8.287C8.38622 8.29407 8.25973 8.30754 8.13417 8.32734C8.09621 8.18553 8.08768 8.03755 8.1091 7.89237C8.13052 7.7472 8.18145 7.60784 8.25881 7.48275C8.29689 7.4286 8.32339 7.36731 8.33669 7.30263C8.34999 7.23796 8.34981 7.17127 8.33615 7.10667C8.32249 7.04206 8.29565 6.98091 8.25727 6.92697C8.21889 6.87303 8.16979 6.82744 8.11298 6.793C8.05617 6.75856 7.99286 6.736 7.92693 6.72671C7.861 6.71741 7.79385 6.72158 7.72961 6.73896C7.66537 6.75633 7.60539 6.78655 7.55336 6.82775C7.50134 6.86894 7.45836 6.92025 7.42707 6.97852C7.27809 7.217 7.18021 7.48332 7.13951 7.76091C7.09882 8.03849 7.11618 8.32141 7.19052 8.59206C6.87148 8.71618 6.56907 8.87876 6.29011 9.07612C6.12836 8.66822 6.10778 8.21864 6.23161 7.7979C6.45485 7.02623 6.42456 6.20417 6.14513 5.4507C6.41227 5.48294 6.67102 5.56415 6.90819 5.69021L7.63564 6.07342C8.10373 6.32053 8.62634 6.44873 9.15667 6.44655H9.30674L10.4615 6.38857C10.6713 6.38432 10.8805 6.41152 11.0821 6.46924V6.46924L12.9135 6.97348C12.7755 7.18993 12.675 7.42765 12.6159 7.67688C11.9981 7.43315 11.3461 7.28518 10.6828 7.2382C10.6187 7.23373 10.5543 7.24182 10.4933 7.26202C10.4323 7.28222 10.376 7.31412 10.3274 7.35591C10.2294 7.44031 10.1692 7.55984 10.1601 7.68823C10.151 7.81661 10.1937 7.94332 10.2789 8.04048C10.364 8.13764 10.4846 8.1973 10.6141 8.20632C11.3098 8.25506 11.9898 8.43384 12.6184 8.73325C12.7488 9.24637 13.0533 9.69944 13.4807 10.0165C13.5849 10.0872 13.7127 10.1154 13.8374 10.0951C13.962 10.0748 14.074 10.0077 14.15 9.9077C14.226 9.80768 14.2602 9.68247 14.2454 9.55811C14.2307 9.43375 14.1681 9.31981 14.0708 9.24C13.9081 9.1192 13.7756 8.963 13.6835 8.78344C13.5914 8.60388 13.542 8.40575 13.5393 8.20432C13.5366 8.00289 13.5806 7.80353 13.6679 7.6216C13.7552 7.43968 13.8835 7.28004 14.0428 7.155C14.2814 7.15301 14.5192 7.12682 14.7524 7.07684V7.07684L16.9221 6.59026C17.1005 6.55606 17.2825 6.5442 17.4639 6.55496V6.55496L18.5677 6.60539H18.6568C18.7526 6.73031 18.8222 6.87305 18.8614 7.02513C18.9005 7.1772 18.9085 7.33553 18.8848 7.49071C18.861 7.64589 18.8061 7.79478 18.7233 7.92853C18.6404 8.06228 18.5313 8.17818 18.4024 8.26935C18.349 8.3061 18.3034 8.35293 18.2682 8.40715C18.233 8.46138 18.2089 8.52194 18.1973 8.58538C18.174 8.71352 18.2029 8.8456 18.2778 8.95259C18.3527 9.05957 18.4674 9.13269 18.5966 9.15586C18.7259 9.17903 18.8591 9.15034 18.9671 9.07612C19.3705 8.79225 19.6631 8.37957 19.796 7.90725C19.9289 7.43493 19.894 6.93168 19.6971 6.48185C19.8396 6.43249 19.9782 6.37265 20.1117 6.30285V6.30285L20.8747 5.94484L20.9841 6.62051C21.0422 6.98164 20.9981 7.35165 20.8569 7.68949L20.5746 8.36516C20.3405 8.92274 20.2708 9.5347 20.3737 10.13V10.13L20.6026 11.5242C20.6874 11.9734 20.609 12.4378 20.3813 12.8352V12.8352C20.0196 13.4553 19.7239 14.111 19.4987 14.7916L19.0765 14.1462C18.8518 13.8009 18.5127 13.5441 18.1175 13.4201L16.6626 12.9486C16.464 12.8804 16.2969 12.7435 16.1921 12.5629V12.5629L15.7699 11.8494C15.739 11.79 15.6962 11.7375 15.644 11.6952C15.5918 11.6529 15.5314 11.6217 15.4665 11.6036C15.4016 11.5855 15.3337 11.5808 15.2669 11.5898C15.2001 11.5988 15.1359 11.6214 15.0783 11.6561C15.0207 11.6908 14.9709 11.7369 14.9321 11.7915C14.8932 11.8462 14.8662 11.9081 14.8525 11.9735C14.8389 12.039 14.839 12.1065 14.8529 12.1719C14.8667 12.2373 14.894 12.2992 14.933 12.3536L15.3476 13.0596C15.5748 13.4464 15.9366 13.7377 16.365 13.8789V13.8789L17.8225 14.3504C18.0038 14.4072 18.1594 14.5249 18.2625 14.6832V14.6832L19.1757 16.0723C19.1375 16.2715 19.1044 16.4732 19.0765 16.6749C19.06 16.7766 19.0074 16.8692 18.9281 16.9358C18.8488 17.0024 18.748 17.0386 18.6441 17.0379H18.611H18.2854C17.97 17.0379 17.6444 17.0531 17.3163 17.0732L16.6576 17.1237L16.332 17.1438H16.3015C15.9338 17.1863 15.5615 17.1242 15.2281 16.9648V16.9648C14.8373 16.7764 14.4095 16.6752 13.975 16.6685C13.5405 16.6618 13.1097 16.7496 12.7132 16.9258C12.3166 17.102 11.9639 17.3624 11.6799 17.6884C11.3959 18.0144 11.1875 18.3983 11.0694 18.8128V18.8128C11.0058 19.0614 10.9599 19.3142 10.9321 19.5692C10.4858 19.5822 10.0396 19.5449 9.60179 19.4583ZM21.9608 21.2231H21.9328L20.8035 21.3693C20.2466 21.448 19.7123 21.6403 19.2342 21.934C18.8095 22.1896 18.3212 22.3222 17.8245 22.3168C17.3278 22.3115 16.8425 22.1684 16.4235 21.9038L14.9101 20.7995C14.8433 20.751 14.7676 20.716 14.6871 20.6966C14.6067 20.6771 14.5231 20.6735 14.4413 20.686C14.3595 20.6986 14.2809 20.7269 14.2101 20.7695C14.1394 20.8122 14.0777 20.8682 14.0288 20.9344C13.9799 21.0006 13.9446 21.0757 13.9249 21.1555C13.9053 21.2352 13.9017 21.318 13.9143 21.3991C13.927 21.4802 13.9556 21.5581 13.9986 21.6282C14.0416 21.6984 14.0981 21.7595 14.1649 21.808L15.1162 22.5013L14.4727 23.714C14.2886 24.0648 14.2521 24.4736 14.3709 24.851V24.851L14.5184 25.3225C14.5273 25.3589 14.5273 25.3969 14.5184 25.4334V25.4334L14.3099 26.5503C14.3049 26.5942 14.2871 26.6358 14.2586 26.6698C14.2301 26.7038 14.1923 26.7289 14.1496 26.7419C14.1048 26.7543 14.0573 26.7543 14.0125 26.7419C13.9676 26.7294 13.9271 26.705 13.8953 26.6713L13.5087 26.2276C13.1899 25.8615 12.9683 25.4224 12.8639 24.9501C12.7595 24.4777 12.7757 23.987 12.9109 23.5224C12.9664 23.3291 12.981 23.1266 12.9539 22.9274C12.9268 22.7283 12.8585 22.5369 12.7532 22.3652C12.3613 21.712 12.1523 20.967 12.1479 20.207V20.1692C12.1487 19.8292 12.1915 19.4905 12.275 19.1608C12.3428 18.92 12.4633 18.697 12.628 18.5078C12.7927 18.3185 12.9975 18.1675 13.2278 18.0657C13.458 17.9638 13.7081 17.9136 13.9603 17.9185C14.2124 17.9235 14.4603 17.9835 14.6863 18.0943V18.0943C15.1203 18.2985 15.5947 18.4044 16.0751 18.4044C16.1911 18.4108 16.3075 18.4108 16.4235 18.4044V18.4044L16.7542 18.3792C16.9628 18.3616 17.179 18.3414 17.3875 18.3288C17.6877 18.3086 17.9853 18.3036 18.3007 18.296C18.4075 18.296 18.5169 18.296 18.6237 18.296C19.0317 18.2969 19.4262 18.1513 19.7343 17.8862C20.0425 17.6211 20.2434 17.2544 20.2999 16.8539C20.4584 15.6642 20.8516 14.5171 21.4572 13.4781V13.4781C21.8288 12.8293 21.9601 12.0722 21.8286 11.3376L21.62 9.9308C21.5567 9.56504 21.5999 9.18897 21.7446 8.8467V8.8467L22.027 8.16851C22.2549 7.62087 22.3245 7.02111 22.2279 6.43647L22.0753 5.5465L22.4263 5.48599C22.5112 5.47632 22.5933 5.44955 22.6674 5.40735C22.7416 5.36514 22.8062 5.30837 22.8575 5.24053C22.9087 5.17268 22.9455 5.09518 22.9654 5.01278C22.9854 4.93037 22.9882 4.84479 22.9736 4.76128C22.9591 4.67777 22.9275 4.59808 22.8807 4.5271C22.834 4.45612 22.7732 4.39534 22.7019 4.34847C22.6307 4.30161 22.5505 4.26966 22.4664 4.25457C22.3823 4.23947 22.2959 4.24157 22.2126 4.26071L21.6174 4.36156C21.3159 4.3957 21.0225 4.48098 20.7501 4.61367V4.61367L19.5852 5.18597C19.2885 5.32153 18.9625 5.38216 18.6364 5.36246L17.53 5.29438C17.2346 5.27943 16.9386 5.30402 16.6499 5.3675L14.4803 5.85408C14.1635 5.92356 13.8344 5.91577 13.5214 5.83139V5.83139L11.4204 5.26665C11.0901 5.17188 10.7467 5.12934 10.403 5.14059L9.24824 5.2011C8.89497 5.21777 8.54364 5.14029 8.23083 4.97672L7.50338 4.5935C6.97723 4.30964 6.38222 4.17528 5.78395 4.20524V4.20524C5.58344 4.21783 5.38214 4.20853 5.18367 4.17751C4.95897 4.13195 4.74442 4.04654 4.55033 3.9254C4.40556 3.84784 4.23586 3.82968 4.07772 3.87484C3.91958 3.91999 3.78563 4.02484 3.70467 4.16685C3.6237 4.30887 3.60218 4.4767 3.64474 4.63427C3.6873 4.79184 3.79054 4.92657 3.93226 5.00949C4.17306 5.14616 4.42915 5.25447 4.69532 5.3322C4.90607 5.63897 5.04591 5.98807 5.10482 6.35459C5.16374 6.72111 5.14029 7.096 5.03615 7.4525C4.88637 7.95992 4.86559 8.49619 4.97565 9.01351C5.08571 9.53083 5.3232 10.0131 5.66695 10.4174C5.89849 10.6866 6.05822 11.009 6.13154 11.3552C6.20486 11.7014 6.18942 12.0603 6.08663 12.399C5.94312 12.8751 5.91438 13.378 6.00274 13.8671C6.09109 14.3562 6.29407 14.818 6.59534 15.2151C6.92719 15.6616 7.07857 16.2149 7.01974 16.7663C6.96091 17.3177 6.69611 17.8274 6.27739 18.1952V18.1952C6.00044 18.4356 5.66735 18.6037 5.30831 18.6843C4.86696 18.7811 4.40785 18.7633 3.97552 18.6324C3.54319 18.5016 3.15233 18.2622 2.84085 17.9375C2.52938 17.6128 2.30788 17.2138 2.19784 16.7792C2.0878 16.3446 2.09296 15.8892 2.21283 15.4572C2.34551 14.9854 2.36633 14.4896 2.27367 14.0085C2.18102 13.5274 1.97738 13.0741 1.67869 12.6839C1.43606 12.3609 1.29039 11.9766 1.25844 11.5752C1.22649 11.1738 1.30956 10.7715 1.49809 10.4149C1.71247 10.0129 1.83809 9.57027 1.8666 9.11645C1.8951 8.66264 1.82584 8.20801 1.66342 7.78277C1.52951 7.43723 1.48088 7.06496 1.52158 6.69701C1.56229 6.32906 1.69115 5.97608 1.89743 5.66752C2.33834 5.01027 2.51944 4.21502 2.40614 3.43377V3.43377C2.35357 3.08197 2.40148 2.72262 2.54444 2.39643C2.6874 2.07025 2.91969 1.79029 3.21498 1.58828C3.51207 1.38779 3.85914 1.27231 4.2181 1.25452C4.57706 1.23673 4.93402 1.31732 5.24981 1.48743L6.83697 2.47825L6.87004 2.4959C7.16312 2.64972 7.48969 2.73022 7.82132 2.73037C8.20984 2.73039 8.59025 2.62016 8.91758 2.4127C9.13631 2.29256 9.38847 2.24604 9.63616 2.28014C9.88384 2.31424 10.1137 2.42711 10.2911 2.60179C10.5279 2.85688 10.8158 3.06017 11.1364 3.19865C11.457 3.33714 11.8032 3.40777 12.153 3.40604C12.5985 3.40909 13.0371 3.29607 13.4247 3.07829V3.07829C13.484 3.04825 13.5451 3.02214 13.6079 3.00013L13.6689 2.97744L14.1776 2.77323C14.4025 2.68419 14.6425 2.63883 14.8847 2.6396V2.6396L17.4588 2.62448C18.0575 2.62269 18.644 2.45597 19.1528 2.14294V2.14294C19.4728 1.93919 19.8355 1.81056 20.2132 1.76687C20.591 1.72318 20.9738 1.76557 21.3326 1.89082V1.89082C21.6865 2.01795 22.06 2.0828 22.4365 2.08243H22.5051C22.7812 2.07717 23.0552 2.13171 23.3078 2.24225C23.5604 2.35278 23.7857 2.51663 23.9678 2.72238C24.1499 2.92812 24.2846 3.17079 24.3623 3.43344C24.4401 3.69609 24.459 3.9724 24.4179 4.24306C24.4167 4.24718 24.4167 4.25155 24.4179 4.25567V4.25567L24.1279 6.86002C24.0614 7.46436 24.1141 8.07575 24.2831 8.66013V8.66013L24.6112 9.78205C24.7698 10.3206 24.7907 10.8898 24.6722 11.4384V11.4384L24.4331 12.573C24.2687 13.3562 24.3161 14.1685 24.5705 14.9277C24.7055 15.3416 24.739 15.7814 24.6682 16.2106C24.5975 16.6399 24.4244 17.0462 24.1635 17.3959C23.663 18.0718 23.3858 18.8847 23.3699 19.723C23.3592 20.1011 23.2104 20.4625 22.9513 20.7402C22.6922 21.0179 22.3403 21.193 21.9608 21.2332V21.2231Z" fill="#692300"/>
<path d="M16.6346 9.9914C16.8064 10.0401 16.9656 10.125 17.1013 10.2403C17.2369 10.3557 17.3458 10.4986 17.4206 10.6595V10.6595C17.6925 11.2384 18.0586 11.769 18.5041 12.2302C18.5496 12.2778 18.6045 12.3158 18.6652 12.3418C18.726 12.3678 18.7915 12.3813 18.8577 12.3815C18.9538 12.3815 19.0477 12.3537 19.128 12.3013C19.2082 12.2489 19.2712 12.1744 19.3091 12.0869C19.347 11.9994 19.3582 11.9028 19.3413 11.809C19.3243 11.7153 19.28 11.6286 19.2138 11.5596C18.843 11.1755 18.5388 10.7334 18.3134 10.2511C18.179 9.96346 17.9835 9.708 17.7403 9.50218C17.4971 9.29637 17.2119 9.14505 16.9043 9.05857V9.05857C16.7297 9.00957 16.5728 8.91249 16.4517 8.7786C16.3305 8.64472 16.2502 8.47954 16.22 8.30222C16.1926 8.18037 16.119 8.07362 16.0144 8.00405C15.9099 7.93448 15.7823 7.90743 15.6581 7.92848C15.534 7.94953 15.4227 8.01707 15.3474 8.11714C15.2721 8.21721 15.2385 8.34214 15.2535 8.4661C15.3158 8.8233 15.4785 9.15586 15.7227 9.42564C15.967 9.69543 16.2831 9.89151 16.6346 9.9914V9.9914Z" fill="#692300"/>
<path d="M12.0944 12.8857C12.1531 13.236 12.2962 13.5671 12.5113 13.8511C12.7265 14.135 13.0075 14.3634 13.3306 14.5169V14.5169C13.6084 14.6473 13.8557 14.8337 14.0567 15.0642C14.2577 15.2947 14.408 15.5643 14.498 15.8556C14.5282 15.9561 14.5903 16.0443 14.6751 16.107C14.7599 16.1697 14.8628 16.2035 14.9686 16.2035C15.0159 16.203 15.063 16.1962 15.1085 16.1834C15.2329 16.146 15.3374 16.0615 15.3993 15.9482C15.4612 15.8349 15.4755 15.702 15.4391 15.5783C15.3111 15.1577 15.0958 14.7682 14.8072 14.4348C14.5186 14.1014 14.1629 13.8314 13.763 13.642V13.642C13.5825 13.5547 13.4256 13.4262 13.3049 13.2671C13.1842 13.108 13.1032 12.9229 13.0686 12.7269C12.9838 12.2212 12.7499 11.7517 12.3964 11.3775C12.0429 11.0033 11.5856 10.7412 11.0821 10.6242C10.9591 10.6038 10.8329 10.6306 10.7291 10.6991C10.6253 10.7676 10.5517 10.8727 10.5232 10.993C10.4948 11.1133 10.5135 11.2398 10.5757 11.3469C10.638 11.454 10.739 11.5337 10.8582 11.5696C11.172 11.6442 11.4567 11.8088 11.6765 12.0429C11.8964 12.277 12.0418 12.5701 12.0944 12.8857V12.8857Z" fill="#692300"/>
<path d="M10.1054 14.2017C9.98412 14.151 9.8781 14.0701 9.79768 13.9668C9.71726 13.8635 9.66517 13.7413 9.64648 13.6121C9.62779 13.483 9.64314 13.3512 9.69102 13.2296C9.73891 13.1081 9.81771 13.0009 9.91976 12.9185C10.0164 12.8375 10.0778 12.7227 10.0911 12.5979C10.1044 12.4732 10.0686 12.3482 9.99119 12.249C9.91375 12.1498 9.80065 12.0841 9.6755 12.0655C9.55034 12.047 9.4228 12.0771 9.31948 12.1495C9.07574 12.3367 8.88693 12.5852 8.77262 12.8691C8.65831 13.153 8.62266 13.462 8.66936 13.7642C8.71606 14.0663 8.8434 14.3506 9.03821 14.5875C9.23302 14.8245 9.4882 15.0055 9.77732 15.1119C9.83139 15.1338 9.88931 15.145 9.94774 15.1446C10.0629 15.1446 10.1744 15.1045 10.2628 15.0312C10.3511 14.958 10.4107 14.8562 10.431 14.7439C10.4513 14.6315 10.4311 14.5156 10.3739 14.4165C10.3167 14.3174 10.2262 14.2414 10.1182 14.2017H10.1054Z" fill="#692300"/>
</g>
<defs>
<clipPath id="clip0_32_147">
<rect width="26" height="28" fill="white"/>
</clipPath>
</defs>
</svg>
