<svg width="30" height="25" viewBox="0 0 30 25" fill="none" xmlns="http://www.w3.org/2000/svg">
<g clip-path="url(#clip0_43_1292)">
<path d="M14.6333 7.27211C14.5668 7.27176 14.5008 7.28441 14.4393 7.30932C14.3777 7.33422 14.3217 7.3709 14.2746 7.41724C14.2274 7.46358 14.19 7.51866 14.1644 7.57933C14.1389 7.64 14.1257 7.70506 14.1257 7.77076V16.6635C14.1257 16.7965 14.1792 16.9239 14.2744 17.018C14.3696 17.112 14.4987 17.1648 14.6333 17.1648C14.7679 17.1648 14.897 17.112 14.9922 17.018C15.0874 16.9239 15.1409 16.7965 15.1409 16.6635V7.76038C15.1375 7.6297 15.0825 7.50551 14.9877 7.4143C14.8928 7.32309 14.7657 7.27206 14.6333 7.27211Z" fill="#FEFAEF"/>
<path d="M14.6333 17.9829C14.5666 17.9825 14.5004 17.9953 14.4387 18.0203C14.3769 18.0454 14.3208 18.0823 14.2736 18.1289C14.2264 18.1755 14.1891 18.2309 14.1637 18.2919C14.1383 18.3529 14.1254 18.4182 14.1257 18.4841V19.7645C14.1257 19.8975 14.1792 20.025 14.2744 20.119C14.3696 20.213 14.4987 20.2658 14.6333 20.2658C14.7679 20.2658 14.8971 20.213 14.9922 20.119C15.0874 20.025 15.1409 19.8975 15.1409 19.7645V18.4841C15.1409 18.4183 15.1278 18.3531 15.1023 18.2923C15.0768 18.2315 15.0394 18.1762 14.9922 18.1297C14.9451 18.0831 14.8892 18.0462 14.8276 18.021C14.766 17.9958 14.7 17.9829 14.6333 17.9829Z" fill="#FEFAEF"/>
<path d="M16.5689 6.32154H16.5978L17.4341 6.20207H17.4631L18.2863 6.03585C18.3514 6.02272 18.4132 5.99705 18.4683 5.96032C18.5233 5.92358 18.5705 5.8765 18.6071 5.82175C18.6438 5.76701 18.6691 5.70567 18.6818 5.64125C18.6944 5.57683 18.6941 5.51058 18.6808 5.44629C18.6675 5.382 18.6415 5.32092 18.6043 5.26655C18.5671 5.21218 18.5194 5.16557 18.464 5.1294C18.4085 5.09322 18.3464 5.06818 18.2812 5.05571C18.2159 5.04324 18.1489 5.04358 18.0837 5.05671L17.2737 5.22033L16.4663 5.33461L15.6589 5.40473L14.8515 5.42811L14.0336 5.40473L13.2262 5.33461L12.4372 5.22033L11.6271 5.05671C11.562 5.04341 11.4949 5.0429 11.4296 5.05522C11.3643 5.06753 11.3021 5.09242 11.2465 5.12848C11.1343 5.2013 11.056 5.31515 11.0288 5.44499C11.0016 5.57483 11.0278 5.71003 11.1015 5.82083C11.1752 5.93164 11.2905 6.00898 11.422 6.03585L12.2478 6.20207H12.2767L13.0999 6.32154H13.1289L13.9652 6.39166H13.9941L14.8436 6.41504H14.8725L15.7089 6.39166H15.7378L16.5689 6.32154Z" fill="#FEFAEF"/>
<path d="M28.417 8.59147C29.1558 7.32733 29.4302 5.85018 29.194 4.40939C28.9578 2.96859 28.2254 1.65242 27.1204 0.683058V0.683058C26.8527 0.447741 26.5406 0.266941 26.202 0.151033C25.8634 0.0351242 25.5049 -0.0136109 25.1472 0.00762414C24.7895 0.0288591 24.4395 0.119646 24.1174 0.274775C23.7953 0.429905 23.5073 0.646322 23.2701 0.91161C22.7976 1.44035 22.1967 1.84165 21.5238 2.07774V2.07774C21.2395 2.17699 20.9273 2.16302 20.6533 2.03879C18.7754 1.15089 16.7206 0.687735 14.6385 0.683058V0.683058C12.557 0.685301 10.5023 1.14578 8.62373 2.03099V2.03099C8.35075 2.15778 8.03849 2.17455 7.7532 2.07774V2.07774C7.07998 1.84217 6.47824 1.44184 6.00426 0.914207V0.914207C5.7672 0.648968 5.47954 0.432448 5.15773 0.277017C4.83591 0.121586 4.48624 0.0302895 4.12869 0.00834183C3.77114 -0.0136059 3.41271 0.0342256 3.07388 0.149104C2.73505 0.263982 2.42246 0.443657 2.15396 0.677864V0.677864C1.0473 1.64632 0.31444 2.96339 0.0799834 4.40514C-0.154473 5.84689 0.123942 7.32433 0.867895 8.58628V8.58628L0.896825 8.63043V8.64601C1.00735 8.79188 1.15059 8.91047 1.31532 8.99248C1.48004 9.07449 1.66177 9.11769 1.84625 9.1187V9.1187C2.04541 9.11891 2.2412 9.06789 2.41433 8.97066C2.64939 9.40669 2.99284 9.77656 3.4124 10.0455C3.83197 10.3145 4.31389 10.4737 4.81287 10.5082C4.88909 10.5121 4.96546 10.5121 5.04168 10.5082C5.585 10.5106 6.11837 10.3644 6.58262 10.0856C7.04687 9.80689 7.42383 9.40657 7.67167 8.92911C7.82457 8.95496 7.97942 8.96799 8.13455 8.96806C8.37235 8.96846 8.60922 8.93879 8.83938 8.87976C9.27495 9.81658 9.82046 10.6996 10.4647 11.5107V11.5107C10.7061 11.8181 10.8536 12.1872 10.89 12.5746C10.9263 12.962 10.8499 13.3515 10.6699 13.6975C9.97028 15.0429 9.88086 16.7077 10.4279 18.3854L12.3057 24.3927V24.4135V24.4447V24.468L12.3215 24.4992C12.3215 24.4992 12.3215 24.4992 12.3215 24.52L12.3452 24.5537V24.5667L12.382 24.6135C12.3929 24.6269 12.4052 24.639 12.4188 24.6498V24.6628L12.4556 24.6914L12.4819 24.7096H12.5003H12.524H12.5477H12.5634L12.595 24.7252L12.6318 24.7407H12.6792H12.7239C12.758 24.7433 12.7923 24.7433 12.8264 24.7407H12.8922H12.9579H13.0053H13.0342C13.0471 24.7371 13.0595 24.7319 13.071 24.7252C13.0797 24.7266 13.0886 24.7266 13.0973 24.7252C13.1103 24.7207 13.1227 24.7146 13.1342 24.707L13.1578 24.6914C13.1711 24.6842 13.1835 24.6755 13.1946 24.6654L13.2131 24.6524C13.2496 24.622 13.2831 24.588 13.313 24.5511V24.5511C13.4484 24.3722 13.6242 24.2269 13.8265 24.1268C14.0287 24.0267 14.2518 23.9746 14.4781 23.9746C14.7043 23.9746 14.9274 24.0267 15.1297 24.1268C15.3319 24.2269 15.5077 24.3722 15.6432 24.5511V24.5511C15.6505 24.5619 15.6594 24.5715 15.6695 24.5797L15.6852 24.5979C15.6942 24.6081 15.7039 24.6176 15.7142 24.6265L15.7326 24.642L15.7589 24.6628L15.7825 24.681L15.8088 24.6966L15.8378 24.7148H15.8588L15.8956 24.7329H15.9167L15.9561 24.7459H15.9956C16.014 24.7472 16.0324 24.7472 16.0508 24.7459H16.1823H16.2402H16.2954H16.3164H16.348H16.3743H16.4032H16.4269L16.4769 24.7174L16.5216 24.6862L16.5558 24.6576V24.6446L16.59 24.6083L16.6241 24.5615V24.5485C16.6327 24.5374 16.6398 24.5251 16.6452 24.5122C16.646 24.5062 16.646 24.5 16.6452 24.494C16.6523 24.4842 16.6584 24.4738 16.6636 24.4628V24.4395C16.6646 24.4291 16.6646 24.4187 16.6636 24.4083V24.3849L18.5309 18.3802C19.0937 16.7051 19.0148 15.0351 18.31 13.6793C18.1273 13.3369 18.0493 12.9495 18.0852 12.5641C18.1212 12.1787 18.2696 11.8119 18.5125 11.5081V11.5081C19.1579 10.6959 19.7035 9.81105 20.1378 8.87197C20.362 8.92903 20.5927 8.95783 20.8242 8.95768C21.0703 8.99079 21.3196 8.99166 21.5659 8.96027C21.8144 9.43758 22.1914 9.83798 22.6554 10.1175C23.1194 10.397 23.6524 10.5447 24.1959 10.5446C24.2721 10.5484 24.3485 10.5484 24.4247 10.5446C24.925 10.5089 25.408 10.3482 25.8281 10.0774C26.2481 9.80656 26.5915 9.43465 26.8259 8.99663C27.0035 9.09218 27.2022 9.14302 27.4045 9.14467C27.5882 9.14318 27.7691 9.10001 27.9333 9.0185C28.0974 8.93699 28.2404 8.81933 28.3513 8.67458V8.659V8.64601L28.3776 8.60186L28.417 8.59147ZM4.93911 9.25895C4.631 9.23638 4.33529 9.12972 4.08498 8.95087C3.83468 8.77202 3.63961 8.528 3.52155 8.24605C3.77208 8.18711 4.00642 8.07451 4.20798 7.9162C4.35636 7.79727 4.47351 7.64475 4.54951 7.47159C4.62551 7.29843 4.65811 7.10973 4.64456 6.92148C4.64456 6.89292 4.64456 6.86435 4.64456 6.83578C4.69629 6.8439 4.7473 6.85606 4.79709 6.87214V6.87214C4.85112 6.88906 4.89817 6.92277 4.93122 6.96823V6.96823C5.34767 7.57352 5.88457 8.08871 6.50922 8.48239C6.34909 8.74562 6.11643 8.95841 5.8384 9.09592C5.56038 9.23343 5.24847 9.28998 4.93911 9.25895V9.25895ZM7.911 7.70064C7.22457 7.53182 6.52237 7.01239 5.97796 6.23323C5.78371 5.9631 5.50734 5.76114 5.18896 5.65666V5.65666C4.70775 5.50146 4.18806 5.50785 3.71091 5.67484C3.6025 5.52807 3.53371 5.35646 3.51103 5.17618C3.49057 5.00794 3.50905 4.8373 3.56509 4.67714C3.62112 4.51698 3.71325 4.37147 3.83452 4.25158V4.25158C3.94338 4.14916 4.08595 4.08885 4.23614 4.0817C4.38633 4.07454 4.5341 4.12102 4.65245 4.21263V4.21263C5.32532 4.70374 6.0388 5.13814 6.78536 5.51122C6.90371 5.57095 7.02469 5.62549 7.14041 5.68003L7.32977 5.77093H7.34292H7.35607C7.51957 5.83818 7.66489 5.94225 7.78042 6.07483C7.89595 6.20741 7.97849 6.36482 8.02146 6.53451V6.53451C8.11877 6.91889 8.23186 7.31366 8.36599 7.67986C8.21645 7.71101 8.0628 7.71802 7.911 7.70064V7.70064ZM14.6385 22.7643C14.1664 22.7656 13.7025 22.8873 13.292 23.1175L11.714 18.0322C11.2721 16.6765 11.3274 15.3571 11.8691 14.3157C12.1601 13.7513 12.2817 13.1166 12.2198 12.4862C12.1578 11.8559 11.9148 11.2561 11.5193 10.7575V10.7575C10.4654 9.4288 9.70803 7.89491 9.297 6.25661V6.25661C9.20784 5.89974 9.03668 5.56794 8.79678 5.2869C8.55689 5.00586 8.2547 4.78313 7.91363 4.63597L7.71375 4.54247L7.38237 4.38404C6.69902 4.03728 6.04548 3.63598 5.42829 3.18414V3.18414C5.06182 2.90944 4.60755 2.77404 4.14838 2.80265C3.68921 2.83126 3.25577 3.02197 2.92717 3.33997V3.33997C2.67992 3.58172 2.48856 3.87343 2.36623 4.19509C2.2439 4.51675 2.1935 4.86074 2.21848 5.20345C2.24347 5.54616 2.34325 5.87947 2.51097 6.18051C2.6787 6.48155 2.9104 6.74318 3.19017 6.94746L3.23488 6.97862L3.25592 6.99421C3.23659 7.00214 3.21623 7.00738 3.19543 7.00979L3.05078 7.03316C2.84957 7.06698 2.65621 7.1365 2.48008 7.23834C2.43698 7.25882 2.39639 7.28409 2.3591 7.31366C2.19556 7.42267 2.05156 7.55785 1.93304 7.71363V7.71363L1.88833 7.76557C1.35621 6.76643 1.17795 5.62019 1.38194 4.50941C1.58593 3.39863 2.16044 2.3872 3.01396 1.63622C3.15453 1.51309 3.31827 1.4185 3.49586 1.35786C3.67344 1.29723 3.86137 1.27173 4.04894 1.28282C4.2365 1.29392 4.42001 1.34139 4.58899 1.42252C4.75797 1.50366 4.90912 1.61687 5.03379 1.75569V1.75569C5.65311 2.44562 6.43942 2.96924 7.31925 3.27764V3.27764C7.58087 3.3699 7.85675 3.41648 8.13455 3.41529C8.48948 3.41626 8.84038 3.34093 9.16287 3.19453C10.8664 2.3823 12.7337 1.96045 14.6254 1.96045C16.517 1.96045 18.3843 2.3823 20.0878 3.19453V3.19453C20.4112 3.34114 20.763 3.41647 21.1188 3.41529C21.3957 3.41671 21.6708 3.37012 21.9315 3.27764V3.27764C22.812 2.97037 23.5992 2.44763 24.2195 1.75829C24.3435 1.61873 24.4943 1.50485 24.6631 1.42326C24.8319 1.34168 25.0155 1.294 25.2032 1.28301C25.5817 1.26277 25.953 1.3906 26.2367 1.63882V1.63882C27.093 2.38963 27.6696 3.40217 27.8746 4.51467C28.0796 5.62717 27.9011 6.77542 27.3676 7.77596L27.3387 7.737C27.2202 7.5736 27.0743 7.43132 26.9074 7.31626C26.8706 7.28728 26.831 7.26205 26.789 7.24094C26.6127 7.1395 26.4194 7.07002 26.2183 7.03576V7.03576L26.0947 7.01239H26.0421C26.3322 6.81129 26.574 6.54979 26.7505 6.24635C26.927 5.94291 27.034 5.6049 27.0639 5.25619C27.0937 4.90747 27.0457 4.55653 26.9232 4.22813C26.8008 3.89974 26.6068 3.60187 26.3551 3.35556V3.35556C26.0265 3.03755 25.5931 2.84684 25.1339 2.81823C24.6747 2.78963 24.2204 2.92503 23.854 3.19973V3.19973L23.7882 3.24648C23.6331 3.35815 23.4884 3.46204 23.3385 3.56333C22.7112 3.9741 22.0536 4.33786 21.3713 4.65155V4.65155C21.0333 4.79984 20.7335 5.02134 20.494 5.29964C20.2545 5.57794 20.0815 5.9059 19.9879 6.2592V6.2592C19.5858 7.89823 18.8325 9.43305 17.7787 10.7601C17.3863 11.2584 17.1461 11.857 17.0865 12.4855C17.0268 13.114 17.1502 13.7463 17.4421 14.3079C17.9891 15.3467 18.0391 16.6791 17.5815 18.0296V18.0452L15.9851 23.1149C15.5728 22.8903 15.1093 22.7732 14.6385 22.7747V22.7643ZM21.2345 6.56567C21.2782 6.39327 21.3617 6.23321 21.4785 6.09803C21.5953 5.96284 21.7423 5.85622 21.9078 5.78652V5.78652C22.6507 5.44472 23.3663 5.04795 24.0486 4.59961C24.209 4.49052 24.3668 4.37625 24.5194 4.26717L24.5851 4.22042C24.703 4.129 24.8504 4.08262 25.0001 4.08977C25.1499 4.09693 25.292 4.15714 25.4004 4.25938C25.5297 4.37313 25.6306 4.5148 25.6954 4.67336C25.7601 4.83192 25.787 5.0031 25.7739 5.17358C25.7524 5.3541 25.6855 5.52642 25.5792 5.67484C25.1017 5.50583 24.5808 5.49852 24.0986 5.65406V5.65406C23.7781 5.75463 23.5006 5.95744 23.3096 6.23063C22.9203 6.77864 22.2576 7.47468 21.3713 7.69025C21.2135 7.72052 21.0518 7.72491 20.8926 7.70324C21.0241 7.33184 21.1372 6.95265 21.2345 6.56567ZM24.3379 9.25895C24.0316 9.28312 23.7246 9.22313 23.4507 9.08561C23.1768 8.94809 22.9469 8.73842 22.7862 8.47979C23.4131 8.08781 23.9505 7.57127 24.3642 6.96304V6.96304C24.3938 6.91972 24.436 6.88622 24.4852 6.86694V6.86694C24.5395 6.85113 24.5949 6.83898 24.6509 6.83058C24.6509 6.85915 24.6509 6.88772 24.6509 6.91629C24.6378 7.10487 24.6706 7.2938 24.7465 7.46731C24.8225 7.64081 24.9394 7.79384 25.0874 7.91361V7.91361C25.2817 8.071 25.509 8.18368 25.7528 8.24345C25.6356 8.52569 25.4412 8.77015 25.1913 8.94949C24.9414 9.12883 24.6459 9.23598 24.3379 9.25895V9.25895Z" fill="#FEFAEF"/>
</g>
<defs>
<clipPath id="clip0_43_1292">
<rect width="29.2796" height="24.881" fill="white"/>
</clipPath>
</defs>
</svg>
