<svg width="28" height="28" viewBox="0 0 28 28" fill="none" xmlns="http://www.w3.org/2000/svg">
<g clip-path="url(#clip0_32_127)">
<path d="M27.9849 9.13874C27.94 8.71886 27.8115 8.31485 27.6085 7.9552C27.4054 7.59554 27.1328 7.28898 26.8097 7.05712V7.05712L26.787 7.03784C25.3157 5.93994 23.9756 4.64493 22.7982 3.18299C21.8019 1.82321 20.4474 0.83172 18.9185 0.343078C17.3896 -0.145565 15.7603 -0.107693 14.2517 0.451553C14.0829 0.514909 13.8996 0.514909 13.7308 0.451553V0.451553C12.2213 -0.104957 10.5922 -0.142579 9.06259 0.343743C7.53297 0.830065 6.17606 1.81702 5.17422 3.17198C3.99553 4.64366 2.65294 5.94795 1.17782 7.05437V7.05437C0.857534 7.28768 0.587892 7.59498 0.387882 7.95463C0.187871 8.31428 0.0623543 8.71753 0.0201712 9.13599C-0.0219986 9.56289 0.0219518 9.99471 0.148922 10.401C0.275893 10.8073 0.482792 11.1782 0.755026 11.4874C2.13214 13.0389 3.86135 14.1621 5.76563 14.742C5.97785 17.5402 6.53574 20.2939 7.42409 22.9281V22.9281C7.90774 24.4128 8.79938 25.6975 9.97671 26.6059C11.154 27.5143 12.5594 28.0019 14 28.0019C15.4407 28.0019 16.846 27.5143 18.0234 26.6059C19.2007 25.6975 20.0923 24.4128 20.576 22.9281V22.9281C21.4643 20.2949 22.0222 17.542 22.2344 14.7448C24.1475 14.1804 25.8829 13.0539 27.2526 11.4874C27.524 11.1782 27.7303 10.8077 27.8568 10.4019C27.9833 9.99616 28.0271 9.56499 27.9849 9.13874ZM7.7286 5.52068C9.13791 3.88237 10.9801 3.27386 12.6562 3.89614C13.0867 4.05452 13.5383 4.1336 13.9925 4.13018C14.4428 4.13062 14.89 4.04968 15.3162 3.89063C16.9168 3.29864 18.8395 3.93744 20.2513 5.52068L24.1395 9.87392C23.5657 10.3086 22.9526 10.6776 22.3099 10.9753C22.2891 10.4016 22.1585 9.839 21.9266 9.32393C21.6947 8.80886 21.3666 8.35274 20.9635 7.98504C20.0575 7.15606 18.9478 6.63851 17.7738 6.49743C16.5998 6.35634 15.4138 6.59799 14.3649 7.19204C14.2521 7.25578 14.127 7.28905 14 7.28905C13.8731 7.28905 13.7479 7.25578 13.6351 7.19204V7.19204C12.5873 6.60107 11.4034 6.36112 10.2316 6.50216C9.05982 6.6432 7.95198 7.15898 7.04659 7.98504C6.64337 8.35356 6.31489 8.81012 6.08218 9.3255C5.84947 9.84088 5.71766 10.4037 5.69517 10.9781C5.04665 10.6809 4.42768 10.3119 3.84796 9.87667L7.7286 5.52068ZM13.9824 26.6398C12.8001 26.6407 11.6466 26.2402 10.6811 25.4935C9.71556 24.7468 8.98557 23.6908 8.5918 22.471C7.35868 18.8172 6.79515 14.9334 6.93335 11.0414C6.94746 10.656 7.0354 10.2782 7.19147 9.93246C7.34754 9.58667 7.56826 9.28061 7.83933 9.03411C8.5579 8.37822 9.43734 7.96881 10.3676 7.85714C11.2978 7.74547 12.2374 7.9365 13.0689 8.40632V8.40632C13.357 8.57132 13.6774 8.65751 14.0026 8.65751C14.3277 8.65751 14.6481 8.57132 14.9362 8.40632C15.7689 7.93546 16.7101 7.74411 17.6418 7.85629C18.5735 7.96846 19.4542 8.37916 20.1733 9.03686C20.4392 9.28098 20.656 9.58264 20.8102 9.92287C20.9644 10.2631 21.0526 10.6345 21.0692 11.0139C21.2089 14.9078 20.6453 18.7936 19.4108 22.449V22.449C19.015 23.6773 18.28 24.7405 17.3073 25.4914C16.3347 26.2423 15.1728 26.6436 13.9824 26.6398V26.6398ZM22.3301 12.2364C23.3987 11.7984 24.4001 11.1846 25.2997 10.4163V10.4163L25.3223 10.3943L25.3425 10.375L25.3676 10.3448C25.3684 10.3393 25.3684 10.3337 25.3676 10.3282L25.3903 10.2979V10.2759L25.4054 10.2484V10.2209V10.1961C25.4068 10.186 25.4068 10.1758 25.4054 10.1658C25.4054 10.1658 25.4054 10.1658 25.4054 10.1438C25.4065 10.1328 25.4065 10.1217 25.4054 10.1107C25.404 10.1035 25.404 10.0959 25.4054 10.0887C25.4054 10.0887 25.4054 10.0667 25.4054 10.0556C25.4054 10.0446 25.4054 10.0391 25.4054 10.0309C25.4066 10.0217 25.4066 10.0125 25.4054 10.0033C25.4041 9.99328 25.4041 9.98309 25.4054 9.97304C25.4054 9.97304 25.4054 9.95652 25.4054 9.94826V9.91246C25.4054 9.91246 25.4054 9.8987 25.4054 9.89044C25.4054 9.88217 25.4054 9.86841 25.4054 9.85739C25.4066 9.84918 25.4066 9.84082 25.4054 9.83261C25.4066 9.82164 25.4066 9.81055 25.4054 9.79957V9.77479C25.4064 9.76564 25.4064 9.7564 25.4054 9.74726C25.4068 9.73722 25.4068 9.72701 25.4054 9.71697V9.69219L25.3878 9.65915V9.64262C25.382 9.63099 25.3752 9.61994 25.3676 9.60958C25.3669 9.6041 25.3669 9.59854 25.3676 9.59306L25.35 9.56828L25.3324 9.54625L21.0315 4.68088C20.2719 3.81169 19.3305 3.15775 18.2884 2.77548C17.2136 2.37271 16.0481 2.36498 14.9689 2.75345C14.3345 2.98621 13.648 2.98621 13.0135 2.75345V2.75345C11.9494 2.36174 10.7988 2.35209 9.72932 2.72592C8.66925 3.10855 7.71627 3.78154 6.96103 4.68088V4.68088L2.62991 9.53248L2.6123 9.55451L2.59468 9.57929V9.59581L2.57203 9.62886C2.57275 9.63434 2.57275 9.6399 2.57203 9.64538L2.55441 9.67842V9.7032C2.55304 9.71324 2.55304 9.72345 2.55441 9.73349C2.55542 9.74263 2.55542 9.75188 2.55441 9.76102V9.7858C2.55441 9.7858 2.55441 9.80783 2.55441 9.81885C2.55324 9.82706 2.55324 9.83542 2.55441 9.84363C2.55441 9.84363 2.55441 9.86565 2.55441 9.87667C2.55441 9.88768 2.55441 9.87667 2.55441 9.8987V9.93174C2.55315 9.93994 2.55315 9.94832 2.55441 9.95652V9.98681C2.55441 9.98681 2.55441 10.0061 2.55441 10.0143C2.55441 10.0226 2.55441 10.0309 2.55441 10.0391C2.55563 10.0501 2.55563 10.0612 2.55441 10.0722V10.0942C2.55327 10.1052 2.55327 10.1163 2.55441 10.1272V10.1493C2.53868 10.1578 2.52556 10.1712 2.51667 10.1878V10.2126V10.2401L2.53177 10.2677L2.54435 10.2897L2.567 10.32V10.3365L2.59216 10.3668L2.6123 10.3861L2.63495 10.4081C3.54071 11.1789 4.54785 11.7953 5.62218 12.2364C5.62218 12.5888 5.62218 12.9385 5.6398 13.291C4.10512 12.7479 2.71502 11.8027 1.59055 10.5375C1.45671 10.3678 1.35779 10.1686 1.30047 9.95337C1.24316 9.73816 1.22879 9.51199 1.25835 9.29018C1.28021 9.06811 1.34686 8.85412 1.45349 8.66366C1.56011 8.4732 1.70406 8.311 1.87493 8.18879V8.18879C3.43784 7.01167 4.85989 5.62507 6.10789 4.06135C6.10862 4.05587 6.10862 4.05031 6.10789 4.04483V4.04483C6.95062 2.89439 8.09667 2.05577 9.39027 1.64294C10.6839 1.23011 12.0623 1.2631 13.3382 1.73742V1.73742C13.5513 1.8164 13.775 1.8564 14 1.85582C14.2243 1.85615 14.447 1.81615 14.6594 1.73742C15.9282 1.27052 17.2973 1.24062 18.5821 1.65174C19.8669 2.06287 21.0055 2.89524 21.8444 4.03657V4.03657V4.05033C23.0903 5.60154 24.5081 6.97693 26.0647 8.14474L26.0899 8.16401C26.2636 8.28475 26.4106 8.44619 26.5202 8.63666C26.6299 8.82714 26.6995 9.04189 26.7241 9.2654C26.7471 9.49252 26.7243 9.72239 26.6573 9.93884C26.5904 10.1553 26.4809 10.3531 26.3365 10.5182C25.2177 11.791 23.8257 12.7375 22.2873 13.2717C22.3225 12.9413 22.3301 12.5943 22.3301 12.2364Z" fill="#692300"/>
<path d="M13.9923 10.4164C13.8635 10.4164 13.74 10.4724 13.6489 10.572C13.5578 10.6717 13.5066 10.8069 13.5066 10.9478V17.3056C13.5018 17.3784 13.5108 17.4515 13.533 17.5204C13.5551 17.5892 13.59 17.6523 13.6355 17.7058C13.6809 17.7592 13.736 17.8019 13.7972 17.831C13.8583 17.8602 13.9244 17.8752 13.9911 17.8752C14.0578 17.8752 14.1238 17.8602 14.185 17.831C14.2462 17.8019 14.3012 17.7592 14.3467 17.7058C14.3921 17.6523 14.427 17.5892 14.4492 17.5204C14.4714 17.4515 14.4803 17.3784 14.4755 17.3056V10.9478C14.4755 10.8073 14.4247 10.6726 14.3342 10.573C14.2436 10.4734 14.1207 10.4171 13.9923 10.4164V10.4164Z" fill="#692300"/>
<path d="M13.9925 19.0925C13.9289 19.0922 13.8658 19.1056 13.8069 19.132C13.7479 19.1584 13.6944 19.1973 13.6492 19.2464C13.6041 19.2955 13.5683 19.3539 13.5439 19.4183C13.5194 19.4826 13.5068 19.5515 13.5068 19.6212V21.5486C13.5157 21.6826 13.5705 21.808 13.6604 21.8995C13.7503 21.991 13.8685 22.0418 13.9913 22.0418C14.1141 22.0418 14.2323 21.991 14.3222 21.8995C14.412 21.808 14.4669 21.6826 14.4757 21.5486V19.6212C14.4757 19.481 14.4248 19.3465 14.3342 19.2474C14.2436 19.1482 14.1207 19.0925 13.9925 19.0925Z" fill="#692300"/>
</g>
<defs>
<clipPath id="clip0_32_127">
<rect width="28" height="28" fill="white"/>
</clipPath>
</defs>
</svg>
