<svg width="32" height="28" viewBox="0 0 32 28" fill="none" xmlns="http://www.w3.org/2000/svg">
<g clip-path="url(#clip0_32_132)">
<path d="M5.70686 10.5137C5.66012 10.5157 5.61347 10.5083 5.57047 10.4918C5.52747 10.4754 5.48926 10.4505 5.45874 10.419L4.02213 8.97778L3.66484 9.40529C3.6389 9.4357 3.60628 9.46112 3.56896 9.48001C3.53164 9.4989 3.4904 9.51087 3.44772 9.51519C3.40504 9.51952 3.36182 9.51611 3.32067 9.50517C3.27951 9.49424 3.24129 9.476 3.2083 9.45157L1.43176 8.10291C1.36793 8.05499 1.32815 7.98651 1.32117 7.91253C1.31771 7.8759 1.32241 7.83903 1.335 7.80401C1.34759 7.76899 1.36782 7.73652 1.39454 7.70845C1.42126 7.68038 1.45394 7.65726 1.49072 7.64041C1.5275 7.62355 1.56766 7.6133 1.6089 7.61023C1.69219 7.60403 1.77485 7.62747 1.83868 7.6754L3.37454 8.83233L3.76161 8.37397C3.79088 8.33996 3.82837 8.31221 3.8713 8.29276C3.91424 8.27331 3.96154 8.26266 4.00973 8.26158C4.0564 8.26005 4.10288 8.26776 4.1458 8.28415C4.18871 8.30054 4.22698 8.3252 4.25784 8.35634L5.95498 10.0488C5.9826 10.0761 6.00382 10.1081 6.01742 10.1429C6.03101 10.1776 6.0367 10.2144 6.03416 10.2511C6.03162 10.2878 6.0209 10.3236 6.00263 10.3566C5.98435 10.3896 5.95888 10.419 5.92769 10.4432C5.89794 10.4673 5.86311 10.486 5.82521 10.4981C5.78731 10.5102 5.74709 10.5155 5.70686 10.5137V10.5137Z" fill="#692300"/>
<path d="M2.91053 12.3097H2.86339L0.265578 11.9461C0.18542 11.9322 0.11458 11.891 0.0682098 11.8313C0.0218401 11.7715 0.0036238 11.6981 0.0174579 11.6266C0.0303405 11.5554 0.0736501 11.4914 0.138362 11.4479C0.203074 11.4044 0.284196 11.3847 0.364826 11.393L2.48129 11.6795L2.3076 11.0624C2.29364 11.0155 2.29378 10.9661 2.30803 10.9192C2.32228 10.8723 2.35013 10.8295 2.3888 10.7952C2.42748 10.7608 2.47561 10.7361 2.52842 10.7235C2.58122 10.7108 2.63683 10.7107 2.68971 10.7231L5.40662 11.3269C5.48789 11.345 5.55773 11.3911 5.60077 11.4549C5.64381 11.5188 5.65653 11.5952 5.63613 11.6674C5.61573 11.7395 5.56388 11.8016 5.49199 11.8398C5.4201 11.878 5.33405 11.8893 5.25278 11.8712L3.047 11.3798L3.20828 11.9527C3.22074 11.9975 3.22046 12.0443 3.20746 12.0889C3.19447 12.1335 3.16916 12.1746 3.13384 12.2084C3.10662 12.2381 3.07269 12.2625 3.03424 12.28C2.99578 12.2974 2.95365 12.3076 2.91053 12.3097V12.3097Z" fill="#692300"/>
<path d="M1.71941 16.424C1.65259 16.4236 1.58766 16.4043 1.53398 16.369C1.4803 16.3336 1.44065 16.2841 1.42077 16.2274C1.40089 16.1708 1.40179 16.11 1.42336 16.0538C1.44493 15.9976 1.48604 15.949 1.54076 15.9149L3.1461 14.9211L2.70196 14.4803C2.67334 14.45 2.65197 14.4149 2.63917 14.377C2.62637 14.3391 2.62241 14.2993 2.62753 14.26C2.63471 14.2196 2.65177 14.1811 2.67749 14.1473C2.70321 14.1134 2.73697 14.0849 2.7764 14.0639L4.96233 12.8849C5.03406 12.8466 5.11997 12.8352 5.20117 12.8532C5.28237 12.8711 5.3522 12.917 5.3953 12.9807C5.4384 13.0444 5.45125 13.1208 5.43101 13.1929C5.41077 13.265 5.3591 13.327 5.28737 13.3653L3.4364 14.3547L3.86316 14.7955C3.89166 14.8258 3.91295 14.861 3.92574 14.8989C3.93854 14.9368 3.94257 14.9766 3.9376 15.0158C3.93258 15.0549 3.91826 15.0927 3.89559 15.1265C3.87292 15.1603 3.84241 15.1894 3.8061 15.212L1.90054 16.3733C1.84769 16.4067 1.78429 16.4245 1.71941 16.424Z" fill="#692300"/>
<path d="M6.59751 28C6.54833 28.0001 6.49927 27.9957 6.45112 27.9868C6.30437 27.9525 6.17868 27.8684 6.10116 27.7525C6.02364 27.6367 6.00051 27.4984 6.03676 27.3676L8.63457 18.2664V17.6053C8.63636 17.5372 8.65322 17.4702 8.68418 17.408C8.71514 17.3458 8.75959 17.2896 8.815 17.2426C8.87041 17.1957 8.9357 17.1588 9.00713 17.1343C9.07855 17.1097 9.15473 17.0979 9.2313 17.0995C9.30787 17.1011 9.38334 17.1161 9.4534 17.1436C9.52345 17.1711 9.58673 17.2105 9.6396 17.2598C9.69248 17.309 9.73393 17.367 9.76157 17.4304C9.78922 17.4938 9.80253 17.5615 9.80073 17.6295L9.78585 18.3501C9.78496 18.3888 9.77913 18.4272 9.76848 18.4647L7.1533 27.6144C7.12271 27.7247 7.0513 27.8227 6.95051 27.8926C6.84972 27.9625 6.72541 28.0004 6.59751 28V28Z" fill="#692300"/>
<path d="M9.67656 28C9.59047 27.9989 9.50573 27.9808 9.42844 27.9471C9.29433 27.885 9.19312 27.7786 9.1467 27.6507C9.10027 27.5229 9.11234 27.384 9.18032 27.264L11.1355 23.7623C12.1105 22.0293 12.272 20.0235 11.5846 18.1848C11.5443 18.1195 11.5205 18.0472 11.5151 17.9729C11.5096 17.8986 11.5226 17.8241 11.5531 17.7548C11.5836 17.6854 11.6308 17.6228 11.6915 17.5714C11.7522 17.52 11.8248 17.4811 11.9043 17.4574C11.9837 17.4336 12.0681 17.4256 12.1514 17.434C12.2347 17.4424 12.3149 17.4669 12.3864 17.5058C12.4579 17.5447 12.5189 17.597 12.5652 17.6591C12.6114 17.7213 12.6417 17.7916 12.654 17.8653C13.437 19.9589 13.2532 22.2429 12.1429 24.2163L10.1728 27.7157C10.1271 27.7988 10.0568 27.8692 9.9693 27.9193C9.88183 27.9694 9.7806 27.9973 9.67656 28V28Z" fill="#692300"/>
<path d="M9.02651 7.71301C8.87639 7.71246 8.73246 7.65986 8.62539 7.56641C8.51832 7.47296 8.45658 7.34606 8.45335 7.21277L8.43598 6.20789C8.43452 6.0118 8.41877 5.816 8.38884 5.62171C8.16305 4.21796 9.07117 2.89355 10.5053 2.53655H10.5351L14.3139 1.79612H14.3363C14.7407 1.73221 15.4503 1.46777 15.6637 0.421019C15.6907 0.288056 15.776 0.170057 15.901 0.0929824C16.0259 0.0159074 16.1802 -0.0139308 16.3299 0.0100317C16.4796 0.0339943 16.6125 0.109795 16.6993 0.220758C16.786 0.331721 16.8196 0.468758 16.7927 0.601721C16.5445 1.7873 15.7133 2.60707 14.5596 2.8054L10.7931 3.52601C9.9371 3.74638 9.37883 4.597 9.52026 5.47627C9.55613 5.71149 9.57519 5.94849 9.57733 6.18585L9.60214 7.19734C9.60413 7.33198 9.54598 7.46183 9.44042 7.55848C9.33486 7.65512 9.19049 7.71069 9.03891 7.71301H9.02651Z" fill="#692300"/>
<path d="M12.7359 17.1469C11.3138 17.1452 9.95052 16.6426 8.94494 15.7495C7.93935 14.8564 7.37355 13.6456 7.37158 12.3825C7.37158 10.8686 8.24 9.45165 9.81556 8.38727C10.9941 7.59394 11.0562 6.15053 11.0562 6.13731C11.0621 6.0023 11.1281 5.87491 11.2398 5.78317C11.3515 5.69142 11.4996 5.64283 11.6516 5.64809C11.8037 5.65335 11.9471 5.71203 12.0504 5.81121C12.1537 5.9104 12.2084 6.04197 12.2025 6.17698C12.2025 6.2541 12.1007 8.11622 10.4979 9.19823C9.75353 9.70067 8.51293 10.7805 8.51293 12.3825C8.51293 13.3761 8.95733 14.329 9.74837 15.0316C10.5394 15.7341 11.6123 16.1288 12.731 16.1288C13.3362 16.1248 13.9343 16.0116 14.4887 15.7961C15.0432 15.5805 15.5426 15.2671 15.9565 14.8749C16.3053 14.551 16.5738 14.1658 16.7448 13.7441C16.9157 13.3225 16.9853 12.8736 16.949 12.4266C16.9362 12.2913 16.9844 12.157 17.083 12.0533C17.1817 11.9496 17.3227 11.8849 17.475 11.8735C17.6274 11.8621 17.7786 11.9049 17.8954 11.9925C18.0121 12.0801 18.085 12.2054 18.0978 12.3407C18.149 12.9277 18.0611 13.5177 17.8397 14.0726C17.6184 14.6275 17.2684 15.1351 16.8125 15.5625C16.293 16.0622 15.6625 16.4609 14.9609 16.7336C14.2593 17.0063 13.5018 17.147 12.7359 17.1469Z" fill="#692300"/>
<path d="M11.4236 13.5549C11.9018 13.5549 12.2895 13.2106 12.2895 12.7858C12.2895 12.3611 11.9018 12.0167 11.4236 12.0167C10.9453 12.0167 10.5576 12.3611 10.5576 12.7858C10.5576 13.2106 10.9453 13.5549 11.4236 13.5549Z" fill="#692300"/>
<path d="M31.4245 28C31.2968 27.9996 31.1729 27.9615 31.0723 27.8917C30.9717 27.8219 30.9 27.7243 30.8687 27.6144L28.256 18.4559C28.2441 18.4186 28.2383 18.38 28.2386 18.3413L28.2237 17.6295C28.2211 17.4945 28.2789 17.3641 28.3846 17.267C28.4902 17.1699 28.6349 17.114 28.7869 17.1116C28.939 17.1093 29.0858 17.1607 29.1951 17.2545C29.3045 17.3483 29.3674 17.4769 29.37 17.6119V18.273L31.9703 27.3742C32.0072 27.5054 31.984 27.6442 31.9059 27.7603C31.8277 27.8763 31.701 27.9602 31.5535 27.9934C31.5108 27.9992 31.4676 28.0014 31.4245 28Z" fill="#692300"/>
<path d="M28.3551 28C28.2478 28.0001 28.1426 27.9735 28.0514 27.9232C27.9602 27.873 27.8867 27.8011 27.839 27.7157L25.8838 24.2163C24.7798 22.2407 24.6013 19.9573 25.3876 17.8653C25.4112 17.8017 25.4487 17.743 25.4979 17.6923C25.5471 17.6417 25.607 17.6001 25.6743 17.57C25.7416 17.5399 25.8149 17.5219 25.89 17.517C25.9651 17.5121 26.0406 17.5203 26.1121 17.5413C26.1836 17.5623 26.2498 17.5956 26.3068 17.6393C26.3639 17.683 26.4107 17.7362 26.4445 17.796C26.4784 17.8557 26.4987 17.9208 26.5042 17.9875C26.5098 18.0542 26.5005 18.1213 26.4768 18.1848C25.7886 20.0232 25.9492 22.0289 26.9235 23.7623L28.8811 27.264C28.9491 27.384 28.9612 27.5229 28.9147 27.6507C28.8683 27.7786 28.7671 27.885 28.633 27.9471C28.5467 27.9849 28.4512 28.0031 28.3551 28Z" fill="#692300"/>
<path d="M28.9952 7.71308C28.92 7.71194 28.8457 7.69763 28.7766 7.67098C28.7076 7.64433 28.6451 7.60587 28.5928 7.55778C28.5405 7.50969 28.4994 7.45291 28.4718 7.39071C28.4442 7.3285 28.4307 7.26207 28.432 7.19522L28.4543 6.18373C28.4572 5.94632 28.4771 5.70931 28.5139 5.47414C28.6553 4.59267 28.097 3.73984 27.241 3.52388L23.4746 2.79446C22.3109 2.60495 21.4722 1.78518 21.2415 0.601798C21.2142 0.468835 21.2475 0.331683 21.334 0.220513C21.4206 0.109343 21.5533 0.0332624 21.703 0.00900761C21.8527 -0.0152472 22.0071 0.0143108 22.1323 0.0911792C22.2575 0.168048 22.3431 0.28593 22.3704 0.418893C22.5838 1.46564 23.2934 1.73008 23.6979 1.79399H23.7202L27.504 2.53443H27.5338C28.9655 2.88481 29.8761 4.20923 29.6478 5.61959C29.6201 5.81404 29.6052 6.00977 29.6031 6.20576L29.5783 7.21726C29.5744 7.3515 29.5109 7.47893 29.4017 7.5718C29.2925 7.66467 29.1464 7.71545 28.9952 7.71308V7.71308Z" fill="#692300"/>
<path d="M25.2884 17.1468C24.5226 17.1469 23.765 17.0062 23.0634 16.7335C22.3618 16.4608 21.7314 16.0621 21.2118 15.5624C20.7559 15.135 20.406 14.6274 20.1846 14.0725C19.9632 13.5176 19.8753 12.9276 19.9265 12.3406C19.939 12.2059 20.0113 12.0811 20.1274 11.9937C20.1849 11.9504 20.2514 11.9176 20.3231 11.8971C20.3949 11.8767 20.4705 11.869 20.5456 11.8745C20.6207 11.88 20.6939 11.8986 20.7609 11.9292C20.8279 11.9598 20.8875 12.0018 20.9362 12.0529C20.9849 12.1039 21.0219 12.163 21.0449 12.2267C21.0679 12.2905 21.0766 12.3576 21.0704 12.4243C21.033 12.8714 21.1021 13.3205 21.2731 13.7423C21.4441 14.1642 21.7132 14.5493 22.0628 14.8726C22.4768 15.2648 22.9761 15.5782 23.5306 15.7938C24.0851 16.0093 24.6831 16.1225 25.2884 16.1265C26.4071 16.1265 27.48 15.7318 28.271 15.0292C29.062 14.3267 29.5064 13.3738 29.5064 12.3802C29.5064 10.7782 28.2658 9.69836 27.5215 9.19592C25.9087 8.11611 25.8045 6.254 25.8045 6.17026C25.7986 6.03525 25.8533 5.90368 25.9566 5.8045C26.0599 5.70531 26.2033 5.64664 26.3553 5.64138C26.5073 5.63612 26.6555 5.68471 26.7671 5.77645C26.8788 5.8682 26.9449 5.99559 26.9508 6.1306C26.9508 6.14382 27.0401 7.59384 28.2038 8.38056C29.7819 9.44494 30.6503 10.8619 30.6503 12.3758C30.6503 13.6396 30.0857 14.8518 29.0804 15.7463C28.0752 16.6408 26.7114 17.1445 25.2884 17.1468Z" fill="#692300"/>
<path d="M26.6008 13.5549C27.079 13.5549 27.4667 13.2106 27.4667 12.7858C27.4667 12.3611 27.079 12.0167 26.6008 12.0167C26.1226 12.0167 25.7349 12.3611 25.7349 12.7858C25.7349 13.2106 26.1226 13.5549 26.6008 13.5549Z" fill="#692300"/>
</g>
<defs>
<clipPath id="clip0_32_132">
<rect width="32" height="28" fill="white"/>
</clipPath>
</defs>
</svg>
