<svg width="162" height="560" viewBox="0 0 162 560" fill="none" xmlns="http://www.w3.org/2000/svg">
<path fill-rule="evenodd" clip-rule="evenodd" d="M95.4093 0.151094C47.8571 6.18759 54.0172 74.7295 56.1589 90.9701C53.8177 91.4911 51.6225 92.3815 49.6439 93.5619C47.9009 94.142 46.4011 94.7896 45.2546 95.5119C39.0492 99.4347 33.2896 112.35 28.6123 126.434C26.7421 123.003 24.6967 118.315 25.5504 115.429C25.1015 115.236 24.6006 115.182 24.1183 115.275C23.6359 115.369 23.1962 115.605 22.8612 115.95C21.4435 118.157 20.9678 120.801 21.5327 123.334C21.5327 123.334 6.15014 112.35 5.63793 114.019C5.12571 115.689 12.5048 122.247 12.5048 122.247C12.5048 122.247 0.307672 113.636 0.371699 115.429C0.371699 115.502 0.371699 115.559 0.382564 115.614C0.423279 115.821 0.61657 115.998 1.5342 116.837L1.53425 116.837C2.69676 117.899 5.02174 120.025 9.67163 124.621C9.67163 124.621 -0.940856 119.213 0.0675706 121.174C1.30009 123.61 8.34307 128.926 8.34307 128.926C8.34307 128.926 0.0675706 124.79 0.96395 126.322C1.86033 127.854 21.5487 141.643 21.5487 141.643L23.4793 143.696C19.4487 158.703 17.0187 171.303 17.0187 171.303L20.5657 171.666C17.0577 188.181 15.8908 200.072 18.5391 202.174C19.8277 204.135 25.9967 211.195 50.8379 210.343C43.6263 229.459 34.7231 265.699 35.4744 327.176L41.1408 532.717H53.0726C52.9089 537.508 52.5508 542.967 51.7691 542.967C33.7935 543.687 30.5922 554.504 30.5922 554.504L77.6361 553.998L77.1861 532.717H81.862L94.7054 265.692L97.031 265.839L112.147 532.717H118.748C118.585 537.508 118.227 542.967 117.445 542.967C99.4694 543.687 96.268 554.504 96.268 554.504L95.2754 559.406L143.52 558.916L143.312 553.998L142.862 532.717H149.875L155.589 327.191C157.572 245.371 143.745 210.937 135.618 197.891C136.388 196.3 137.174 194.593 137.969 192.78C145.052 191.779 154.112 190.412 155.045 189.841C156.597 188.891 147.314 188.753 147.314 188.753C147.314 188.753 156.117 187.221 158.422 185.689C160.263 184.372 148.242 184.372 148.242 184.372C148.727 184.225 149.193 184.085 149.641 183.952L151.94 184.387C151.94 184.387 152.046 183.964 152.236 183.185C156.023 182.08 158.124 181.529 159.315 181.217L159.315 181.217C160.552 180.893 160.806 180.827 160.946 180.663C160.983 180.621 161.011 180.572 161.047 180.511C161.58 179.647 157.004 179.952 152.911 180.382L153.028 179.889C153.08 179.667 153.134 179.438 153.19 179.202C155.141 178.483 156.826 177.675 156.982 176.987C157.085 176.53 155.787 176.39 153.835 176.431C156.603 164.407 161.446 141.667 161.64 129.003C161.88 113.169 150.551 102.576 139.184 95.9467C151.032 -8.02684 95.4093 0.151094 95.4093 0.151094ZM52.0005 174.882L49.7757 174.655C48.9062 177.697 48.1784 180.607 47.6234 183.345C50.5034 183.504 53.1268 183.664 55.5308 183.822C54.2809 181.214 53.1037 178.186 52.0005 174.882ZM30.5924 554.504L29.616 559.406L77.8444 558.916L77.6363 553.998L30.5924 554.504Z" fill="#4E4E4E"/>
</svg>
