<svg width="60" height="205" viewBox="0 0 60 205" fill="none" xmlns="http://www.w3.org/2000/svg">
<path d="M20.0641 194.803L19.9177 186.622L28.2543 186.655L27.8152 194.803H20.0641Z" fill="#F3F0ED"/>
<path d="M19.9177 188.152L28.143 188.224" stroke="#323232" stroke-width="0.93" stroke-miterlimit="10"/>
<path d="M11.1892 202.805C11.1892 202.805 12.3601 198.849 18.9345 198.585C19.4438 198.585 19.4614 192.248 19.4614 192.248L28.1784 192.377L28.3951 202.62L11.1892 202.805Z" fill="#FD5852"/>
<path d="M11.1889 202.805L10.8318 204.598L28.4708 204.419L28.3947 202.62L11.1889 202.805Z" fill="#F3F0ED"/>
<path d="M44.0843 194.803L43.938 186.622L52.2687 186.655L51.8355 194.803H44.0843Z" fill="#F3F0ED"/>
<path d="M43.938 188.152L52.1633 188.224" stroke="#323232" stroke-width="0.93" stroke-miterlimit="10"/>
<path d="M35.2092 202.805C35.2092 202.805 36.3801 198.849 42.9545 198.585C43.4638 198.585 43.4814 192.248 43.4814 192.248L52.1985 192.377L52.4151 202.62L35.2092 202.805Z" fill="#FD5852"/>
<path d="M35.2092 202.805L34.8462 204.598L52.4911 204.419L52.415 202.62L35.2092 202.805Z" fill="#F3F0ED"/>
<path d="M47.5378 69.7964C47.5378 69.7964 57.9234 77.6411 56.9047 119.666L54.8147 194.836H41.0161L33.95 70.0766L47.5378 69.7964Z" fill="#48485E"/>
<path d="M21.8141 70.4197C21.8141 70.4197 12.5174 82.2933 12.9741 119.662L15.0465 194.837H29.9399L35.9405 70.0779L21.8141 70.4197Z" fill="#48485E"/>
<path d="M44.0955 78.7288H24.9109V97.091H44.0955V78.7288Z" fill="#48485E"/>
<path d="M37.3105 97.0902L29.0032 96.5635" stroke="#594897" stroke-width="1.38" stroke-miterlimit="10"/>
<path d="M20.7245 34.5279C20.7245 34.5279 15.1519 2.56154 34.895 0.0552612C34.895 0.0552612 55.9347 -3.03808 50.6633 37.0624L20.7245 34.5279Z" fill="#2E2766"/>
<path d="M38.1934 3.18471C38.9395 3.46949 39.6364 3.87021 40.2585 4.3722C46.0754 8.93808 43.7321 19.2158 39.4419 24.1617C37.075 26.9048 33.3529 28.4485 29.8734 27.5341C24.7903 26.1566 22.6897 20.7773 23.1808 15.6889C23.5037 11.8835 25.2322 8.33638 28.0272 5.74375C30.8143 3.2619 34.7967 1.92598 38.1934 3.18471Z" fill="#FEC5A7"/>
<path d="M40.7764 19.978C41.3174 20.3679 41.9563 20.6141 42.6286 20.6918C43.3009 20.7696 43.9827 20.676 44.6051 20.4207C45.2077 20.1235 45.7253 19.69 46.113 19.1578C46.5007 18.6256 46.7467 18.0108 46.8297 17.3669C46.9296 16.7942 46.8665 16.2063 46.6471 15.665C46.4277 15.1237 46.06 14.6489 45.5828 14.2906C45.0726 13.9801 44.4588 13.8653 43.864 13.9692C43.2692 14.0731 42.7373 14.388 42.3746 14.8509L40.7764 19.978Z" fill="#FEC5A7"/>
<path d="M41.7894 16.7893L42.5914 33.4201C42.6878 34.8995 42.1899 36.3582 41.1996 37.4978C40.2092 38.6374 38.8013 39.3716 37.264 39.5502V39.5502C36.3959 39.6538 35.5148 39.5767 34.6807 39.3243C33.8466 39.0719 33.0793 38.6501 32.4312 38.0878C31.7831 37.5255 31.2695 36.8358 30.9255 36.066C30.5815 35.2963 30.4151 34.4644 30.4378 33.6275L30.7481 18.0781L41.7894 16.7893Z" fill="#FEC5A7"/>
<path d="M30.1138 29.932V27.6458C31.7515 27.8463 33.4157 27.6467 34.9511 27.0657C36.4866 26.4847 37.8434 25.5412 38.8952 24.323C38.8952 24.323 36.8931 28.8729 30.1138 29.932Z" fill="#111010"/>
<path d="M43.4108 14.0996C37.1876 14.4022 31.1167 10.9729 27.4402 6.15399C27.4402 6.15399 32.2173 0.248027 39.1488 2.18119C46.2969 4.16479 43.4108 14.0996 43.4108 14.0996Z" fill="#2E2766"/>
<path d="M43.136 17.9758C43.2886 17.9938 43.4434 17.9829 43.5916 17.9437C43.7398 17.9044 43.8785 17.8376 43.9997 17.7471C44.1209 17.6566 44.2224 17.5441 44.2982 17.416C44.374 17.288 44.4227 17.1469 44.4415 17.0008C44.4237 16.7916 44.3371 16.5931 44.194 16.4341C44.051 16.275 43.8588 16.1634 43.6453 16.1155" stroke="#B05959" stroke-width="0.93" stroke-miterlimit="10" stroke-linecap="round"/>
<path d="M51.8879 36.6754C49.5977 34.0882 46.4048 32.384 42.9016 31.8789C41.0321 33.1587 38.7543 33.7731 36.4618 33.6159C33.0253 33.4422 31.1402 32.372 30.3323 31.7612C27.0648 32.0286 23.8225 32.5268 20.6317 33.2517C16.5805 34.1034 13.6944 37.9754 14.6662 41.8361C14.6662 41.8361 17.687 69.1806 23.3013 70.6711H46.4434C52.0519 68.3849 53.5564 40.9228 53.5564 40.9228C53.855 39.5387 53.0588 38.0314 51.8879 36.6754Z" fill="#FDAE20"/>
<path d="M23.8572 48.9413C21.0764 55.346 18.442 62.0028 17.4175 67.057C29.7115 67.735 29.2198 68.4859 37.5973 67.2307C39.7517 66.9001 41.7421 66.5863 43.2643 66.3398L44.7044 66.1101L46.1563 65.8747C46.1563 65.8747 50.3304 63.7342 50.7461 61.9131C50.9216 61.9237 51.0895 61.9859 51.2267 62.0912C51.364 62.1965 51.4639 62.3398 51.513 62.5015C51.5734 63.4452 51.2504 64.3748 50.6114 65.0958C50.6114 65.0958 57.5546 64.1097 57.4141 64.7316C57.2736 65.3536 53.7142 66.2445 53.7142 66.2445C53.7142 66.2445 59.2465 65.4601 58.9011 66.0204C58.7723 66.2389 58.9011 66.0204 54.2177 67.4325C54.2177 67.4325 58.6143 67.4325 57.941 67.9143C57.098 68.4747 53.8781 69.035 53.8781 69.035C53.8781 69.035 57.2736 69.0855 56.7058 69.4329C56.1379 69.7803 47.3389 70.9346 47.3389 70.9346L44.5405 71.9152C42.2515 72.5932 40.1029 73.1535 38.1008 73.5962L35.6302 74.2798C11.9203 79.9672 7.46512 74.9858 6.78016 73.9436C4.9946 72.5259 7.95102 58.9433 12.2715 45.0245C12.6736 43.707 13.5491 42.5678 14.7435 41.8081C15.9378 41.0484 17.3742 40.717 18.7991 40.8724H18.9806C19.9192 40.9791 20.819 41.2936 21.6086 41.7911C22.3981 42.2886 23.0556 42.9554 23.5289 43.7386C24.0022 44.5217 24.2784 45.3997 24.3353 46.3028C24.3923 47.2059 24.2286 48.1093 23.8572 48.9413V48.9413Z" fill="#FEC5A7"/>
<path d="M30.8474 32.479C30.8474 32.479 19.8061 32.8824 16.5511 34.9333C10.8783 38.5194 6.22412 62.6532 6.22412 62.6532L26.8723 64.7657L36.6783 47.0478L30.8474 32.479Z" fill="#FDAE20"/>
<path d="M44.5644 48.7789C43.8443 55.6711 42.9778 62.227 39.7463 66.3511C28.5879 61.3697 25.0695 57.8228 18.3136 52.903C16.5573 51.6311 14.9825 50.4487 13.7648 49.541L12.5939 48.6837L11.4231 47.8208C11.4231 47.8208 8.80619 44.0385 9.34479 42.2174C9.18063 42.1467 8.99744 42.1271 8.82101 42.1612C8.64458 42.1954 8.48379 42.2817 8.36126 42.4079C7.84275 43.215 7.66875 44.1821 7.87535 45.1087C7.87535 45.1087 2.24935 41.0911 2.06202 41.7019C1.87468 42.3126 4.57352 44.7109 4.57352 44.7109C4.57352 44.7109 0.112528 41.5618 0.135945 42.2174C0.135945 42.4695 0.135945 42.2174 3.5373 45.5794C3.5373 45.5794 -0.344109 43.6014 0.0247133 44.3186C0.475496 45.2096 3.0514 47.154 3.0514 47.154C3.0514 47.154 0.0247133 45.641 0.352555 46.2014C0.680397 46.7617 7.88121 51.8048 7.88121 51.8048L9.88338 53.934C11.5655 55.5702 13.1813 57.0477 14.7308 58.3663L16.5632 60.0922C38.0544 80.466 44.822 78.023 45.9401 77.4626C48.2116 77.0256 53.5917 64.8662 56.7062 50.6673C57.2917 47.8656 55.4241 45.0135 52.6667 43.9432C52.6141 43.9432 52.9009 43.9768 52.8424 43.9432C51.968 43.6154 51.0262 43.4855 50.0907 43.5639C49.1552 43.6423 48.2513 43.9267 47.4497 44.395C46.6481 44.8632 45.9705 45.5026 45.47 46.2632C44.9694 47.0237 44.6595 47.8847 44.5644 48.7789Z" fill="#FCB99C"/>
<path d="M42.6086 31.7007C42.6086 31.7007 59.2934 35.6231 59.1178 47.1828C59.0183 53.6827 55.5701 67.439 55.5701 67.439L39.4531 64.3852L42.6086 31.7007Z" fill="#FDAE20"/>
<path d="M41.6367 58.4541L40.2493 64.2704" stroke="#2E2766" stroke-width="1.5" stroke-miterlimit="10"/>
<path d="M31.6711 16.7531C31.6647 16.9438 31.704 17.1325 31.784 17.2955C31.8641 17.4584 31.9812 17.5883 32.1208 17.6687C32.2603 17.749 32.4159 17.7763 32.5679 17.747C32.7199 17.7177 32.8615 17.6332 32.9748 17.5042C33.0881 17.3751 33.168 17.2073 33.2044 17.0219C33.2408 16.8365 33.2322 16.6419 33.1795 16.4626C33.1267 16.2833 33.0324 16.1275 32.9083 16.0147C32.7842 15.9019 32.6359 15.8373 32.4823 15.829C32.3801 15.8235 32.278 15.8431 32.1819 15.8865C32.0858 15.93 31.9975 15.9966 31.9222 16.0824C31.8468 16.1682 31.7859 16.2717 31.7428 16.3868C31.6997 16.5018 31.6753 16.6263 31.6711 16.7531V16.7531Z" fill="#2E2766"/>
<path d="M24.6682 15.9812C24.6618 16.1718 24.7011 16.3605 24.7811 16.5235C24.8611 16.6864 24.9783 16.8163 25.1178 16.8967C25.2573 16.9771 25.4129 17.0043 25.5649 16.9751C25.7169 16.9458 25.8585 16.8613 25.9718 16.7322C26.0851 16.6031 26.1651 16.4353 26.2015 16.2499C26.2379 16.0645 26.2292 15.8699 26.1765 15.6906C26.1238 15.5114 26.0295 15.3555 25.9054 15.2427C25.7813 15.13 25.633 15.0653 25.4793 15.0571C25.3771 15.0516 25.2751 15.0711 25.179 15.1146C25.0829 15.1581 24.9946 15.2246 24.9193 15.3104C24.8439 15.3963 24.783 15.4997 24.7399 15.6148C24.6968 15.7299 24.6724 15.8544 24.6682 15.9812V15.9812Z" fill="#2E2766"/>
<path d="M27.0144 20.4618C27.0796 20.465 27.1436 20.4442 27.1928 20.4038C27.242 20.3634 27.2726 20.3065 27.278 20.2453C27.2835 20.184 27.2634 20.1231 27.222 20.0756C27.1806 20.028 27.1212 19.9975 27.0563 19.9905C26.9758 19.9116 26.9086 19.8217 26.8567 19.7238C26.6213 19.3482 26.759 19.2242 27.0902 18.9388C27.3412 18.7521 27.5387 18.5094 27.6648 18.2327C27.7579 17.9529 27.7951 17.6594 27.7745 17.3669V17.2317C27.7745 17.1669 27.7472 17.1048 27.6986 17.0591C27.6499 17.0133 27.584 16.9875 27.5152 16.9875C27.4464 16.9875 27.3804 17.0133 27.3318 17.0591C27.2831 17.1048 27.2558 17.1669 27.2558 17.2317V17.3688C27.2742 17.6048 27.2478 17.842 27.178 18.0693C27.0762 18.2722 26.9252 18.4498 26.737 18.5876C26.4118 18.8674 25.9689 19.2505 26.4078 19.9604C26.6313 20.3116 26.8109 20.4618 27.0144 20.4618Z" fill="#2E2766"/>
<path d="M24.9352 13.5126C24.8752 13.5132 24.8167 13.4943 24.7693 13.459C24.722 13.4237 24.6886 13.374 24.6747 13.3183C24.6608 13.2625 24.6671 13.2039 24.6926 13.152C24.7182 13.1001 24.7614 13.058 24.8153 13.0326C25.4393 12.7515 26.1419 12.6705 26.8181 12.8017C26.8819 12.8217 26.9355 12.864 26.9681 12.9201C27.0007 12.9762 27.01 13.042 26.9941 13.1044C26.9782 13.1667 26.9382 13.221 26.8822 13.2565C26.8262 13.2919 26.7582 13.306 26.6919 13.2957C26.1384 13.1915 25.5646 13.2576 25.053 13.4845C25.0166 13.5025 24.9763 13.5121 24.9352 13.5126V13.5126Z" fill="#2E2766"/>
<path d="M32.2477 13.857C32.1934 13.8316 32.149 13.7894 32.1218 13.7372C32.0947 13.685 32.0863 13.6259 32.0982 13.5696C32.1101 13.5134 32.1415 13.4633 32.1872 13.4276C32.2329 13.3919 32.2903 13.3726 32.3499 13.373C33.0351 13.3889 33.7033 13.6189 34.2548 14.0287C34.3035 14.0743 34.3333 14.1355 34.3381 14.2001C34.3429 14.2647 34.3224 14.328 34.2808 14.3772C34.2392 14.4265 34.1794 14.4582 34.1134 14.466C34.0474 14.4738 33.9801 14.4571 33.9248 14.4192C33.472 14.0867 32.9263 13.8988 32.3662 13.8825C32.3255 13.883 32.2849 13.8743 32.2477 13.857V13.857Z" fill="#2E2766"/>
<path d="M29.1102 23.55C28.9695 23.55 28.837 23.55 28.7208 23.55C28.347 23.5385 27.9772 23.474 27.6239 23.359C27.4851 23.3129 27.3518 23.2534 27.2263 23.1813C26.9816 23.038 26.9816 22.8965 27.0224 22.7991C27.0467 22.746 27.0905 22.7027 27.1458 22.6772C27.2011 22.6516 27.2644 22.6454 27.3242 22.6596C27.3803 22.6721 27.43 22.7025 27.4648 22.7456L27.5015 22.7743C27.5962 22.8261 27.6959 22.8696 27.7992 22.9042C28.1039 23.002 28.4232 23.0542 28.7452 23.059C29.4711 23.0934 30.8147 23.059 31.6404 22.4437C31.6945 22.4039 31.7632 22.3859 31.8315 22.3936C31.8997 22.4013 31.9619 22.4341 32.0043 22.4848C32.0468 22.5354 32.066 22.5999 32.0578 22.6638C32.0496 22.7278 32.0146 22.7861 31.9605 22.8258C31.145 23.4335 29.942 23.55 29.1102 23.55Z" fill="#2E2766"/>
</svg>
