<svg width="167" height="528" viewBox="0 0 167 528" fill="none" xmlns="http://www.w3.org/2000/svg">
<path d="M121.647 499.299H94.2966V509.899H121.647V499.299Z" fill="#4E4E4E"/>
<path d="M150.388 523.242C149.909 519.572 148.013 516.191 145.057 513.734C142.101 511.277 138.287 509.913 134.331 509.898H93.8596V525.957H94.297V523.242H150.388Z" fill="#4E4E4E"/>
<path d="M150.388 523.242H94.2966V525.987V527.111H150.513V525.987V525.081V523.242H150.388Z" fill="#4E4E4E"/>
<path d="M64.0407 499.299H36.6902V509.899H64.0407V499.299Z" fill="#4E4E4E"/>
<path d="M24.0703 509.898C20.1028 509.896 16.2719 511.253 13.3017 513.712C10.3315 516.17 8.42789 519.561 7.95056 523.242H64.0418V509.898H24.0703Z" fill="#4E4E4E"/>
<path d="M7.9504 523.242H7.82544V525.082V525.987V527.111H64.0416V525.987V523.242H7.9504Z" fill="#4E4E4E"/>
<path d="M41.1745 308.122L29.6782 295.756C29.1609 295.104 28.7454 294.386 28.4442 293.625L32.3961 297.143C32.8003 297.5 33.2802 297.775 33.8048 297.948C34.3294 298.122 34.8871 298.191 35.4419 298.15C36.2208 298.093 36.9642 297.822 37.5797 297.372C38.1953 296.923 38.6557 296.314 38.9038 295.621C39.1518 294.929 39.1765 294.183 38.9748 293.478C38.7731 292.773 38.3539 292.138 37.7693 291.654L32.8022 287.172C30.2327 283.616 26.8299 280.656 22.8523 278.514H2.17146L2.32766 280.777C1.56536 287.723 1.83344 294.733 3.12427 301.61L4.28015 314.21C4.32819 314.732 4.49185 315.239 4.76074 315.699C5.02964 316.159 5.3979 316.561 5.84214 316.881C6.27906 317.201 6.78246 317.433 7.3203 317.561C7.85814 317.689 8.41864 317.711 8.96613 317.626C9.95013 317.449 10.8307 316.942 11.4411 316.199C12.0514 315.457 12.349 314.53 12.2776 313.596L11.9339 308.545C12.1205 308.789 12.263 309.061 12.3557 309.348L16.1825 321.757C16.314 322.255 16.5557 322.721 16.892 323.126C17.2283 323.531 17.6518 323.865 18.135 324.108C18.8359 324.432 19.6237 324.556 20.3994 324.463C21.1752 324.37 21.9043 324.065 22.4952 323.586C23.086 323.107 23.5122 322.476 23.7203 321.771C23.9283 321.067 23.9089 320.32 23.6645 319.626L19.9938 307.684C19.9759 307.631 19.9759 307.575 19.9938 307.523C20.0089 307.495 20.031 307.472 20.0583 307.454C20.0855 307.436 20.117 307.425 20.15 307.421L26.398 320.02C26.6321 320.492 26.9696 320.912 27.3888 321.254C27.808 321.596 28.2994 321.851 28.8312 322.004C29.3629 322.157 29.9231 322.204 30.4754 322.141C31.0276 322.078 31.5596 321.908 32.0368 321.641C32.8919 321.148 33.5235 320.38 33.8115 319.481C34.0996 318.581 34.0238 317.615 33.5988 316.764L27.7101 304.983L34.7703 312.618C35.4684 313.356 36.4124 313.853 37.4497 314.028C38.4871 314.203 39.5572 314.046 40.4872 313.582L40.7371 313.407C41.134 313.089 41.4599 312.701 41.696 312.266C41.9321 311.83 42.0738 311.355 42.113 310.868C42.1522 310.381 42.0881 309.891 41.9243 309.428C41.7606 308.964 41.5004 308.535 41.1588 308.165L41.1745 308.122Z" fill="#4E4E4E"/>
<path d="M26.6934 293.216C26.6828 297.179 27.7583 301.08 29.8174 304.545L28.2086 497.722C28.229 498.556 28.5989 499.349 29.2387 499.931C29.8784 500.512 30.7369 500.836 31.6293 500.832H66.8367C67.7138 500.845 68.5622 500.541 69.2053 499.983C69.8484 499.425 70.2365 498.657 70.2887 497.839L77.6926 316.487H80.9884L89.7199 497.839C89.7641 498.654 90.1428 499.421 90.7771 499.981C91.4114 500.541 92.2524 500.851 93.1251 500.847H124.677C125.571 500.85 126.43 500.524 127.068 499.939C127.705 499.354 128.07 498.557 128.083 497.722L130.691 298.851C131.319 296.765 131.639 294.609 131.644 292.442V272.295H26.6934V293.216Z" fill="#4E4E4E"/>
<path d="M43.6103 291.799C41.1017 291.796 38.6036 291.497 36.1752 290.909C36.0263 290.865 35.9012 290.769 35.8256 290.641C35.7501 290.514 35.7298 290.364 35.7691 290.223C35.8159 290.084 35.9191 289.968 36.0564 289.9C36.1936 289.832 36.3541 289.816 36.5032 289.858C36.6126 289.858 47.4372 292.778 54.5755 287.697C58.7617 284.777 60.8235 279.682 60.8235 272.601C60.8463 272.471 60.9177 272.353 61.025 272.268C61.1323 272.183 61.2685 272.136 61.4092 272.136C61.55 272.136 61.6862 272.183 61.7935 272.268C61.9008 272.353 61.9722 272.471 61.995 272.601C61.995 280.047 59.7145 285.419 55.2159 288.573C51.8191 290.787 47.7494 291.918 43.6103 291.799V291.799Z" fill="#4E4E4E"/>
<path d="M112.009 292.237C108.454 292.335 104.953 291.407 101.981 289.58C97.2953 286.471 94.843 280.821 94.843 272.601C94.8658 272.471 94.9372 272.353 95.0445 272.268C95.1518 272.183 95.288 272.136 95.4288 272.136C95.5696 272.136 95.7058 272.183 95.813 272.268C95.9203 272.353 95.9918 272.471 96.0145 272.601C96.0145 280.368 98.2482 285.741 102.653 288.661C109.744 293.332 120.257 289.887 120.35 289.843C120.423 289.818 120.501 289.806 120.578 289.81C120.656 289.813 120.732 289.831 120.801 289.862C120.871 289.894 120.934 289.938 120.985 289.992C121.037 290.047 121.076 290.11 121.1 290.179C121.151 290.314 121.144 290.463 121.08 290.594C121.016 290.725 120.9 290.827 120.756 290.88C117.935 291.757 114.983 292.215 112.009 292.237V292.237Z" fill="#4E4E4E"/>
<path d="M131.644 258.601H24.5697V272.295H131.644V258.601Z" fill="#4E4E4E"/>
<path d="M111.667 93.1323C110.714 92.9133 109.761 92.7235 108.793 92.5337C103.649 91.5874 98.4158 91.1277 93.1731 91.1614H73.6638C67.8996 91.1308 62.1457 91.6197 56.4819 92.6213C42.5957 95.2346 0.00012207 99.4246 0.00012207 137.018V278.514H29.3656L30.131 262.747H130.817L130.255 274.616L137.253 275.375L162.057 278.076L166.118 278.514L166.618 159.515C166.759 128.229 144.235 100.374 111.667 93.1323Z" fill="#4E4E4E"/>
<path d="M131.644 258.601L129.52 146.77L115.556 137.967L125.115 151.53L131.644 258.601Z" fill="#4E4E4E"/>
<path d="M30.13 262.747L31.4889 153.311L42.954 142.215L35.6595 155.647L30.13 262.747Z" fill="#4E4E4E"/>
<path d="M131.332 281.376L126.271 285.872C125.533 286.506 125.073 287.373 124.977 288.306C124.882 289.238 125.159 290.171 125.755 290.924C126.091 291.342 126.518 291.688 127.009 291.94C127.499 292.192 128.041 292.343 128.598 292.384C129.166 292.432 129.738 292.368 130.276 292.194C130.815 292.021 131.308 291.742 131.722 291.376L135.659 287.858C135.364 288.624 134.953 289.346 134.44 290.004L122.991 302.355C122.303 303.101 121.959 304.072 122.036 305.054C122.112 306.036 122.601 306.95 123.397 307.596L123.662 307.771C124.591 308.237 125.66 308.396 126.697 308.224C127.734 308.052 128.679 307.558 129.379 306.822L136.44 299.187L130.473 310.968C130.047 311.821 129.97 312.79 130.258 313.692C130.546 314.593 131.178 315.364 132.035 315.859C132.514 316.122 133.047 316.289 133.599 316.35C134.152 316.41 134.711 316.363 135.243 316.21C135.774 316.058 136.266 315.804 136.688 315.465C137.109 315.125 137.45 314.708 137.689 314.239L143.937 301.625C143.995 301.645 144.044 301.684 144.072 301.735C144.101 301.787 144.109 301.846 144.093 301.902L140.407 313.83C140.12 314.728 140.197 315.694 140.623 316.542C141.05 317.39 141.796 318.062 142.719 318.429C143.188 318.614 143.693 318.708 144.203 318.706C145.062 318.701 145.898 318.437 146.584 317.953C147.271 317.469 147.772 316.791 148.014 316.02L151.841 303.61C151.93 303.322 152.073 303.05 152.263 302.807L151.919 307.859C151.847 308.793 152.145 309.719 152.755 310.462C153.366 311.204 154.246 311.712 155.23 311.888C155.781 311.984 156.348 311.97 156.893 311.846C157.438 311.723 157.948 311.493 158.391 311.171C158.834 310.85 159.199 310.445 159.462 309.982C159.724 309.519 159.879 309.009 159.916 308.487L161.072 295.96C162.108 290.066 162.464 284.085 162.134 278.12L137.33 275.419C135.012 277.102 132.989 279.112 131.332 281.376V281.376Z" fill="#4E4E4E"/>
<path d="M97.1555 95.9501L82.7851 152.157C81.9341 153.986 80.5511 155.556 78.7932 156.686C77.0354 157.817 74.9733 158.464 72.8415 158.554C70.7098 158.644 68.5938 158.172 66.7343 157.194C64.8749 156.215 63.3465 154.769 62.323 153.019L46.8593 94.096L50.7174 93.1178C64.7753 91.5411 79.9892 92.8697 93.9222 95.3661L97.2023 95.9501H97.1555Z" fill="#4E4E4E"/>
<path d="M105.622 30.2679C105.522 26.6693 104.447 23.153 102.498 20.0484C101.482 18.4669 100.136 17.0931 98.5387 16.0094C96.9417 14.9257 95.1272 14.1544 93.2038 13.7416C89.1582 12.997 84.9252 14.2525 80.9577 12.8656C77.3288 11.5761 74.2177 9.26523 72.0544 6.25213C69.727 3.01109 65.6033 0.0912306 58.3244 0.00363493C57.4175 -0.0109351 56.5103 0.0183025 55.6066 0.0912306C36.4409 1.46356 29.7868 18.5885 32.3329 33.9616C32.4968 35.9895 33.3136 37.9235 34.6758 39.5093C36.1142 40.7593 37.9106 41.5912 39.846 41.9036L39.2525 45.4512C38.6387 49.2344 39.4639 53.0991 41.5845 56.3722C43.7051 59.6454 46.9868 62.1197 50.8581 63.3645C49.4789 68.4582 50.1756 73.8492 52.8129 78.4893C55.4501 83.1295 59.8394 86.6871 65.1273 88.4705C70.4151 90.2539 76.2236 90.1356 81.4232 88.1385C86.6229 86.1415 90.8422 82.4085 93.2606 77.6653C95.6791 72.9222 96.1238 67.5079 94.5084 62.4753C92.8931 57.4426 89.333 53.1513 84.5204 50.4358C79.7079 47.7202 73.9868 46.7745 68.4697 47.7825C62.9525 48.7905 58.0336 51.6802 54.6694 55.8897V43.8015L66.1188 45.2614L83.7225 47.5827C84.2627 48.4901 85.0468 49.2502 85.9973 49.7878C86.9478 50.3255 88.0319 50.6221 89.1426 50.6485V50.6485C89.9607 50.8038 90.8098 50.7269 91.5808 50.4278C92.3518 50.1286 93.0094 49.6208 93.4693 48.9696C95.8088 49.2426 98.1735 48.6965 100.108 47.4367C102.033 45.8469 103.4 43.7503 104.028 41.4218C105.274 37.8238 105.813 34.0452 105.622 30.2679Z" fill="#4E4E4E"/>
<path d="M96.624 47.2032L94.2029 46.9842L93.9374 47.6266C93.828 49.8457 91.5788 50.8968 89.2514 50.6194C84.9403 50.78 82.3005 45.9915 80.7229 41.0861C79.6993 38.5068 79.0836 35.8018 78.8954 33.0565C78.6767 31.6988 78.5986 30.8374 78.5986 30.8374C76.5367 36.5019 56.1059 33.8741 44.9064 32.5455C44.3909 32.5455 43.9067 32.4579 43.3444 32.4433L41.5793 50.2398L41.142 54.5028L39.33 72.022C38.9079 76.1432 40.2533 80.2526 43.0709 83.4472C45.8884 86.6418 49.9475 88.6603 54.3564 89.0593L57.7303 89.3513V96.5196C57.7508 100.015 59.2446 103.363 61.8878 105.836C64.531 108.309 68.1107 109.709 71.8508 109.732H77.0053C80.7617 109.724 84.362 108.327 87.0196 105.846C89.6771 103.365 91.1759 100.001 91.1883 96.4904V70.0803L91.8599 63.4522L94.9058 63.7296C97.0379 63.917 99.1627 63.3082 100.816 62.0363C102.47 60.7643 103.518 58.9325 103.731 56.9409L103.887 55.408C104.075 53.4224 103.417 51.4477 102.058 49.9119C100.698 48.3761 98.746 47.4029 96.624 47.2032V47.2032Z" fill="#4E4E4E"/>
<path opacity="0.15" d="M89.4391 66.0213C89.1553 68.7903 88.2904 71.4798 86.8939 73.9361C85.4975 76.3925 83.5967 78.5675 81.3003 80.3369C79.004 82.1063 76.357 83.4353 73.5108 84.248C70.6646 85.0607 67.675 85.3412 64.7127 85.0734L54.6691 84.1682C50.3195 83.7766 46.3145 81.7863 43.5347 78.6352C40.7549 75.484 39.428 71.4299 39.8457 67.3645L41.6108 50.2395L39.3615 71.9924C38.9302 76.1138 40.2675 80.2267 43.0793 83.4269C45.8911 86.6272 49.9474 88.6529 54.3567 89.059L60.1829 89.5846C61.3735 91.858 63.2363 93.7648 65.5506 95.0793C67.8649 96.3937 70.5338 97.0606 73.2412 97.001C81.0512 97.001 87.2991 91.6869 87.2991 85.1172C87.3186 83.4492 86.9229 81.7999 86.1433 80.2994C89.1234 76.6907 90.9534 72.3691 91.4228 67.8316L91.8602 63.4519L89.7202 63.2621L89.4391 66.0213Z" fill="#4E4E4E"/>
<path opacity="0.57" d="M97.7335 58.2545C97.5829 58.2609 97.4343 58.2197 97.3118 58.1377L93.9535 56.123C93.8567 56.0697 93.775 55.9955 93.7152 55.9066C93.6554 55.8176 93.6193 55.7166 93.6098 55.612C93.5896 55.5077 93.596 55.4005 93.6286 55.299C93.6611 55.1975 93.719 55.1046 93.7973 55.028L97.3274 51.3052C97.476 51.1705 97.6749 51.0952 97.8819 51.0952C98.0889 51.0952 98.2878 51.1705 98.4364 51.3052C98.5805 51.4441 98.6611 51.63 98.6611 51.8235C98.6611 52.017 98.5805 52.2028 98.4364 52.3418L95.4998 55.4368L98.1552 56.9405C98.329 57.0453 98.4512 57.2101 98.4952 57.3989C98.5391 57.5878 98.5011 57.7852 98.3895 57.9479C98.3145 58.0444 98.2157 58.1226 98.1015 58.1759C97.9874 58.2293 97.8611 58.2562 97.7335 58.2545V58.2545Z" fill="#4E4E4E"/>
<path d="M65.4022 61.5111C62.904 63.4378 60.1341 65.0344 57.1705 66.2558C52.8126 67.9056 58.2639 74.1103 64.9805 71.9204C71.6971 69.7305 68.9011 59.9198 65.4022 61.5111Z" fill="#4E4E4E"/>
<path d="M76.5373 46.4437C75.5463 46.5376 74.5452 46.4331 73.6008 46.1371C72.5698 45.8889 71.5389 45.67 70.633 45.524C69.727 45.378 68.7273 45.2612 67.6496 45.086C66.6528 45.0421 65.6779 44.7981 64.7911 44.3706C64.0726 43.9326 63.932 42.9837 65.0723 42.0639C66.0187 41.4417 67.0958 41.0146 68.2321 40.8107C69.3685 40.6068 70.5382 40.6309 71.6639 40.8814C72.7976 41.0167 73.8867 41.3789 74.8571 41.9432C75.8275 42.5076 76.6563 43.2608 77.2871 44.1516C77.9431 45.451 77.4276 46.2831 76.5373 46.4437Z" fill="#4E4E4E"/>
<path d="M68.1829 63.7303C67.0945 64.2733 65.8982 64.6013 64.6684 64.6938C63.372 64.8982 62.0755 65.1172 60.9665 65.3508C59.8575 65.5844 58.561 65.8764 57.3114 66.2122C56.1469 66.6069 54.9086 66.7758 53.672 66.7085C52.6254 66.5479 52.0006 65.599 52.8441 64.0953C53.6437 62.9986 54.6736 62.0655 55.8712 61.3527C57.0689 60.6399 58.4092 60.1623 59.8106 59.9491C61.1612 59.5922 62.5763 59.5014 63.9664 59.6824C65.3565 59.8633 66.6912 60.3121 67.8861 61.0002C69.2607 62.066 69.0732 63.1755 68.1829 63.7303Z" fill="#4E4E4E"/>
<path d="M43.7348 43.6992C44.5923 43.9064 45.4878 43.9363 46.3589 43.7868C47.2805 43.7868 48.2333 43.6409 49.0455 43.6117C49.8578 43.5825 50.795 43.6117 51.7322 43.6117C52.6118 43.695 53.5003 43.6055 54.3407 43.3489C55.028 43.0423 55.2935 42.2393 54.4188 41.2904C53.673 40.6205 52.7827 40.1073 51.8076 39.7851C50.8325 39.4628 49.7949 39.3389 48.7644 39.4217C47.7506 39.4036 46.7445 39.5898 45.8146 39.9677C44.8847 40.3456 44.0528 40.9063 43.3755 41.6116C42.6258 42.6627 42.9538 43.4511 43.7348 43.6992Z" fill="#4E4E4E"/>
<path opacity="0.57" d="M59.152 59.4957L56.2311 59.3059C54.8076 59.2014 53.4862 58.5746 52.5556 57.5625C51.6249 56.5504 51.1605 55.2352 51.264 53.9041C51.2874 53.5464 51.3876 53.1967 51.5586 52.8758C51.7297 52.555 51.968 52.2696 52.2595 52.0367C52.551 51.8037 52.8897 51.628 53.2553 51.52C53.621 51.4119 54.0062 51.3737 54.388 51.4077C54.8538 51.4019 55.3006 51.2343 55.6413 50.9374C55.9821 50.6405 56.1923 50.2356 56.2311 49.8018L56.8403 43.6409C56.8589 43.4473 56.9591 43.2685 57.1187 43.1439C57.2784 43.0194 57.4844 42.9592 57.6916 42.9766C57.8987 42.994 58.0899 43.0876 58.2232 43.2368C58.3565 43.3861 58.4209 43.5786 58.4023 43.7722L57.7931 49.9331C57.7252 50.7689 57.3057 51.5454 56.6265 52.0927C55.9473 52.6399 55.0637 52.9133 54.1693 52.853C53.8238 52.8371 53.4855 52.9493 53.2281 53.1653C52.9706 53.3813 52.8149 53.6836 52.7947 54.0063C52.7211 54.9515 53.0486 55.8858 53.7063 56.6071C54.364 57.3284 55.2991 57.7786 56.3092 57.8606L59.152 58.0357C59.3592 58.0357 59.5578 58.1127 59.7043 58.2495C59.8507 58.3864 59.933 58.5721 59.933 58.7657C59.933 58.9593 59.8507 59.145 59.7043 59.2819C59.5578 59.4188 59.3592 59.4957 59.152 59.4957Z" fill="#4E4E4E"/>
<path d="M46.6559 49.3851C46.6843 49.9555 46.8722 50.4914 47.1828 50.8887C47.4935 51.2859 47.9047 51.516 48.3366 51.5342C48.7684 51.5523 49.1898 51.3572 49.5189 50.9868C49.848 50.6165 50.0611 50.0973 50.1169 49.5304C50.1482 49.2119 50.1288 48.8882 50.0599 48.5803C49.991 48.2723 49.8742 47.9867 49.7169 47.7421C49.5596 47.4974 49.3653 47.299 49.1466 47.1596C48.9279 47.0203 48.6896 46.943 48.447 46.9328C48.2043 46.9226 47.9628 46.9797 47.7378 47.1005C47.5129 47.2212 47.3095 47.4029 47.1408 47.6339C46.9721 47.8648 46.8418 48.14 46.7583 48.4416C46.6748 48.7432 46.6399 49.0645 46.6559 49.3851Z" fill="#4E4E4E"/>
<path d="M66.3721 49.3851C66.4005 49.9555 66.5883 50.4914 66.899 50.8887C67.2097 51.2859 67.6209 51.516 68.0527 51.5342C68.4846 51.5523 68.906 51.3572 69.2351 50.9868C69.5642 50.6165 69.7773 50.0973 69.8331 49.5304C69.8644 49.2119 69.845 48.8882 69.7761 48.5803C69.7072 48.2723 69.5903 47.9867 69.4331 47.7421C69.2758 47.4974 69.0815 47.299 68.8628 47.1596C68.6441 47.0203 68.4058 46.943 68.1631 46.9328C67.9205 46.9226 67.679 46.9797 67.454 47.1005C67.2291 47.2212 67.0257 47.4029 66.857 47.6339C66.6883 47.8648 66.558 48.14 66.4745 48.4416C66.391 48.7432 66.3561 49.0645 66.3721 49.3851Z" fill="#4E4E4E"/>
<path opacity="0.57" d="M67.8524 52.9698C66.7102 52.9506 65.6089 52.5697 64.7284 51.8895C64.6083 51.7985 64.5317 51.6666 64.5156 51.5229C64.4995 51.3791 64.5452 51.2353 64.6425 51.123C64.7399 51.0107 64.881 50.9392 65.0347 50.9241C65.1885 50.9091 65.3424 50.9517 65.4626 51.0427C66.1967 51.5649 67.0939 51.8476 68.0164 51.8476C68.939 51.8476 69.8361 51.5649 70.5703 51.0427C70.6949 50.9544 70.8517 50.9156 71.0067 50.9347C71.1617 50.9539 71.3024 51.0294 71.3981 51.1449C71.4878 51.2603 71.5265 51.4036 71.5062 51.5449C71.4858 51.6863 71.4079 51.8149 71.2888 51.9041C70.2966 52.597 69.091 52.9709 67.8524 52.9698V52.9698Z" fill="#4E4E4E"/>
<path opacity="0.57" d="M47.9522 52.5605C46.8096 52.5437 45.7074 52.1625 44.8282 51.4802C44.7687 51.4361 44.7191 51.3815 44.6822 51.3195C44.6452 51.2575 44.6218 51.1893 44.6131 51.1188C44.6044 51.0483 44.6106 50.9768 44.6314 50.9086C44.6523 50.8404 44.6873 50.7766 44.7345 50.721C44.8325 50.6077 44.9743 50.535 45.1292 50.5187C45.2841 50.5023 45.4397 50.5435 45.5624 50.6334C46.2922 51.165 47.191 51.4536 48.1162 51.4536C49.0415 51.4536 49.9403 51.165 50.6701 50.6334C50.7952 50.5614 50.9445 50.5353 51.089 50.5602C51.2335 50.5851 51.363 50.6593 51.4524 50.7683C51.5418 50.8773 51.5848 51.0134 51.573 51.1503C51.5612 51.2872 51.4955 51.4151 51.3886 51.5094C50.3909 52.1906 49.1878 52.5586 47.9522 52.5605V52.5605Z" fill="#4E4E4E"/>
<path d="M57.4176 91.4973L71.8505 107.921C72.4062 108.56 72.7933 109.311 72.9806 110.115C73.1678 110.919 73.1499 111.753 72.9282 112.549L69.6324 124.36C69.3801 125.264 68.8735 126.087 68.1653 126.745C67.4571 127.404 66.5732 127.873 65.6054 128.104C64.6377 128.335 63.6214 128.319 62.6622 128.059C61.703 127.799 60.8359 127.303 60.1511 126.623L45.7339 112.316C45.1938 111.794 44.776 111.173 44.507 110.491C44.2381 109.81 44.124 109.084 44.1719 108.359L45.2966 93.585C45.3537 92.7582 45.6198 91.9559 46.0729 91.2439C46.526 90.5319 47.1532 89.9303 47.9031 89.4887C48.6531 89.0471 49.5043 88.7779 50.3871 88.7032C51.2699 88.6286 52.159 88.7505 52.9816 89.0592L55.184 89.8914C56.0663 90.2344 56.8365 90.7882 57.4176 91.4973V91.4973Z" fill="#4E4E4E"/>
<path d="M88.4556 91.4975L74.179 107.849C73.6027 108.505 73.2063 109.283 73.024 110.115C72.8416 110.947 72.8788 111.807 73.1324 112.623L76.8812 124.565C77.1599 125.457 77.6881 126.264 78.4115 126.902C79.1348 127.54 80.027 127.986 80.9963 128.194C81.9655 128.402 82.9765 128.365 83.9253 128.086C84.8741 127.808 85.7262 127.298 86.3937 126.609L100.295 112.302C100.805 111.777 101.196 111.161 101.443 110.491C101.69 109.82 101.788 109.11 101.733 108.404L100.577 93.5852C100.522 92.759 100.258 91.9568 99.8068 91.2445C99.3555 90.5323 98.7296 89.9304 97.9807 89.4885C97.2318 89.0466 96.3813 88.7773 95.4993 88.7027C94.6172 88.6281 93.7289 88.7504 92.9073 89.0595L90.6892 89.8916C89.807 90.2347 89.0367 90.7885 88.4556 91.4975V91.4975Z" fill="#4E4E4E"/>
</svg>
