<svg width="26" height="28" viewBox="0 0 26 28" fill="none" xmlns="http://www.w3.org/2000/svg">
<g clip-path="url(#clip0_32_115)">
<path d="M25.4386 14.3139C25.2536 13.7689 25.219 13.1852 25.3382 12.6226V12.6226L25.5742 11.5066C25.7328 10.7671 25.7035 10.0003 25.4888 9.27474V9.27474L25.1624 8.18358C25.0399 7.76258 25.0023 7.3219 25.0519 6.8866L25.3306 4.33974C25.3932 3.90199 25.3593 3.45607 25.2313 3.03242C25.1034 2.60877 24.8844 2.21738 24.5892 1.88497C24.2941 1.55255 23.9298 1.28695 23.5212 1.10628C23.1126 0.92562 22.6694 0.834154 22.2217 0.83813V0.83813C21.9799 0.844307 21.739 0.806478 21.5111 0.726535V0.726535C20.98 0.535186 20.4115 0.466758 19.8495 0.52652C19.2874 0.586281 18.7467 0.772639 18.2691 1.07124V1.07124C17.9599 1.25853 17.6047 1.35886 17.242 1.36139V1.36139L14.7031 1.37627C14.3121 1.37829 13.9248 1.45142 13.5605 1.59202V1.59202L13.0583 1.79537L13.0081 1.81521C12.8898 1.8582 12.7748 1.90959 12.664 1.96896V1.96896C12.4126 2.1174 12.1168 2.17529 11.8271 2.13279C11.5373 2.0903 11.2714 1.95004 11.0744 1.73585C11.0744 1.73585 11.0744 1.73585 11.0619 1.73585V1.72097L11.0443 1.70609C10.6809 1.34687 10.2094 1.11375 9.7004 1.04176C9.19143 0.969762 8.67256 1.06278 8.22169 1.30683V1.30683H8.20411H8.18653H8.16895C8.05413 1.38248 7.92086 1.42629 7.78304 1.43371C7.64522 1.44112 7.50791 1.41187 7.38545 1.34899L5.81845 0.411588H5.80338H5.78831C5.27842 0.131365 4.69953 -0.00295552 4.11662 0.0237061C3.53371 0.0503677 2.96987 0.236956 2.48839 0.562523C2.00692 0.888091 1.62686 1.33975 1.39091 1.86679C1.15495 2.39383 1.07242 2.97539 1.1526 3.54618V3.54618C1.2204 4.0176 1.10951 4.49713 0.84121 4.89276C0.529039 5.35888 0.333858 5.89176 0.271844 6.44724C0.20983 7.00271 0.282769 7.56479 0.484617 8.08687C0.582452 8.34306 0.623872 8.61691 0.606118 8.89016C0.588365 9.1634 0.511845 9.42977 0.381657 9.67152C0.0888464 10.2268 -0.0398251 10.8522 0.0103567 11.4762C0.0605385 12.1003 0.287548 12.6978 0.665425 13.2004C0.850339 13.4349 0.977274 13.7088 1.03613 14.0002C1.09498 14.2917 1.08413 14.5927 1.00444 14.8793C0.826736 15.5057 0.815852 16.1667 0.972841 16.7984C1.12983 17.4302 1.44937 18.0111 1.90051 18.4851C2.35165 18.959 2.9191 19.3099 3.54787 19.5037C4.17665 19.6974 4.84545 19.7276 5.48948 19.5911V19.5911C5.86958 19.5048 6.23213 19.3555 6.56177 19.1497C7.76775 20.0322 9.2294 20.5078 10.7304 20.5062H10.7982C10.8881 21.2612 11.1389 21.9889 11.534 22.6414V22.6414C11.5624 22.6948 11.5687 22.757 11.5516 22.815C11.3625 23.4667 11.3408 24.1546 11.4886 24.8167C11.6364 25.4787 11.9489 26.0939 12.3978 26.6067V26.6067L12.7846 27.0308C12.9256 27.1865 13.0981 27.3111 13.2911 27.3965C13.4841 27.482 13.6931 27.5264 13.9046 27.5268C14.2484 27.5261 14.581 27.4059 14.844 27.1874C15.1071 26.9688 15.2839 26.6658 15.3435 26.3315V26.3315L15.5494 25.2329C15.5971 25.0023 15.5859 24.7637 15.5168 24.5385V24.5385L15.3711 24.0748C15.3514 24.0132 15.3569 23.9465 15.3862 23.8888L15.9638 22.815C16.5439 23.0851 17.1826 23.2094 17.8231 23.177C18.4636 23.1445 19.0861 22.9563 19.6352 22.629C19.9621 22.4319 20.326 22.302 20.705 22.2471L21.8174 22.1032C22.491 22.0372 23.1165 21.7292 23.5753 21.2378C24.0449 20.7414 24.3131 20.0917 24.3287 19.4126C24.3348 18.8402 24.5208 18.2839 24.861 17.8205V17.8205C25.2297 17.322 25.4741 16.7447 25.5745 16.1354C25.6748 15.5261 25.6283 14.9021 25.4386 14.3139V14.3139ZM9.47981 19.1398C9.62562 18.9838 9.73512 18.7982 9.80062 18.596C9.86613 18.3938 9.88605 18.1799 9.859 17.9693V17.9693L9.82887 17.7064C9.8138 17.5996 9.83249 17.4909 9.88238 17.395C9.93228 17.2991 10.0109 17.2208 10.1076 17.1707L10.8986 16.7516C10.9576 16.7236 11.0101 16.6841 11.0532 16.6355C11.0962 16.5869 11.1289 16.5302 11.1492 16.4688C11.1694 16.4074 11.1769 16.3426 11.1712 16.2783C11.1654 16.214 11.1465 16.1514 11.1157 16.0945C11.0848 16.0376 11.0426 15.9874 10.9916 15.947C10.9406 15.9066 10.8818 15.8768 10.8188 15.8594C10.7559 15.8421 10.69 15.8374 10.6252 15.8459C10.5603 15.8543 10.4979 15.8756 10.4416 15.9085L9.64806 16.33C9.38159 16.4719 9.16456 16.6897 9.02525 16.9551C8.88595 17.2205 8.83083 17.5212 8.86707 17.818V17.818L8.89469 18.066C8.91281 18.1709 8.8971 18.2788 8.8498 18.3745C8.80249 18.4702 8.72596 18.5487 8.63102 18.5991V18.5991L8.34976 18.7603C8.05303 18.6263 7.76826 18.4679 7.49846 18.2867C7.93666 17.7012 8.17314 16.9924 8.17314 16.2643C8.17314 15.5363 7.93666 14.8274 7.49846 14.242C7.31813 14.0023 7.19698 13.7244 7.14466 13.4303C7.09234 13.1363 7.1103 12.8342 7.19711 12.5482C7.34045 12.0751 7.3747 11.5762 7.29735 11.0883C7.22 10.6004 7.03302 10.1358 6.75011 9.72856C7.32875 9.31078 8.03054 9.09267 8.74717 9.10791C9.46381 9.12315 10.1554 9.37088 10.7153 9.81288C10.7648 9.85228 10.8216 9.88168 10.8826 9.89939C10.9436 9.9171 11.0075 9.92278 11.0707 9.9161C11.1339 9.90943 11.1951 9.89052 11.2509 9.86047C11.3067 9.83042 11.356 9.78981 11.3959 9.74096C11.4358 9.69211 11.4655 9.63598 11.4835 9.57577C11.5014 9.51555 11.5072 9.45244 11.5004 9.39004C11.4936 9.32763 11.4745 9.26715 11.4441 9.21205C11.4136 9.15695 11.3725 9.10831 11.323 9.06891C10.5029 8.40964 9.46019 8.08177 8.40501 8.15135C8.27968 8.1583 8.1548 8.17155 8.03083 8.19102C7.99335 8.05153 7.98493 7.90598 8.00608 7.76318C8.02723 7.62038 8.07751 7.4833 8.15388 7.36026C8.19148 7.307 8.21765 7.2467 8.23078 7.18309C8.24391 7.11947 8.24373 7.05387 8.23024 6.99033C8.21676 6.92678 8.19026 6.86663 8.15237 6.81357C8.11448 6.76052 8.066 6.71567 8.00991 6.6818C7.95383 6.64792 7.89132 6.62573 7.82623 6.61659C7.76114 6.60745 7.69484 6.61155 7.63141 6.62864C7.56799 6.64573 7.50877 6.67545 7.4574 6.71597C7.40604 6.7565 7.3636 6.80697 7.33272 6.86428C7.18563 7.09886 7.08899 7.36082 7.04881 7.63386C7.00863 7.90691 7.02578 8.18519 7.09917 8.45141C6.78419 8.5735 6.48562 8.73342 6.2102 8.92755C6.0505 8.52633 6.03019 8.0841 6.15244 7.67025C6.37285 6.91121 6.34294 6.1026 6.06706 5.36146C6.3308 5.39317 6.58627 5.47306 6.82043 5.59705L7.53864 5.974C8.00078 6.21706 8.51675 6.34317 9.04035 6.34102H9.18851L10.3286 6.28398C10.5357 6.27981 10.7423 6.30656 10.9413 6.36334V6.36334L12.7494 6.85932C12.6132 7.07223 12.5139 7.30606 12.4556 7.55121C11.8456 7.31147 11.2019 7.16592 10.5471 7.11971C10.4838 7.11531 10.4202 7.12327 10.36 7.14314C10.2998 7.16301 10.2441 7.19439 10.1962 7.23549C10.0994 7.31851 10.04 7.43609 10.031 7.56237C10.022 7.68865 10.0642 7.81328 10.1483 7.90886C10.2323 8.00443 10.3514 8.06311 10.4793 8.07199C11.1661 8.11992 11.8375 8.29578 12.4581 8.59029C12.5869 9.09501 12.8875 9.54067 13.3094 9.85255C13.4124 9.92211 13.5385 9.9498 13.6616 9.92987C13.7846 9.90993 13.8952 9.84391 13.9702 9.74552C14.0453 9.64714 14.079 9.52398 14.0645 9.40165C14.0499 9.27932 13.9881 9.16725 13.892 9.08875C13.7314 8.96992 13.6006 8.81628 13.5097 8.63966C13.4187 8.46304 13.37 8.26816 13.3673 8.07002C13.3647 7.87188 13.4081 7.67579 13.4943 7.49684C13.5805 7.31789 13.7071 7.16087 13.8644 7.03787C14.1 7.03592 14.3348 7.01016 14.565 6.96099V6.96099L16.7071 6.48237C16.8832 6.44873 17.0629 6.43707 17.242 6.44766V6.44766L18.3319 6.49725H18.4198C18.5144 6.62014 18.5831 6.76053 18.6218 6.91012C18.6604 7.05971 18.6683 7.21544 18.6449 7.36809C18.6214 7.52073 18.5672 7.66718 18.4854 7.79874C18.4036 7.9303 18.2959 8.04431 18.1686 8.13399C18.1159 8.17013 18.0708 8.21619 18.0361 8.26953C18.0013 8.32287 17.9776 8.38244 17.9662 8.44485C17.9431 8.57088 17.9717 8.7008 18.0456 8.80604C18.1195 8.91127 18.2327 8.98319 18.3604 9.00598C18.488 9.02877 18.6196 9.00056 18.7261 8.92755C19.1244 8.64833 19.4133 8.2424 19.5445 7.77781C19.6758 7.31322 19.6413 6.8182 19.4468 6.37574C19.5875 6.32718 19.7244 6.26833 19.8562 6.19967V6.19967L20.6095 5.84752L20.7175 6.51213C20.7748 6.86735 20.7314 7.2313 20.592 7.56361L20.3132 8.22822C20.0821 8.77668 20.0133 9.37863 20.1148 9.96415V9.96415L20.3408 11.3355C20.4246 11.7774 20.3472 12.2342 20.1224 12.6251V12.6251C19.7653 13.2351 19.4733 13.88 19.251 14.5495L18.8341 13.9146C18.6123 13.575 18.2775 13.3224 17.8874 13.2004L16.451 12.7367C16.2549 12.6696 16.0899 12.5349 15.9864 12.3573V12.3573L15.5695 11.6554C15.5391 11.597 15.4968 11.5454 15.4453 11.5038C15.3937 11.4622 15.3341 11.4315 15.27 11.4137C15.206 11.3958 15.1389 11.3912 15.0729 11.4001C15.007 11.409 14.9436 11.4312 14.8867 11.4653C14.8299 11.4995 14.7807 11.5448 14.7424 11.5985C14.704 11.6522 14.6773 11.7132 14.6638 11.7776C14.6504 11.8419 14.6505 11.9083 14.6642 11.9727C14.6779 12.037 14.7048 12.0978 14.7433 12.1514L15.1527 12.8458C15.3769 13.2263 15.7341 13.5128 16.1571 13.6518V13.6518L17.5961 14.1155C17.7751 14.1713 17.9287 14.2871 18.0305 14.4428V14.4428L18.932 15.8093C18.8944 16.0052 18.8617 16.2036 18.8341 16.402C18.8179 16.502 18.7659 16.5931 18.6876 16.6586C18.6093 16.7241 18.5098 16.7597 18.4072 16.7591H18.3746H18.0531C17.7417 16.7591 17.4203 16.7739 17.0963 16.7938L16.4459 16.8434L16.1245 16.8632H16.0944C15.7314 16.905 15.3638 16.8439 15.0346 16.6871V16.6871C14.6488 16.5018 14.2265 16.4023 13.7975 16.3957C13.3685 16.389 12.9432 16.4754 12.5517 16.6488C12.1602 16.8221 11.8119 17.0782 11.5315 17.3989C11.2511 17.7196 11.0454 18.0971 10.9288 18.5049V18.5049C10.8659 18.7495 10.8206 18.9981 10.7932 19.2489C10.3526 19.2616 9.91202 19.225 9.47981 19.1398ZM21.6818 20.8757H21.6542L20.5392 21.0195C19.9894 21.097 19.4619 21.2861 18.9898 21.575C18.5706 21.8264 18.0885 21.9568 17.598 21.9516C17.1076 21.9463 16.6285 21.8056 16.2149 21.5453L14.7207 20.4591C14.6548 20.4114 14.5799 20.3769 14.5005 20.3578C14.4211 20.3386 14.3386 20.3351 14.2578 20.3474C14.177 20.3598 14.0995 20.3877 14.0296 20.4296C13.9597 20.4715 13.8989 20.5266 13.8506 20.5917C13.8023 20.6569 13.7674 20.7308 13.748 20.8092C13.7286 20.8876 13.7251 20.9691 13.7376 21.0489C13.75 21.1287 13.7783 21.2052 13.8207 21.2742C13.8632 21.3432 13.919 21.4033 13.9849 21.451L14.9241 22.133L14.2888 23.3258C14.1071 23.6709 14.071 24.073 14.1883 24.4443V24.4443L14.334 24.908C14.3427 24.9439 14.3427 24.9813 14.334 25.0171V25.0171L14.1281 26.1157C14.1232 26.1589 14.1056 26.1998 14.0775 26.2333C14.0494 26.2668 14.012 26.2914 13.9699 26.3042C13.9256 26.3164 13.8788 26.3164 13.8345 26.3042C13.7902 26.2919 13.7502 26.2679 13.7187 26.2348L13.337 25.7983C13.0223 25.4382 12.8035 25.0063 12.7005 24.5417C12.5974 24.077 12.6134 23.5944 12.7469 23.1374C12.8017 22.9473 12.8161 22.748 12.7893 22.5522C12.7625 22.3563 12.6951 22.168 12.5912 21.9991C12.2043 21.3566 11.998 20.6238 11.9935 19.8763V19.8391C11.9944 19.5046 12.0366 19.1715 12.1191 18.8471C12.186 18.6103 12.305 18.391 12.4676 18.2048C12.6302 18.0186 12.8323 17.8702 13.0597 17.77C13.2871 17.6698 13.534 17.6204 13.7829 17.6252C14.0318 17.6301 14.2766 17.6891 14.4997 17.7981V17.7981C14.9282 17.999 15.3966 18.1032 15.8709 18.1032C15.9855 18.1094 16.1003 18.1094 16.2149 18.1032V18.1032L16.5414 18.0784C16.7473 18.061 16.9607 18.0412 17.1667 18.0288C17.463 18.0089 17.7568 18.004 18.0682 17.9965C18.1737 17.9965 18.2816 17.9965 18.3871 17.9965C18.7899 17.9974 19.1794 17.8542 19.4836 17.5934C19.7879 17.3327 19.9862 16.972 20.042 16.578C20.1985 15.4078 20.5867 14.2795 21.1846 13.2575V13.2575C21.5515 12.6193 21.6812 11.8746 21.5512 11.152L21.3453 9.76824C21.2828 9.40846 21.3255 9.03855 21.4684 8.70188V8.70188L21.7471 8.03479C21.9722 7.49611 22.0409 6.90617 21.9455 6.3311L21.7948 5.4557L22.1414 5.39618C22.2252 5.38666 22.3063 5.36034 22.3795 5.31882C22.4527 5.2773 22.5165 5.22147 22.5671 5.15473C22.6177 5.088 22.654 5.01177 22.6737 4.93071C22.6934 4.84965 22.6961 4.76547 22.6818 4.68333C22.6674 4.60118 22.6362 4.5228 22.5901 4.45298C22.5439 4.38316 22.4839 4.32337 22.4135 4.27728C22.3432 4.23118 22.2641 4.19975 22.181 4.18491C22.0979 4.17006 22.0127 4.17212 21.9304 4.19095L21.3428 4.29015C21.0451 4.32373 20.7554 4.40762 20.4865 4.53814V4.53814L19.3363 5.10107C19.0434 5.23441 18.7216 5.29404 18.3997 5.27467L17.3073 5.20771C17.0157 5.19299 16.7234 5.21718 16.4384 5.27963L14.2963 5.75824C13.9836 5.82658 13.6587 5.81892 13.3496 5.73593V5.73593L11.2753 5.18043C10.9492 5.08721 10.6102 5.04536 10.2708 5.05643L9.13075 5.11595C8.78196 5.13235 8.4351 5.05613 8.12626 4.89524L7.40805 4.5183C6.88859 4.23908 6.30114 4.10692 5.71047 4.13639V4.13639C5.5125 4.14877 5.31376 4.13962 5.11782 4.10911C4.89597 4.06429 4.68414 3.98028 4.49252 3.86112C4.34959 3.78484 4.18204 3.76698 4.02592 3.81139C3.86979 3.8558 3.73754 3.95894 3.6576 4.09863C3.57766 4.23832 3.55642 4.40341 3.59844 4.5584C3.64046 4.71339 3.74238 4.84592 3.8823 4.92748C4.12004 5.06191 4.37288 5.16845 4.63566 5.24491C4.84375 5.54665 4.9818 5.89004 5.03997 6.25056C5.09814 6.61108 5.07499 6.97984 4.97217 7.3305C4.82429 7.82962 4.80377 8.35712 4.91244 8.86597C5.0211 9.37482 5.25557 9.84921 5.59495 10.2469C5.82355 10.5116 5.98126 10.8288 6.05365 11.1693C6.12603 11.5098 6.11079 11.8629 6.0093 12.1961C5.86761 12.6644 5.83924 13.159 5.92648 13.6401C6.01371 14.1212 6.21411 14.5754 6.51155 14.9661C6.83918 15.4052 6.98865 15.9495 6.93056 16.4919C6.87247 17.0343 6.61104 17.5356 6.19764 17.8973V17.8973C5.92421 18.1338 5.59535 18.2992 5.24087 18.3784C4.80513 18.4737 4.35185 18.4562 3.92501 18.3275C3.49818 18.1988 3.11228 17.9633 2.80476 17.6439C2.49724 17.3245 2.27855 16.932 2.16991 16.5045C2.06127 16.0771 2.06637 15.6291 2.18471 15.2042C2.31571 14.7401 2.33627 14.2524 2.24479 13.7792C2.15331 13.306 1.95226 12.8601 1.65736 12.4763C1.41781 12.1586 1.27399 11.7806 1.24245 11.3857C1.2109 10.9909 1.29292 10.5952 1.47906 10.2444C1.69072 9.84897 1.81474 9.41361 1.84288 8.96722C1.87102 8.52084 1.80265 8.07364 1.64229 7.65537C1.51007 7.31548 1.46206 6.94931 1.50225 6.58738C1.54244 6.22544 1.66966 5.87825 1.87332 5.57473C2.30863 4.92824 2.48743 4.14601 2.37557 3.37754V3.37754C2.32366 3.03151 2.37097 2.67803 2.51211 2.35719C2.65325 2.03634 2.8826 1.76096 3.17413 1.56226C3.46745 1.36505 3.81011 1.25146 4.16451 1.23396C4.51891 1.21646 4.87134 1.29573 5.18311 1.46306L6.75011 2.43766L6.78276 2.45502C7.07211 2.60633 7.39454 2.6855 7.72195 2.68565C8.10554 2.68567 8.48112 2.57725 8.80429 2.37319C9.02024 2.25501 9.2692 2.20925 9.51374 2.2428C9.75828 2.27634 9.98519 2.38736 10.1603 2.55918C10.3941 2.81009 10.6784 3.01006 10.9949 3.14628C11.3115 3.2825 11.6533 3.35197 11.9986 3.35027C12.4385 3.35327 12.8715 3.24209 13.2542 3.02788V3.02788C13.3127 2.99834 13.3731 2.97265 13.435 2.951L13.4953 2.92868L13.9975 2.72781C14.2195 2.64023 14.4565 2.59561 14.6956 2.59638V2.59638L17.237 2.5815C17.8281 2.57974 18.4072 2.41575 18.9094 2.10784V2.10784C19.2254 1.90742 19.5835 1.7809 19.9564 1.73793C20.3294 1.69495 20.7074 1.73665 21.0616 1.85985V1.85985C21.411 1.9849 21.7798 2.04868 22.1514 2.04832H22.2192C22.4918 2.04315 22.7623 2.0968 23.0117 2.20552C23.2611 2.31424 23.4835 2.47542 23.6633 2.67779C23.8432 2.88017 23.9761 3.11887 24.0528 3.37722C24.1296 3.63557 24.1483 3.90736 24.1077 4.17359C24.1065 4.17764 24.1065 4.18194 24.1077 4.18599V4.18599L23.8214 6.74772C23.7557 7.34216 23.8077 7.94355 23.9746 8.51837V8.51837L24.2985 9.62192C24.4551 10.1517 24.4758 10.7116 24.3588 11.2512V11.2512L24.1227 12.3672C23.9604 13.1376 24.0072 13.9366 24.2583 14.6834C24.3916 15.0905 24.4247 15.5231 24.3549 15.9453C24.285 16.3675 24.1142 16.7672 23.8565 17.1112C23.3624 17.776 23.0887 18.5756 23.073 19.4002C23.0624 19.7721 22.9156 20.1276 22.6597 20.4007C22.4039 20.6739 22.0565 20.8462 21.6818 20.8856V20.8757Z" fill="#FEFAEF"/>
<path d="M16.4234 9.82789C16.5931 9.87581 16.7502 9.95934 16.8841 10.0728C17.0181 10.1862 17.1256 10.3268 17.1994 10.4851V10.4851C17.4679 11.0544 17.8293 11.5764 18.2692 12.03C18.3141 12.0769 18.3682 12.1143 18.4282 12.1398C18.4883 12.1654 18.5529 12.1787 18.6183 12.1788C18.7131 12.1789 18.8059 12.1515 18.8851 12.1C18.9643 12.0485 19.0265 11.9751 19.064 11.8891C19.1014 11.803 19.1124 11.708 19.0957 11.6158C19.0789 11.5236 19.0352 11.4383 18.9698 11.3704C18.6037 10.9926 18.3034 10.5578 18.0809 10.0833C17.9482 9.8004 17.7552 9.54912 17.5151 9.34667C17.2749 9.14423 16.9934 8.99538 16.6896 8.91032V8.91032C16.5173 8.86212 16.3624 8.76663 16.2428 8.63494C16.1232 8.50325 16.0439 8.34076 16.0141 8.16635C15.9871 8.04649 15.9144 7.94149 15.8111 7.87306C15.7079 7.80463 15.5819 7.77802 15.4593 7.79872C15.3368 7.81943 15.2269 7.88587 15.1526 7.9843C15.0782 8.08273 15.045 8.20562 15.0599 8.32755C15.1214 8.6789 15.282 9.00602 15.5231 9.27139C15.7643 9.53675 16.0763 9.72963 16.4234 9.82789V9.82789Z" fill="#FEFAEF"/>
<path d="M11.941 12.6747C11.999 13.0193 12.1402 13.345 12.3526 13.6243C12.565 13.9036 12.8425 14.1282 13.1614 14.2792V14.2792C13.4357 14.4075 13.6799 14.5909 13.8784 14.8176C14.0768 15.0444 14.2252 15.3095 14.3141 15.5961C14.3438 15.6949 14.4051 15.7816 14.4889 15.8433C14.5726 15.905 14.6742 15.9383 14.7787 15.9383C14.8254 15.9378 14.8718 15.9311 14.9168 15.9184C15.0396 15.8817 15.1428 15.7986 15.2039 15.6871C15.265 15.5757 15.2792 15.4449 15.2432 15.3233C15.1168 14.9096 14.9043 14.5265 14.6193 14.1985C14.3344 13.8706 13.9832 13.605 13.5883 13.4187V13.4187C13.4102 13.3328 13.2552 13.2064 13.1361 13.0499C13.0169 12.8935 12.937 12.7113 12.9028 12.5185C12.8191 12.0211 12.5882 11.5593 12.2392 11.1912C11.8902 10.8232 11.4386 10.5654 10.9415 10.4503C10.8201 10.4302 10.6955 10.4566 10.593 10.5239C10.4906 10.5913 10.4179 10.6947 10.3898 10.813C10.3616 10.9314 10.3802 11.0558 10.4416 11.1612C10.503 11.2665 10.6028 11.3448 10.7205 11.3802C11.0303 11.4536 11.3113 11.6155 11.5284 11.8457C11.7455 12.076 11.889 12.3644 11.941 12.6747V12.6747Z" fill="#FEFAEF"/>
<path d="M9.97708 13.9693C9.8573 13.9194 9.75263 13.8398 9.67323 13.7382C9.59383 13.6366 9.54241 13.5164 9.52395 13.3893C9.5055 13.2623 9.52065 13.1327 9.56793 13.0131C9.6152 12.8936 9.693 12.7881 9.79376 12.707C9.88919 12.6274 9.9498 12.5144 9.96294 12.3918C9.97608 12.2691 9.94074 12.1461 9.86428 12.0485C9.78782 11.9509 9.67616 11.8863 9.5526 11.8681C9.42903 11.8498 9.30311 11.8794 9.20111 11.9506C8.96046 12.1348 8.77405 12.3792 8.66119 12.6585C8.54834 12.9377 8.51314 13.2417 8.55924 13.5389C8.60535 13.8361 8.73108 14.1157 8.92341 14.3488C9.11574 14.5819 9.36768 14.7599 9.65313 14.8645C9.70651 14.8861 9.76369 14.8971 9.82138 14.8968C9.9351 14.8968 10.0452 14.8573 10.1324 14.7852C10.2196 14.7131 10.2784 14.6131 10.2985 14.5025C10.3185 14.392 10.2986 14.278 10.2421 14.1805C10.1857 14.083 10.0963 14.0083 9.98963 13.9693H9.97708Z" fill="#FEFAEF"/>
</g>
<defs>
<clipPath id="clip0_32_115">
<rect width="25.6697" height="27.5417" fill="white"/>
</clipPath>
</defs>
</svg>
