<svg width="160" height="516" viewBox="0 0 160 516" fill="none" xmlns="http://www.w3.org/2000/svg">
<path fill-rule="evenodd" clip-rule="evenodd" d="M66.416 67.7343C66.9536 67.8857 67.4936 68.0102 68.035 68.1088V74.0913L68.0375 74.0909L67.9022 81.8419C67.613 81.704 67.3593 81.5652 67.1368 81.4271C64.0357 81.7832 60.9458 82.2373 57.8712 82.7887C49.6113 83.477 35.7687 85.1547 30.5049 88.8947C17.079 98.4082 6.0199 162.533 6.0199 162.533L13.0136 163.336L10.1958 182.816C6.70271 207.026 4.83431 231.474 4.60509 255.972L4.23782 296.174C4.23782 296.174 -0.346329 318.358 0.0209468 320.038C0.388222 321.719 3.39444 313.652 3.39444 313.652C3.39444 313.652 2.03416 321.879 2.75511 324.437C3.34003 326.483 7.0808 315.99 7.0808 315.99C6.86996 322.216 6.65571 325.2 6.54859 326.693C6.46405 327.871 6.44623 328.119 6.54947 328.297C6.57704 328.344 6.61324 328.387 6.65911 328.441C7.77454 329.8 10.4679 315.829 10.4679 315.829C10.4679 315.829 9.67894 325.182 11.1072 326.059C12.5355 326.936 15.9362 309.458 15.9362 309.458C17.2081 311.756 19.2456 313.448 21.6358 314.193C22.0734 314.253 22.5174 314.164 22.9054 313.938C22.9538 313.91 23.0009 313.88 23.0469 313.848C21.5935 345.54 22.2979 384.298 26.6825 431.409H45.3828L48.4376 482.767L46.2704 482.732C46.2704 482.732 46.2296 499.567 45.0189 499.567C29.4029 500.268 26.6823 510.775 26.6823 510.775L25.8388 515.525L67.5858 515.057L67.4227 510.293L66.9058 483.068L65.9821 483.053L69.0152 431.409H94.6377L97.9257 482.461L95.785 482.425C95.785 482.425 95.7306 499.275 94.5199 499.275C78.9803 499.959 76.2191 510.399 76.1971 510.483L76.1828 510.483L75.3259 515.232L117.086 514.765L116.91 510.016L116.91 509.986L116.42 482.776L115.495 482.76L118.387 431.409H137.627C137.627 431.409 142.331 374.617 138.832 313.319C140.969 312.531 142.792 310.967 143.979 308.888C143.979 308.888 147.407 326.366 148.822 325.474C150.236 324.583 149.447 315.245 149.447 315.245C149.447 315.245 152.154 329.201 153.27 327.856C153.282 327.841 153.293 327.827 153.304 327.814C153.314 327.8 153.324 327.787 153.333 327.775C153.349 327.753 153.363 327.732 153.376 327.71C153.476 327.528 153.459 327.281 153.375 326.103C153.27 324.612 153.059 321.631 152.848 315.406C152.848 315.406 156.589 325.884 157.174 323.852C157.895 321.28 156.535 313.067 156.535 313.067C156.535 313.067 159.527 321.134 159.908 319.454C160.289 317.773 155.705 295.575 155.705 295.575L155.337 255.387C155.115 230.889 153.247 206.441 149.747 182.232L146.945 162.824L153.936 162.021C153.936 162.021 142.864 97.8821 129.451 88.3687C126.309 86.142 120.11 84.6454 113.866 83.6536C113.126 83.3995 112.358 83.1966 111.564 83.0492L108.394 82.5085C104.64 81.8655 100.885 81.3833 97.1174 81.0471C96.8943 81.242 96.6438 81.4364 96.3623 81.6275L95.7598 68.1253C98.6129 70.6742 102.36 72.2208 106.463 72.2208C115.403 72.2208 122.65 64.8798 122.65 55.8243C122.65 50.3472 119.999 45.4973 115.926 42.5196C116.752 39.5719 117.195 36.4552 117.195 33.2314C117.195 14.8782 102.835 0 85.1198 0C70.1837 0 57.6321 10.5767 54.0619 24.8953C53.8789 25.3098 53.7027 25.7279 53.5335 26.1493C53.4707 26.1417 53.4075 26.1351 53.3441 26.1294C49.1273 25.7494 45.2641 29.5928 44.9104 34.8245C44.5275 39.5615 47.0828 43.7563 50.713 44.8273C51.5704 55.2392 56.6389 64.9133 66.416 67.7343ZM117.353 166.222C115.006 175.608 112.011 182.798 108.225 184.537C127.479 211.847 135.589 261.573 138.589 309.277C141.02 304.791 142.102 297.562 142.102 297.562C142.102 297.562 137.082 243.375 133.423 219.745C130.545 201.539 126.928 183.48 122.582 165.621L118.937 166.04L118.934 166.114L118.465 166.094L117.353 166.222ZM53.4157 184.538C49.518 183.369 46.1492 176.265 43.3352 166.817L37.3924 166.135C33.0379 184.022 29.4142 202.109 26.5328 220.344C22.8737 244.047 17.8542 298.118 17.8542 298.118C17.8542 298.118 19.4406 308.837 23.1159 312.38C27.8087 215.203 52.8476 185.207 53.4157 184.538Z" fill="#4E4E4E"/>
<ellipse cx="71.9623" cy="39.3128" rx="2.12739" ry="2.65923" fill="#4E4E4E"/>
<ellipse cx="56.0069" cy="38.2493" rx="2.12739" ry="2.65923" fill="#4E4E4E"/>
<path d="M60.8192 46.0092C60.9529 46.016 61.0842 45.9718 61.1851 45.8858C61.286 45.7998 61.3487 45.6789 61.3598 45.5486C61.371 45.4184 61.3298 45.2889 61.2449 45.1878C61.16 45.0867 61.0382 45.0217 60.9051 45.0068C60.7401 44.839 60.6022 44.6478 60.496 44.4397C60.0132 43.6409 60.2955 43.3774 60.9747 42.7703C61.4894 42.3733 61.8944 41.8572 62.153 41.2687C62.3438 40.6738 62.4201 40.0496 62.378 39.4276V39.14C62.378 39.0023 62.322 38.8703 62.2223 38.7729C62.1225 38.6756 61.9872 38.6208 61.8461 38.6208C61.7051 38.6208 61.5698 38.6756 61.47 38.7729C61.3703 38.8703 61.3143 39.0023 61.3143 39.14V39.4316C61.3519 39.9334 61.2979 40.4378 61.1547 40.9212C60.946 41.3528 60.6363 41.7303 60.2505 42.0235C59.5836 42.6185 58.6753 43.4333 59.5754 44.9429C60.0336 45.6897 60.4019 46.0092 60.8192 46.0092Z" fill="#4E4E4E"/>
<path d="M72.6219 32.3931C72.4733 32.3237 72.3519 32.2081 72.2777 32.0654C72.2034 31.9226 72.1806 31.7611 72.2131 31.6074C72.2455 31.4536 72.3313 31.3166 72.4564 31.219C72.5814 31.1213 72.7383 31.0687 72.9013 31.0697C74.7746 31.1133 76.6016 31.7422 78.1097 32.8625C78.2429 32.9872 78.3241 33.1546 78.3373 33.3312C78.3505 33.5078 78.2945 33.6807 78.1807 33.8155C78.0668 33.9502 77.9034 34.0368 77.723 34.0581C77.5425 34.0794 77.3584 34.0338 77.2073 33.9303C75.9693 33.0211 74.4771 32.5073 72.9457 32.4628C72.8344 32.4642 72.7235 32.4403 72.6219 32.3931V32.3931Z" fill="#4E4E4E"/>
<path d="M64.6953 56.5657C64.3994 56.5657 64.1207 56.5657 63.8763 56.5657C63.0901 56.534 62.3123 56.3579 61.5692 56.0432C61.2773 55.9173 60.9971 55.7545 60.7331 55.5573C60.2185 55.1655 60.2185 54.7789 60.3042 54.5124C60.3554 54.3672 60.4474 54.249 60.5638 54.179C60.6801 54.1091 60.8131 54.0921 60.9389 54.131C61.0569 54.1652 61.1615 54.2484 61.2348 54.3661L61.3119 54.4445C61.5111 54.5863 61.7207 54.7053 61.938 54.7998C62.5789 55.0671 63.2504 55.2099 63.9277 55.223C65.4543 55.317 68.2802 55.223 70.0169 53.5407C70.1306 53.4319 70.2751 53.3826 70.4187 53.4037C70.5622 53.4248 70.693 53.5144 70.7823 53.653C70.8716 53.7916 70.912 53.9677 70.8947 54.1426C70.8775 54.3174 70.8038 54.4768 70.6901 54.5856C68.9748 56.247 66.4448 56.5657 64.6953 56.5657Z" fill="#4E4E4E"/>
</svg>
