<svg width="59" height="189" viewBox="0 0 59 189" fill="none" xmlns="http://www.w3.org/2000/svg">
<path d="M23.9924 179.05L30.5446 67.488H20.2362C20.2362 67.488 10.5497 77.4668 13.9726 113.64L17.8631 179.05" fill="#F79C97"/>
<path d="M42.1114 178.863L45.7831 113.657C49.2059 77.4836 39.1065 67.5049 39.1065 67.5049H28.7981L35.9821 179.051" fill="#F79C97"/>
<path d="M19.5395 67.488C19.5395 67.488 3.12172 86.4727 9.75849 157.783H50.3353C50.3353 157.783 55.8975 90.6256 39.5792 67.488H19.5395Z" fill="#FDAE20"/>
<path d="M9.75854 186.811C9.75854 186.811 10.7536 182.968 16.465 182.711C16.9078 182.711 16.9227 176.554 16.9227 176.554L24.4699 176.677L24.6589 186.634L9.75854 186.811Z" fill="#33334E"/>
<path d="M9.75865 186.811L9.4502 188.548L24.7187 188.377L24.659 186.635L9.75865 186.811Z" fill="#F3F0ED"/>
<path d="M27.8679 186.703C27.8679 186.703 28.8629 182.855 34.5694 182.604C35.0122 182.604 35.0321 176.441 35.0321 176.441L42.5793 176.569L42.7584 186.532L27.8679 186.703Z" fill="#33334E"/>
<path d="M27.8632 186.702L27.5498 188.439L42.8233 188.268L42.7587 186.521L27.8632 186.702Z" fill="#F3F0ED"/>
<path d="M38.9379 26.4131C42.2077 26.4131 44.8583 23.7283 44.8583 20.4163C44.8583 17.1043 42.2077 14.4194 38.9379 14.4194C35.6682 14.4194 33.0176 17.1043 33.0176 20.4163C33.0176 23.7283 35.6682 26.4131 38.9379 26.4131Z" fill="#928CC5"/>
<path d="M31.1312 24.3081C37.6102 24.3081 42.8624 18.8665 42.8624 12.154C42.8624 5.44155 37.6102 0 31.1312 0C24.6522 0 19.3999 5.44155 19.3999 12.154C19.3999 18.8665 24.6522 24.3081 31.1312 24.3081Z" fill="#928CC5"/>
<path d="M31.4199 2.4374C32.0565 2.69345 32.6524 3.05406 33.1861 3.50636C38.1612 7.69667 36.1711 17.1035 32.4896 21.6786C30.4547 24.196 27.2707 25.6124 24.2906 24.7733C19.9374 23.5172 18.1364 18.5466 18.5593 13.8966C18.8452 10.4198 20.3241 7.18132 22.7085 4.81049C25.0966 2.51223 28.5045 1.28827 31.4199 2.4374Z" fill="#FEC5A7"/>
<path d="M33.728 18.7371C34.1967 19.1167 34.7503 19.3567 35.333 19.4327C35.9157 19.5087 36.5067 19.4181 37.0463 19.17C37.5717 18.8836 38.0239 18.4636 38.3638 17.9466C38.7037 17.4297 38.9209 16.8313 38.9965 16.2036C39.0824 15.6461 39.0271 15.074 38.8363 14.5473C38.6454 14.0207 38.3262 13.5589 37.912 13.2105C37.4688 12.9101 36.9363 12.801 36.4213 12.9051C35.9064 13.0093 35.4472 13.3188 35.1359 13.7717L33.728 18.7371Z" fill="#FEC5A7"/>
<path d="M34.6094 15.6394L35.3308 31.8074C35.4129 33.2443 34.9814 34.6606 34.1242 35.7672C33.2671 36.8738 32.0491 37.5871 30.7189 37.7615V37.7615C29.9664 37.8643 29.2021 37.791 28.4785 37.5467C27.7549 37.3023 27.089 36.8927 26.5266 36.3459C25.9642 35.799 25.5185 35.128 25.2203 34.3787C24.922 33.6295 24.7781 32.8197 24.7985 32.0051L25.0622 16.8954L34.6094 15.6394Z" fill="#FEC5A7"/>
<path d="M24.8831 27.0975V24.8741C26.2999 25.0735 27.7407 24.8839 29.0709 24.3231C30.4012 23.7623 31.5774 22.8486 32.49 21.6672C32.49 21.6672 30.7537 26.0713 24.8831 27.0975Z" fill="#111010"/>
<path d="M36.0116 13.0295C30.6235 13.3235 25.3798 9.99365 22.1858 5.30628C22.1858 5.30628 26.3201 -0.428677 32.34 1.44734C38.5091 3.37146 36.0116 13.0295 36.0116 13.0295Z" fill="#928CC5"/>
<path d="M35.7729 16.7939C36.0376 16.8274 36.304 16.7483 36.515 16.5735C36.7261 16.3987 36.8651 16.1421 36.9023 15.8586C36.8859 15.656 36.8108 15.4641 36.6877 15.3098C36.5645 15.1554 36.3995 15.0464 36.2157 14.998" stroke="#B05959" stroke-width="0.95" stroke-miterlimit="10" stroke-linecap="round"/>
<path d="M23.7384 13.4313C23.6926 14.1273 23.8394 14.8223 24.1604 15.429C24.4813 16.0356 24.962 16.5267 25.542 16.8406C26.1221 17.1545 26.7756 17.2772 27.4203 17.1932C28.0651 17.1092 28.6723 16.8222 29.1657 16.3684C29.6591 15.9147 30.0165 15.3143 30.1931 14.6428C30.3698 13.9714 30.3576 13.2588 30.1583 12.5947C29.959 11.9307 29.5813 11.3447 29.0728 10.9106C28.5644 10.4765 27.9478 10.2136 27.3006 10.155C26.4245 10.0856 25.5585 10.391 24.8912 11.0047C24.2239 11.6185 23.8096 12.4907 23.7384 13.4313V13.4313Z" stroke="#E08F49" stroke-width="0.76" stroke-linecap="round" stroke-linejoin="round"/>
<path d="M16.4253 12.7353C16.271 14.6434 17.4203 16.3109 18.9626 16.4766C20.5048 16.6423 21.8979 15.1832 22.0471 13.2698C22.1964 11.3563 21.0521 9.69409 19.5098 9.55513C17.9675 9.41616 16.5546 10.8218 16.4253 12.7353Z" stroke="#E08F49" stroke-width="0.76" stroke-linecap="round" stroke-linejoin="round"/>
<path d="M23.7385 13.4304C23.6399 13.2937 23.5164 13.1801 23.3755 13.0965C23.2346 13.0128 23.0794 12.9609 22.9192 12.9439C22.759 12.9269 22.5973 12.9452 22.4439 12.9976C22.2905 13.05 22.1487 13.1354 22.0271 13.2487" stroke="#E08F49" stroke-width="0.76" stroke-linecap="round" stroke-linejoin="round"/>
<path d="M30.3005 14.0303L35.8876 12.9934" stroke="#E08F49" stroke-width="0.76" stroke-linecap="round" stroke-linejoin="round"/>
<path d="M6.53 109.033C6.53 109.033 8.36581 89.2568 9.70411 80.5876C11.2254 70.9595 13.3125 61.4446 15.9528 52.0999L6.0723 50.6621L3.72903 66.8622C2.45145 75.7167 1.7681 84.6584 1.68427 93.6182L1.54994 108.322C1.54994 108.322 -0.126666 116.435 0.00766108 117.05C0.141989 117.664 1.24148 114.714 1.24148 114.714C1.24148 114.714 0.743975 117.723 1.00765 118.658C1.22158 119.407 2.58973 115.569 2.58973 115.569C2.43551 120.123 2.2763 119.936 2.43551 120.123C2.84346 120.62 3.82853 115.51 3.82853 115.51C3.82853 115.51 3.53998 118.931 4.06236 119.252C4.58474 119.572 5.82852 113.18 5.82852 113.18C6.2937 114.021 7.03889 114.64 7.91308 114.912C8.07312 114.934 8.23552 114.901 8.37743 114.819C8.51933 114.736 8.63359 114.608 8.70412 114.452C7.18174 113.437 6.53 109.033 6.53 109.033Z" fill="#FEC5A7"/>
<path d="M23.5346 30.1228C23.5346 30.1228 13.9775 30.5076 11.1566 32.5119C6.24616 35.9914 2.20142 59.4443 2.20142 59.4443L20.0769 61.4967L23.5346 30.1228Z" fill="#BBD6E1"/>
<path d="M51.9721 108.83C51.9721 108.83 50.1363 89.0114 48.798 80.3688C47.2764 70.7426 45.1893 61.2295 42.5493 51.8865L52.4298 50.4487L54.7681 66.6488C56.0482 75.503 56.7315 84.4449 56.8129 93.4048L56.9472 108.103C56.9472 108.103 58.6238 116.222 58.4845 116.836C58.3452 117.451 57.2507 114.501 57.2507 114.501C57.2507 114.501 57.7482 117.504 57.4845 118.445C57.2706 119.188 55.9025 115.356 55.9025 115.356C56.0567 119.91 56.2109 119.717 56.0567 119.91C55.6487 120.401 54.6587 115.297 54.6587 115.297C54.6587 115.297 54.9472 118.712 54.4298 119.038C53.9124 119.364 52.6587 112.972 52.6587 112.972C52.1901 113.793 51.4513 114.394 50.5891 114.656C50.4282 114.679 50.2647 114.647 50.1218 114.564C49.9789 114.482 49.8638 114.353 49.793 114.196C51.3154 113.218 51.9721 108.83 51.9721 108.83Z" fill="#FEC5A7"/>
<path d="M34.9675 29.9292C34.9675 29.9292 44.5247 30.3194 47.3456 32.3183C52.251 35.7978 56.3007 59.256 56.3007 59.256L38.4252 61.3084L34.9675 29.9292Z" fill="#BBD6E1"/>
<path d="M40.8027 30.3736L39.6435 30.1758C38.2704 29.9407 36.8973 29.7643 35.5191 29.6414C34.7729 30.2934 33.1858 30.9295 29.7779 30.7691C26.6734 30.6301 25.2257 30.1972 24.554 29.7803C22.0919 30.0631 19.6491 30.5147 17.2407 31.1326C13.7581 31.961 11.2308 35.7291 12.0765 39.4758C12.0765 39.4758 14.6884 66.05 19.5392 67.4931H39.5788C44.4295 65.275 45.733 38.5885 45.733 38.5885C46.4892 34.767 44.3748 31.0363 40.8027 30.3736Z" fill="#BBD6E1"/>
<path d="M43.2407 60.7422L43.6934 50.0793" stroke="#2E2766" stroke-width="1.41" stroke-miterlimit="10"/>
<path d="M16.251 60.7422L15.8032 50.0793" stroke="#2E2766" stroke-width="1.41" stroke-miterlimit="10"/>
<ellipse cx="26.3198" cy="14.3798" rx="0.778071" ry="0.972589" fill="#2E2766"/>
<ellipse cx="20.4839" cy="13.9907" rx="0.778071" ry="0.972589" fill="#2E2766"/>
<path d="M22.2441 16.8292C22.293 16.8317 22.341 16.8155 22.3779 16.784C22.4148 16.7526 22.4378 16.7084 22.4418 16.6607C22.4459 16.6131 22.4309 16.5657 22.3998 16.5288C22.3688 16.4918 22.3242 16.468 22.2755 16.4625C22.2152 16.4012 22.1648 16.3313 22.1259 16.2551C21.9493 15.963 22.0526 15.8666 22.301 15.6446C22.4892 15.4994 22.6374 15.3106 22.7319 15.0954C22.8017 14.8778 22.8296 14.6495 22.8142 14.422V14.3168C22.8142 14.2665 22.7938 14.2182 22.7573 14.1826C22.7208 14.147 22.6713 14.127 22.6197 14.127C22.5681 14.127 22.5186 14.147 22.4822 14.1826C22.4457 14.2182 22.4252 14.2665 22.4252 14.3168V14.4235C22.439 14.607 22.4192 14.7915 22.3668 14.9683C22.2905 15.1261 22.1772 15.2642 22.0361 15.3714C21.7922 15.5891 21.46 15.887 21.7892 16.4392C21.9568 16.7123 22.0915 16.8292 22.2441 16.8292Z" fill="#2E2766"/>
<path d="M26.56 11.8482C26.5057 11.8228 26.4613 11.7806 26.4341 11.7284C26.4069 11.6762 26.3986 11.6171 26.4105 11.5609C26.4223 11.5046 26.4537 11.4545 26.4995 11.4188C26.5452 11.3831 26.6026 11.3638 26.6622 11.3642C27.3473 11.3801 28.0155 11.6102 28.5671 12.0199C28.6158 12.0655 28.6455 12.1267 28.6503 12.1913C28.6552 12.2559 28.6347 12.3192 28.5931 12.3684C28.5514 12.4177 28.4916 12.4494 28.4257 12.4572C28.3597 12.465 28.2923 12.4483 28.2371 12.4104C27.7843 12.0779 27.2385 11.89 26.6784 11.8737C26.6377 11.8742 26.5972 11.8655 26.56 11.8482V11.8482Z" fill="#2E2766"/>
<path d="M23.6613 20.6907C23.5531 20.6907 23.4512 20.6907 23.3618 20.6907C23.0742 20.6791 22.7898 20.6147 22.518 20.4996C22.4112 20.4535 22.3087 20.394 22.2122 20.3219C22.024 20.1786 22.024 20.0372 22.0553 19.9397C22.0741 19.8866 22.1077 19.8434 22.1503 19.8178C22.1928 19.7922 22.2415 19.786 22.2875 19.8002C22.3306 19.8127 22.3689 19.8431 22.3957 19.8862L22.4239 19.9149C22.4968 19.9668 22.5734 20.0103 22.6529 20.0448C22.8873 20.1426 23.1329 20.1948 23.3806 20.1996C23.9389 20.234 24.9725 20.1996 25.6076 19.5843C25.6492 19.5445 25.7021 19.5265 25.7546 19.5342C25.8071 19.5419 25.8549 19.5747 25.8876 19.6254C25.9202 19.6761 25.935 19.7405 25.9287 19.8044C25.9224 19.8684 25.8955 19.9267 25.8539 19.9665C25.2265 20.5741 24.3012 20.6907 23.6613 20.6907Z" fill="#2E2766"/>
</svg>
