<svg width="67" height="196" viewBox="0 0 67 196" fill="none" xmlns="http://www.w3.org/2000/svg">
<path d="M36.918 194.689C36.9092 193.338 36.3423 192.046 35.3421 191.097C34.3418 190.147 32.99 189.618 31.5835 189.625L27.2948 189.652V186.036L18.2112 186.089L18.2612 193.973V195.202H19.5406L27.3282 195.154L36.918 195.1V194.689Z" fill="#4E4E4E"/>
<path d="M36.9364 194.144L18.2578 194.257L18.2664 195.576L36.9451 195.463L36.9364 194.144Z" fill="#4E4E4E"/>
<path d="M63.2903 194.689C63.2815 193.338 62.7147 192.046 61.7144 191.097C60.7142 190.147 59.3623 189.618 57.9558 189.625L53.6671 189.652V186.036L44.5835 186.089L44.6336 193.973V195.196H45.9129L53.7005 195.148L63.2903 195.095V194.689Z" fill="#4E4E4E"/>
<path d="M63.3078 194.144L44.6292 194.257L44.6378 195.576L63.3164 195.463L63.3078 194.144Z" fill="#4E4E4E"/>
<path d="M58.6176 187.836L55.3301 100.218V93.1992H15.4189V99.1551V101.97V187.729H33.6307L36.2117 113.305L41.4794 187.627L58.6176 187.836Z" fill="#4E4E4E"/>
<path d="M55.6859 103.865C55.1774 104.735 54.949 105.729 55.0295 106.723C54.2953 107.792 53.4164 108.806 52.6599 109.88C52.5696 109.985 52.5152 110.113 52.5042 110.249C52.5107 110.324 52.5339 110.398 52.5723 110.464C52.6106 110.53 52.6632 110.588 52.7266 110.633C53.0445 110.899 53.4514 111.045 53.8725 111.045C54.2937 111.045 54.7006 110.899 55.0184 110.633C55.4134 110.325 55.7617 109.966 56.053 109.565C56.2144 109.357 56.8596 108.694 56.8485 108.438C56.8485 108.438 57.0877 109.698 55.5858 115.788C55.3355 116.797 57.1934 117.214 57.1934 117.214C61.9883 119.538 64.2355 107.428 64.2355 107.428L64.9976 103.155L55.6859 103.865Z" fill="#4E4E4E"/>
<path d="M62.7893 51.7621C62.589 39.4498 56.3312 34.5035 45.5454 33.9266C45.1839 33.8892 26.6328 33.793 25.6371 33.793C24.6441 33.7907 23.6519 33.8495 22.6667 33.9693C12.3482 34.7812 8.76039 39.7168 6.22388 50.6457L17.0541 58.4123L13.533 100.28C13.5069 100.598 13.5497 100.918 13.6587 101.219C13.7676 101.521 13.9404 101.797 14.1661 102.032C14.3918 102.266 14.6656 102.453 14.9702 102.581C15.2748 102.708 15.6037 102.774 15.9361 102.774H54.5957C54.7071 102.775 54.8176 102.754 54.9202 102.712C55.0228 102.67 55.1153 102.609 55.192 102.531C55.2687 102.453 55.328 102.361 55.3661 102.261C55.4041 102.16 55.4202 102.053 55.4134 101.946L55.2854 99.6225L55.6136 103.896H55.6859L64.9976 103.228L66.544 103.116L62.7893 51.7621Z" fill="#4E4E4E"/>
<path d="M55.4141 101.944L54.5908 60.739L52.6161 73.954C52.5854 74.159 52.6391 74.3674 52.7658 74.5349C52.8926 74.7025 53.0823 74.816 53.2947 74.8514V74.8514C53.4805 74.8865 53.6484 74.9812 53.7707 75.1201C53.893 75.2589 53.9625 75.4335 53.9678 75.6153L54.9079 102.35" fill="#4E4E4E"/>
<path d="M53.6615 53.2034H46.7417V54.2289H53.6615V53.2034Z" fill="#4E4E4E"/>
<path d="M45.4508 100.492L44.2771 34.7212C44.2771 39.8277 40.2499 44.0102 35.3326 44.0102C31.1384 44.0102 27.6007 40.9601 26.655 36.8899L27.0222 100.722L45.4508 100.492Z" fill="#4E4E4E"/>
<path d="M45.4512 96.7202H26.9724V102.772H45.4512V96.7202Z" fill="#4E4E4E"/>
<path d="M35.3325 47.0957C40.2498 47.0957 44.2771 44.1685 44.2771 40.5843V33.8806H44.1047C40.2888 33.8539 30.0259 33.8112 26.6772 33.7952H26.3936V40.595C26.3954 41.1126 26.4836 41.6266 26.655 42.1173C27.6006 44.959 31.1606 47.0957 35.3325 47.0957Z" fill="#4E4E4E"/>
<path d="M35.3331 43.6588C38.7651 43.6588 41.5687 41.4902 41.5687 38.8514V33.8571H41.4519C38.7874 33.8571 31.634 33.8037 29.3033 33.793H29.103V38.8354C29.106 39.2173 29.166 39.5969 29.281 39.9625C29.943 42.0724 32.4072 43.6588 35.3331 43.6588Z" fill="#4E4E4E"/>
<path d="M15.0628 82.2273L14.8125 85.2079L24.6637 79.0864L15.0628 82.2273Z" fill="#4E4E4E"/>
<path d="M17.8108 66.2377L25.7708 63.7699L16.1865 68.823L16.9764 59.5661L19.0345 56.4146L17.2879 65.8104C17.2782 65.8755 17.2859 65.942 17.3102 66.0035C17.3344 66.0651 17.3745 66.1197 17.4267 66.1624C17.4789 66.205 17.5415 66.2343 17.6087 66.2475C17.6758 66.2607 17.7454 66.2573 17.8108 66.2377Z" fill="#4E4E4E"/>
<path d="M43.1821 65.4182V65.2099C43.1757 65.0485 43.1362 64.89 43.0658 64.7433C42.9955 64.5966 42.8958 64.4646 42.7723 64.355C42.6488 64.2453 42.504 64.1602 42.3462 64.1043C42.1884 64.0484 42.0207 64.023 41.8527 64.0294L40.3397 64.0828L41.4522 64.0401C41.6049 64.0339 41.7549 63.9989 41.8935 63.937C42.0321 63.8751 42.1566 63.7876 42.2599 63.6794C42.3632 63.5713 42.4434 63.4446 42.4956 63.3067C42.5479 63.1688 42.5714 63.0223 42.5647 62.8757C42.5503 62.5053 42.3869 62.1548 42.1089 61.8978C41.8308 61.6407 41.4599 61.4973 41.0739 61.4975C39.9736 61.4905 38.8778 61.6344 37.8199 61.9249C35.6393 62.5658 35.122 62.1118 35.122 62.1118C35.122 62.1118 34.6659 62.1118 33.9316 59.7562C33.1974 57.4005 29.9211 57.9561 30.8611 59.4303C31.1365 59.8732 31.3071 60.3688 31.3609 60.882C31.4148 61.3952 31.3505 61.9135 31.1726 62.4003L30.7888 63.3671L30.672 63.6448L27.1287 65.0123L29.9099 74.7179L39.3662 71.2352C39.5706 71.2283 39.7715 71.1827 39.9574 71.1011C40.1433 71.0194 40.3106 70.9033 40.4497 70.7593C40.5887 70.6154 40.6968 70.4465 40.7676 70.2623C40.8385 70.0781 40.8707 69.8823 40.8626 69.6862C40.8582 69.5709 40.8067 69.462 40.7192 69.383C40.6317 69.304 40.5154 69.2613 40.3953 69.2642H39.967L41.0795 69.2268C41.4592 69.2225 41.8216 69.074 42.0874 68.8137C42.3533 68.5534 42.5009 68.2026 42.4979 67.838V67.6831C42.4938 67.5483 42.4614 67.4158 42.4027 67.2933C42.344 67.1709 42.2603 67.061 42.1565 66.9703C42.0527 66.8796 41.9309 66.8099 41.7984 66.7653C41.666 66.7207 41.5255 66.7022 41.3854 66.7109L39.8446 66.7643L41.9639 66.6895C42.1315 66.6848 42.2964 66.6479 42.4489 66.581C42.6014 66.5142 42.7384 66.4187 42.8519 66.3003C42.9654 66.1818 43.0531 66.0428 43.1098 65.8913C43.1665 65.7398 43.1911 65.579 43.1821 65.4182V65.4182Z" fill="#4E4E4E"/>
<path opacity="0.57" d="M39.8328 64.3875C39.7591 64.3875 39.6883 64.3594 39.6362 64.3093C39.584 64.2592 39.5547 64.1913 39.5547 64.1205C39.5547 64.0496 39.584 63.9817 39.6362 63.9316C39.6883 63.8815 39.7591 63.8534 39.8328 63.8534L41.8465 63.7839C41.9202 63.7839 41.991 63.8121 42.0431 63.8622C42.0953 63.9122 42.1246 63.9802 42.1246 64.051C42.1246 64.1218 42.0953 64.1898 42.0431 64.2399C41.991 64.2899 41.9202 64.3181 41.8465 64.3181L39.8273 64.3875H39.8328Z" fill="#4E4E4E"/>
<path opacity="0.57" d="M41.9577 66.9839L39.4101 66.9465C39.3735 66.9458 39.3375 66.9382 39.3041 66.9241C39.2706 66.9101 39.2403 66.8898 39.215 66.8645C39.1897 66.8392 39.1698 66.8094 39.1565 66.7767C39.1432 66.744 39.1368 66.7092 39.1375 66.6741C39.1403 66.6046 39.1707 66.5388 39.2224 66.4902C39.2741 66.4415 39.3433 66.4137 39.4156 66.4124L41.9633 66.4497C42.037 66.4497 42.1078 66.4779 42.1599 66.528C42.2121 66.5781 42.2414 66.646 42.2414 66.7168C42.2414 66.7877 42.2121 66.8556 42.1599 66.9057C42.1078 66.9558 42.037 66.9839 41.9633 66.9839H41.9577Z" fill="#4E4E4E"/>
<path opacity="0.57" d="M38.8428 69.5218C38.7691 69.5218 38.6983 69.4937 38.6462 69.4436C38.594 69.3935 38.5647 69.3256 38.5647 69.2547C38.5647 69.1839 38.594 69.116 38.6462 69.0659C38.6983 69.0158 38.7691 68.9877 38.8428 68.9877L40.7341 68.9236C40.7706 68.9221 40.8071 68.9276 40.8414 68.9397C40.8757 68.9519 40.9072 68.9704 40.9341 68.9942C40.9609 69.018 40.9826 69.0466 40.998 69.0785C41.0133 69.1104 41.0219 69.1449 41.0233 69.18C41.0248 69.215 41.0191 69.2501 41.0065 69.283C40.9939 69.316 40.9746 69.3462 40.9498 69.372C40.925 69.3978 40.8952 69.4186 40.862 69.4334C40.8288 69.4481 40.7929 69.4563 40.7563 69.4577L38.8595 69.5218H38.8428Z" fill="#4E4E4E"/>
<path d="M10.0233 84.8244C7.67769 84.8432 5.40253 84.055 3.60975 82.6023C0.183225 79.8193 -0.890344 75.2363 0.761729 70.5731L7.18089 47.193C7.4158 46.3357 7.82628 45.5319 8.38836 44.8286C8.95044 44.1254 9.65285 43.5367 10.4545 43.0971C11.2562 42.6575 12.1411 42.3757 13.0575 42.2682C13.9739 42.1607 14.9034 42.2297 15.7917 42.4711C17.5667 42.9846 19.0622 44.1441 19.9592 45.702C20.8561 47.2599 21.0832 49.0928 20.5922 50.8093L18.8177 57.2886L15.7583 68.4471L25.7709 63.7786C25.9355 63.7008 26.1164 63.66 26.2999 63.6594C26.4834 63.6588 26.6646 63.6983 26.8298 63.7751C26.995 63.8518 27.1397 63.9637 27.2531 64.1022C27.3665 64.2407 27.4455 64.4023 27.4841 64.5745L30.2098 76.4114L15.9697 83.2807C14.1553 84.2695 12.1095 84.8007 10.0233 84.8244Z" fill="#4E4E4E"/>
<path d="M51.0749 7.83125C50.8038 7.18631 50.3448 6.63013 49.7528 6.22938C49.1608 5.82863 48.4611 5.6003 47.7374 5.57176C46.5582 2.67129 44.2275 0.433177 40.5339 0.0539259C40.2391 0.00051027 39.9388 0.000510268 39.6439 0.000510268C37.2521 -0.0315391 35.9282 0.961992 35.1939 2.13714C34.5199 3.16302 33.5133 3.94758 32.3292 4.36991C31.0443 4.82394 29.6425 4.36991 28.3186 4.56755C27.6913 4.69959 27.1004 4.95843 26.5854 5.32684C26.0703 5.69525 25.6429 6.16478 25.3315 6.70418C24.7246 7.7991 24.4093 9.02127 24.4137 10.2617C24.3895 11.6021 24.602 12.9368 25.0423 14.2091C25.1619 14.5772 25.3145 14.9346 25.4984 15.2774L26.0547 17.3179C26.2046 17.8009 26.5119 18.2249 26.9314 18.5278C27.3509 18.8307 27.8606 18.9963 28.3854 19.0005H30.0541C29.0801 20.0878 28.4498 21.4197 28.2376 22.8395C28.0254 24.2592 28.2401 25.7076 28.8564 27.0141C29.4726 28.3206 30.4649 29.4308 31.7162 30.214C32.9675 30.9972 34.4258 31.4207 35.9193 31.4347C37.4129 31.4486 38.8795 31.0525 40.1464 30.2929C41.4134 29.5333 42.428 28.4419 43.0707 27.1472C43.7134 25.8525 43.9574 24.4084 43.7741 22.9849C43.5907 21.5615 42.9876 20.218 42.0358 19.1126L47.12 19.1607C47.12 19.1607 49.0947 19.0218 49.6621 16.3243C50.2294 13.6268 49.7177 12.7134 49.7177 12.7134C49.7177 12.7134 52.9885 12.2113 51.0749 7.83125Z" fill="#4E4E4E"/>
<path d="M33.9422 10.439C33.9422 10.439 33.9144 10.7488 33.8421 11.2349C33.774 12.2151 33.5605 13.181 33.208 14.1033C32.6517 15.8553 31.7339 17.57 30.2376 17.5059C29.4143 17.6073 28.63 17.2334 28.5688 16.4375V16.288H27.9124H27.7122C26.9524 16.3596 26.253 16.7174 25.7672 17.283C25.2814 17.8486 25.0487 18.576 25.1201 19.306L25.1646 19.7226C25.2392 20.4523 25.6118 21.1238 26.2008 21.5903C26.7898 22.0568 27.5472 22.2803 28.3074 22.2118L29.4588 22.1049L29.4922 22.8421V33.7869C29.4966 35.072 30.0302 36.3032 30.9764 37.2118C31.9227 38.1205 33.2048 38.6329 34.543 38.6371H36.0838C36.75 38.6406 37.4103 38.5178 38.0269 38.2758C38.6435 38.0338 39.2043 37.6772 39.6772 37.2266C40.15 36.776 40.5256 36.2403 40.7824 35.65C41.0391 35.0598 41.1721 34.4266 41.1735 33.7869V30.8544L42.5586 30.7262C43.9706 30.587 45.2685 29.9191 46.1713 28.8673C47.074 27.8155 47.5087 26.4644 47.3813 25.1069L47.2923 24.3805L45.9573 11.0265C45.8349 11.0265 45.7181 11.0265 45.5957 11.0586C41.7298 11.5233 34.6153 12.4794 33.9422 10.439Z" fill="#4E4E4E"/>
<path opacity="0.15" d="M47.3811 25.107L47.2921 24.3806C47.4269 25.7262 47.0001 27.0683 46.1052 28.1119C45.2103 29.1555 43.9206 29.8154 42.5194 29.9465L38.5366 30.315C36.5559 30.4936 34.5823 29.9107 33.0485 28.6941C31.5146 27.4775 30.5457 25.7265 30.3541 23.825L30.1761 22.0303L29.4419 22.0997L29.581 23.5045C29.7458 25.156 30.4176 26.7232 31.5112 28.0075C31.2195 28.5378 31.065 29.1277 31.0606 29.7275C31.0606 32.0083 33.2856 33.8565 35.9667 33.8565C36.9706 33.891 37.961 33.626 38.8017 33.098C39.6424 32.5701 40.2921 31.805 40.6615 30.908L42.5361 30.737C43.9542 30.6031 45.2595 29.9359 46.1672 28.8812C47.0749 27.8264 47.5113 26.4696 47.3811 25.107Z" fill="#4E4E4E"/>
<path opacity="0.57" d="M27.2669 20.2448C27.2204 20.2443 27.1749 20.2328 27.1341 20.2114C27.0934 20.19 27.0588 20.1593 27.0333 20.122C26.9935 20.0625 26.98 19.9902 26.9956 19.9211C27.0113 19.852 27.0548 19.7917 27.1167 19.7534L28.0123 19.2193L26.9943 18.1189C26.943 18.0681 26.9143 18.0001 26.9143 17.9293C26.9143 17.8585 26.943 17.7905 26.9943 17.7396C27.0202 17.7146 27.0509 17.6947 27.0848 17.6812C27.1187 17.6676 27.1551 17.6606 27.1918 17.6606C27.2285 17.6606 27.2649 17.6676 27.2987 17.6812C27.3326 17.6947 27.3634 17.7146 27.3893 17.7396L28.6186 19.075C28.6454 19.1037 28.6653 19.1378 28.6768 19.1747C28.6884 19.2116 28.6913 19.2506 28.6853 19.2887C28.6796 19.3263 28.6658 19.3624 28.6448 19.3946C28.6237 19.4268 28.5958 19.4544 28.563 19.4757L27.3948 20.1968C27.357 20.2228 27.313 20.2393 27.2669 20.2448V20.2448Z" fill="#4E4E4E"/>
<path d="M38.1148 21.9965C38.997 22.6978 39.976 23.2784 41.024 23.7219C42.5648 24.3255 40.6402 26.5743 38.2427 25.7837C35.8453 24.9932 36.8799 21.4196 38.1148 21.9965Z" fill="#4E4E4E"/>
<path d="M36.0117 15.5554C36.2951 15.5898 36.5829 15.568 36.8572 15.4913C37.152 15.4165 37.4468 15.3524 37.7082 15.3097C37.9697 15.2669 38.2645 15.2135 38.5704 15.1815C38.8556 15.1661 39.1342 15.0933 39.3881 14.9678C39.5939 14.8396 39.6329 14.5618 39.3103 14.2894C39.0372 14.1092 38.7275 13.9865 38.4015 13.9294C38.0756 13.8723 37.7407 13.8821 37.419 13.9582C37.0931 13.9971 36.7799 14.1037 36.5013 14.2707C36.2227 14.4377 35.9854 14.661 35.8059 14.9251C35.6112 15.2616 35.7669 15.4913 36.0117 15.5554Z" fill="#4E4E4E"/>
<path d="M46.6583 15.1025C46.38 15.1702 46.0901 15.1811 45.8072 15.1345C45.5068 15.1345 45.2009 15.0865 44.9394 15.0758C44.678 15.0651 44.3832 15.0758 44.0661 15.0758C43.7788 15.0937 43.4908 15.0537 43.2206 14.9583C42.9981 14.8568 42.9147 14.5897 43.2206 14.2746C43.4628 14.059 43.7492 13.8945 44.0615 13.7914C44.3738 13.6884 44.705 13.6492 45.034 13.6763C45.3565 13.6792 45.6747 13.7473 45.968 13.8762C46.2613 14.005 46.523 14.1917 46.7361 14.4241C47.0031 14.7606 46.8919 15.0224 46.6583 15.1025Z" fill="#4E4E4E"/>
<path opacity="0.57" d="M40.6563 20.6882C40.5859 20.6882 40.5182 20.6621 40.4674 20.6153C40.4166 20.5685 40.3866 20.5047 40.3838 20.4371C40.3807 20.4023 40.385 20.3673 40.3963 20.3341C40.4076 20.3008 40.4257 20.2701 40.4495 20.2438C40.4734 20.2174 40.5025 20.1958 40.5351 20.1804C40.5678 20.165 40.6033 20.156 40.6396 20.154L41.6298 20.0899C41.8018 20.0776 41.9696 20.0325 42.1234 19.9573C42.2771 19.8821 42.4137 19.7783 42.5253 19.6519C42.6416 19.5207 42.7295 19.3686 42.784 19.2045C42.8384 19.0403 42.8583 18.8674 42.8424 18.6958C42.8396 18.6394 42.825 18.5841 42.7996 18.5332C42.7741 18.4823 42.7383 18.4368 42.6942 18.3995C42.6501 18.3621 42.5987 18.3336 42.5429 18.3157C42.4871 18.2978 42.4282 18.2908 42.3696 18.2952C42.0541 18.3142 41.7435 18.2125 41.5059 18.0123C41.2682 17.8121 41.1228 17.5297 41.1013 17.2268L40.8955 15.0635C40.8917 15.0284 40.8951 14.9929 40.9056 14.9591C40.9162 14.9253 40.9336 14.8938 40.9569 14.8665C40.9801 14.8392 41.0088 14.8165 41.0413 14.7999C41.0737 14.7833 41.1092 14.7731 41.1458 14.7697C41.1824 14.7668 41.2192 14.7708 41.2541 14.7816C41.289 14.7924 41.3213 14.8097 41.3493 14.8326C41.3772 14.8554 41.4001 14.8833 41.4167 14.9147C41.4334 14.9461 41.4434 14.9803 41.4462 15.0154L41.6631 17.2162C41.6688 17.2962 41.6908 17.3744 41.728 17.4462C41.7652 17.518 41.8169 17.5821 41.8799 17.6347C41.943 17.6873 42.0162 17.7274 42.0955 17.7528C42.1748 17.7781 42.2585 17.7882 42.3418 17.7824C42.4737 17.7752 42.6059 17.7931 42.7306 17.8352C42.8553 17.8773 42.9701 17.9427 43.0684 18.0276C43.1666 18.1125 43.2464 18.2153 43.3031 18.33C43.3598 18.4447 43.3923 18.569 43.3987 18.6958C43.4336 19.1761 43.2697 19.6503 42.9425 20.0151C42.7839 20.196 42.5887 20.3441 42.3688 20.4506C42.149 20.5571 41.9089 20.6197 41.6631 20.6348L40.673 20.7042L40.6563 20.6882Z" fill="#4E4E4E"/>
<path d="M45.128 17.4514C45.0559 17.4498 44.9868 17.4232 44.9333 17.3766C44.8569 17.2905 44.7624 17.2208 44.656 17.172C44.5496 17.1232 44.4337 17.0965 44.3159 17.0935C44.1151 17.1185 43.931 17.2135 43.7986 17.3606C43.7529 17.4166 43.6858 17.4528 43.6123 17.4613C43.5388 17.4698 43.4647 17.4499 43.4064 17.406C43.3482 17.3621 43.3104 17.2978 43.3016 17.2271C43.2927 17.1565 43.3134 17.0854 43.3591 17.0294C43.5906 16.7651 43.9194 16.5967 44.277 16.5594C44.4758 16.5553 44.6731 16.5934 44.8548 16.671C45.0365 16.7485 45.1982 16.8636 45.3283 17.0081C45.3796 17.0589 45.4083 17.1269 45.4083 17.1977C45.4083 17.2685 45.3796 17.3365 45.3283 17.3873C45.2718 17.4312 45.2007 17.454 45.128 17.4514Z" fill="#4E4E4E"/>
<path d="M38.6812 17.7832C38.6087 17.7836 38.5388 17.7567 38.4865 17.7084C38.4091 17.6211 38.3139 17.55 38.2067 17.4995C38.0996 17.449 37.9828 17.4201 37.8635 17.4146C37.6616 17.4399 37.477 17.5371 37.3462 17.687C37.2995 17.7412 37.2325 17.7756 37.1595 17.7826C37.0866 17.7896 37.0138 17.7687 36.9569 17.7244C36.9287 17.7031 36.9051 17.6766 36.8876 17.6465C36.8701 17.6164 36.859 17.5832 36.8548 17.549C36.8507 17.5147 36.8537 17.4801 36.8635 17.4469C36.8734 17.4138 36.89 17.3828 36.9123 17.3558C37.0261 17.2101 37.1731 17.0914 37.3422 17.0088C37.5112 16.9261 37.6977 16.8818 37.8873 16.8793C38.0769 16.8767 38.2647 16.9159 38.436 16.9939C38.6074 17.0719 38.7579 17.1866 38.8759 17.3291C38.914 17.3665 38.9399 17.4137 38.9503 17.465C38.9607 17.5163 38.9552 17.5695 38.9345 17.6178C38.9138 17.6661 38.8787 17.7076 38.8337 17.737C38.7887 17.7664 38.7357 17.7824 38.6812 17.7832Z" fill="#4E4E4E"/>
</svg>
