<svg width="162" height="560" viewBox="0 0 162 560" fill="none" xmlns="http://www.w3.org/2000/svg">
<path d="M54.8584 532.626L54.4583 510.257L77.2519 510.349L76.0514 532.626H54.8584Z" fill="#F3F0ED"/>
<path d="M54.4583 514.44L76.9478 514.639" stroke="#323232" stroke-width="0.93" stroke-miterlimit="10"/>
<path d="M30.5923 554.504C30.5923 554.504 33.7936 543.687 51.7692 542.967C53.1618 542.967 53.2099 525.639 53.2099 525.639L77.0439 525.992L77.6362 553.998L30.5923 554.504Z" fill="#FD5852"/>
<path d="M30.5924 554.504L29.616 559.406L77.8444 558.916L77.6363 553.998L30.5924 554.504Z" fill="#F3F0ED"/>
<path d="M120.534 532.626L120.134 510.257L142.912 510.349L141.727 532.626H120.534Z" fill="#F3F0ED"/>
<path d="M120.134 514.44L142.624 514.639" stroke="#323232" stroke-width="0.93" stroke-miterlimit="10"/>
<path d="M96.2681 554.504C96.2681 554.504 99.4694 543.687 117.445 542.967C118.838 542.967 118.886 525.639 118.886 525.639L142.72 525.992L143.312 553.998L96.2681 554.504Z" fill="#FD5852"/>
<path d="M96.2678 554.504L95.2754 559.406L143.52 558.916L143.312 553.998L96.2678 554.504Z" fill="#F3F0ED"/>
<path d="M129.978 190.837C129.978 190.837 158.374 212.286 155.589 327.191L149.875 532.717H112.147L92.8264 191.603L129.978 190.837Z" fill="#48485E"/>
<path d="M59.6447 192.538C59.6447 192.538 34.2259 225.002 35.4745 327.176L41.1409 532.717H81.8621L98.269 191.603L59.6447 192.538Z" fill="#48485E"/>
<path d="M120.566 215.258H68.1121V265.464H120.566V215.258Z" fill="#48485E"/>
<path d="M102.014 265.464L79.3008 264.024" stroke="#594897" stroke-width="1.38" stroke-miterlimit="10"/>
<path d="M56.6646 94.4056C56.6646 94.4056 41.4281 7.00372 95.4093 0.151094C95.4093 0.151094 152.935 -8.30665 138.523 101.335L56.6646 94.4056Z" fill="#2E2766"/>
<path d="M104.427 8.70433C106.468 9.48295 108.373 10.5786 110.074 11.9511C125.978 24.4351 119.571 52.5362 107.841 66.0591C101.37 73.5592 91.1927 77.7801 81.6792 75.28C67.7812 71.5138 62.0375 56.8057 63.3804 42.8932C64.2631 32.4883 68.9892 22.7899 76.6313 15.7012C84.2518 8.91537 95.1405 5.26272 104.427 8.70433Z" fill="#FEC5A7"/>
<path d="M111.49 54.6211C112.969 55.687 114.716 56.3603 116.555 56.5728C118.393 56.7853 120.257 56.5296 121.959 55.8314C123.606 55.0189 125.022 53.8336 126.082 52.3784C127.142 50.9232 127.814 49.2423 128.041 47.4817C128.314 45.9158 128.142 44.3085 127.542 42.8285C126.942 41.3485 125.937 40.0504 124.632 39.0706C123.237 38.2217 121.559 37.9079 119.932 38.1919C118.306 38.4759 116.852 39.3369 115.86 40.6027L111.49 54.6211Z" fill="#FEC5A7"/>
<path d="M114.26 45.9033L116.453 91.375C116.717 95.4199 115.355 99.4084 112.647 102.524C109.94 105.64 106.09 107.647 101.887 108.136V108.136C99.5134 108.419 97.1041 108.208 94.8236 107.518C92.5432 106.828 90.4452 105.675 88.6732 104.137C86.9012 102.6 85.4968 100.714 84.5562 98.6094C83.6156 96.5047 83.1608 94.2304 83.2229 91.9419L84.0713 49.4271L114.26 45.9033Z" fill="#FEC5A7"/>
<path d="M82.3369 81.8374V75.5866C86.8148 76.1347 91.3649 75.589 95.5631 74.0004C99.7613 72.4119 103.471 69.8321 106.347 66.5015C106.347 66.5015 100.873 78.9418 82.3369 81.8374Z" fill="#111010"/>
<path d="M118.693 38.5498C101.678 39.3771 85.0789 30.0008 75.0266 16.8251C75.0266 16.8251 88.0881 0.677086 107.04 5.96271C126.584 11.3862 118.693 38.5498 118.693 38.5498Z" fill="#2E2766"/>
<path d="M117.941 49.1519C118.359 49.2012 118.782 49.1714 119.187 49.0641C119.592 48.9568 119.972 48.7741 120.303 48.5266C120.634 48.2791 120.912 47.9715 121.119 47.6213C121.326 47.2712 121.459 46.8855 121.511 46.4861C121.462 45.914 121.225 45.3715 120.834 44.9365C120.443 44.5015 119.918 44.1965 119.334 44.0654" stroke="#B05959" stroke-width="0.93" stroke-miterlimit="10" stroke-linecap="round"/>
<path d="M141.871 100.277C135.609 93.2028 126.879 88.5432 117.301 87.1621C112.189 90.6613 105.961 92.3412 99.6933 91.9115C90.2973 91.4365 85.1431 88.5103 82.9342 86.8403C74.0003 87.5715 65.135 88.9336 56.4109 90.9156C45.3343 93.2444 37.4429 103.831 40.1 114.387C40.1 114.387 48.3595 189.152 63.71 193.227H126.985C142.319 186.976 146.433 111.89 146.433 111.89C147.249 108.105 145.072 103.984 141.871 100.277Z" fill="#FDAE20"/>
<path d="M65.2308 133.813C57.6276 151.325 50.4246 169.526 47.6234 183.345C81.2376 185.199 79.893 187.252 102.799 183.82C108.689 182.916 114.132 182.058 118.293 181.384L122.231 180.756L126.201 180.112C126.201 180.112 137.613 174.26 138.75 169.281C139.23 169.31 139.689 169.48 140.064 169.768C140.439 170.056 140.713 170.447 140.847 170.889C141.012 173.47 140.129 176.011 138.382 177.983C138.382 177.983 157.366 175.286 156.982 176.987C156.597 178.688 146.865 181.124 146.865 181.124C146.865 181.124 161.992 178.979 161.047 180.511C160.695 181.108 161.047 180.511 148.242 184.372C148.242 184.372 160.263 184.372 158.422 185.689C156.117 187.221 147.314 188.753 147.314 188.753C147.314 188.753 156.597 188.891 155.045 189.841C153.492 190.791 129.434 193.947 129.434 193.947L121.783 196.628C115.524 198.482 109.65 200.014 104.175 201.224L97.4205 203.093C32.593 218.644 20.4119 205.024 18.5391 202.174C13.657 198.298 21.7405 161.161 33.5535 123.104C34.6528 119.502 37.0466 116.387 40.3122 114.31C43.5779 112.233 47.5052 111.327 51.401 111.752H51.8972C54.4637 112.043 56.924 112.903 59.0827 114.263C61.2414 115.624 63.0391 117.447 64.3333 119.588C65.6274 121.73 66.3824 124.13 66.5382 126.599C66.694 129.069 66.2464 131.539 65.2308 133.813V133.813Z" fill="#FEC5A7"/>
<path d="M84.3433 88.8015C84.3433 88.8015 54.1545 89.9046 45.2547 95.512C29.7442 105.317 17.0188 171.303 17.0188 171.303L73.4747 177.079L100.286 128.635L84.3433 88.8015Z" fill="#FDAE20"/>
<path d="M121.847 133.369C119.878 152.214 117.509 170.139 108.674 181.415C78.1646 167.795 68.5445 158.097 50.0727 144.645C45.2707 141.168 40.9649 137.935 37.6355 135.453L34.4341 133.109L31.2328 130.75C31.2328 130.75 24.0777 120.408 25.5504 115.429C25.1015 115.236 24.6006 115.182 24.1183 115.275C23.6359 115.369 23.1962 115.605 22.8612 115.95C21.4435 118.157 20.9678 120.801 21.5327 123.334C21.5327 123.334 6.15014 112.35 5.63793 114.019C5.12571 115.689 12.5048 122.247 12.5048 122.247C12.5048 122.247 0.307672 113.636 0.371699 115.429C0.371699 116.118 0.3717 115.429 9.67163 124.621C9.67163 124.621 -0.940856 119.213 0.0675706 121.174C1.30009 123.61 8.34307 128.926 8.34307 128.926C8.34307 128.926 0.0675706 124.79 0.96395 126.322C1.86033 127.854 21.5487 141.643 21.5487 141.643L27.023 147.464C31.6223 151.938 36.0401 155.978 40.2766 159.583L45.2867 164.302C104.048 220.008 122.551 213.328 125.609 211.796C131.819 210.601 146.53 177.355 155.045 138.533C156.646 130.872 151.54 123.074 144 120.148C143.856 120.148 144.641 120.24 144.481 120.148C142.09 119.251 139.515 118.896 136.957 119.111C134.399 119.325 131.928 120.103 129.736 121.383C127.544 122.663 125.692 124.411 124.323 126.491C122.955 128.57 122.107 130.924 121.847 133.369Z" fill="#FCB99C"/>
<path d="M116.501 86.6721C116.501 86.6721 162.12 97.3966 161.64 129.003C161.368 146.775 151.94 184.387 151.94 184.387L107.873 176.038L116.501 86.6721Z" fill="#FDAE20"/>
<path d="M113.843 159.828L110.05 175.731" stroke="#2E2766" stroke-width="1.5" stroke-miterlimit="10"/>
<path d="M86.5934 45.8079C86.5759 46.3292 86.6833 46.8452 86.9022 47.2908C87.121 47.7363 87.4414 48.0914 87.8229 48.3112C88.2043 48.5309 88.6298 48.6055 89.0454 48.5254C89.461 48.4454 89.8481 48.2143 90.1579 47.8614C90.4677 47.5085 90.6862 47.0496 90.7858 46.5427C90.8854 46.0358 90.8617 45.5037 90.7176 45.0136C90.5734 44.5234 90.3154 44.0973 89.9762 43.7889C89.6369 43.4806 89.2315 43.304 88.8113 43.2813C88.5319 43.2662 88.2528 43.3197 87.99 43.4385C87.7273 43.5574 87.486 43.7394 87.28 43.9741C87.074 44.2088 86.9073 44.4915 86.7895 44.8062C86.6717 45.1209 86.605 45.4613 86.5934 45.8079V45.8079Z" fill="#2E2766"/>
<path d="M67.4472 43.6966C67.4297 44.2179 67.5371 44.7339 67.7559 45.1795C67.9748 45.625 68.2952 45.9801 68.6766 46.1999C69.0581 46.4196 69.4835 46.4942 69.8991 46.4141C70.3147 46.3341 70.7019 46.103 71.0117 45.7501C71.3215 45.3972 71.54 44.9383 71.6396 44.4314C71.7392 43.9245 71.7154 43.3924 71.5713 42.9022C71.4272 42.4121 71.1692 41.9859 70.8299 41.6776C70.4906 41.3693 70.0853 41.1926 69.6651 41.17C69.3856 41.1549 69.1065 41.2083 68.8438 41.3272C68.581 41.4461 68.3397 41.6281 68.1337 41.8628C67.9277 42.0974 67.761 42.3802 67.6432 42.6949C67.5254 43.0096 67.4588 43.35 67.4472 43.6966V43.6966Z" fill="#2E2766"/>
<path d="M73.8614 55.9449C74.0397 55.9536 74.2147 55.8967 74.3492 55.7862C74.4838 55.6757 74.5673 55.5202 74.5822 55.3527C74.5971 55.1852 74.5422 55.0188 74.429 54.8888C74.3158 54.7588 74.1534 54.6753 73.9759 54.656C73.756 54.4403 73.5721 54.1945 73.4304 53.9269C72.7867 52.9 73.1631 52.5611 74.0687 51.7806C74.755 51.2702 75.295 50.6065 75.6398 49.8499C75.8942 49.0851 75.996 48.2825 75.9398 47.4828V47.1131C75.9398 46.936 75.8651 46.7663 75.7321 46.6411C75.5991 46.5159 75.4187 46.4456 75.2307 46.4456C75.0426 46.4456 74.8622 46.5159 74.7292 46.6411C74.5962 46.7663 74.5215 46.936 74.5215 47.1131V47.4879C74.5717 48.1332 74.4997 48.7817 74.3087 49.4032C74.0304 49.958 73.6175 50.4435 73.1031 50.8204C72.2139 51.5855 71.0028 52.6329 72.203 54.5739C72.814 55.5341 73.3049 55.9449 73.8614 55.9449Z" fill="#2E2766"/>
<path d="M68.1774 36.9451C68.0131 36.9467 67.8532 36.895 67.7238 36.7984C67.5944 36.7019 67.5032 36.5663 67.4651 36.4138C67.427 36.2613 67.4443 36.1009 67.5141 35.959C67.584 35.8171 67.7022 35.7021 67.8495 35.6327C69.5557 34.8641 71.4765 34.6426 73.3254 35.0013C73.5 35.0561 73.6465 35.1718 73.7357 35.3252C73.8249 35.4786 73.8502 35.6585 73.8067 35.8289C73.7631 35.9994 73.6539 36.1479 73.5007 36.2448C73.3475 36.3418 73.1617 36.3801 72.9803 36.3521C71.4671 36.0672 69.8982 36.2479 68.4995 36.8682C68.3999 36.9175 68.2896 36.9438 68.1774 36.9451V36.9451Z" fill="#2E2766"/>
<path d="M88.1699 37.8909C88.0213 37.8215 87.8999 37.706 87.8256 37.5632C87.7513 37.4204 87.7286 37.2589 87.7611 37.1052C87.7935 36.9514 87.8793 36.8144 88.0044 36.7168C88.1294 36.6191 88.2863 36.5665 88.4493 36.5675C90.3226 36.6111 92.1495 37.24 93.6576 38.3603C93.7908 38.485 93.8721 38.6524 93.8853 38.829C93.8984 39.0056 93.8425 39.1785 93.7286 39.3133C93.6148 39.448 93.4513 39.5346 93.2709 39.5559C93.0905 39.5772 92.9064 39.5316 92.7553 39.4281C91.5172 38.5189 90.0251 38.0051 88.4937 37.9606C88.3824 37.962 88.2715 37.9381 88.1699 37.8909V37.8909Z" fill="#2E2766"/>
<path d="M79.591 64.3901C79.2064 64.3901 78.8441 64.3901 78.5263 64.3901C77.5042 64.3585 76.4931 64.1823 75.5272 63.8677C75.1477 63.7418 74.7834 63.5789 74.4401 63.3818C73.7712 62.99 73.7712 62.6033 73.8827 62.3369C73.9492 62.1916 74.0688 62.0734 74.2201 62.0035C74.3713 61.9336 74.5442 61.9166 74.7077 61.9555C74.8611 61.9897 74.9971 62.0728 75.0923 62.1906L75.1927 62.269C75.4516 62.4108 75.7241 62.5297 76.0066 62.6242C76.8398 62.8916 77.7126 63.0344 78.5932 63.0474C80.5777 63.1415 84.2514 63.0474 86.5091 61.3651C86.6569 61.2564 86.8448 61.2071 87.0315 61.2282C87.2181 61.2492 87.3881 61.3389 87.5042 61.4775C87.6202 61.616 87.6728 61.7921 87.6503 61.967C87.6278 62.1419 87.5321 62.3013 87.3843 62.41C85.1545 64.0714 81.8655 64.3901 79.591 64.3901Z" fill="#2E2766"/>
</svg>
