<svg width="33" height="32" viewBox="0 0 33 32" fill="none" xmlns="http://www.w3.org/2000/svg">
<g clip-path="url(#clip0_32_92)">
<path d="M5.77582 11.8315C5.7285 11.8338 5.68129 11.8254 5.63777 11.8069C5.59426 11.7884 5.55558 11.7604 5.52469 11.7249L4.0707 10.103L3.70908 10.5841C3.68283 10.6184 3.64981 10.647 3.61204 10.6682C3.57427 10.6895 3.53253 10.703 3.48933 10.7078C3.44614 10.7127 3.40239 10.7089 3.36074 10.6965C3.31909 10.6842 3.2804 10.6637 3.24702 10.6362L1.44898 9.11853C1.38438 9.06459 1.34412 8.98753 1.33705 8.90428C1.33355 8.86306 1.33831 8.82156 1.35105 8.78216C1.3638 8.74275 1.38427 8.70621 1.41131 8.67462C1.43836 8.64303 1.47143 8.61701 1.50866 8.59805C1.54588 8.57908 1.58653 8.56754 1.62827 8.56409C1.71257 8.55711 1.79622 8.58349 1.86082 8.63743L3.41527 9.93937L3.80702 9.42355C3.83665 9.38528 3.87459 9.35406 3.91804 9.33217C3.9615 9.31028 4.00937 9.29829 4.05814 9.29708C4.10539 9.29536 4.15243 9.30404 4.19586 9.32248C4.23929 9.34092 4.27802 9.36867 4.30926 9.40371L6.02694 11.3083C6.05489 11.3391 6.07637 11.3751 6.09013 11.4142C6.10388 11.4532 6.10964 11.4946 6.10707 11.5359C6.1045 11.5772 6.09365 11.6176 6.07516 11.6547C6.05666 11.6918 6.03088 11.725 5.99931 11.7522C5.96921 11.7793 5.93396 11.8003 5.8956 11.8139C5.85724 11.8275 5.81653 11.8335 5.77582 11.8315V11.8315Z" fill="#FEFAEF"/>
<path d="M2.9456 13.8527H2.89788L0.268635 13.4435C0.187507 13.4278 0.115809 13.3814 0.0688786 13.3142C0.0219478 13.247 0.00351107 13.1643 0.0175126 13.0839C0.0305511 13.0038 0.0743847 12.9317 0.13988 12.8828C0.205375 12.8338 0.287479 12.8117 0.369083 12.821L2.51115 13.1434L2.33537 12.449C2.32123 12.3962 2.32138 12.3406 2.3358 12.2878C2.35023 12.235 2.37841 12.1869 2.41755 12.1483C2.45669 12.1096 2.50541 12.0818 2.55885 12.0676C2.61229 12.0533 2.66858 12.0532 2.7221 12.0671L5.47188 12.7466C5.55414 12.767 5.62482 12.8188 5.66838 12.8907C5.71194 12.9625 5.72482 13.0485 5.70417 13.1298C5.68352 13.211 5.63105 13.2808 5.55829 13.3238C5.48553 13.3668 5.39844 13.3795 5.31619 13.3592L3.08371 12.8061L3.24694 13.4509C3.25955 13.5013 3.25927 13.5539 3.24611 13.6041C3.23296 13.6544 3.20736 13.7006 3.17161 13.7386C3.14405 13.7721 3.10972 13.7995 3.0708 13.8192C3.03188 13.8388 2.98923 13.8502 2.9456 13.8527V13.8527Z" fill="#FEFAEF"/>
<path d="M1.74028 18.4827C1.67266 18.4823 1.60694 18.4606 1.55261 18.4208C1.49828 18.381 1.45815 18.3253 1.43803 18.2615C1.41791 18.1977 1.41883 18.1293 1.44066 18.0661C1.46249 18.0029 1.5041 17.9482 1.55948 17.9099L3.18424 16.7914L2.73473 16.2955C2.70575 16.2613 2.68413 16.2218 2.67118 16.1791C2.65822 16.1365 2.65421 16.0917 2.65939 16.0475C2.66667 16.002 2.68393 15.9587 2.70996 15.9206C2.73599 15.8825 2.77016 15.8504 2.81006 15.8268L5.02245 14.5C5.09505 14.4569 5.182 14.4441 5.26418 14.4643C5.34636 14.4846 5.41703 14.5362 5.46066 14.6079C5.50428 14.6796 5.51728 14.7654 5.49679 14.8466C5.47631 14.9278 5.42402 14.9975 5.35142 15.0406L3.47805 16.1541L3.90998 16.6501C3.93883 16.6843 3.96037 16.7238 3.97332 16.7665C3.98626 16.8091 3.99035 16.8539 3.98532 16.8981C3.98024 16.9421 3.96574 16.9845 3.9428 17.0226C3.91985 17.0606 3.88898 17.0934 3.85222 17.1188L1.9236 18.4257C1.87012 18.4633 1.80595 18.4833 1.74028 18.4827Z" fill="#FEFAEF"/>
<path d="M6.67725 31.5095C6.62748 31.5096 6.57782 31.5047 6.52909 31.4946C6.38057 31.4561 6.25336 31.3614 6.1749 31.231C6.09644 31.1007 6.07303 30.9451 6.10972 30.7978L8.73896 20.5558V19.8118C8.74078 19.7353 8.75784 19.6599 8.78917 19.5899C8.8205 19.5198 8.8655 19.4566 8.92158 19.4038C8.97766 19.3509 9.04373 19.3095 9.11602 19.2819C9.18832 19.2542 9.26541 19.2409 9.34291 19.2427C9.42041 19.2445 9.49679 19.2614 9.5677 19.2923C9.6386 19.3232 9.70264 19.3677 9.75616 19.423C9.80967 19.4784 9.85162 19.5437 9.8796 19.6151C9.90758 19.6865 9.92105 19.7626 9.91924 19.8391L9.90417 20.6501C9.90327 20.6936 9.89737 20.7368 9.88659 20.779L7.23976 31.0755C7.20881 31.1997 7.13653 31.3099 7.03452 31.3886C6.93252 31.4673 6.8067 31.5099 6.67725 31.5095V31.5095Z" fill="#FEFAEF"/>
<path d="M9.79366 31.5096C9.70653 31.5083 9.62077 31.488 9.54254 31.4501C9.40681 31.3802 9.30437 31.2604 9.25738 31.1165C9.21039 30.9727 9.22262 30.8163 9.29141 30.6813L11.2703 26.7408C12.2571 24.7904 12.4205 22.5333 11.7248 20.4641C11.684 20.3907 11.6599 20.3093 11.6544 20.2257C11.6489 20.142 11.662 20.0582 11.6929 19.9802C11.7237 19.9021 11.7716 19.8317 11.833 19.7739C11.8944 19.716 11.9679 19.6722 12.0483 19.6455C12.1287 19.6188 12.2141 19.6098 12.2984 19.6192C12.3828 19.6286 12.464 19.6562 12.5363 19.7C12.6087 19.7437 12.6704 19.8027 12.7172 19.8726C12.764 19.9425 12.7947 20.0217 12.8071 20.1046C13.5996 22.4606 13.4136 25.0308 12.2898 27.2516L10.2959 31.1897C10.2497 31.2832 10.1785 31.3624 10.0899 31.4188C10.0014 31.4752 9.89896 31.5066 9.79366 31.5096V31.5096Z" fill="#FEFAEF"/>
<path d="M9.13571 8.67965C8.98378 8.67904 8.8381 8.61984 8.72974 8.51468C8.62137 8.40952 8.55889 8.26671 8.55562 8.11671L8.53804 6.98588C8.53656 6.76521 8.52062 6.54486 8.49033 6.32622C8.26181 4.74653 9.18091 3.25611 10.6324 2.85437H10.6625L14.4871 2.02112H14.5097C14.9191 1.94921 15.6373 1.65162 15.8532 0.473667C15.8805 0.324038 15.9669 0.19125 16.0934 0.104514C16.2198 0.0177785 16.376 -0.0157997 16.5275 0.0111664C16.679 0.0381325 16.8135 0.123434 16.9013 0.248306C16.9891 0.373177 17.0231 0.52739 16.9958 0.677019C16.7447 2.0112 15.9035 2.93372 14.7357 3.15692L10.9237 3.96784C10.0573 4.21583 9.4923 5.17307 9.63544 6.16255C9.67174 6.42726 9.69103 6.69397 9.6932 6.96108L9.71831 8.09935C9.72033 8.25086 9.66148 8.39699 9.55464 8.50575C9.4478 8.61451 9.30168 8.67704 9.14827 8.67965H9.13571Z" fill="#FEFAEF"/>
<path d="M12.8902 19.2961C11.4509 19.2942 10.0711 18.7287 9.05333 17.7236C8.03558 16.7185 7.46293 15.356 7.46094 13.9346C7.46094 12.2309 8.33987 10.6363 9.93449 9.43854C11.1273 8.54578 11.1901 6.92144 11.1901 6.90656C11.1961 6.75463 11.263 6.61128 11.376 6.50803C11.489 6.40478 11.6389 6.35011 11.7928 6.35603C11.9466 6.36195 12.0918 6.42798 12.1964 6.53959C12.3009 6.65121 12.3563 6.79927 12.3503 6.9512C12.3503 7.038 12.2473 9.13351 10.6251 10.3511C9.87171 10.9166 8.6161 12.1317 8.6161 13.9346C8.6161 15.0527 9.06588 16.125 9.86648 16.9156C10.6671 17.7063 11.7529 18.1504 12.8852 18.1504C13.4978 18.1459 14.103 18.0186 14.6642 17.776C15.2254 17.5334 15.7308 17.1807 16.1498 16.7394C16.5028 16.3749 16.7745 15.9414 16.9475 15.4668C17.1205 14.9923 17.191 14.4872 17.1542 13.9842C17.1413 13.8319 17.1901 13.6808 17.2899 13.5641C17.3897 13.4473 17.5324 13.3746 17.6866 13.3617C17.8408 13.3489 17.9938 13.3971 18.112 13.4957C18.2303 13.5943 18.304 13.7352 18.3169 13.8875C18.3688 14.548 18.2798 15.212 18.0558 15.8365C17.8317 16.461 17.4775 17.0321 17.0161 17.5131C16.4903 18.0754 15.8522 18.5241 15.1421 18.831C14.432 19.1379 13.6653 19.2962 12.8902 19.2961Z" fill="#FEFAEF"/>
<path d="M11.5617 15.2538C12.0458 15.2538 12.4381 14.8663 12.4381 14.3883C12.4381 13.9103 12.0458 13.5228 11.5617 13.5228C11.0777 13.5228 10.6853 13.9103 10.6853 14.3883C10.6853 14.8663 11.0777 15.2538 11.5617 15.2538Z" fill="#FEFAEF"/>
<path d="M31.8045 31.5096C31.6753 31.5091 31.5499 31.4662 31.4481 31.3877C31.3462 31.3091 31.2737 31.1993 31.242 31.0756L28.5977 20.7692C28.5857 20.7272 28.5798 20.6838 28.5801 20.6402L28.565 19.8392C28.5624 19.6873 28.6209 19.5405 28.7278 19.4312C28.8347 19.3219 28.9812 19.2591 29.1351 19.2564C29.2889 19.2538 29.4375 19.3116 29.5482 19.4172C29.6589 19.5228 29.7225 19.6674 29.7252 19.8194V20.5633L32.357 30.8053C32.3943 30.953 32.3708 31.1092 32.2917 31.2398C32.2127 31.3704 32.0844 31.4647 31.9351 31.5022C31.8919 31.5087 31.8482 31.5112 31.8045 31.5096Z" fill="#FEFAEF"/>
<path d="M28.6981 31.5096C28.5895 31.5096 28.4831 31.4797 28.3908 31.4232C28.2985 31.3666 28.224 31.2858 28.1758 31.1897L26.197 27.2516C25.0795 25.0284 24.8989 22.4588 25.6947 20.1045C25.7186 20.033 25.7566 19.9669 25.8063 19.9099C25.8561 19.8529 25.9168 19.8061 25.9849 19.7723C26.053 19.7384 26.1272 19.7182 26.2032 19.7126C26.2792 19.7071 26.3556 19.7164 26.428 19.74C26.5004 19.7636 26.5673 19.8011 26.6251 19.8502C26.6828 19.8994 26.7301 19.9593 26.7644 20.0265C26.7987 20.0938 26.8192 20.167 26.8249 20.2421C26.8305 20.3172 26.821 20.3926 26.7971 20.4641C26.1006 22.5329 26.2632 24.7901 27.2492 26.7407L29.2305 30.6813C29.2993 30.8163 29.3115 30.9727 29.2645 31.1165C29.2176 31.2604 29.1151 31.3802 28.9794 31.4501C28.8921 31.4926 28.7954 31.513 28.6981 31.5096Z" fill="#FEFAEF"/>
<path d="M29.346 8.67964C29.2698 8.67835 29.1946 8.66225 29.1248 8.63226C29.0549 8.60227 28.9917 8.55898 28.9387 8.50487C28.8858 8.45075 28.8442 8.38686 28.8163 8.31686C28.7883 8.24685 28.7746 8.1721 28.776 8.09687L28.7986 6.95859C28.8014 6.69142 28.8216 6.42471 28.8588 6.16007C29.002 5.16811 28.4369 4.20839 27.5706 3.96536L23.7585 3.14451C22.5808 2.93124 21.732 2.00872 21.4984 0.677015C21.4708 0.527386 21.5045 0.373043 21.5921 0.247939C21.6797 0.122835 21.814 0.0372177 21.9655 0.00992276C22.1171 -0.0173722 22.2733 0.0158907 22.4 0.102394C22.5267 0.188897 22.6134 0.321555 22.6411 0.471184C22.857 1.64913 23.5752 1.94672 23.9846 2.01864H24.0072L27.8368 2.85188H27.8669C29.3159 3.24619 30.2375 4.73661 30.0065 6.32374C29.9784 6.54257 29.9633 6.76283 29.9613 6.98339L29.9361 8.12166C29.9322 8.27273 29.868 8.41614 29.7574 8.52065C29.6469 8.62516 29.499 8.68231 29.346 8.67964V8.67964Z" fill="#FEFAEF"/>
<path d="M25.5944 19.2961C24.8193 19.2962 24.0526 19.1379 23.3425 18.831C22.6324 18.5241 21.9944 18.0754 21.4685 17.5131C21.0071 17.0321 20.6529 16.461 20.4289 15.8365C20.2048 15.212 20.1158 14.548 20.1677 13.8875C20.1803 13.7359 20.2535 13.5954 20.371 13.4971C20.4291 13.4484 20.4965 13.4115 20.5691 13.3884C20.6417 13.3654 20.7182 13.3568 20.7942 13.363C20.8702 13.3692 20.9443 13.3901 21.0121 13.4245C21.0799 13.459 21.1402 13.5063 21.1896 13.5637C21.2389 13.6212 21.2762 13.6876 21.2995 13.7594C21.3228 13.8311 21.3316 13.9066 21.3253 13.9817C21.2875 14.4848 21.3574 14.9902 21.5305 15.4649C21.7036 15.9396 21.9759 16.373 22.3298 16.7369C22.7488 17.1783 23.2542 17.5309 23.8154 17.7735C24.3766 18.0161 24.9818 18.1435 25.5944 18.1479C26.7267 18.1479 27.8125 17.7038 28.6131 16.9131C29.4137 16.1225 29.8635 15.0502 29.8635 13.9321C29.8635 12.1292 28.6079 10.9141 27.8545 10.3487C26.2222 9.1335 26.1168 7.03799 26.1168 6.94375C26.1108 6.79182 26.1661 6.64376 26.2707 6.53215C26.3752 6.42053 26.5204 6.3545 26.6742 6.34858C26.8281 6.34266 26.978 6.39734 27.0911 6.50058C27.2041 6.60383 27.2709 6.74719 27.2769 6.89912C27.2769 6.914 27.3673 8.54577 28.5451 9.43109C30.1422 10.6289 31.0212 12.2235 31.0212 13.9271C31.0212 15.3494 30.4498 16.7135 29.4323 17.7201C28.4149 18.7267 27.0346 19.2935 25.5944 19.2961Z" fill="#FEFAEF"/>
<path d="M26.9228 15.2538C27.4068 15.2538 27.7992 14.8663 27.7992 14.3883C27.7992 13.9103 27.4068 13.5228 26.9228 13.5228C26.4388 13.5228 26.0464 13.9103 26.0464 14.3883C26.0464 14.8663 26.4388 15.2538 26.9228 15.2538Z" fill="#FEFAEF"/>
</g>
<defs>
<clipPath id="clip0_32_92">
<rect width="32.3872" height="31.5096" fill="white"/>
</clipPath>
</defs>
</svg>
